<svg width="25" height="25" viewBox="0 0 25 25" fill="none" xmlns="http://www.w3.org/2000/svg">
<path d="M12.5 0C5.6 0 0 5.6 0 12.5C0 19.4 5.6 25 12.5 25C19.4 25 25 19.4 25 12.5C25 5.6 19.4 0 12.5 0ZM13.6 19.7V21.25H11.4125V19.6375C10.4875 19.4125 8.425 18.675 7.6375 15.9375L9.7 15.1C9.775 15.375 10.425 17.7125 12.7 17.7125C13.8625 17.7125 15.175 17.1125 15.175 15.7C15.175 14.5 14.3 13.875 12.325 13.1625C10.95 12.675 8.1375 11.875 8.1375 9.025C8.1375 8.9 8.15 6.025 11.4125 5.325V3.75L13.6 3.75V5.3C15.9 5.7 16.7375 7.5375 16.925 8.0875L14.95 8.925C14.8125 8.4875 14.2125 7.25 12.575 7.25C11.7 7.25 10.3125 7.7125 10.3125 8.9875C10.3125 10.175 11.3875 10.625 13.6125 11.3625C16.6125 12.4 17.375 13.925 17.375 15.675C17.375 18.9625 14.25 19.5875 13.6 19.7Z" fill="black"/>
</svg>
