<svg width="1920" height="1080" viewBox="0 0 1920 1080" fill="none" xmlns="http://www.w3.org/2000/svg">
<path d="M125.5 0L119 24.5C117 53.5 105.4 68.5 71 86.5L32.5 107L86 90C90.6667 88.3333 100.4 85.5 102 87.5C104 90 107 93 107 100C107 105.6 108.333 137.333 109 152.5C109.5 180.667 110.2 239 109 247C107.8 255 99.1667 303.667 95 327C94.1667 329.167 91.8 333.7 89 334.5C85.5 335.5 71.5 334 63.5 331C57.1 328.6 18.5 314 0 307C23.8333 320.333 73.1 349.1 79.5 357.5C88.3 365.5 91.8333 376.167 92.5 380.5L105.5 451C106.833 468.5 109.1 507.7 107.5 524.5C105.5 545.5 105 619.5 107.5 630C109.5 638.4 109.333 647.167 109 650.5L105.5 657L109 666V759.5C111.167 761.667 114.7 770.7 111.5 789.5C108.3 808.3 99.8333 864.333 96 890C93.013 910 26.5 918.7 10.5 923.5C37.5 925 68.5 923.5 75 926.5C81.5 929.5 87 927.5 91.5 950C96 972.5 102 996.5 102 1005.5C102 1012.7 104.5 1059 102 1080H125L131.5 1036L142.5 1026L133.5 1018.5L154.5 965.5L122 1011L116.5 981L110.5 907C110.5 901 113 894.5 126 896L113.5 885.5L130.5 812.5C131.667 808.833 136.6 802.2 147 805C157.4 807.8 172 811.167 178 812.5L152 793.5L151 788C143.5 787.333 129 782.3 131 767.5C131.8 763.1 132.667 758 133 756C135.833 738 142.8 699.8 148 691C153.2 682.2 167.167 654.667 173.5 642C163.667 657.5 142.9 689 138.5 691C133 693.5 130 694.5 128 688.5V647.5L129 592C126.833 589.667 122.6 583.4 123 577C123.4 570.6 125.167 516 126 489.5C126 483.833 128.5 470.8 138.5 464C141.5 462 141 454.5 134 454.5C127 454.5 122.5 454 120.5 443.5C118.5 433 107.5 387 107.5 373.5C107.5 348.5 111 308.5 116 291.5L122 267.5C122.5 264.5 125.5 259.2 133.5 262C141.5 264.8 170.167 278.5 183.5 285C171.833 276.667 146.6 258.3 139 251.5C129.5 243 123.5 232.5 123.5 221.5C123.5 212.7 123.833 176.833 124 160C123.667 148.333 122.8 123.6 122 118C121 111 117 91.5 121 73.5C124.2 59.1 128.333 42.5 130 36L125.5 0Z" fill="white"/>
<path d="M601 1039L595.502 972.5C594.335 964.666 595.102 948 607.502 944C619.902 940 648.335 929.333 661.002 924.5L612.502 930.5C605.002 932.166 589.002 930.6 585.002 911C581.002 891.4 570.669 838.5 566.002 814.5C564.502 807.833 561.802 789.4 563.002 769C564.202 748.6 566.167 715.833 567 702C567.331 696.5 571.687 692.903 583 697.5C599 704 583 694.833 576.5 689.5C572.668 686.5 565.204 675.4 566.002 655C566.8 634.6 570 588.5 571.5 568C572.667 558.167 576.6 538 583 536C591 533.5 593 529.5 590 525L634 500.5L584 514.5C580.167 515.333 572.1 513.6 570.5 500C568.5 483 569.5 466.5 571.5 449.5C573.5 432.5 583 377 587 360C590.2 346.4 595 330 597 323.5C598.5 318 606.4 306.9 626 306.5L650 303.5L603 304C599 304 598.2 302.6 599 295C600 285.5 607 235.5 613.5 225.5C620 215.5 615.5 219 626 215.5C629.5 213.5 626 208 625 206.5C624.2 205.3 656.333 183.667 672.5 173C656.667 180.833 624.2 196.4 621 196C617 195.5 611.5 195.5 611 181.5C610.5 167.5 612 131 620 102.5C625.559 82.6974 634.667 47.1667 639 32L665 1L621.5 31C620.667 37.5 618.7 51.6 617.5 56C616 61.5 604.5 100 602.5 105C600.5 110 593.5 114.5 587.5 113C582.7 111.8 549.167 100.833 533 95.5L582 125.5C584.833 127.167 590.6 132.7 591 141.5C591.4 150.3 592.5 195.5 593 217C592 231.167 589.5 261.8 587.5 271C585.5 280.2 579.667 311.833 577 326.5L565 390L553.5 446C552.167 449.5 547.5 456.5 539.5 456.5C531.5 456.5 492.167 448.833 473.5 445C494 452.667 534 467 540.5 477.5C547.241 488.389 551.5 497 552.5 517C553.167 533.5 554.1 572.6 552.5 597C550.9 621.4 549.833 645.833 549.5 655C549.833 659.167 550.3 668.7 549.5 673.5C548.5 679.5 543.5 694 547 712C547.8 719.6 548 735.167 548 742C547.167 753.833 545.2 778.1 544 780.5C542.5 783.5 540 788.5 529.5 786.5C521.1 784.9 488.667 777.5 473.5 774L530.5 801.5C533.833 802.667 541.7 809.6 546.5 828C551.3 846.4 565.833 912 572.5 942.5C575.333 968.667 580.6 1022.7 579 1029.5C577.4 1036.3 572.5 1045.41 563.5 1046.5L491.5 1033L567.5 1070.5L569.5 1080H590L604.5 1040.5L601 1039Z" fill="white"/>
<path d="M1301 0C1301 3.33333 1299.9 11 1295.5 15C1291.1 19 1276.33 26.6667 1269.5 30L1218.5 51.5C1231 48 1252.2 47.5 1267 53.5C1271 54.5 1278.8 59.7 1278 72.5C1277.2 85.3 1269.33 146.167 1265.5 175C1265 179.5 1262.1 187.9 1254.5 185.5L1158 176.5L1248.5 211.5C1252 212.5 1258.4 217.2 1256 228C1253.6 238.8 1243.67 282.167 1239 302.5L1219.5 381C1213.33 405 1199.4 457 1193 473C1185 493 1159 568 1156 574C1153.6 578.8 1151.5 581.5 1150.5 578L1140 524.5L1135 585C1134.83 586.667 1133.9 590.3 1131.5 591.5C1128.5 593 1124.5 592 1121 590C1118.2 588.4 1061.83 551.667 1034 533.5L1083.5 582.5C1090.17 586 1104.1 594 1106.5 598C1109.5 603 1113 609 1113 614.5C1114.2 616.1 1116.17 617.5 1117 618C1119.5 619.333 1124.5 623.4 1124.5 629C1124.5 634.6 1124.83 652.333 1125 660.5L1121 688L1114.5 731.5L1102 810L1080.5 880.5L1052.5 962.5C1048.5 976.5 1040.1 1008.1 1038.5 1022.5C1036.9 1036.9 1033.83 1066.83 1032.5 1080H1072L1079 1023C1083 1005.17 1092.6 964 1099 942C1105.4 920 1108.33 910.167 1109 908C1115.5 895.5 1129.9 869.7 1135.5 866.5C1141.1 863.3 1137.83 860.167 1135.5 859C1135.5 854 1138 845.3 1148 850.5C1158 855.7 1200.83 885.667 1221 900L1161 831L1170 827.5H1186.5L1199.5 823L1260.5 814.5L1161 812.5L1152 810C1147.83 809.667 1140 805.3 1142 790.5C1144 775.7 1148.17 748.667 1150 737L1153.5 730C1152.83 725.333 1153.22 713.422 1155.5 702C1165.5 652 1191.5 569.5 1211.5 522C1217.33 504.167 1231.6 462.4 1242 438C1252.5 405.5 1261.5 417.5 1269 424L1268 466L1277.5 429.5L1357 477.5L1277.5 412C1271.83 408 1260.7 393.9 1261.5 369.5C1262.5 339 1269.5 305 1284 292C1284 285 1280.5 257.5 1294 247L1305.5 187L1359.5 98L1315 155L1304 161L1301.5 153.5C1305 128.5 1309.96 96.9331 1313.5 81C1316.5 67.5 1312.5 87.5 1317.5 60C1322.5 32.5 1301 0 1301 0Z" fill="white"/>
<path d="M1704.5 1080H1669.5C1666.5 1068.33 1655.3 1040.4 1634.5 1022C1629.7 1014.4 1623.5 1012.83 1621 1013L1575 1019L1621 1004.5C1620.17 1000.17 1616.6 989.9 1609 983.5C1601.4 977.1 1591.17 969.167 1587 966C1604.67 973.667 1642.6 988.8 1653 988C1666 987 1671.5 989 1675 978C1677.8 969.2 1696.17 911 1705 883C1710 867.5 1719.9 834.2 1719.5 825C1719.1 815.8 1692.33 799.833 1679 793L1724 808C1728.17 780.833 1736.6 722.8 1737 708C1737.4 693.2 1738.17 643.833 1738.5 621L1735 614.5C1731.5 609.167 1724.2 596.9 1723 590.5C1717.8 585.7 1675.17 541.167 1654.5 519.5L1730.5 580.5C1736.17 585.5 1749 592.2 1755 579C1761 565.8 1782.83 516.167 1793 493C1796.5 478 1802.8 445.577 1804.5 436.5C1806 428.5 1806.5 423 1806 418.5C1806.17 417.667 1804.9 414.3 1798.5 407.5C1792.1 400.7 1769.5 377.667 1759 367L1806.5 397.5L1816 327.5L1799.5 320.5C1799.17 320.167 1800.1 319.8 1806.5 321C1814.5 322.5 1820.5 317 1822 315.5C1823.2 314.3 1826.5 306 1828 302L1851.5 240L1864 194L1877 160.5C1880.83 146.667 1889.2 116.4 1892 106C1894.8 95.6 1903.5 59 1907.5 42C1909.17 35.5 1912 21.3 1910 16.5C1908 11.7 1903.5 3.5 1901.5 0L1920 25V74L1913.5 114.5L1920 128V139.5C1917.17 139 1911.2 139.5 1910 145.5C1910 153 1906 165.5 1920 165.5V175C1917 177 1910.6 182.1 1909 186.5C1907.4 190.9 1906.33 198 1906 201C1905.67 202.5 1903.2 205.5 1896 205.5C1888.8 205.5 1883.33 216.833 1881.5 222.5C1871 247.5 1848.8 302.1 1844 320.5C1839.2 338.9 1833.67 361.5 1831.5 370.5C1831.83 373.667 1834 381 1840 385C1846 389 1836.17 388.333 1830.5 387.5L1826 439.5C1825.67 443.5 1829.3 450.3 1846.5 445.5L1882 433L1849.5 465.5L1853 488C1851.33 484.833 1846.1 478.5 1838.5 478.5C1829 478.5 1822.5 483 1819.5 489C1817.1 493.8 1804.5 523.333 1798.5 537.5L1778.5 585C1773.67 593.5 1763.7 615.3 1762.5 634.5C1761 658.5 1756 698 1774 706C1788.4 712.4 1833.67 731 1854.5 739.5C1837 734.833 1800.9 725.5 1796.5 725.5C1791 725.5 1766.5 721.5 1762 726C1757.5 730.5 1760 743.5 1761 744C1761.8 744.4 1770 747.833 1774 749.5L1765.5 754C1762.5 773 1757.5 812.8 1747.5 844C1737.5 875.2 1720 930 1712.5 953.5L1700 997C1698 1009.67 1694.6 1036.2 1697 1041C1699.4 1045.8 1716 1045.67 1724 1045L1697 1051.5L1704.5 1080Z" fill="white"/>
<path d="M804 1080H828.5C828.5 1074.17 828.7 1060.4 829.5 1052C830.5 1041.5 829.5 1028.5 829 1026.5C828.5 1024.5 832 1020 836.5 1019.5C840.1 1019.1 829.667 1013.67 824.5 1011.5L834.5 902.5C834.833 896.333 836.3 884.1 847.5 880.5C851.5 879.214 891.5 889.5 892.5 889L842.5 867L857 841.5C859.5 837.666 865.8 828.3 871 821.5C876.2 814.7 882.167 805.333 884.5 801.5L899.5 768.5L865.5 811L831 853L828 852C826.333 840 823.4 815 825 811C827 806 830.5 802.5 833 801C835 799.8 829.5 788.833 826.5 783.5C826.833 769.666 829.2 741.4 836 739C842.8 736.6 858.167 734.666 865 734L836 730L836.025 729.903C840.031 714.378 847.531 685.316 862.5 677C869.7 673 878.833 672 882.5 672L948.5 677C941.167 672.166 921.5 662 901.5 660C876 654 861.5 647.5 861.5 635C861.5 625 868.833 528.833 872.5 482C875.667 465.666 883.4 432.1 889 428.5C894.6 424.9 898.667 416.333 900 412.5L897.5 332.5L895.5 274.5L904 237.5L917.5 213.5C915.5 211.333 912.1 205.2 914.5 198C916.9 190.8 922.5 181.333 925 177.5C933 183.666 950.6 198.4 957 208L968 222.5L956 200L940 175C939.5 172.5 939 167.2 941 166C943 164.8 939.5 161.5 937.5 160C933.667 155.833 926.8 143.8 930 129C932.8 115 938.5 113.5 941 114.5L946.5 116V107C944 102.333 939.5 90.9 941.5 82.5C944 72 946.5 58 956.5 55C964.5 52.6 961.167 48 958.5 46C955.333 45.5 949.3 42.8 950.5 36C951.7 29.2 950.667 9.16667 950 0L928 39.5L915 118L899.5 196.5L888 230.5C886.833 234.167 884.3 241.7 883.5 242.5C882.5 243.5 879.5 247.5 872 244.5C863.5 241.5 846.5 232.5 839 227.5C833 223.5 791.167 200.833 771 190L845.5 244.5C849 247 856.1 253.9 856.5 261.5C857.3 263.1 863.167 266.5 866 268C868.667 269.5 874.3 276.2 875.5 291C876.7 305.8 878 343.167 878.5 360L873 394.5H870L851 495.5L847.5 535.5L844.5 536L817.5 483L823 515C827 524.833 835 545.1 835 547.5C835 550.5 832.5 554 830.5 554C828.9 554 829.167 558.667 829.5 561C832 563.833 837.3 571.6 838.5 580C840 590.5 841 630 838.5 642C836 654 829.5 679 826.5 688C824.1 695.2 816.833 716.667 813.5 726.5C812.667 728 810.5 731.1 808.5 731.5C806.5 731.9 807 738.667 807.5 742C807.5 745.833 807 753.9 805 755.5C802.5 757.5 793 761 789.5 762C786.7 762.8 715.333 776.333 680 783L769.5 785C779 785.166 798.3 788.599 799.5 801C800.7 813.4 805.333 859.166 807.5 880.5L806 926L799 929L797.5 953L799 1035C797.833 1037 795.4 1041.4 795 1043C794.5 1045 793.599 1049.16 799 1052C808.5 1057 804 1071.83 804 1080Z" fill="white"/>
<path d="M517.498 2C511.998 10.6667 499.798 29.2 494.998 34C490.198 38.8 469.331 84 459.498 106L428.998 186.5C427.498 192.167 427.598 204.1 439.998 206.5C452.398 208.9 487.497 204.833 503.496 202.5L437.996 219.5C430.33 219.833 413.396 223.5 406.996 235.5C400.596 247.5 371.663 294.167 357.996 316L356.996 323.5L340.496 348L345.996 353V360.5L311.996 418C306.496 431.833 293.996 465.6 287.996 490C281.996 514.4 277.496 531.5 275.996 537C273.83 543 274.996 556.1 296.996 560.5C318.996 564.9 375.499 575.667 401 580.5L302 571C292.833 569 272 570.6 262 593C252 615.4 232.167 665.333 223.5 687.5L204.5 755.5L200 791C200.5 793.833 202.8 799.8 208 801C213.2 802.2 240.833 806.5 254 808.5H203V812.5L200 818.5L197.5 849L196.5 887.5L260 907L206.5 896.5C200 896.5 196.6 898.2 195 909L187.5 974L182.5 1035C183 1043 183.7 1060.4 182.5 1066C181.3 1071.6 181 1077.83 181 1080H156C158 1075.67 159 1065.5 147 1061.5C160 1049 162 1046.5 163.5 1028C164.7 1013.2 169.667 959.167 172 934L174.5 895.5L167 869C170.5 869.667 177.7 868.8 178.5 860C179.3 851.2 180.167 827 180.5 816C180.667 814.833 179.7 812.3 174.5 811.5C169.3 810.7 136.333 800.5 120.5 795.5L176 801L177.5 775C180 766.5 183.2 746.9 176 736.5C168.8 726.1 158.667 720.5 154.5 719L110 699L177.5 716.5L184.5 714L209 672.5L245.5 579L258 538.5C260.833 524.833 267.6 492.2 272 471C276.4 449.8 302.833 389.167 315.5 361.5L328.5 331.5C329.167 328.5 329 321.6 323 318C321.8 316.4 323.833 313.667 325 312.5C331.831 310.167 347.793 301.6 356.996 286C366.199 270.4 385.833 236.167 394.5 221C404 199.667 425.6 149.8 436 121C446.4 92.2 457.333 62 461.5 50.5C462.667 45.5 463.2 33.3 456 24.5C448.8 15.7 439.667 4.83333 436 0.5C445.167 6.83333 466.4 19.1 478 17.5C489.6 15.9 509.165 6.5 517.498 2Z" fill="white"/>
<path fill-rule="evenodd" clip-rule="evenodd" d="M1209 0.5L1141 65.5L1106.5 92.5L1065.5 163C1046.5 190 1032.5 187.5 1026.5 208C1020.5 228.5 983.5 273 983.5 273L971 287L929 260.5L962.5 290.5C963.667 291.5 965.3 294.7 962.5 299.5C959.7 304.3 947.667 323.5 942 332.5C939.333 336.167 931.3 343.6 920.5 344C907 344.5 903.5 344.5 898.5 340.5C894.5 337.3 887.167 294.167 884 273L878.5 360L871 409C867.667 419.667 859.2 443 852 451C844.8 459 829.667 475.333 823 482.5L819.5 484L805.5 479.5C803.833 479.333 798.4 476.4 790 466C781.6 455.6 745.833 421.333 729 405.5L777.5 466.5C785.5 475.5 801.1 496.4 799.5 508C797.5 522.5 796.5 529 787 541C781.4 550.6 776.667 552.333 775 552L767.5 551.5L767 559.5C769 563.833 772.9 575.1 772.5 585.5C772.1 595.9 771 617.833 770.5 627.5L767 638L765 645.5C764.667 663.833 763.5 703.9 761.5 717.5C759.5 731.1 754.333 756.167 752 767L749 770C747.167 779.167 742.4 800.7 738 813.5C733.6 826.3 727.833 841.167 725.5 847C722.333 851 712.6 857.3 699 850.5C685.4 843.7 636 817 613 804.5L691.5 859.5C698.833 864.167 713.5 877.3 713.5 892.5C713.5 911.5 714 917 707.5 925.5L713.5 992.5C713.833 1004.83 713.8 1031.4 711 1039C708.2 1046.6 705.167 1049.5 704 1050L713.5 1048L722 1080H732.5L729 1043L762 1017C753.333 1022.33 734.3 1032.7 731.5 1033.5C728 1034.5 724.5 1034 725 1028.5C725.4 1024.1 725.167 999.667 725 988C726 984.333 729.3 976.3 734.5 973.5C739.7 970.7 753 965.333 759 963L728 970.5L727 946.5L729.5 896.5L731.5 878C733.167 879.167 736.8 882.9 738 888.5C739.2 894.1 741.833 906.5 743 912C743.167 902.5 742.3 880.7 737.5 869.5C735.9 865.1 737.833 856.667 739 853L759 784.5L773.5 754C776.833 749.167 788.4 740 808 742C830 738.8 844.833 736 849.5 735L790 732C783.833 731.833 771.9 727.1 773.5 709.5C775.1 691.9 779.167 671.833 781 664C783 659.333 788.9 650.1 796.5 650.5C792.333 647.167 783.8 638.7 783 631.5C782.2 624.3 783.667 609.167 784.5 602.5C787.333 592.5 794.5 568.8 800.5 554C808 535.5 817.5 513.5 819.5 514C821.1 514.4 827.833 515.833 831 516.5V506L847.5 490L855 491.5L907.5 397C914.667 384 936.6 355.2 967 344C997.4 332.8 1021.33 325.667 1029.5 323.5L956.5 335L977 302.5L1020.5 281.5C1021.33 274 1028.2 249.7 1049 212.5C1069.8 175.3 1085.33 158.667 1090.5 155C1094 154.667 1103.2 154.9 1112 158.5C1120.8 162.1 1132.67 167 1137.5 169L1104 144.5L1127 103C1128.6 95.8 1140.33 83.3333 1146 78L1158.5 62C1160.5 59.6667 1166.7 53.7 1175.5 48.5C1184.3 43.3 1196.5 45.3333 1201.5 47L1218.5 51L1315 35.5L1262 34C1232.5 40.5 1202.5 13 1209 0.5ZM1199.5 38L1211.5 32C1209.5 30.1667 1204.7 26.8 1201.5 28C1198.3 29.2 1198.83 35.1667 1199.5 38ZM997.5 271L1000.5 273C1010.9 267.4 1025.17 239.667 1031 226.5L997.5 271Z" fill="white"/>
<path d="M640.5 1080H733L749.5 1074.5C754 1068.33 766.6 1054.8 781 1050C787 1047.6 789.5 1042 790 1039.5L888 980.001C925.974 956.517 941.179 969.383 961.957 986.964L962 987.001L1011.5 1017L983.5 993L985.5 984C981.833 984.501 972.9 984.401 966.5 980.001C960.1 975.6 947.833 964.167 942.5 959C940.5 956.5 938.1 950 944.5 944C952.5 936.5 1015 881 1051 867C1079.8 855.8 1130.33 824.667 1152 810.5L1155.5 803L1187.5 787C1190.5 787.833 1197 791.6 1199 800C1201 808.4 1201.83 809.833 1202 809.5V804.5L1201 780.5C1201 779 1202.4 775.2 1208 772C1213.6 768.8 1239.33 756.333 1251.5 750.5L1307.5 707L1242 738L1214.5 752.5L1189 767.5L1183 765.5L1175 773.5C1173.5 774.5 1169.4 774.7 1165 767.5C1160.6 760.3 1152.83 728.167 1149.5 713L1144.5 707L1152 748C1153.17 757.167 1154.1 777 1148.5 783C1142.9 789 1105.17 816.167 1087 829L1045 851.5C1038 855.833 1022.8 864.5 1018 864.5C1012 864.5 1005.5 863.5 1001 854C997.4 846.4 984.833 820.5 979 808.5L995 857C996.5 861.833 996.9 874.1 986.5 884.5C976.1 894.9 934.5 926.833 915 941.5L859 975L832 982.5L746.5 1027L684 1062L661.5 1075.5L658.5 1073.5L678.5 998L675 999.5L640.5 1080Z" fill="white"/>
<path d="M885 433.999L935.5 551C940.5 559.5 948.5 575 970.5 568L1069.5 542.5L995 572C990.667 574.666 981.7 580.4 980.5 582C964.9 586.8 961.333 594.666 961.5 598C960 605 965.7 618.5 970.5 626.5L979.5 640.5C977.5 642 973.9 646.3 975.5 651.5C977.1 656.7 982.5 659.333 985 660L1034 674L982.5 666C984.833 674.666 991 695.3 997 708.5C1003 721.7 1012.5 739 1016.5 746C1027.17 761 1050.3 793.1 1057.5 801.5C1066.5 812 1078.98 829 1084 829C1086.5 829 1093.55 825.361 1099 816.5C1103 810 1112.17 787.5 1116 777.5L1104 845L1126 872L1133.5 868C1132 870 1129.2 874.7 1130 877.5C1130.8 880.3 1137.67 896.333 1141 904L1150.5 921L1152.5 920.5L1161 864.5L1162.5 922L1165 941.5C1165.67 946.833 1170.7 956.2 1185.5 951C1200.3 945.8 1201.33 945.5 1200 946C1195.67 952.5 1188.2 968.2 1193 979C1197.8 989.8 1203.67 992.5 1206 992.5L1229 1023.5L1231.5 1030L1281.5 1080H1244.5C1229.5 1065.17 1197.8 1034.7 1191 1031.5L1177 1043.5C1179.17 1040.67 1183.4 1033.4 1183 1027C1182.6 1020.6 1176.17 1021 1173 1022L1134 967L1066 923.5L1136 949L1138 948L1112 908L1071 909.5L1106 901C1096.5 888 1076.6 861.6 1073 860C1069.4 858.4 1059.17 844.666 1054.5 838L1031 808L1000.5 768.5L984 752C982 750 975.8 746.6 967 749C958.2 751.4 921.333 762.666 904 768L958.5 737.5C961.167 736.5 966.9 732.6 968.5 725C970.5 715.5 971.5 715 966.5 700.5C962.5 688.9 959.5 680.333 958.5 677.5L943 638L875.5 481.499L837 467.499L862.5 469.499L852.5 437.499C843.5 432.833 823.2 422.999 814 420.999C804.8 418.999 788.167 415.499 781 413.999L849 416.999L848 406.499L814 311.999C813.167 307.499 808.7 299.999 797.5 305.999C786.3 311.999 741.833 328.5 721 336L781 302.5C789.667 294.833 806.8 277.4 806 269C805.2 260.6 802.667 231.5 801.5 218L726 242.5L799 208L788.5 90.5H785.5L758.5 148.5L772.5 86H766.5C769.667 84 776.3 78.8 777.5 74C778.7 69.2 774 64.6667 771.5 63L758.5 29.5L741.5 0.5C741.5 0.5 802.5 55.5 807.5 75.5C812.5 95.5 815.5 123.5 815.5 123.5L822 198L825.5 212.5C827.833 217 833.8 227.2 839 232C844.2 236.8 834.833 234.667 829.5 233C830 246.667 832.8 280 840 304C847.2 328 863 374.667 870 395L885 433.999Z" fill="white"/>
<path d="M573.5 3L557.5 26.5C548 39.5 545.223 42.8329 533.5 60C519.5 80.5 503.166 122.167 494.5 142L475 190C474.166 196.333 474.7 210.9 483.5 218.5C492.3 226.1 491.833 231.667 490.5 233.5C488.5 234 482.599 234.4 475 232C467.4 229.6 451.167 240.667 444 246.5L365.5 340L348 374C340 379.5 324.1 396.679 313 415.5C301.5 435 276 467.167 263 480.5C246 502.333 211.1 549.9 207.5 565.5C209.5 567.9 225.333 559.833 233 555.5L261.5 532L230 572.5L193.5 616L147 693.5L104 766.5L19.5 871L0 910V867.5C3 868.167 10.7 867.4 17.5 859C24.3 850.6 36 835.833 41 829.5L71.5 791.5L93.5 764L107 746.5C111 737 107.2 733.6 104 730L82.5 684L115 728L140.5 688C142.333 685.5 146 679.6 146 676C146 671.5 143.5 665 142 663.5C140.8 662.3 124.167 623 120.5 617L149.5 659.5L181.5 600C188.5 582.167 202.6 544.7 203 537.5C203.4 530.3 200.167 510.167 198.5 501C201.333 506.5 209.4 516.5 219 512.5C228.6 508.5 237 500.167 240 496.5L271.5 453C276.5 446.167 284 428.6 274 413C264 397.4 244.167 367.833 235.5 355L283 407C285.167 409.667 290.6 412.9 295 404.5L344 351C348.667 347.167 359.3 337.5 364.5 329.5C369.7 321.5 382.667 306.167 388.5 299.5L448 220.5L444 217.5L440.5 207C445.167 209.167 455.7 210.9 460.5 200.5C465.3 190.1 485.166 142.833 494.5 120.5C500.5 109.333 512.4 82.3 512 63.5C511.6 44.7 505.833 33.3333 503 30C509.833 34.6667 525.499 42.9 533.5 38.5C541.5 34.1 554.5 21 560 15L573.5 3Z" fill="white" stroke="white"/>
<path d="M1627 0.5C1621.83 5 1609.1 14.6 1599.5 17C1579.5 22.6 1559.5 8.33333 1552 0.5L1574 54.5C1587.83 76 1615.2 121.9 1614 133.5C1618.08 151.681 1594.78 162.247 1574.73 167.171L1616 159.5C1619.5 159.167 1628.3 160.6 1635.5 169C1642.7 177.4 1681.83 229.167 1700.5 254L1741.5 307L1743 315L1736.5 316.5L1681 309.5L1738 324.5C1745.17 325 1759.5 328.3 1759.5 337.5C1763.9 346.7 1806.5 401.667 1823 424.5L1801 453C1810 443.833 1829.4 426.6 1835 431C1840.6 435.4 1845.67 440.5 1847.5 442.5L1813 465C1823 462 1848 453.1 1856 457.5C1864 461.9 1865.67 468.667 1865.5 471.5L1895.5 499.5C1898.83 504.667 1904.5 515.8 1900.5 519C1896.5 522.2 1853.83 538.333 1833 546L1897.5 531.5C1902.17 531.667 1913.2 533.4 1920 539V484C1916.17 481.167 1907.4 472.2 1903 459C1898.6 445.8 1909.5 411.5 1915.5 396L1891 436.5L1833 379L1799.5 337.5L1801 321C1800 322.167 1796.99 324.265 1793 324.5C1784.5 325 1782 322.5 1777.5 315L1760 283.5C1759 281.5 1758.5 276.1 1764.5 270.5C1770.5 264.9 1796 238.833 1808 226.5L1761 264C1757.17 267 1747.2 270.5 1738 260.5C1728.8 250.5 1715.5 232.667 1710 225C1707.33 218.333 1703.71 209.5 1699 203.5C1693.5 196.5 1688.67 197 1685 194.5C1673.67 179.167 1646.4 139.7 1628 104.5C1609.6 69.3 1601 52.1667 1599 48C1596.17 44.3333 1593.3 34.8 1604.5 26C1615.7 17.2 1624.17 5.33333 1627 0.5Z" fill="white"/>
<path d="M1123 462.5L1099.5 495.5C1091.33 501.833 1074.1 517 1070.5 527C1066.9 537 1057.67 542.167 1053.5 543.5H1042.5L1019.5 529C1026.5 533.833 1040.4 544.2 1040 547C1039.6 549.8 1031.83 554.167 1028 556L1040 554.5L1042.5 557.5C1031.67 570.167 1007.8 596.6 999.001 601C990.201 605.4 985.334 602.833 984.001 601C982.001 599.667 978.301 595.3 979.501 588.5C980.701 581.7 983.001 565 984.001 557.5L975.501 598L970.501 628L945.501 660C943.334 663.333 936.001 669.3 924.001 666.5C912.001 663.7 919.001 673.667 924.001 679L874 731.5C863.5 744.333 839.2 772.8 826 784C811.6 800.8 801.667 802 798.5 800.5C792.5 801.333 778.3 800.1 769.5 788.5C760.7 776.9 754.5 770.333 752.5 768.5L781 811C781.833 817.667 779.9 835.4 765.5 853C751.1 870.6 743.833 878 742 879.5L736.5 893.5L727 899L701 934.5L654 987.5L599.5 1045.5L574 1080H612C610.5 1077.33 609.4 1068.9 619 1058.5C628.6 1048.1 664.333 1005.5 681 985.5C684.167 982.833 693.8 978.1 707 980.5C720.2 982.9 746.833 983.5 758.5 983.5L714.5 966.5L740.5 916.5C742.5 913.333 747.7 908.9 752.5 916.5C757.3 924.1 767.333 940.333 770 945L755.5 899L761 891L845 876L777 881C774.833 881 771.8 878.7 777 869.5C782.2 860.3 799.167 835.333 807 824C813.667 816.333 827.9 801.9 835.5 799.5C845 796.5 856.5 791.5 871.5 803.5C883.5 813.1 889.5 817.167 891 818C882.667 810.333 865.7 791.9 864.5 779.5C863.3 767.1 874 755.667 879.5 751.5L932.5 692.5C938.333 684.667 951.8 670.8 959 678C966.2 685.2 977.667 697.667 982.5 703L968 663L975.5 645.5L991.5 627C996.333 621.333 1008.7 609.9 1019.5 609.5C1023 602.5 1026 587 1042 578C1054.8 570.8 1058.67 567.667 1059 567L1060 562.5L1083.5 582.5L1069 554C1074.33 552.667 1084.1 547.3 1080.5 536.5C1079.7 532.5 1083.5 525.5 1085.5 522.5L1123 462.5Z" fill="white"/>
</svg>
