<svg width="120" height="50" viewBox="0 0 120 50" fill="none" xmlns="http://www.w3.org/2000/svg">
<path d="M11.5494 16.4779H9.67436V24.4728H6.92578V6.28125H9.67436V13.5707H11.5494V6.28125H14.2979V24.4942H11.5494V16.4779Z" fill="black"/>
<path d="M19.0281 24.6876H18.4954C16.3008 24.6876 15.1289 23.4905 15.1289 21.246V17.5906H17.8562V20.7757C17.8562 21.6094 18.1332 22.0583 18.7511 22.0583C19.4116 22.0583 19.646 21.6094 19.646 20.4978V20.0917C19.646 18.7877 19.5181 18.3388 18.5167 17.0348L16.7908 14.7475C15.619 13.2298 15.2781 12.054 15.2781 10.237V9.65985C15.2781 7.24429 16.4925 6.11133 18.6658 6.11133H19.1772C21.4357 6.11133 22.3306 7.11603 22.3306 9.27507V12.2678H19.6673V9.63848C19.6673 9.01855 19.5394 8.56964 18.8789 8.56964C18.2184 8.56964 18.0692 8.9758 18.0692 9.85224V10.1943C18.0692 11.2203 18.261 11.7761 19.1985 12.9946L20.9457 15.2605C22.1815 16.8852 22.5863 17.8044 22.5863 19.8565V20.4337C22.5863 23.1058 21.4357 24.6876 19.0281 24.6876Z" fill="black"/>
<path d="M29.6392 6.28125V8.93196H26.1236V13.6989H28.8722V16.4565H26.1236V21.7152H29.7884V24.4728H23.375V6.28125H29.6392Z" fill="black"/>
<path d="M37.2234 21.0544H35.2205L34.8583 24.4746H32.3867L34.6026 6.26172H37.8626L40.2276 24.4746H37.5643L37.2234 21.0544ZM36.9251 18.3395L36.2006 11.6059L35.4975 18.3395H36.9251Z" fill="black"/>
<path d="M43.4439 24.4942H40.6953V6.28125H45.1697C47.0021 6.28125 47.9183 7.07219 47.9183 9.10297V12.3308C47.9183 13.8486 47.2152 14.4258 46.7251 14.6609C47.343 14.9388 47.9183 15.4305 47.9183 16.6489V23.0406C47.9183 23.7674 48.0675 24.1094 48.1953 24.3873V24.5155H45.468C45.3402 24.3231 45.1911 24.0025 45.1911 23.0192V17.504C45.1911 16.6917 45.0419 16.3497 44.1683 16.3497H43.4652V24.4942H43.4439ZM43.4439 13.7631H44.1683C44.9354 13.7631 45.1697 13.2714 45.1697 12.4591V9.91528C45.1697 9.12435 44.9993 8.73957 44.1683 8.73957H43.4439V13.7631Z" fill="black"/>
<path d="M53.4794 8.91058V24.4728H50.7521V8.91058H48.4297V6.28125H55.8018V8.93196H53.4794V8.91058Z" fill="black"/>
<path d="M63.1765 21.0544H61.1737L60.8114 24.4746H58.3398L60.5558 6.26172H63.8157L66.1808 24.4746H63.5174L63.1765 21.0544ZM62.8782 18.3395L62.1538 11.6059L61.4506 18.3395H62.8782Z" fill="black"/>
<path d="M69.1218 6.28125L71.4869 16.0504V6.28125H74.0011V24.4942H71.7638L69.1218 14.0196V24.4942H66.6289V6.28125H69.1218Z" fill="black"/>
<path d="M75.0234 6.28125H79.2635C81.6285 6.28125 82.353 7.62798 82.353 9.78702V20.8815C82.353 23.1047 81.522 24.4942 79.2635 24.4942H75.0447V6.28125H75.0234ZM77.7933 21.8435H78.4538C79.2848 21.8435 79.5192 21.3945 79.5192 20.4326V10.1718C79.5192 9.12434 79.2422 8.76094 78.5604 8.76094H77.772V21.8435H77.7933Z" fill="black"/>
<path d="M6.92578 25.4355H11.1445C13.5096 25.4355 14.234 26.7823 14.234 28.9413V40.0358C14.234 42.259 13.4031 43.6485 11.1445 43.6485H6.92578V25.4355ZM9.67436 41.0191H10.3349C11.1658 41.0191 11.4002 40.5702 11.4002 39.6083V29.3475C11.4002 28.3 11.1232 27.9366 10.4414 27.9366H9.65305V41.0191H9.67436Z" fill="black"/>
<path d="M21.5004 25.4355V28.0863H17.9847V32.8532H20.7333V35.6108H17.9847V40.8695H21.6495V43.6271H15.2148V25.4355H21.5004Z" fill="black"/>
<path d="M26.0398 43.8422H25.5071C23.3125 43.8422 22.1406 42.6451 22.1406 40.4005V36.7451H24.8679V39.9302C24.8679 40.7639 25.1449 41.2128 25.7628 41.2128C26.4233 41.2128 26.6577 40.7639 26.6577 39.6523V39.2462C26.6577 37.9422 26.5298 37.4933 25.5284 36.1893L23.7812 33.9448C22.6094 32.427 22.2685 31.2513 22.2685 29.4343V28.8571C22.2685 26.4416 23.483 25.3086 25.6562 25.3086H26.1676C28.4474 25.3086 29.321 26.3133 29.321 28.4723V31.4651H26.6577V28.8357C26.6577 28.2158 26.5298 27.7669 25.8693 27.7669C25.2088 27.7669 25.0597 28.1731 25.0597 29.0495V29.3915C25.0597 30.4176 25.2514 30.9734 26.1889 32.1919L27.9361 34.4578C29.1719 36.0824 29.5767 37.0016 29.5767 39.0538V39.631C29.598 42.2603 28.4474 43.8422 26.0398 43.8422Z" fill="black"/>
<path d="M33.1314 43.6485H30.3828V25.4355H33.1314V43.6485Z" fill="black"/>
<path d="M36.7124 43.9061C35.093 43.9061 34.0703 42.4525 34.0703 40.5713V29.1776C34.0703 27.1468 34.8587 25.2656 37.4581 25.2656H37.9908C40.9524 25.2656 41.2933 27.1895 41.2933 29.3486V31.2083H38.6087V29.1562C38.6087 28.3439 38.4169 27.9163 37.7351 27.9163C37.1598 27.9163 36.8828 28.3652 36.8828 29.1562V39.8018C36.8828 40.6568 37.2237 41.1057 37.7777 41.1057C38.4808 41.1057 38.8004 40.6141 38.8004 39.93V35.3768H37.5646V32.5764H41.4212V43.6495H39.8658C39.8445 43.5427 39.6314 42.6448 39.397 41.8539C39.2053 42.4738 38.2678 43.8847 36.8828 43.8847H36.7124V43.9061Z" fill="black"/>
<path d="M44.8718 25.4355L47.2369 35.2047V25.4355H49.7511V43.6485H47.5139L44.8718 33.1739V43.6485H42.3789V25.4355H44.8718Z" fill="black"/>
<path d="M56.9538 43.8422H56.4212C54.2266 43.8422 53.0547 42.6451 53.0547 40.4005V36.7451H55.782V39.9302C55.782 40.7639 56.0589 41.2128 56.6768 41.2128C57.3374 41.2128 57.5717 40.7639 57.5717 39.6523V39.2462C57.5717 37.9422 57.4439 37.4933 56.4425 36.1893L54.6953 33.9448C53.5234 32.427 53.1825 31.2513 53.1825 29.4343V28.8571C53.1825 26.4416 54.397 25.3086 56.5703 25.3086H57.0817C59.3402 25.3086 60.2351 26.3133 60.2351 28.4723V31.4651H57.5717V28.8357C57.5717 28.2158 57.4439 27.7669 56.7834 27.7669C56.1229 27.7669 55.9737 28.1731 55.9737 29.0495V29.3915C55.9737 30.4176 56.1655 30.9734 57.103 32.1919L58.8501 34.4578C60.0859 36.0824 60.4908 37.0016 60.4908 39.0538V39.631C60.5121 42.2603 59.3615 43.8422 56.9538 43.8422Z" fill="black"/>
<path d="M65.7976 39.9513V35.7187H68.5035V39.9299C68.5035 41.8966 67.8643 43.8632 65.201 43.8632H64.5831C61.7919 43.8632 61.1953 41.8538 61.1953 40.0154V28.8995C61.1953 27.0398 62.005 25.2441 64.4979 25.2441H65.1371C68.1626 25.2441 68.5035 27.2535 68.5035 29.0278V32.2771H65.7976V29.0706C65.7976 28.2796 65.5632 27.8735 64.8601 27.8735C64.1783 27.8735 64.0078 28.2582 64.0078 29.0706V39.8872C64.0078 40.6995 64.2848 41.127 64.8814 41.127C65.5632 41.1911 65.7976 40.6995 65.7976 39.9513Z" fill="black"/>
<path d="M74.022 35.6536H72.147V43.6485H69.3984V25.4355H72.147V32.725H74.022V25.4355H76.7706V43.6485H74.022V35.6536Z" fill="black"/>
<path d="M85.2692 39.588C85.2692 42.1318 84.4169 43.8633 81.7536 43.8633H81.2848C78.6428 43.8633 77.7266 42.1318 77.7266 39.588V29.4555C77.7266 26.933 78.6854 25.2656 81.2635 25.2656H81.7322C84.4169 25.2656 85.2692 26.933 85.2692 29.4341V39.588ZM82.4567 29.3058C82.4567 28.3439 82.1371 27.9163 81.4979 27.9163C80.7947 27.9163 80.5178 28.3866 80.5178 29.3058V39.7804C80.5178 40.5713 80.7308 41.1699 81.5192 41.1699C82.2436 41.1699 82.4567 40.5499 82.4567 39.7804V29.3058Z" fill="black"/>
<path d="M93.6871 39.588C93.6871 42.1318 92.8349 43.8633 90.1715 43.8633H89.7028C87.0607 43.8633 86.1445 42.1318 86.1445 39.588V29.4555C86.1445 26.933 87.1033 25.2656 89.6815 25.2656H90.1502C92.8349 25.2656 93.6871 26.933 93.6871 29.4341V39.588ZM90.8746 29.3058C90.8746 28.3439 90.555 27.9163 89.9158 27.9163C89.2127 27.9163 88.9357 28.3866 88.9357 29.3058V39.7804C88.9357 40.5713 89.1488 41.1699 89.9371 41.1699C90.6616 41.1699 90.8746 40.5499 90.8746 39.7804V29.3058Z" fill="black"/>
<path d="M97.3931 25.4355V40.8267H100.76V43.6485H94.6445V25.4355H97.3931Z" fill="black"/>
<path fill-rule="evenodd" clip-rule="evenodd" d="M104.615 25.2441C102.57 25.2441 100.887 26.9115 100.887 28.9851C100.887 31.0372 102.549 32.726 104.615 32.726C106.682 32.726 108.344 31.0586 108.344 28.9851C108.323 26.9115 106.661 25.2441 104.615 25.2441Z" fill="black"/>
<path fill-rule="evenodd" clip-rule="evenodd" d="M105.234 28.643C105.468 28.5361 105.617 28.3865 105.724 28.2796C105.915 28.0658 105.979 27.8093 105.979 27.5528C105.979 27.3604 105.915 26.9542 105.575 26.6763C105.34 26.4839 105.127 26.3984 104.616 26.3984H104.36H104.339H103.273V31.4006H106.278V30.4386C106.299 29.5194 106.001 28.8995 105.234 28.643ZM105.617 31.1227H105.063V29.4553H104.445V31.1227H103.977V26.6336H104.467C104.658 26.6336 104.935 26.6763 105.127 26.9115C105.234 27.0397 105.298 27.2108 105.319 27.3604H104.445V27.6169H105.319C105.319 27.7665 105.276 27.9589 105.127 28.1513C104.999 28.3223 104.765 28.472 104.445 28.472V28.7285C105.298 28.7285 105.617 29.2843 105.617 30.3317V31.1227Z" fill="white"/>
</svg>
