<svg width="148" height="218" viewBox="0 0 148 218" fill="none" xmlns="http://www.w3.org/2000/svg">
<path d="M27.621 138.344C21.5182 162.142 15.7681 186.03 9.12366 209.676C8.30659 212.582 7.48305 215.486 6.65419 218.388L-2.49544e-05 218.388C3.06076 207.281 6.11194 196.171 9.08532 185.04C13.9742 166.761 18.4713 148.382 23.1251 130.043C23.2619 129.476 23.2027 128.86 23.2303 128.345C21.6203 127.49 20.1962 126.724 18.7545 125.962C23.4377 126.606 24.9992 124.539 26.1853 120.22C28.6657 111.225 32.3767 102.872 40.3213 96.8519C43.345 94.5699 45.1312 90.5007 47.0895 87.0144C49.0409 83.5388 50.4662 79.7697 52.2064 76.1732C57.4 65.4728 64.5886 56.2107 71.6769 46.6557C80.5277 34.7209 85.9797 20.2906 93.2326 7.12776C94.7688 4.34343 97.4085 1.78342 100.184 0.239714C101.662 -0.588516 104.486 0.957759 106.696 1.42408C91.9776 15.9685 82.4079 29.8447 77.7828 46.8172C77.2252 48.8626 77.6404 51.1698 77.5893 53.8461C85.1951 45.5823 91.9733 38.223 98.722 30.8989C97.2524 33.8844 95.9464 36.9871 94.1499 39.7737C90.1304 46.056 85.8059 52.1265 81.2393 58.8324C83.1177 58.917 83.8491 59.1754 84.3529 58.937C85.2866 58.504 86.189 57.8833 86.9301 57.1587C95.4295 48.909 103.853 40.5648 112.425 32.3921C114.012 30.8738 116.309 28.869 118.097 29.0474C123.271 29.5674 125.072 26.4668 127.288 22.8417C130.721 17.2319 138.653 15.2221 139.976 7.55131C140.045 7.18476 145.084 7.67855 147.807 7.77505C146.882 9.91835 146.018 12.0856 145.021 14.198C142.571 19.3916 138.201 20.8818 132.767 21.047C131.352 21.0936 130 23.4032 128.618 24.6735C118.649 33.7867 108.643 42.8614 98.7137 52.0308C95.2115 55.2677 91.872 58.7007 88.4496 62.0499C89.0643 62.7963 89.6967 63.5388 90.3222 64.2921C94.0047 61.9325 97.7708 59.7029 101.312 57.161C103.962 55.2466 106.099 52.5453 108.858 50.8386C116.218 46.2685 123.584 41.5955 131.376 37.8668C136.357 35.4766 141.5 31.4409 147.221 33.5459C140.568 37.5373 133.791 41.2504 127.395 45.5289C119.552 50.777 112.138 56.6822 104.31 61.955C95.5997 67.8162 86.4002 72.9965 77.8751 79.1139C74.4846 81.54 71.2499 85.3298 74.2298 90.8125C88.7068 90.9978 102.506 85.6474 116.856 84.0463C117.253 83.9976 117.65 83.736 117.972 83.472C118.649 82.9187 119.264 82.2954 119.893 81.6966C119.851 82.6589 120.206 84.0444 119.713 84.5027C118.548 85.5781 117.054 86.5023 115.535 86.9693C104.455 90.344 93.3238 93.5633 82.222 96.878C78.6226 97.9518 74.7329 100.68 71.5501 99.9981C65.2071 98.6448 60.4575 101.199 55.5165 103.856L55.3306 103.956C51.9801 105.753 48.4084 107.469 45.6511 109.999C40.0489 115.124 31.629 117.702 30.1639 126.727C29.5286 130.64 28.6051 134.504 27.621 138.344Z" fill="black"/>
</svg>
