<svg width="91" height="144" viewBox="0 0 91 144" fill="none" xmlns="http://www.w3.org/2000/svg">
<path d="M64.4075 77.5974C67.7848 66.4592 71.5902 55.4533 75.5997 43.176C73.4493 45.414 70.6835 47.1024 69.7485 49.5081C66.3274 58.2796 63.8255 67.4082 60.3635 76.1593C59.0768 79.4231 56.105 82.0342 52.4899 86.8075C45.4027 69.1013 49.6408 55.5462 56.391 43.0621C63.5497 29.8232 76.9583 24.3359 91 20.0725C80.4304 21.1027 68.7886 18.9914 61.6094 28.8644C55.2983 37.534 50.3556 47.1929 45.4231 55.383C44.1466 44.184 51.7138 35.1269 59.1891 26.5798C66.6848 18.002 75.4775 10.5564 83.7085 2.61106C83.0549 1.73391 82.3911 0.866953 81.7376 -4.06645e-07C67.7776 10.0669 52.735 18.971 40.2966 30.6493C33.5158 37.024 29.3798 47.6722 27.1638 57.1271C21.8739 79.7087 18.0444 102.668 14.6437 125.627C14.1867 128.719 1.78575 139.223 1.36237e-06 144L26.1162 144C29.1052 139.707 34.3042 129.95 34.9863 127.677C36.2424 123.485 36.7836 118.936 38.8057 115.172C42.1348 108.961 46.4137 103.259 51.8364 94.9875C56.7076 93.5799 61.2213 88.113 64.4075 77.5974Z" fill="black"/>
</svg>
