<svg width="91" height="144" viewBox="0 0 91 144" fill="none" xmlns="http://www.w3.org/2000/svg">
<path d="M26.5925 77.5974C23.2152 66.4592 19.4098 55.4533 15.4003 43.176C17.5507 45.414 20.3165 47.1024 21.2515 49.5081C24.6726 58.2796 27.1745 67.4082 30.6365 76.1593C31.9232 79.4231 34.895 82.0342 38.5101 86.8075C45.5973 69.1013 41.3592 55.5462 34.609 43.0621C27.4503 29.8232 14.0417 24.3359 8.73576e-07 20.0725C10.5696 21.1027 22.2114 18.9914 29.3906 28.8644C35.7017 37.534 40.6444 47.1929 45.5769 55.383C46.8534 44.184 39.2862 35.1269 31.8109 26.5798C24.3152 18.002 15.5225 10.5564 7.29149 2.61106C7.94507 1.73391 8.60885 0.866953 9.26243 -4.06645e-07C23.2224 10.0669 38.265 18.971 50.7034 30.6493C57.4842 37.024 61.6202 47.6722 63.8362 57.1271C69.1261 79.7087 72.9556 102.668 76.3563 125.627C76.8133 128.719 89.2142 139.223 91 144L64.8838 144C61.8948 139.707 56.6958 129.95 56.0137 127.677C54.7576 123.485 54.2164 118.936 52.1943 115.172C48.8652 108.961 44.5863 103.259 39.1636 94.9875C34.2924 93.5799 29.7787 88.113 26.5925 77.5974Z" fill="black"/>
</svg>
