<svg width="239" height="113" viewBox="0 0 239 113" fill="none" xmlns="http://www.w3.org/2000/svg">
<path d="M238.78 87.6402C236.1 87.6802 233.42 87.7802 230.74 87.7402C222.19 87.6102 213.63 87.3602 205.08 87.2902C197.4 87.2202 189.71 87.5402 182.03 87.3002C175.1 87.0902 168.75 84.7302 163 80.8202C160.12 78.8702 156.92 77.6702 153.48 78.1402C149.31 78.7102 145.43 77.9502 141.55 76.6602C139.27 75.9002 136.72 75.7902 135.02 73.7302C134.89 73.5702 134.6 73.5402 134.39 73.4602C132.36 72.6402 130.19 72.0402 128.33 70.9402C125.14 69.0502 121.34 68.0902 119.05 64.7002C118.28 63.5602 116.53 63.1102 115.33 62.2102C113.82 61.0902 112.44 59.8002 110.95 58.6402C109.73 57.6902 108.4 56.8702 107.18 55.9202C105.65 54.7202 103.97 53.6202 102.72 52.1602C99.52 48.4002 96.17 44.6902 93.52 40.5602C89.64 34.5002 86.27 28.1002 84.93 20.8702C84.25 17.1902 81.41 15.9702 78.29 15.0302C69.95 12.5302 61.6 10.0102 54.14 5.33023C51.68 3.78023 49.09 3.46023 46.29 4.10023C45.52 4.27023 44.66 4.29024 43.89 4.13024C38.85 3.07024 33.83 1.86023 28.78 0.870237C22.66 -0.32976 16.56 -0.629762 10.72 2.22024C10.29 2.43024 9.90999 2.74024 9.57999 3.45024C10.15 3.53024 10.74 3.74024 11.29 3.66024C16.84 2.85024 22.15 4.37024 27.54 5.22024C27.98 5.29023 28.58 5.46023 28.77 5.78023C30.76 9.18023 34.19 8.97023 37.38 9.18023C40.44 9.38023 43.54 9.08023 46.57 9.43023C50.47 9.87023 54.03 11.4902 57.49 13.3402C61.84 15.6602 66.18 18.0302 70.71 19.9402C76.66 22.4502 80.28 26.9902 82.82 32.6102C85.02 37.4702 87.08 42.4102 89.15 47.3302C89.92 49.1702 90.33 51.0702 89.41 53.2602C84.84 50.5102 80.52 47.7202 76.91 43.9602C73.71 40.6202 71.02 36.9302 69.41 32.5202C68.39 29.7402 65.95 29.0302 63.35 28.9602C60.97 28.8902 58.58 29.3002 56.2 29.2502C50.32 29.1102 44.47 28.7702 39.09 25.9802C36.88 24.8302 34.61 24.9402 32.29 25.5802C30.22 26.1502 28.15 26.7502 26.05 27.2302C22.73 27.9902 19.4 28.7802 16.05 29.3402C10.82 30.2202 6.09999 32.0602 2.28999 35.9002C1.53999 36.6502 0.669993 37.2802 -6.49464e-06 38.2002C4.70999 36.6502 9.42999 35.0902 14.13 33.5402C15.58 36.2802 18.63 37.1702 21.83 35.6502C23.39 34.9102 24.8 33.8402 26.26 32.9002C30.95 29.8702 35.98 30.1702 41.05 31.4702C48.02 33.2602 55.02 35.0002 61.87 37.1802C64.14 37.9002 66.01 39.9202 68.04 41.3602C73.4 45.1702 77.08 50.5802 81.55 55.2302C81.39 55.4002 81.23 55.5702 81.07 55.7302C79.45 54.1402 77.7 52.6702 76.26 50.9402C74.08 48.3102 72.56 47.7202 69.71 49.5002C66.4 51.5702 62.83 52.8302 59.08 53.7202C56.33 54.3702 54.45 55.9102 52.98 58.4402C51.73 60.5902 49.88 62.5302 47.92 64.0902C43.51 67.5802 40.85 72.1602 39.18 77.4402C39.86 76.1902 40.48 74.9002 41.24 73.7102C42.05 72.4402 42.92 71.1902 43.9 70.0502C44.88 68.9202 46.03 67.9402 47.11 66.8902C48.8 68.7802 50.31 68.8702 52.32 67.0102C53.4 66.0102 54.26 64.7002 54.96 63.3902C56.18 61.1102 57.61 59.2702 60.25 58.4302C63.23 57.4902 66.1 56.2102 69.02 55.0802C71.53 54.1102 73.94 54.8002 75.83 57.0202C74.47 59.1402 72.66 60.7502 70.2 61.3902C66 62.4902 63.03 65.3602 60.05 68.2202C59.02 69.2102 58.01 70.2202 56.98 71.2302L57.25 71.6802C57.77 71.4002 58.31 71.1602 58.8 70.8502C61.2 69.3402 63.54 67.7102 66.02 66.3402C67.32 65.6202 68.7 65.1302 70.45 65.5202C72.59 65.9902 74.09 64.4102 75.23 62.6602C76.05 61.4002 76.81 60.0102 78.55 59.8602C78.98 59.8202 79.56 59.8202 79.85 60.0602C81.53 61.4602 83.22 62.6302 84.38 64.8102C85.81 67.5002 87 70.6502 89.85 72.4402C90.13 72.6202 90.41 72.9002 90.53 73.2002C91.34 75.1202 93.01 75.8802 94.82 76.4802C96.86 77.1502 98.94 77.7202 100.52 79.9002C99.2 80.0702 98.07 80.3602 96.93 80.3502C93.56 80.3402 90.2 80.1402 86.83 80.1802C85.84 80.1902 84.85 80.7402 83.86 81.0502C80.61 82.0802 77.57 83.4302 75.15 85.9702C74.63 86.5202 73.77 86.8502 73 87.0402C69.73 87.8502 66.42 88.4302 63.04 88.6602C61.18 88.7902 59.34 89.5402 57.54 90.1502C56.91 90.3602 56.42 91.0002 55.71 91.5602C58.56 91.5602 61.06 91.5402 63.57 91.5602C64.76 91.5802 65.88 91.4802 66.36 93.1802C66.75 94.5402 70.24 95.4602 72.22 94.8502C74.52 94.1402 76.68 93.3302 78.41 91.2502C79.48 89.9702 81.75 89.5702 83.56 89.0302C88.02 87.7002 92.56 87.9102 97.03 88.9602C100.16 89.7002 103.22 89.7602 106.33 89.0802C106.9 88.9602 107.47 88.8502 108.04 88.7502C110.22 88.3802 112.15 88.6302 114.17 89.8602C117.89 92.1102 121.72 94.2702 125.72 95.9302C128.12 96.9202 130.94 96.8802 133.58 97.3002C134.27 97.4102 135.03 97.3502 135.64 97.6202C138.61 98.9102 141.46 98.3002 144.45 97.5502C151.8 95.6902 159.2 95.2602 166.66 97.1802C171.44 98.4102 176.27 99.4402 181.11 100.41C185.82 101.36 190.61 101.94 195.28 103.04C197.85 103.64 200.25 104.95 202.73 105.95C210.43 109.04 218.5 110.36 226.72 111.03C230.76 111.36 234.78 112 238.8 112.49C238.8 104.21 238.8 95.9402 238.8 87.6602L238.78 87.6402Z" fill="black"/>
</svg>
