<svg width="960" height="827" viewBox="0 0 960 827" fill="none" xmlns="http://www.w3.org/2000/svg">
<path d="M502.914 961.073C212.809 961.215 1.39456 745.032 0.00792417 484.195C-0.622363 366.628 36.3439 262.016 112.01 172.125C206.71 59.6234 329.128 2.04713 475.355 -0.0198674C608.361 -1.89753 723.94 45.7855 818.357 139.795C912.474 233.504 960.36 348.641 959.998 481.323C959.635 612.428 912.38 726.35 819.775 819.633C726.807 913.279 612.694 958.264 502.93 961.057L502.914 961.073ZM465.774 951.432C558.868 952.095 637.874 931.945 711.57 890.353C783.108 849.975 839.865 794.466 882.473 724.488C926.151 652.758 949.961 574.338 950.654 490.648C951.867 346.337 899.333 223.832 791.333 127.361C706.024 51.166 604.753 11.4828 490.576 9.47888C346.981 6.97008 225.257 59.8285 129.217 166.539C44.585 260.564 4.49872 372.766 9.85616 499.469C15.5603 634.329 70.3952 747.036 171.509 835.964C257.764 911.828 359.681 949.097 465.79 951.416L465.774 951.432Z" fill="white"/>
<path d="M480.022 904.929C369.649 902.231 275.709 866.618 196.612 795.109C112.951 719.451 66.4848 623.801 58.2053 511.599C49.7053 396.367 83.4846 292.56 158.851 205.035C241.567 108.975 348.367 58.6886 475.032 56.874C584.555 55.2962 681.848 91.9657 763.321 166.141C853.263 248.017 899.666 350.799 902.405 472.515C905.049 589.766 864.533 691.491 783.878 775.449C700.469 862.279 596.282 903.556 480.006 904.945L480.022 904.929ZM482.981 895.635C704.404 895.083 896.376 714.985 894.267 476.176C893.134 348.495 841.363 242.147 743.362 160.256C665.855 95.5001 575.221 64.0218 474.292 65.5681C356.505 67.3668 256.631 112.73 176.37 198.408C102.578 277.175 64.895 372.62 65.6978 480.357C66.7052 613.813 120.239 724.121 225.103 807.511C300.343 867.344 386.916 895.982 482.981 895.651V895.635Z" fill="white"/>
<path d="M480.92 107.888C580.023 110.681 662.708 142.711 731.668 206.646C814.369 283.315 853.972 379.612 851.391 492.208C849.392 579.29 819.17 656.685 762.22 722.608C686.618 810.132 590.333 853.223 474.829 852.466C384.619 851.882 304.846 821.524 237.209 762.386C149.628 685.812 106.766 587.606 108.545 471.428C109.851 386.396 138.436 309.791 192.914 244.373C268.942 153.062 367.651 109.071 480.904 107.888H480.92ZM116.431 475.909C116.132 579.148 152.115 667.856 225.12 740.154C298.298 812.625 387.877 847.78 490.695 844.703C602.516 841.358 694.772 794.464 764.566 707.618C819.312 639.502 845.126 560.151 843.363 471.696C839.491 278.218 680.936 115.067 477.504 116.219C375.033 116.803 287.122 155.65 216.525 229.604C151.296 297.941 118.351 380.905 116.431 475.909Z" fill="white"/>
<path d="M488.915 805.431C397.589 804.895 322.852 777.109 260.582 719.327C195.117 658.58 160 582.495 156.569 493.046C153.247 406.437 180.809 329.942 238.215 264.966C298.99 196.202 376.575 160.148 467.241 156.125C551.5 152.385 627.622 178.783 691.45 234.702C766.942 300.815 805.286 385.656 803.964 485.882C802.814 573.312 770.294 649.46 707.663 711.312C645.33 772.88 569.649 803.191 488.9 805.4L488.915 805.431ZM795.857 453.142C793.858 388.26 762.251 311.718 697.636 250.654C632.517 189.102 554.05 160.527 464.486 164.172C308.339 170.546 155.357 302.124 164.344 498.3C168.657 592.499 210.464 670.303 284.052 729.315C342.134 775.894 409.551 798.726 483.989 797.716C654.853 795.38 797.856 656.592 795.857 453.142Z" fill="white"/>
<path d="M482.65 792.035C473.237 791.482 462.549 791.293 451.988 790.11C443.346 789.147 434.846 786.859 426.252 785.408C422.033 784.698 417.642 784.95 413.486 784.051C401.004 781.384 388.317 779.238 376.26 775.23C363.384 770.954 351.279 764.438 338.577 759.578C327.007 755.144 318.46 746.718 309.031 739.318C301.067 733.07 292.409 727.737 284.224 721.757C272.686 713.347 262.392 703.627 253.42 692.44C244.7 681.553 235.365 671.155 226.551 660.346C217.075 648.733 208.307 636.631 202.106 622.825C196.88 611.18 191.056 599.788 185.751 588.175C184.161 584.703 183.296 580.901 182.272 577.193C180.651 571.292 179.014 565.375 177.676 559.41C175.095 547.923 172.671 536.405 170.262 524.871C169.869 522.977 169.885 521.005 169.664 519.08C167.051 497.195 166.296 475.247 168.137 453.283C169.003 442.948 170.436 432.629 172.372 422.436C174.292 412.306 176.653 402.208 179.785 392.393C183.453 380.891 188.506 369.814 192.331 358.359C198.344 340.371 208.481 324.482 218.413 308.751C231.714 287.671 248.226 268.973 266.611 251.853C281.312 238.157 297.006 225.866 313.738 215.041C325.166 207.641 337.459 201.566 350.571 197.133C360.188 193.882 369.113 188.628 378.432 184.415C382.209 182.711 386.082 180.991 390.08 180.06C401.995 177.299 414.053 175.169 425.953 172.344C440.985 168.778 456.175 167.043 471.585 167.611C481.863 167.99 492.205 168.526 502.373 169.93C516.807 171.918 531.1 174.79 545.471 177.252C552.759 178.498 560.141 179.24 567.319 180.928C575.96 182.963 584.649 185.204 592.929 188.376C602.436 192.02 611.613 196.549 620.711 201.14C626.551 204.075 631.965 207.846 637.616 211.176C644.007 214.931 650.917 217.96 656.773 222.41C668.673 231.435 680.242 240.918 691.481 250.764C699.933 258.18 708.15 265.991 715.579 274.416C726.11 286.377 736.152 298.747 743.377 313.216C747.738 321.973 753.924 329.847 758.095 338.667C763.447 349.996 767.885 361.799 772.167 373.585C776.134 384.536 779.423 395.723 782.855 406.862C784.303 411.549 785.72 416.282 786.491 421.11C788.191 431.935 789.135 442.885 791.008 453.678C794.786 475.468 792.787 497.242 790.426 518.859C789.324 528.973 784.948 538.756 781.879 548.618C779.502 556.255 776.716 563.765 774.371 571.402C770.986 582.352 767.523 593.303 764.659 604.395C760.661 619.874 753.137 633.759 744.967 647.155C738.671 657.49 730.753 666.879 723.214 676.425C716.792 684.551 710.369 692.771 703.066 700.061C693.511 709.607 683.595 718.932 672.922 727.153C660.047 737.046 646.699 746.561 632.627 754.592C620.254 761.645 606.796 766.978 593.432 772.059C583.846 775.704 573.568 777.471 563.698 780.437C555.246 782.978 547.029 786.386 538.514 788.658C533.791 789.92 528.676 789.731 523.733 789.999C510.48 790.709 497.21 791.309 482.697 792.019L482.65 792.035ZM170.561 487.602C170.231 487.602 169.9 487.602 169.57 487.602C169.932 495.412 169.507 503.364 170.829 511.017C172.718 521.857 175.772 532.508 178.542 543.174C180.698 551.442 182.572 559.868 185.657 567.789C191.04 581.611 196.958 595.243 203.207 608.718C207.678 618.359 212.904 627.653 218.004 636.978C226.299 652.141 240.04 662.823 250.445 676.283C257.025 684.787 264.171 692.929 271.711 700.613C277.912 706.94 284.854 712.605 291.843 718.08C298.312 723.145 305.521 727.248 311.975 732.312C321.293 739.618 330.344 747.113 341.268 752.146C352.9 757.511 364.076 763.87 376.653 766.994C390.048 770.308 403.381 773.921 416.823 776.998C422.128 778.213 427.7 778.134 433.115 778.954C443.661 780.532 454.144 783.577 464.69 783.782C486.097 784.177 507.536 783.278 528.959 782.457C533.76 782.268 538.545 780.422 543.22 778.954C551.169 776.461 558.945 773.353 566.957 771.081C578.4 767.846 590.284 765.968 601.429 761.976C611.818 758.253 621.687 752.919 631.399 747.571C640.89 742.348 649.689 735.879 659.134 730.577C672.702 722.94 684.649 713.489 694.44 701.339C702.751 691.02 710.291 679.912 719.593 670.571C733.02 657.096 741.473 640.812 749.154 623.961C754.112 613.089 758.913 602.297 761.652 590.336C765.572 573.264 772.545 556.933 777.44 540.05C780.651 528.957 783.17 517.55 784.807 506.126C788.805 478.276 786.585 450.806 778.306 423.824C773.033 406.657 768.893 389.127 763.053 372.165C758.756 359.684 753.184 347.535 747.013 335.858C738.876 320.49 729.888 305.548 720.632 290.81C716.729 284.594 711.629 278.976 706.371 273.817C698.894 266.48 690.883 259.663 682.902 252.863C674.213 245.463 665.572 237.92 656.348 231.215C650.398 226.875 643.362 224.067 636.94 220.327C625.496 213.669 614.714 205.558 602.641 200.43C589.277 194.75 574.953 191.074 560.739 187.792C548.603 184.983 536.058 183.989 523.686 182.19C520.821 181.78 517.909 181.543 515.092 180.928C507.772 179.334 500.563 176.983 493.165 176.021C483.154 174.727 473.001 174.348 462.912 173.733C442.15 172.471 422.773 179.713 402.893 183.784C398.485 184.683 394.157 186.198 389.97 187.855C380.793 191.5 371.758 195.492 362.612 199.2C356.379 201.724 349.878 203.665 343.802 206.521C334.594 210.844 325.433 215.325 316.666 220.454C306.985 226.134 297.541 232.303 288.427 238.867C281.753 243.68 276.086 249.881 269.46 254.772C252.932 266.969 240.56 282.684 230.045 300.088C225.433 307.709 220.742 315.283 216.162 322.92C212.4 329.2 208.37 335.369 205.128 341.917C202.373 347.472 200.705 353.562 198.328 359.306C193.322 371.439 187.136 383.21 183.359 395.707C180.132 406.405 179.644 417.923 177.818 429.063C177.015 433.907 175.897 438.688 174.874 443.485C173.458 450.19 171.333 456.818 170.719 463.602C169.995 471.523 170.546 479.57 170.546 487.57L170.561 487.602Z" fill="white"/>
<path d="M471.286 210.449C485.547 212.516 500.028 213.668 514.022 216.918C526.52 219.822 538.971 222.425 551.673 224.271C558.772 225.297 565.761 228.311 572.325 231.419C585.752 237.778 598.879 244.768 612.086 251.568C625.701 258.574 638.719 266.59 650.493 276.42C660.787 285.003 671.711 293.145 680.589 303.07C690.899 314.588 700.013 327.385 708.213 340.513C714.1 349.932 718.004 360.678 722.191 371.076C726.535 381.868 730.313 392.898 734.012 403.927C735.618 408.724 736.232 413.836 737.648 418.696C739.789 426.049 742.182 433.323 744.558 440.612C748.446 452.509 749.58 464.675 748.494 477.108C748.084 481.779 748.399 486.512 747.769 491.136C746.495 500.492 744.795 509.802 743.283 519.127C742.969 521.052 742.795 522.993 742.449 524.918C740.796 534.117 739.695 543.473 737.286 552.467C734.138 564.285 730.171 575.898 726.11 587.464C723.545 594.77 720.491 601.933 717.138 608.907C712.196 619.211 705.349 628.173 697.714 636.757C689.813 645.64 683.548 655.975 675.772 665C664.99 677.497 653.216 689 639.883 698.972C629.92 706.419 619.295 712.415 607.977 717.212C601.429 719.989 594.551 721.93 587.829 724.265C576.024 728.352 564.329 732.738 552.397 736.415C543.22 739.255 533.855 741.763 524.41 743.373C514.037 745.14 503.475 746.024 492.961 746.734C482.462 747.444 471.821 748.564 461.417 747.57C444.086 745.913 426.41 744.477 409.787 739.728C387.152 733.275 365.131 724.407 345.723 710.269C337.381 704.195 327.999 699.477 320.113 692.913C309.016 683.682 298.722 673.474 288.38 663.391C282.273 657.427 276.055 651.383 271.081 644.504C261.763 631.629 252.586 618.548 244.795 604.742C239.742 595.811 237.286 585.413 233.587 575.709C232.218 572.127 230.471 568.703 229.133 565.122C225.638 555.828 221.908 546.613 218.948 537.146C214.494 522.93 212.054 508.366 212.369 493.36C212.448 489.368 211.424 485.345 210.905 481.337C208.812 465.006 213.455 449.259 215.218 433.275C216.115 425.181 217.485 417.086 219.421 409.181C221.026 402.633 223.56 396.29 226.095 390.01C228.928 383.005 231.903 376.015 235.382 369.309C241.82 356.875 248.084 344.268 255.498 332.418C265.037 317.208 276.905 303.717 289.797 291.204C299.745 281.548 309.583 271.749 319.987 262.613C330.707 253.209 342.937 246.251 356.285 240.886C371.475 234.796 386.649 228.942 402.547 224.887C418.24 220.879 433.603 215.562 449.375 211.98C456.285 210.402 463.856 211.712 471.129 211.712L471.286 210.497V210.449ZM740.356 475.057C740.356 471.633 740.56 469.298 740.324 467.01C739.458 458.979 738.971 450.853 737.349 442.963C735.681 434.79 732.91 426.838 730.534 418.806C728.503 411.943 726.756 404.968 724.206 398.31C719.61 386.365 714.415 374.642 709.646 362.76C705.128 351.51 700.611 340.292 692.74 330.825C684.54 320.979 677.016 310.454 667.996 301.429C659.654 293.066 650.068 285.824 640.434 278.913C630.959 272.128 620.853 266.195 610.842 260.215C601.98 254.913 592.898 249.975 583.831 245.036C570.452 237.746 556.521 232.129 541.253 230.094C531.336 228.768 521.546 226.543 511.692 224.776C500.469 222.757 489.325 219.869 478.007 218.97C462.188 217.723 446.416 219.806 430.959 223.545C425.859 224.776 420.648 225.676 415.722 227.411C396.88 234.054 378.212 241.17 359.339 247.703C345.928 252.342 334.28 259.805 324.222 269.493C308.119 285.003 292.315 300.861 276.953 317.113C270.231 324.213 264.092 332.166 259.197 340.623C251.532 353.861 244.732 367.652 238.341 381.569C231.321 396.827 225.245 412.416 224.096 429.599C223.324 441.212 219.877 452.715 219.798 464.296C219.657 482 221.152 499.735 222.443 517.407C222.852 522.914 224.347 528.484 226.189 533.722C230.738 546.645 236.232 559.252 240.513 572.254C245.424 587.133 250.445 601.854 259.37 614.935C267.304 626.548 273.883 639.108 284.225 649.001C293.779 658.137 302.437 668.298 312.463 676.85C324.363 686.996 336.893 696.558 349.973 705.094C359.795 711.5 371.097 715.587 381.454 721.236C396.093 729.22 411.771 733.906 428.015 736.683C439.49 738.639 451.091 740.123 462.692 740.833C471.459 741.369 480.305 740.296 489.136 740.044C508.764 739.46 528.062 736.904 546.715 730.434C554.79 727.642 562.975 725.133 571.018 722.261C576.842 720.194 582.493 717.606 588.317 715.524C595.668 712.904 603.318 711.042 610.48 707.981C624.977 701.796 636.909 691.572 648.462 681.237C662.125 669.024 674.717 655.691 685.264 640.496C690.6 632.812 697.51 626.201 702.751 618.453C709.662 608.26 715.58 597.673 719.248 585.476C723.56 571.117 729.133 557.201 731.462 542.227C733.43 529.525 736.547 516.997 738.294 504.279C739.679 494.26 739.758 484.051 740.34 475.026L740.356 475.057Z" fill="white"/>
<path d="M258.961 481.51C259.701 466.299 259.354 454.244 261.133 442.505C262.975 430.466 266.091 418.458 270.121 406.956C274.324 394.964 279.754 383.303 285.673 372.053C288.821 366.042 294.267 361.276 298.47 355.785C303.932 348.654 308.622 340.859 314.667 334.279C321.278 327.068 329.321 321.199 336.232 314.24C343.771 306.651 351.154 298.998 360.692 293.917C368.153 289.957 375.772 286.312 383.138 282.21C393.669 276.356 404.766 272.032 416.383 268.971C427.826 265.958 439.317 263.102 450.729 260.009C468.752 255.133 486.601 257.232 504.483 260.972C512.935 262.739 521.451 264.648 530.045 265.374C548.509 266.92 564.502 274.368 579.817 284.182C588.364 289.657 597.683 293.917 606.151 299.503C615.659 305.783 624.914 312.552 633.713 319.779C649.044 332.386 660.771 348.101 669.129 366.026C676.087 380.952 682.163 396.305 688.238 411.626C692.441 422.245 696.235 433.069 699.65 443.972C700.847 447.775 700.374 452.098 700.658 456.185C701.177 463.759 702.389 471.38 702.027 478.906C701.571 488.736 699.823 498.503 698.706 508.302C698.407 510.937 698.171 513.603 698.186 516.254C698.249 526.731 696.392 536.845 693.212 546.817C691.245 552.987 690.19 559.456 688.475 565.72C685.83 575.487 679.927 583.361 673.726 591.124C665.902 600.907 658.741 611.226 650.776 620.867C645.597 627.131 639.899 633.111 633.713 638.349C620.601 649.473 607.584 660.881 593.417 670.538C582.257 678.143 569.633 683.776 557.229 689.346C551.767 691.807 545.204 691.744 539.222 693.164C526.488 696.162 513.896 699.776 501.099 702.363C486.554 705.314 471.884 707.539 457.104 703.184C453.908 702.237 450.414 702.442 447.124 701.764C433.398 698.955 419.389 696.999 406.088 692.817C396.534 689.819 387.75 684.092 378.92 679.043C369.948 673.914 361.039 668.566 352.665 662.538C336.499 650.909 320.585 638.775 308.009 623.17C302.248 616.038 297.761 607.723 293.559 599.502C286.963 586.58 280.699 573.436 275.048 560.056C270.719 549.815 267.776 538.976 263.825 528.562C257.592 512.136 260.378 494.937 259.008 481.415L258.961 481.51ZM265.651 479.017C266.878 495.726 267.398 507.939 268.83 520.041C269.491 525.643 271.49 531.212 273.663 536.482C277.551 545.887 282.194 554.975 286.239 564.316C290.836 574.967 294.613 585.98 299.698 596.378C303.617 604.394 308.119 612.441 313.896 619.131C326.409 633.584 341.552 645.339 357.214 656.211C366.375 662.57 376.213 667.982 385.988 673.378C394.55 678.112 403.098 683.319 412.306 686.364C423.702 690.135 435.744 691.997 447.565 694.443C459.654 696.951 471.868 697.851 484.193 696.746C490.914 696.147 497.793 696.273 504.31 694.774C516.981 691.871 529.447 688.052 542.008 684.628C550.02 682.435 558.268 680.873 566.013 677.954C581.202 672.242 593.968 662.396 606.183 651.982C614.966 644.503 623.23 636.393 631.635 628.472C636.043 624.322 640.592 620.236 644.48 615.628C651.122 607.755 656.584 598.777 663.778 591.518C679.707 575.472 686.192 555.638 688.931 534.021C689.875 526.495 690.741 518.952 691.229 511.394C692.189 496.847 693.527 482.299 693.464 467.751C693.401 454.923 691.764 442.016 687.152 429.882C681.564 415.208 675.095 400.865 669.617 386.144C663.888 370.775 655.939 356.874 646.494 343.431C637.192 330.192 624.867 320.646 612.274 311.495C601.823 303.889 589.45 298.998 578.731 291.708C562.314 280.537 544.432 274.194 524.914 271.89C521.215 271.449 517.469 271.259 513.817 270.518C506.513 269.05 499.336 266.825 491.985 265.768C478.29 263.796 464.549 264.033 450.965 267.173C448.556 267.725 446.022 267.835 443.693 268.593C433.619 271.875 423.796 276.214 413.502 278.502C396.549 282.257 382.54 291.945 367.791 299.961C359.181 304.631 351.878 311.858 344.401 318.39C336.31 325.459 328.283 332.701 320.947 340.527C313.896 348.07 307.804 356.511 301.209 364.495C298.391 367.903 294.802 370.823 292.583 374.562C282.965 390.924 274.827 408.139 271.679 426.9C268.547 445.566 267.24 464.563 265.619 478.985L265.651 479.017Z" fill="white"/>
<path d="M305.286 488.121C305.758 478.528 305.727 468.887 306.829 459.357C308.246 447.16 310.103 435.01 315.974 423.823C319.012 418.017 321.342 411.737 323.294 405.457C326.804 394.175 335.477 386.538 341.993 377.355C351.123 364.495 363.841 355.47 376.15 346.208C383.423 340.733 392.237 337.34 400.234 332.812C406.514 329.262 412.495 325.175 418.839 321.751C424.443 318.737 430.125 315.582 436.169 313.751C447.88 310.217 459.843 308.008 472.137 306.619C485.075 305.168 497.07 308.45 509.442 310.043C514.195 310.659 518.996 310.832 523.766 311.321C542.969 313.31 560.111 321.041 575.93 331.518C582.352 335.778 587.216 342.311 593.197 347.344C611.614 362.87 622.349 383.714 633.084 404.573C638.782 415.65 643.048 427.216 644.779 439.633C645.724 446.387 647.125 453.108 647.66 459.893C648.699 472.863 649.974 485.881 649.754 498.866C649.612 507.008 647.235 515.182 645.252 523.197C641.93 536.656 638.656 550.179 634.28 563.322C632.407 568.971 628.11 573.91 624.411 578.801C617.816 587.542 611.567 596.741 603.87 604.426C590.128 618.121 577.347 633.584 558.364 640.338C545.929 644.756 532.801 647.17 520.004 650.562C499.683 655.943 479.157 654.538 458.852 651.257C446.653 649.284 434.942 644.424 422.758 642.2C408.12 639.533 397.4 630.713 386.177 622.176C379.346 617.001 372.137 612.252 364.707 607.976C354.869 602.327 349.171 593.065 343.347 584.087C337.224 574.667 333.021 563.969 326.646 554.77C318.933 543.646 314.699 531.023 309.19 518.968C307.112 514.44 306.341 509.138 305.821 504.105C305.255 498.819 305.696 493.439 305.696 488.09C305.554 488.09 305.412 488.09 305.286 488.074V488.121ZM476.575 313.878C462.126 313.404 449.061 318.217 436.154 323.345C429.905 325.838 424.065 329.404 418.099 332.607C412.149 335.794 406.246 339.045 400.375 342.374C392.001 347.139 383.312 351.478 375.426 356.953C363.227 365.442 352.98 376.014 343.977 387.974C338.546 395.169 332.108 401.512 329.243 410.411C327.118 417.038 324.868 423.65 322.192 430.056C317.894 440.375 313.676 450.6 315.093 462.181C315.313 463.917 315.108 465.779 314.731 467.483C311.661 481.526 311.708 495.711 315.581 509.359C319.5 523.134 324.679 536.498 332.974 548.601C340.435 559.472 346.007 571.622 353.248 582.667C357.498 589.168 362.708 595.384 368.658 600.323C377.772 607.881 387.846 614.256 397.589 621.04C402.107 624.18 406.42 628.456 411.472 629.829C428.205 634.405 444.354 641.537 462.031 642.278C464.817 642.389 467.556 643.462 470.342 643.651C481.408 644.44 492.521 645.844 503.555 645.497C511.646 645.245 519.594 641.789 527.717 641.206C540.671 640.259 551.941 634.847 563.369 629.671C576.166 623.881 583.958 611.968 594.221 603.1C601.398 596.899 605.57 587.321 612.307 580.442C626.882 565.515 631.4 546.628 635.288 527.268C636.295 522.25 637.24 517.17 638.798 512.31C643.079 498.93 643.788 485.439 641.316 471.632C639.664 462.434 638.688 453.124 637.161 443.894C636.185 437.992 635.571 431.854 633.415 426.364C629.102 415.397 624.537 404.384 618.745 394.159C612.763 383.619 606.404 372.795 598.03 364.243C587.61 353.64 577.111 342.91 564.408 334.485C551.69 326.059 537.979 321.483 523.356 319.085C514.778 317.68 505.995 317.649 497.322 316.718C490.38 315.976 483.47 314.824 476.56 313.846L476.575 313.878Z" fill="white"/>
<path d="M492.567 360.171C501.319 359.698 507.867 364.637 514.541 368.565C527.48 376.187 540.245 384.107 552.79 392.375C563.321 399.318 572.986 407.586 578.857 418.931C584.319 429.487 588.585 440.69 593.039 451.75C594.047 454.259 593.511 457.383 593.873 460.192C594.881 468.066 596.061 475.923 597.053 483.797C598.879 498.25 595.888 511.473 587.656 523.67C583.453 529.902 580.62 537.05 576.638 543.44C568.862 555.858 558.851 566.414 547.643 575.739C544.023 578.737 539.616 581.009 535.24 582.808C527.574 585.932 520.475 590.934 511.723 590.76C502.043 590.571 492.347 590.382 482.682 590.019C474.89 589.719 467.067 588.378 459.339 588.898C446.305 589.766 435.208 585.711 424.032 579.368C414.289 573.83 404.294 568.812 396.235 560.986C392.221 557.089 389.45 551.929 386.05 547.385C382.037 542.036 377.393 537.066 374.009 531.338C370.263 525.026 366.878 518.289 364.706 511.315C362.125 503.047 360.629 494.369 359.307 485.769C357.733 475.56 360.047 465.588 364.328 456.516C371.538 441.21 379.502 426.236 387.609 411.373C391.386 404.462 397.667 399.76 404.404 395.689C410.59 391.934 416.367 387.468 422.663 383.902C429.652 379.926 436.767 375.934 444.291 373.204C452.775 370.128 461.763 368.487 470.514 366.183C474.717 365.078 478.888 363.863 483.075 362.727C486.255 361.86 489.435 361.023 492.614 360.171H492.567ZM368.232 482.866C367.713 483.008 367.193 483.166 366.674 483.308C369.853 493.611 371.931 504.435 376.496 514.076C381.501 524.679 388.16 534.683 395.243 544.071C406.151 558.525 421.246 567.866 437.617 575.013C440.891 576.449 444.826 576.591 448.493 576.891C458.788 577.711 469.208 574.114 479.518 578.406C483.075 579.889 487.577 579.542 491.607 579.352C497.919 579.068 504.199 577.901 510.527 577.711C520.507 577.412 529.4 573.893 537.554 568.733C550.508 560.528 560.063 548.505 569.664 536.939C575.725 529.65 580.037 520.64 583.878 511.851C586.601 505.619 588.411 498.471 588.459 491.718C588.49 483.939 586.286 476.128 584.76 468.381C582.839 458.583 581.139 448.689 578.416 439.096C573.726 422.528 562.534 410.805 548.289 401.906C539.017 396.115 529.542 390.592 519.908 385.401C512.463 381.378 504.86 377.48 496.943 374.561C484.445 369.938 472.844 376.613 460.928 378.822C455.199 379.879 449.406 381.551 444.149 384.06C431.005 390.324 419.027 398.655 408.245 408.359C401.476 414.45 395.463 421.629 390.237 429.124C385.625 435.735 382.824 443.593 378.731 450.614C372.891 460.65 367.791 470.843 368.201 482.882L368.232 482.866Z" fill="white"/>
</svg>
