<svg width="329" height="374" viewBox="0 0 329 374" fill="none" xmlns="http://www.w3.org/2000/svg">
<g clip-path="url(#clip0_155_244)">
<path d="M162.99 52.325C163.478 50.6506 164.121 49.5214 164.063 48.4213C163.829 43.6804 163.4 38.959 163.01 34.2278C162.932 33.2544 162.698 32.2906 162.542 31.3269C162.23 31.2976 161.918 31.2684 161.606 31.249C160.358 36.9147 159.12 42.5706 157.823 48.4895C156.156 48.1293 154.031 47.662 151.077 47.0195C154.479 46.6593 154.567 44.8778 154.645 42.5901C154.733 40.059 155.932 37.5864 156.225 35.0456C156.644 31.4047 157.043 27.686 156.8 24.0549C156.41 18.2821 156.702 12.7819 159.578 7.564C160.368 6.12324 160.27 4.2152 160.758 2.57001C161.031 1.65493 161.664 0.85667 162.142 0C162.961 0.681442 163.78 1.35315 164.579 2.04433C164.716 2.17088 164.803 2.40452 164.833 2.59921C165.466 7.3109 166.305 12.0128 166.675 16.744C167.182 23.1009 167.338 29.487 167.64 35.8536C167.796 39.144 167.962 42.4246 168.128 45.715C168.245 48.0806 168.372 50.4559 168.527 53.3277C166.695 52.9967 164.53 52.5976 163 52.325H162.99Z" fill="black"/>
<path d="M220.206 62.5561C219.826 62.5269 219.602 62.5561 219.416 62.4977C214.181 60.4923 214.025 60.4241 216.082 55.1965C219.163 47.3988 219.582 39.387 218.89 31.1708C218.558 27.2866 218.169 23.3342 220.352 19.7031C220.703 19.1093 220.294 18.1066 220.45 17.3473C220.82 15.6144 221.327 13.9206 221.922 11.6523C224.486 13.8622 225.626 15.4782 224.963 17.98C224.749 18.7977 224.866 19.8686 225.236 20.6376C227.176 24.6582 227.381 28.8928 227.527 33.2638C227.664 37.4498 228.668 41.5969 229.146 45.7731C229.584 49.6476 229.721 53.5513 230.179 57.416C230.472 59.9179 231.095 62.3906 231.583 64.8924C227.81 65.5836 227.225 65.1261 226.747 60.9985C226.153 55.8098 225.412 50.6406 224.71 45.4616C224.661 45.0917 224.369 44.7607 223.774 43.6217C223.053 45.8413 222.536 47.4086 222.039 48.9759C221.415 50.9326 220.957 52.9672 220.138 54.846C219.124 57.1629 217.857 59.3338 220.372 61.495C220.518 61.6215 220.265 62.1959 220.196 62.5561H220.206Z" fill="black"/>
<path d="M271.065 89.0255C269.184 88.7335 267.4 88.4609 266.259 88.2857C268.862 81.9775 268.268 75.348 268.599 68.8354C268.268 68.7769 267.946 68.7088 267.614 68.6504C266.503 73.9559 265.382 79.2614 264.222 84.7811C262.223 84.4014 261.502 83.7589 261.648 81.6757C262.155 74.2869 262.448 66.8884 262.662 59.4801C262.798 54.7295 262.516 49.9789 265.372 45.7442C265.938 44.907 265.86 43.5831 265.899 42.4733C265.986 40.3316 267.176 39.0077 269.155 39.2218C271.173 39.4457 271.543 41.0228 271.075 42.999C270.763 44.3229 270.588 45.9973 271.124 47.146C272.937 51.001 272.791 54.9729 272.46 59.0031C271.816 66.8105 271.075 74.6179 270.529 82.435C270.393 84.4404 270.831 86.4847 271.056 89.0255H271.065Z" fill="black"/>
<path d="M297.153 124.199V113.15C296.89 113.101 296.627 113.052 296.364 113.003C296.091 114.094 295.818 115.184 295.535 116.265C295.233 117.452 295.057 118.708 294.55 119.798C294.346 120.227 293.322 120.587 292.796 120.46C292.279 120.334 291.528 119.536 291.548 119.059C291.821 110.716 292.084 102.363 292.63 94.0302C292.747 92.1806 294.024 90.4283 294.609 88.5787C295.174 86.8069 295.564 84.967 295.993 83.1563C296.178 82.3581 296.11 81.443 296.481 80.7518C296.861 80.0217 297.621 79.4765 298.216 78.8535C298.869 79.535 299.932 80.1288 300.097 80.9173C300.887 84.6166 301.989 88.3645 301.959 92.093C301.872 101.886 301.267 111.68 300.848 121.473C300.731 124.121 299.279 124.754 297.163 124.199H297.153Z" fill="black"/>
<path d="M315.695 155.962C315.422 157.442 315.364 159.009 314.808 160.372C314.487 161.151 313.258 162.193 312.595 162.095C308.793 161.54 305.04 160.674 301.774 160.022C303.373 160.022 305.518 159.846 307.633 160.07C309.875 160.304 310.87 159.603 310.997 157.296C311.27 152.36 311.533 147.405 312.166 142.499C312.556 139.491 313.658 136.57 314.389 133.601C314.604 132.735 314.701 131.839 314.76 130.944C314.906 128.714 315.335 126.67 318.074 125.443C318.601 126.446 319.634 127.488 319.478 128.286C318.932 130.973 320.628 132.959 321.087 135.266C321.837 139.033 322.208 142.966 322.032 146.802C321.808 152.039 320.94 157.247 320.307 162.455C320.219 163.147 320.082 164.003 319.624 164.451C318.971 165.103 318.016 165.454 317.187 165.931C316.924 165.123 316.417 164.305 316.436 163.507C316.495 161.024 316.748 158.552 316.934 156.069C316.524 156.03 316.115 155.991 315.695 155.962Z" fill="black"/>
<path d="M302.428 298.656C301.521 298.52 300.487 298.608 299.717 298.199C292.669 294.49 284.685 296.359 277.334 294.422C274.419 293.653 271.319 293.623 268.316 293.127C267.751 293.039 267.293 292.358 266.786 291.949C267.312 291.599 267.975 290.849 268.346 290.966C274.039 292.835 279.762 290.966 285.465 291.238C288.243 291.375 291.021 291.56 293.78 291.881C295.798 292.114 296.705 291.569 297.095 289.379C297.68 286.069 298.879 282.866 299.6 279.576C299.873 278.34 299.727 276.938 299.483 275.663C299.074 273.531 299.6 271.486 301.696 271.379C302.827 271.321 304.972 273.355 305.108 274.621C305.781 280.822 305.947 287.072 306.23 293.302C306.269 294.1 305.791 294.928 305.81 295.726C305.869 298.15 304.972 299.27 302.428 298.656Z" fill="black"/>
<path d="M268.804 326.343C265.333 326.343 262.145 326.411 258.967 326.294C258.236 326.265 257.378 325.769 256.842 325.224C255.37 323.754 254.151 324.27 252.211 325.808C253.215 326.197 253.986 326.499 254.756 326.801C254.532 327.171 254.317 327.54 254.093 327.91C250.7 326.966 247.298 326.032 243.905 325.087C243.935 324.737 243.964 324.396 244.003 324.046C245.572 323.744 247.132 323.238 248.702 323.179C254.639 322.975 260.605 322.313 266.484 323.744C269.272 324.425 270.12 323.345 270.305 320.668C270.442 318.545 271.329 316.482 271.758 314.369C272.196 312.198 272.606 310.008 272.811 307.808C272.976 305.987 272.976 303.933 275.248 303.817C277.519 303.69 278.406 305.588 278.504 307.574C278.787 313.785 279.03 320.006 279.118 326.226C279.177 330.12 278.397 330.948 274.604 330.422C272.391 330.11 268.989 331.035 268.814 326.333L268.804 326.343Z" fill="black"/>
<path d="M156.702 365.078C157.979 364.815 159.247 364.396 160.534 364.309C163.078 364.143 165.642 364.036 168.196 364.134C171.676 364.27 175.166 364.523 178.627 364.932C180.275 365.127 181.357 365.214 181.727 363.16C182.244 360.288 182.907 357.417 183.843 354.652C184.252 353.425 185.49 352.481 186.348 351.41C187.411 352.744 189.565 354.311 189.341 355.353C188.63 358.594 189.439 361.262 190.384 364.27C191.086 366.519 191.252 370.218 189.936 371.474C188.561 372.788 185.052 372.418 182.605 371.99C175.4 370.734 168.264 369.108 161.109 367.599C159.656 367.288 158.213 366.879 156.771 366.509C156.751 366.032 156.722 365.555 156.702 365.078Z" fill="black"/>
<path d="M323.368 204.131C322.422 205.309 321.886 205.971 320.833 207.285C320.073 205.893 318.971 204.803 318.981 203.722C319.02 198.378 319.351 193.024 319.585 187.679C319.605 187.163 319.683 186.647 319.819 186.151C320.794 182.831 321.652 179.473 322.88 176.241C323.28 175.18 324.664 174.498 325.591 173.642C326.234 175.004 327.755 176.737 327.365 177.652C326.292 180.183 327.384 182.111 327.804 184.418C328.466 188.088 328.369 191.943 328.174 195.701C327.96 199.809 327.355 203.898 326.712 207.967C326.585 208.765 325.513 209.417 324.879 210.138C324.372 209.32 323.67 208.57 323.417 207.685C323.163 206.789 323.358 205.767 323.358 204.131H323.368Z" fill="black"/>
<path d="M317.957 256.855C317.928 257.108 317.85 257.994 317.733 259.123H314.175C314.175 253.72 313.902 248.444 314.282 243.217C314.487 240.345 315.822 237.57 316.563 234.728C316.836 233.657 316.544 232.323 317.07 231.457C317.762 230.328 319.02 229.539 320.034 228.595C320.687 229.666 321.652 230.668 321.935 231.827C322.412 233.774 322.081 235.974 322.763 237.814C324.996 243.83 322.481 249.622 322.11 255.502C322.081 255.959 319.819 256.271 317.947 256.855H317.957Z" fill="black"/>
<path d="M231.476 359.958C226.835 359.227 225.733 357.865 226.845 353.747C227.907 349.785 229.165 345.881 230.237 341.929C230.501 340.965 230.442 339.913 230.462 338.901C230.491 336.75 231.739 335.358 233.659 335.727C234.478 335.883 235.629 338.268 235.346 339.29C234.722 341.568 235.551 343.33 235.911 345.404C236.594 349.269 236.467 353.377 235.931 357.28C235.785 358.351 233.026 359.081 231.466 359.958H231.476Z" fill="black"/>
<path d="M110.327 364.493C115.913 365.496 121.499 366.44 127.076 367.511C129.727 368.017 134.319 363.724 134.105 360.794C134.036 359.772 133.715 358.633 134.056 357.747C134.456 356.676 135.43 355.819 136.152 354.875C137.166 355.926 139.223 357.318 139.008 357.971C137.682 362.02 140.237 365.116 141.114 368.591C141.933 371.833 141.133 373.264 137.799 373.031C134.865 372.816 131.658 373.615 129.513 369.769C128.616 368.163 124.726 367.949 122.123 367.608C118.779 367.18 115.358 367.384 112.004 367.053C111.136 366.966 110.366 365.914 109.547 365.301C109.811 365.038 110.074 364.766 110.327 364.503V364.493Z" fill="black"/>
<path d="M90.8785 354.827C88.9872 354.398 87.2032 353.989 85.4289 353.59C85.4289 353.386 85.4289 353.172 85.4192 352.967C86.2771 352.967 87.1545 352.841 87.9929 352.987C92.5358 353.775 93.5399 353.035 93.9786 348.703C94.0761 347.72 94.4271 346.601 95.051 345.871C95.6652 345.15 96.9325 344.274 97.6052 344.478C98.5313 344.761 99.7402 345.948 99.8084 346.834C100.033 349.57 99.4867 352.373 101.505 354.768C101.719 355.021 101.193 356.452 100.744 356.608C98.8238 357.299 96.835 357.961 94.817 358.166C92.6333 358.38 90.664 357.747 90.8883 354.827H90.8785Z" fill="black"/>
<path d="M56.9039 335.201C52.8581 333.254 47.935 336.535 44.4937 333.235C44.5521 332.894 44.6204 332.563 44.6789 332.222C49.524 332.485 54.3692 332.738 59.3411 333.001C59.653 331.609 59.5653 330.226 60.2087 329.526C61.0959 328.552 62.5484 328.095 63.7573 327.413C64.3325 328.455 65.0734 329.448 65.4438 330.557C65.8338 331.735 65.5901 333.166 66.1068 334.257C67.0524 336.223 66.2237 336.953 64.4982 337.275C62.7824 337.596 61.0276 337.752 59.3118 338.073C56.8941 338.53 55.968 337.742 56.9136 335.191L56.9039 335.201Z" fill="black"/>
<path d="M192.489 56.9604C197.314 56.9604 202.15 57.048 206.975 56.941C212.074 56.8241 216.081 59.0242 219.698 62.3633C210.534 61.0393 201.467 59.7349 192.401 58.4304C192.43 57.9437 192.459 57.4569 192.489 56.9604Z" fill="black"/>
<path d="M137.133 43.735C140.155 43.735 143.216 43.4916 146.209 43.8032C149.241 44.1244 152.273 44.8253 155.187 45.7404C156.143 46.0422 156.718 47.5219 157.469 48.4662C157.244 48.7874 157.01 49.1087 156.786 49.4299C152.779 48.6803 148.782 47.9405 144.776 47.1812C142.982 46.8404 141.169 46.5679 139.424 46.0714C138.468 45.7988 137.63 45.1271 136.743 44.6306C136.879 44.3288 137.016 44.0368 137.152 43.735H137.133Z" fill="black"/>
<path d="M34.1111 317.377C34.8715 314.457 35.2224 312.529 35.8951 310.718C36.2363 309.794 37.2307 308.333 37.7571 308.411C39.0245 308.577 40.7208 309.209 41.2862 310.193C42.2026 311.799 42.3683 313.843 43.0312 316.404C39.9506 316.735 37.0552 317.056 34.1208 317.377H34.1111Z" fill="black"/>
<path d="M250.552 81.5756C255.436 80.3879 259.852 81.0499 263.985 84.35C258.994 84.8562 254.724 83.3376 250.552 81.5756Z" fill="black"/>
<path d="M21.6132 288.338C19.9852 286.936 18.864 285.973 17.7527 285.019C18.8835 284.172 20.0339 282.624 21.1355 282.663C22.2274 282.702 23.4265 284.23 24.1771 285.369C24.3429 285.622 22.8123 286.985 21.6132 288.348V288.338Z" fill="black"/>
<path d="M13.6679 260.69C10.9675 263.903 7.95514 260.817 4.73804 261.362C10.4996 257.39 11.494 257.332 13.6679 260.69Z" fill="black"/>
<path d="M75.6022 350.641C78.3806 351.507 80.6813 352.218 83.4402 353.074C80.3108 355.459 76.967 354.418 75.6022 350.641Z" fill="black"/>
<path d="M317.009 258.801C312.994 259.18 308.896 257.757 304.548 257.172C306.761 255.576 311.871 256.192 317.009 258.801Z" fill="black"/>
<path d="M321.163 207.297L312.855 205.688C312.914 205.114 310.778 204.39 313.041 203.975C315.985 204.354 316.972 204.01 319.916 204.39C319.868 204.809 321.766 205.961 321.707 206.389L321.163 207.297Z" fill="black"/>
<path d="M0 229.451C2.4372 227.514 4.43571 227.134 6.60969 229.471C4.4747 231.418 2.48594 230.347 0 229.451Z" fill="black"/>
<path d="M227.228 358.05C226.165 357.076 225.317 356.638 225.064 355.976C224.723 355.09 224.791 354.019 224.84 353.036C224.84 352.89 226.029 352.588 226.087 352.695C226.546 353.484 226.955 354.331 227.189 355.217C227.355 355.849 227.218 356.57 227.218 358.05H227.228Z" fill="black"/>
<path d="M292.918 120.486C290.422 119.133 288.056 118.4 286.272 117.427C288.388 115.947 291.134 116.475 292.918 120.486Z" fill="black"/>
</g>
<defs>
<clipPath id="clip0_155_244">
<rect width="328.32" height="373.051" fill="white"/>
</clipPath>
</defs>
</svg>
