<svg width="508" height="230" viewBox="0 0 508 230" fill="none" xmlns="http://www.w3.org/2000/svg">
<path d="M464.995 382.044C465.067 376.307 465.198 370.569 465.198 364.832C465.198 354.442 465.019 344.052 465.079 333.658C465.246 303.326 465.556 272.995 465.604 242.668C465.604 239.306 464.947 235.837 463.382 232.595C460.156 225.917 461.417 219.216 461.799 212.505C462.283 203.987 463.537 195.465 463.412 186.952C463.215 173.386 462.074 159.829 461.488 146.268C461.22 140 461.709 133.713 461.13 127.458C460.371 119.294 459.308 111.126 457.492 103.018C456.859 100.191 453.406 97.5786 451.655 94.789C450.873 93.541 450.933 92.0973 450.939 90.7421C450.951 87.1795 451.201 83.6122 451.231 80.0495C451.243 78.6571 451.703 77.5534 454.027 76.6778C455.58 76.0911 456.894 75.1457 457.761 74.205C459.84 71.9556 457.826 69.8693 453.316 69.2825C452.229 69.1428 451.154 68.9751 449.499 68.7376C449.2 69.6457 448.674 70.5026 448.663 71.3642C448.555 78.4056 448.89 85.4564 448.304 92.4838C448.095 94.9614 445.61 97.369 444.344 99.8373C442.492 103.437 440.078 107.014 439.236 110.693C438.352 114.549 439.039 118.517 439.039 122.438C438.549 122.447 438.053 122.452 437.563 122.461C437.432 121.278 437.342 120.091 437.169 118.908C436.482 114.097 437.145 109.258 433.961 104.527C432.623 102.534 431.434 100.741 428.776 99.1946C427.933 98.7056 427.545 97.8161 427.509 97.0989C427.408 94.9288 427.7 92.7539 427.611 90.5837C427.491 87.6731 428.047 85.163 432.39 82.8531C436.787 80.5152 434.403 77.5534 428.591 76.785C426.111 76.459 425.377 77.0877 425.305 78.1355C425.078 81.3861 424.929 84.6367 424.893 87.8873C424.857 91.1426 425.191 94.3979 424.964 97.6485C424.887 98.7196 423.997 99.9584 422.748 100.787C418.483 103.614 417.157 106.804 417.629 110.367C417.748 111.289 417.067 112.244 416.792 113.073C415.556 110.413 414.498 107.768 413.023 105.198C412.599 104.462 410.974 103.935 409.893 103.316C409.624 103.162 409.206 103.055 409.044 102.878C407.766 101.458 410.43 95.0172 412.049 93.6527C413.71 92.2556 415.371 90.5092 415.257 88.9584C415.197 88.0922 411.649 87.1748 409.433 86.5414C408.632 86.3132 407.115 86.8348 406.816 86.8814C407.055 88.5393 407.413 89.7222 407.354 90.8958C407.186 94.2116 407.007 97.532 406.493 100.839C406.26 102.333 406.01 104.159 404.403 105.188C399.289 108.457 399.05 112.523 398.315 116.295C396.995 123.039 397.115 129.866 396.607 136.656C396.601 136.763 396.32 136.865 395.472 137.447C395.472 135.464 395.663 133.936 395.436 132.427C394.647 127.141 393.984 121.837 392.67 116.589C392.312 115.15 389.827 113.874 388.363 112.504C387.688 111.876 386.541 111.196 386.595 110.567C386.846 107.549 387.162 104.513 388.04 101.537C388.393 100.35 390.161 99.2598 391.445 98.184C395.179 95.0731 393.005 91.9017 386.726 91.6549C385.561 91.6083 383.978 92.223 383.202 92.7865C382.724 93.1311 383.279 93.9787 383.584 94.5702C384.092 95.5621 385.328 96.5354 385.28 97.5041C385.065 102.073 384.587 106.641 384.02 111.205C383.936 111.89 383.178 112.737 382.222 113.175C376.989 115.569 376.158 118.759 376.368 122.186C376.397 122.713 376.314 123.29 375.955 123.774C372.933 127.882 374.325 132.194 373.972 136.423C373.285 144.684 372.503 152.946 372.066 161.212C371.798 166.321 371.977 171.439 372.162 176.553C372.437 184.218 372.903 191.884 373.249 199.554C373.285 200.392 373.058 201.23 372.957 202.078C369.45 201.808 367.305 199.968 367.461 197.258C367.664 193.849 368.393 190.444 368.363 187.04C368.267 175.812 367.968 164.584 367.67 153.356C367.544 148.717 367.777 144.046 366.839 139.45C365.74 134.052 367.945 128.478 364.032 123.244C363.07 121.958 362.269 120.608 360.973 119.429C357.18 115.969 357.389 113.771 362.144 110.814C366.857 107.88 365.334 104.848 358.595 104.024C357.825 103.931 355.943 104.606 355.907 104.965C355.364 110.576 355.226 116.207 354.569 121.814C354.318 123.942 356.069 126.424 351.534 128.129C350.626 128.469 351.254 130.159 351.421 131.216C352.102 135.58 350.543 141.294 347.663 144.997C346.726 143.972 345.8 142.789 344.605 141.69C342.55 139.79 341.343 137.839 341.743 135.566C342.114 133.489 341.696 131.361 342.233 129.302C342.568 128.031 344.037 126.853 344.999 125.628C346.11 124.212 348.47 122.647 347.974 121.427C347.526 120.31 344.001 119.564 340.985 118.302C340.465 119.741 340.071 120.384 340.029 121.031C339.712 125.968 339.545 130.904 339.133 135.841C339.025 137.121 338.828 138.607 337.615 139.622C330.477 145.611 330.584 152.49 329.33 159.182C328.499 163.611 328.386 168.081 326.964 172.543C326.964 170.28 327.078 168.016 326.94 165.753C326.576 159.736 327.329 153.659 324.163 147.786C323.147 145.9 321.988 143.939 320.017 142.342C318.147 140.824 317.4 139.436 317.484 137.629C317.645 134.113 318.159 131.039 323.577 128.306C329.521 125.307 327.233 121.418 320.142 120.175C317.287 119.672 316.54 120.133 316.426 121.544C315.972 127.253 315.22 132.963 315.112 138.672C315.023 143.106 311.982 147.046 309.855 151.181C307.956 154.869 306.934 158.735 306.295 162.563C305.01 170.266 304.198 177.996 303.308 185.718C303.075 187.739 303.272 189.774 303.272 191.804C302.752 191.832 302.233 191.865 301.713 191.893C301.462 191.101 301.02 190.309 300.984 189.513C300.703 182.77 301.068 176.003 300.142 169.292C298.81 159.675 298.893 149.947 294.383 140.521C293.595 138.877 291.826 137.373 290.399 135.673C292.047 134.565 294.234 133.433 295.667 132.059C298.433 129.419 296.337 127.067 290.924 126.541C290.082 126.457 288.905 126.927 288.146 127.304C287.77 127.491 287.961 128.045 287.973 128.431C288.194 134.891 282.788 140.61 280.106 146.682C278.499 150.32 277.866 154.129 277.513 157.883C277.083 162.432 277.411 167.006 277.411 171.57C277.035 171.57 276.665 171.57 276.288 171.565C275.47 164.617 274.664 157.668 273.815 150.72C273.72 149.952 273.594 149.16 273.164 148.433C270.667 144.233 268.015 140.06 265.589 135.845C265.231 135.226 265.601 134.406 266.008 133.75C266.3 133.27 267.226 132.912 267.841 132.483C273.2 128.757 271.545 126.08 262.662 124.943C262.453 125.586 262.101 126.21 262.071 126.839C261.993 128.702 262.358 130.583 261.945 132.418C261.641 133.768 260.428 135.063 259.556 136.367C258.935 137.298 258.044 138.188 257.543 139.133C252.351 148.96 251.951 159.075 251.437 169.199C251.013 162.945 250.846 156.676 250.04 150.436C249.747 148.182 248.373 145.877 246.694 143.786C244.771 141.387 245.392 138.519 241.587 136.39C240.762 135.929 242.495 133.731 243.791 132.581C245.834 130.765 249.209 129.33 250.756 127.426C253.66 123.854 249.603 120.631 242.602 120.338C240.517 120.249 239.687 120.435 239.735 121.832C239.992 129.489 238.379 136.907 232.375 144.046C229.818 147.088 229.747 150.813 229.06 154.255C228.408 157.529 228.426 160.844 228.152 164.142L226.658 164.132C226.658 158.195 226.927 152.252 226.521 146.324C226.371 144.144 224.502 142.016 223.647 139.837C222.93 138.002 223.241 135.976 219.34 134.951C218.85 134.821 218.802 133.936 218.91 133.424C219.8 129.069 220.583 124.706 221.789 120.379C222.447 118.018 220.206 116.598 214.74 116.561C219.776 122.117 215.308 127.952 216.556 133.624C216.64 134.015 215.845 134.518 215.278 134.886C211.574 137.317 208.659 139.781 208.283 143.218C207.393 151.4 205.26 159.55 204.573 167.732C203.946 175.216 203.283 182.77 206.682 190.174C206.873 190.598 206.819 191.055 206.622 191.525C203.163 187.348 196.855 184.223 197.685 178.644C198.975 169.981 196.944 161.189 197.141 152.462C197.309 145.094 197.237 137.801 193.868 130.606C192.595 127.891 192.536 124.934 190.523 122.429C189.322 120.934 188.246 119.648 188.205 117.995C188.139 115.299 188.814 113.04 192.661 110.893C197.936 107.95 196.329 104.895 189.836 103.6C187.273 103.088 186.168 103.437 186.09 104.988C185.959 107.764 185.534 110.534 185.403 113.305C185.278 115.853 185.379 118.4 185.379 120.994C180.809 121.52 180.606 124.142 180.164 125.893C177.768 135.473 175.361 145.085 174.328 154.73C173.348 163.834 174.029 172.995 174.071 182.132C174.077 183.831 174.077 185.601 174.907 187.208C175.451 188.265 177.757 189.01 178.766 190.049C179.776 191.083 180.773 192.307 180.725 193.434C180.021 210.647 179.202 227.854 178.282 245.062C177.828 253.585 177.255 262.107 176.478 270.625C175.618 280.027 174.196 289.416 173.515 298.823C172.804 308.663 172.834 318.518 172.267 328.358C171.46 342.389 170.397 356.412 169.471 370.443C169.214 374.313 169.065 378.183 168.861 382.053H170.558C171.586 364.389 172.589 346.725 173.641 329.061C174.644 312.193 175.576 295.321 176.759 278.458C177.595 266.536 178.999 254.623 179.788 242.696C180.881 226.192 181.52 209.678 182.685 193.178C182.816 191.357 184.74 189.443 186.646 187.869C187.279 187.343 190.445 187.734 192.458 187.72C198.312 187.683 206.455 192.307 206.15 195.521C205.284 204.639 204.436 213.753 203.498 222.871C201.807 239.357 199.86 255.839 198.396 272.329C196.323 295.707 194.871 319.109 192.601 342.483C191.389 355.015 189.059 367.51 187.105 380.018C186.992 380.726 185.714 381.378 184.979 382.058H191.765C191.353 381.364 190.54 380.666 190.588 379.986C191.508 367.598 192.35 355.206 193.581 342.823C194.967 328.898 196.765 314.983 198.312 301.063C200.959 277.228 203.527 253.394 206.168 229.559C207.213 220.128 208.301 210.698 209.519 201.272C209.746 199.512 210.057 197.598 211.491 196.084C212.673 194.841 215.577 194.091 217.721 193.122C218.474 194.254 219.292 195.376 219.943 196.527C220.188 196.955 220.063 197.449 220.063 197.914C220.206 213.655 220.403 229.391 220.475 245.132C220.571 265.753 220.654 286.379 220.601 307.001C220.547 328.227 220.308 349.454 220.212 370.681C220.194 374.472 220.475 378.263 220.613 382.053H223.157C222.895 377.797 222.381 373.54 222.423 369.288C222.524 359.611 223.11 349.939 223.11 340.261C223.11 316.161 222.871 292.056 222.775 267.956C222.703 250.981 222.668 234.002 222.697 217.027C222.709 210.051 222.918 203.074 223.08 196.098C223.116 194.566 223.54 193.076 226.849 192.629C229.281 192.303 231.772 192.102 234.794 191.79C234.974 192.848 235.254 193.737 235.254 194.622C235.242 213.539 235.189 232.456 235.159 251.372C235.135 267.104 235.207 282.84 235.075 298.571C234.92 317.409 234.573 336.247 234.352 355.08C234.245 364.068 234.245 373.061 234.191 382.049H236.736C236.837 381.201 237.029 380.354 237.035 379.506C237.052 362.601 236.975 345.701 237.076 328.796C237.142 317.549 237.578 306.302 237.614 295.055C237.65 283.888 237.333 272.725 237.285 261.557C237.25 252.327 237.315 243.092 237.465 233.862C237.662 221.297 238.044 208.737 238.199 196.173C238.235 193.43 242.112 192.4 245.171 191.078C246.431 190.533 248.887 190.407 250.541 190.645C252.829 190.971 255.177 191.627 256.939 192.489C258.666 193.332 260.703 194.571 260.846 195.698C261.342 199.637 261.193 203.601 261.079 207.559C260.715 220.343 260.081 233.131 259.89 245.914C259.747 255.522 260.279 265.134 260.219 274.741C260.159 284.81 259.645 294.883 259.52 304.952C259.395 314.475 259.669 323.999 259.472 333.522C259.335 340.019 258.379 346.511 258.325 353.008C258.236 362.685 258.618 372.367 258.803 382.044H261.348C261.497 368.273 261.647 354.502 261.79 340.732C261.969 323.85 262.196 306.968 262.322 290.091C262.417 276.539 262.352 262.982 262.429 249.43C262.495 238.198 262.573 226.965 262.829 215.737C262.973 209.385 263.415 203.032 263.869 196.68C264.09 193.635 265.147 193.187 270.763 193.006C272.005 192.964 273.224 192.722 274.454 192.577C283.469 191.525 286.934 192.824 286.898 197.779C286.808 209.631 286.384 221.484 286.056 233.34C285.9 238.915 285.494 244.494 285.494 250.068C285.494 258.111 285.9 266.149 285.858 274.192C285.817 281.457 285.255 288.722 285.207 295.991C285.177 300.56 285.984 305.129 285.852 309.692C285.691 315.174 284.723 320.65 284.484 326.136C284.186 333.02 284.216 339.907 284.198 346.795C284.18 353.143 284.311 359.49 284.329 365.838C284.341 371.24 284.293 376.647 284.269 382.049H286.814C286.844 379.492 286.904 376.935 286.904 374.383C286.922 359.914 286.862 345.44 286.97 330.97C287.041 320.99 287.31 311.015 287.561 301.035C287.77 292.829 288.26 284.619 288.296 276.413C288.338 267.132 287.716 257.846 287.907 248.569C288.194 234.928 288.953 221.293 289.491 207.657C289.646 203.782 289.67 199.903 289.891 196.028C290.04 193.43 291.145 192.931 295.805 193.071C298.893 193.164 301.976 193.295 305.07 193.364C310.727 193.49 312.741 194.291 312.758 197.365C312.776 201.696 312.101 206.027 311.719 210.358C309.993 229.88 308.189 249.398 306.57 268.92C305.309 284.102 304.329 299.293 303.105 314.475C302.49 322.136 301.42 329.788 300.883 337.453C299.945 350.851 299.264 364.25 298.445 377.652C298.356 379.119 298.057 380.586 297.854 382.053H299.55C299.64 379.664 299.622 377.271 299.837 374.882C300.733 364.818 301.773 354.759 302.621 344.695C303.953 328.898 305.064 313.097 306.468 297.305C308.183 278.02 310.04 258.74 311.952 239.464C313.332 225.531 315.035 211.601 316.265 197.663C316.546 194.45 322.514 193.83 324.252 191.395C324.324 191.292 325.56 191.441 326.253 191.46C327.807 191.511 329.384 191.683 330.901 191.581C335.023 191.292 335.985 192.414 335.955 194.426C335.805 204.42 335.943 214.419 335.716 224.418C335.471 235.18 334.832 245.938 334.569 256.695C334.396 263.737 334.742 270.783 334.569 277.82C334.312 288.112 333.547 298.399 333.452 308.691C333.35 319.989 333.738 331.292 333.966 342.59C334.067 347.54 334.318 352.486 334.473 357.436C334.73 365.642 334.957 373.843 335.202 382.049H336.899C336.821 374.397 336.749 366.741 336.654 359.09C336.504 346.702 336.403 334.314 336.152 321.927C336.032 316.045 335.244 310.168 335.399 304.29C335.656 294.692 336.534 285.094 336.97 275.496C337.394 266.061 337.693 256.626 337.86 247.19C338.058 235.888 337.974 224.585 338.171 213.287C338.285 206.856 338.637 200.425 339.097 193.998C339.157 193.16 340.178 191.884 341.361 191.618C344.121 190.999 347.263 190.924 350.214 190.528C353.022 190.151 354.043 190.645 354.037 192.247C354.037 193.625 354.008 195.19 355.119 196.345C358.339 199.693 358.016 203.242 358.01 206.795C357.998 210.437 357.717 214.084 357.688 217.725C357.431 249.356 357.239 280.982 356.959 312.612C356.839 326.556 356.308 340.499 356.457 354.442C356.552 363.644 357.532 372.846 358.118 382.049H359.814C359.372 372.078 358.625 362.107 358.56 352.132C358.452 336.331 358.751 320.529 358.972 304.723C359.145 292.392 359.521 280.064 359.725 267.733C360.095 245.472 360.394 223.211 360.752 200.951C360.764 200.168 361.063 199.386 361.224 198.608C361.708 198.576 362.192 198.548 362.676 198.515C363.201 199.479 363.846 200.425 364.229 201.402C364.701 202.604 365.525 203.195 368.136 203.256C371.636 203.335 375.155 203.782 378.548 204.304C379.534 204.458 380.495 205.356 380.788 206.004C381.224 206.963 381.147 208.006 381.129 209.012C380.92 220.324 380.633 231.641 380.46 242.953C380.328 251.703 380.382 260.454 380.268 269.2C380.119 281.052 379.988 292.904 379.665 304.756C379.211 321.614 378.464 338.478 378.112 355.336C377.927 364.236 378.327 373.14 378.464 382.044H381.009C380.967 379.65 380.878 377.257 380.89 374.863C380.932 364.492 380.86 354.121 381.087 343.749C381.409 328.949 382.108 314.154 382.353 299.358C382.539 288.135 382.031 276.912 382.252 265.693C382.622 246.776 383.339 227.864 383.895 208.947C384.026 204.458 384.564 204.118 392.604 203.726C393.166 203.698 393.727 203.643 394.295 203.643C404.97 203.629 405.329 203.656 405.364 209.501C405.442 220.976 405.096 232.451 405.024 243.926C404.934 258.167 405.024 272.408 404.869 286.645C404.761 296.718 404.48 306.791 404.05 316.86C403.931 319.705 402.611 322.537 402.515 325.382C402.282 332.503 402.425 339.628 402.473 346.748C402.473 347.098 403.005 347.447 403.292 347.796C403.704 347.792 404.116 347.782 404.522 347.778C404.731 346.371 405.119 344.969 405.113 343.563C405.072 337.751 404.576 331.934 404.881 326.132C405.209 319.798 406.661 313.479 406.858 307.145C407.3 292.899 407.258 278.644 407.437 264.394C407.575 253.547 407.79 242.701 407.885 231.855C407.957 223.793 407.963 215.728 407.861 207.666C407.838 205.617 408.877 204.118 412.921 203.4C413.202 204.993 413.781 206.516 413.662 208.02C413.471 210.391 415.693 212.095 418.74 213.292C423.525 215.169 425.765 217.516 425.663 220.687C425.502 225.647 425.454 230.607 425.371 235.571C425.012 257.054 424.648 278.537 424.307 300.02C424.17 308.621 424.158 317.223 423.955 325.82C423.698 336.745 423.16 347.666 423.023 358.591C422.927 366.41 423.286 374.23 423.441 382.049H425.986C426.111 378.505 426.315 374.961 426.35 371.417C426.464 360.268 426.446 349.119 426.607 337.965C426.775 326.425 427.049 314.88 427.336 303.34C427.844 283.036 428.435 262.731 428.895 242.426C429.074 234.598 428.925 226.765 429.045 218.932C429.086 216.296 429.636 216.114 434.373 216.808C437.235 217.227 440.048 217.749 442.85 218.275C446.142 218.89 448.125 220.045 449.003 222.019C450.909 226.294 452.432 230.728 458.119 234.132C461.482 236.144 462.976 238.458 463.03 241.108C463.167 247.386 463.382 253.659 463.352 259.937C463.292 274.592 463.083 289.248 462.976 303.904C462.791 329.951 462.635 356.002 462.468 382.049H465.013L464.995 382.044Z" fill="white"/>
<path d="M166.311 382.044C166.209 379.59 166.084 377.136 166.012 374.681C165.636 362.447 165.2 350.218 164.925 337.984C164.65 325.675 164.28 313.367 164.405 301.058C164.638 278.76 165.403 256.467 165.564 234.169C165.648 222.625 164.889 211.084 164.608 199.54C164.56 197.453 164.937 195.358 165.241 193.271C165.325 192.671 165.492 191.814 166.203 191.553C169.889 190.202 169.752 188.19 169.746 186.165C169.722 173.921 169.781 161.683 169.656 149.439C169.572 141.476 169.25 133.508 168.969 125.544C168.939 124.71 168.449 123.882 168.181 123.053C167.374 120.552 166.514 118.056 165.779 115.545C164.519 111.247 163.575 106.916 162.033 102.65C161.203 100.35 161.896 98.659 164.937 96.9452C167.918 95.264 171.155 93.4012 172.565 91.273C175.206 87.2865 169.859 84.8462 162.834 84.5529C162.117 84.5249 160.642 85.433 160.582 85.95C160.295 88.3949 160.391 90.8492 160.307 93.3034C160.295 93.5875 160.158 93.974 159.805 94.1277C151.585 97.7555 149.847 102.925 148.634 108.211C148.216 110.041 147.989 111.885 147.768 113.184C146.131 108.052 144.345 102.454 142.559 96.8567C142.027 95.1942 141.699 93.5037 140.904 91.8784C140.552 91.1519 139.184 90.5884 138.473 89.8898C137.905 89.3356 137.332 88.6976 137.29 88.0829C137.141 85.8382 137.332 83.5842 137.159 81.3395C137.009 79.3975 137.869 77.856 140.372 76.3192C145.456 73.1944 144.375 69.981 138.497 68.7935C135.826 68.2532 134.978 68.5466 134.996 70.1487C135.068 75.5508 134.93 80.9576 134.877 86.3598C134.865 87.361 134.877 88.3623 134.877 89.5033C128.156 89.8758 127.565 92.8331 126.471 95.3525C125.366 97.8953 125.08 100.55 124.207 103.153C124.207 100.908 124.566 98.645 124.124 96.4283C123.443 92.9821 122.182 89.5731 121.25 86.1409C120.856 84.6926 120.456 83.2209 120.462 81.7633C120.468 79.9051 119.703 78.4009 116.316 77.6092C115.832 77.4975 115.277 77.3158 115.032 77.0783C113.628 75.7371 115.42 69.7109 117.32 68.4395C119.267 67.1402 121.663 65.8549 122.624 64.332C124.93 60.6669 120.39 58.711 114.357 58.0963C113.914 58.0497 112.666 58.8507 112.66 59.2605C112.57 64.7372 112.678 70.2139 112.588 75.6905C112.576 76.2401 111.561 77.2646 111.053 77.2553C106.382 77.1808 106.77 79.2671 105.999 80.7434C105.396 81.8937 105.366 83.1371 105.217 83.7425C103.604 77.0364 102.003 69.7947 100.025 62.5856C99.5535 60.8579 98.1616 59.1348 96.6024 57.5886C94.631 55.6327 94.6131 53.8164 97.3432 52.1399C98.1914 51.6183 99.0636 51.1014 99.7566 50.5239C104.088 46.9287 100.957 43.6967 92.6716 43.4313V51.6975C92.3371 51.5811 92.0085 51.4646 91.674 51.3529C89.9356 52.5544 87.7612 53.6348 86.5306 54.9761C81.5544 60.3782 80.9092 66.2321 80.8734 72.1652C80.4074 66.5348 79.9116 60.9091 79.4934 55.2788C79.3023 52.6755 77.0143 51.0828 72.7848 50.8779C71.7036 47.8089 71.6498 45.0752 76.8769 42.742C79.5352 41.5545 81.5185 39.5566 82.558 37.7171C84.9893 33.4047 79.6248 31.6583 73.3822 30.6943C72.9222 30.6244 71.5064 31.337 71.4706 31.7142C71.2854 33.8611 71.381 36.0173 70.3953 37.7823C68.7704 38.6671 66.9245 39.4635 65.5864 40.4647C64.0332 41.629 62.9281 42.9702 61.5302 44.3301C57.5098 42.1552 62.038 37.7916 54.0211 36.8742C54.0211 35.0719 54.0928 33.2231 54.0032 31.3742C53.8957 29.1714 54.3138 27.2434 57.4919 25.4784C60.67 23.7134 62.1574 21.18 59.8336 18.8188C57.7607 16.7139 53.7762 15.9874 48.8478 16.155C53.3222 19.1402 50.9625 22.4606 51.3628 25.5809C51.6973 28.1748 51.4285 30.7874 51.4285 33.1904C48.6208 34.0753 45.6996 34.9927 42.5036 35.9986C42.2288 35.3467 41.966 34.7645 41.739 34.1731C40.3292 30.5639 39.0747 26.9361 37.4319 23.3641C37.0077 22.442 35.3948 21.6829 34.3076 20.854C33.9909 20.6118 33.2801 20.3743 33.3159 20.1647C33.8894 16.7791 31.3087 13.2537 35.2215 9.98912C36.715 8.74569 37.6529 7.18092 38.0591 5.69533C38.543 3.90703 34.893 1.77877 31.6731 1.75548C31.1414 1.75548 30.1199 2.57978 30.1319 3.01754C30.1677 4.31685 30.8189 5.60685 30.8368 6.90616C30.8965 10.9205 30.777 14.9349 30.7293 18.9492C30.7173 19.8574 31.0459 20.7096 28.5548 21.0356C27.4974 21.1753 26.7208 22.3116 26.1115 23.0661C22.814 27.127 21.2428 31.4115 20.3766 35.8263C17.8796 48.5726 17.6287 61.3376 18.3396 74.1444C19.158 88.7768 19.2357 103.418 19.845 118.051C20.2034 126.643 21.1114 135.231 21.5236 143.823C21.8163 149.849 21.7805 155.88 21.6371 161.906C21.6192 162.619 20.2094 163.42 19.1162 163.993C18.1902 164.477 16.7924 164.691 15.9799 164.915C20.1855 165.143 24.5762 165.157 28.6802 165.753C29.875 165.925 30.8846 167.769 30.9144 168.854C31.0339 173.428 30.7233 178.006 30.6098 182.579C30.2752 195.982 29.9347 209.385 29.642 222.788C29.421 232.856 29.0506 242.929 29.1223 252.998C29.2298 269.027 29.7794 285.061 29.8989 301.091C29.9945 313.856 29.7018 326.625 29.636 339.395C29.5883 348.127 29.8332 356.863 29.5763 365.591C29.415 371.072 28.5488 376.549 28.0052 382.025H30.55C30.9144 369.489 31.3147 356.952 31.6253 344.411C31.8165 336.591 31.9539 328.772 31.9718 320.953C32.0076 308.961 31.9897 296.969 31.8643 284.978C31.7508 274.369 31.237 263.76 31.2788 253.151C31.3446 238.356 31.8165 223.561 32.0136 208.761C32.1331 199.46 31.93 190.156 32.145 180.856C32.2466 176.366 32.8679 171.872 33.4832 167.392C33.8536 164.686 37.9516 165.697 40.7234 165.45C43.5909 165.194 44.463 166.056 44.4809 167.467C44.5108 170.023 44.7737 172.575 44.696 175.132C44.3495 186.891 43.6625 198.65 43.6088 210.414C43.567 219.304 44.3973 228.19 44.6482 237.08C44.8633 244.671 44.8812 252.267 44.8513 259.858C44.7916 277.987 44.69 296.117 44.5228 314.242C44.469 320.362 44.2659 326.486 43.9314 332.6C43.4953 340.727 42.9636 348.858 42.2945 356.98C41.6016 365.33 40.6936 373.675 39.8751 382.021H42.42C43.1309 373.592 43.9792 365.167 44.5287 356.738C45.4427 342.655 46.3746 328.567 46.9063 314.48C47.3842 301.929 47.3066 289.369 47.5156 276.818C47.7546 262.493 48.0354 248.173 48.2922 233.848C48.4774 223.16 48.5252 212.472 48.8538 201.784C49.2062 190.398 49.7797 179.016 50.395 167.634C50.4368 166.857 51.6734 166.102 52.3544 165.334C53.6029 165.869 55.5146 166.274 55.9805 166.968C57.9578 169.912 59.4991 172.943 61.2315 175.938C61.5182 176.431 61.7512 177.214 62.3486 177.33C66.5123 178.145 64.7262 179.351 63.9197 180.921C63.2029 182.318 63.9854 184.022 64.6067 185.527C65.1204 186.775 67.1276 187.93 67.1456 189.136C67.3367 199.991 67.3307 210.847 67.1934 221.702C66.9843 238.566 66.6438 255.433 66.3212 272.296C66.13 282.519 66.0046 292.745 65.6103 302.968C65.001 319.016 64.2065 335.059 63.4597 351.103C62.9818 361.413 62.4502 371.724 61.9424 382.03H63.6389C64.2124 369.545 64.8875 357.064 65.3415 344.578C66.1121 323.198 66.7931 301.817 67.4204 280.437C67.7011 270.857 67.7609 261.273 67.9162 251.694C68.1492 237.359 68.3821 223.025 68.5972 208.691C68.6928 202.334 68.6808 195.972 68.9019 189.616C68.9437 188.428 69.2364 186.505 70.4491 186.211C74.3619 185.266 73.6152 183.729 72.8924 182.276C72.1158 180.707 73.3284 180.138 75.712 179.929C81.1302 179.449 86.5246 182.025 86.5485 185.056C86.6261 193.644 86.7277 202.231 86.7755 210.819C86.8352 221.982 86.9846 233.14 86.8472 244.303C86.662 258.87 86.1124 273.437 85.9511 288.005C85.8376 298.604 86.1542 309.199 86.1662 319.798C86.1662 323.817 85.981 327.836 85.6524 331.851C85.3059 336.088 84.6727 340.317 84.2486 344.55C84.2247 344.811 84.8937 345.091 85.2402 345.365C85.7301 345.337 86.2199 345.305 86.7098 345.277C89.8281 290.515 88.2152 235.725 88.6035 180.739C89.8281 181.233 91.5545 181.573 91.6621 182.029C92.0085 183.524 94.3025 183.217 95.7481 183.71C97.8509 184.428 100.001 185.205 101.656 186.193C103.132 187.077 103.52 188.652 105.187 189.266C108.102 190.347 108.753 191.739 108.932 193.416C109.118 195.12 109.548 196.825 109.494 198.524C108.98 214.885 108.675 231.249 107.738 247.605C106.513 268.92 104.798 290.226 103.215 311.532C102.678 318.727 101.776 325.908 101.256 333.103C100.706 340.755 100.545 348.416 99.9657 356.067C99.3145 364.725 98.3886 373.377 97.5761 382.03H98.4244C99.5654 371.291 100.886 360.557 101.788 349.808C102.684 339.143 103.09 328.465 103.849 317.796C104.583 307.494 105.497 297.198 106.352 286.901C107.821 269.158 109.637 251.419 110.671 233.666C111.477 219.798 111.28 205.91 111.692 192.033C111.722 191.022 113.054 190.016 113.628 189.224V181.978C114.213 181.922 114.799 181.862 115.384 181.806C121.531 187.25 119.213 193.7 120.635 199.703C121.131 199.698 121.627 199.689 122.117 199.684V184.73C122.708 184.665 123.305 184.595 123.897 184.53C124.864 185.368 126.525 186.169 126.663 187.045C127.087 189.727 127.033 192.438 126.973 195.134C126.716 206.292 126.173 217.451 126.125 228.609C126.029 252.113 126.215 275.617 126.209 299.121C126.209 316.25 126.023 333.378 126.119 350.507C126.131 352.258 128.24 354.018 128.168 355.76C127.804 364.52 127.039 373.275 126.418 382.03H128.114C128.604 372.269 128.885 362.508 129.632 352.751C130.408 342.608 131.746 332.484 132.654 322.346C134.303 303.918 135.91 285.485 137.356 267.048C138.694 250.008 139.847 232.963 140.982 215.918C141.43 209.189 141.555 202.45 141.961 195.721C142.009 194.962 142.648 194.058 143.58 193.513C144.859 192.764 146.675 192.289 148.264 191.697C154.052 190.971 154.202 190.985 154.674 194.38C155.038 197.006 155.277 199.647 155.307 202.278C155.534 223.994 155.671 245.705 155.886 267.421C156.215 299.815 156.597 332.214 156.938 364.608C156.998 370.415 156.962 376.218 156.968 382.025H158.664C158.676 373.894 158.676 365.763 158.706 357.632C158.748 344.928 158.837 332.223 158.861 319.519C158.885 308.048 158.975 296.574 158.802 285.103C158.479 263.551 157.912 241.998 157.601 220.445C157.469 211.452 157.691 202.455 157.929 193.462C157.947 192.722 159.327 191.995 160.074 191.259C160.809 192 162.141 192.726 162.183 193.476C162.738 203.778 163.491 214.084 163.443 224.39C163.39 236.163 162.535 247.931 162.117 259.704C161.795 268.836 161.603 277.969 161.388 287.096C161.323 289.961 161.197 292.834 161.364 295.698C161.842 304.123 162.691 312.543 162.941 320.967C163.163 328.549 162.601 336.135 162.709 343.717C162.834 352.467 163.36 361.213 163.64 369.959C163.772 373.978 163.73 378.002 163.766 382.025H166.311V382.044ZM129.393 346.786C128.819 346.353 128.532 346.236 128.532 346.124C128.58 335.744 128.682 325.368 128.718 314.987C128.795 294.818 128.867 274.648 128.885 254.483C128.897 243.316 128.67 232.148 128.783 220.981C128.873 212.225 129.285 203.47 129.661 194.72C129.703 193.732 130.462 192.754 131.125 191.222C136.059 194.203 141.006 196.173 140.086 200.289C139.231 204.122 139.584 208.034 139.363 211.909C138.539 226.322 137.828 240.736 136.836 255.145C135.486 274.672 133.975 294.194 132.415 313.716C131.543 324.623 130.432 335.52 129.393 346.795V346.786Z" fill="white"/>
<path d="M496.393 382.044C496.082 377.49 495.628 372.931 495.503 368.376C495.33 362.336 495.389 356.296 495.383 350.26C495.383 338.562 495.192 326.859 495.473 315.16C496.028 292.21 496.847 269.26 497.558 246.311C497.707 241.57 498.4 241.039 508 238.915C505.61 238.743 504.147 238.524 502.701 238.552C499.075 238.626 498.203 237.453 497.922 235.776C497.116 230.998 496.166 226.225 495.306 221.451C495.013 219.835 494.637 218.21 494.655 216.589C494.756 208.011 494.852 199.433 495.174 190.859C495.503 182.113 496.25 173.367 496.465 164.621C496.548 161.227 495.3 157.818 495.324 154.418C495.359 149.644 496.076 144.88 496.387 140.107C496.56 137.406 496.656 134.695 496.518 131.994C496.082 123.668 495.706 115.331 494.923 107.014C494.481 102.329 493.239 97.6627 492.432 92.987C491.924 90.0484 491.608 87.1005 491.106 84.162C490.628 81.3817 489.899 78.6341 485.634 76.6734C485.311 76.5244 484.786 76.3475 484.786 76.1845C484.798 73.9444 484.822 71.7044 484.983 69.469C485.138 67.3454 484.738 65.2078 488.728 63.657C490.903 62.8095 492.928 61.3518 493.597 59.964C494.314 58.4877 494.069 56.5923 492.952 55.1906C491.291 53.1089 486.966 53.202 483.418 52.89C482.928 52.8481 481.763 53.4162 481.751 53.7096C481.673 55.2884 481.829 56.8764 481.972 58.4551C482.121 60.0478 482.48 61.6405 482.528 63.2333C482.593 65.3895 482.08 67.5689 482.468 69.7019C483.191 73.6836 480.61 77.1718 478.041 80.7297C476.667 82.6298 475.252 84.637 474.965 86.6441C473.716 95.3528 472.928 104.08 471.864 112.798C471.327 117.204 470.353 121.591 469.959 126.001C469.517 130.951 469.481 135.911 469.332 140.866C469.182 145.737 469.063 150.608 469.021 155.48C468.967 161.674 468.848 167.867 469.033 174.057C469.302 182.961 469.714 191.865 470.246 200.769C470.956 212.542 471.846 224.311 472.659 236.084C472.677 236.317 472.557 236.591 472.743 236.773C478.364 242.203 475.61 248.108 475.718 253.804C476.034 270.606 475.867 287.413 475.945 304.216C476.004 316.767 476.052 329.317 476.309 341.868C476.578 354.959 477.086 368.05 477.504 381.146C477.516 381.453 477.653 381.756 477.731 382.058H479.427C479.499 381.518 479.642 380.973 479.63 380.433C479.326 364.874 478.985 349.319 478.698 333.76C478.412 318.35 478.035 302.94 477.97 287.525C477.91 273.265 478.191 259.006 478.37 244.75C478.394 242.934 478.74 241.123 478.973 238.929C483.364 239.772 486.918 240.741 490.658 241.095C494.959 241.5 495.664 242.757 495.61 244.82C495.037 267.221 494.457 289.621 494.117 312.021C493.908 325.727 494.063 339.437 494.129 353.143C494.159 359.779 494.439 366.42 494.439 373.056C494.439 376.055 494.051 379.055 493.842 382.058H496.387L496.393 382.044Z" fill="white"/>
<path d="M4.23543 382.044C4.18763 375.301 4.27724 368.558 4.06816 361.814C3.73363 350.973 3.19598 340.136 2.75392 329.294C2.19238 315.593 1.39189 301.892 1.15294 288.186C0.991647 278.9 1.43372 269.61 1.96539 260.323C2.22226 255.843 3.42897 251.377 3.98454 246.897C4.64763 241.565 5.07176 236.223 5.59745 230.886C6.23665 224.394 6.83402 217.907 7.53296 211.415C8.22592 204.998 8.89499 198.576 9.79704 192.168C11.1352 182.677 13.0528 173.209 14.0205 163.713C15.1137 153.053 15.5857 142.365 16.0337 131.692C16.4877 120.924 16.7685 110.148 16.7744 99.3764C16.7744 90.2393 16.1352 81.1069 16.0636 71.9698C16.0098 64.8445 16.6311 57.7193 16.4877 50.5987C16.3802 45.3362 15.0002 40.0691 15.1794 34.816C15.3348 30.2102 12.7063 26.0747 10.1375 21.8787C9.55809 20.9287 8.02879 20.1649 7.16857 19.2522C6.55924 18.6048 6.02159 17.8457 6.00367 17.1286C5.92003 13.9478 5.92602 10.7671 6.14705 7.59096C6.20679 6.7201 6.87585 5.79335 7.67036 5.02028C10.2391 2.52411 9.59991 1.46231 3.3991 0C3.3991 2.73833 3.38118 5.22985 3.40508 7.72601C3.423 9.12312 3.39311 10.5202 3.59622 11.908C4.11594 15.5126 3.53649 18.9821 0 22.1488V163.685C1.62487 163.918 3.23184 164.221 4.88061 164.37C9.74328 164.808 10.9082 165.613 10.6692 168.342C10.5258 169.958 10.6752 171.584 10.5019 173.2C9.35497 183.911 8.24384 194.622 6.93558 205.329C6.36209 210.023 5.10162 214.699 4.58788 219.393C3.72168 227.333 3.35728 235.292 2.46718 243.232C1.98928 247.456 0.848286 251.661 0.00597964 255.871V318.262C0.209089 318.704 0.573485 319.146 0.59738 319.594C1.14697 328.637 1.86981 337.686 2.13265 346.735C2.46719 358.503 2.43133 370.276 2.55081 382.049H4.24737L4.23543 382.044Z" fill="white"/>
</svg>
