<svg width="60" height="223" viewBox="0 0 60 223" fill="none" xmlns="http://www.w3.org/2000/svg">
<path d="M2.71715 50.2668C2.80633 49.8996 2.83011 49.4909 2.88362 49.1059C2.7766 49.0052 2.66364 48.9105 2.55662 48.8098M1.0167 167.876C1.99178 169.096 2.88362 170.482 3.82898 171.761C4.58407 172.774 5.357 173.751 6.13588 174.723C7.91956 176.961 9.7746 179.076 11.4691 181.469C12.5631 183.008 13.449 184.916 14.3765 186.728C14.5549 187.077 14.5251 187.759 14.4954 188.274C13.9365 197.448 13.3598 206.617 12.8128 215.791C12.7593 216.721 12.8842 217.675 12.9258 218.616C13.0268 218.634 13.1279 218.652 13.229 218.676C13.4193 217.657 13.6392 216.644 13.7998 215.614C15.0067 207.736 16.2315 199.865 17.3909 191.97C17.9082 188.422 18.2947 184.821 18.699 181.232C18.7763 180.539 18.6574 179.792 18.6276 179.07C18.1876 178.839 17.7358 178.661 17.3374 178.324C17.278 178.27 17.4742 177.471 17.5515 177.015C17.4742 176.505 17.3077 175.984 17.3434 175.498C17.3731 175.09 17.6347 174.717 17.7893 174.332C17.926 174.622 18.0568 174.918 18.1936 175.208C18.3363 175.51 18.5206 175.777 18.6276 176.103C18.7287 176.422 18.7584 176.801 18.8179 177.157C20.2924 177.021 20.5302 179.076 20.9583 180.468C21.7907 183.174 22.1474 184.175 23.2236 184.833C22.8728 185.158 22.6052 185.407 22.3436 185.65C22.4447 185.68 22.5458 185.709 22.6469 185.739C22.3971 187.735 22.3199 189.843 21.862 191.715C20.3816 197.798 18.7525 203.792 17.1888 209.827C17.0342 210.413 16.9212 211.029 16.8856 211.693C18.2174 209.483 19.3173 207.144 20.007 204.248C20.5064 202.157 21.4518 200.333 22.2247 198.408C22.8847 196.749 23.61 195.144 24.2462 193.468C24.6386 192.444 25.1024 192.307 25.5305 193.172C26.6245 195.369 27.6769 197.626 28.6817 199.924C31.8507 207.15 34.99 214.399 38.1471 221.637C38.2422 221.856 38.4146 221.986 38.5514 222.164C38.6525 222.075 38.7535 221.986 38.8606 221.898C36.5893 213.28 34.3122 204.668 31.9755 195.802C33.2182 195.559 34.1516 195.381 35.0851 195.198C35.1386 195.008 35.1921 194.824 35.2456 194.635C31.8745 194.635 30.4475 191.318 29.5378 187.024C30.4594 185.763 31.2858 186.645 32.1242 187.101C32.4869 187.303 32.8495 187.693 33.2182 187.693C35.8937 187.729 37.4812 190.525 39.0924 193.302C40.0081 194.878 40.9177 196.465 41.8274 198.041C41.9998 197.833 42.1782 197.626 42.3506 197.419C41.4945 195.144 40.6442 192.864 39.6097 190.098C44.4732 191.816 49.0395 193.421 53.6116 195.032C53.6533 194.824 53.6949 194.617 53.7365 194.41C52.6128 193.735 51.495 193.054 50.3653 192.396C46.1142 189.926 41.8572 187.486 37.6239 184.969C37.1423 184.685 36.6726 184.092 36.3515 183.453C34.3003 179.419 32.2906 175.333 30.2751 171.258C30.1086 170.92 29.96 170.559 29.8113 170.197C28.6995 167.479 29.0384 166.519 31.0064 165.791C36.0602 163.931 41.0842 161.9 46.1202 159.921C46.2629 159.868 46.3877 159.69 46.5245 159.246C46.2153 159.246 45.9061 159.187 45.6029 159.252C40.5015 160.395 35.4062 161.544 30.3048 162.711C28.093 163.22 26.1369 162.622 24.5495 159.874C21.321 154.277 18.0568 148.733 14.8105 143.166C13.5857 141.063 12.9912 138.499 12.6107 135.762C12.5393 135.259 12.3669 134.696 12.1291 134.359C10.8508 132.564 10.7675 129.934 12.0101 128.021C12.5928 127.121 13.2528 126.339 13.8711 125.504C14.6084 124.693 15.3516 123.875 16.0948 123.058C15.851 122.786 15.5716 122.229 15.3754 122.294C14.5727 122.549 14.5073 121.986 14.6262 120.896C15.7916 122.466 15.3337 119.759 16.0353 119.901C16.2256 120.227 16.4813 120.665 16.7369 121.103C17.1234 119.765 18.2293 118.847 17.7239 116.957C17.7001 116.863 18.0152 116.413 18.2114 116.324C18.7941 116.069 19.3946 115.909 20.12 115.666C20.2508 115.885 20.4886 116.27 20.9286 117.005C21.0594 113.801 23.0868 114.02 23.9014 112.581C23.6517 111.349 23.4674 110.436 23.283 109.518C23.8538 109.584 24.4187 109.649 25.0311 109.726C25.0073 109.406 24.9775 108.968 24.9835 109.062C25.9645 108.144 26.7612 107.392 27.5936 106.604C27.6174 106.652 27.8849 107.588 28.0455 107.54C28.4557 107.428 28.8184 106.877 29.413 106.302C28.8303 106.113 28.4795 106 28.1228 105.888C28.4022 104.04 28.7649 103.756 30.0254 104.241C29.74 103.323 29.4308 102.328 29.1216 101.333C29.2346 101.179 29.3416 101.025 29.4546 100.865C29.9243 101.416 30.4416 101.884 30.8399 102.53C31.3631 103.388 31.7853 103.963 32.6593 103.406C33.0279 103.175 33.6641 104.01 34.2705 104.425V103.323C34.5559 103.507 34.8592 103.566 35.0435 103.833C37.4455 107.232 40.7037 106.527 43.4684 108.186C43.6408 108.287 43.9203 107.931 44.1522 107.789C44.0035 107.351 43.9322 106.681 43.7003 106.504C42.3031 105.408 40.8583 104.46 39.4492 103.394C37.9271 102.239 36.4229 101.007 34.9127 99.811C34.9365 99.6215 34.9602 99.4319 34.984 99.2483C35.7213 98.7212 36.4585 98.1941 37.0828 97.7498C37.7725 97.5189 38.3314 97.2938 38.9022 97.1457C39.2232 97.0628 39.58 96.968 39.8773 97.0983C43.5576 98.7271 47.232 100.403 50.9183 102.032C51.1977 102.156 51.5128 102.05 51.8815 101.754C48.5757 99.1417 45.264 96.5297 41.5539 93.598C45.6445 88.8064 49.4854 84.3051 53.3263 79.8038C53.2311 79.5609 53.136 79.3181 53.0409 79.0693C49.2535 81.8234 45.4661 84.5835 41.5539 87.4323C41.7442 86.9822 41.8928 86.6328 42.2079 85.8806C41.6253 86.1767 41.2269 86.2655 40.9118 86.5735C40.2518 87.2191 39.5681 87.8765 39.0092 88.7235C38.046 90.1924 37.1423 90.2575 35.9769 89.2032C32.6296 86.1826 29.2227 83.316 25.8456 80.3842C25.6078 80.1769 25.37 79.9518 25.144 79.709C23.5149 78.0092 23.3187 77.2451 23.6933 74.568C24.3235 74.0468 24.8943 73.804 25.257 73.2413C29.6805 66.4064 34.1041 59.5715 38.4681 52.6418C40.3648 49.6271 42.1188 46.3992 43.9322 43.2542C44.1462 42.8811 44.3067 42.4309 44.3008 41.7083C43.1057 43.0232 41.8869 44.2966 40.7156 45.6707C36.6785 50.4089 32.6771 55.2064 28.6282 59.9269C27.766 60.9278 26.898 61.9288 25.6375 61.5852C25.2689 61.4846 24.6624 62.5151 24.3414 63.2259C23.8419 64.3393 23.6636 65.9089 23.0571 66.7795C21.4696 69.048 19.7632 71.1209 18.0271 73.111C16.1424 75.2728 14.1744 77.251 12.248 79.3122C12.135 79.1878 12.028 79.0634 11.915 78.945C13.2171 75.2669 14.5192 71.5829 15.8213 67.9167C15.7499 67.8693 15.6072 67.7686 15.4646 67.668C17.1412 67.5732 16.8677 64.594 17.9736 63.3799C18.0925 64.0669 18.1639 64.4874 18.2293 64.8902C18.3244 64.9316 18.4255 65.0264 18.4671 64.9849C19.3411 64.1084 20.2329 63.6641 21.3269 63.7056C21.9512 63.7293 22.5636 62.5862 23.2355 62.2131C24.1333 61.7215 25.0727 61.295 26.0061 61.1647C26.8385 61.0463 27.1417 60.4421 27.2666 59.3524C27.1596 59.2102 27.0942 59.0503 27.0466 59.0681C24.8705 59.8262 24.163 57.3564 23.396 54.9872C23.2414 54.5075 23.0393 54.0574 22.629 53.7079C22.8252 54.9458 23.0809 56.1718 23.1879 57.4334C23.2295 57.9072 22.9739 58.8548 22.7777 58.9081C21.5231 59.2398 20.2508 59.3879 18.806 59.6189C18.8892 58.6238 18.9011 57.9605 19.0022 57.3327C19.3768 54.9517 19.8821 52.7188 20.8275 50.6577C21.755 48.6439 22.7063 46.3696 22.9977 44.0123C23.2236 42.1703 24.0857 41.2641 24.4305 39.7597C24.597 39.0372 24.7576 38.3146 24.9478 37.4795C25.6256 36.4607 26.4104 35.2939 26.9515 34.4825C26.9099 33.4993 26.7315 32.759 26.8861 32.2852C28.0098 28.7729 29.2822 25.3792 30.3524 21.8314C31.8209 16.9451 33.1349 11.9463 34.55 7.02444C35.0019 5.46082 35.5845 3.99197 36.0542 2.44019C36.2564 1.77684 36.3099 1.0128 36.4347 0.290217C36.3277 0.195452 36.2267 0.0947648 36.1196 0C35.8878 0.331677 35.6202 0.621894 35.4299 1.00095C32.6831 6.444 29.9302 11.8752 27.225 17.3716C26.3153 19.2136 25.5721 21.251 24.704 23.1404C23.1106 26.6171 21.4637 30.0345 19.8821 33.529C19.1865 35.0689 18.6336 36.7746 17.9558 38.3442C17.4563 39.511 16.9034 39.9256 16.2494 38.4449C15.2267 36.1172 14.0019 33.985 13.1339 31.533C12.6344 30.1233 12.6344 28.2517 12.4561 26.5815C12.3193 25.3081 12.2539 24.0169 12.1588 22.7376C12.022 22.7258 11.8853 22.7199 11.7485 22.708C11.5523 23.9518 11.3502 25.1956 11.1183 26.6644C10.5475 25.5036 10.054 24.4967 9.56055 23.4898C9.45353 23.5787 9.35246 23.6734 9.24544 23.7623C9.5011 24.8165 9.67352 25.9419 10.0303 26.9073C10.8329 29.1165 11.0351 31.3138 10.4881 33.7718C10.1967 35.063 10.1432 36.52 10.0957 37.9059C9.84 44.5927 9.62001 51.2855 9.40002 57.9783C9.34651 59.6426 8.94221 60.5547 7.76498 60.5784C6.96826 60.5961 6.1775 61.0285 5.10134 61.3661C6.19533 62.7343 7.06934 63.8359 7.94335 64.9316C7.21203 67.4192 6.51045 69.9305 5.73752 72.3766C4.62569 75.871 3.49008 76.2086 1.61721 73.7033M1.7599 176.819C1.85503 176.671 1.95016 176.529 2.04529 176.381L1.7599 176.819ZM1.27831 78.6014C2.23555 79.3892 2.92524 81.0831 4.22733 80.8047C4.90514 80.6626 5.49375 80.6981 5.67807 79.2885C5.7613 78.6666 6.27263 78.2046 6.54613 77.6183C7.27149 76.0606 8.04442 74.5384 8.65087 72.8682C8.97194 71.9857 9.00761 70.8307 9.10274 69.7883C9.12058 69.6106 8.78168 69.356 8.43683 68.9236C8.35359 67.6857 9.13247 67.739 10.1908 67.6383C9.61406 67.0283 9.28111 66.6788 8.93032 66.3057C9.53083 65.8378 10.1611 65.3521 10.8567 64.8132C10.8151 65.2337 10.7675 65.672 10.7199 66.128C11.2372 66.513 11.7545 66.898 12.5334 67.4725C11.8853 67.9641 11.4334 68.3017 10.8389 68.7459C11.2015 69.0361 11.5167 69.279 11.8853 69.5751C11.7426 70.3984 11.588 71.3164 11.4275 72.2759C12.0696 72.1278 12.6463 71.9975 13.229 71.8672C13.2528 72.039 13.2766 72.2107 13.2944 72.3825C12.5928 72.9985 11.8912 73.6085 11.1897 74.2245C11.1243 74.0527 11.0588 73.8869 10.9934 73.7151C10.7378 74.3015 11.0291 76.0428 10.0838 74.8464C9.79243 76.5344 9.54866 78.0565 9.25733 79.555C9.18003 79.94 8.98383 80.2954 8.78762 80.5797C8.17523 81.4858 7.77687 82.4453 8.39521 83.7247C7.08718 84.3762 6.83746 85.539 7.64606 87.2132C6.95043 87.9476 6.778 89.4402 5.64834 89.7067C5.13107 89.8251 4.76244 91.5605 4.33436 92.5674C4.25112 92.7628 4.18572 92.9761 4.11437 93.1834C3.98951 93.213 3.8706 93.2367 3.74574 93.2663C3.65656 92.4726 3.56737 91.679 3.47224 90.8439C1.34966 89.8074 1.17129 88.0602 3.02632 85.2764M6.14777 99.2187C7.22987 96.9325 8.13361 95.1853 8.91843 93.3137C9.47731 91.9751 10.0719 92.0462 10.8983 92.5556C11.5702 92.9702 12.3134 93.0827 13.0268 93.3255C12.9971 93.3729 12.9733 93.4203 12.9436 93.4736C14.2041 94.362 15.4586 95.2563 16.7191 96.1448C16.6894 95.9256 16.6656 95.7006 16.6358 95.4814C17.0223 95.0135 17.4028 94.5515 17.7239 94.1606C19.0141 95.9789 20.1913 97.5366 21.2794 99.2365C21.6064 99.7458 21.8204 100.664 21.8204 101.398C21.8204 102.601 21.5648 103.797 21.4637 105.005C21.3329 106.652 21.2259 108.138 20.1794 109.252C17.8547 111.734 15.6429 114.476 13.3598 117.058C13.0863 117.372 12.6047 117.609 12.3134 117.455C9.18598 115.82 6.16561 113.848 3.82303 109.98C3.35333 109.205 3.16307 108.541 3.54359 107.57C4.35219 105.515 4.86352 103.069 6.54613 102.227C6.7899 102.109 7.00394 101.86 7.26555 101.641C6.70666 100.847 5.62455 102.05 6.1121 100.036C5.75536 100.332 5.51753 100.528 5.32727 100.693C5.41646 99.8584 5.49375 99.1062 5.5651 98.3836C5.15485 98.3836 4.70893 98.5613 4.60785 98.3421C4.44732 98.0104 4.46516 97.3767 4.52462 96.9147C4.60785 96.2988 5.0181 95.6354 4.93486 95.1497C4.67326 93.675 5.10729 92.8695 5.46997 92.4726C6.53423 92.5733 7.27149 92.6444 8.0028 92.7155C7.90173 93.2248 7.80065 93.7342 7.68768 94.2791C7.21204 94.2791 6.78395 94.2139 6.36776 94.3087C6.14182 94.362 5.74941 94.7114 5.7613 94.8832C5.8386 96.2455 5.99318 97.5959 6.15372 99.2246L6.14777 99.2187ZM13.889 181.445C11.4215 175.635 8.9541 169.824 6.36181 163.706C7.07529 164.239 7.5985 164.636 8.12171 165.027C8.16928 164.92 8.21684 164.82 8.26441 164.713C6.59964 162.148 4.94081 159.59 3.27604 157.025L3.43062 156.765C4.2749 157.274 5.11918 157.789 5.96345 158.299C6.00507 158.151 6.04669 157.997 6.09426 157.848C5.46402 157.15 4.81001 156.504 4.2095 155.74C3.12145 154.354 2.03935 152.95 1.01076 151.464C0.546997 150.794 0.558888 150.001 1.27831 149.669C2.92524 148.911 4.57218 148.165 6.23101 147.49C6.52829 147.371 6.97421 147.448 7.20609 147.732C7.96713 148.662 8.88275 149.533 9.34651 150.783C11.0707 155.444 12.6761 160.224 14.2635 165.009C15.2208 167.899 16.0056 170.914 15.8213 174.29C15.6845 176.825 15.7975 179.532 13.889 181.445ZM14.3825 86.4255C14.9948 85.8213 15.3516 85.62 15.5656 85.229C16.3623 83.7484 17.0699 82.7829 18.5801 82.8659C20.3043 82.9606 21.8739 83.3989 23.3603 84.5183C26.5293 86.9052 29.6449 89.4461 32.7901 91.9159C33.3965 92.3956 34.0149 92.8399 34.6511 93.3137C33.3668 96.05 30.9172 97.3589 29.1454 96.2277C25.4591 93.8704 21.7966 91.4243 18.1282 88.9959C16.9569 88.2201 15.8035 87.4027 14.3825 86.4255ZM24.2938 36.9642C23.4376 37.2425 22.8728 37.4202 22.2069 37.6394C22.5398 38.3442 22.7479 38.7943 23.0631 39.4695C22.3199 39.967 21.7015 40.3816 21.101 40.7844C21.9334 42.4013 21.9274 42.3658 20.667 42.7626C20.4827 42.8218 20.2032 43.6629 20.2329 43.7043C20.8691 44.6757 20.4054 45.2561 20.0011 45.9728C19.5254 46.8138 19.6086 47.1218 20.1854 47.8621C20.3102 48.0161 20.3637 48.6854 20.2864 48.7861C19.8881 49.2777 19.4422 49.6923 18.9963 50.0713C18.7168 50.3082 18.4017 50.4504 18.0985 50.634C18.2412 50.9242 18.4255 51.1907 18.5087 51.5224C18.5682 51.7534 18.4849 52.0732 18.4552 52.3457C18.3482 53.3762 18.2352 54.4068 18.1282 55.4374C18.1876 55.4492 18.253 55.4611 18.3125 55.4729C17.9914 56.1244 17.6704 56.7819 17.2958 57.5459C17.1174 57.001 16.9628 56.5153 16.8023 56.0356C16.6894 56.083 16.5704 56.1303 16.4575 56.1777C16.5169 56.7226 16.505 57.309 16.6418 57.8006C17.2423 59.9624 16.951 61.3009 15.6191 62.4737C15.4527 62.6217 15.2802 63.0304 15.2802 63.3265C15.2565 66.1813 13.4312 66.7973 12.5334 68.586C12.9793 67.2297 13.4252 65.8793 13.9365 64.3216C13.7701 63.2555 12.8842 61.6859 14.5787 60.9219C14.2516 60.5428 14.0198 60.2704 13.6333 59.8143C14.0792 59.7314 14.3408 59.6781 14.6559 59.6189C13.9781 58.6357 13.9484 57.765 14.4954 56.8411C14.7095 56.4798 14.9116 56.1126 15.1019 55.7217C16.0472 53.7316 15.7678 52.5411 14.2814 52.1798C14.216 52.1621 14.1684 52.0377 14.1981 52.0792C14.5073 50.4089 14.8046 48.8157 15.1375 47.027C15.5597 48.028 15.9937 49.0704 16.4099 50.0595C17.0342 49.5975 16.398 46.6598 18.2412 48.2056C17.8547 47.1395 17.5693 46.3637 17.2304 45.4338C16.5229 47.9154 16.3861 47.9687 15.53 46.257C16.4099 46.2748 15.6251 43.1298 17.0104 44.2788C17.6228 42.579 18.2114 40.9502 18.7941 39.3155C18.8892 39.3748 18.9844 39.4399 19.0795 39.4991C19.1984 40.4823 19.3173 41.4714 19.4541 42.6145C19.9297 42.2236 20.2567 41.9512 20.3519 41.8801C20.5243 40.8495 20.7562 40.1388 20.7205 39.4636C20.6908 38.8417 20.3756 38.2553 20.0724 37.3077C21.208 35.9455 22.5339 34.3581 23.8598 32.7708C23.9846 32.9604 24.1095 33.144 24.2343 33.3335C23.7646 34.2575 23.3009 35.1755 22.8133 36.1409C23.1463 36.3304 23.5982 36.5792 24.276 36.9583L24.2938 36.9642ZM31.8685 181.771C31.8031 181.96 31.7377 182.156 31.6723 182.345C30.5129 181.297 29.1395 180.58 28.2417 179.135C26.7018 176.659 25.4116 173.775 24.1095 170.95C23.723 170.115 23.7825 168.794 23.4257 167.899C22.4625 165.483 21.3448 163.22 20.3756 160.804C19.8524 159.501 19.5195 158.02 19.0973 156.617L19.4838 156.16C19.9654 156.93 20.768 157.629 20.8513 158.494C20.988 159.886 21.4161 159.998 22.1712 159.951C21.9691 162.403 24.5138 162.788 23.723 165.761C24.3949 165.637 25.0311 165.513 25.6851 165.388C25.6018 166.129 25.5245 166.762 25.4651 167.295C25.8813 167.58 26.2142 167.722 26.4758 168.012C27.659 169.297 28.0693 171.4 28.6995 173.277C28.8184 173.639 28.9135 174.047 29.086 174.338C30.1383 176.067 31.2085 177.767 32.2669 179.484C32.3323 179.591 32.3263 179.798 32.3679 180.012C32.0469 179.988 31.7674 179.964 31.3572 179.935C31.5593 180.675 31.708 181.22 31.8566 181.765L31.8685 181.771ZM0 137.995C0.838332 136.71 1.55181 135.235 2.36041 133.909C2.91335 133.002 3.47819 133.056 3.84681 134.264C4.30463 135.756 4.79217 137.243 5.13701 138.801C5.24404 139.298 5.00621 140.489 4.79811 140.572M19.1033 170.085C16.6834 167.876 15.9461 164.826 16.505 158.974C16.9093 159.24 17.3672 159.347 17.6466 159.756C18.3957 160.857 19.1568 162 19.7632 163.292C21.0772 166.087 21.0178 166.389 19.3649 168.444C19.3351 168.48 19.3768 168.652 19.3887 168.806C19.7335 168.628 20.0724 168.45 20.4113 168.273C20.4351 168.355 20.4589 168.438 20.4827 168.521C20.0248 169.043 19.5611 169.564 19.1033 170.085ZM27.5936 29.2527C26.9693 29.8272 26.345 30.8163 26.018 30.6149C25.3402 30.1944 25.3283 30.8815 25.0667 31.3434C24.9002 31.6337 24.603 31.7521 24.3651 31.9476C24.2938 31.4974 24.0976 30.9762 24.1749 30.6031C24.4127 29.5015 24.7576 28.459 25.0905 27.2804C25.9348 27.9438 26.6245 28.4887 27.5936 29.2527ZM13.3717 49.562V40.0144C14.5549 43.0706 14.5787 47.6667 13.3717 49.562ZM25.9764 100.972C26.1072 101.244 26.2975 101.647 26.5472 102.174C25.4889 103.211 24.5019 104.176 23.509 105.142C23.9965 103.199 24.2284 100.966 25.9764 100.972Z" fill="white"/>
<path d="M11.5702 127.251C10.827 128.069 10.0897 128.88 9.34651 129.697C9.5665 130.302 9.70325 131.261 10.0243 131.456C13.4133 133.5 16.8261 135.431 20.2389 137.362C24.817 139.956 29.3357 142.716 33.6819 146.21C35.965 148.046 38.4027 149.397 40.7632 150.978C41.0129 151.144 41.2685 151.322 41.4945 151.553C44.6219 154.78 48.2368 156.267 51.6258 158.583C53.9862 160.2 56.3764 161.722 58.7487 163.286C58.9092 163.392 59.0876 163.446 59.3373 163.292C49.8243 152.518 39.8356 143.006 29.1454 134.601C34.6689 128.655 39.9486 122.987 45.2224 117.313C45.151 117.094 45.0797 116.88 45.0083 116.661C44.7467 116.768 44.4792 116.821 44.2354 116.981C38.9319 120.422 33.676 124.023 28.7054 128.59C26.5531 130.568 24.2165 130.58 21.8977 129.413C19.6324 128.276 17.379 127.044 15.1613 125.7C14.2695 125.161 13.5263 125.137 12.7712 126.031C12.3728 126.44 11.9745 126.843 11.5702 127.251ZM33.896 142.473C34.99 143.421 35.864 144.179 36.9045 145.079C34.2765 145.422 34.2468 145.399 33.896 142.473ZM19.7573 133.002C20.0665 134.11 20.5718 135.111 20.4232 135.531C20.0129 136.686 19.353 136.094 18.6811 135.496C18.9903 134.773 19.2638 134.145 19.7573 133.002ZM25.917 136.621C25.4948 137.397 25.1916 137.954 24.8349 138.617C24.597 137.776 24.4484 137.237 24.276 136.621H25.911H25.917Z" fill="white"/>
</svg>
