<svg width="52" height="528" viewBox="0 0 52 528" fill="none" xmlns="http://www.w3.org/2000/svg">
<path d="M26.7687 139.982C23.4943 140.782 23.1842 140.912 22.1183 136.743C20.2793 129.562 17.506 122.523 19.1496 113.793C18.4956 114.902 18.2323 115.353 17.9647 115.81C17.8628 115.739 17.7609 115.663 17.6589 115.592C20.0118 109.787 22.3646 103.981 24.7217 98.1758C24.8745 98.2628 25.0317 98.3552 25.1846 98.4422C24.1823 101.122 23.18 103.807 21.9739 107.031C26.2421 103.715 29.3721 106.134 32.3832 109.276C33.9291 110.89 35.4708 112.51 37.2715 113.717C34.9951 110.95 32.6083 108.319 30.4721 105.384C28.1744 102.231 26.9428 98.3389 27.4227 93.9848C27.9026 89.647 28.408 85.2386 29.457 81.0911C30.6717 76.2804 32.8079 71.9318 35.4623 68.1594C36.1418 67.1972 37.573 66.8439 38.6985 66.7026C42.3551 66.2351 46.0287 65.9959 49.6939 65.6643C50.3734 65.6045 51.0487 65.5284 51.7239 65.4578C51.7409 65.1697 51.7579 64.8816 51.7749 64.5989C48.7171 64.2565 45.655 63.9031 42.5972 63.5824C40.9876 63.4139 39.3567 63.4465 37.7769 63.0932C37.2545 62.9736 36.8001 61.9734 36.4263 61.2777C36.1248 60.7178 36.129 59.7611 35.7553 59.4132C33.7677 57.5541 34.4472 55.3309 34.9144 52.9337C36.3711 45.4758 38.5626 38.5452 42.8987 32.8865C41.5397 33.8758 40.1849 34.8706 38.3842 36.1806C38.9788 30.7829 38.4734 25.4993 43.2257 23.2706C42.2659 23.6348 41.3061 24.0044 40.032 24.4882C40.5841 20.9387 41.0768 17.7968 41.5652 14.6495C41.4293 14.606 41.2934 14.5625 41.1575 14.519C40.5374 17.351 39.8324 20.1613 39.3228 23.026C38.9363 25.2058 37.7896 25.6732 36.524 24.972C36.0314 24.7002 35.6704 22.8629 35.8615 21.9443C36.5622 18.5795 37.522 15.3017 38.4904 11.5782C37.1526 14.0896 36.0016 16.253 35.2032 17.7587C34.5364 12.2142 33.7974 6.09352 33.0627 4.38191e-07C32.8079 2.1417 32.5318 4.41386 32.26 6.68602C32.1199 7.84928 32.0222 9.02341 31.8353 10.1704C31.1006 14.6549 31.0242 14.6821 27.4227 14.557C25.346 14.4809 23.2692 14.5462 20.8272 14.5462C25.3375 16.6172 30.506 16.0084 33.1519 22.2269C32.6975 20.9821 32.2388 19.7374 31.7674 18.4436C31.9415 18.199 32.2515 17.7587 32.6083 17.2532C33.8951 17.0629 34.7445 25.6569 33.5002 29.8914C33.4195 27.9726 33.3685 26.706 33.326 25.6841C32.3407 30.0219 31.313 34.5607 30.2725 39.1486C27.3378 41.3229 24.0336 42.073 21.2221 40.1053C23.575 42.5677 26.2038 45.4595 28.9474 48.1557C30.9859 50.1615 31.1983 52.7543 30.8628 55.6734C29.164 70.4207 25.9066 84.6244 21.7275 98.502C21.5024 99.2521 21.1457 99.9316 20.8484 100.644C21.8082 99.0347 22.768 97.4257 23.7279 95.8112C22.3943 99.7359 20.8144 103.503 19.1793 107.226C19.0604 107.504 18.5296 107.482 18.1898 107.601C17.4551 109.613 16.8095 111.695 15.9134 113.575C15.7181 113.983 14.461 114.027 13.9598 113.651C11.7981 112.026 9.55144 110.461 7.69975 108.346C5.89054 106.286 4.52726 103.584 2.63311 101.475C4.17476 104.307 5.85232 107.036 7.2156 110.004C8.27734 112.32 8.94837 114.934 9.78077 117.419C9.8912 117.75 9.89969 118.152 10.0483 118.44C12.4436 123.17 10.936 126.817 8.29433 130.459C5.6697 134.079 3.32537 138.036 1.32929 141.119C4.73112 138.156 8.74027 134.666 12.7537 131.171C13.2421 129.067 13.7305 126.958 14.2444 124.735C16.525 126.697 17.9817 130.426 18.3767 134.764C17.3064 132.546 16.2192 130.296 15.2084 128.198C14.3081 129.285 13.5224 130.225 12.7409 131.171C15.3103 130.432 15.9899 130.867 16.9837 133.954C17.574 135.791 18.0199 137.732 18.7589 139.461C19.4087 140.977 20.3812 142.265 21.1669 143.586C20.9758 142.494 20.7507 141.206 20.4322 139.39C21.5024 140.488 22.2966 141.303 22.8105 141.825C21.9739 145.119 21.2561 147.93 20.5426 150.74C20.4025 150.696 20.2666 150.653 20.1264 150.609L19.7442 147.071C19.5616 147.06 19.3747 147.049 19.1921 147.033C18.899 150.066 18.6103 153.099 18.313 156.127C18.1601 157.692 18.0709 159.274 17.8246 160.812C16.7713 167.428 15.6671 174.032 14.5799 180.637C14.3633 181.958 14.2571 183.349 13.8536 184.572C13.4459 185.812 12.4097 186.79 12.1973 188.04C10.9657 195.308 7.09244 198.743 1.79221 200.428C3.67362 200.548 5.55504 200.668 7.43645 200.787C7.44919 200.733 7.45768 200.678 7.47043 200.624C7.15615 200.532 6.84187 200.439 6.51486 200.347C8.43874 199.205 9.00783 199.559 10.4433 201.271C12.3417 203.538 14.4737 205.489 16.6779 207.582C13.5733 204.326 14.9918 200.407 15.5652 196.667C18.6145 204.549 18.9797 214.159 24.2248 221.068C24.2757 221.019 23.953 221.318 23.6344 221.628C23.3584 221.9 23.0908 222.182 22.6916 222.59C22.4495 221.552 22.2329 220.622 22.0163 219.693C21.7912 219.725 21.5704 219.758 21.3453 219.791C21.5152 223.199 21.6851 226.607 21.8592 230.168C21.6256 230.092 21.2774 229.977 20.9886 229.88C20.0287 237.403 19.0052 244.964 18.1261 252.547C17.5995 257.097 16.6312 261.782 17.0261 266.24C17.9902 277.078 19.6338 287.814 21.0013 298.561C21.2434 298.419 21.5831 298.224 21.9654 298.001C21.6808 301.762 21.409 305.366 21.133 308.97L21.4303 309.237C21.8719 308.16 22.3179 307.079 22.7893 305.932C23.231 306.334 23.8935 306.937 24.5985 307.584C22.3773 308.829 21.4048 311.373 20.6403 313.988C18.8651 320.065 17.2088 326.202 15.5524 332.154C15.2594 330.186 14.6308 328.148 14.7625 326.196C14.8899 324.299 15.7903 322.484 16.3041 320.788C14.4015 322.967 12.3162 325.501 10.0908 327.8C9.47076 328.441 8.05226 328.99 7.62332 328.561C6.20058 327.142 4.70989 328.131 3.2914 327.838C2.46324 327.669 1.59686 327.805 0.675262 327.805C2.46749 328.583 4.38287 328.958 5.88206 330.175C7.94609 331.855 9.94642 333.921 11.4116 336.378C11.7811 337.003 11.6495 339.416 12.3205 340.656C15.51 346.548 14.9663 353.691 16.4358 360.148C16.7501 361.534 16.7501 363.062 17.179 364.372C18.9458 369.808 18.0497 375.765 19.655 381.408C19.8376 380.223 20.0245 379.043 20.2071 377.858L20.5511 377.679C21.2519 380.429 21.9484 383.185 22.7808 386.457C22.5217 386.767 21.9272 387.49 21.3283 388.213C21.1627 388.099 20.9971 387.985 20.8314 387.871C20.9461 386.708 21.065 385.55 21.1797 384.386C21.0862 384.348 20.9971 384.316 20.9036 384.278C19.4172 388.191 18.0624 392.209 16.3509 395.954C15.9432 396.851 14.015 397.628 13.361 397.155C10.0059 394.725 6.80791 391.92 3.61842 389.132C2.36981 388.039 1.27833 386.648 -6.06502e-06 385.272C3.2277 390.219 6.26853 395.062 9.475 399.726C11.4541 402.607 11.9425 405.412 10.3966 408.848C9.81901 410.136 9.92519 411.924 9.3476 413.212C7.57236 417.181 5.623 421.024 3.73309 424.905C3.41032 425.568 3.05357 426.209 3.0196 427.172C4.13655 425.4 5.10487 423.41 6.41293 421.91C8.59164 419.415 10.885 417.028 13.3398 415.006C14.4737 414.071 15.8667 413.691 16.576 416.653C17.162 419.11 19.001 421.035 20.0967 423.345C21.5067 426.318 22.7256 429.433 23.609 432.787C22.7128 430.727 21.8167 428.666 21.3411 427.574C23.4476 436.021 26 445.381 28.0768 454.91C29.3976 460.988 30.0389 467.309 30.9265 473.539C31.2917 476.099 30.7354 478.203 29.1258 480.067C26.378 483.242 24.0464 487.074 20.084 488.324C23.7746 486.666 27.2826 486.46 30.3871 489.368C31.3172 493.543 32.311 498.016 33.3898 502.859L33.3898 499.217C35.1055 503.3 33.772 507.127 33.0967 511.377C31.6952 509.872 30.6335 509.806 29.0876 510.638C26.5181 512.024 23.6854 512.628 20.9631 513.546C20.5002 513.704 20.0203 513.796 19.5786 514.215C22.8403 514.03 26.0977 513.753 29.3594 513.737C29.9539 513.737 30.9392 514.666 31.0752 515.378C31.7886 519.047 32.2855 522.787 32.8504 526.511C32.9523 527.196 32.999 527.891 33.0118 528C33.755 522.999 34.5747 517.503 35.3943 512.013L35.9974 511.937C36.7406 513.41 37.4838 514.883 38.2228 516.351C38.2865 516.313 38.346 516.275 38.4097 516.237C37.6028 513.226 36.7066 510.241 36.0271 507.181C35.7426 505.904 34.821 504.05 36.592 503.316C38.2993 502.615 39.1444 503.778 39.5012 505.963C39.9301 508.589 40.5926 511.149 41.5609 513.611C41.0895 510.486 40.6139 507.36 40.066 503.746C41.4293 504.36 42.3849 504.789 43.3404 505.219C38.4309 503.088 39.1019 497.57 38.312 491.982C40.1297 493.401 41.4548 494.434 42.7756 495.467C42.8478 495.38 42.92 495.287 42.9879 495.2C42.4868 494.412 42.0324 493.559 41.4718 492.847C37.0464 487.232 35.8955 479.763 34.46 472.479C34.3241 471.783 34.8592 470.799 35.199 470.033C35.5048 469.342 36.0186 468.81 36.3626 468.136C36.8298 467.222 37.0889 465.608 37.6665 465.407C39.2761 464.858 41.0046 464.831 42.6906 464.722C43.3149 464.678 43.9775 465.2 44.5805 465.086C47.0693 464.608 49.5368 463.988 52 462.944C48.4368 462.629 44.8693 461.944 41.3189 462.086C36.6684 462.27 34.3453 459.199 32.1836 454.356C30.0389 449.551 28.6799 444.582 27.8305 439.299C26.8027 432.917 27.2061 426.9 31.1643 422.078C33.4365 419.311 35.7638 416.61 37.8278 413.506C35.8275 415.572 33.9206 417.817 31.7886 419.638C30.1875 421.002 28.3656 422.268 26.5181 422.725C25.1039 423.073 23.49 422.089 22.114 421.736C23.4136 424.296 23.953 428.123 26.4969 430.814C26.5266 430.705 26.395 431.199 26.1359 432.162C25.5286 431.265 24.934 430.634 24.5943 429.83C22.7808 425.535 20.9461 421.252 19.294 416.854C18.1134 413.723 18.3087 410.109 18.7377 406.956C19.4597 401.651 20.8144 396.443 22.2372 391.35C23.3711 387.3 24.6665 386.838 27.5544 389.099C30.0814 391.078 32.5149 393.279 34.838 395.628C37.8788 398.699 40.7752 402.009 43.9945 404.945C43.5358 404.26 43.1026 403.542 42.6142 402.89C38.6687 397.579 34.7106 392.279 30.7566 386.974C30.7099 386.909 30.6759 386.822 30.6292 386.756C29.7076 385.425 28.0343 384.109 28.0173 382.761C27.9833 380.261 28.4378 377.266 29.5845 375.358C30.7694 373.39 32.982 372.39 34.8125 371.129C36.6769 369.846 38.6433 368.797 40.5374 367.574C41.2127 367.139 41.8073 366.492 42.7756 365.655C39.1529 366.329 35.9252 367.014 32.6805 367.503C30.6462 367.807 28.5694 368.079 26.5479 367.862C25.4097 367.737 23.9615 366.948 23.3159 365.834C22.2372 363.964 21.3538 361.681 20.9843 359.414C19.9735 353.223 19.1284 346.966 18.5168 340.688C18.2917 338.372 18.5466 335.769 19.1709 333.573C21.1245 326.686 23.3499 319.923 25.4904 313.129C25.8556 311.971 26.3185 310.867 27.0108 309.008C30.4381 314.672 33.6063 319.907 36.902 325.359C36.7279 324.718 36.6684 324.234 36.4858 323.848C33.1774 316.863 31.5381 309.117 30.4041 301.197C30.1153 299.191 30.6207 297.001 30.8076 294.223C32.0902 295.288 32.9013 296.011 33.7592 296.642C34.0905 296.887 34.5619 297.142 34.8974 297.033C39.8324 295.403 44.7419 296.495 49.6599 297.126C49.9063 297.158 50.1611 297.088 50.4923 297.055C44.6103 294.141 38.8386 291.282 33.0712 288.423C32.8164 288.684 32.5701 289.151 32.3068 289.168C31.0836 289.249 29.852 289.206 28.2254 289.206C27.5459 287.282 26.7899 285.14 26.034 282.993C23.1333 272.953 20.8781 262.864 24.3097 252.221C25.0742 249.851 25.6305 247.366 26.2803 244.937C26.9938 242.893 27.7073 240.844 28.2721 239.218C29.801 239.218 30.8118 239.18 31.8226 239.235C32.3747 239.267 32.9226 239.457 33.4747 239.577C39.5224 236.701 45.5701 233.826 51.244 231.13C48.3519 231.45 45.0604 231.967 41.7563 232.119C39.7262 232.217 37.6792 231.766 35.6449 231.559C34.4133 231.434 33.067 230.793 32.4766 233.081C32.3875 233.424 31.6485 233.489 30.7524 233.88C30.523 229.635 30.3149 225.727 30.0941 221.661C30.5315 221.862 30.8118 221.992 30.9095 222.036C32.5701 216.317 34.2264 210.621 35.9209 204.799C33.0033 209.544 30.1281 214.219 26.9386 219.399C25.9236 216.426 25.0954 214.154 24.3649 211.833C22.5982 206.212 20.7507 200.63 19.2091 194.906C18.589 192.606 18.3215 189.932 18.5423 187.529C19.0859 181.615 19.8886 175.723 20.8357 169.89C21.2349 167.428 22.0036 164.9 23.1205 162.862C23.7958 161.622 25.4904 160.551 26.6668 160.638C31.5211 160.997 36.3541 161.823 41.1957 162.487C41.6671 162.552 42.1343 162.671 42.7713 162.247C39.2973 160.089 35.8487 157.866 32.345 155.79C27.4694 152.898 26.8579 145.413 30.7906 140.716C35.5642 135.02 39.9853 128.828 44.3172 123.164C38.6178 128.638 32.672 134.34 26.722 140.048C27.3548 139.917 27.9918 139.787 28.7775 139.629C26.2166 143.673 25.2865 144.021 23.7321 142.081C24.7047 141.407 25.7494 140.678 26.7984 139.955L26.7687 139.982ZM33.445 480.181C34.9017 486.884 36.2352 492.994 37.7004 499.739C34.0693 496.081 31.7292 485.34 33.445 480.181ZM37.6622 28.8314C36.2012 35.5501 34.8889 41.5838 33.4449 48.2263C31.7164 43.0732 34.0735 32.2505 37.6622 28.8314ZM17.3404 395.753C17.7269 399.025 16.4358 402.004 14.2741 403.412C13.8154 401.656 13.361 399.922 12.9066 398.188C13.2463 397.78 13.5818 397.367 13.9216 396.959C14.3675 397.981 14.8177 399.003 15.2679 400.031C15.7818 398.971 16.4401 397.606 17.3404 395.747L17.3404 395.753ZM19.4851 252.487C19.7102 252.541 19.9353 252.601 20.1646 252.656C19.7442 254.705 19.2473 256.738 18.933 258.814C18.7886 259.749 18.7037 261.184 19.1156 261.673C20.0712 262.815 20.7465 265.158 20.1604 266.642C16.147 262.163 18.9203 257.27 19.4894 252.487L19.4851 252.487ZM21.8125 254.607C21.9271 254.623 22.0418 254.634 22.1565 254.65L22.1565 270.675C22.0418 270.675 21.9271 270.67 21.8125 270.664L21.8125 254.607ZM27.4312 158.497C27.4864 158.192 27.5416 157.888 27.5969 157.589C30.247 158.415 32.8928 159.241 35.543 160.068C35.5132 160.236 35.4793 160.41 35.4495 160.579C32.7782 159.888 30.1026 159.193 27.4312 158.502L27.4312 158.497ZM28.9474 388.953C26.9513 388.007 25.2525 387.208 23.6047 386.425C25.3247 384.359 25.949 384.609 28.9474 388.953ZM33.9928 368.079C34.0268 368.297 34.0608 368.519 34.0947 368.737C31.9543 369.433 29.818 370.128 27.6776 370.824C27.6266 370.525 27.5714 370.232 27.5204 369.933C29.6779 369.313 31.8354 368.693 33.9928 368.074L33.9928 368.079Z" fill="white"/>
</svg>
