<svg width="83" height="78" viewBox="0 0 83 78" fill="none" xmlns="http://www.w3.org/2000/svg">
<path d="M82.4522 30.2108C81.8294 32.4535 81.4608 34.7975 80.5203 36.9009C76.4022 46.1124 72.0807 55.2478 67.8863 64.4213C66.323 67.8424 63.6665 69.9077 60.1458 70.8706C52.6595 72.9106 45.1605 74.8999 37.636 76.7371C36.5683 77.0032 35.0304 76.6104 34.1026 75.9642C24.0234 68.9193 13.9696 61.8365 4.03021 54.6143C0.267985 51.8775 -0.570872 49.356 1.3865 45.124C6.41974 34.3034 11.7072 23.5841 17.198 12.9788C18.2148 11.0276 20.4518 9.2537 22.5363 8.3921C29.1837 5.62992 36.0218 3.33655 42.7963 0.878465C45.8087 -0.211203 48.2363 0.46033 50.7911 2.61433C55.2524 6.36481 60.1712 9.57045 64.8232 13.1309C69.7039 16.8687 74.5211 20.6825 79.2747 24.5724C80.9524 25.9535 82.5285 27.588 82.4649 30.1981L82.4522 30.2108ZM43.9657 43.3122C44.3216 43.0461 45.7832 42.4379 45.7705 41.8804C45.6816 39.0929 45.6943 36.1913 43.559 33.9106C41.8431 32.086 40.0891 32.4408 39.1485 34.7849C38.8181 35.6084 38.2588 36.5334 37.5343 36.9515C36.1362 37.7751 35.3227 38.9281 35.9582 40.3092C36.4158 41.3102 37.5852 42.2605 38.6401 42.6406C40.051 43.1474 41.6651 43.0714 43.953 43.3248L43.9657 43.3122ZM57.6673 39.7137C58.8239 39.6504 59.8153 39.6884 60.7559 39.511C61.2134 39.4223 61.8108 39.0042 61.9634 38.5987C62.5735 36.9389 60.8322 31.3765 59.4595 30.3248C57.6165 28.9057 55.837 29.5013 55.6591 31.7566C55.5701 33.0237 55.1761 33.4671 53.994 33.9359C53.1679 34.2654 52.1765 35.5578 52.2273 36.3687C52.2909 37.3316 53.1933 38.5734 54.083 39.0549C55.138 39.6377 56.5742 39.549 57.6673 39.7264L57.6673 39.7137ZM71.4325 29.2985C71.6358 29.5646 71.8392 29.8307 72.0426 30.0968C70.0216 30.0081 68.3566 30.5402 68.4837 32.7576C68.6235 34.9876 70.4029 35.5324 72.3095 35.6845C73.5169 35.7859 74.7244 35.8365 75.9446 35.9126C77.5842 36.0139 78.4104 35.431 78.0036 33.6318C77.6859 32.2127 77.508 30.7683 77.2537 29.3492C76.8851 27.3346 75.6014 25.9155 73.6441 26.2322C72.7543 26.3843 72.157 28.2215 71.4198 29.2985L71.4325 29.2985ZM35.8693 64.548C35.6659 59.1757 32.1325 57.009 28.2305 59.201C26.629 60.1007 26.4383 61.2283 28.1033 61.9759C30.5056 63.0656 33.1366 63.6738 35.8693 64.548ZM23.3751 12.3706C23.1464 12.1679 22.9176 11.9652 22.7015 11.7625C21.7864 12.2693 20.6298 13.4097 20.0197 13.1562C18.164 12.4213 17.6301 13.8278 17.3759 14.7401C16.8167 16.742 16.6896 18.8706 16.3845 20.9613C16.7404 21.1006 17.0963 21.2527 17.4522 21.3921C19.4223 18.3892 21.3924 15.3736 23.3751 12.3706ZM17.8081 30.6416C21.0492 28.4242 24.5953 22.5451 24.0234 20.9233C23.1972 21.3541 22.244 22.279 21.5703 22.1143C19.5494 21.6201 19.0537 23.0519 18.7359 24.2303C18.2275 26.1182 18.1512 28.1201 17.8081 30.6289L17.8081 30.6416ZM13.0291 33.7332C10.8302 34.2527 9.5846 34.4301 8.42797 34.8609C7.80517 35.1016 7.00442 35.6845 6.87732 36.2546C6.38162 38.4213 6.14012 40.6514 5.79694 42.856C6.15283 42.9827 6.50871 43.0967 6.8646 43.2235C8.83468 40.1952 10.7921 37.1669 13.0291 33.7205L13.0291 33.7332ZM21.6466 38.2566L22.549 38.5607C24.9766 35.7985 27.0611 32.8336 28.1923 29.2478C27.0992 29.5519 26.0697 30.5782 25.3834 30.3882C23.4896 29.856 22.9303 31.1864 22.6252 32.2381C22.066 34.1767 21.9516 36.2293 21.6466 38.2439L21.6466 38.2566ZM32.285 15.3229C32.5519 15.3989 32.8315 15.4749 33.0984 15.551C35.5896 12.9028 37.547 9.95059 38.6401 6.5042C37.5216 6.77028 36.5429 7.72055 35.9201 7.51783C34.039 6.90964 33.4162 8.24005 33.1366 9.30438C32.6155 11.243 32.5392 13.3083 32.285 15.3229Z" fill="white" stroke="#1D1D1B" stroke-width="0.728337" stroke-miterlimit="10"/>
<path d="M43.9656 43.3124C41.6777 43.059 40.0508 43.135 38.6527 42.6282C37.585 42.2481 36.4284 41.2978 35.9708 40.2968C35.3353 38.9157 36.1361 37.7627 37.5469 36.9391C38.2714 36.521 38.8433 35.5961 39.1611 34.7725C40.089 32.4411 41.8557 32.0737 43.5715 33.8982C45.7069 36.1789 45.6941 39.0804 45.7831 41.868C45.7958 42.4255 44.3342 43.0337 43.9783 43.2997L43.9656 43.3124Z" fill="black" stroke="#1D1D1B" stroke-width="0.728337" stroke-miterlimit="10"/>
<path d="M57.6665 39.7144C56.5734 39.537 55.1371 39.6257 54.0822 39.0429C53.1925 38.5614 52.29 37.3197 52.2265 36.3567C52.1756 35.5585 53.167 34.2534 53.9932 33.924C55.1752 33.4552 55.5692 33.0117 55.6582 31.7446C55.8235 29.4893 57.6156 28.8938 59.4586 30.3129C60.8186 31.3645 62.5726 36.9269 61.9625 38.5867C61.81 38.9922 61.2126 39.423 60.755 39.499C59.8145 39.6764 58.8231 39.6384 57.6665 39.7017L57.6665 39.7144Z" fill="black" stroke="#1D1D1B" stroke-width="0.728337" stroke-miterlimit="10"/>
<path d="M71.4331 29.2991C72.1703 28.2221 72.7677 26.3848 73.6574 26.2328C75.6021 25.9033 76.8985 27.3351 77.2671 29.3498C77.5213 30.7815 77.6993 32.2259 78.017 33.6324C78.4238 35.4316 77.5976 36.0145 75.9579 35.9131C74.7505 35.8371 73.5303 35.7864 72.3228 35.685C70.4163 35.533 68.6369 35.0008 68.4971 32.7581C68.37 30.5408 70.035 30.0086 72.0559 30.0973C71.8526 29.8312 71.6492 29.5651 71.4458 29.2991L71.4331 29.2991Z" fill="black" stroke="#1D1D1B" stroke-width="0.728337" stroke-miterlimit="10"/>
<path d="M35.8693 64.55C33.1366 63.6757 30.5056 63.0549 28.1034 61.9779C26.4383 61.2303 26.6163 60.1026 28.2305 59.203C32.1325 57.0237 35.6787 59.1904 35.8693 64.55Z" fill="black" stroke="#1D1D1B" stroke-width="0.728337" stroke-miterlimit="10"/>
<path d="M23.3754 12.3718C21.4053 15.3748 19.4352 18.3904 17.4524 21.3933C17.0965 21.2539 16.7407 21.1018 16.3848 20.9625C16.6898 18.8845 16.8169 16.7559 17.3762 14.7413C17.6304 13.829 18.1642 12.4225 20.0199 13.1574C20.63 13.3982 21.7866 12.2578 22.7017 11.7637C22.9305 11.9664 23.1593 12.1691 23.3754 12.3718Z" fill="black" stroke="#1D1D1B" stroke-width="0.728337" stroke-miterlimit="10"/>
<path d="M17.8086 30.6422C18.1518 28.1334 18.228 26.1315 18.7365 24.2436C19.0542 23.0652 19.5499 21.6334 21.5708 22.1276C22.2445 22.2923 23.1977 21.3673 24.0239 20.9365C24.5959 22.5584 21.0497 28.4248 17.8086 30.6549L17.8086 30.6422Z" fill="black" stroke="#1D1D1B" stroke-width="0.728337" stroke-miterlimit="10"/>
<path d="M13.029 33.7354C10.792 37.1817 8.8219 40.21 6.86453 43.2383C6.50864 43.1116 6.15276 42.9975 5.79688 42.8708C6.14005 40.6661 6.38155 38.4361 6.87725 36.2695C7.00435 35.6993 7.8051 35.1038 8.4279 34.8757C9.58453 34.4449 10.8428 34.2675 13.029 33.748L13.029 33.7354Z" fill="black" stroke="#1D1D1B" stroke-width="0.728337" stroke-miterlimit="10"/>
<path d="M21.6465 38.2588C21.9515 36.2442 22.0659 34.1915 22.6252 32.2529C22.9302 31.2013 23.4895 29.8709 25.3833 30.403C26.0696 30.5931 27.0992 29.5668 28.1922 29.2627C27.0737 32.8485 24.9765 35.8134 22.5489 38.5756L21.6465 38.2714L21.6465 38.2588Z" fill="black" stroke="#1D1D1B" stroke-width="0.728337" stroke-miterlimit="10"/>
<path d="M32.2852 15.3216C32.5394 13.307 32.6156 11.2417 33.1368 9.30311C33.4291 8.23879 34.0391 6.90837 35.9203 7.51656C36.5303 7.71929 37.5218 6.76901 38.6403 6.50293C37.5472 9.94932 35.6025 12.9142 33.0986 15.5497C32.8317 15.4737 32.5521 15.3977 32.2852 15.3216Z" fill="black" stroke="#1D1D1B" stroke-width="0.728337" stroke-miterlimit="10"/>
</svg>
