<svg width="84" height="86" viewBox="0 0 84 86" fill="none" xmlns="http://www.w3.org/2000/svg">
<path d="M72.2055 58.8525C71.7733 61.7668 69.7652 63.4646 67.3121 64.4783C66.7147 64.7317 64.859 63.566 64.6557 62.7677C64.4015 61.7794 65.0115 59.7015 65.6725 59.5114C67.6425 58.9285 69.816 59.0299 72.2055 58.8525Z" fill="black" stroke="#1D1D1B" stroke-width="0.728337" stroke-miterlimit="10"/>
<path d="M54.3103 67.6592C54.1832 70.4974 51.8954 73.8551 49.8617 73.8297C48.8449 73.8297 47.4722 72.4486 46.9765 71.3716C46.7223 70.8015 47.8281 69.167 48.6924 68.6982C49.4041 68.3054 50.7006 69.1416 51.6793 69.0149C52.5181 68.9136 53.2935 68.2167 54.3103 67.6592Z" fill="black" stroke="#1D1D1B" stroke-width="0.728337" stroke-miterlimit="10"/>
<path d="M41.0283 68.2275C40.2403 70.8883 38.6643 72.7002 36.2875 73.5745C35.6011 73.8279 34.0504 73.169 33.6818 72.4975C33.2116 71.6486 33.2116 70.1914 33.6437 69.3172C33.8852 68.823 35.4231 68.9751 36.3891 68.8357C37.7745 68.6456 39.1727 68.4683 41.0283 68.2148L41.0283 68.2275Z" fill="black" stroke="#1D1D1B" stroke-width="0.728337" stroke-miterlimit="10"/>
<path d="M67.5927 69.4316C66.0802 70.9647 64.7075 72.7133 62.9662 73.917C62.3561 74.3351 60.564 73.7269 59.8014 73.0427C59.2294 72.5359 59.4582 71.1548 59.3184 70.1665C60.3606 70.0398 61.4028 69.9131 62.4451 69.761C63.1695 69.6597 63.9195 69.5836 64.6058 69.3682C65.3176 69.1402 65.9785 68.7347 66.6649 68.4053C66.9699 68.7474 67.2877 69.0895 67.5927 69.4316Z" fill="black" stroke="#1D1D1B" stroke-width="0.728337" stroke-miterlimit="10"/>
<path d="M36.4778 77.2881C36.2871 79.3027 35.1941 80.9119 33.1604 81.406C32.1691 81.6468 30.8472 81.0006 29.8303 80.4684C29.3982 80.2403 29.1186 79.2013 29.2457 78.6438C29.3347 78.2384 30.199 77.8202 30.7582 77.7442C32.5122 77.5161 34.2916 77.4528 36.4778 77.2881Z" fill="black" stroke="#1D1D1B" stroke-width="0.728337" stroke-miterlimit="10"/>
<path d="M21.3776 61.2584C20.1956 59.7759 17.984 58.9016 20.5134 56.811C21.0472 56.3675 20.793 54.9991 20.9074 54.0361C23.0681 56.0001 23.3732 58.927 21.3776 61.2584Z" fill="black" stroke="#1D1D1B" stroke-width="0.728337" stroke-miterlimit="10"/>
<path d="M11.7943 44.3183C12.1629 46.0162 12.6459 47.7901 12.8747 49.5893C12.9382 50.1468 12.4172 51.1098 11.9469 51.2872C11.5147 51.4392 10.5869 50.9197 10.231 50.4382C9.79884 49.8554 9.35396 48.8544 9.57004 48.2716C10.053 46.9538 10.93 45.7881 11.7943 44.3057L11.7943 44.3183Z" fill="black" stroke="#1D1D1B" stroke-width="0.728337" stroke-miterlimit="10"/>
<path d="M4.41158 37.3486C4.61494 38.3116 4.89458 39.3126 5.02168 40.3389C5.05981 40.6556 4.76748 41.2005 4.50056 41.3018C4.25907 41.3905 3.72525 41.0991 3.52189 40.8204C3.28039 40.4909 3.02617 39.9207 3.14056 39.5913C3.40747 38.8437 3.91591 38.1849 4.3989 37.3486L4.41158 37.3486Z" fill="black" stroke="#1D1D1B" stroke-width="0.728337" stroke-miterlimit="10"/>
<path d="M46.8118 28.2907C49.087 24.895 51.3494 24.3755 52.506 27.0363C53.1161 28.4555 52.6713 30.318 52.6967 31.9779C52.6967 32.6747 52.7729 33.397 52.6585 34.0685C52.4043 35.4623 52.2264 36.9194 51.6036 38.1484C51.4765 38.4018 49.4301 38.0344 48.5404 37.5022C46.9008 36.5393 45.5027 35.1962 43.9393 34.0939C42.0582 32.7635 40.6982 30.9642 41.6896 28.8102C42.8208 26.3268 45.0197 27.4545 46.8118 28.2907Z" fill="black" stroke="#1D1D1B" stroke-width="0.728337" stroke-miterlimit="10"/>
<path d="M81.7393 43.6353C76.4646 31.1674 71.1772 18.7123 65.9152 6.24444C63.5002 0.517342 62.1275 -0.508977 56.0647 0.973479C42.0962 4.4072 28.1658 8.04368 14.3117 11.9335C11.8968 12.6178 9.49453 14.6197 7.88033 16.647C3.68596 21.9179 2.27515 28.4939 0.43217 34.7912C0.139835 35.7922 0.864311 37.0846 1.2202 38.263L1.2202 38.2883L1.28373 38.491C1.28373 38.5037 1.28374 38.5291 1.29645 38.5417L4.00374 46.6255C4.02916 46.9423 4.06727 47.2591 4.14353 47.5505C4.93156 50.9208 6.05008 54.2405 7.25755 57.4969C10.0665 65.1245 12.7483 72.8156 15.9767 80.2532C18.1756 85.3087 19.9805 86.1703 25.4077 84.8019C38.728 81.4442 51.9721 77.7824 65.1907 74.0446C67.3895 73.4238 69.868 72.2201 71.2153 70.4969C74.8631 65.8214 77.8755 60.6645 81.2945 55.8243C84.167 51.7824 83.4806 47.7532 81.7393 43.6099L81.7393 43.6353ZM4.49941 41.3039C4.25792 41.3926 3.72411 41.1012 3.52074 40.8224C3.27925 40.493 3.02502 39.9228 3.13941 39.5934C3.40633 38.8458 3.91476 38.1869 4.39775 37.3507C4.60111 38.3136 4.88071 39.3146 5.00781 40.3409C5.04595 40.6577 4.75361 41.2025 4.48669 41.3039L4.49941 41.3039ZM11.9476 51.2883C11.5155 51.4403 10.5876 50.9208 10.2317 50.4394C9.79958 49.8565 9.3547 48.8555 9.57078 48.2727C10.0538 46.955 10.9308 45.7893 11.7951 44.3068C12.1637 46.0047 12.6467 47.7786 12.8754 49.5778C12.939 50.1353 12.4179 51.0982 11.9476 51.2756L11.9476 51.2883ZM21.3786 61.26C20.1965 59.7776 17.985 58.9033 20.5143 56.8126C21.0481 56.3692 20.7939 55.0008 20.9083 54.0378C23.069 56.0017 23.3741 58.9286 21.3786 61.26ZM33.161 81.4189C32.1696 81.6596 30.8477 81.0134 29.8309 80.4812C29.3987 80.2532 29.1191 79.2142 29.2462 78.6567C29.3352 78.2512 30.1995 77.8331 30.7587 77.7571C32.5127 77.529 34.2922 77.4657 36.4783 77.301C36.2877 79.3156 35.1946 80.9247 33.161 81.4189ZM36.2877 73.5885C35.6013 73.8419 34.0506 73.183 33.682 72.5115C33.2118 71.6626 33.2118 70.2054 33.6439 69.3312C33.8854 68.837 35.4234 68.9891 36.3893 68.8497C37.7747 68.6596 39.1729 68.4822 41.0285 68.2288C40.2405 70.8897 38.6645 72.7015 36.2877 73.5758L36.2877 73.5885ZM43.7104 33.5622C42.7826 32.4852 41.9945 30.4832 42.3885 29.2922C42.9351 27.6323 44.651 28.0885 46.0618 29.0008C46.3796 29.2162 47.5235 28.7981 47.7777 28.3673C48.5657 27.0495 49.5571 25.3516 50.9807 26.7581C51.9975 27.759 52.061 29.9004 52.15 31.5602C52.1881 32.2825 51.2221 33.0427 50.5231 34.0563C52.9507 34.8672 52.1627 36.4131 51.3238 37.5027C51.0061 37.9209 49.3665 37.7815 48.6674 37.3633C46.888 36.2863 45.0323 35.1206 43.7104 33.5622ZM49.8622 73.8292C48.8453 73.8292 47.4727 72.4481 46.977 71.3711C46.7227 70.8009 47.8285 69.1664 48.6928 68.6976C49.4046 68.3049 50.701 69.1411 51.6797 69.0144C52.5186 68.913 53.2939 68.2161 54.3107 67.6586C54.1836 70.4968 51.8958 73.8545 49.8622 73.8292ZM62.9664 73.9306C62.3563 74.3487 60.5642 73.7405 59.8016 73.0563C59.2296 72.5495 59.4584 71.1684 59.3186 70.1801C60.3608 70.0534 61.403 69.9267 62.4453 69.7746C63.1697 69.6733 63.9197 69.5973 64.606 69.3819C65.3178 69.1538 65.9787 68.7483 66.6651 68.4189C66.9701 68.761 67.2879 69.1031 67.5929 69.4452C66.0804 70.9783 64.7077 72.7269 62.9664 73.9306ZM67.3133 64.4784C66.7159 64.7318 64.8602 63.5661 64.6569 62.7678C64.4027 61.7795 65.0127 59.7015 65.6737 59.5115C67.6437 58.9286 69.8172 59.03 72.2067 58.8526C71.7745 61.7669 69.7664 63.4647 67.3133 64.4784Z" fill="white" stroke="#1D1D1B" stroke-width="0.728337" stroke-miterlimit="10"/>
<path d="M46.7357 28.3532C49.0108 24.9575 51.2732 24.438 52.4298 27.0988C53.0399 28.518 52.5951 30.3805 52.6205 32.0404C52.6205 32.7372 52.6968 33.4595 52.5824 34.131C52.3282 35.5248 52.1502 36.9819 51.5274 38.2109C51.4003 38.4643 49.354 38.0969 48.4642 37.5647C46.8246 36.6017 45.4265 35.2587 43.8632 34.1563C41.982 32.8259 40.6221 31.0267 41.6135 28.8727C42.7447 26.3893 44.9435 27.517 46.7357 28.3532Z" fill="black" stroke="#1D1D1B" stroke-width="0.728337" stroke-miterlimit="10"/>
</svg>
