<svg width="83" height="78" viewBox="0 0 83 78" fill="none" xmlns="http://www.w3.org/2000/svg">
<path d="M0.378836 46.9747C1.00164 44.7321 1.37021 42.388 2.31077 40.2847C6.42888 31.0732 10.7504 21.9377 14.9447 12.7642C16.5081 9.34319 19.1645 7.27789 22.6852 6.31493C30.1716 4.27497 37.6706 2.28569 45.195 0.44845C46.2627 0.182367 47.8006 0.575182 48.7285 1.22138C58.8077 8.26621 68.8615 15.349 78.8008 22.5712C82.5631 25.3081 83.4019 27.8295 81.4446 32.0615C76.4113 42.8822 71.1239 53.6015 65.6331 64.2067C64.6162 66.158 62.3793 67.9319 60.2948 68.7934C53.6473 71.5556 46.8092 73.849 40.0347 76.3071C37.0224 77.3967 34.5947 76.7252 32.04 74.5712C27.5787 70.8207 22.6598 67.6151 18.0079 64.0547C13.1272 60.3169 8.31 56.503 3.55639 52.6132C1.87864 51.2321 0.302565 49.5976 0.36611 46.9874L0.378836 46.9747ZM38.8654 33.8734C38.5095 34.1395 37.0478 34.7477 37.0605 35.3052C37.1495 38.0927 37.1368 40.9943 39.2721 43.275C40.988 45.0995 42.742 44.7447 43.6825 42.4007C44.013 41.5771 44.5722 40.6521 45.2967 40.234C46.6948 39.4104 47.5083 38.2574 46.8728 36.8763C46.4152 35.8753 45.2459 34.925 44.1909 34.5449C42.7801 34.0381 41.1659 34.1141 38.8781 33.8607L38.8654 33.8734ZM25.1637 37.4718C24.0071 37.5352 23.0157 37.4972 22.0752 37.6746C21.6176 37.7633 21.0202 38.1814 20.8677 38.5868C20.2576 40.2467 21.9989 45.8091 23.3716 46.8607C25.2146 48.2798 26.994 47.6843 27.172 45.4289C27.261 44.1619 27.655 43.7184 28.837 43.2496C29.6632 42.9202 30.6546 41.6278 30.6037 40.8169C30.5402 39.8539 29.6377 38.6122 28.748 38.1307C27.6931 37.5478 26.2568 37.6365 25.1637 37.4591L25.1637 37.4718ZM11.3986 47.887C11.1952 47.6209 10.9919 47.3549 10.7885 47.0888C12.8094 47.1775 14.4744 46.6453 14.3473 44.428C14.2075 42.1979 12.4281 41.6531 10.5216 41.5011C9.31412 41.3997 8.10663 41.349 6.88646 41.273C5.24684 41.1716 4.42068 41.7545 4.82741 43.5537C5.14516 44.9728 5.3231 46.4172 5.57731 47.8363C5.94591 49.851 7.22963 51.2701 9.187 50.9533C10.0767 50.8013 10.6741 48.964 11.4113 47.887L11.3986 47.887ZM46.9617 12.6375C47.1651 18.0098 50.6986 20.1765 54.6006 17.9845C56.2021 17.0849 56.3927 15.9572 54.7277 15.2096C52.3255 14.12 49.6944 13.5118 46.9617 12.6375ZM59.4559 64.8149C59.6847 65.0176 59.9135 65.2203 60.1295 65.4231C61.0447 64.9163 62.2013 63.7759 62.8114 64.0293C64.6671 64.7642 65.2009 63.3578 65.4551 62.4455C66.0144 60.4435 66.1415 58.3149 66.4465 56.2243C66.0906 56.0849 65.7348 55.9328 65.3789 55.7934C63.4088 58.7964 61.4387 61.812 59.4559 64.8149ZM65.023 46.544C61.7819 48.7613 58.2357 54.6405 58.8077 56.2623C59.6338 55.8315 60.5871 54.9065 61.2607 55.0713C63.2817 55.5654 63.7774 54.1336 64.0951 52.9553C64.6035 51.0673 64.6798 49.0654 65.023 46.5566L65.023 46.544ZM69.802 43.4523C72.0009 42.9328 73.2465 42.7555 74.4031 42.3247C75.0259 42.0839 75.8266 41.5011 75.9537 40.9309C76.4494 38.7642 76.6909 36.5342 77.0341 34.3295C76.6782 34.2028 76.3223 34.0888 75.9665 33.9621C73.9964 36.9904 72.039 40.0186 69.802 43.465L69.802 43.4523ZM61.1845 38.9289L60.2821 38.6249C57.8544 41.387 55.7699 44.352 54.6387 47.9377C55.7318 47.6336 56.7613 46.6073 57.4477 46.7974C59.3415 47.3295 59.9008 45.9991 60.2058 44.9474C60.7651 43.0089 60.8794 40.9562 61.1845 38.9416L61.1845 38.9289ZM50.546 61.8627C50.2791 61.7866 49.9995 61.7106 49.7326 61.6346C47.2414 64.2827 45.284 67.235 44.1909 70.6814C45.3094 70.4153 46.2881 69.465 46.9109 69.6677C48.792 70.2759 49.4148 68.9455 49.6944 67.8812C50.2156 65.9426 50.2918 63.8773 50.546 61.8627Z" fill="white" stroke="#1D1D1B" stroke-width="0.728337" stroke-miterlimit="10"/>
<path d="M38.8655 33.8751C41.1533 34.1285 42.7802 34.0525 44.1784 34.5593C45.246 34.9394 46.4027 35.8897 46.8602 36.8907C47.4957 38.2718 46.695 39.4248 45.2842 40.2484C44.5597 40.6665 43.9877 41.5914 43.6699 42.415C42.7421 44.7464 40.9754 45.1138 39.2595 43.2893C37.1242 41.0086 37.1369 38.1071 37.0479 35.3195C37.0352 34.762 38.4969 34.1538 38.8528 33.8878L38.8655 33.8751Z" fill="black" stroke="#1D1D1B" stroke-width="0.728337" stroke-miterlimit="10"/>
<path d="M25.1636 37.4731C26.2567 37.6505 27.693 37.5618 28.7479 38.1446C29.6376 38.6261 30.54 39.8678 30.6036 40.8308C30.6544 41.629 29.6631 42.9341 28.8369 43.2635C27.6548 43.7323 27.2608 44.1758 27.1719 45.4429C27.0066 47.6982 25.2145 48.2937 23.3715 46.8746C22.0115 45.823 20.2575 40.2606 20.8676 38.6008C21.0201 38.1953 21.6175 37.7645 22.075 37.6885C23.0156 37.5111 24.007 37.5491 25.1636 37.4858L25.1636 37.4731Z" fill="black" stroke="#1D1D1B" stroke-width="0.728337" stroke-miterlimit="10"/>
<path d="M11.3979 47.8884C10.6607 48.9654 10.0634 50.8027 9.17365 50.9547C7.22899 51.2842 5.93255 49.8524 5.56396 47.8377C5.30975 46.406 5.13178 44.9616 4.81402 43.5551C4.40729 41.7559 5.23349 41.173 6.87311 41.2744C8.08058 41.3504 9.30074 41.4011 10.5082 41.5025C12.4147 41.6545 14.1942 42.1867 14.334 44.4294C14.4611 46.6467 12.796 47.1789 10.7751 47.0902C10.9785 47.3563 11.1819 47.6224 11.3852 47.8884L11.3979 47.8884Z" fill="black" stroke="#1D1D1B" stroke-width="0.728337" stroke-miterlimit="10"/>
<path d="M46.9617 12.6385C49.6944 13.5127 52.3254 14.1336 54.7277 15.2106C56.3927 15.9581 56.2148 17.0858 54.6006 17.9854C50.6985 20.1648 47.1524 17.9981 46.9617 12.6385Z" fill="black" stroke="#1D1D1B" stroke-width="0.728337" stroke-miterlimit="10"/>
<path d="M59.4557 64.8157C61.4258 61.8127 63.3958 58.7971 65.3786 55.7942C65.7345 55.9336 66.0904 56.0857 66.4463 56.225C66.1412 58.303 66.0141 60.4316 65.4549 62.4462C65.2007 63.3585 64.6668 64.765 62.8111 64.0301C62.2011 63.7893 61.0444 64.9297 60.1293 65.4238C59.9005 65.2211 59.6717 65.0184 59.4557 64.8157Z" fill="black" stroke="#1D1D1B" stroke-width="0.728337" stroke-miterlimit="10"/>
<path d="M65.0234 46.5443C64.6803 49.0531 64.604 51.0551 64.0956 52.943C63.7778 54.1213 63.2821 55.5531 61.2612 55.059C60.5875 54.8942 59.6343 55.8192 58.8081 56.25C58.2362 54.6282 61.7823 48.7617 65.0234 46.5317L65.0234 46.5443Z" fill="black" stroke="#1D1D1B" stroke-width="0.728337" stroke-miterlimit="10"/>
<path d="M69.8021 43.4531C72.0391 40.0067 74.0092 36.9785 75.9665 33.9502C76.3224 34.0769 76.6783 34.191 77.0342 34.3177C76.691 36.5223 76.4495 38.7523 75.9538 40.919C75.8267 41.4892 75.026 42.0847 74.4032 42.3128C73.2465 42.7436 71.9882 42.9209 69.8021 43.4404L69.8021 43.4531Z" fill="black" stroke="#1D1D1B" stroke-width="0.728337" stroke-miterlimit="10"/>
<path d="M61.1846 38.9297C60.8795 40.9443 60.7651 42.997 60.2059 44.9355C59.9009 45.9872 59.3416 47.3176 57.4478 46.7854C56.7614 46.5954 55.7319 47.6217 54.6388 47.9258C55.7573 44.34 57.8545 41.3751 60.2822 38.6129L61.1846 38.917L61.1846 38.9297Z" fill="black" stroke="#1D1D1B" stroke-width="0.728337" stroke-miterlimit="10"/>
<path d="M50.5459 61.8639C50.2917 63.8785 50.2154 65.9438 49.6943 67.8824C49.402 68.9468 48.7919 70.2772 46.9108 69.669C46.3007 69.4663 45.3093 70.4165 44.1908 70.6826C45.2839 67.2362 47.2286 64.2713 49.7325 61.6359C49.9994 61.7119 50.279 61.7879 50.5459 61.8639Z" fill="black" stroke="#1D1D1B" stroke-width="0.728337" stroke-miterlimit="10"/>
</svg>
