<svg width="84" height="86" viewBox="0 0 84 86" fill="none" xmlns="http://www.w3.org/2000/svg">
<path d="M11.4068 58.8525C11.839 61.7668 13.8471 63.4646 16.3002 64.4783C16.8976 64.7317 18.7533 63.566 18.9566 62.7677C19.2109 61.7794 18.6008 59.7015 17.9398 59.5114C15.9698 58.9285 13.7963 59.0299 11.4068 58.8525Z" fill="black" stroke="#1D1D1B" stroke-width="0.728337" stroke-miterlimit="10"/>
<path d="M29.302 67.6592C29.4291 70.4974 31.7169 73.8551 33.7506 73.8297C34.7674 73.8297 36.1401 72.4486 36.6358 71.3716C36.89 70.8015 35.7842 69.167 34.9199 68.6982C34.2082 68.3054 32.9117 69.1416 31.933 69.0149C31.0942 68.9136 30.3188 68.2167 29.302 67.6592Z" fill="black" stroke="#1D1D1B" stroke-width="0.728337" stroke-miterlimit="10"/>
<path d="M42.584 68.2285C43.372 70.8893 44.948 72.7012 47.3248 73.5755C48.0112 73.8289 49.5619 73.17 49.9305 72.4985C50.4007 71.6495 50.4007 70.1924 49.9686 69.3182C49.7271 68.824 48.1892 68.976 47.2232 68.8367C45.8378 68.6466 44.4397 68.4692 42.584 68.2158L42.584 68.2285Z" fill="black" stroke="#1D1D1B" stroke-width="0.728337" stroke-miterlimit="10"/>
<path d="M16.0196 69.4335C17.5321 70.9667 18.9048 72.7152 20.6461 73.9189C21.2562 74.3371 23.0483 73.7289 23.811 73.0447C24.3829 72.5378 24.1541 71.1568 24.2939 70.1685C23.2517 70.0417 22.2095 69.915 21.1672 69.763C20.4428 69.6616 19.6928 69.5856 19.0065 69.3702C18.2947 69.1421 17.6338 68.7367 16.9474 68.4072C16.6424 68.7493 16.3246 69.0914 16.0196 69.4335Z" fill="black" stroke="#1D1D1B" stroke-width="0.728337" stroke-miterlimit="10"/>
<path d="M47.1345 77.2891C47.3252 79.3037 48.4182 80.9128 50.4519 81.407C51.4433 81.6477 52.7651 81.0015 53.782 80.4694C54.2141 80.2413 54.4937 79.2023 54.3666 78.6448C54.2777 78.2394 53.4134 77.8212 52.8541 77.7452C51.1001 77.5171 49.3207 77.4538 47.1345 77.2891Z" fill="black" stroke="#1D1D1B" stroke-width="0.728337" stroke-miterlimit="10"/>
<path d="M62.2356 61.2613C63.4177 59.7788 65.6292 58.9046 63.0999 56.8139C62.5661 56.3704 62.8203 55.002 62.7059 54.0391C60.5452 56.003 60.2401 58.9299 62.2356 61.2613Z" fill="black" stroke="#1D1D1B" stroke-width="0.728337" stroke-miterlimit="10"/>
<path d="M71.817 44.3213C71.4484 46.0191 70.9654 47.793 70.7366 49.5922C70.6731 50.1497 71.1942 51.1127 71.6645 51.2901C72.0966 51.4421 73.0245 50.9226 73.3803 50.4411C73.8125 49.8583 74.2574 48.8573 74.0413 48.2745C73.5583 46.9567 72.6813 45.791 71.817 44.3086L71.817 44.3213Z" fill="black" stroke="#1D1D1B" stroke-width="0.728337" stroke-miterlimit="10"/>
<path d="M79.2007 37.3506C78.9974 38.3135 78.7177 39.3145 78.5906 40.3408C78.5525 40.6576 78.8448 41.2024 79.1117 41.3038C79.3532 41.3925 79.8871 41.1011 80.0904 40.8223C80.3319 40.4929 80.5861 39.9227 80.4717 39.5933C80.2048 38.8457 79.6964 38.1868 79.2134 37.3506L79.2007 37.3506Z" fill="black" stroke="#1D1D1B" stroke-width="0.728337" stroke-miterlimit="10"/>
<path d="M36.8005 28.2917C34.5253 24.896 32.2629 24.3765 31.1063 27.0373C30.4962 28.4564 30.941 30.319 30.9156 31.9788C30.9156 32.6757 30.8394 33.398 30.9538 34.0695C31.208 35.4633 31.3859 36.9203 32.0087 38.1494C32.1358 38.4028 34.1822 38.0354 35.0719 37.5032C36.7115 36.5403 38.1096 35.1972 39.673 34.0948C41.5541 32.7644 42.9141 30.9652 41.9227 28.8112C40.7915 26.3278 38.5926 27.4554 36.8005 28.2917Z" fill="black" stroke="#1D1D1B" stroke-width="0.728337" stroke-miterlimit="10"/>
<path d="M1.87296 43.6353C7.1477 31.1674 12.4351 18.7123 17.6972 6.24444C20.1121 0.517342 21.4848 -0.508977 27.5476 0.973479C41.5161 4.4072 55.4465 8.04368 69.3006 11.9335C71.7155 12.6178 74.1178 14.6197 75.732 16.647C79.9263 21.9179 81.3372 28.4939 83.1801 34.7912C83.4725 35.7922 82.748 37.0846 82.3921 38.263L82.3921 38.2883L82.3286 38.491C82.3286 38.5037 82.3286 38.5291 82.3158 38.5417L79.6086 46.6255C79.5831 46.9423 79.545 47.2591 79.4688 47.5505C78.6807 50.9208 77.5622 54.2405 76.3548 57.4969C73.5458 65.1245 70.864 72.8156 67.6356 80.2532C65.4367 85.3087 63.6318 86.1703 58.2046 84.8019C44.8843 81.4442 31.6403 77.7824 18.4216 74.0446C16.2228 73.4238 13.7443 72.2201 12.397 70.4969C8.74918 65.8214 5.73683 60.6645 2.31778 55.8243C-0.554721 51.7824 0.131658 47.7532 1.87296 43.6099L1.87296 43.6353ZM79.1129 41.3039C79.3544 41.3926 79.8882 41.1012 80.0916 40.8224C80.3331 40.493 80.5873 39.9228 80.4729 39.5934C80.206 38.8458 79.6975 38.1869 79.2146 37.3507C79.0112 38.3136 78.7316 39.3146 78.6045 40.3409C78.5664 40.6577 78.8587 41.2025 79.1256 41.3039L79.1129 41.3039ZM71.6647 51.2883C72.0968 51.4403 73.0247 50.9208 73.3806 50.4394C73.8127 49.8565 74.2576 48.8555 74.0415 48.2727C73.5585 46.955 72.6815 45.7893 71.8172 44.3068C71.4486 46.0047 70.9656 47.7786 70.7369 49.5778C70.6733 50.1353 71.1944 51.0982 71.6647 51.2756L71.6647 51.2883ZM62.2337 61.26C63.4158 59.7776 65.6273 58.9033 63.098 56.8126C62.5642 56.3692 62.8184 55.0008 62.704 54.0378C60.5433 56.0017 60.2382 58.9286 62.2337 61.26ZM50.4513 81.4189C51.4427 81.6596 52.7646 81.0134 53.7814 80.4812C54.2136 80.2532 54.4932 79.2142 54.3661 78.6567C54.2771 78.2512 53.4128 77.8331 52.8536 77.7571C51.0996 77.529 49.3202 77.4657 47.134 77.301C47.3246 79.3156 48.4177 80.9247 50.4513 81.4189ZM47.3246 73.5885C48.011 73.8419 49.5617 73.183 49.9303 72.5115C50.4005 71.6626 50.4005 70.2054 49.9684 69.3312C49.7269 68.837 48.189 68.9891 47.223 68.8497C45.8376 68.6596 44.4394 68.4822 42.5838 68.2288C43.3718 70.8897 44.9478 72.7015 47.3246 73.5758L47.3246 73.5885ZM39.9019 33.5622C40.8297 32.4852 41.6178 30.4832 41.2238 29.2922C40.6772 27.6323 38.9613 28.0885 37.5505 29.0008C37.2327 29.2162 36.0888 28.7981 35.8346 28.3673C35.0466 27.0495 34.0552 25.3516 32.6316 26.7581C31.6148 27.759 31.5513 29.9004 31.4623 31.5602C31.4242 32.2825 32.3902 33.0427 33.0892 34.0563C30.6616 34.8672 31.4496 36.4131 32.2885 37.5027C32.6062 37.9209 34.2459 37.7815 34.9449 37.3633C36.7243 36.2863 38.58 35.1206 39.9019 33.5622ZM33.7501 73.8292C34.767 73.8292 36.1397 72.4481 36.6353 71.3711C36.8896 70.8009 35.7838 69.1664 34.9195 68.6976C34.2077 68.3049 32.9113 69.1411 31.9326 69.0144C31.0937 68.913 30.3184 68.2161 29.3016 67.6586C29.4287 70.4968 31.7165 73.8545 33.7501 73.8292ZM20.6459 73.9306C21.256 74.3487 23.0481 73.7405 23.8108 73.0563C24.3827 72.5495 24.1539 71.1684 24.2937 70.1801C23.2515 70.0534 22.2093 69.9267 21.167 69.7746C20.4426 69.6733 19.6926 69.5973 19.0063 69.3819C18.2945 69.1538 17.6336 68.7483 16.9472 68.4189C16.6422 68.761 16.3244 69.1031 16.0194 69.4452C17.5319 70.9783 18.9046 72.7269 20.6459 73.9306ZM16.299 64.4784C16.8964 64.7318 18.7521 63.5661 18.9554 62.7678C19.2097 61.7795 18.5996 59.7015 17.9386 59.5115C15.9686 58.9286 13.7951 59.03 11.4056 58.8526C11.8378 61.7669 13.8459 63.4647 16.299 64.4784Z" fill="white" stroke="#1D1D1B" stroke-width="0.728337" stroke-miterlimit="10"/>
<path d="M36.8757 28.3542C34.6005 24.9585 32.3381 24.439 31.1815 27.0998C30.5714 28.5189 31.0162 30.3815 30.9908 32.0413C30.9908 32.7382 30.9146 33.4604 31.029 34.132C31.2832 35.5257 31.4611 36.9828 32.0839 38.2119C32.211 38.4653 34.2574 38.0978 35.1471 37.5657C36.7867 36.6027 38.1848 35.2596 39.7482 34.1573C41.6293 32.8269 42.9893 31.0277 41.9979 28.8737C40.8667 26.3903 38.6678 27.5179 36.8757 28.3542Z" fill="black" stroke="#1D1D1B" stroke-width="0.728337" stroke-miterlimit="10"/>
</svg>
