<svg width="83" height="78" viewBox="0 0 83 78" fill="none" xmlns="http://www.w3.org/2000/svg">
<path d="M82.4522 46.9747C81.8294 44.7321 81.4608 42.388 80.5203 40.2847C76.4022 31.0732 72.0807 21.9377 67.8863 12.7642C66.323 9.34319 63.6665 7.27789 60.1458 6.31493C52.6595 4.27497 45.1605 2.28569 37.636 0.44845C36.5683 0.182367 35.0304 0.575182 34.1026 1.22138C24.0234 8.26621 13.9696 15.349 4.03021 22.5712C0.267985 25.3081 -0.570872 27.8295 1.3865 32.0615C6.41974 42.8822 11.7072 53.6015 17.198 64.2067C18.2148 66.158 20.4518 67.9319 22.5363 68.7934C29.1837 71.5556 36.0218 73.849 42.7963 76.3071C45.8087 77.3967 48.2363 76.7252 50.7911 74.5712C55.2524 70.8207 60.1712 67.6151 64.8232 64.0547C69.7039 60.3169 74.5211 56.503 79.2747 52.6132C80.9524 51.2321 82.5285 49.5976 82.4649 46.9874L82.4522 46.9747ZM43.9657 33.8734C44.3216 34.1395 45.7832 34.7477 45.7705 35.3052C45.6816 38.0927 45.6943 40.9943 43.559 43.275C41.8431 45.0995 40.0891 44.7447 39.1485 42.4007C38.8181 41.5771 38.2588 40.6521 37.5343 40.234C36.1362 39.4104 35.3227 38.2574 35.9582 36.8763C36.4158 35.8753 37.5852 34.925 38.6401 34.5449C40.051 34.0381 41.6651 34.1141 43.953 33.8607L43.9657 33.8734ZM57.6673 37.4718C58.8239 37.5352 59.8153 37.4972 60.7559 37.6746C61.2134 37.7633 61.8108 38.1814 61.9634 38.5868C62.5735 40.2467 60.8322 45.8091 59.4595 46.8607C57.6165 48.2798 55.837 47.6843 55.6591 45.4289C55.5701 44.1619 55.1761 43.7184 53.994 43.2496C53.1679 42.9202 52.1765 41.6278 52.2273 40.8169C52.2909 39.8539 53.1933 38.6122 54.083 38.1307C55.138 37.5478 56.5742 37.6365 57.6673 37.4591L57.6673 37.4718ZM71.4325 47.887C71.6358 47.6209 71.8392 47.3549 72.0426 47.0888C70.0216 47.1775 68.3566 46.6453 68.4837 44.428C68.6235 42.1979 70.4029 41.6531 72.3095 41.5011C73.5169 41.3997 74.7244 41.349 75.9446 41.273C77.5842 41.1716 78.4104 41.7545 78.0036 43.5537C77.6859 44.9728 77.508 46.4172 77.2537 47.8363C76.8851 49.851 75.6014 51.2701 73.6441 50.9533C72.7543 50.8013 72.157 48.964 71.4198 47.887L71.4325 47.887ZM35.8693 12.6375C35.6659 18.0098 32.1325 20.1765 28.2305 17.9845C26.629 17.0849 26.4383 15.9572 28.1033 15.2096C30.5056 14.12 33.1366 13.5118 35.8693 12.6375ZM23.3751 64.8149C23.1464 65.0176 22.9176 65.2203 22.7015 65.4231C21.7864 64.9163 20.6298 63.7759 20.0197 64.0293C18.164 64.7642 17.6301 63.3578 17.3759 62.4455C16.8167 60.4435 16.6896 58.3149 16.3845 56.2243C16.7404 56.0849 17.0963 55.9328 17.4522 55.7934C19.4223 58.7964 21.3924 61.812 23.3751 64.8149ZM17.8081 46.544C21.0492 48.7613 24.5953 54.6405 24.0234 56.2623C23.1972 55.8315 22.244 54.9065 21.5703 55.0713C19.5494 55.5654 19.0537 54.1336 18.7359 52.9553C18.2275 51.0673 18.1512 49.0654 17.8081 46.5566L17.8081 46.544ZM13.0291 43.4523C10.8302 42.9328 9.5846 42.7555 8.42797 42.3247C7.80517 42.0839 7.00442 41.5011 6.87732 40.9309C6.38162 38.7642 6.14012 36.5342 5.79694 34.3295C6.15283 34.2028 6.50871 34.0888 6.8646 33.9621C8.83468 36.9904 10.7921 40.0186 13.0291 43.465L13.0291 43.4523ZM21.6466 38.9289L22.549 38.6249C24.9766 41.387 27.0611 44.352 28.1923 47.9377C27.0992 47.6336 26.0697 46.6073 25.3834 46.7974C23.4896 47.3295 22.9303 45.9991 22.6252 44.9474C22.066 43.0089 21.9516 40.9562 21.6466 38.9416L21.6466 38.9289ZM32.285 61.8627C32.5519 61.7866 32.8315 61.7106 33.0984 61.6346C35.5896 64.2827 37.547 67.235 38.6401 70.6814C37.5216 70.4153 36.5429 69.465 35.9201 69.6677C34.039 70.2759 33.4162 68.9455 33.1366 67.8812C32.6155 65.9426 32.5392 63.8773 32.285 61.8627Z" fill="white" stroke="#1D1D1B" stroke-width="0.728337" stroke-miterlimit="10"/>
<path d="M43.9656 33.8731C41.6777 34.1265 40.0508 34.0505 38.6527 34.5573C37.585 34.9375 36.4284 35.8877 35.9708 36.8887C35.3353 38.2698 36.1361 39.4228 37.5469 40.2464C38.2714 40.6645 38.8433 41.5895 39.1611 42.4131C40.089 44.7444 41.8557 45.1119 43.5715 43.2873C45.7069 41.0066 45.6941 38.1051 45.7831 35.3176C45.7958 34.7601 44.3342 34.1519 43.9783 33.8858L43.9656 33.8731Z" fill="black" stroke="#1D1D1B" stroke-width="0.728337" stroke-miterlimit="10"/>
<path d="M57.6674 37.4711C56.5744 37.6485 55.1381 37.5598 54.0831 38.1427C53.1934 38.6241 52.291 39.8658 52.2275 40.8288C52.1766 41.6271 53.168 42.9321 53.9942 43.2616C55.1762 43.7304 55.5702 44.1739 55.6592 45.4409C55.8244 47.6963 57.6166 48.2918 59.4596 46.8727C60.8196 45.821 62.5736 40.2587 61.9635 38.5988C61.811 38.1934 61.2136 37.7626 60.756 37.6865C59.8154 37.5091 58.8241 37.5472 57.6674 37.4838L57.6674 37.4711Z" fill="black" stroke="#1D1D1B" stroke-width="0.728337" stroke-miterlimit="10"/>
<path d="M71.4331 47.8865C72.1703 48.9635 72.7677 50.8007 73.6574 50.9528C75.6021 51.2822 76.8985 49.8504 77.2671 47.8358C77.5213 46.404 77.6993 44.9596 78.017 43.5532C78.4238 41.754 77.5976 41.1711 75.9579 41.2724C74.7505 41.3485 73.5303 41.3991 72.3228 41.5005C70.4163 41.6526 68.6369 42.1847 68.4971 44.4274C68.37 46.6448 70.035 47.1769 72.0559 47.0882C71.8526 47.3543 71.6492 47.6204 71.4458 47.8865L71.4331 47.8865Z" fill="black" stroke="#1D1D1B" stroke-width="0.728337" stroke-miterlimit="10"/>
<path d="M35.8693 12.6355C33.1366 13.5098 30.5056 14.1307 28.1034 15.2077C26.4383 15.9552 26.6163 17.0829 28.2305 17.9825C32.1325 20.1618 35.6787 17.9952 35.8693 12.6355Z" fill="black" stroke="#1D1D1B" stroke-width="0.728337" stroke-miterlimit="10"/>
<path d="M23.3754 64.8137C21.4053 61.8108 19.4352 58.7952 17.4524 55.7922C17.0965 55.9316 16.7407 56.0837 16.3848 56.2231C16.6898 58.301 16.8169 60.4297 17.3762 62.4443C17.6304 63.3566 18.1642 64.763 20.0199 64.0281C20.63 63.7874 21.7866 64.9277 22.7017 65.4219C22.9305 65.2191 23.1593 65.0164 23.3754 64.8137Z" fill="black" stroke="#1D1D1B" stroke-width="0.728337" stroke-miterlimit="10"/>
<path d="M17.8076 46.5434C18.1508 49.0521 18.2271 51.0541 18.7355 52.942C19.0532 54.1203 19.5489 55.5521 21.5699 55.058C22.2435 54.8933 23.1968 55.8182 24.0229 56.249C24.5949 54.6272 21.0487 48.7607 17.8076 46.5307L17.8076 46.5434Z" fill="black" stroke="#1D1D1B" stroke-width="0.728337" stroke-miterlimit="10"/>
<path d="M13.029 43.4502C10.792 40.0038 8.8219 36.9755 6.86453 33.9473C6.50864 34.074 6.15276 34.188 5.79688 34.3147C6.14005 36.5194 6.38155 38.7494 6.87725 40.9161C7.00435 41.4863 7.8051 42.0818 8.4279 42.3099C9.58453 42.7407 10.8428 42.918 13.029 43.4375L13.029 43.4502Z" fill="black" stroke="#1D1D1B" stroke-width="0.728337" stroke-miterlimit="10"/>
<path d="M21.6465 38.9267C21.9515 40.9414 22.0659 42.994 22.6252 44.9326C22.9302 45.9843 23.4895 47.3147 25.3833 46.7825C26.0696 46.5925 27.0992 47.6188 28.1922 47.9229C27.0737 44.3371 24.9765 41.3722 22.5489 38.61L21.6465 38.9141L21.6465 38.9267Z" fill="black" stroke="#1D1D1B" stroke-width="0.728337" stroke-miterlimit="10"/>
<path d="M32.2852 61.8639C32.5394 63.8785 32.6156 65.9438 33.1368 67.8824C33.4291 68.9468 34.0391 70.2772 35.9203 69.669C36.5303 69.4663 37.5218 70.4165 38.6403 70.6826C37.5472 67.2362 35.6025 64.2713 33.0986 61.6359C32.8317 61.7119 32.5521 61.7879 32.2852 61.8639Z" fill="black" stroke="#1D1D1B" stroke-width="0.728337" stroke-miterlimit="10"/>
</svg>
