<svg width="40" height="40" viewBox="0 0 40 40" fill="none" xmlns="http://www.w3.org/2000/svg">
<circle cx="20" cy="20" r="20" fill="white"/>
<path d="M11.1161 27.1444L10.2322 28.0283L12 29.7961L12.8839 28.9122L12 28.0283L11.1161 27.1444ZM29.2778 12.0006C29.2778 11.3102 28.7181 10.7506 28.0278 10.7506L16.7778 10.7506C16.0874 10.7506 15.5278 11.3102 15.5278 12.0006C15.5278 12.6909 16.0874 13.2506 16.7778 13.2506H26.7778V23.2506C26.7778 23.9409 27.3374 24.5006 28.0278 24.5006C28.7181 24.5006 29.2778 23.9409 29.2778 23.2506L29.2778 12.0006ZM12 28.0283L12.8839 28.9122L28.9116 12.8845L28.0278 12.0006L27.1439 11.1167L11.1161 27.1444L12 28.0283Z" fill="black"/>
</svg>
