<svg width="40" height="40" viewBox="0 0 40 40" fill="none" xmlns="http://www.w3.org/2000/svg">
<circle cx="20" cy="20" r="20" fill="black"/>
<path d="M11.2929 27.3207L10.5858 28.0278L12 29.442L12.7071 28.7349L12 28.0278L11.2929 27.3207ZM29.0278 12.0001C29.0278 11.4478 28.58 11.0001 28.0278 11.0001L19.0278 11.0001C18.4755 11.0001 18.0278 11.4478 18.0278 12.0001C18.0278 12.5524 18.4755 13.0001 19.0278 13.0001L27.0278 13.0001L27.0278 21.0001C27.0278 21.5524 27.4755 22.0001 28.0278 22.0001C28.58 22.0001 29.0278 21.5524 29.0278 21.0001L29.0278 12.0001ZM12 28.0278L12.7071 28.7349L28.7349 12.7072L28.0278 12.0001L27.3206 11.293L11.2929 27.3207L12 28.0278Z" fill="white"/>
</svg>
