<svg width="35" height="35" viewBox="0 0 35 35" fill="none" xmlns="http://www.w3.org/2000/svg">
<circle cx="17.5" cy="17.5" r="17.5" fill="black"/>
<path d="M9.79289 23.8173L9.08579 24.5244L10.5 25.9386L11.2071 25.2315L10.5 24.5244L9.79289 23.8173ZM25.5243 10.5001C25.5243 9.94785 25.0766 9.50013 24.5243 9.50013L15.5243 9.50013C14.972 9.50013 14.5243 9.94785 14.5243 10.5001C14.5243 11.0524 14.972 11.5001 15.5243 11.5001L23.5243 11.5001L23.5243 19.5001C23.5243 20.0524 23.972 20.5001 24.5243 20.5001C25.0766 20.5001 25.5243 20.0524 25.5243 19.5001L25.5243 10.5001ZM10.5 24.5244L11.2071 25.2315L25.2314 11.2072L24.5243 10.5001L23.8172 9.79302L9.79289 23.8173L10.5 24.5244Z" fill="white"/>
</svg>
