<svg width="557" height="123" viewBox="0 0 557 123" fill="none" xmlns="http://www.w3.org/2000/svg">
<path d="M79.6723 37.8461C79.7224 37.8138 79.7929 37.8175 79.8837 37.8572C80.0049 37.91 80.0632 37.9625 80.0585 38.0145L80.1454 55.1159L77.7597 54.0755L77.7078 40.1803L79.3784 39.0159L68.1715 49.8942L67.4898 49.5969L79.6723 37.8461ZM64.6222 52.7001C65.1507 51.4883 65.5534 50.42 65.8305 49.4953C65.9106 49.1876 66.0101 48.8975 66.129 48.6249C66.1818 48.5037 66.2224 48.4312 66.2508 48.4076C66.2943 48.3905 66.3691 48.4051 66.4751 48.4513L81.3119 54.9215C81.4331 54.9744 81.4946 55.0192 81.4966 55.0561C81.5203 55.0845 81.5024 55.1668 81.4429 55.3032C81.4033 55.394 81.2957 55.5995 81.12 55.9195C80.6309 56.7518 80.0924 57.842 79.5045 59.1902C79.4714 59.2659 79.4095 59.2839 79.3186 59.2443C79.2277 59.2047 79.1988 59.147 79.2318 59.0713C80.2953 56.6325 79.2896 54.7427 76.2147 53.4018L70.5117 50.9147C69.2242 50.3533 68.1032 50.216 67.1488 50.5028C66.1878 50.8049 65.4365 51.5769 64.8949 52.819C64.8618 52.8948 64.7999 52.9128 64.709 52.8732C64.6181 52.8335 64.5892 52.7759 64.6222 52.7001Z" fill="white"/>
<path d="M89.8745 58.6646C89.8282 58.6469 89.8227 58.5918 89.8581 58.4991C89.8934 58.4065 89.9342 58.369 89.9806 58.3867C90.5055 58.587 90.8985 58.6927 91.1595 58.7039C91.436 58.721 91.6541 58.6361 91.8138 58.4495C91.9948 58.2532 92.1736 57.9235 92.3504 57.4603L96.4419 46.7378C96.6186 46.2746 96.7019 45.9173 96.6918 45.6658C96.6971 45.4202 96.5909 45.2117 96.3733 45.0402C96.1617 44.8533 95.8011 44.6627 95.2916 44.4682C95.2453 44.4506 95.2398 44.3954 95.2751 44.3028C95.3105 44.2101 95.3513 44.1727 95.3976 44.1903L105.032 47.8665C105.186 47.9254 105.237 48.0244 105.184 48.1633L104.081 51.1916C104.069 51.2225 104.014 51.228 103.916 51.2081C103.839 51.1786 103.801 51.1378 103.803 51.0856C104.099 49.1996 103.366 47.9208 101.606 47.2492L100.657 46.8868C100.085 46.6689 99.6455 46.616 99.3374 46.7284C99.0446 46.8466 98.8069 47.145 98.6243 47.6236L94.5858 58.2072C94.3914 58.7167 94.3485 59.1072 94.4572 59.3786C94.5813 59.6559 94.8904 59.8888 95.3845 60.0773L96.5193 60.5103C98.5881 61.2997 100.28 60.8047 101.596 59.0251C101.608 58.9942 101.652 58.9935 101.73 59.023C101.838 59.0642 101.883 59.108 101.865 59.1543C101.263 60.2688 100.777 61.3123 100.405 62.285C100.358 62.4085 100.3 62.4923 100.23 62.5364C100.166 62.565 100.064 62.5529 99.9254 62.4998L89.8745 58.6646ZM100.626 56.7711C101.132 55.4433 100.521 54.4495 98.7919 53.7897L95.5497 52.5525L95.7794 51.9504L99.0448 53.1964C100.743 53.8444 101.81 53.5972 102.246 52.4547C102.264 52.4084 102.311 52.4 102.389 52.4294C102.481 52.4648 102.519 52.5056 102.501 52.5519L101.709 54.5579L101.317 55.6552C101.159 56.161 101.021 56.5683 100.904 56.8771C100.892 56.908 100.84 56.9058 100.747 56.8704C100.654 56.8351 100.614 56.802 100.626 56.7711Z" fill="white"/>
<path d="M110.151 65.8927C110.073 65.8665 110.049 65.8064 110.081 65.7124C110.112 65.6184 110.167 65.5844 110.245 65.6106C110.684 65.7574 111.081 65.7943 111.437 65.7215C111.792 65.6487 112.184 65.4401 112.613 65.0956C113.047 64.7354 113.607 64.182 114.292 63.4354L123.151 53.7477C123.198 53.7111 123.277 53.7112 123.386 53.7479C123.496 53.7846 123.551 53.8291 123.551 53.8813L125.427 67.4202C125.582 68.7268 125.77 69.6519 125.989 70.1956C126.228 70.7288 126.568 71.0688 127.007 71.2156C127.069 71.2365 127.085 71.294 127.053 71.3881C127.022 71.4821 126.975 71.5186 126.912 71.4977C126.614 71.3981 126.142 71.2226 125.494 70.9711C124.846 70.7197 124.373 70.5442 124.076 70.4446C123.684 70.3136 123.216 70.1746 122.673 70.0278C122.13 69.881 121.709 69.7577 121.411 69.6582C121.349 69.6372 121.333 69.5797 121.364 69.4857C121.396 69.3917 121.443 69.3551 121.506 69.3761C121.976 69.5333 122.329 69.599 122.564 69.5731C122.804 69.5315 122.964 69.3932 123.042 69.1581C123.121 68.923 123.121 68.4788 123.044 67.8255L121.471 56.1917L122.962 54.9389L114.801 63.867C114.44 64.2691 114.197 64.6581 114.071 65.0343C113.888 65.5828 113.945 66.0636 114.242 66.4767C114.54 66.8898 115.041 67.2143 115.746 67.4501C115.825 67.4763 115.848 67.5364 115.817 67.6305C115.785 67.7245 115.73 67.7584 115.652 67.7322C115.37 67.6379 114.968 67.486 114.445 67.2764C113.86 67.0459 113.348 66.8573 112.909 66.7106C112.486 66.5691 111.987 66.4197 111.413 66.2624C110.901 66.126 110.48 66.0028 110.151 65.8927Z" fill="white"/>
<path d="M153.255 62.4655C153.316 62.4313 153.434 62.439 153.609 62.4886C153.879 62.5652 153.998 62.6592 153.967 62.7705L150.275 75.7912C150.14 76.2682 150.086 76.6394 150.114 76.9049C150.146 77.1546 150.286 77.3574 150.534 77.5135C150.782 77.6697 151.192 77.8289 151.764 77.9911C151.812 78.0047 151.822 78.0591 151.795 78.1545C151.768 78.2499 151.731 78.2908 151.683 78.2773C151.142 78.124 150.715 77.9944 150.402 77.8883L148.62 77.3574L146.61 76.8133C146.32 76.748 145.936 76.6478 145.459 76.5126C145.411 76.499 145.401 76.4446 145.428 76.3492C145.455 76.2538 145.492 76.2129 145.54 76.2264C146.144 76.3977 146.592 76.4819 146.885 76.479C147.178 76.4762 147.404 76.377 147.562 76.1815C147.721 75.9859 147.87 75.6417 148.01 75.1489L151.106 64.2267L151.825 64.3274L137.617 74.5468C137.551 74.5969 137.431 74.5971 137.256 74.5475C137.145 74.516 137.046 74.4708 136.959 74.4119C136.889 74.3576 136.86 74.3066 136.874 74.2589L140.6 61.1189C140.735 60.642 140.786 60.2787 140.754 60.0291C140.722 59.7794 140.582 59.5766 140.334 59.4204C140.107 59.2529 139.707 59.088 139.134 58.9258C139.087 58.9122 139.076 58.8578 139.103 58.7624C139.131 58.667 139.168 58.6261 139.216 58.6396L140.52 59.0353C141.243 59.2745 141.819 59.4549 142.248 59.5766C142.836 59.7434 143.516 59.9191 144.288 60.1036L145.44 60.4043C145.487 60.4179 145.498 60.4723 145.471 60.5677C145.444 60.6631 145.406 60.704 145.359 60.6905C144.755 60.5192 144.296 60.4407 143.983 60.4549C143.69 60.4578 143.464 60.557 143.306 60.7525C143.147 60.9481 143 61.2843 142.865 61.7613L139.741 72.7788L139.04 72.7087L153.255 62.4655Z" fill="white"/>
<path d="M178.245 83.9156C178.212 83.9087 178.207 83.8568 178.227 83.7598C178.248 83.6629 178.274 83.6178 178.307 83.6247C178.889 83.7485 179.325 83.7993 179.617 83.777C179.909 83.7546 180.128 83.6407 180.273 83.435C180.422 83.2132 180.548 82.8599 180.651 82.375L183.04 71.1498C183.14 70.6811 183.157 70.3216 183.092 70.0712C183.031 69.8047 182.863 69.6 182.589 69.4573C182.335 69.3018 181.925 69.1639 181.36 69.0435C181.327 69.0366 181.321 68.9847 181.342 68.8877C181.363 68.7907 181.389 68.7457 181.422 68.7525L182.726 69.0555C183.462 69.246 184.041 69.386 184.461 69.4755C184.962 69.5821 185.604 69.7019 186.386 69.8347L187.749 70.0994C187.782 70.1063 187.787 70.1582 187.767 70.2552C187.746 70.3522 187.72 70.3972 187.687 70.3904C187.122 70.2699 186.683 70.2273 186.371 70.2623C186.06 70.2974 185.822 70.4241 185.657 70.6424C185.492 70.8608 185.36 71.2043 185.26 71.6731L182.881 82.8497C182.778 83.3346 182.749 83.7086 182.795 83.9717C182.843 84.2186 182.988 84.41 183.23 84.5459C183.487 84.6852 183.907 84.8168 184.489 84.9406C184.537 84.9509 184.551 85.0046 184.531 85.1015C184.51 85.1985 184.476 85.2419 184.427 85.2315C183.861 85.1111 183.427 85.0102 183.123 84.9286L181.261 84.507L179.535 84.1649C179.224 84.1157 178.794 84.0326 178.245 83.9156ZM169.08 81.965C169.048 81.9581 169.042 81.9062 169.063 81.8092C169.083 81.7122 169.11 81.6671 169.142 81.674C169.663 81.768 170.166 81.7061 170.652 81.4884C171.157 81.2581 171.658 80.9256 172.156 80.4909C172.671 80.0597 173.448 79.3465 174.487 78.3514C175.468 77.3944 176.217 76.7343 176.733 76.3712C177.253 75.9919 177.755 75.7777 178.239 75.7286C178.726 75.6633 179.389 75.7201 180.23 75.899C180.844 76.0297 181.687 76.2346 182.76 76.5136L182.619 76.9397C182.477 76.8925 182.318 76.842 182.144 76.788C181.986 76.7374 181.818 76.6932 181.64 76.6553C181.026 76.5246 180.514 76.5086 180.104 76.6072C179.698 76.6897 179.259 76.9258 178.788 77.3154C178.32 77.6888 177.613 78.3494 176.668 79.2971C175.46 80.5268 174.614 81.3688 174.128 81.823C173.663 82.2645 173.335 82.5327 173.146 82.6276C172.973 82.726 172.79 82.7545 172.596 82.7132L169.08 81.965ZM176.709 70.8919C176.197 69.8031 175.616 68.9613 174.965 68.3667C174.331 67.7755 173.593 67.3904 172.753 67.2115C172.721 67.2046 172.715 67.1527 172.735 67.0557C172.756 66.9588 172.782 66.9137 172.815 66.9206L173.804 67.1564C174.443 67.3263 175.054 67.4732 175.636 67.5971C176.137 67.7037 176.779 67.8235 177.562 67.9563L178.997 68.2365C179.046 68.2468 179.06 68.3005 179.039 68.3974C179.018 68.4944 178.984 68.5378 178.935 68.5274C178.046 68.3382 177.536 68.5507 177.406 69.1649C177.285 69.7306 177.469 70.6144 177.956 71.8164L179.636 75.95L179.178 76.0805L176.709 70.8919ZM190.1 86.4391C189.906 86.3978 189.742 86.2953 189.608 86.1316C189.49 85.9713 189.296 85.5751 189.025 84.943C188.77 84.3144 188.351 83.2283 187.767 81.6848C187.293 80.4182 186.919 79.5191 186.643 78.9874C186.371 78.4395 186.066 78.0452 185.729 77.8045C185.395 77.5476 184.913 77.352 184.283 77.2178C184.121 77.1834 183.958 77.1571 183.793 77.1389C183.628 77.1206 183.471 77.1041 183.322 77.0893L183.39 76.6478C184.451 76.8229 185.289 76.9758 185.903 77.1065C186.744 77.2854 187.373 77.5039 187.791 77.7618C188.229 78.0071 188.6 78.407 188.904 78.9618C189.228 79.5038 189.643 80.4115 190.149 81.685C190.693 83.0173 191.104 83.9834 191.382 84.5832C191.676 85.1864 191.999 85.6944 192.35 86.1071C192.721 86.507 193.164 86.7702 193.678 86.8964C193.71 86.9033 193.716 86.9552 193.695 87.0522C193.674 87.1492 193.648 87.1942 193.616 87.1873L190.1 86.4391ZM186.425 77.3949L189.578 74.3661C190.552 73.4415 191.099 72.6963 191.22 72.1306C191.354 71.5002 190.977 71.0905 190.088 70.9012C190.039 70.8909 190.025 70.8373 190.046 70.7403C190.066 70.6433 190.101 70.6 190.15 70.6103L191.575 70.939C192.344 71.1365 192.979 71.2885 193.48 71.3952C194.062 71.519 194.679 71.6336 195.333 71.7389L196.332 71.9262C196.364 71.9331 196.37 71.985 196.349 72.082C196.329 72.179 196.302 72.224 196.27 72.2172C195.429 72.0383 194.591 72.0879 193.755 72.366C192.934 72.6476 192.069 73.1815 191.158 73.9675L186.79 77.7009L186.425 77.3949Z" fill="white"/>
<path d="M202.829 88.0535C202.78 88.0462 202.762 87.9935 202.777 87.8955C202.792 87.7974 202.824 87.752 202.873 87.7594C203.428 87.8424 203.835 87.8614 204.092 87.8164C204.366 87.7737 204.561 87.6441 204.677 87.4275C204.811 87.197 204.915 86.8366 204.989 86.3463L206.685 74.9958C206.759 74.5055 206.763 74.1386 206.699 73.8952C206.652 73.6541 206.503 73.4732 206.254 73.3524C206.007 73.2153 205.614 73.1064 205.075 73.0258C205.026 73.0184 205.009 72.9657 205.023 72.8677C205.038 72.7696 205.07 72.7243 205.119 72.7316L215.317 74.256C215.481 74.2804 215.551 74.3662 215.529 74.5133L215.102 77.7076C215.097 77.7403 215.044 77.7575 214.944 77.7592C214.862 77.7469 214.817 77.7151 214.808 77.6636C214.692 75.7582 213.702 74.6662 211.839 74.3877L210.834 74.2375C210.229 74.1471 209.788 74.1898 209.511 74.3656C209.251 74.5439 209.083 74.8863 209.007 75.393L207.332 86.5964C207.252 87.1357 207.293 87.5263 207.458 87.7681C207.638 88.0123 207.99 88.1735 208.513 88.2517L209.715 88.4312C211.905 88.7586 213.451 87.9121 214.355 85.8917C214.36 85.859 214.403 85.8488 214.485 85.861C214.599 85.8781 214.653 85.9112 214.645 85.9602C214.296 87.1779 214.045 88.3016 213.891 89.3312C213.871 89.4619 213.832 89.5563 213.773 89.6144C213.717 89.6561 213.615 89.6659 213.468 89.6439L202.829 88.0535ZM212.924 83.8983C213.134 82.4928 212.323 81.6532 210.493 81.3796L207.061 80.8666L207.156 80.2292L210.613 80.7459C212.411 81.0146 213.4 80.5442 213.581 79.3348C213.588 79.2858 213.632 79.2674 213.714 79.2796C213.812 79.2943 213.858 79.3261 213.85 79.3751L213.507 81.5043L213.359 82.6602C213.314 83.188 213.267 83.6154 213.218 83.9423C213.213 83.975 213.161 83.984 213.063 83.9693C212.965 83.9547 212.919 83.931 212.924 83.8983Z" fill="white"/>
<path d="M224.192 90.7647C224.11 90.7559 224.074 90.7022 224.084 90.6036C224.095 90.505 224.141 90.4601 224.224 90.4689C224.684 90.5181 225.079 90.4691 225.411 90.3217C225.742 90.1744 226.081 89.8865 226.426 89.458C226.772 89.0132 227.2 88.3526 227.71 87.4764L234.285 76.1141C234.323 76.0683 234.399 76.0516 234.514 76.0639C234.629 76.0762 234.693 76.1079 234.704 76.1589L239.44 88.9804C239.872 90.2233 240.253 91.0867 240.584 91.5708C240.932 92.0402 241.337 92.2995 241.797 92.3487C241.863 92.3557 241.89 92.4085 241.88 92.5071C241.869 92.6057 241.831 92.6515 241.765 92.6444C241.453 92.611 240.954 92.541 240.267 92.4343C239.58 92.3276 239.081 92.2576 238.769 92.2242C238.358 92.1803 237.872 92.1449 237.309 92.118C236.747 92.0911 236.31 92.0609 235.998 92.0275C235.932 92.0205 235.904 91.9677 235.915 91.8691C235.926 91.7705 235.964 91.7247 236.029 91.7318C236.522 91.7845 236.881 91.773 237.105 91.6972C237.331 91.6051 237.457 91.4358 237.483 91.1893C237.51 90.9428 237.415 90.5089 237.199 89.8875L233.168 78.8615L234.355 77.3183L228.299 87.7888C228.033 88.2589 227.879 88.6911 227.837 89.0854C227.775 89.6605 227.934 90.1179 228.313 90.4576C228.692 90.7973 229.252 91.0067 229.991 91.0858C230.073 91.0946 230.109 91.1483 230.098 91.2469C230.088 91.3455 230.041 91.3904 229.959 91.3816C229.664 91.35 229.238 91.2878 228.683 91.1952C228.062 91.0956 227.522 91.0211 227.062 90.9719C226.618 90.9245 226.099 90.8855 225.503 90.8551C224.974 90.8317 224.537 90.8016 224.192 90.7647Z" fill="white"/>
<path d="M254.423 86.4702L261.351 86.8873L261.487 87.5162L254.064 87.0694L254.423 86.4702ZM266.88 93.6269C266.946 93.6309 266.976 93.6823 266.97 93.7813C266.964 93.8803 266.928 93.9278 266.862 93.9238C266.549 93.9049 266.047 93.8581 265.356 93.7834C264.665 93.7087 264.163 93.662 263.85 93.6431C263.437 93.6183 262.95 93.6055 262.387 93.6047C261.824 93.6039 261.386 93.5941 261.072 93.5752C261.006 93.5713 260.976 93.5198 260.982 93.4208C260.988 93.3219 261.024 93.2744 261.09 93.2783C261.585 93.3081 261.943 93.28 262.163 93.1939C262.385 93.0914 262.503 92.9164 262.518 92.6689C262.533 92.4215 262.418 91.9924 262.173 91.3817L257.635 80.5548L258.749 78.9581L253.186 89.6984C252.941 90.1803 252.807 90.6192 252.784 91.0151C252.749 91.5925 252.929 92.042 253.323 92.3637C253.718 92.6855 254.286 92.8687 255.028 92.9134C255.111 92.9183 255.149 92.9703 255.143 93.0693C255.137 93.1683 255.093 93.2153 255.01 93.2103C254.714 93.1924 254.286 93.1501 253.727 93.0833C253.102 93.0126 252.559 92.9634 252.097 92.9355C251.651 92.9087 251.131 92.8939 250.535 92.8912C250.005 92.8924 249.567 92.8826 249.221 92.8617C249.138 92.8568 249.1 92.8048 249.106 92.7058C249.112 92.6069 249.156 92.5598 249.239 92.5648C249.7 92.5926 250.094 92.5252 250.418 92.3627C250.742 92.2001 251.067 91.8968 251.391 91.4528C251.717 90.9923 252.114 90.3126 252.582 89.4137L258.623 77.7585C258.659 77.711 258.734 77.6907 258.85 77.6977C258.965 77.7046 259.03 77.7334 259.043 77.7838L264.369 90.3717C264.859 91.5931 265.28 92.4379 265.632 92.9061C266.002 93.3588 266.418 93.5991 266.88 93.6269Z" fill="white"/>
<path d="M289.854 80.5198C289.86 80.024 289.814 79.66 289.717 79.4276C289.621 79.1787 289.424 79.003 289.128 78.9007C288.832 78.7984 288.378 78.744 287.766 78.7374C287.717 78.7369 287.693 78.6871 287.694 78.5879C287.695 78.4888 287.72 78.4395 287.77 78.44L288.959 78.4775C289.752 78.519 290.454 78.5431 291.065 78.5496C291.512 78.5544 292.115 78.5443 292.875 78.5194L294.239 78.5091C294.288 78.5097 294.313 78.5595 294.312 78.6587C294.311 78.7578 294.285 78.8071 294.236 78.8066C293.641 78.8002 293.202 78.8451 292.92 78.9413C292.639 79.0209 292.447 79.1758 292.345 79.4061C292.244 79.6364 292.19 79.9994 292.185 80.4951L292.062 91.9711C292.057 92.4668 292.103 92.8391 292.199 93.088C292.296 93.3204 292.484 93.4794 292.764 93.5651C293.044 93.6507 293.482 93.6967 294.076 93.703C294.126 93.7036 294.15 93.7534 294.149 93.8525C294.148 93.9517 294.123 94.001 294.073 94.0005C293.511 93.9945 293.057 93.9813 292.71 93.9611L290.901 93.917L288.794 93.9192C288.496 93.9326 288.1 93.9366 287.604 93.9313C287.554 93.9308 287.53 93.8809 287.531 93.7818C287.532 93.6827 287.558 93.6333 287.607 93.6339C288.235 93.6406 288.69 93.6041 288.972 93.5245C289.27 93.4451 289.47 93.2902 289.572 93.0599C289.673 92.8131 289.727 92.4419 289.732 91.9462L289.854 80.5198ZM280.01 85.4715L290.866 85.5875L290.859 86.232L280.003 86.1159L280.01 85.4715ZM278.974 80.3539C278.979 79.8581 278.934 79.4941 278.837 79.2617C278.74 79.0293 278.552 78.8703 278.272 78.7847C277.992 78.6825 277.563 78.6283 276.985 78.6222C276.951 78.6218 276.935 78.5721 276.937 78.4729C276.938 78.3738 276.955 78.3244 276.988 78.3247L278.301 78.3636C279.061 78.4047 279.656 78.4276 280.085 78.4322C280.663 78.4384 281.349 78.4292 282.143 78.4046L283.432 78.3936C283.465 78.394 283.481 78.4437 283.48 78.5429C283.479 78.642 283.462 78.6914 283.429 78.6911C282.834 78.6847 282.387 78.7295 282.089 78.8255C281.807 78.9216 281.607 79.093 281.488 79.3396C281.387 79.5699 281.333 79.9329 281.328 80.4286L281.206 91.855C281.201 92.3507 281.246 92.7231 281.343 92.972C281.439 93.2044 281.628 93.3634 281.908 93.449C282.204 93.5348 282.658 93.581 283.27 93.5875C283.303 93.5879 283.319 93.6376 283.318 93.7368C283.317 93.8359 283.3 93.8853 283.266 93.8849C282.705 93.8789 282.267 93.866 281.953 93.8461L279.921 93.7996L278.111 93.805C277.797 93.8182 277.359 93.8218 276.797 93.8158C276.764 93.8154 276.748 93.7657 276.749 93.6665C276.75 93.5674 276.767 93.518 276.8 93.5184C277.395 93.5247 277.834 93.4881 278.115 93.4085C278.397 93.3288 278.589 93.1739 278.691 92.9436C278.792 92.6968 278.846 92.3256 278.851 91.8298L278.974 80.3539Z" fill="white"/>
<path d="M317.501 77.2152C317.549 77.1638 317.663 77.1345 317.845 77.1275C318.126 77.1166 318.268 77.1689 318.273 77.2845L318.797 90.8084C318.816 91.3037 318.88 91.6733 318.989 91.9172C319.097 92.1445 319.293 92.294 319.577 92.3657C319.861 92.4374 320.3 92.4617 320.895 92.4387C320.944 92.4367 320.971 92.4853 320.975 92.5844C320.978 92.6835 320.956 92.734 320.906 92.7359C320.345 92.7577 319.898 92.7667 319.568 92.763L317.709 92.8102L315.629 92.9157C315.333 92.9437 314.937 92.9673 314.441 92.9865C314.392 92.9884 314.365 92.9399 314.361 92.8408C314.357 92.7417 314.38 92.6912 314.43 92.6893C315.057 92.665 315.51 92.6061 315.787 92.5126C316.065 92.4192 316.249 92.255 316.339 92.0199C316.429 91.7849 316.464 91.4115 316.444 90.8996L316.004 79.5554L316.719 79.4285L306.376 93.5473C306.329 93.6152 306.215 93.6528 306.033 93.6598C305.918 93.6643 305.81 93.6519 305.709 93.6227C305.626 93.5929 305.583 93.5532 305.581 93.5037L305.052 79.856C305.032 79.3606 304.969 78.9993 304.861 78.772C304.753 78.5446 304.557 78.3951 304.273 78.3234C304.005 78.2346 303.574 78.2017 302.979 78.2248C302.93 78.2267 302.903 78.1781 302.899 78.079C302.895 77.9799 302.918 77.9295 302.968 77.9275L304.331 77.8995C305.092 77.9031 305.695 77.8962 306.141 77.8789C306.752 77.8552 307.453 77.8115 308.244 77.7478L309.432 77.6769C309.482 77.675 309.509 77.7235 309.512 77.8226C309.516 77.9217 309.493 77.9722 309.444 77.9741C308.816 77.9984 308.356 78.0659 308.063 78.1765C307.785 78.27 307.601 78.4342 307.511 78.6692C307.421 78.9042 307.386 79.2694 307.405 79.7648L307.848 91.208L307.16 91.3588L317.501 77.2152Z" fill="white"/>
<path d="M343.738 90.1801C343.771 90.1772 343.792 90.2251 343.801 90.3239C343.81 90.4227 343.798 90.4735 343.765 90.4764C343.172 90.5288 342.719 90.5606 342.404 90.5718L340.575 90.7087L338.775 90.8927C338.464 90.9368 338.045 90.9822 337.518 91.0288C337.468 91.0331 337.439 90.9859 337.431 90.8872C337.422 90.7884 337.442 90.7368 337.492 90.7325C338.051 90.683 338.451 90.6062 338.691 90.502C338.947 90.3964 339.106 90.2248 339.168 89.9871C339.246 89.7479 339.263 89.3731 339.217 88.8628L338.676 82.7394L339.502 82.7908C338.86 82.8476 338.325 82.9862 337.896 83.2065C337.483 83.409 337.061 83.8029 336.632 84.3883C336.219 84.9723 335.742 85.8606 335.2 87.0531C334.503 88.5415 333.99 89.5905 333.662 90.2001C333.349 90.7918 333.124 91.1518 332.986 91.2801C332.847 91.392 332.654 91.4589 332.407 91.4807L329.419 91.7449C329.386 91.7478 329.365 91.6998 329.357 91.6011C329.348 91.5023 329.36 91.4515 329.393 91.4486C329.819 91.3943 330.188 91.2456 330.498 91.0025C330.807 90.7429 331.085 90.4114 331.331 90.0081C331.576 89.5883 331.916 88.9361 332.352 88.0515C332.435 87.8617 332.646 87.4283 332.984 86.7514C333.433 85.8324 333.884 85.1124 334.336 84.5914C334.786 84.0539 335.274 83.6624 335.8 83.4168C336.324 83.1548 336.962 82.9574 337.713 82.8246L337.901 82.9821C336.007 83.1331 334.528 82.9237 333.466 82.354C332.402 81.7679 331.819 80.8988 331.718 79.7465C331.652 79.0058 331.808 78.3284 332.185 77.7144C332.562 77.1005 333.115 76.6036 333.845 76.2239C334.573 75.8278 335.406 75.5882 336.344 75.5052C336.723 75.4718 337.161 75.4579 337.659 75.4636C337.858 75.4626 338.09 75.4587 338.355 75.4518C338.62 75.445 338.909 75.4278 339.222 75.4001C339.682 75.3594 340.29 75.2891 341.044 75.1892L342.375 75.0466C342.408 75.0437 342.429 75.0916 342.438 75.1904C342.447 75.2891 342.435 75.34 342.402 75.3429C341.793 75.3967 341.353 75.4854 341.081 75.6089C340.809 75.716 340.642 75.8884 340.58 76.1261C340.516 76.3474 340.507 76.7131 340.552 77.2234L341.563 88.6554C341.608 89.1657 341.682 89.5325 341.785 89.7556C341.904 89.9773 342.099 90.1177 342.369 90.1767C342.657 90.2343 343.113 90.2354 343.738 90.1801ZM334.107 78.9131C334.212 80.0983 334.609 81.0171 335.297 81.6696C335.985 82.3221 336.921 82.596 338.107 82.4912C338.337 82.4708 338.583 82.4325 338.843 82.3763C339.12 82.3186 339.338 82.2578 339.499 82.1939L338.659 82.5419L338.211 77.4802C338.153 76.8218 337.947 76.3754 337.595 76.1412C337.257 75.889 336.842 75.7847 336.348 75.8284C334.685 75.9754 333.939 77.0036 334.107 78.9131Z" fill="white"/>
<path d="M374.689 72.344C374.615 71.8539 374.511 71.502 374.378 71.2882C374.243 71.058 374.021 70.9163 373.712 70.863C373.403 70.8097 372.946 70.8291 372.342 70.921C372.293 70.9285 372.261 70.8832 372.246 70.7852C372.231 70.6872 372.248 70.6344 372.297 70.627L373.477 70.4725C374.266 70.3859 374.963 70.2966 375.567 70.2047C376.009 70.1375 376.602 70.0305 377.349 69.8835L378.693 69.654C378.742 69.6465 378.774 69.6918 378.789 69.7898C378.804 69.8878 378.787 69.9406 378.738 69.948C378.15 70.0375 377.724 70.1524 377.461 70.2926C377.196 70.4166 377.032 70.6004 376.968 70.844C376.905 71.0876 376.911 71.4545 376.985 71.9446L378.711 83.2907C378.786 83.7808 378.891 84.1409 379.026 84.3711C379.159 84.5849 379.371 84.7115 379.661 84.7509C379.951 84.7904 380.39 84.7654 380.978 84.6759C381.027 84.6684 381.059 84.7137 381.074 84.8117C381.089 84.9098 381.072 84.9625 381.023 84.9699C380.467 85.0544 380.017 85.1146 379.671 85.1505L377.879 85.3981L375.8 85.7395C375.508 85.8006 375.117 85.8684 374.627 85.9429C374.578 85.9504 374.546 85.9051 374.531 85.8071C374.516 85.7091 374.533 85.6563 374.582 85.6489C375.203 85.5544 375.646 85.4452 375.911 85.3213C376.193 85.1949 376.365 85.0099 376.429 84.7662C376.489 84.5063 376.483 84.1312 376.408 83.6411L374.689 72.344ZM365.77 78.8157L376.504 77.1829L376.601 77.82L365.867 79.4529L365.77 78.8157ZM363.924 73.9316C363.849 73.4415 363.746 73.0895 363.613 72.8757C363.48 72.6619 363.269 72.5353 362.978 72.4959C362.686 72.4401 362.254 72.4557 361.682 72.5427C361.649 72.5477 361.625 72.5011 361.61 72.4031C361.595 72.3051 361.604 72.2536 361.637 72.2486L362.94 72.0755C363.696 71.9939 364.287 71.9208 364.711 71.8561C365.283 71.7692 365.959 71.6497 366.738 71.4977L368.009 71.2793C368.041 71.2744 368.065 71.3209 368.08 71.4189C368.095 71.5169 368.086 71.5684 368.053 71.5734C367.465 71.6629 367.031 71.779 366.752 71.9218C366.489 72.062 366.32 72.2634 366.242 72.5258C366.179 72.7695 366.185 73.1364 366.259 73.6265L367.978 84.9235C368.053 85.4136 368.158 85.7738 368.293 86.0039C368.426 86.2177 368.637 86.3443 368.927 86.3838C369.234 86.4207 369.689 86.3932 370.294 86.3013C370.326 86.2963 370.35 86.3428 370.365 86.4409C370.38 86.5389 370.371 86.5904 370.338 86.5953C369.783 86.6798 369.349 86.7375 369.036 86.7684L367.023 87.0496L365.238 87.3463C364.93 87.4098 364.498 87.4838 363.943 87.5683C363.91 87.5733 363.886 87.5268 363.871 87.4288C363.856 87.3307 363.865 87.2792 363.898 87.2743C364.486 87.1848 364.913 87.0781 365.178 86.9542C365.443 86.8302 365.608 86.6464 365.671 86.4028C365.731 86.1428 365.725 85.7678 365.65 85.2777L363.924 73.9316Z" fill="white"/>
<path d="M392.82 75.5062L399.622 74.1246L399.915 74.6973L392.628 76.1777L392.82 75.5062ZM406.701 79.2124C406.766 79.1993 406.808 79.2413 406.828 79.3384C406.847 79.4356 406.825 79.4908 406.76 79.5039C406.452 79.5664 405.955 79.6506 405.268 79.7563C404.582 79.8621 404.084 79.9463 403.777 80.0088C403.372 80.091 402.897 80.2042 402.353 80.3485C401.809 80.4927 401.383 80.5961 401.076 80.6586C401.011 80.6717 400.969 80.6297 400.949 80.5326C400.929 80.4354 400.952 80.3802 401.017 80.3671C401.502 80.2684 401.841 80.1491 402.032 80.0092C402.219 79.853 402.288 79.6535 402.239 79.4106C402.189 79.1677 401.968 78.7827 401.574 78.2556L394.4 68.9631L395.065 67.1332L392.456 78.9442C392.345 79.4728 392.328 79.9315 392.407 80.3201C392.522 80.8869 392.812 81.275 393.276 81.4842C393.74 81.6935 394.336 81.7241 395.065 81.576C395.146 81.5596 395.197 81.5999 395.216 81.6971C395.236 81.7943 395.205 81.8511 395.124 81.8675C394.833 81.9267 394.409 81.9961 393.851 82.0755C393.229 82.1682 392.692 82.2605 392.238 82.3526C391.801 82.4415 391.294 82.5613 390.718 82.7121C390.206 82.8498 389.78 82.9531 389.44 83.0222C389.359 83.0387 389.309 82.9983 389.289 82.9011C389.269 82.804 389.3 82.7472 389.381 82.7307C389.834 82.6386 390.197 82.4722 390.468 82.2316C390.74 81.9909 390.975 81.6143 391.175 81.1016C391.371 80.5728 391.579 79.8138 391.8 78.8247L394.634 66.0067C394.657 65.9516 394.725 65.9125 394.838 65.8895C394.951 65.8664 395.021 65.8776 395.047 65.9228L403.436 76.7139C404.224 77.768 404.848 78.4759 405.309 78.8374C405.784 79.1795 406.247 79.3045 406.701 79.2124Z" fill="white"/>
<path d="M428.715 57.3169C428.734 57.2604 428.791 57.2191 428.887 57.1929C429.014 57.158 429.092 57.1623 429.121 57.2058L439.918 70.4682L437.408 71.1548L428.65 60.3671L429.22 58.4123L427.318 73.9143L426.601 74.1105L428.715 57.3169ZM426.315 78.3261C425.966 77.0509 425.609 75.9664 425.245 75.0724C425.114 74.7826 425.01 74.4943 424.931 74.2074C424.896 74.0798 424.883 73.998 424.89 73.9617C424.913 73.9211 424.98 73.8856 425.092 73.855L440.705 69.585C440.832 69.5501 440.908 69.5465 440.933 69.574C440.969 69.5812 441.007 69.6565 441.046 69.8C441.072 69.8956 441.117 70.1232 441.181 70.4825C441.323 71.4376 441.587 72.6244 441.975 74.043C441.997 74.1227 441.96 74.1756 441.865 74.2018C441.769 74.2279 441.71 74.2012 441.688 74.1215C440.987 71.5552 439.018 70.7145 435.782 71.5995L429.781 73.2408C428.426 73.6114 427.467 74.2077 426.904 75.0299C426.345 75.868 426.244 76.9406 426.602 78.2476C426.623 78.3273 426.586 78.3803 426.491 78.4064C426.395 78.4326 426.336 78.4058 426.315 78.3261Z" fill="white"/>
<path d="M453.449 56.714C454.455 56.3876 455.399 56.2725 456.281 56.3684C457.164 56.4644 457.917 56.7501 458.54 57.2254C459.158 57.6851 459.595 58.3079 459.85 59.0938C460.115 59.9112 460.129 60.7318 459.892 61.5555C459.651 62.3636 459.201 63.0916 458.542 63.7395C457.879 64.3717 457.06 64.8458 456.085 65.1619C455.629 65.3098 455.095 65.457 454.482 65.6036C454.273 65.6542 454.008 65.7226 453.689 65.8089C453.369 65.8951 453.013 66.002 452.62 66.1294L450.93 66.7037C450.637 66.8163 450.231 66.9567 449.712 67.125C449.665 67.1403 449.626 67.1008 449.595 67.0064C449.565 66.9121 449.573 66.8573 449.62 66.842C450.123 66.6789 450.488 66.5172 450.714 66.357C450.935 66.1811 451.056 65.9679 451.079 65.7172C451.118 65.4615 451.061 65.0978 450.908 64.6262L447.367 53.7096C447.219 53.2537 447.062 52.9311 446.896 52.7416C446.726 52.5364 446.502 52.4353 446.225 52.4383C445.943 52.4256 445.55 52.5008 445.047 52.6639C445.016 52.6741 444.985 52.6321 444.954 52.5378C444.924 52.4435 444.924 52.3912 444.955 52.381L446.189 52.0069C446.891 51.814 447.454 51.6487 447.878 51.511C448.319 51.3682 448.775 51.1943 449.247 50.989C449.414 50.9172 449.614 50.8352 449.844 50.743C450.091 50.6457 450.371 50.5461 450.685 50.4441C452.084 49.9903 453.24 49.9108 454.152 50.2056C455.064 50.5004 455.678 51.1351 455.995 52.1097C456.285 53.0056 456.194 53.9038 455.722 54.804C455.265 55.6992 454.462 56.4896 453.312 57.1753L453.449 56.714ZM450.438 51.0457C449.935 51.2089 449.622 51.4232 449.5 51.6887C449.393 51.9492 449.442 52.3938 449.646 53.0225L451.145 57.6438L450.242 57.7541C450.944 57.5612 451.554 57.3806 452.073 57.2124C453 56.9115 453.603 56.386 453.881 55.6357C454.169 54.8646 454.158 53.9996 453.847 53.0408C453.556 52.1448 453.12 51.522 452.537 51.1724C451.971 50.8177 451.271 50.7755 450.438 51.0457ZM455.532 64.742C457.654 64.0537 458.36 62.6171 457.652 60.4322C457.264 59.2375 456.639 58.3807 455.776 57.8616C454.928 57.3373 453.907 57.269 452.712 57.6565C451.832 57.942 451.124 58.2237 450.589 58.5016L451.252 57.9739L453.171 63.892C453.289 64.2535 453.42 64.5237 453.565 64.7026C453.725 64.8763 453.957 64.9749 454.26 64.9982C454.573 65.0008 454.997 64.9154 455.532 64.742Z" fill="white"/>
<path d="M474.147 51.3423L480.644 48.9017L481.024 49.4208L474.063 52.0358L474.147 51.3423ZM488.439 52.8053C488.501 52.782 488.549 52.8168 488.584 52.9096C488.619 53.0024 488.605 53.0605 488.543 53.0837C488.249 53.1941 487.772 53.3559 487.11 53.569C486.449 53.7821 485.971 53.9439 485.677 54.0543C485.291 54.1996 484.84 54.3865 484.326 54.615C483.811 54.8435 483.407 55.0129 483.113 55.1234C483.052 55.1466 483.003 55.1118 482.968 55.019C482.933 54.9262 482.947 54.8681 483.009 54.8449C483.473 54.6706 483.788 54.4992 483.954 54.3309C484.115 54.147 484.151 53.9391 484.064 53.7071C483.977 53.475 483.697 53.1299 483.225 52.6718L474.671 44.6317L475.038 42.7196L474.331 54.7946C474.305 55.3342 474.361 55.7897 474.5 56.161C474.704 56.7024 475.051 57.0397 475.543 57.1729C476.034 57.3061 476.628 57.2419 477.324 56.9804C477.401 56.9514 477.457 56.9833 477.492 57.0761C477.527 57.1689 477.506 57.2298 477.428 57.2589C477.15 57.3635 476.742 57.4991 476.204 57.6657C475.605 57.8556 475.088 58.0319 474.655 58.1946C474.238 58.3515 473.756 58.55 473.211 58.7901C472.727 59.007 472.323 59.1765 471.998 59.2985C471.921 59.3276 471.865 59.2957 471.83 59.2029C471.795 59.1101 471.817 59.0491 471.894 59.0201C472.327 58.8574 472.659 58.6357 472.889 58.3551C473.119 58.0746 473.291 57.6654 473.407 57.1277C473.517 56.5745 473.603 55.7921 473.664 54.7805L474.434 41.6755C474.448 41.6175 474.509 41.5681 474.617 41.5274C474.725 41.4868 474.796 41.4867 474.829 41.5273L484.82 50.8548C485.764 51.771 486.493 52.3712 487.005 52.6552C487.528 52.9179 488.005 52.968 488.439 52.8053Z" fill="white"/>
<path d="M17.4032 15.4984C17.1809 15.584 16.8778 15.4883 16.7515 15.7956C16.7465 15.8107 16.6353 15.8057 16.5899 15.7805C16.4535 15.7049 16.3272 15.6142 16.1706 15.5135C16.1706 15.4631 16.1706 15.3775 16.1756 15.2164C15.7866 15.5589 15.4431 15.171 15.1299 15.1861C15.0339 15.3725 14.9632 15.5085 14.8925 15.6445C14.7965 15.5337 14.7005 15.4229 14.5995 15.307C14.5692 15.3473 14.5237 15.4027 14.5338 15.3926C14.2509 15.3221 14.0236 15.2617 13.7811 15.2012C13.7811 15.1912 13.8417 15.035 13.8064 15.0149C13.7205 14.9544 13.5891 14.9494 13.4174 14.9091C13.5033 15.035 13.5538 15.1106 13.6043 15.1861C13.3416 15.3473 13.2456 15.3121 13.0738 15.03C13.0183 15.1861 12.9627 15.3574 12.9021 15.5236L12.791 15.5236C12.7707 15.3725 12.7303 15.2214 12.7303 15.0753C12.7303 14.8839 12.7253 14.7429 12.503 14.6472C12.4121 14.6069 12.3919 14.3953 12.3313 14.2392L12.205 14.3651C12.1747 14.2946 12.1292 14.2291 12.1241 14.1687C12.0787 13.3477 11.4118 12.844 11.1037 12.1539C11.0835 12.1136 10.9925 12.1036 10.937 12.0784C10.9117 12.154 10.8511 12.2446 10.8713 12.305C10.9976 12.6828 11.1491 13.0505 11.2805 13.4232C11.4219 13.8312 11.5533 14.2392 11.6897 14.6472C11.6644 14.6623 11.6392 14.6824 11.6139 14.6975C11.4219 14.627 11.2249 14.5515 11.0633 14.491C10.9117 14.3953 10.7854 14.3198 10.6642 14.2342C10.5985 14.1838 10.5227 14.1334 10.4823 14.0629C10.0024 13.2167 9.5326 12.3604 9.05773 11.5142C9.02237 11.4488 8.95165 11.4035 8.85061 11.3732C9.14866 12.2648 9.44671 13.1613 9.78013 14.1636C8.49194 13.9773 7.28458 13.801 6.07722 13.6197C6.06712 13.665 6.05702 13.7103 6.04691 13.7557C7.04715 14.1233 8.0474 14.486 9.07795 14.8688C8.99207 14.8839 8.92638 14.899 8.77988 14.9292C8.92133 14.9998 9.00217 15.0602 9.0931 15.0854C9.28507 15.1307 9.48713 15.1811 9.68414 15.1811C10.0277 15.1861 10.1944 15.3423 10.2853 15.6696C10.5429 16.6166 10.8309 17.5585 11.1037 18.5004C11.1239 18.5659 11.139 18.6364 11.1542 18.7018C11.2552 19.1904 11.1997 19.3113 10.8258 19.548C10.6541 19.4926 10.5227 19.4171 10.3914 19.4171C8.81019 19.402 7.22901 19.3868 5.64782 19.3919C4.96079 19.3919 4.27375 19.4473 3.58671 19.4825C3.50588 19.4825 3.42507 19.5077 3.34424 19.5934C3.71301 19.6589 4.07673 19.7344 4.44551 19.7848C5.71854 19.9711 6.99157 20.1424 8.25955 20.3287C8.53235 20.369 8.80009 20.4093 8.987 20.6763C9.04257 20.7518 9.26991 20.7468 9.40631 20.7216C9.62353 20.6864 9.8357 20.5353 10.0479 20.5453C10.5935 20.5705 11.139 20.641 11.6796 20.7267C12.2656 20.8173 12.8465 20.9483 13.4325 21.0591C13.4376 21.0943 13.4426 21.1296 13.4527 21.1598C12.796 21.3462 12.1393 21.5325 11.4826 21.7189C11.4876 21.7391 11.5028 21.7743 11.5179 21.8096C11.2047 21.5174 10.9117 21.9103 10.5733 21.8499C10.6288 21.7491 10.6642 21.6887 10.6995 21.6333C10.6844 21.6131 10.6793 21.5829 10.6692 21.5779C10.4116 21.5225 10.1994 21.4117 10.0075 21.2102C9.89632 21.0943 9.65383 21.1145 9.49218 21.0389C9.27495 20.9332 9.05774 20.8123 8.87082 20.6612C8.70917 20.5252 8.58287 20.5403 8.43637 20.641C8.43637 20.6763 8.43637 20.7065 8.44143 20.7115C8.92134 21.0188 8.76474 21.4268 8.63339 21.8348C8.60813 21.9154 8.59297 22.006 8.62328 22.1168C8.72937 21.9405 8.82536 21.7542 8.9466 21.593C8.99206 21.5325 9.14867 21.4671 9.18908 21.4973C9.45177 21.6836 9.6993 21.8952 9.98725 22.1319C9.85591 22.2327 9.78013 22.3032 9.6892 22.3586C9.35074 22.5651 9.00216 22.7263 8.59297 22.7918C8.19388 22.8572 7.76449 22.9429 7.44118 23.1595C7.18859 23.3307 6.93096 23.2753 6.69353 23.3861C6.5824 23.4415 6.4662 23.4919 6.33991 23.5523C6.10248 23.5473 5.82463 23.5372 5.63267 23.5322C5.52658 23.6531 5.47606 23.7689 5.39018 23.7941C4.78397 23.9905 4.16767 24.1517 3.56652 24.3633C2.74309 24.6554 1.92975 24.9929 1.11137 25.3001C0.848681 25.3958 0.575895 25.4613 0.313205 25.552C0.202068 25.5923 0.101036 25.6678 1.12462e-06 25.7283C0.0101046 25.7585 0.0151501 25.7887 0.0252536 25.8189C0.106081 25.8189 0.186909 25.8391 0.262685 25.829C1.38417 25.7031 2.5006 25.5771 3.62208 25.4361C3.99591 25.3908 4.36468 25.29 4.7385 25.2296C5.42554 25.1188 6.11258 25.0231 6.79962 24.9123C7.10272 24.8619 7.39572 24.7662 7.69882 24.7058C7.9211 24.6604 8.07265 24.7158 8.01708 25.0029C7.93625 25.4512 7.91099 25.9146 7.78975 26.3528C7.71902 26.6047 7.5018 26.8162 7.34519 27.0429C7.22395 27.2141 7.08756 27.3703 6.95622 27.5365C6.98148 27.5617 7.00169 27.5868 7.02695 27.612C7.20376 27.5063 7.38562 27.4005 7.59274 27.2746C7.56243 27.5113 7.53717 27.7128 7.51191 27.9193C7.54222 27.9293 7.57252 27.9344 7.59778 27.9445C7.67356 27.7783 7.76955 27.6171 7.81502 27.4458C7.9211 27.0479 8.13832 26.7608 8.5172 26.5795C8.71927 26.4838 8.89609 26.3276 9.06279 26.1765C9.87612 25.4563 10.6844 24.731 11.4876 24.0107C11.6897 23.8294 11.8665 23.7992 12.0787 24.0107C12.2252 24.1517 12.4171 24.2474 12.6495 24.3985C12.6091 24.0459 12.5788 23.7639 12.5485 23.4818C12.9678 23.3307 13.382 23.1695 13.8013 23.0285C14.4025 22.827 14.6449 22.9932 14.6955 23.6178C14.7712 24.5295 14.4631 24.9828 13.6043 25.3102C12.993 25.5469 12.3969 25.829 11.7958 26.0909C11.7351 26.1161 11.6846 26.1564 11.6341 26.1916C11.6442 26.2219 11.6493 26.2521 11.6594 26.2823C12.3717 26.1513 13.084 26.0204 13.8417 25.8793C13.6447 26.2722 13.4729 26.6399 13.281 26.9925C13.084 27.3602 12.8465 27.7077 12.6697 28.0855C12.3868 28.6798 11.912 28.977 11.2754 29.0626C11.0633 29.0929 10.8612 29.1533 10.6541 29.1986C10.6541 29.2289 10.6591 29.2591 10.6642 29.2893C11.0683 29.3145 11.4725 29.3346 11.9726 29.3648C11.5482 30.3017 11.0734 31.1227 10.6389 31.9639C10.2095 32.8 9.85591 33.6663 9.46692 34.5226L9.5326 34.5679C9.74477 34.306 9.96704 34.0491 10.1691 33.7771C10.6339 33.1475 11.0885 32.5129 11.5482 31.8833C11.8008 31.5357 11.8513 31.5307 12.2302 31.7422C12.2959 31.7775 12.3666 31.8127 12.4373 31.853C12.4373 31.8127 12.4525 31.7876 12.4424 31.7775C12.0231 31.2386 12.0281 31.1076 12.4474 30.5183C12.6495 30.2362 12.8314 29.9391 13.0132 29.6419C13.1143 29.4757 13.1951 29.3044 13.281 29.1332C13.3517 29.1432 13.4224 29.1533 13.4931 29.1634C13.4325 30.0096 13.3719 30.8608 13.3113 31.707C13.3618 31.707 13.4174 31.712 13.4679 31.7171C13.5033 31.5357 13.5184 31.3443 13.5841 31.1731C13.6952 30.891 13.8165 30.609 13.9832 30.3622C14.3267 29.8635 14.7056 29.39 15.0743 28.9065C15.0945 28.8763 15.135 28.8612 15.1602 28.841C15.5492 31.0875 15.9382 33.3238 16.3221 35.5652C16.3625 35.5652 16.4029 35.5602 16.4434 35.5551C16.4535 35.4746 16.4686 35.3939 16.4686 35.3134C16.4686 34.2909 16.4585 33.2684 16.4585 32.2409C16.4585 32.0092 16.4029 31.8329 16.1301 31.8228C16.1655 31.5156 16.5393 31.2637 16.2413 31.0018C16.307 30.8406 16.3979 30.7198 16.3979 30.6039C16.3878 30.1657 16.3676 29.7326 16.3171 29.2994C16.2969 29.1281 16.1706 28.972 16.1706 28.836C16.2059 28.705 16.2817 28.569 16.2767 28.4381C16.2463 27.9092 16.2009 27.3803 16.1453 26.8565C16.1352 26.7507 16.0594 26.65 16.0392 26.6047C16.0645 26.4082 16.1049 26.2571 16.0897 26.1161C16.0847 26.0657 15.9483 26.0254 15.8725 25.9801C15.8422 26.0506 15.7866 26.1211 15.7917 26.1866C15.8018 26.4183 15.918 26.65 15.7462 26.8867C15.7159 26.932 15.7967 27.063 15.827 27.1537C15.8018 27.1688 15.7765 27.1839 15.7513 27.199C15.7008 27.1134 15.6351 27.0328 15.5997 26.9371C15.5593 26.8162 15.5391 26.6903 15.5088 26.5392C15.6906 26.4032 15.6502 26.3024 15.534 26.0607C15.332 25.6476 15.1754 25.2044 15.3673 24.731C15.3976 24.6504 15.4279 24.5748 15.4734 24.4489C15.3421 24.4741 15.2613 24.4892 15.1198 24.5194C15.2107 24.3431 15.2865 24.197 15.3572 24.051C15.3421 24.051 15.3269 24.051 15.3118 24.056C15.3118 23.9452 15.2966 23.8344 15.3017 23.7186C15.3017 23.5171 15.3623 23.3005 15.3017 23.1141C15.2208 22.8522 15.2916 22.5349 15.0238 22.3334C14.8874 22.2276 14.7813 22.1168 14.5894 22.2478C14.5035 22.3032 14.357 22.2629 14.2408 22.283C13.9327 22.3334 13.6194 22.3636 13.3163 22.4493C13.1597 22.4946 13.0183 22.6155 12.8819 22.7212C12.8566 22.7363 12.892 22.827 12.9021 22.9378C12.7758 23.094 12.6394 22.9479 12.4373 22.7716C12.4727 22.9429 12.4929 23.0436 12.5131 23.1494C12.3515 23.094 12.1797 23.0386 11.9928 22.9731C12.0484 22.9328 12.109 22.8925 12.1696 22.8472C12.1191 22.7112 12.0736 22.5752 11.9978 22.3687C12.1696 22.4291 12.2908 22.4694 12.4474 22.5299C12.4171 22.4291 12.3868 22.3485 12.3515 22.2478C12.4727 22.1773 12.604 22.1017 12.7455 22.0211C12.6141 21.9204 12.4929 21.8348 12.3717 21.7441C12.3868 21.7189 12.402 21.6988 12.4171 21.6736C12.6141 21.729 12.8112 21.7844 13.0082 21.8398C13.0031 21.87 12.993 21.9003 12.988 21.9305C13.0991 21.9103 13.2456 21.6585 13.281 21.9657C13.5285 21.8247 13.7457 21.6937 13.968 21.5779C14.0236 21.5477 14.1044 21.5426 14.1701 21.5426C14.3873 21.5477 14.5641 21.5124 14.5995 21.2555C14.9093 21.4167 15.0878 21.3294 15.135 20.9936C15.3421 21.0339 15.5492 20.8929 15.7816 21.0692C15.8877 21.1498 16.1554 21.0138 16.3474 20.9785C16.3827 20.9735 16.4231 20.9584 16.4585 20.9483C16.4838 20.9684 16.509 20.9886 16.5343 21.0037C16.4585 21.1095 16.3827 21.2152 16.307 21.3311C16.5696 21.8297 16.4029 22.0614 15.7513 22.0463C15.7664 22.4342 15.7715 22.8169 15.7967 23.1997C15.8068 23.3257 15.9028 23.4466 15.8978 23.5624C15.8826 23.9905 15.9988 24.4035 15.9887 24.8317C15.9887 24.9072 15.9533 24.9828 15.918 25.1339C16.0746 25.1238 16.2261 25.144 16.3474 25.0986C17.186 24.7864 18.0245 24.459 18.8631 24.1416C18.944 24.1114 19.0349 24.1014 19.1561 24.0711C19.1965 24.2877 19.2471 24.4791 19.2572 24.6705C19.3178 25.7686 19.3632 26.8716 19.4239 27.9697C19.439 28.2416 19.3279 28.3978 19.0854 28.4985C18.7975 28.6144 18.5146 28.7554 18.2317 28.8813C18.2367 28.9065 18.2468 28.9317 18.2519 28.9569C18.4539 28.982 18.6611 29.0022 18.8631 29.0274C19.0096 29.0425 19.2218 29.0123 19.2925 29.0929C19.4794 29.3246 19.6714 29.5865 19.7421 29.8685C19.9391 30.6694 20.0402 31.4904 20.2422 32.2912C20.606 33.757 20.9949 35.2177 21.6315 36.5927C21.6719 36.6784 21.7174 36.759 21.8184 36.8194C21.7628 36.079 21.7325 35.3386 21.6517 34.6032C21.5355 33.5001 21.4395 32.392 21.2475 31.304C21.1364 30.6593 21.1212 30.0146 21.0556 29.3749C20.9899 28.7352 20.8687 28.1057 20.7676 27.471C20.707 27.1033 20.6312 26.7356 20.5858 26.3629C20.5656 26.2118 20.6413 26.0557 20.6312 25.8995C20.5959 25.3354 20.5352 24.7763 20.4948 24.2122C20.4847 24.0812 20.5201 23.9452 20.5403 23.7286C20.7121 23.8545 20.8333 23.9301 20.9394 24.0258C22.3387 25.3001 23.7229 26.5946 25.1374 27.8488C25.6021 28.2618 26.1427 28.5942 26.6529 28.9619C26.6882 28.9871 26.7388 28.9921 26.855 29.0375C25.2536 26.8414 23.2985 25.0634 21.5203 23.1141C22.0609 22.686 22.5963 22.827 23.1167 23.0587C23.7077 23.3206 24.2786 23.6228 24.8646 23.8898C24.9606 23.9351 25.0868 23.8999 25.203 23.8999C25.1778 23.7488 25.1576 23.6027 25.1222 23.3811C25.1929 23.4113 25.3293 23.4214 25.3596 23.4868C25.5668 23.915 25.7688 24.3482 25.9355 24.7914C26.2841 25.7232 26.7792 26.5795 27.2591 27.4458C27.2742 27.476 27.3096 27.5012 27.3955 27.5113C27.3197 27.0076 27.2591 26.4989 27.1581 26.0002C27.0823 25.6376 26.9358 25.285 26.855 24.9224C26.7842 24.6 26.7792 24.2575 26.7034 23.9351C26.5923 23.4566 26.4508 22.9882 26.3195 22.5198C26.2993 22.4442 26.2791 22.3687 26.2487 22.2982C26.1982 22.1873 26.1326 22.0866 26.0214 22.006C26.0416 21.9053 26.0618 21.8046 26.082 21.7089C26.1022 21.7038 26.1275 21.6988 26.1477 21.6937C26.1881 21.7894 26.2184 21.8952 26.2639 21.9859C26.3498 22.1571 26.4053 22.3788 26.5417 22.4896C27.5066 23.2602 28.4765 24.0208 29.4768 24.7511C30.1032 25.2095 30.7751 25.6023 31.4268 26.0254C31.4621 26.0506 31.5025 26.0657 31.5733 26.0506C31.5329 26.0053 31.4975 25.9499 31.452 25.9096C30.6538 25.1289 29.8708 24.3381 29.0575 23.5675C28.6685 23.1998 28.229 22.8824 27.8299 22.5299C27.4915 22.2277 27.1631 21.9103 26.8448 21.5879C26.6933 21.4368 26.7236 21.3009 26.9307 21.2303C27.0419 21.1951 27.1631 21.185 27.2793 21.1548C27.5622 21.0792 27.8451 21.0037 28.1229 20.9181C28.1633 20.908 28.2088 20.8576 28.224 20.8173C28.3654 20.4244 28.7594 20.4194 29.0676 20.3136C29.3909 20.2028 29.7041 20.0416 30.0779 20.1474C30.3154 20.2129 30.5932 20.2633 30.8155 20.1928C31.5126 19.9762 32.2098 20.1928 32.9019 20.1222C33.7303 20.0467 34.4831 20.3993 35.2661 20.5705C35.4176 20.6058 35.5692 20.6461 35.7207 20.6813C35.7308 20.6511 35.746 20.6209 35.7561 20.5907C34.7053 20.0668 33.6546 19.543 32.5988 19.0192C33.892 18.4953 35.1802 17.9715 36.4734 17.4477C36.4684 17.4174 36.4583 17.3872 36.4532 17.3621C35.1196 17.5686 33.7859 17.7751 32.4472 17.9816C32.3815 17.5484 32.6493 16.9893 32.9675 16.8029C33.3009 16.6065 33.6243 16.3899 33.9627 16.2036C34.1496 16.1028 34.3669 16.0474 34.5689 15.9668C34.5689 15.9417 34.574 15.9114 34.579 15.8863C34.4527 15.8762 34.3315 15.851 34.2052 15.8611C33.9274 15.8812 33.6495 15.9417 33.3767 15.9417C33.0484 15.9417 32.725 15.8963 32.3967 15.8711C34.0183 14.7781 35.6096 13.5643 36.9432 12.0482C35.0084 13.1059 33.0686 14.1687 31.0832 15.2567C31.356 14.5263 31.6137 13.8514 31.8663 13.1815C31.8461 13.1714 31.8258 13.1613 31.8056 13.1512C31.6389 13.4383 31.4722 13.7204 31.3005 14.0075C31.3106 13.3174 31.3459 12.6425 31.937 12.1439C31.9168 12.1237 31.8915 12.1036 31.8713 12.0834C31.7602 12.1388 31.644 12.1942 31.4924 12.2698C31.4975 12.0985 31.5025 11.9525 31.5076 11.7762C31.4621 11.8215 31.4268 11.8416 31.4217 11.8618C31.2803 12.5619 30.7195 12.9095 30.2244 13.3124C29.7951 13.665 29.3758 14.0327 28.9716 14.4155C28.5271 14.8285 28.1078 15.2617 27.6784 15.6898C27.84 15.7402 28.0017 15.7805 28.1583 15.8409C28.3048 15.9014 29.1333 15.7956 29.204 15.6596C29.3657 15.3624 29.7799 15.2214 29.7496 14.7932C29.7496 14.7278 29.8203 14.6573 29.8658 14.5968C29.9921 14.4306 30.1285 14.2745 30.2447 14.1082C30.3507 13.9521 30.4366 13.7859 30.5478 13.5945C30.5882 13.6045 30.669 13.6146 30.7498 13.6297C30.6589 13.9622 30.5831 14.2694 30.4922 14.5767C30.3457 15.0854 30.1487 15.5739 29.7193 15.9215C29.5122 16.0877 29.2798 16.2237 29.0676 16.3748C28.7898 16.5713 28.4564 16.4856 28.2391 16.3647C28.0017 16.2338 27.8653 15.9215 27.6885 15.6848C27.3955 15.3473 27.1025 15.0149 26.8196 14.6724C26.7792 14.622 26.7741 14.5313 26.764 14.4558C26.6731 13.5794 26.5822 12.708 26.4912 11.8316C26.4559 11.8316 26.4256 11.8316 26.3902 11.8316C26.3346 12.5015 26.2791 13.1664 26.2184 13.9269C25.9204 13.5995 25.6425 13.3678 25.6021 12.9901C25.5668 12.6728 25.5617 12.3554 25.5415 12.0381C25.5213 11.7863 25.496 11.5344 25.4657 11.2826C25.4001 10.7033 25.3091 10.1291 25.2738 9.5499C25.2536 9.17717 25.3091 8.79942 25.3546 8.42669C25.3647 8.35617 25.4455 8.28061 25.5112 8.23025C26.663 7.28332 27.8198 6.33638 28.9666 5.38946C29.0828 5.29376 29.1686 5.1628 29.2697 5.04695C29.2545 5.02681 29.2394 5.00666 29.2192 4.98651C29.0676 5.0671 28.911 5.14265 28.7645 5.23332C27.643 5.91833 26.5215 6.59327 25.4051 7.28836C24.905 7.60064 24.42 7.94313 23.9401 8.2806C23.8492 8.34608 23.7835 8.45186 23.7077 8.54253C23.7582 8.6483 23.8239 8.74904 23.8542 8.85985C23.8542 8.87496 23.733 8.93035 23.6673 8.97065C23.6218 9.04116 23.5915 9.13185 23.5309 9.18222C23.4804 9.22251 23.3895 9.21747 23.3188 9.23762C23.3289 9.18221 23.339 9.12175 23.344 9.06635C23.3541 9.00591 23.3491 8.94547 23.3693 8.88503C23.3895 8.82962 23.4248 8.77926 23.4551 8.72889C23.1722 8.47705 23.3642 8.20001 23.4501 7.96328C23.6117 7.50493 23.6623 7.3236 23.541 7.05665C23.6421 7.08184 23.7178 7.10199 23.7936 7.12213C23.7784 7.10199 23.7633 7.08184 23.7481 7.05665C24.0209 6.87533 24.2786 6.64866 24.5766 6.51266C25.5415 6.08453 26.5215 5.69166 27.4965 5.28367C27.5925 5.24338 27.6834 5.19304 27.7643 5.12252C27.2692 5.13763 26.8044 5.20308 26.3498 5.40959C26.0214 5.5607 25.6375 5.59597 25.2788 5.67656C24.9707 5.74708 24.6574 5.80249 24.3493 5.87805C24.1624 5.92338 24.0613 5.85789 24.0816 5.6816C24.1371 5.23332 24.2028 4.78503 24.2887 4.34178C24.5463 2.94658 24.809 1.55137 25.0717 0.156164C25.0818 0.115869 25.0616 0.0654961 25.0616 0.0252013C25.0313 0.0151276 25.006 0.0100969 24.9757 2.32271e-05C24.3998 1.39523 23.8189 2.7854 23.2278 4.2209C22.9752 4.02447 22.7883 3.87841 22.5963 3.73234C22.566 3.74242 22.5357 3.75753 22.5004 3.76761C23.1066 4.37203 22.9853 5.01169 22.657 5.66648C22.3488 5.64633 22.2983 5.39449 22.1973 5.19301C22.1518 5.10235 22.1316 4.9966 22.071 4.93112C21.5911 4.44758 21.6264 3.83812 21.6517 3.2337C21.6668 2.8912 21.687 2.54363 21.7022 2.20112C21.6466 2.19105 21.591 2.18602 21.5355 2.17595C21.4294 2.58897 21.3233 3.002 21.192 3.50568C20.51 2.43283 19.8735 1.4305 19.2319 0.423132C19.2016 0.438243 19.1713 0.458378 19.141 0.473488C19.2673 0.750515 19.3885 1.0326 19.5198 1.30962C20.0048 2.35729 20.4898 3.39991 20.9697 4.45261C21.0253 4.57349 21.0404 4.72459 21.0253 4.85555C20.9343 5.68663 20.8282 6.51268 20.7222 7.34376C20.7121 7.41427 20.6969 7.47974 20.6868 7.55025C20.5757 8.05897 20.4039 8.10935 19.9644 7.83736C18.8379 7.14227 17.7012 6.46733 16.5646 5.78736C16.5343 5.76721 16.4888 5.76721 16.413 5.78736C16.4686 5.84276 16.5191 5.90825 16.5797 5.95358C17.6305 6.73933 18.6813 7.52507 19.7371 8.31082C20.1968 8.65333 20.4797 9.07139 20.4494 9.67078C20.3887 10.8897 20.3433 12.1137 20.2928 13.3326C20.2726 13.7909 20.0856 14.1939 19.8432 14.5767C19.7977 14.6472 19.7623 14.7429 19.7674 14.8235C19.7926 15.2566 19.5047 15.574 19.0601 15.5689C18.853 15.5689 18.6459 15.5387 18.4337 15.5236C18.2064 15.4833 17.9791 15.443 17.7517 15.4027C17.7618 15.4783 17.7518 15.5891 17.7922 15.6193C17.9639 15.7351 17.9134 15.8107 17.7669 15.9165C17.7366 15.5286 17.5093 15.9165 17.3981 15.7754C17.3981 15.7049 17.4032 15.6092 17.4082 15.5135L17.4032 15.4984ZM16.797 19.8956C16.3373 19.9611 15.9735 19.9963 15.6199 20.0719C15.3673 20.1222 15.2663 20.0064 15.1754 19.8049C15.0996 19.6387 14.9784 19.4926 14.8824 19.3365C14.8925 19.3365 14.9026 19.3365 14.9127 19.3365C14.7864 19.0091 14.6652 18.6817 14.5389 18.3543C14.5187 18.3845 14.4984 18.4147 14.4782 18.445C14.357 18.4298 14.2307 18.4148 14.1297 18.3996C14.1044 17.9614 14.069 17.5685 14.069 17.1807C14.069 17.0649 14.1347 16.9188 14.2206 16.8382C14.357 16.7022 14.5439 16.6115 14.6955 16.4907C14.9076 16.3244 15.0996 16.1734 15.4128 16.2338C16.115 16.3698 16.8323 16.4554 17.5396 16.5713C17.6255 16.5864 17.7366 16.6418 17.772 16.7123C18.1508 17.4628 18.4691 18.2284 18.4489 19.0947C18.4489 19.266 18.4034 19.3768 18.2216 19.4221C17.8427 19.5128 17.4688 19.6991 17.0698 19.4926C17.0142 19.4624 16.9435 19.4523 16.8728 19.4322C16.8829 19.6236 17.2163 19.679 16.898 19.825C16.999 19.8553 17.0597 19.8754 17.1152 19.8905C17.0041 19.9711 16.9031 20.0416 16.8071 20.1122C16.8829 20.1877 16.9839 20.2431 16.9738 20.2885C16.9637 20.3539 16.8879 20.4244 16.8222 20.4647C16.7364 20.5201 16.5848 20.5201 16.5444 20.5907C16.4232 20.8072 16.2514 20.8223 16.1402 20.8022C15.9584 20.6007 15.8321 20.4597 15.7108 20.3187C15.7866 20.2784 15.8624 20.2381 15.9483 20.1978C16.0342 20.2834 16.1049 20.369 16.1908 20.4345C16.2362 20.4698 16.3474 20.5 16.3676 20.4799C16.509 20.3086 16.6353 20.1273 16.797 19.9157L16.797 19.8956ZM24.8242 9.10665C24.6019 10.2148 24.3847 11.3229 24.1523 12.4864C24.0866 12.295 24.0361 12.159 23.9856 12.0179C23.9654 12.0179 23.9452 12.023 23.925 12.028C23.93 12.6224 23.9401 13.2117 23.9452 13.806L23.8896 13.806C23.7936 13.5995 23.7027 13.388 23.6067 13.1764L23.5309 13.2067C23.5663 13.3981 23.6067 13.5894 23.6269 13.7859C23.6623 14.1385 23.6976 14.4961 23.7128 14.8487C23.7178 15.0098 23.6269 15.0955 23.4602 15.0048C23.0763 14.7933 22.6923 14.5817 22.3185 14.3601C22.2528 14.3198 22.1821 14.2291 22.172 14.1586C22.1417 13.9168 22.076 13.6499 22.1366 13.4232C22.3589 12.5821 22.6166 11.746 22.8792 10.9149C23.0358 10.4112 23.243 9.92765 23.6623 9.57508C23.9755 9.30812 24.2685 8.98073 24.8292 9.10665L24.8242 9.10665ZM13.8468 19.8805C13.6649 19.8402 13.579 19.7999 13.4982 19.8049C13.185 19.8301 12.9476 19.815 12.6849 19.5329C12.3868 19.2106 12.1494 18.8781 12.013 18.4853C11.7149 17.6441 11.4422 16.7929 11.1593 15.9417C11.1037 15.7754 11.0431 15.6143 10.9824 15.4481C11.528 15.3675 12.1191 15.6596 12.311 16.1079C12.7051 17.0397 13.084 17.9816 13.4679 18.9184C13.5891 19.2156 13.7053 19.5178 13.8518 19.8855L13.8468 19.8805ZM6.38537 23.7488C6.57228 23.8697 6.69352 23.9502 6.84002 24.0459C6.86023 23.9049 6.87539 23.8143 6.8956 23.6833C7.08756 23.7588 7.24417 23.8243 7.40077 23.8848C7.43613 23.5523 7.43108 23.5574 7.70388 23.7387C7.74429 23.7639 7.89079 23.7185 7.89079 23.7085C7.89079 23.4818 8.03729 23.502 8.1939 23.4919C8.37576 23.4818 8.39596 23.4315 8.37575 23.2451C8.37575 23.2048 8.43638 23.1192 8.46164 23.1192C8.58793 23.1343 8.71927 23.1695 8.84052 23.2048C8.91629 23.23 8.99206 23.2703 9.06783 23.3005C9.07794 23.24 9.06784 23.1796 9.0931 23.1242C9.10826 23.089 9.15877 23.0637 9.19918 23.0386C9.33558 22.9378 9.47703 22.8421 9.61343 22.7464C9.60332 22.7364 9.59322 22.7213 9.58312 22.7112C9.71446 22.6961 9.85085 22.6759 10.0024 22.6558C9.9721 22.7515 9.94683 22.8321 9.91652 22.9177C9.94178 22.9328 9.96704 22.9479 9.99735 22.963C10.0479 22.8925 10.1186 22.827 10.1489 22.7464C10.2904 22.3888 10.4924 22.2881 10.8713 22.3989C10.9168 22.414 10.9976 22.3989 11.0279 22.3636C11.3613 22.0413 11.7604 22.2982 12.1292 22.2579C11.8917 22.3334 11.6594 22.409 11.3866 22.4946C11.2956 22.6457 11.2754 22.9832 10.8814 22.7666C10.8966 22.8673 10.9067 22.9429 10.9269 23.0638C10.8359 22.9933 10.7854 22.953 10.7198 22.9026C10.7299 23.1393 10.6339 23.2401 10.4318 23.2501C10.351 23.2501 10.2752 23.2602 10.1944 23.2703C9.79529 23.3257 9.7094 23.512 9.93673 23.8243C9.94683 23.8394 9.93673 23.8596 9.93673 23.8495C9.6892 23.9855 9.45177 24.1114 9.18909 24.2575C9.2295 24.0661 9.2699 23.8697 9.30527 23.6833C9.13856 23.6228 8.91628 24.0762 8.76473 23.5675C8.71421 23.7589 8.6738 23.8999 8.62834 24.0661C9.04258 23.91 9.07289 23.9301 9.02743 24.2776C8.87082 24.1165 8.65359 24.6201 8.53235 24.2373C8.22925 24.323 7.93624 24.4035 7.64324 24.4841L7.61294 24.4136C7.70387 24.2776 7.7948 24.1467 7.90089 23.9905C7.76954 23.9502 7.67862 23.92 7.65336 23.915C7.50181 24.0006 7.38057 24.0409 7.30984 24.1265C7.24417 24.2021 7.23406 24.328 7.17849 24.4892C6.81477 24.4388 6.39548 24.3834 5.97618 24.328C5.97618 24.2827 5.97618 24.2424 5.97618 24.1971C6.16815 24.1769 6.35506 24.1568 6.55713 24.1316C6.51671 24.051 6.4662 23.9402 6.38537 23.774L6.38537 23.7488ZM21.6163 5.83774C21.6517 5.82767 21.682 5.8176 21.7174 5.80752C21.8083 6.13492 21.9699 6.46232 21.9699 6.78971C21.9649 7.3488 21.8689 7.91291 21.778 8.46696C21.7527 8.63318 21.5911 8.77421 21.5507 8.94043C21.4496 9.38871 21.389 9.8521 21.288 10.3004C21.2324 10.5422 21.1212 10.7738 21.0404 11.0106L20.9192 10.9955C20.9192 10.8192 20.8586 10.5975 20.9394 10.4817C21.0758 10.3004 21.0101 10.2097 20.8687 10.0788C21.1869 9.83699 20.7727 9.33331 21.2526 9.13687C21.1162 9.0311 20.9899 8.93036 20.8535 8.82459C20.9545 8.75407 21.0404 8.69364 21.1111 8.64831C21.0707 8.54254 21.0253 8.46698 21.0101 8.38639C20.9444 8.02877 21.1111 7.71145 21.2122 7.38406C21.2324 7.31858 21.2627 7.25814 21.2627 7.19266C21.2728 6.80482 21.2728 6.41698 21.2779 6.02915C21.2779 6.00396 21.3031 5.9838 21.3183 5.94854C21.3738 6.00898 21.4193 6.06439 21.49 6.13994C21.5405 6.01906 21.5759 5.92841 21.6113 5.84278L21.6163 5.83774ZM23.7077 16.531C23.5259 16.5763 23.3996 16.6317 23.2733 16.6317C22.9651 16.6267 22.657 16.5763 22.3539 16.5713C22.0558 16.5713 21.7578 16.6065 21.4597 16.6116C21.2576 16.6116 21.1617 16.5108 21.2324 16.3043C21.3183 16.0525 21.4041 15.7956 21.5203 15.5538C21.5557 15.4783 21.7376 15.3826 21.783 15.4128C22.4094 15.7805 23.243 15.7855 23.7128 16.531L23.7077 16.531ZM13.7963 30.1708C13.8468 29.8585 13.8922 29.6066 13.9225 29.3548C13.9327 29.244 13.8771 29.1231 13.9023 29.0173C14.0286 28.5086 14.1701 28.0049 14.3065 27.5012C14.357 27.3048 14.3671 27.0781 14.4732 26.922C14.5793 26.7658 14.7864 26.6752 15.0339 26.4989C14.9834 27.0529 15.0339 27.5869 14.8723 28.0351C14.6045 28.7554 14.1852 29.4203 13.7963 30.1708ZM26.9257 16.7022C26.9156 16.7425 26.9055 16.7828 26.8954 16.8231C26.3952 16.6065 25.8951 16.3899 25.4708 16.2086C25.395 16.0474 25.3495 15.9517 25.3344 15.9215C25.3546 15.7905 25.3596 15.71 25.3798 15.6344C25.4556 15.3775 25.1778 15.0199 25.6678 14.8638C25.5668 14.6522 25.4809 14.4659 25.3899 14.2795C25.6829 14.3349 25.6375 14.0277 25.7082 13.796C25.784 13.9823 25.8497 14.1284 25.9002 14.2745C25.976 14.4961 26.0871 14.7177 26.1073 14.9444C26.1376 15.3171 26.1174 15.6999 26.0871 16.0726C26.0669 16.2993 26.173 16.395 26.3548 16.4655C26.5468 16.541 26.7388 16.6216 26.9307 16.7022L26.9257 16.7022ZM22.5812 9.46929C22.7631 10.1593 22.5458 10.6378 21.778 11.207C21.7376 11.1012 21.6668 11.0106 21.6618 10.9099C21.6517 10.6479 21.6466 10.381 21.687 10.1241C21.7729 9.57005 21.8184 9.54485 22.3488 9.6053C22.3589 9.6053 22.369 9.58013 22.3842 9.55998C22.3034 9.51969 22.2225 9.47937 22.1366 9.43907C22.1366 9.42396 22.1467 9.41391 22.1518 9.3988C22.2932 9.42398 22.4397 9.44411 22.5812 9.46929ZM23.2531 18.1478C23.1369 18.1428 23.0662 18.1478 23.0005 18.1327C22.8287 18.0773 22.6721 18.042 22.5812 18.2636C22.5711 18.2888 22.4802 18.2787 22.4246 18.2888C22.1568 18.3392 21.8841 18.3845 21.6163 18.45C21.293 18.5306 20.9697 18.6263 20.6161 18.727C20.6818 18.3442 20.8939 18.1025 21.197 18.0269C21.8487 17.8657 22.5105 17.76 23.1419 17.6391C23.1874 17.8557 23.2177 17.9816 23.2531 18.1478ZM23.8896 22.001C24.2432 21.9103 24.5059 21.8297 24.7736 21.7844C24.8444 21.7743 24.9858 21.86 25.001 21.9254C25.097 22.2881 25.1727 22.6608 25.2333 23.0285C25.2586 23.1796 25.1475 23.2451 25.0363 23.1393C24.6726 22.7918 24.319 22.4341 23.8896 22.001ZM31.9168 16.9641C31.7854 17.1958 31.5531 17.3217 31.2803 17.4023C31.0782 17.4628 30.8711 17.5131 30.7145 17.6844C30.6488 17.7549 30.4922 17.7449 30.376 17.7751C30.3912 17.6643 30.3609 17.5182 30.4215 17.4477C30.664 17.1807 30.9115 16.9138 31.1994 16.6972C31.2954 16.6267 31.5076 16.667 31.649 16.7073C31.74 16.7325 31.8107 16.8533 31.9218 16.9641L31.9168 16.9641ZM20.318 21.0893C20.2978 21.054 20.2726 21.0188 20.2524 20.9886C20.3534 20.913 20.4494 20.8173 20.5605 20.7619C20.7575 20.6713 20.9697 20.6058 21.1768 20.5302C21.687 20.3439 22.1973 20.1575 22.7277 19.9661C22.1316 20.8576 21.192 20.8929 20.318 21.0893ZM32.3613 17.211C32.1441 17.6542 31.8713 17.9816 31.4369 18.2032C31.0984 18.3745 30.8913 18.2385 30.568 17.9967C31.1944 17.7197 31.7602 17.4729 32.3613 17.211ZM4.91028 24.0359C5.08709 24.0812 5.31441 24.0812 5.34977 24.1618C5.42555 24.3331 5.50637 24.2575 5.6074 24.2525C5.67307 24.2525 5.73875 24.2877 5.80443 24.3079C5.76401 24.3733 5.74381 24.469 5.68319 24.4942C5.51648 24.5798 5.33461 24.6352 5.13759 24.7108C5.06182 24.4841 5.00121 24.2978 4.91028 24.0359ZM9.80034 24.2726C9.42651 24.6453 9.07794 24.9929 8.70411 25.3656C8.84051 24.8015 9.36589 24.2726 9.80034 24.2726ZM20.0099 19.6941C19.7068 19.951 19.4441 20.1726 19.1662 20.4043C19.2521 20.1373 19.3279 19.8855 19.4239 19.5883C19.6108 19.6186 19.828 19.6589 20.0099 19.6891L20.0099 19.6941ZM13.4174 16.128C13.4275 16.0726 13.4376 15.992 13.4527 15.8863C13.7609 15.9568 14.0539 16.0273 14.3418 16.0928C14.0286 16.2288 13.7356 16.4403 13.4174 16.128ZM31.3712 19.5531C31.3813 19.5228 31.3964 19.4926 31.4066 19.4624C31.8056 19.3566 32.1087 19.6588 32.4624 19.7394C32.1896 19.7948 31.9117 19.538 31.5935 19.7445C31.5429 19.7042 31.4571 19.6286 31.3712 19.5531ZM27.3197 19.407C27.6935 19.2408 28.032 19.0897 28.3705 18.9386C28.3806 18.9587 28.3907 18.9839 28.4008 19.0041C28.0573 19.1955 27.7188 19.3869 27.3551 19.5883C27.3399 19.5027 27.3248 19.4423 27.3197 19.407ZM26.178 22.8925C26.274 23.0033 26.3649 23.1141 26.4609 23.2199C26.2117 23.193 26.1174 23.0839 26.178 22.8925Z" fill="white"/>
<path d="M536.809 15.4984C536.587 15.584 536.284 15.4883 536.158 15.7956C536.153 15.8107 536.042 15.8057 535.996 15.7805C535.86 15.7049 535.733 15.6142 535.577 15.5135C535.577 15.4631 535.577 15.3775 535.582 15.2164C535.193 15.5589 534.849 15.171 534.536 15.1861C534.44 15.3725 534.369 15.5085 534.299 15.6445C534.203 15.5337 534.107 15.4229 534.006 15.307C533.975 15.3473 533.93 15.4027 533.94 15.3926C533.657 15.3221 533.43 15.2617 533.187 15.2012C533.187 15.1912 533.248 15.035 533.213 15.0149C533.127 14.9544 532.995 14.9494 532.824 14.9091C532.91 15.035 532.96 15.1106 533.011 15.1861C532.748 15.3473 532.652 15.3121 532.48 15.03C532.425 15.1861 532.369 15.3574 532.308 15.5236L532.197 15.5236C532.177 15.3725 532.137 15.2214 532.137 15.0753C532.137 14.8839 532.132 14.7429 531.909 14.6472C531.818 14.6069 531.798 14.3953 531.738 14.2392L531.611 14.3651C531.581 14.2946 531.535 14.2291 531.53 14.1687C531.485 13.3477 530.818 12.844 530.51 12.1539C530.49 12.1136 530.399 12.1036 530.343 12.0784C530.318 12.154 530.257 12.2446 530.278 12.305C530.404 12.6828 530.555 13.0505 530.687 13.4232C530.828 13.8312 530.96 14.2392 531.096 14.6472C531.071 14.6623 531.045 14.6824 531.02 14.6975C530.828 14.627 530.631 14.5515 530.47 14.491C530.318 14.3953 530.192 14.3198 530.07 14.2342C530.005 14.1838 529.929 14.1334 529.889 14.0629C529.409 13.2167 528.939 12.3604 528.464 11.5142C528.429 11.4488 528.358 11.4035 528.257 11.3732C528.555 12.2648 528.853 13.1613 529.186 14.1636C527.898 13.9773 526.691 13.801 525.483 13.6197C525.473 13.665 525.463 13.7103 525.453 13.7557C526.453 14.1233 527.454 14.486 528.484 14.8688C528.398 14.8839 528.333 14.899 528.186 14.9292C528.328 14.9998 528.408 15.0602 528.499 15.0854C528.691 15.1307 528.893 15.1811 529.09 15.1811C529.434 15.1861 529.601 15.3423 529.692 15.6696C529.949 16.6166 530.237 17.5585 530.51 18.5004C530.53 18.5659 530.545 18.6364 530.56 18.7018C530.661 19.1904 530.606 19.3113 530.232 19.548C530.06 19.4926 529.929 19.4171 529.798 19.4171C528.216 19.402 526.635 19.3868 525.054 19.3919C524.367 19.3919 523.68 19.4473 522.993 19.4825C522.912 19.4825 522.831 19.5077 522.75 19.5934C523.119 19.6589 523.483 19.7344 523.852 19.7848C525.125 19.9711 526.398 20.1424 527.666 20.3287C527.939 20.369 528.206 20.4093 528.393 20.6763C528.449 20.7518 528.676 20.7468 528.813 20.7216C529.03 20.6864 529.242 20.5353 529.454 20.5453C530 20.5705 530.545 20.641 531.086 20.7267C531.672 20.8173 532.253 20.9483 532.839 21.0591C532.844 21.0943 532.849 21.1296 532.859 21.1598C532.202 21.3462 531.546 21.5325 530.889 21.7189C530.894 21.7391 530.909 21.7743 530.924 21.8096C530.611 21.5174 530.318 21.9103 529.98 21.8499C530.035 21.7491 530.07 21.6887 530.106 21.6333C530.091 21.6131 530.086 21.5829 530.075 21.5779C529.818 21.5225 529.606 21.4117 529.414 21.2102C529.303 21.0943 529.06 21.1145 528.898 21.0389C528.681 20.9332 528.464 20.8123 528.277 20.6612C528.115 20.5252 527.989 20.5403 527.843 20.641C527.843 20.6763 527.843 20.7065 527.848 20.7115C528.328 21.0188 528.171 21.4268 528.04 21.8348C528.014 21.9154 527.999 22.006 528.03 22.1168C528.136 21.9405 528.232 21.7542 528.353 21.593C528.398 21.5325 528.555 21.4671 528.595 21.4973C528.858 21.6836 529.106 21.8952 529.394 22.1319C529.262 22.2327 529.186 22.3032 529.095 22.3586C528.757 22.5651 528.408 22.7263 527.999 22.7918C527.6 22.8572 527.171 22.9429 526.847 23.1595C526.595 23.3307 526.337 23.2753 526.1 23.3861C525.989 23.4415 525.872 23.4919 525.746 23.5523C525.509 23.5473 525.231 23.5372 525.039 23.5322C524.933 23.6531 524.882 23.7689 524.796 23.7941C524.19 23.9905 523.574 24.1517 522.973 24.3633C522.149 24.6554 521.336 24.9929 520.518 25.3001C520.255 25.3958 519.982 25.4613 519.719 25.552C519.608 25.5923 519.507 25.6678 519.406 25.7283C519.416 25.7585 519.421 25.7887 519.432 25.8189C519.512 25.8189 519.593 25.8391 519.669 25.829C520.79 25.7031 521.907 25.5771 523.028 25.4361C523.402 25.3908 523.771 25.29 524.145 25.2296C524.832 25.1188 525.519 25.0231 526.206 24.9123C526.509 24.8619 526.802 24.7662 527.105 24.7058C527.327 24.6604 527.479 24.7158 527.423 25.0029C527.343 25.4512 527.317 25.9146 527.196 26.3528C527.125 26.6047 526.908 26.8162 526.751 27.0429C526.63 27.2141 526.494 27.3703 526.362 27.5365C526.388 27.5617 526.408 27.5868 526.433 27.612C526.61 27.5063 526.792 27.4005 526.999 27.2746C526.969 27.5113 526.943 27.7128 526.918 27.9193C526.948 27.9293 526.979 27.9344 527.004 27.9445C527.08 27.7783 527.176 27.6171 527.221 27.4458C527.327 27.0479 527.545 26.7608 527.923 26.5795C528.126 26.4838 528.302 26.3276 528.469 26.1765C529.282 25.4563 530.091 24.731 530.894 24.0107C531.096 23.8294 531.273 23.7992 531.485 24.0107C531.631 24.1517 531.823 24.2474 532.056 24.3985C532.015 24.0459 531.985 23.7639 531.955 23.4818C532.374 23.3307 532.788 23.1695 533.208 23.0285C533.809 22.827 534.051 22.9932 534.102 23.6178C534.177 24.5295 533.869 24.9828 533.011 25.3102C532.399 25.5469 531.803 25.829 531.202 26.0909C531.141 26.1161 531.091 26.1564 531.04 26.1916C531.05 26.2219 531.056 26.2521 531.066 26.2823C531.778 26.1513 532.49 26.0204 533.248 25.8793C533.051 26.2722 532.879 26.6399 532.687 26.9925C532.49 27.3602 532.253 27.7077 532.076 28.0855C531.793 28.6798 531.318 28.977 530.682 29.0626C530.47 29.0929 530.267 29.1533 530.06 29.1986C530.06 29.2289 530.065 29.2591 530.07 29.2893C530.475 29.3145 530.879 29.3346 531.379 29.3648C530.954 30.3017 530.48 31.1227 530.045 31.9639C529.616 32.8 529.262 33.6663 528.873 34.5226L528.939 34.5679C529.151 34.306 529.373 34.0491 529.575 33.7771C530.04 33.1475 530.495 32.5129 530.954 31.8833C531.207 31.5357 531.258 31.5307 531.636 31.7422C531.702 31.7775 531.773 31.8127 531.844 31.853C531.844 31.8127 531.859 31.7876 531.849 31.7775C531.429 31.2386 531.434 31.1076 531.854 30.5183C532.056 30.2362 532.238 29.9391 532.419 29.6419C532.521 29.4757 532.601 29.3044 532.687 29.1332C532.758 29.1432 532.829 29.1533 532.899 29.1634C532.839 30.0096 532.778 30.8608 532.718 31.707C532.768 31.707 532.824 31.712 532.874 31.7171C532.91 31.5357 532.925 31.3443 532.99 31.1731C533.101 30.891 533.223 30.609 533.389 30.3622C533.733 29.8635 534.112 29.39 534.481 28.9065C534.501 28.8763 534.541 28.8612 534.566 28.841C534.955 31.0875 535.344 33.3238 535.728 35.5652C535.769 35.5652 535.809 35.5602 535.85 35.5551C535.86 35.4746 535.875 35.3939 535.875 35.3134C535.875 34.2909 535.865 33.2684 535.865 32.2409C535.865 32.0092 535.809 31.8329 535.536 31.8228C535.572 31.5156 535.946 31.2637 535.648 31.0018C535.713 30.8406 535.804 30.7198 535.804 30.6039C535.794 30.1657 535.774 29.7326 535.723 29.2994C535.703 29.1281 535.577 28.972 535.577 28.836C535.612 28.705 535.688 28.569 535.683 28.4381C535.653 27.9092 535.607 27.3803 535.552 26.8565C535.541 26.7507 535.466 26.65 535.445 26.6047C535.471 26.4082 535.511 26.2571 535.496 26.1161C535.491 26.0657 535.355 26.0254 535.279 25.9801C535.248 26.0506 535.193 26.1211 535.198 26.1866C535.208 26.4183 535.324 26.65 535.152 26.8867C535.122 26.932 535.203 27.063 535.233 27.1537C535.208 27.1688 535.183 27.1839 535.158 27.199C535.107 27.1134 535.041 27.0328 535.006 26.9371C534.966 26.8162 534.945 26.6903 534.915 26.5392C535.097 26.4032 535.056 26.3024 534.94 26.0607C534.738 25.6476 534.582 25.2044 534.774 24.731C534.804 24.6504 534.834 24.5748 534.88 24.4489C534.748 24.4741 534.668 24.4892 534.526 24.5194C534.617 24.3431 534.693 24.197 534.763 24.051C534.748 24.051 534.733 24.051 534.718 24.056C534.718 23.9452 534.703 23.8344 534.708 23.7186C534.708 23.5171 534.769 23.3005 534.708 23.1141C534.627 22.8522 534.698 22.5349 534.43 22.3334C534.294 22.2276 534.188 22.1168 533.996 22.2478C533.91 22.3032 533.763 22.2629 533.647 22.283C533.339 22.3334 533.026 22.3636 532.723 22.4493C532.566 22.4946 532.425 22.6155 532.288 22.7212C532.263 22.7363 532.298 22.827 532.308 22.9378C532.182 23.094 532.046 22.9479 531.844 22.7716C531.879 22.9429 531.899 23.0436 531.919 23.1494C531.758 23.094 531.586 23.0386 531.399 22.9731C531.455 22.9328 531.515 22.8925 531.576 22.8472C531.525 22.7112 531.48 22.5752 531.404 22.3687C531.576 22.4291 531.697 22.4694 531.854 22.5299C531.823 22.4291 531.793 22.3485 531.758 22.2478C531.879 22.1773 532.01 22.1017 532.152 22.0211C532.02 21.9204 531.899 21.8348 531.778 21.7441C531.793 21.7189 531.808 21.6988 531.823 21.6736C532.02 21.729 532.217 21.7844 532.414 21.8398C532.409 21.87 532.399 21.9003 532.394 21.9305C532.505 21.9103 532.652 21.6585 532.687 21.9657C532.935 21.8247 533.152 21.6937 533.374 21.5779C533.43 21.5477 533.511 21.5426 533.576 21.5426C533.794 21.5477 533.97 21.5124 534.006 21.2555C534.316 21.4167 534.494 21.3294 534.541 20.9936C534.748 21.0339 534.955 20.8929 535.188 21.0692C535.294 21.1498 535.562 21.0138 535.754 20.9785C535.789 20.9735 535.829 20.9584 535.865 20.9483C535.89 20.9684 535.915 20.9886 535.941 21.0037C535.865 21.1095 535.789 21.2152 535.713 21.3311C535.976 21.8297 535.809 22.0614 535.158 22.0463C535.173 22.4342 535.178 22.8169 535.203 23.1997C535.213 23.3257 535.309 23.4466 535.304 23.5624C535.289 23.9905 535.405 24.4035 535.395 24.8317C535.395 24.9072 535.36 24.9828 535.324 25.1339C535.481 25.1238 535.632 25.144 535.754 25.0986C536.592 24.7864 537.431 24.459 538.269 24.1416C538.35 24.1114 538.441 24.1014 538.562 24.0711C538.603 24.2877 538.653 24.4791 538.663 24.6705C538.724 25.7686 538.769 26.8716 538.83 27.9697C538.845 28.2416 538.734 28.3978 538.492 28.4985C538.204 28.6144 537.921 28.7554 537.638 28.8813C537.643 28.9065 537.653 28.9317 537.658 28.9569C537.86 28.982 538.067 29.0022 538.269 29.0274C538.416 29.0425 538.628 29.0123 538.699 29.0929C538.886 29.3246 539.078 29.5865 539.148 29.8685C539.345 30.6694 539.446 31.4904 539.648 32.2912C540.012 33.757 540.401 35.2177 541.038 36.5927C541.078 36.6784 541.124 36.759 541.225 36.8194C541.169 36.079 541.139 35.3386 541.058 34.6032C540.942 33.5001 540.846 32.392 540.654 31.304C540.543 30.6593 540.527 30.0146 540.462 29.3749C540.396 28.7352 540.275 28.1057 540.174 27.471C540.113 27.1033 540.037 26.7356 539.992 26.3629C539.972 26.2118 540.048 26.0557 540.037 25.8995C540.002 25.3354 539.941 24.7763 539.901 24.2122C539.891 24.0812 539.926 23.9452 539.947 23.7286C540.118 23.8545 540.24 23.9301 540.346 24.0258C541.745 25.3001 543.129 26.5946 544.544 27.8488C545.008 28.2618 545.549 28.5942 546.059 28.9619C546.094 28.9871 546.145 28.9921 546.261 29.0375C544.66 26.8414 542.705 25.0634 540.927 23.1141C541.467 22.686 542.003 22.827 542.523 23.0587C543.114 23.3206 543.685 23.6228 544.271 23.8898C544.367 23.9351 544.493 23.8999 544.609 23.8999C544.584 23.7488 544.564 23.6027 544.528 23.3811C544.599 23.4113 544.736 23.4214 544.766 23.4868C544.973 23.915 545.175 24.3482 545.342 24.7914C545.69 25.7232 546.185 26.5795 546.665 27.4458C546.68 27.476 546.716 27.5012 546.802 27.5113C546.726 27.0076 546.665 26.4989 546.564 26.0002C546.489 25.6376 546.342 25.285 546.261 24.9224C546.19 24.6 546.185 24.2575 546.11 23.9351C545.999 23.4566 545.857 22.9882 545.726 22.5198C545.706 22.4442 545.685 22.3687 545.655 22.2982C545.604 22.1873 545.539 22.0866 545.428 22.006C545.448 21.9053 545.468 21.8046 545.488 21.7089C545.508 21.7038 545.534 21.6988 545.554 21.6937C545.594 21.7894 545.625 21.8952 545.67 21.9859C545.756 22.1571 545.812 22.3788 545.948 22.4896C546.913 23.2602 547.883 24.0208 548.883 24.7511C549.509 25.2095 550.181 25.6023 550.833 26.0254C550.868 26.0506 550.909 26.0657 550.98 26.0506C550.939 26.0053 550.904 25.9499 550.858 25.9096C550.06 25.1289 549.277 24.3381 548.464 23.5675C548.075 23.1998 547.635 22.8824 547.236 22.5299C546.898 22.2277 546.569 21.9103 546.251 21.5879C546.1 21.4368 546.13 21.3009 546.337 21.2303C546.448 21.1951 546.569 21.185 546.686 21.1548C546.968 21.0792 547.251 21.0037 547.529 20.9181C547.57 20.908 547.615 20.8576 547.63 20.8173C547.772 20.4244 548.166 20.4194 548.474 20.3136C548.797 20.2028 549.11 20.0416 549.484 20.1474C549.722 20.2129 549.999 20.2633 550.222 20.1928C550.919 19.9762 551.616 20.1928 552.308 20.1222C553.137 20.0467 553.889 20.3993 554.672 20.5705C554.824 20.6058 554.975 20.6461 555.127 20.6813C555.137 20.6511 555.152 20.6209 555.162 20.5907C554.112 20.0668 553.061 19.543 552.005 19.0192C553.298 18.4953 554.586 17.9715 555.88 17.4477C555.875 17.4174 555.865 17.3872 555.859 17.3621C554.526 17.5686 553.192 17.7751 551.853 17.9816C551.788 17.5484 552.056 16.9893 552.374 16.8029C552.707 16.6065 553.031 16.3899 553.369 16.2036C553.556 16.1028 553.773 16.0474 553.975 15.9668C553.975 15.9417 553.98 15.9114 553.985 15.8863C553.859 15.8762 553.738 15.851 553.611 15.8611C553.334 15.8812 553.056 15.9417 552.783 15.9417C552.455 15.9417 552.131 15.8963 551.803 15.8711C553.425 14.7781 555.016 13.5643 556.349 12.0482C554.415 13.1059 552.475 14.1687 550.489 15.2567C550.762 14.5263 551.02 13.8514 551.273 13.1815C551.252 13.1714 551.232 13.1613 551.212 13.1512C551.045 13.4383 550.878 13.7204 550.707 14.0075C550.717 13.3174 550.752 12.6425 551.343 12.1439C551.323 12.1237 551.298 12.1036 551.278 12.0834C551.166 12.1388 551.05 12.1942 550.899 12.2698C550.904 12.0985 550.909 11.9525 550.914 11.7762C550.868 11.8215 550.833 11.8416 550.828 11.8618C550.687 12.5619 550.126 12.9095 549.631 13.3124C549.201 13.665 548.782 14.0327 548.378 14.4155C547.933 14.8285 547.514 15.2617 547.085 15.6898C547.246 15.7402 547.408 15.7805 547.565 15.8409C547.711 15.9014 548.54 15.7956 548.61 15.6596C548.772 15.3624 549.186 15.2214 549.156 14.7932C549.156 14.7278 549.227 14.6573 549.272 14.5968C549.398 14.4306 549.535 14.2745 549.651 14.1082C549.757 13.9521 549.843 13.7859 549.954 13.5945C549.994 13.6045 550.075 13.6146 550.156 13.6297C550.065 13.9622 549.989 14.2694 549.898 14.5767C549.752 15.0854 549.555 15.5739 549.126 15.9215C548.918 16.0877 548.686 16.2237 548.474 16.3748C548.196 16.5713 547.863 16.4856 547.645 16.3647C547.408 16.2338 547.272 15.9215 547.095 15.6848C546.802 15.3473 546.509 15.0149 546.226 14.6724C546.185 14.622 546.18 14.5313 546.17 14.4558C546.079 13.5794 545.988 12.708 545.897 11.8316C545.862 11.8316 545.832 11.8316 545.796 11.8316C545.741 12.5015 545.685 13.1664 545.625 13.9269C545.327 13.5995 545.049 13.3678 545.008 12.9901C544.973 12.6728 544.968 12.3554 544.948 12.0381C544.928 11.7863 544.902 11.5344 544.872 11.2826C544.806 10.7033 544.715 10.1291 544.68 9.5499C544.66 9.17717 544.715 8.79942 544.761 8.42669C544.771 8.35617 544.852 8.28061 544.917 8.23025C546.069 7.28332 547.226 6.33638 548.373 5.38946C548.489 5.29376 548.575 5.1628 548.676 5.04695C548.661 5.02681 548.646 5.00666 548.625 4.98651C548.474 5.0671 548.317 5.14265 548.171 5.23332C547.049 5.91833 545.928 6.59327 544.811 7.28836C544.311 7.60064 543.826 7.94313 543.346 8.2806C543.255 8.34608 543.19 8.45186 543.114 8.54253C543.164 8.6483 543.23 8.74904 543.26 8.85985C543.26 8.87496 543.139 8.93035 543.074 8.97065C543.028 9.04116 542.998 9.13185 542.937 9.18222C542.887 9.22251 542.796 9.21747 542.725 9.23762C542.735 9.18221 542.745 9.12175 542.75 9.06635C542.76 9.00591 542.755 8.94547 542.776 8.88503C542.796 8.82962 542.831 8.77926 542.861 8.72889C542.578 8.47705 542.77 8.20001 542.856 7.96328C543.018 7.50493 543.069 7.3236 542.947 7.05665C543.048 7.08184 543.124 7.10199 543.2 7.12213C543.185 7.10199 543.17 7.08184 543.154 7.05665C543.427 6.87533 543.685 6.64866 543.983 6.51266C544.948 6.08453 545.928 5.69166 546.903 5.28367C546.999 5.24338 547.09 5.19304 547.171 5.12252C546.675 5.13763 546.211 5.20308 545.756 5.40959C545.428 5.5607 545.044 5.59597 544.685 5.67656C544.377 5.74708 544.064 5.80249 543.756 5.87805C543.569 5.92338 543.468 5.85789 543.488 5.6816C543.543 5.23332 543.609 4.78503 543.695 4.34178C543.953 2.94658 544.215 1.55137 544.478 0.156164C544.488 0.115869 544.468 0.0654961 544.468 0.0252013C544.438 0.0151276 544.412 0.0100969 544.382 2.32271e-05C543.806 1.39523 543.225 2.7854 542.634 4.2209C542.381 4.02447 542.195 3.87841 542.003 3.73234C541.972 3.74242 541.942 3.75753 541.907 3.76761C542.513 4.37203 542.392 5.01169 542.063 5.66648C541.755 5.64633 541.705 5.39449 541.604 5.19301C541.558 5.10235 541.538 4.9966 541.477 4.93112C540.997 4.44758 541.033 3.83812 541.058 3.2337C541.073 2.8912 541.093 2.54363 541.108 2.20112C541.053 2.19105 540.997 2.18602 540.942 2.17595C540.836 2.58897 540.73 3.002 540.598 3.50568C539.916 2.43283 539.28 1.4305 538.638 0.423132C538.608 0.438243 538.578 0.458378 538.547 0.473488C538.674 0.750515 538.795 1.0326 538.926 1.30962C539.411 2.35729 539.896 3.39991 540.376 4.45261C540.432 4.57349 540.447 4.72459 540.432 4.85555C540.341 5.68663 540.234 6.51268 540.128 7.34376C540.118 7.41427 540.103 7.47974 540.093 7.55025C539.982 8.05897 539.81 8.10935 539.371 7.83736C538.244 7.14227 537.107 6.46733 535.971 5.78736C535.941 5.76721 535.895 5.76721 535.819 5.78736C535.875 5.84276 535.925 5.90825 535.986 5.95358C537.037 6.73933 538.088 7.52507 539.143 8.31082C539.603 8.65333 539.886 9.07139 539.856 9.67078C539.795 10.8897 539.75 12.1137 539.699 13.3326C539.679 13.7909 539.492 14.1939 539.249 14.5767C539.204 14.6472 539.169 14.7429 539.174 14.8235C539.199 15.2566 538.911 15.574 538.466 15.5689C538.259 15.5689 538.052 15.5387 537.84 15.5236C537.613 15.4833 537.385 15.443 537.158 15.4027C537.168 15.4783 537.158 15.5891 537.198 15.6193C537.37 15.7351 537.32 15.8107 537.173 15.9165C537.143 15.5286 536.916 15.9165 536.804 15.7754C536.804 15.7049 536.809 15.6092 536.814 15.5135L536.809 15.4984ZM536.203 19.8956C535.744 19.9611 535.38 19.9963 535.026 20.0719C534.774 20.1222 534.673 20.0064 534.582 19.8049C534.506 19.6387 534.385 19.4926 534.289 19.3365C534.299 19.3365 534.309 19.3365 534.319 19.3365C534.193 19.0091 534.071 18.6817 533.945 18.3543C533.925 18.3845 533.905 18.4147 533.884 18.445C533.763 18.4298 533.637 18.4148 533.536 18.3996C533.511 17.9614 533.475 17.5685 533.475 17.1807C533.475 17.0649 533.541 16.9188 533.627 16.8382C533.763 16.7022 533.95 16.6115 534.102 16.4907C534.314 16.3244 534.506 16.1734 534.819 16.2338C535.521 16.3698 536.239 16.4554 536.946 16.5713C537.032 16.5864 537.143 16.6418 537.178 16.7123C537.557 17.4628 537.875 18.2284 537.855 19.0947C537.855 19.266 537.81 19.3768 537.628 19.4221C537.249 19.5128 536.875 19.6991 536.476 19.4926C536.42 19.4624 536.35 19.4523 536.279 19.4322C536.289 19.6236 536.623 19.679 536.304 19.825C536.405 19.8553 536.466 19.8754 536.521 19.8905C536.41 19.9711 536.309 20.0416 536.213 20.1122C536.289 20.1877 536.39 20.2431 536.38 20.2885C536.37 20.3539 536.294 20.4244 536.228 20.4647C536.143 20.5201 535.991 20.5201 535.951 20.5907C535.829 20.8072 535.658 20.8223 535.546 20.8022C535.365 20.6007 535.238 20.4597 535.117 20.3187C535.193 20.2784 535.269 20.2381 535.355 20.1978C535.44 20.2834 535.511 20.369 535.597 20.4345C535.642 20.4698 535.754 20.5 535.774 20.4799C535.915 20.3086 536.042 20.1273 536.203 19.9157L536.203 19.8956ZM544.23 9.10665C544.008 10.2148 543.791 11.3229 543.559 12.4864C543.493 12.295 543.442 12.159 543.392 12.0179C543.372 12.0179 543.351 12.023 543.331 12.028C543.336 12.6224 543.346 13.2117 543.351 13.806L543.296 13.806C543.2 13.5995 543.109 13.388 543.013 13.1764L542.937 13.2067C542.973 13.3981 543.013 13.5894 543.033 13.7859C543.069 14.1385 543.104 14.4961 543.119 14.8487C543.124 15.0098 543.033 15.0955 542.866 15.0048C542.483 14.7933 542.099 14.5817 541.725 14.3601C541.659 14.3198 541.588 14.2291 541.578 14.1586C541.548 13.9168 541.482 13.6499 541.543 13.4232C541.765 12.5821 542.023 11.746 542.285 10.9149C542.442 10.4112 542.649 9.92765 543.069 9.57508C543.382 9.30812 543.675 8.98073 544.235 9.10665L544.23 9.10665ZM533.253 19.8805C533.071 19.8402 532.985 19.7999 532.904 19.8049C532.591 19.8301 532.354 19.815 532.091 19.5329C531.793 19.2106 531.556 18.8781 531.419 18.4853C531.121 17.6441 530.848 16.7929 530.566 15.9417C530.51 15.7754 530.449 15.6143 530.389 15.4481C530.934 15.3675 531.525 15.6596 531.717 16.1079C532.111 17.0397 532.49 17.9816 532.874 18.9184C532.995 19.2156 533.112 19.5178 533.258 19.8855L533.253 19.8805ZM525.792 23.7488C525.979 23.8697 526.1 23.9502 526.246 24.0459C526.266 23.9049 526.282 23.8143 526.302 23.6833C526.494 23.7588 526.65 23.8243 526.807 23.8848C526.842 23.5523 526.837 23.5574 527.11 23.7387C527.151 23.7639 527.297 23.7185 527.297 23.7085C527.297 23.4818 527.444 23.502 527.6 23.4919C527.782 23.4818 527.802 23.4315 527.782 23.2451C527.782 23.2048 527.843 23.1192 527.868 23.1192C527.994 23.1343 528.126 23.1695 528.247 23.2048C528.323 23.23 528.398 23.2703 528.474 23.3005C528.484 23.24 528.474 23.1796 528.499 23.1242C528.515 23.089 528.565 23.0637 528.605 23.0386C528.742 22.9378 528.883 22.8421 529.02 22.7464C529.01 22.7364 528.999 22.7213 528.989 22.7112C529.121 22.6961 529.257 22.6759 529.409 22.6558C529.378 22.7515 529.353 22.8321 529.323 22.9177C529.348 22.9328 529.373 22.9479 529.404 22.963C529.454 22.8925 529.525 22.827 529.555 22.7464C529.697 22.3888 529.899 22.2881 530.278 22.3989C530.323 22.414 530.404 22.3989 530.434 22.3636C530.768 22.0413 531.167 22.2982 531.535 22.2579C531.298 22.3334 531.066 22.409 530.793 22.4946C530.702 22.6457 530.682 22.9832 530.288 22.7666C530.303 22.8673 530.313 22.9429 530.333 23.0638C530.242 22.9933 530.192 22.953 530.126 22.9026C530.136 23.1393 530.04 23.2401 529.838 23.2501C529.757 23.2501 529.681 23.2602 529.601 23.2703C529.202 23.3257 529.116 23.512 529.343 23.8243C529.353 23.8394 529.343 23.8596 529.343 23.8495C529.095 23.9855 528.858 24.1114 528.595 24.2575C528.636 24.0661 528.676 23.8697 528.712 23.6833C528.545 23.6228 528.323 24.0762 528.171 23.5675C528.12 23.7589 528.08 23.8999 528.035 24.0661C528.449 23.91 528.479 23.9301 528.434 24.2776C528.277 24.1165 528.06 24.6201 527.939 24.2373C527.635 24.323 527.342 24.4035 527.049 24.4841L527.019 24.4136C527.11 24.2776 527.201 24.1467 527.307 23.9905C527.176 23.9502 527.085 23.92 527.06 23.915C526.908 24.0006 526.787 24.0409 526.716 24.1265C526.65 24.2021 526.64 24.328 526.585 24.4892C526.221 24.4388 525.802 24.3834 525.382 24.328C525.382 24.2827 525.382 24.2424 525.382 24.1971C525.574 24.1769 525.761 24.1568 525.963 24.1316C525.923 24.051 525.872 23.9402 525.792 23.774L525.792 23.7488ZM541.023 5.83774C541.058 5.82767 541.088 5.8176 541.124 5.80752C541.215 6.13492 541.376 6.46232 541.376 6.78971C541.371 7.3488 541.275 7.91291 541.184 8.46696C541.159 8.63318 540.997 8.77421 540.957 8.94043C540.856 9.38871 540.795 9.8521 540.694 10.3004C540.639 10.5422 540.527 10.7738 540.447 11.0106L540.325 10.9955C540.325 10.8192 540.265 10.5975 540.346 10.4817C540.482 10.3004 540.416 10.2097 540.275 10.0788C540.593 9.83699 540.179 9.33331 540.659 9.13687C540.522 9.0311 540.396 8.93036 540.26 8.82459C540.361 8.75407 540.447 8.69364 540.517 8.64831C540.477 8.54254 540.432 8.46698 540.416 8.38639C540.351 8.02877 540.517 7.71145 540.618 7.38406C540.639 7.31858 540.669 7.25814 540.669 7.19266C540.679 6.80482 540.679 6.41698 540.684 6.02915C540.684 6.00396 540.709 5.9838 540.725 5.94854C540.78 6.00898 540.826 6.06439 540.896 6.13994C540.947 6.01906 540.982 5.92841 541.018 5.84278L541.023 5.83774ZM543.114 16.531C542.932 16.5763 542.806 16.6317 542.68 16.6317C542.371 16.6267 542.063 16.5763 541.76 16.5713C541.462 16.5713 541.164 16.6065 540.866 16.6116C540.664 16.6116 540.568 16.5108 540.639 16.3043C540.725 16.0525 540.81 15.7956 540.927 15.5538C540.962 15.4783 541.144 15.3826 541.189 15.4128C541.816 15.7805 542.649 15.7855 543.119 16.531L543.114 16.531ZM533.203 30.1708C533.253 29.8585 533.298 29.6066 533.329 29.3548C533.339 29.244 533.283 29.1231 533.309 29.0173C533.435 28.5086 533.576 28.0049 533.713 27.5012C533.763 27.3048 533.773 27.0781 533.879 26.922C533.986 26.7658 534.193 26.6752 534.44 26.4989C534.39 27.0529 534.44 27.5869 534.279 28.0351C534.011 28.7554 533.591 29.4203 533.203 30.1708ZM546.332 16.7022C546.322 16.7425 546.312 16.7828 546.302 16.8231C545.801 16.6065 545.301 16.3899 544.877 16.2086C544.801 16.0474 544.756 15.9517 544.741 15.9215C544.761 15.7905 544.766 15.71 544.786 15.6344C544.862 15.3775 544.584 15.0199 545.074 14.8638C544.973 14.6522 544.887 14.4659 544.796 14.2795C545.089 14.3349 545.044 14.0277 545.114 13.796C545.19 13.9823 545.256 14.1284 545.306 14.2745C545.382 14.4961 545.493 14.7177 545.514 14.9444C545.544 15.3171 545.524 15.6999 545.493 16.0726C545.473 16.2993 545.579 16.395 545.761 16.4655C545.953 16.541 546.145 16.6216 546.337 16.7022L546.332 16.7022ZM541.987 9.46929C542.169 10.1593 541.952 10.6378 541.184 11.207C541.144 11.1012 541.073 11.0106 541.068 10.9099C541.058 10.6479 541.053 10.381 541.093 10.1241C541.179 9.57005 541.225 9.54485 541.755 9.6053C541.765 9.6053 541.775 9.58013 541.79 9.55998C541.71 9.51969 541.629 9.47937 541.543 9.43907C541.543 9.42396 541.553 9.41391 541.558 9.3988C541.699 9.42398 541.846 9.44411 541.987 9.46929ZM542.659 18.1478C542.543 18.1428 542.472 18.1478 542.407 18.1327C542.235 18.0773 542.078 18.042 541.987 18.2636C541.977 18.2888 541.886 18.2787 541.831 18.2888C541.563 18.3392 541.29 18.3845 541.023 18.45C540.699 18.5306 540.376 18.6263 540.022 18.727C540.088 18.3442 540.3 18.1025 540.603 18.0269C541.255 17.8657 541.917 17.76 542.548 17.6391C542.594 17.8557 542.624 17.9816 542.659 18.1478ZM543.296 22.001C543.649 21.9103 543.912 21.8297 544.18 21.7844C544.251 21.7743 544.392 21.86 544.407 21.9254C544.503 22.2881 544.579 22.6608 544.64 23.0285C544.665 23.1796 544.554 23.2451 544.443 23.1393C544.079 22.7918 543.725 22.4341 543.296 22.001ZM551.323 16.9641C551.192 17.1958 550.959 17.3217 550.687 17.4023C550.484 17.4628 550.277 17.5131 550.121 17.6844C550.055 17.7549 549.898 17.7449 549.782 17.7751C549.797 17.6643 549.767 17.5182 549.828 17.4477C550.07 17.1807 550.318 16.9138 550.606 16.6972C550.702 16.6267 550.914 16.667 551.055 16.7073C551.146 16.7325 551.217 16.8533 551.328 16.9641L551.323 16.9641ZM539.724 21.0893C539.704 21.054 539.679 21.0188 539.659 20.9886C539.76 20.913 539.856 20.8173 539.967 20.7619C540.164 20.6713 540.376 20.6058 540.583 20.5302C541.093 20.3439 541.604 20.1575 542.134 19.9661C541.538 20.8576 540.598 20.8929 539.724 21.0893ZM551.768 17.211C551.55 17.6542 551.278 17.9816 550.843 18.2032C550.505 18.3745 550.298 18.2385 549.974 17.9967C550.601 17.7197 551.166 17.4729 551.768 17.211ZM524.317 24.0359C524.493 24.0812 524.721 24.0812 524.756 24.1618C524.832 24.3331 524.913 24.2575 525.014 24.2525C525.079 24.2525 525.145 24.2877 525.211 24.3079C525.17 24.3733 525.15 24.469 525.089 24.4942C524.923 24.5798 524.741 24.6352 524.544 24.7108C524.468 24.4841 524.407 24.2978 524.317 24.0359ZM529.207 24.2726C528.833 24.6453 528.484 24.9929 528.11 25.3656C528.247 24.8015 528.772 24.2726 529.207 24.2726ZM539.416 19.6941C539.113 19.951 538.85 20.1726 538.572 20.4043C538.658 20.1373 538.734 19.8855 538.83 19.5883C539.017 19.6186 539.234 19.6589 539.416 19.6891L539.416 19.6941ZM532.824 16.128C532.834 16.0726 532.844 15.992 532.859 15.8863C533.167 15.9568 533.46 16.0273 533.748 16.0928C533.435 16.2288 533.142 16.4403 532.824 16.128ZM550.777 19.5531C550.788 19.5228 550.803 19.4926 550.813 19.4624C551.212 19.3566 551.515 19.6588 551.869 19.7394C551.596 19.7948 551.318 19.538 551 19.7445C550.949 19.7042 550.863 19.6286 550.777 19.5531ZM546.726 19.407C547.1 19.2408 547.438 19.0897 547.777 18.9386C547.787 18.9587 547.797 18.9839 547.807 19.0041C547.464 19.1955 547.125 19.3869 546.761 19.5883C546.746 19.5027 546.731 19.4423 546.726 19.407ZM545.584 22.8925C545.68 23.0033 545.771 23.1141 545.867 23.2199C545.618 23.193 545.524 23.0839 545.584 22.8925Z" fill="white"/>
</svg>
