<svg width="182" height="236" viewBox="0 0 182 236" fill="none" xmlns="http://www.w3.org/2000/svg">
<g clip-path="url(#clip0_1320_286)">
<rect y="22.3811" width="151.519" height="215.549" rx="10.33" transform="rotate(-8.49433 0 22.3811)" fill="white"/>
<path d="M-2.97625 89.725C-3.24968 87.8942 -3.52362 86.06 -3.79706 84.2292C-1.44156 86.1523 0.274533 88.8259 3.17122 90.4028C3.26273 89.9307 3.3846 89.685 3.33702 89.4819C2.82123 87.2977 2.27172 85.1186 1.74244 82.9365C1.63299 82.4806 1.44819 82.005 1.48776 81.5544C1.55911 80.7165 1.60625 80.0166 0.492542 79.8762C0.306278 79.8523 0.13865 79.4223 0.0164331 79.158C-0.147363 78.7998 -0.158175 78.312 -0.412904 78.0605C-2.06022 76.4245 -3.75543 74.837 -5.4353 73.2369C-5.5899 72.2018 -5.74449 71.1667 -5.89909 70.1316C-5.01099 70.354 -4.11952 70.5758 -3.23142 70.7982C-3.15599 70.6801 -3.08055 70.562 -3.00512 70.4439C-4.20971 68.7487 -5.41142 67.0496 -6.61601 65.3544C-6.86578 63.682 -7.11554 62.0096 -7.36531 60.3373C-7.23742 60.4319 -7.0812 60.5085 -6.984 60.6285C-4.02393 64.2916 -1.07009 67.9592 1.88712 71.6263C1.99316 71.6208 2.09633 71.6192 2.20237 71.6137C2.12432 71.091 2.07948 70.56 1.96147 70.0468C1.76512 69.1937 1.73651 68.3328 2.70755 68.0258C3.80995 67.675 4.02508 66.8535 4.19898 65.9176C4.32298 65.2476 4.37249 64.5405 4.63183 63.9227C5.68336 61.4079 6.84124 58.9359 7.88114 56.4126C8.22254 55.5826 8.28164 54.6397 8.53069 53.7683C8.76183 52.9617 9.07505 52.1738 9.34917 51.378C9.43631 51.1306 9.58129 50.878 9.58212 50.6297C9.57999 49.2306 9.33462 47.7954 9.56712 46.4439C9.88609 44.5867 10.3599 42.82 9.97007 40.879C9.56224 38.8408 9.54303 36.7272 9.25846 34.6602C9.10995 33.5966 8.75188 32.5609 8.47091 31.4412C7.09546 31.464 6.77248 31.171 6.89393 29.4914C6.96571 28.4949 6.67893 27.7518 5.83384 27.2403C5.11024 26.8038 4.38951 26.3634 3.63975 25.9825C1.46007 24.8672 -0.76299 23.8308 -2.91837 22.6705C-5.39596 21.3378 -7.81059 19.8956 -10.2662 18.5251C-11.4585 17.8587 -12.6837 17.2489 -13.8922 16.6125C-13.9158 16.454 -13.9395 16.2955 -13.9637 16.1337C-13.5726 16.2132 -13.1507 16.2225 -12.7957 16.3832C-9.93612 17.6658 -7.09069 18.9919 -4.23056 20.2778C-1.77322 21.3827 0.689851 22.4798 3.17808 23.5145C3.59723 23.6897 4.15364 23.5377 4.64977 23.536C4.51636 23.1043 4.47993 22.6065 4.2342 22.2537C2.92286 20.3745 1.58031 18.5172 0.209935 16.6813C-2.89312 12.5225 -6.02113 8.38111 -9.12131 4.21836C-9.41893 3.81816 -9.60423 3.33914 -9.84282 2.89565C-9.71127 2.80707 -9.58359 2.71561 -9.45204 2.62703C-8.61643 3.46737 -7.74152 4.27081 -6.95483 5.15292C-3.18493 9.39144 0.542293 13.6674 4.33378 17.8889C4.76352 18.3658 5.49384 18.5704 6.08466 18.9027C6.0839 18.2514 6.20352 17.5751 6.06602 16.9545C4.91792 11.8522 3.71974 6.76086 2.54803 1.66208C2.47759 1.35203 2.50107 1.02452 2.48071 0.70355L2.86968 0.607541C3.34412 1.82238 3.86139 3.02393 4.29014 4.25594C6.00713 9.19745 7.69428 14.1469 9.40453 19.0894C9.57448 19.581 9.79838 20.0646 10.0707 20.5031C10.4735 21.1461 10.9883 21.2691 11.2641 20.4386C12.1313 17.8204 12.6123 15.1324 12.2828 12.3723C12.1743 11.4613 11.9312 10.6876 12.811 9.97714C13.0662 9.77013 13.0248 9.10071 12.9954 8.65011C12.8798 6.76812 12.7199 4.88932 12.5667 3.0095C12.4181 1.18414 12.2893 -0.647619 12.083 -2.46779C11.9789 -3.37257 11.7187 -4.26093 11.5298 -5.15649C11.4607 -5.48052 11.395 -5.80506 11.3293 -6.1296C11.1921 -6.17115 11.0577 -6.21658 10.9205 -6.25813C9.89824 -4.60949 8.87642 -2.95748 7.85411 -1.30883L7.54252 -1.47945C7.87834 -2.27759 8.23202 -3.0715 8.54997 -3.87386C9.1261 -5.32488 9.68335 -6.78687 10.2484 -8.24312C11.9208 -8.49291 13.5933 -8.74269 15.2657 -8.99247C15.6231 -6.25384 15.9563 -3.51505 16.3439 -0.780943C16.461 0.0495035 16.6481 0.886737 16.941 1.67026C17.0852 2.05891 17.5767 2.62662 17.8436 2.59021C18.2425 2.53753 18.6267 2.06308 18.9344 1.7C19.0952 1.50709 19.121 1.17233 19.1487 0.895891C19.449 -2.21672 19.7601 -5.32748 20.0084 -8.44266C20.0373 -8.82613 19.7241 -9.23781 19.5717 -9.63556C22.5996 -10.0878 25.6242 -10.5395 28.6522 -10.9917C28.4695 -10.5991 28.2835 -10.2059 28.1009 -9.81328C29.0595 -9.94955 30.2451 -9.71989 29.8459 -11.17C35.2611 -11.9788 40.6798 -12.7881 46.0951 -13.5968C47.1443 -12.5954 48.1462 -11.542 49.2476 -10.607C53.3903 -7.10317 57.5599 -3.62751 61.7376 -0.166859C62.3513 0.341257 62.4057 0.867396 62.1404 1.5378C61.6502 2.77951 61.9067 3.82699 62.7485 4.89389C63.153 5.40913 63.1917 6.26852 63.2536 6.98312C63.3363 7.92902 63.1684 8.90544 63.3141 9.83502C63.5438 11.3036 63.9753 12.7385 64.2589 14.199C64.4723 15.3046 65.0326 15.9172 66.1629 16.2379C69.9938 17.3306 73.7989 18.5271 77.6119 19.6846C79.3959 20.2281 79.5783 20.0872 79.635 18.1588C79.7388 14.5378 79.8426 10.9168 79.9599 7.29382C79.98 6.66693 80.0696 6.04344 80.125 5.42163C80.4437 6.03238 80.5763 6.64337 80.6202 7.26069C80.8926 11.277 81.1684 15.2929 81.393 19.3129C81.456 20.4272 81.8588 21.0702 83.0163 21.342C85.2491 21.8668 87.4481 22.5345 89.6701 23.1023C91.3513 23.5337 91.7468 23.1816 91.1764 21.5089C89.8106 17.5111 88.4213 13.5168 86.8241 9.60871C86.3784 8.51711 85.2671 7.60766 84.2787 6.85218C83.5393 6.28701 83.143 5.75678 83.0084 4.83243C82.877 3.95242 82.6817 2.89924 82.1133 2.30164C79.5542 -0.408032 76.8537 -2.9794 74.2102 -5.60754C73.9225 -5.89547 73.6831 -6.22854 73.4194 -6.54073C73.4911 -6.63761 73.5628 -6.7345 73.6345 -6.83138C74.0688 -6.62393 74.5198 -6.44311 74.9355 -6.19842C77.2647 -4.84352 79.5605 -3.43537 81.9136 -2.12883C82.996 -1.52871 83.6285 -1.7714 83.8333 -2.8464C84.9052 -8.45606 85.9173 -14.074 86.9534 -19.6921C87.5098 -19.7752 88.0695 -19.8588 88.6259 -19.9419C88.5245 -15.0356 88.382 -10.1266 88.3394 -5.21872C88.3167 -2.57843 88.7027 -2.37068 91.0037 -3.78977C95.1826 -6.36829 99.3069 -9.03517 103.463 -11.6516C103.942 -11.9541 104.475 -12.1682 104.982 -12.4231C105.065 -12.3045 105.145 -12.1821 105.228 -12.0635C104.609 -11.4815 103.997 -10.8904 103.373 -10.3146C98.9946 -6.27925 94.5915 -2.27124 90.2456 1.79716C88.9179 3.03986 88.6975 5.00305 89.5014 6.69262C91.1091 10.0718 92.7106 13.4553 94.3573 16.8183C94.6001 17.3128 95.0678 17.698 95.4332 18.1363C95.654 17.607 95.9951 17.0976 96.0755 16.5513C96.8933 11.0175 97.6686 5.47629 98.4652 -0.061223C98.5339 -0.547166 98.6765 -1.02345 98.7877 -1.50195C98.9132 -1.49311 99.042 -1.48477 99.1674 -1.47592C99.1997 -0.705203 99.2635 0.0677255 99.2578 0.837241C99.2158 7.59601 99.1536 14.3578 99.1083 21.1171C99.0895 23.9222 100.411 26.0998 102.795 27.3396C105.785 28.8957 108.961 30.1035 112.074 31.4206C112.887 31.7645 113.302 31.3544 113.285 30.5021C113.265 29.3746 113.306 28.2413 113.197 27.1234C112.53 20.1122 111.824 13.1032 111.143 6.09395C111.07 5.35675 111.08 4.61421 111.052 3.87383C111.187 3.85369 111.325 3.83304 111.461 3.81627C113.77 12.7919 115.036 22.0335 117.956 30.8523C118.111 30.8224 118.264 30.7891 118.418 30.7592C117.683 27.0153 116.949 23.2748 116.21 19.5314C116.348 19.5041 116.488 19.4728 116.625 19.4454C116.864 20.1198 117.125 20.7874 117.334 21.4697C118.101 23.9714 118.841 26.4805 119.607 28.9822C120.276 31.1746 120.477 31.2962 122.537 30.1993C126.445 28.1196 130.315 25.9663 134.206 23.8549C134.62 23.631 135.086 23.4959 135.529 23.3195C135.597 23.4333 135.666 23.5472 135.735 23.661C135.348 24.0255 134.982 24.4179 134.567 24.7489C130.637 27.8865 126.703 31.0213 122.752 34.1345C121.836 34.8573 121.596 35.6929 121.956 36.7903C123.622 41.8773 125.259 46.9721 126.929 52.0586C127.049 52.43 127.325 52.7542 127.532 53.099L127.953 53.0294C128.879 46.3281 129.306 39.5635 129.835 32.8147C130.006 32.8237 130.18 32.8356 130.35 32.8447C130.468 37.6527 130.59 42.4602 130.708 47.2682C130.798 47.2686 130.891 47.2719 130.981 47.2722C131.533 46.1936 132.086 45.1149 132.638 44.0363C132.8 44.1018 132.958 44.1678 133.119 44.2333C132.793 48.2081 130.358 51.9186 131.325 56.3413C133.589 52.7563 134.712 49.1004 134.757 45.1813C134.779 43.3235 135.352 41.9627 136.788 40.7969C137.59 40.1462 138.441 39.2918 138.767 38.3539C140.339 33.7897 141.825 29.1937 143.148 24.5496C143.492 23.3469 143.124 21.9439 143.1 20.6307C143.088 19.9293 142.982 19.1904 143.167 18.5388C143.457 17.5269 143.432 16.7103 142.715 15.8625C140.487 13.2172 138.404 10.4433 136.108 7.8597C129.906 0.882256 123.625 -6.0214 117.374 -12.9537C116.696 -13.7073 116.024 -14.4686 115.349 -15.2261C115.433 -15.3076 115.515 -15.3853 115.599 -15.4668C125.572 -6.73963 134.984 2.63671 145.576 10.806C145.725 10.4391 145.802 10.3311 145.809 10.2197C146.139 5.48258 146.587 0.748594 146.762 -3.99282C147.065 -12.2348 147.201 -20.483 147.407 -28.7278C147.647 -28.7636 147.886 -28.7993 148.126 -28.8351C148.448 -24.023 148.763 -19.21 149.089 -14.3985C149.493 -8.4646 149.873 -2.52718 150.331 3.40541C150.467 5.16721 150.834 6.90826 151.095 8.66155C151.202 8.68015 151.312 8.70163 151.418 8.72024C152.977 6.48481 154.596 4.28852 156.052 1.98576C156.423 1.39954 156.314 0.48515 156.34 -0.284015C156.367 -1.07054 155.963 -2.1166 156.332 -2.59915C157.343 -3.91168 157.055 -5.25788 156.88 -6.61734C155.893 -14.3116 154.868 -22.0004 153.854 -29.6907C154.65 -29.8095 155.446 -29.9284 156.245 -30.0477C157.659 -24.275 159.072 -18.5023 160.493 -12.7306C160.64 -12.139 160.84 -11.5588 161.084 -10.7543C161.415 -11.6102 161.683 -12.1914 161.869 -12.7982C162.73 -15.5913 163.574 -18.3887 164.411 -21.1885C164.707 -22.184 164.744 -23.3443 165.298 -24.1544C166.006 -25.1873 165.747 -25.8828 165.198 -26.7626C164.329 -28.1528 163.528 -29.5912 162.699 -31.0082C166.682 -31.603 170.664 -32.1977 174.646 -32.7925C174.362 -31.8298 174.261 -30.7564 173.752 -29.9359C173.183 -29.0201 173.261 -28.2873 173.545 -27.3542C174.166 -25.3169 173.587 -24.2549 171.725 -23.1978C171.128 -22.857 170.709 -22.1533 170.299 -21.5543C170.059 -21.2013 169.98 -20.7346 169.861 -20.3066C168.998 -17.1789 168.146 -14.0459 167.297 -10.9134C167.285 -10.8771 167.388 -10.8098 167.495 -10.6948C167.721 -10.9112 167.967 -11.1066 168.167 -11.3398C171.198 -14.8912 174.302 -18.3881 177.199 -22.0437C178.183 -23.2833 178.653 -24.9356 179.351 -26.4014C179.401 -26.5054 179.381 -26.6402 179.391 -26.7589C179.561 -29.0318 179.732 -31.3047 179.903 -33.5776C181.656 -33.8394 183.406 -34.1008 185.16 -34.3627C185.168 -32.7577 185.136 -31.1534 185.213 -29.5518C185.233 -29.1653 185.609 -28.794 185.824 -28.416C185.953 -28.7938 186.21 -29.1734 186.196 -29.547C186.133 -31.1887 185.992 -32.829 185.878 -34.4699C186.195 -34.5173 186.515 -34.5651 186.832 -34.6124C187.19 -32.839 187.548 -31.0623 187.903 -29.2883C188.078 -28.4182 188.619 -28.075 189.475 -28.1788C189.915 -28.2308 190.357 -28.2761 190.788 -28.368C195.117 -29.2938 199.441 -30.2325 203.772 -31.1448C204.29 -31.2532 204.842 -31.208 205.375 -31.236C205.407 -31.0925 205.439 -30.949 205.474 -30.8061C205.138 -30.5629 204.831 -30.2654 204.464 -30.0866C203.89 -29.8043 203.277 -29.5887 202.673 -29.364C198.677 -27.871 194.675 -26.3876 190.679 -24.8945C189.729 -24.5389 188.838 -24.0921 189.087 -22.8368C189.86 -18.9297 190.633 -15.0226 191.48 -11.13C191.734 -9.9581 192.313 -9.84463 193.167 -10.6581C193.632 -11.0998 194.087 -11.5641 194.484 -12.068C198.638 -17.3487 202.777 -22.6443 206.931 -27.925C207.172 -28.2298 207.51 -28.4595 207.804 -28.7275C207.907 -28.6636 208.006 -28.6025 208.108 -28.5385C208.024 -28.2227 208.005 -27.8682 207.846 -27.5962C206.623 -25.5143 205.343 -23.4653 204.135 -21.3753C200.875 -15.7353 197.616 -10.092 194.42 -4.41672C193.636 -3.02078 193.41 -1.48424 193.887 0.140397C194.106 0.886791 194.052 1.72893 194.034 2.52794C194.006 3.89013 193.79 5.25642 193.868 6.60975C194.017 9.29667 194.057 12.0311 194.606 14.6479C195.321 18.0501 195.778 18.1784 199.068 17.1044C202.818 15.8791 206.544 14.5816 210.288 13.3399C210.794 13.1713 211.352 13.1673 211.885 13.0877C211.911 13.1975 211.938 13.3072 211.962 13.4208C211.765 13.6019 211.596 13.834 211.366 13.9579C209.706 14.8642 208.021 15.7226 206.369 16.6414C203.45 18.2631 200.523 19.8722 197.65 21.5732C196.297 22.3715 196.235 23.0392 196.967 24.3845C197.252 24.9072 197.399 25.4988 197.627 26.0542C198.568 28.3437 199.475 30.6521 200.482 32.9146C201.301 34.7535 202.035 36.5776 203.45 38.1794C204.839 39.7505 205.438 41.9153 204.899 44.164C204.673 45.1008 204.494 46.0445 204.311 46.9887C203.435 51.4694 204.099 55.9822 204.043 60.4785C204.041 60.558 204.06 60.6379 204.079 60.7179C204.317 61.7544 204.868 61.8892 205.707 61.2537C206.174 60.8979 206.795 60.7396 207.36 60.5277C207.768 60.3738 208.226 60.3294 208.611 60.1341C209.907 59.4889 211.198 58.8274 212.46 58.1184C218.004 55.0052 223.53 51.8704 229.073 48.7538C229.477 48.528 229.95 48.416 230.387 48.2541C230.457 48.3747 230.531 48.4982 230.6 48.6187C230.146 49.0382 229.734 49.5133 229.236 49.8703C226.625 51.7528 223.984 53.595 221.368 55.4678C217.31 58.3729 213.274 61.3025 209.207 64.1917C208.138 64.9511 207.671 65.8895 207.914 67.1906C208.126 68.3377 208.299 69.4942 208.468 70.6478C208.625 71.6998 209.22 72.4072 210.157 72.8428C211.288 73.3703 212.423 73.8867 213.569 74.3808C218.225 76.3809 222.871 78.4067 227.552 80.3478C229.132 81.0046 229.501 80.6806 229.4 78.9413C229.095 73.7613 228.753 68.5834 228.434 63.4021C228.408 62.9751 228.453 62.5409 228.465 62.1083C228.578 62.1018 228.687 62.0958 228.8 62.0893C229.214 63.5027 229.635 64.9117 230.036 66.3271C230.834 69.155 231.608 71.9865 232.432 74.8036C232.53 75.1303 232.887 75.3802 233.127 75.6685C233.338 75.399 233.627 75.1629 233.754 74.8579C235.132 71.5084 236.522 68.1642 237.831 64.7906C238.846 62.1676 239.937 59.5504 239.125 56.604C238.943 55.9417 238.991 55.104 239.239 54.4602C239.947 52.6207 239.532 50.8799 238.98 49.1492C237.052 43.0915 235.11 37.0358 233.109 31.0026C232.815 30.1193 232.27 29.2631 231.655 28.5588C230.961 27.7662 230.71 26.966 230.742 25.9307C230.767 25.1273 230.675 24.2138 230.307 23.5243C229.498 22.0112 229.121 20.5715 229.918 18.9359C230.131 18.4973 230.13 17.9081 230.095 17.3963C229.759 12.5415 229.471 7.68294 229.017 2.83897C228.634 -1.24705 228.041 -5.31197 227.56 -9.38677C227.513 -9.76591 227.613 -10.16 227.645 -10.5473C227.77 -10.5626 227.895 -10.5778 228.024 -10.5902C228.22 -10.0438 228.452 -9.50286 228.605 -8.94311C230.255 -2.97135 231.876 3.0117 233.559 8.97506C233.75 9.6498 234.257 10.2324 234.616 10.8578C235.094 10.2487 235.723 9.70666 236.024 9.0206C237.473 5.70541 238.884 2.36828 240.197 -1.00583C240.528 -1.85841 240.487 -2.87592 240.532 -3.82022C240.592 -5.09777 240.4 -6.40987 240.632 -7.64753C240.919 -9.16902 240.895 -10.596 240.36 -12.0327C238.62 -16.7089 236.904 -21.392 235.125 -26.0554C234.876 -26.7076 234.448 -27.4054 233.898 -27.8093C232.24 -29.0301 231.596 -30.7573 231.212 -32.6405C231.111 -33.1287 231.023 -33.7911 231.262 -34.1508C232.187 -35.5265 231.754 -36.9474 231.578 -38.3585C231.459 -39.3162 231.229 -40.2573 231.049 -41.2059C239.493 -42.4669 247.936 -43.7279 256.379 -44.9889C256.052 -44.6402 255.758 -44.2517 255.394 -43.9456C252.696 -41.6537 249.986 -39.3739 247.279 -37.0911C245.369 -35.4821 243.343 -33.9524 243.118 -31.1614C243.113 -31.0847 243.069 -31.0059 243.024 -30.9405C242.193 -29.7168 242.314 -28.425 242.774 -27.1219C243.759 -24.3115 244.744 -21.5012 245.762 -18.7026C245.897 -18.3298 246.202 -18.017 246.557 -17.4841C248.103 -20.176 248.525 -23.1173 250.373 -25.4268C250.559 -24.7583 250.574 -24.123 250.417 -23.5377C249.701 -20.8558 248.941 -18.1848 248.185 -15.5143C247.843 -14.2981 248.181 -13.2835 249.075 -12.4449C249.873 -11.6921 250.694 -12.1939 251.424 -12.551C258.721 -16.1296 266.004 -19.7369 273.291 -23.3347L274.255 -16.8846C267.049 -12.7855 259.805 -8.75648 252.677 -4.53105C251.15 -3.62745 249.866 -2.13626 248.807 -0.668174C247.866 0.630399 247.431 2.28447 246.713 3.75328C245.21 6.82147 243.643 9.85778 242.148 12.9317C240.984 15.3184 240.401 17.8321 240.527 20.5226C240.576 21.5458 240.416 22.6384 240.077 23.6024C239.512 25.2173 239.611 26.757 240.101 28.3348C241.343 32.3339 242.522 36.3527 243.843 40.3228C244.411 42.0269 245.278 43.6312 246.003 45.2808C246.437 46.2707 246.941 47.24 247.273 48.2624C247.559 49.14 247.961 49.2729 248.669 48.7742C252.553 46.0433 256.428 43.2999 260.321 40.5814C261.214 39.9586 261.233 39.3284 260.667 38.4477C259.431 36.516 258.254 34.5443 257.102 32.5585C256.819 32.07 256.73 31.4698 256.554 30.917C256.671 30.8685 256.791 30.8196 256.908 30.7711C257.186 31.0432 257.499 31.2928 257.738 31.5984C259.121 33.3774 260.51 35.1553 261.849 36.9683C262.952 38.465 263.091 38.5408 264.583 37.3597C266.09 36.166 267.502 34.8418 269.026 33.6696C270.934 32.2024 272.944 30.8647 274.864 29.4095C276.75 27.98 276.761 27.6854 275.966 25.4326C275.558 24.2699 275.324 23.0468 274.987 21.8561C274.741 20.9899 274.461 20.132 274.181 19.2776C273.909 18.4462 273.405 17.6322 273.373 16.7959C273.14 10.3677 271.937 4.08786 270.658 -2.1876C270.113 -4.87056 269.641 -7.56798 269.177 -10.263C269.096 -10.7369 269.216 -11.2444 269.243 -11.7344C269.392 -11.7498 269.542 -11.7619 269.692 -11.7773C269.901 -11.3707 270.165 -10.9862 270.311 -10.56C270.696 -9.45934 271.023 -8.33612 271.388 -7.22569C273.074 -2.10366 274.746 3.02376 276.461 8.13789C276.879 9.38876 277.193 9.41425 278.038 8.44702C280.393 24.2165 282.748 39.9859 285.103 55.7554C284.825 56.9828 284.455 58.1996 284.296 59.4435C284.134 60.688 284.54 61.0065 285.888 61.0119C286.162 62.8427 286.436 64.677 286.709 66.5078C285.447 67.01 285.022 67.6525 285.449 68.778C286.228 70.8298 287.117 72.8409 287.958 74.8696C289.968 88.3295 291.979 101.789 293.989 115.249C292.727 116.751 292.703 118.478 293.094 120.267C293.783 123.404 294.433 126.554 295.222 129.666C295.508 130.802 296.151 131.847 296.63 132.93C297.201 136.754 297.772 140.577 298.343 144.401C297.824 145.247 297.08 146.03 296.827 146.95C296.278 148.952 295.911 151.013 295.601 153.069C295.124 156.205 294.589 159.359 295.993 162.435C296.166 162.812 296.141 163.309 296.109 163.744C295.851 167.461 297.863 170.411 299.39 173.526C299.41 173.568 299.536 173.559 299.764 173.605C299.848 173.196 299.979 172.787 300.004 172.376C300.16 169.771 300.267 167.166 300.437 164.563C300.513 163.414 300.702 162.272 300.841 161.128C302.28 170.764 303.72 180.404 305.159 190.04C304.735 190.755 304.152 191.421 303.922 192.193C303.405 193.946 303.05 195.746 302.648 197.53C301.464 202.781 300.226 208.022 299.128 213.291C298.591 215.863 299.367 217.154 301.706 218.3C302.067 218.477 302.425 218.658 302.786 218.835C303.664 219.266 304.205 219.106 304.434 218.051C305.226 214.4 306.054 210.757 306.896 207.119C307.02 206.587 307.28 206.086 307.475 205.574C307.892 208.363 308.308 211.151 308.724 213.936C308.481 215.744 308.237 217.552 307.994 219.36C308.103 219.379 308.216 219.396 308.326 219.414C308.578 218.384 308.831 217.353 309.081 216.323C310.247 224.129 311.412 231.934 312.578 239.74C307.082 240.561 301.586 241.382 296.089 242.202C295.816 240.213 295.713 238.181 295.237 236.242C294.068 231.481 292.912 226.7 291.374 222.056C290.684 219.974 290.007 217.821 289.15 215.843C287.495 212.033 285.169 208.506 283.046 204.907C281.351 202.031 279.537 199.23 277.817 196.368C277.634 196.064 277.745 195.586 277.72 195.19C278.048 195.351 278.467 195.433 278.691 195.689C280.393 197.62 282.046 199.593 283.732 201.541C286.207 204.401 288.679 207.265 291.191 210.095C292.049 211.063 292.525 210.999 292.777 209.934C294.289 203.556 295.783 197.173 297.22 190.778C297.38 190.072 297.182 189.274 297.101 188.524C297.002 187.612 296.87 186.701 296.72 185.792C296.514 184.531 296.499 183.182 296.017 182.03C294.241 177.801 292.39 173.599 290.385 169.477C289.523 167.702 288.111 166.486 285.8 166.594C279.21 166.899 272.612 167.033 266.02 167.301C262.079 167.462 258.145 167.732 254.211 167.999C253.722 168.031 253.18 168.253 252.786 168.546C249.106 171.281 245.435 174.029 241.811 176.838C241.277 177.252 240.881 177.949 240.626 178.597C239.571 181.274 239.189 184.206 237.379 186.607C236.475 187.803 236.714 188.271 238.083 188.897C239.877 189.715 241.705 190.459 243.469 191.333C244.449 191.821 245.212 191.689 246.008 191.022C247.06 190.145 248.119 189.273 249.24 188.492C249.673 188.19 250.292 188.153 250.827 187.997C250.597 188.49 250.463 189.068 250.114 189.454C249.412 190.225 248.59 190.885 247.825 191.599C247.613 191.796 247.434 192.03 247.239 192.248C247.296 192.329 247.356 192.41 247.413 192.488C249.073 191.626 250.751 190.79 252.397 189.899C258.061 186.83 263.707 183.739 269.371 180.67C269.833 180.419 270.366 180.294 270.866 180.109C270.939 180.253 271.009 180.398 271.082 180.542C270.744 180.838 270.436 181.177 270.066 181.421C264.028 185.422 257.963 189.382 251.951 193.423C250.573 194.349 249.294 195.392 247.875 196.297C243.132 199.325 238.62 202.718 234.087 206.067C232.734 207.068 232.475 208.772 232.24 210.341C232.15 210.937 232.475 211.591 232.647 212.396C233.187 211.833 233.518 211.484 233.852 211.138C234 211.202 234.151 211.269 234.298 211.333C234.106 212.051 233.846 212.759 233.742 213.491C233.594 214.533 233.227 215.702 233.534 216.624C235.093 221.314 236.832 225.945 238.519 230.595C239.012 231.955 239.577 233.291 240.037 234.663C240.54 236.163 240.866 236.383 242.277 235.604C250.024 231.324 257.753 227.009 265.482 222.697C266.71 222.01 267.9 221.25 269.148 220.605C269.464 220.441 269.937 220.58 270.337 220.583C270.205 220.923 270.157 221.337 269.926 221.592C269.579 221.971 269.113 222.241 268.694 222.555C264.343 225.804 259.984 229.043 255.651 232.321C255.31 232.578 254.965 233.085 254.956 233.483C254.932 234.41 254.432 234.867 253.71 235.23C252.633 235.77 251.507 236.242 250.484 236.87C249.041 237.754 247.674 238.758 246.085 239.843C246.656 240.206 246.862 240.41 247.107 240.48C251.356 241.717 255.602 242.955 259.862 244.152C262.611 244.924 265.378 245.631 268.135 246.367C264.311 246.938 260.487 247.509 256.664 248.08C256.354 247.995 256.047 247.876 255.734 247.836C251.341 247.314 246.946 246.784 242.545 246.308C240.824 246.12 239.723 247.053 239.463 248.774C239.368 249.409 239.302 250.049 239.221 250.689C234.045 251.462 228.866 252.235 223.69 253.008C222.251 250.018 221.017 246.903 219.303 244.084C218.225 242.308 217.713 240.289 216.612 238.62C213.095 233.285 209.428 228.046 205.692 222.858C202.613 218.581 199.352 214.432 196.189 210.213C195.917 209.851 195.773 209.39 195.572 208.972C195.687 208.886 195.802 208.799 195.916 208.713C196.276 208.977 196.694 209.19 196.991 209.515C199.803 212.559 202.555 215.66 205.402 218.675C209.378 222.89 213.418 227.043 217.443 231.212C217.695 231.471 218.041 231.64 218.529 231.977C218.641 231.34 218.747 230.963 218.768 230.577C218.959 227.443 218.935 224.282 219.368 221.184C219.859 217.684 218.696 214.514 217.14 211.755C215.668 209.152 213.278 206.855 210.825 205.067C206.934 202.232 202.65 199.931 198.539 197.402C197.682 196.875 196.794 196.38 196.012 195.759C195.715 195.525 195.667 194.973 195.503 194.567C195.941 194.543 196.446 194.371 196.81 194.527C197.993 195.033 199.121 195.664 200.277 196.225C200.519 196.344 200.802 196.374 201.068 196.442C201.108 196.343 201.152 196.243 201.192 196.144C200.842 195.927 200.476 195.737 200.153 195.489C199.783 195.206 199.427 194.894 199.113 194.552C198.421 193.793 197.883 192.822 197.061 192.259C191.622 188.525 186.16 184.818 180.631 181.215C176.381 178.448 172.022 175.852 167.718 173.165C167.35 172.934 167.037 172.618 166.699 172.341C166.756 172.26 166.816 172.176 166.873 172.095C167.197 172.212 167.537 172.296 167.846 172.449C172.149 174.554 176.433 176.696 180.746 178.778C185.894 181.26 191.058 183.708 196.23 186.141C197.657 186.81 198.155 186.498 198.278 184.963C198.331 184.283 198.369 183.588 198.289 182.914C197.809 178.918 197.651 174.837 196.673 170.964C195.99 168.263 194.651 165.385 192.752 163.404C188.738 159.219 184.451 155.23 179.439 152.163C179.269 152.061 179.088 151.94 178.975 151.781C177.736 150.063 175.714 149.428 173.969 148.706C170.711 147.362 167.25 146.462 163.814 145.617C154.864 143.414 145.878 141.34 136.91 139.205C136.503 139.107 136.115 138.91 135.72 138.762C136.086 138.511 136.362 138.487 136.633 138.526C142.295 139.301 147.949 140.156 153.622 140.846C159.932 141.616 166.258 142.267 172.583 142.912C174.162 143.072 174.586 142.544 174.47 140.934C174.333 139.048 174.193 137.163 174.045 135.276C173.619 129.793 173.439 129.21 170.415 124.309C170.142 123.863 169.629 123.478 169.142 123.265C163.695 120.859 158.227 118.501 152.777 116.099C151.836 115.684 151.183 115.906 150.566 116.664C149.368 118.128 148.091 119.529 146.92 121.013C142.913 126.103 138.917 131.202 134.961 136.329C133.935 137.657 133.973 137.865 135.184 138.936C138.768 142.113 142.393 145.242 145.989 148.404C146.873 149.182 147.72 150.006 148.585 150.808C148.489 150.929 148.393 151.05 148.298 151.171C143.715 147.951 139.135 144.733 134.306 141.338C134.361 142.057 134.35 142.418 134.422 142.762C134.833 144.727 135.21 146.701 135.697 148.648C136.759 152.895 137.857 157.129 139.005 161.352C139.21 162.104 139.746 162.762 140.091 163.479C140.622 164.585 141.126 165.703 141.619 166.829C141.812 167.269 141.873 167.77 142.107 168.183C144.383 172.251 146.618 176.344 149.005 180.347C149.984 181.987 151.277 183.448 152.487 184.943C153.15 185.76 153.767 185.692 154.311 184.694C155.681 182.187 157.193 179.755 158.507 177.222C162.399 169.719 166.226 162.182 170.085 154.663C170.242 154.357 170.463 154.083 170.655 153.796C170.757 154.366 170.651 154.854 170.471 155.315C168.918 159.291 167.276 163.231 165.806 167.235C163.016 174.825 160.315 182.45 157.613 190.071C157.426 190.595 157.518 191.233 157.539 191.816C157.576 192.8 157.851 193.813 157.692 194.754C157.335 196.841 156.645 198.871 156.326 200.959C156.062 202.698 156.082 204.491 156.07 206.257C156.039 210.484 156.05 214.712 156.085 218.936C156.091 219.69 156.296 220.442 156.408 221.194C156.558 221.203 156.711 221.214 156.861 221.223C157.072 220.864 157.313 220.514 157.492 220.14C159.492 215.966 161.473 211.782 163.484 207.618C163.708 207.154 164.11 206.773 164.426 206.354C164.558 206.43 164.687 206.508 164.819 206.585C164.731 207.035 164.705 207.505 164.551 207.931C162.625 213.268 160.791 218.644 158.686 223.911C157.873 225.946 158.091 227.499 159.361 229.146C161.791 232.306 164.152 235.518 166.551 238.699C166.804 239.034 167.134 239.305 167.431 239.605C167.539 239.569 167.651 239.535 167.76 239.498C168.224 226.823 167.641 214.143 167.772 201.449C169.645 214.684 170.522 228.038 173.015 241.219C173.496 240.975 173.795 240.72 174.037 240.422C175.68 238.384 177.367 236.381 178.929 234.286C182.468 229.546 185.941 224.756 189.453 219.999C189.751 219.596 190.158 219.273 190.511 218.913C190.624 218.997 190.74 219.083 190.853 219.169C190.748 219.485 190.696 219.827 190.535 220.11C188.702 223.282 186.858 226.446 185.011 229.61C181.398 235.796 177.715 241.944 174.871 248.545C174.487 249.434 174.542 250.039 175.171 250.831C175.65 251.431 175.872 252.343 175.947 253.141C176.161 255.45 176.246 257.774 176.382 260.091C174.311 260.4 172.241 260.709 170.167 261.019C169.684 258.058 168.435 255.397 167.267 252.704C167.069 252.692 166.874 252.677 166.675 252.665C165.21 255.845 163.747 259.021 162.281 262.2C158.059 262.831 153.838 263.461 149.616 264.092C147 262.108 144.38 260.124 141.764 258.14C141.87 257.976 141.977 257.812 142.087 257.65C144.591 259.093 147.096 260.535 149.8 262.096C149.808 261.475 149.848 261.234 149.807 261.009C149.265 257.795 148.793 254.564 148.137 251.373C147.647 248.992 147.342 246.511 145.663 244.528C145.366 244.176 145.303 243.638 145.074 243.213C144.278 241.74 143.618 240.16 142.618 238.837C140.944 236.63 138.969 234.649 137.27 232.459C136.224 231.113 135.047 230.682 133.404 230.927C125.601 232.086 117.787 233.198 109.976 234.309C109.112 234.431 108.765 234.807 108.744 235.727C108.595 243.084 108.383 250.441 108.228 257.799C108.196 259.341 108.317 260.888 108.358 262.202C109.096 262.436 109.592 262.593 110.087 262.75C109.744 263.177 109.462 263.685 109.038 264.01C108.209 264.647 108.162 267.077 108.957 267.948C109.51 268.555 109.942 269.276 110.424 269.945C106.759 270.493 103.097 271.04 99.4319 271.587C99.5359 271.037 99.6646 270.491 99.7372 269.939C99.8048 269.422 99.8198 268.899 99.8561 268.38C99.3232 268.435 98.7384 268.375 98.2609 268.57C95.7288 269.596 93.2101 270.665 90.7098 271.766C89.6097 272.247 88.5566 272.835 87.4824 273.375C80.3946 274.434 73.3035 275.493 66.2158 276.551C65.5154 275.601 65.2877 274.584 65.484 273.382C65.6177 272.57 65.507 271.69 65.3668 270.866C65.0292 268.883 64.7205 266.885 64.1966 264.947C63.2615 261.502 62.9909 257.913 61.5738 254.564C60.5679 252.191 59.111 250.33 56.9272 249.095C52.1986 246.423 47.4138 243.86 42.658 241.237C42.151 240.957 41.7006 240.573 41.2231 240.238C41.2897 240.107 41.3598 239.976 41.426 239.842C41.8748 239.916 42.3398 239.936 42.7702 240.072C47.1348 241.461 51.4876 242.886 55.8565 244.257C56.4604 244.446 57.1413 244.389 57.7878 244.447C57.6523 243.84 57.6327 243.178 57.3655 242.635C53.8754 235.539 50.3565 228.457 46.828 221.38C46.6898 221.101 46.4404 220.862 46.2024 220.653C43.971 218.684 41.7338 216.722 39.4967 214.761C38.8935 214.23 38.2625 213.721 37.7073 213.143C37.5277 212.956 37.5436 212.578 37.4728 212.288C37.7655 212.286 38.1154 212.182 38.3403 212.304C39.4701 212.921 40.5565 213.617 41.681 214.245C42.1363 214.501 42.6426 214.66 43.305 214.94C43.3065 213.058 41.6299 211.895 42.1039 210.152C42.6511 210.608 43.0917 211.111 43.4404 211.669C44.2481 212.969 44.9304 214.353 45.825 215.587C46.468 216.477 47.3119 217.258 48.1846 217.93C48.6754 218.309 49.4092 218.375 50.0325 218.578C50.0744 217.89 50.2766 217.166 50.1322 216.523C49.4629 213.541 48.6866 210.583 47.9734 207.607C47.5064 205.657 47.3777 205.442 45.4567 206.105C39.0676 208.31 32.7198 210.63 26.3597 212.914C24.6553 213.527 22.973 214.195 21.2622 214.789C20.9836 214.885 20.6132 214.713 20.2855 214.666C20.4701 214.355 20.5832 213.935 20.8525 213.754C21.4858 213.332 22.1946 213.022 22.8731 212.673C29.3437 209.328 35.8283 206.009 42.2804 202.632C44.3713 201.538 44.3966 201.131 42.5303 199.62C39.684 197.319 36.8257 195.03 33.8928 192.841C29.6335 189.665 25.3025 186.586 21.0121 183.456C20.6217 183.173 20.2944 182.805 19.9351 182.476C19.998 182.366 20.061 182.257 20.1273 182.147C20.5859 182.309 21.0797 182.408 21.4945 182.646C25.0251 184.659 28.5285 186.721 32.0711 188.722C35.6775 190.758 39.3121 192.752 42.9515 194.732C43.2553 194.897 43.6979 194.813 44.0752 194.847C44.1097 194.431 44.288 193.964 44.156 193.611C42.2815 188.607 40.3477 183.622 38.4731 178.618C38.1014 177.629 37.4559 177.115 36.4702 176.931C35.0061 176.661 33.5492 176.323 32.0741 176.14C26.0048 175.385 19.93 174.686 13.8564 173.949C13.3261 173.884 12.8103 173.685 12.2902 173.549L12.354 173.122C12.8429 173.049 13.3329 172.914 13.8223 172.913C16.7615 172.905 19.7014 173.018 22.6333 172.914C26.2477 172.788 29.8618 172.545 33.4689 172.254C35.2809 172.108 35.6729 171.201 34.7478 169.623C34.0356 168.409 33.3139 167.2 32.5547 166.017C30.8829 163.409 29.1799 160.824 27.4985 158.221C27.2969 157.909 27.1621 157.561 26.9984 157.227C27.1732 157.035 27.348 156.844 27.5227 156.652C27.7937 157.036 28.0317 157.452 28.3391 157.802C29.9111 159.58 31.4894 161.354 33.0979 163.099C33.3935 163.417 33.8469 163.591 34.2274 163.83C34.2858 163.391 34.4748 162.925 34.383 162.518C33.8953 160.361 33.4095 158.193 32.7794 156.074C32.3025 154.473 31.7995 152.859 30.3306 151.748C29.9032 151.426 29.5028 150.545 29.6372 150.084C30.197 148.177 29.6342 146.485 29.268 144.634C28.7085 141.788 27.6534 139.177 26.6519 136.511C25.8343 134.337 25.1567 132.108 24.3488 129.93C24.2094 129.551 23.7712 129.179 23.3854 129.019C22.2291 128.547 21.4329 127.832 21.0586 126.595C20.9078 126.094 20.4855 125.643 20.106 125.249C19.3236 124.442 18.5497 123.599 17.6568 122.929C14.7989 120.781 11.8913 118.692 8.99037 116.602C8.46869 116.225 8.0596 116.417 7.94118 117.055C7.87302 117.407 7.85609 117.778 7.87137 118.134C8.14631 125.215 8.36629 132.296 8.74677 139.368C8.86089 141.471 9.15534 143.65 9.87897 145.61C10.5762 147.508 10.4409 149.373 9.84702 150.981C9.32368 152.394 8.96778 153.75 8.74279 155.221C8.48259 156.917 7.97916 158.578 7.58141 160.254C5.29775 144.964 3.01358 129.669 0.729918 114.379C1.97102 109.902 3.21211 105.425 4.40134 101.132C3.50337 100.267 2.64129 99.4336 1.77583 98.6012C1.93738 98.5288 2.1023 98.4559 2.26435 98.3869C2.20939 97.8574 2.32157 97.2236 2.07065 96.813C1.0855 95.2022 0.0119833 93.646 -1.07688 92.1024C-1.65003 91.2883 -2.31966 90.5439 -2.9456 89.7687L-2.97625 89.725ZM30.793 70.8078C30.9093 70.8938 31.0261 70.9832 31.1423 71.0693C30.9986 71.4458 30.8699 71.8304 30.7079 72.1993C30.3747 72.9694 29.8567 73.7017 29.7114 74.5059C28.6089 80.6027 27.5661 86.7078 26.5418 92.8205C26.4303 93.4817 26.5793 94.1798 26.5605 94.8617C26.5202 96.2534 26.4736 97.6494 26.3778 99.0391C26.3252 99.7949 26.0282 100.553 26.0638 101.299C26.3342 107.287 26.5502 113.28 27.0114 119.254C27.2572 122.423 28.2718 125.408 30.8915 127.553C33.2873 129.515 35.6692 131.5 38.0879 133.431C39.2936 134.395 39.6674 134.267 40.4117 132.95C41.7553 130.567 43.1289 128.201 44.4647 125.812C44.6497 125.481 44.6992 125.074 44.8126 124.702C45.0033 124.825 45.1969 124.945 45.3877 125.068C45.2792 125.518 45.2253 125.988 45.0583 126.417C44.0149 129.078 42.971 131.737 41.8759 134.375C41.4499 135.4 41.4661 136.201 42.4561 136.898C43.3424 137.524 44.1723 138.234 44.9951 138.942C45.3271 139.226 45.5769 139.606 45.865 139.942C45.7996 140.059 45.7338 140.172 45.6685 140.289C45.2483 140.176 44.7933 140.13 44.4194 139.934C43.6004 139.505 42.8323 138.979 42.0214 138.534C40.9328 137.939 40.3789 138.108 39.9692 139.265C39.2365 141.353 38.5802 143.467 37.8916 145.573C37.5293 146.678 37.9442 147.333 39.0423 147.669C43.2356 148.949 47.4024 150.329 51.6212 151.526C56.5775 152.93 61.5786 154.172 66.5552 155.504C67.0798 155.646 67.5653 155.942 68.0676 156.167C68.0291 156.324 67.9867 156.479 67.9482 156.636C67.424 156.635 66.8898 156.705 66.3777 156.623C61.6091 155.853 56.8511 155.016 52.078 154.284C48.0601 153.671 44.0279 153.146 39.9953 152.642C38.5342 152.46 38.2504 152.73 38.1925 154.166C38.1636 154.918 38.2249 155.698 38.3998 156.431C39.1002 159.366 39.7881 162.31 40.6276 165.208C41.2384 167.312 41.7962 169.432 43.2239 171.259C44.2845 172.614 44.8946 174.298 44.3605 176.146C44.277 176.441 44.2923 176.797 44.3685 177.1C44.747 178.618 45.0668 180.16 45.5738 181.638C46.9747 185.71 48.4286 189.767 49.9373 193.799C50.2689 194.68 50.8742 195.479 51.4499 196.241C52.5576 197.702 53.1003 199.352 53.2651 201.147C53.3205 201.749 53.2579 202.368 53.3831 202.953C54.5719 208.535 55.8011 214.111 56.9932 219.693C57.2487 220.896 57.8241 221.84 58.8162 222.575C59.5758 223.137 60.0239 223.921 59.7856 224.888C59.2168 227.196 59.762 229.369 60.5556 231.497C62.5244 236.763 64.1749 242.159 67.352 246.907C67.9245 247.762 68.2147 248.898 68.3429 249.94C68.581 251.835 68.4473 253.779 68.7451 255.657C69.2078 258.594 69.8964 261.497 70.5075 264.411C70.5712 264.722 70.775 265.002 71.011 265.498C71.2989 265.048 71.4895 264.847 71.5772 264.603C72.2031 262.862 72.8691 261.136 73.4085 259.37C74.6574 255.291 75.8411 251.192 77.0649 247.107C77.3406 246.184 77.6327 245.254 78.0148 244.373C78.1483 244.067 78.5729 243.887 78.8684 243.65C79.0017 243.988 79.2711 244.338 79.2476 244.665C79.1895 245.546 79.0379 246.423 78.8641 247.29C77.7728 252.817 76.6391 258.336 75.5797 263.868C75.1112 266.316 74.746 268.787 74.3948 271.259C74.2217 272.477 74.6298 272.809 75.8376 272.588C76.1126 272.536 76.3869 272.457 76.654 272.376C84.2011 270.077 91.7423 267.761 99.2983 265.499C100.344 265.184 100.608 264.642 100.434 263.64C99.9986 261.141 99.7112 258.616 99.1959 256.135C98.5837 253.19 97.9515 250.227 97.0188 247.374C96.4313 245.587 96.2534 244.004 96.9703 242.249C97.3241 241.386 97.4189 240.383 97.4635 239.435C97.5473 237.596 97.5135 235.753 97.5311 233.817C97.8311 233.841 98.1071 233.865 98.4356 233.896C98.5298 233.395 98.6346 232.966 98.6868 232.531C99.1971 228.377 99.8294 224.232 100.161 220.06C100.475 216.112 101.039 212.136 99.9691 208.18C99.8086 207.59 100.149 206.867 100.267 206.205C100.462 205.111 100.975 203.973 100.819 202.931C99.5294 194.296 98.115 185.68 96.745 177.06C96.5974 176.141 96.1244 175.536 95.2514 175.184C94.243 174.78 93.2437 174.343 92.2834 173.845C91.88 173.637 91.5785 173.234 91.2317 172.92C91.2948 172.835 91.3541 172.747 91.4172 172.661C92.3471 172.864 93.2757 173.08 94.2074 173.272C95.8291 173.605 96.0084 173.444 95.7016 171.829C95.2027 169.18 94.6632 166.537 94.1508 163.891C94.0585 163.412 94.0068 162.927 93.9352 162.448C94.0556 162.423 94.176 162.398 94.2959 162.37C94.4913 162.916 94.7198 163.454 94.8791 164.013C95.7247 166.951 96.5871 169.887 97.3662 172.841C97.6775 174.026 98.381 174.558 99.5307 174.755C100.755 174.965 100.943 174.837 100.885 173.553C100.823 172.146 100.758 170.739 100.717 169.332C100.709 169.099 100.819 168.862 100.874 168.629C101.212 169.051 101.329 169.465 101.399 169.885C101.627 171.316 101.817 172.752 102.055 174.182C102.251 175.356 103.252 175.968 104.356 175.558C104.545 175.489 104.775 174.927 104.719 174.873C104.005 174.201 104.379 173.473 104.678 172.866C106.278 169.615 106.392 166.389 104.656 163.163C104.398 162.681 104.084 162.173 103.668 161.835C101.683 160.222 99.2774 159.465 96.8493 159.017C92.7761 158.264 88.655 157.79 84.5552 157.182C84.157 157.125 83.7751 156.968 83.3863 156.857C83.3898 156.719 83.3932 156.58 83.3967 156.442C83.9531 156.359 84.5076 156.218 85.0673 156.203C88.5242 156.107 91.9869 156.073 95.4427 155.946C96.924 155.894 97.2944 155.235 96.6942 153.87C96.1609 152.654 95.5372 151.478 94.9814 150.272C94.1546 148.476 93.3324 146.71 91.7124 145.418C91.1958 145.005 90.8944 144.234 90.6606 143.569C89.1173 139.167 86.6023 135.368 83.5187 131.916C82.8194 131.135 82.1341 131.186 81.5282 132.045C81.0681 132.703 80.6738 133.41 80.2558 134.096C78.5466 136.916 76.8496 139.748 75.1176 142.553C74.8814 142.933 74.4592 143.2 74.1247 143.522C74.009 143.439 73.8932 143.357 73.7808 143.274C74.0384 142.529 74.2408 141.761 74.5618 141.047C76.1527 137.528 77.7693 134.019 79.3898 130.513C79.9833 129.225 80.5389 127.96 80.2425 126.46C80.1708 126.095 80.4532 125.401 80.7537 125.266C82.1754 124.63 82.3396 123.444 82.2981 122.151C82.2319 120.161 81.4088 118.482 80.0076 117.109C77.8515 114.997 75.6446 112.938 73.4703 110.843C73.1162 110.503 72.831 110.094 72.5123 109.714C72.999 109.511 73.3268 109.582 73.6582 109.609C74.349 109.664 74.8066 109.358 74.6815 108.636C74.3751 106.861 74.1726 105.044 73.6161 103.348C71.7108 97.5389 69.6963 91.7594 67.6665 85.9926C66.5411 82.7964 66.4003 82.8002 63.4295 84.5813C60.0129 86.6324 56.5822 88.6579 53.1525 90.6902C52.8672 90.857 52.5492 90.9665 52.2453 91.1015C52.3131 90.7708 52.4663 90.5963 52.6491 90.4587C56.4102 87.6909 60.1839 84.9385 63.9324 82.1554C64.8941 81.4396 65.7445 80.5784 66.7023 79.8597C67.794 79.0452 68.9927 78.3698 70.0679 77.5371C71.2516 76.6227 71.2743 75.9437 70.3119 74.8086C70.0273 74.472 69.5783 74.2357 69.3946 73.8598C69.0586 73.1793 68.7762 72.4424 68.6379 71.7013C68.417 70.5451 68.4662 69.3279 68.1601 68.2017C67.7928 66.8502 67.1275 65.5812 66.6904 64.247C66.4515 63.5244 66.45 62.7525 67.5478 62.6712C68.4037 62.6089 68.3434 61.9975 68.2487 61.4325C67.9894 59.927 67.6357 58.4356 67.4202 56.9236C67.2457 55.7088 66.7603 54.7438 65.8609 53.8923C65.339 53.398 64.7383 52.6536 64.7285 52.0105C64.6852 49.2284 63.432 46.9993 61.8922 44.8371C61.2384 43.9213 60.6075 42.9746 60.0901 41.9799C59.439 40.7363 58.5555 39.8755 57.1883 39.4455C55.806 39.0073 55.2384 38.0684 55.675 36.745C56.7569 33.464 56.3437 30.3511 55.0845 27.206C54.5951 25.9831 53.9017 25.2869 52.6816 24.9418C49.2342 23.971 45.719 23.169 42.3793 21.9029C39.4997 20.8095 37.6219 21.6001 35.8363 23.8625C32.1232 28.5671 28.3287 33.2115 24.4789 37.809C22.8524 39.7513 21.7437 41.8368 21.4145 44.3643C21.2305 45.7637 21.3944 46.2838 22.5071 46.6484C24.6243 47.3456 25.5653 47.1603 26.1358 45.8101C26.7472 44.3641 27.2483 42.8726 27.8234 41.4148C28.0009 40.9643 28.2769 40.5509 28.5095 40.1232C28.6182 40.1586 28.7241 40.198 28.8328 40.2334C28.7877 40.6469 28.7894 41.0741 28.6873 41.4754C28.3397 42.8406 27.9597 44.1968 27.5797 45.553C27.1351 47.1464 27.3966 47.6279 29.0153 47.8721C31.6818 48.277 34.3566 48.6221 37.0221 49.0202C37.5684 49.1006 38.0934 49.3152 38.6295 49.4661C38.6136 49.6132 38.5982 49.7637 38.5856 49.9104C38.0258 49.994 37.4689 50.1427 36.9082 50.1506C33.9712 50.1963 31.0307 50.2184 28.0939 50.2192C26.9705 50.2215 26.2579 50.6899 25.9858 51.7991C25.881 52.2283 25.7443 52.652 25.6144 53.0747C25.3541 53.9167 25.6109 54.5747 26.3075 55.0842C28.1293 56.4115 29.9339 57.762 31.7777 59.0515C35.0729 61.3583 38.4002 63.6258 41.7046 65.9243C42.0664 66.177 42.3689 66.5179 42.6996 66.8166C42.6266 66.9275 42.554 67.0417 42.4809 67.1526C41.7497 66.8034 40.996 66.4885 40.2857 66.0948C35.7371 63.5892 31.2027 61.0642 26.6569 58.5547C24.7597 57.5076 24.3977 57.6685 23.9022 59.821C23.0375 63.5866 22.1733 67.3556 21.3617 71.1306C21.1598 72.0638 21.0681 73.0426 21.0727 73.9968C21.0837 75.6393 21.1876 77.2817 21.2978 78.9198C21.3209 79.2817 21.5347 79.629 21.6599 79.9825C22.0139 79.8366 22.4643 79.7831 22.7019 79.527C25.0273 77.0254 27.3125 74.485 29.6181 71.9656C29.9916 71.5583 30.4093 71.1926 30.8065 70.8058L30.793 70.8078ZM207.87 135.815C207.906 135.92 207.943 136.028 207.983 136.132C207.486 136.365 207.009 136.654 206.489 136.817C205.145 137.239 204.598 138.12 204.551 139.516C204.511 140.839 204.245 142.154 204.098 143.472C204.007 144.271 203.721 145.148 203.946 145.852C204.176 146.559 204.878 147.171 205.506 147.643C205.623 147.729 206.54 147.037 206.826 146.553C208.696 143.402 210.48 140.206 212.32 137.036C213.027 135.817 213.27 134.605 212.731 133.238C211.433 129.944 210.206 126.621 208.901 123.331C208.265 121.727 207.778 119.966 206.761 118.629C205.303 116.713 204.803 114.523 204.113 112.348C202.441 107.058 200.785 101.763 198.991 96.5156C197.9 93.3212 196.55 90.2138 195.344 87.0539C195.151 86.545 195.111 85.9788 195 85.4405C195.158 85.372 195.321 85.3063 195.48 85.2378C195.982 85.9727 196.565 86.6681 196.979 87.4509C198.651 90.617 200.26 93.8201 201.913 96.996C202.546 98.2079 203.218 99.4037 203.911 100.582C204.054 100.826 204.375 100.968 204.613 101.156C204.776 100.863 205.015 100.59 205.078 100.277C205.162 99.8922 205.072 99.4748 205.106 99.0734C205.243 97.4777 205.219 95.8372 205.595 94.2987C206.017 92.5709 205.935 90.9872 205.381 89.3327C205.082 88.4397 205.023 87.4628 204.872 86.5203C204.611 84.8668 204.509 83.1723 204.073 81.569C203.547 79.6347 202.633 77.8065 202.076 75.8801C200.963 72.0272 198.714 69.1816 195.123 67.3603C193.653 66.6146 192.258 65.7234 190.851 64.8616C190.419 64.5987 190.058 64.2182 189.665 63.8909L189.901 63.4902C190.4 63.6466 190.923 63.7546 191.397 63.97C192.972 64.6861 194.524 65.4505 196.094 66.1811C196.668 66.4469 197.135 66.498 197.406 65.706C198.076 63.7549 198.597 61.7951 198.529 59.7026C198.384 55.2434 198.338 50.783 198.131 46.326C198.06 44.7924 197.572 44.4792 196.09 44.6834C193.458 45.0454 190.83 45.4516 188.222 45.9412C184.224 46.6899 180.248 47.5319 176.26 48.3171C175.778 48.4132 175.274 48.3885 174.779 48.421C174.743 48.2921 174.702 48.1602 174.666 48.0312C175.446 47.7148 176.218 47.3686 177.01 47.0848C182.579 45.0915 188.164 43.1337 193.726 41.1104C195.681 40.3979 195.653 40.3297 195.333 38.3265C195.286 38.0096 195.279 37.6866 195.279 37.3626C195.264 35.438 194.889 33.6223 193.918 31.9232C193.303 30.8466 192.741 29.7206 192.332 28.5511C192.016 27.654 191.541 27.0804 190.73 26.5706C190.076 26.1582 189.297 25.4231 189.195 24.7387C188.595 20.7919 186.438 17.6327 184.202 14.53C180.91 9.95817 177.494 5.47731 174.151 0.940522C173.78 0.437612 173.545 -0.168372 173.247 -0.727197C173.377 -0.825896 173.511 -0.925103 173.641 -1.0238C174.161 -0.567161 174.723 -0.151283 175.193 0.347133C178.181 3.50294 181.142 6.68351 184.129 9.83932C184.445 10.1748 184.875 10.4001 185.254 10.6778C185.349 10.5948 185.446 10.5112 185.541 10.4282C184.624 8.0523 183.707 5.67641 182.794 3.30002L183.272 3.06314C183.529 3.37633 183.844 3.65686 184.033 4.00423C185.165 6.08947 186.259 8.19762 187.394 10.2824C187.613 10.684 187.956 11.0222 188.242 11.3863L188.593 11.2443C188.627 10.7807 188.713 10.3164 188.686 9.85854C188.6 8.29264 188.541 6.71934 188.346 5.16282C188.05 2.78732 188.019 0.361923 186.659 -1.79611C186.226 -2.4828 186.288 -3.49856 186.181 -4.37199C186.026 -5.64478 186.156 -7.0086 185.746 -8.1848C184.686 -11.2217 183.416 -14.186 182.183 -17.1591C181.768 -18.1555 181.247 -19.1082 180.724 -20.0503C180.365 -20.6965 179.966 -21.3367 179.496 -21.9007C178.845 -22.6824 178.3 -22.4287 177.816 -21.6291C174.417 -16.0201 170.955 -10.4463 167.616 -4.80152C166.579 -3.04719 165.685 -1.15926 165.061 0.77805C164.6 2.21532 163.99 3.44043 162.923 4.46501C162.344 5.02025 161.699 5.52673 161.21 6.15132C159.205 8.71889 157.223 11.3037 155.287 13.9229C154.306 15.2482 153.464 16.6286 153.312 18.3783C153.239 19.2061 152.672 20.0009 152.279 20.7834C151.22 22.8821 149.963 24.8968 149.098 27.0699C148.106 29.5689 147.444 32.1978 146.661 34.7793C146.458 35.4507 146.342 36.1506 146.183 36.8396C146.298 36.943 146.413 37.043 146.529 37.1464C156.112 30.0656 165.693 22.9887 175.277 15.9078C175.292 16.333 175.144 16.562 174.949 16.7392C170.761 20.567 166.515 24.3344 162.387 28.2288C157.034 33.2818 151.762 38.4226 146.482 43.5542C145.025 44.9679 144.825 46.1663 145.896 47.847C147.8 50.8303 149.83 53.7329 151.815 56.6627C151.899 56.7846 152.051 56.8584 152.305 57.0616C152.662 56.3087 153.015 55.6493 153.294 54.9562C155.308 49.9538 157.296 44.9414 159.318 39.9414C159.582 39.2884 159.981 38.6841 160.315 38.0586C160.416 38.1091 160.517 38.1629 160.621 38.2129C160.426 38.9865 160.268 39.7719 160.034 40.5342C158.197 46.4959 156.372 52.4628 154.482 58.4084C154.163 59.4108 154.296 60.1423 154.918 60.9628C157.786 64.7466 160.607 68.565 163.438 72.3784C163.654 72.6668 163.823 72.9931 164.01 73.2995C163.905 73.3807 163.8 73.4619 163.695 73.5465C160.327 69.9857 156.958 66.4249 153.45 62.716C153.172 63.3503 152.946 63.7288 152.838 64.1378C152.008 67.3295 151.161 70.5203 150.4 73.7328C149.941 75.6662 150.49 76.8733 152.218 77.8974C153.569 78.6988 155.023 79.3226 156.342 80.1666C157.71 81.0378 158.95 81.1731 160.341 80.2381C161.015 79.7859 161.848 79.5752 162.611 79.2545C162.658 79.3613 162.708 79.4709 162.755 79.5776C161.802 80.2095 160.849 80.8447 159.695 81.61C160.626 82.2361 161.373 82.7381 162.123 83.2396C160.998 83.2491 160.003 82.9392 158.986 82.7948C158.44 82.7177 157.771 82.7866 157.296 83.0471C155.704 83.9053 154.185 84.9043 152.607 85.7879C151.901 86.1829 151.606 86.7026 151.8 87.4665C152.717 91.0936 153.592 94.7339 154.605 98.3328C155.047 99.9075 156.141 100.144 157.467 99.1014C160.092 97.0376 162.742 94.9977 165.295 92.8446C169.97 88.9029 174.582 84.881 179.231 80.9051C179.619 80.5748 180.091 80.3423 180.523 80.0677C180.719 80.252 180.919 80.4393 181.116 80.6236C180.772 80.8404 180.369 81.0006 180.098 81.2858C174.842 86.7828 169.578 92.274 164.365 97.8126C162.575 99.7173 160.915 101.74 159.216 103.728C158.714 104.313 158.426 104.942 159.139 105.635C161.066 107.505 162.8 109.625 164.922 111.234C169.034 114.35 172.714 118.099 177.613 120.114C178.947 120.663 179.228 121.762 179.024 123.099C178.805 124.541 178.785 126.019 178.79 127.484C178.794 128.483 178.988 129.477 179.103 130.477C179.479 133.713 179.775 136.964 180.269 140.182C180.576 142.19 181.583 142.795 183.534 142.286C189.523 140.726 195.491 139.091 201.468 137.498C202.439 137.239 202.929 136.642 203.131 135.664C203.941 131.762 204.787 127.868 205.64 123.977C205.748 123.482 205.96 123.009 206.122 122.523C206.286 122.557 206.452 122.587 206.616 122.621C206.585 123.384 206.61 124.152 206.516 124.904C206.107 128.099 205.656 131.285 205.237 134.481C205.03 136.049 205.35 136.326 206.85 135.981C207.186 135.903 207.537 135.875 207.881 135.824L207.87 135.815ZM255.984 166.373C261.11 165.607 266.254 164.925 271.363 164.048C275.645 163.312 279.897 162.402 284.138 161.465C286.351 160.976 286.399 160.772 285.673 158.681C285.146 157.161 284.631 155.628 283.965 154.166C281.012 147.686 277.994 141.236 275.034 134.756C274.829 134.311 274.909 133.737 274.856 133.221C275.258 133.534 275.656 133.846 276.055 134.163C276.086 134.185 276.096 134.232 276.118 134.263C280.079 140.61 284.04 146.958 288.013 153.299C288.204 153.605 288.514 153.835 288.89 154.227C289.064 153.753 289.199 153.505 289.236 153.248C289.474 151.699 289.739 150.15 289.906 148.591C290.184 145.974 290.889 143.336 289.639 140.755C289.484 140.433 289.638 139.962 289.643 139.561C289.668 137.81 289.957 136.009 289.66 134.316C288.971 130.396 288 126.529 287.143 122.638C286.799 121.073 286.58 119.465 285.262 118.304C285.028 118.097 284.954 117.653 284.906 117.305C284.748 116.202 284.562 115.096 284.527 113.984C284.498 113.12 284.643 112.247 284.777 111.386C284.925 110.44 285.323 109.505 285.314 108.565C285.291 105.711 285.133 102.856 285.007 100.001C284.938 98.4529 284.624 98.2688 283.244 98.8851C282.985 98.9996 282.736 99.1299 282.487 99.2602C277.217 101.943 271.949 104.639 266.67 107.31C260.738 110.309 254.902 113.469 249.446 117.283C248.928 117.646 248.32 118.058 248.066 118.595C247.088 120.634 245.491 122.241 244.341 124.122C241.304 129.102 238.531 134.238 235.629 139.297C235.161 140.115 235.421 140.562 236.186 140.903C237.065 141.299 237.953 141.683 238.801 142.143C239.033 142.267 239.285 142.66 239.246 142.883C239.213 143.077 238.799 143.325 238.536 143.344C237.656 143.41 236.766 143.405 235.881 143.389C233.102 143.338 232.761 143.751 233.318 146.539C233.343 146.656 233.368 146.777 233.399 146.893C234.943 153.101 236.468 159.316 238.055 165.514C238.26 166.307 238.752 167.044 239.206 167.748C239.587 168.336 240.137 168.446 240.757 167.982C242.109 166.966 243.532 166.044 244.829 164.964C254.051 157.303 263.251 149.614 272.455 141.932C273.35 141.185 274.211 140.394 275.127 139.671C275.33 139.51 275.695 139.552 275.984 139.502C275.944 139.791 275.983 140.123 275.846 140.353C275.644 140.69 275.322 140.959 275.038 141.246C273.423 142.873 271.796 144.488 270.184 146.118C264.334 152.045 258.485 157.978 252.642 163.911C252.163 164.4 251.717 164.921 251.259 165.431C251.326 165.51 251.393 165.587 251.456 165.667C256.268 163.4 261.079 161.134 265.894 158.867C266.002 159.058 266.11 159.249 266.214 159.44C262.783 161.766 259.356 164.087 255.981 166.373L255.984 166.373ZM285.953 88.6086C286.105 88.586 286.255 88.5565 286.407 88.5339C286.292 87.7618 286.316 86.9309 286.035 86.2249C284.939 83.4587 283.886 80.6584 282.553 78.007C280.573 74.0734 279.496 69.6808 276.577 66.2218C276.33 65.9312 276.264 65.4895 276.115 65.1153C275.697 64.0713 275.379 62.9779 274.849 61.9953C273.324 59.1658 271.763 56.3519 270.126 53.5872C268.263 50.4391 266.293 47.3554 264.389 44.2308C263.932 43.4821 263.443 43.2793 262.77 43.9624C259.038 47.7357 255.287 51.4913 251.58 55.2953C250.666 56.235 250.668 57.1033 251.556 58.0874C254.49 61.341 257.448 64.5804 260.448 67.7723C263.039 70.529 265.71 73.2047 268.312 75.9493C268.562 76.2153 268.571 76.7104 268.691 77.1025C268.3 77.0231 267.83 77.0588 267.533 76.8447C266.065 75.7886 264.66 74.6472 263.207 73.5716C258.584 70.15 253.957 66.7322 249.314 63.3376C248.165 62.4993 247.699 62.5206 246.962 63.7716C245.575 66.1192 244.218 68.5038 243.1 70.9871C241.829 73.807 240.878 76.7685 239.707 79.6355C238.894 81.6251 238.467 83.6123 239.001 85.7524C239.144 86.3238 239.184 86.9797 239.062 87.5494C238.529 89.9832 239.272 92.1645 240.242 94.3187C242.5 99.331 244.518 104.462 247.495 109.115C247.715 109.458 248.333 109.766 248.731 109.73C249.602 109.649 250.475 109.401 251.302 109.102C258.216 106.577 265.134 104.061 272.02 101.468C275.708 100.08 279.329 98.5186 283.002 97.1047C284.235 96.6311 284.786 95.9594 284.642 94.5814C284.363 91.9035 284.191 89.2095 284.048 86.5182C284.019 86.002 284.318 85.4645 284.467 84.939C284.765 85.4115 285.151 85.8502 285.345 86.359C285.618 87.0834 285.755 87.8626 285.95 88.6159L285.953 88.6086ZM98.0846 69.6336C94.9915 65.749 92.0977 62.1138 89.2038 58.4787C89.3141 58.3864 89.4239 58.2907 89.5309 58.1989C89.8579 58.5189 90.1974 58.8301 90.5095 59.1661C93.3907 62.2551 96.2633 65.3557 99.1599 68.432C99.4997 68.7915 99.9634 69.2186 100.408 69.2659C103.711 69.6137 104.699 68.9594 105.301 65.7432C106.208 60.8785 106.967 55.9877 107.789 51.1048C108.243 48.4208 108.693 45.7339 109.147 43.0499C109.263 43.0636 109.383 43.0802 109.498 43.0939C108.793 51.5236 108.087 59.9533 107.364 68.5442C108.239 68.4962 108.914 68.4953 109.581 68.4129C111.738 68.1528 113.899 67.8956 116.047 67.5782C118.914 67.1535 121.785 66.7351 124.627 66.1693C125.203 66.0557 125.861 65.3852 126.076 64.8154C126.205 64.4756 125.597 63.8012 125.239 63.3411C124.684 62.6277 123.8 62.0634 123.52 61.2711C122.906 59.5186 122.595 57.6625 122.135 55.856C122.018 55.391 121.843 54.9346 121.646 54.4952C120.392 51.6629 118.882 48.9138 117.924 45.9856C116.701 42.2492 113.697 40.0264 111.298 37.2791C110.849 36.767 110.088 36.4946 109.431 36.2033C107.556 35.37 105.641 34.6219 103.773 33.7703C102.39 33.1393 100.993 32.7895 99.4547 32.9227C98.0187 33.0476 96.7757 32.5955 95.8065 31.4374C95.3745 30.9228 94.8381 30.4238 94.2432 30.1335C90.7448 28.4052 87.2273 26.7107 83.686 25.0646C82.0525 24.3055 81.7539 24.5224 81.9473 26.348C82.4237 30.8302 82.9405 35.3064 83.5219 39.7764C83.6523 40.7875 84.2085 41.742 84.3904 42.7523C84.5538 43.662 84.5064 44.6136 84.4945 45.5495C84.4907 45.9395 84.2271 46.3443 84.2791 46.7157C84.7404 50.104 85.2223 53.4928 85.7544 56.8705C85.8961 57.7732 86.4311 58.1241 87.3076 57.5072C87.6066 57.2936 87.9752 57.1765 88.3093 57.0129C88.4131 57.1077 88.5202 57.202 88.6245 57.3002C88.3469 57.7725 88.166 58.3614 87.7713 58.6961C86.3306 59.9212 86.0991 61.4172 86.7604 63.0523C87.2468 64.255 87.9409 65.3715 88.5413 66.5296C88.7825 66.99 89.1092 67.4237 89.2512 67.9127C89.9595 70.3473 89.9441 70.3599 92.5033 70.1845C93.3053 70.1302 94.1074 70.0311 94.9053 69.9499C95.8425 69.8547 96.7831 69.759 98.0706 69.6322L98.0846 69.6336ZM121.894 115.217C121.986 115.303 122.081 115.385 122.173 115.472C129.753 109.862 137.333 104.249 144.913 98.6394C144.909 99.0536 144.754 99.311 144.546 99.511C139.612 104.184 134.629 108.81 129.744 113.538C126.741 116.447 123.877 119.498 120.981 122.519C120.734 122.777 120.497 123.433 120.635 123.612C121.328 124.518 122.145 125.327 123.08 126.342C124.457 123.562 125.706 121.035 126.959 118.504C127.061 118.54 127.163 118.577 127.265 118.613C127.14 119.094 127.045 119.587 126.884 120.059C126.139 122.269 125.405 124.485 124.608 126.676C124.335 127.43 124.455 127.957 125.041 128.49C126.29 129.627 127.491 130.816 128.716 131.977C130.158 133.347 130.228 133.42 131.678 132.121C136.916 127.423 142.12 122.685 147.299 117.92C148.472 116.842 149.457 115.564 150.601 114.452C151.721 113.365 152.955 112.398 154.092 111.328C154.717 110.739 154.497 110.261 153.715 110.009C150.946 109.123 149.517 107.217 149.347 104.323C149.32 103.889 149.24 103.425 149.051 103.04C147.307 99.5055 145.527 95.99 143.77 92.4643C143.371 91.6622 142.878 91.5737 142.143 92.0764C137.958 94.9317 133.745 97.7462 129.581 100.633C129.175 100.914 128.891 101.577 128.818 102.101C128.577 103.837 127.658 105.225 126.411 106.273C125.538 107.007 124.887 107.745 124.477 108.785C123.766 110.58 122.993 112.35 122.256 114.136C122.112 114.485 122.015 114.851 121.893 115.21L121.894 115.217ZM120.829 139.432C120.696 139.445 120.564 139.461 120.435 139.473C120.297 139.791 120.118 140.096 120.026 140.427C119.349 142.91 118.58 145.376 118.052 147.892C117.518 150.433 117.316 153.045 116.796 155.59C116.547 156.806 115.83 157.916 115.44 159.115C114.571 161.789 113.792 164.491 112.948 167.171C112.214 169.5 111.839 171.793 113.31 174C113.416 174.16 113.41 174.392 113.502 174.571C114.753 177.015 116.006 179.454 117.266 181.889C117.339 182.03 117.454 182.15 117.564 182.268C119.661 184.492 121.744 186.735 123.871 188.93C125.061 190.155 125.925 189.985 126.576 188.392C128.968 182.547 131.319 176.684 133.706 170.837C134.055 169.989 133.864 169.352 133.389 168.599C132.938 167.887 132.771 166.999 132.461 166.194C132.264 165.682 132.138 165.094 131.802 164.686C128.318 160.422 124.793 156.185 121.284 151.938C120.816 151.371 120.361 150.794 119.9 150.222C120.008 150.112 120.116 150.007 120.224 149.898C123.087 152.241 125.949 154.582 128.812 156.925C128.956 156.828 129.1 156.727 129.247 156.629C126.443 150.895 123.636 145.165 120.832 139.431L120.829 139.432ZM34.6716 4.22358C34.7054 4.38054 34.7387 4.53413 34.7725 4.69109C34.284 4.90537 33.8023 5.14275 33.3031 5.33107C31.1203 6.15687 28.9365 6.97593 26.7473 7.782C25.5972 8.2054 24.7542 8.86213 24.3257 10.1015C24.0875 10.792 23.5916 11.5106 23.0081 11.9425C21.3318 13.1821 20.6015 15.0319 19.6693 16.7532C19.0559 17.8858 18.6425 19.1333 17.9516 20.2085C16.5255 22.431 16.8482 25.0301 16.2259 27.4186C17.3393 29.3343 16.6737 31.2709 16.5216 33.2756C16.3949 34.9663 17.1077 36.7384 17.5491 38.4476C17.8002 39.4132 18.471 39.5198 19.1179 38.7269C19.6222 38.1104 20.1401 37.4471 20.4344 36.7172C22.9115 30.522 25.3368 24.3035 27.7843 18.0954C28.0648 17.3883 28.388 16.8057 29.2648 17.5296C29.5595 17.7717 29.9723 17.9272 30.3512 17.9947C32.6488 18.3995 34.9471 18.8318 37.2627 19.103C37.8731 19.1738 38.761 18.9102 39.1574 18.4719C41.0799 16.3648 42.8749 14.1423 44.7212 11.9639C45.3275 11.246 45.2959 10.6647 44.5406 10.0157C42.8321 8.54745 41.1797 7.01563 39.5153 5.49595C39.2558 5.25895 39.0529 4.9618 38.8236 4.69616C38.9017 4.619 38.9798 4.54185 39.0574 4.46132C39.3875 4.66364 39.7348 4.84271 40.0449 5.07216C41.6242 6.25297 43.1806 7.46478 44.768 8.63059C45.3755 9.07414 46.058 9.65124 46.8179 8.96901C47.5596 8.30329 47.7954 7.25123 47.209 6.55636C45.7807 4.86353 44.4175 3.00588 41.8361 2.87092C38.2718 2.68629 34.7121 2.39412 31.1512 2.14005C30.2207 2.0722 29.2952 1.96913 28.3656 1.88393C28.5585 1.58282 28.7417 1.51753 28.9292 1.50331C31.82 1.30942 34.7137 1.13575 37.6025 0.92837C38.322 0.876059 39.0332 0.72159 39.9942 0.578065C39.6057 0.077677 39.4939 -0.140018 39.318 -0.279198C36.6053 -2.42477 33.8954 -4.57421 31.1597 -6.68878C30.4504 -7.23775 29.6367 -7.12312 29.1006 -6.44328C26.9353 -3.70016 25.0229 -0.832812 25.0416 2.86983C25.0502 4.45068 25.5679 4.96278 27.1914 4.82372C29.1956 4.64848 31.1931 4.40531 33.1952 4.21659C33.6848 4.17104 34.1812 4.21754 34.675 4.22308L34.6716 4.22358ZM210.133 157.689C209.971 158.24 209.799 158.635 209.743 159.043C208.528 167.849 207.337 176.658 206.112 185.465C205.612 189.062 207.054 192.049 209.312 194.562C212.077 197.638 215.147 200.443 218.113 203.337C218.625 203.836 219.254 204.218 219.844 204.637C220.364 205.003 220.777 204.925 220.892 204.246C221.506 200.648 222.49 197.082 221.853 193.368C221.204 189.601 220.552 185.835 219.951 182.061C219.888 181.663 220.152 181.214 220.264 180.79C220.616 181.113 221.12 181.376 221.284 181.779C221.708 182.818 221.966 183.924 222.322 184.991C222.428 185.31 222.653 185.59 222.918 186.05C224.137 182.232 214.728 161.473 210.134 157.692L210.133 157.689ZM215.009 100.986C214.872 101.041 214.732 101.093 214.595 101.148C214.333 100.822 214.019 100.524 213.814 100.165C213.337 99.3262 212.946 98.4368 212.444 97.6155C212.239 97.2808 211.838 97.0683 211.525 96.7979C211.335 97.1641 211.013 97.5191 210.974 97.9041C210.757 99.9839 210.551 102.069 210.45 104.159C210.347 106.308 210.032 108.492 211.296 110.496C211.567 110.924 211.557 111.598 211.518 112.145C211.384 114.085 211.838 115.899 212.548 117.675C213.175 119.246 213.767 120.829 214.403 122.392C215.041 123.959 215.416 125.754 216.443 127.003C217.593 128.403 217.476 130.061 218.158 131.511C218.259 131.73 218.312 132.039 218.486 132.141C218.831 132.348 219.289 132.62 219.626 132.546C221.887 132.036 223.496 129.793 223.272 127.489C222.558 120.12 221.897 112.742 221.071 105.386C220.221 97.8259 219.208 90.2836 218.226 82.7402C218.145 82.1043 217.922 81.2586 217.465 80.9443C215.245 79.4214 212.926 78.0375 210.632 76.6221C210.074 76.2781 209.547 76.467 209.722 77.1303C210.404 79.7584 211.209 82.3543 211.937 84.9686C212.175 85.8224 212.426 86.6916 212.501 87.5661C212.619 88.91 212.39 90.3092 212.674 91.6077C213.24 94.198 214.063 96.7326 214.753 99.2975C214.9 99.8409 214.931 100.419 215.015 100.982L215.009 100.986ZM219.365 82.1255C219.246 82.2053 219.127 82.2818 219.011 82.3611C219.121 83.0961 219.197 83.8362 219.347 84.5652C220.85 91.9756 222.336 99.3885 223.88 106.79C225.061 112.459 226.295 118.117 227.547 123.773C227.896 125.351 228.312 125.458 229.515 124.375C232.056 122.089 234.592 119.798 237.091 117.47C239.503 115.224 240.051 112.244 238.956 109.436C236.82 103.95 234.8 98.3681 231.479 93.418C231.324 93.1861 231.166 92.9373 231.096 92.6721C230.449 90.2801 228.691 88.7089 226.897 87.2498C225.092 85.7821 223.11 84.5306 221.188 83.2078C220.608 82.8085 219.974 82.4861 219.366 82.1288L219.365 82.1255ZM103.886 113.325C103.835 112.316 103.86 111.606 103.754 110.915C103.226 107.495 102.708 104.074 102.093 100.674C101.577 97.8179 100.836 95.0263 99.1214 92.5937C98.8981 92.2755 98.837 91.8434 98.6722 91.4785C98.0805 90.1709 97.6951 88.6981 96.8284 87.6038C94.6611 84.8632 92.2836 82.285 89.9714 79.6591C89.4192 79.0315 88.7636 78.9122 88.0487 79.4568C85.7147 81.2323 83.3439 82.9686 81.044 84.7874C79.6321 85.9048 79.0301 87.4597 79.0709 89.2563C79.0834 89.7784 79.1591 90.3082 79.0944 90.8211C78.9257 92.2079 79.4936 93.1709 80.5535 94.0363C82.6448 95.737 84.6361 97.5526 86.704 99.2809C92.0127 103.714 97.3358 108.127 102.662 112.54C102.95 112.779 103.295 112.948 103.883 113.326L103.886 113.325ZM148.136 192.024C148.137 190.694 147.558 190.304 146.312 190.708C145.049 191.117 143.805 191.578 142.571 192.063C139.424 193.291 136.302 194.585 133.139 195.774C131.174 196.512 130.005 197.459 130.571 199.908C131.156 202.437 131.246 205.074 131.648 207.651C131.731 208.179 132.123 208.821 132.566 209.113C137.631 212.462 142.718 215.78 147.835 219.048C149.203 219.919 149.658 219.617 149.731 217.986C149.848 215.377 150.017 212.766 150.013 210.157C150.009 206.139 150.048 202.107 149.737 198.107C149.574 196.049 148.693 194.047 148.139 192.02L148.136 192.024ZM115.424 194.339C115.536 194.373 115.648 194.408 115.76 194.443C115.675 194.89 115.615 195.344 115.505 195.781C114.204 200.925 112.905 206.072 111.576 211.21C111.373 211.995 111.43 212.493 112.315 212.765C116.854 214.144 121.379 215.568 125.913 216.959C126.788 217.228 127.225 216.787 127.234 215.921C127.237 215.482 127.164 215.038 127.096 214.604C126.776 212.535 126.366 210.48 126.148 208.4C125.932 206.329 125.128 204.405 124.764 202.361C124.262 199.533 122.611 196.905 121.442 194.198C121.364 194.02 121.198 193.879 121.059 193.735C118.384 190.894 115.721 188.045 113.015 185.23C112.554 184.75 111.958 184.36 111.361 184.056C110.563 183.648 110.004 184.039 109.861 184.86C109.559 186.597 109.243 188.34 109.092 190.097C108.834 193.099 108.647 196.116 108.534 199.128C108.492 200.275 108.477 201.536 108.896 202.566C109.831 204.877 110.158 207.068 108.796 209.302C108.677 209.499 108.594 209.774 108.62 209.997C108.677 210.468 108.814 210.926 108.921 211.389C109.203 211.058 109.611 210.769 109.747 210.387C111.486 205.457 113.182 200.516 114.899 195.579C115.046 195.157 115.248 194.754 115.428 194.345L115.424 194.339ZM79.8192 95.0974C79.633 95.2355 79.4468 95.3736 79.2635 95.5078C79.215 95.9218 79.112 96.3405 79.132 96.7511C79.259 99.5172 79.3771 102.247 80.268 104.957C80.9062 106.899 81.2353 108.918 82.4506 110.639C83.1235 111.59 83.6044 112.687 84.3348 113.584C85.4957 115.01 86.6919 116.441 88.0741 117.641C89.0957 118.526 89.5258 119.444 89.5548 120.746C89.581 121.983 89.6455 123.27 89.9996 124.441C90.9003 127.401 91.9502 130.323 92.9957 133.238C93.5455 134.772 94.0304 134.903 95.0369 133.657C97.9169 130.09 100.727 126.468 103.524 122.834C104.523 121.537 104.494 121.249 103.344 120.038C95.787 112.067 88.2081 104.113 80.6451 96.1494C80.3388 95.8298 80.0929 95.4529 79.8197 95.1007L79.8192 95.0974ZM111.232 128.029C110.849 127.473 110.415 126.71 109.852 126.06C108.877 124.93 108.274 124.862 107.055 125.747C105.559 126.832 104.065 127.931 102.653 129.121C100.198 131.193 97.802 133.337 95.3936 135.468C94.721 136.065 94.137 136.886 94.8897 137.656C96.664 139.473 97.7545 141.582 98.1705 144.067C98.1876 144.182 98.2568 144.299 98.3321 144.388C100.262 146.692 102.102 149.085 104.167 151.258C105.46 152.62 106.248 152.36 107.166 150.748C107.406 150.33 107.61 149.889 107.87 149.485C109.781 146.473 110.885 143.271 110.84 139.621C110.794 135.85 111.078 132.074 111.228 128.026L111.232 128.029ZM108.347 228.131C108.549 228.149 108.755 228.163 108.958 228.181C108.939 229.369 108.937 230.555 108.9 231.743C108.856 233.135 108.945 233.243 110.296 232.941C113.165 232.299 116.025 231.624 118.888 230.968C123.044 230.017 127.205 229.071 131.361 228.116C132.521 227.85 132.719 227.286 131.845 226.486C131.266 225.959 130.542 225.543 129.815 225.245C128.629 224.757 127.579 224.214 126.992 222.961C126.774 222.494 126.268 222.083 125.796 221.83C122.075 219.831 118.338 217.866 114.592 215.913C113.429 215.308 112.225 214.77 110.752 214.067C109.17 220.693 107.624 227.17 106.066 233.7C107.433 233.851 107.806 233.306 107.886 232.339C108 230.933 108.188 229.533 108.347 228.131ZM15.7887 56.3656C15.6382 56.1192 15.4804 55.5706 15.1384 55.4045C14.9266 55.3017 14.3163 55.6928 14.0878 56.0095C13.1964 57.2422 12.1973 58.4462 11.5884 59.816C10.3134 62.6812 9.40449 65.7123 8.0773 68.5509C6.34242 72.2604 6.97906 76.3154 6.07706 80.1314C5.99626 80.4674 6.06867 80.8599 6.14177 81.2109C6.86628 84.6772 7.58793 88.1473 8.35239 91.6041C8.59763 92.7153 9.08809 92.8833 9.93605 92.0983C12.1803 90.0225 14.4076 87.925 16.5538 85.7466C17.0032 85.2934 17.2087 84.4768 17.2734 83.8019C17.3454 83.0604 17.083 82.2965 17.0382 81.5345C16.9735 80.4549 16.586 79.4994 15.6398 79.0031C14.1768 78.2323 14.264 76.6234 13.5363 75.467C13.4642 75.3537 13.6317 74.9288 13.7751 74.873C14.8581 74.4389 14.7912 73.6216 14.6748 72.6808C14.6088 72.146 14.6706 71.475 14.9503 71.0403C15.7754 69.7554 15.6237 68.3476 15.6516 66.9647C15.7207 63.504 15.745 60.0431 15.7892 56.369L15.7887 56.3656ZM5.87159 113.308C6.18209 113.609 6.47614 114.055 6.89222 114.279C8.55029 115.179 10.236 116.034 11.9317 116.863C14.3868 118.068 16.8453 119.273 19.3318 120.411C21.1074 121.221 21.7378 120.803 21.6972 118.893C21.6418 116.236 21.5044 113.586 21.4389 110.931C21.3702 108.163 21.5183 105.369 20.1288 102.806C19.962 102.496 19.994 101.995 20.1094 101.637C20.3462 100.891 20.1193 100.618 19.368 100.527C17.2097 100.27 15.0546 99.9891 12.9093 99.658C11.9532 99.5113 11.369 99.8467 10.9892 100.696C10.4182 101.974 9.97903 103.35 9.20081 104.486C7.65821 106.736 6.97045 109.286 6.19774 111.821C6.0707 112.24 6.00888 112.68 5.87496 113.307L5.87159 113.308ZM114.207 116.651C114.466 116.192 114.605 115.995 114.694 115.782C116.175 112.266 117.711 108.769 119.089 105.209C119.478 104.21 119.529 103.034 119.518 101.939C119.501 100.559 119.268 99.1811 119.103 97.8028C119.076 97.5759 118.965 97.3374 118.836 97.143C117.344 94.953 115.826 92.7772 114.346 90.5784C113.881 89.8862 113.334 89.7542 112.594 90.0646C111.52 90.5111 110.427 90.9226 109.347 91.3595C107.374 92.1541 106.748 93.5022 107.328 95.563C107.533 96.2941 107.65 97.0522 107.756 97.8085C108.274 101.506 108.921 105.194 109.231 108.908C109.522 112.404 112.156 114.155 114.21 116.651L114.207 116.651ZM134.423 70.5522C132.302 72.0203 131.542 73.8538 131.273 75.9759C131.04 77.81 130.713 79.634 130.459 81.4677C130.205 83.2981 130.222 83.2989 132.11 83.2893C132.213 83.2877 132.315 83.3724 132.589 83.4936C132.216 83.7009 131.974 83.9266 131.705 83.9703C130.355 84.1891 129.887 85.0208 129.769 86.3103C129.543 88.788 129.194 91.2529 128.904 93.7228C128.89 93.8559 128.985 94.0072 129.049 94.2079C129.414 94.1154 129.737 94.081 130.022 93.9592C133.545 92.485 137.06 90.9777 140.594 89.5262C141.536 89.1374 141.688 88.6803 141.183 87.794C139.647 85.1038 138.166 82.3849 136.671 79.6713C136.454 79.2798 136.291 78.8594 136.106 78.4493C136.207 78.386 136.307 78.3193 136.412 78.2555C136.701 78.5984 137.018 78.9199 137.275 79.2847C139.159 81.9471 141.035 84.6105 142.906 87.2816C143.292 87.8307 143.695 88.1979 144.399 87.7653C145.036 87.3736 146.171 87.3524 145.888 86.2193C145.385 84.2125 145.092 82.0915 143.282 80.6591C142.868 80.3315 142.551 79.779 142.375 79.2676C140.948 75.1617 137.106 73.3743 134.43 70.5478L134.423 70.5522ZM119.251 85.3822C120.573 85.1847 121.661 85.0843 122.713 84.8341C123.102 84.7415 123.678 84.328 123.713 84.0091C124.12 80.567 125.247 77.155 124.097 73.6317C123.805 72.7377 123.496 72.26 122.506 72.2321C118.491 72.1217 114.477 71.8835 110.461 71.8353C106.987 71.7957 106.959 71.8793 106.893 75.4118C106.883 76.0372 107.042 76.8235 107.432 77.2684C109.263 79.3492 111.266 81.2838 113.087 83.3728C114.851 85.3947 116.658 86.9482 119.248 85.3827L119.251 85.3822ZM225.593 157.5C225.448 157.449 225.302 157.395 225.156 157.344C225.181 156.913 225.121 156.46 225.247 156.062C225.451 155.415 225.692 154.748 226.063 154.186C227.128 152.569 226.629 151.141 225.894 149.544C225.312 148.276 224.921 146.794 224.929 145.411C224.936 143.796 224.663 142.389 223.737 141.101C223.009 140.086 222.938 139.097 223.488 137.936C223.784 137.309 223.694 136.499 223.782 135.769L223.34 135.7C221.926 137.218 221.244 139.229 221.079 141.125C220.776 144.631 221 148.186 221.069 151.723C221.076 152.022 221.599 152.591 221.804 152.557C223.277 152.31 223.14 153.261 222.988 154.114C222.752 155.418 222.464 156.719 222.092 157.992C221.731 159.221 221.815 160.336 222.394 161.49C222.664 162.032 222.66 162.719 222.743 163.347C222.906 164.571 222.831 165.874 223.233 167.014C224.508 170.615 225.947 174.157 227.353 177.711C227.525 178.144 227.866 178.51 228.23 179.056C228.387 178.653 228.469 178.51 228.495 178.361C229.193 174.238 229.897 170.114 230.555 165.983C230.641 165.446 230.538 164.854 230.406 164.316C229.777 161.694 229.118 159.079 228.445 156.47C228.281 155.83 228.036 155.208 227.722 154.259C226.888 155.531 226.243 156.52 225.597 157.506L225.593 157.5ZM141.372 50.7874C140.818 51.9731 140.379 53.0279 139.847 54.0346C139.379 54.9179 138.747 55.7155 138.301 56.606C137.366 58.4758 136.548 60.4076 135.595 62.2665C135.035 63.3636 135.088 64.152 136.103 64.9724C138.886 67.2212 141.605 69.5451 144.344 71.8452C145.053 72.4391 145.546 72.1346 145.867 71.4455C147.48 67.9817 149.093 64.5213 150.632 61.0238C150.805 60.6327 150.661 59.8545 150.363 59.544C148.053 57.1384 145.676 54.7944 143.299 52.4505C142.685 51.846 141.992 51.3152 141.374 50.7801L141.372 50.7874ZM61.2738 29.1564C61.1588 29.2632 61.0404 29.3705 60.9253 29.4773C61.345 31.2483 61.6333 33.0632 62.2294 34.77C62.7416 36.2377 63.6176 37.5787 64.3107 38.9884C65.8981 42.2086 67.5134 45.4073 70.1587 47.9318C70.5889 48.3432 71.0968 48.6741 71.6158 49.0792C72.3163 47.6992 71.5801 46.1856 72.9224 44.9028C73.128 45.6787 73.3414 46.1846 73.377 46.6997C73.4697 47.944 73.5394 49.1952 73.5082 50.4407C73.4771 51.6862 73.8871 52.7005 74.6847 53.6326C75.8083 54.947 76.8556 56.3279 77.9701 57.6505C78.6274 58.4279 79.3523 59.1503 80.0432 59.8985C80.1668 59.849 80.2909 59.8029 80.4111 59.7539C80.4353 59.316 80.5433 58.8621 80.4737 58.4417C80.0105 55.6637 79.5868 52.8729 78.9835 50.1262C78.7531 49.068 78.0888 48.1055 77.6215 47.0999C77.1532 46.0875 76.6815 45.0756 76.2228 44.0583C76.0266 43.6223 75.9491 43.1031 75.6648 42.7457C74.1392 40.8399 72.4903 39.0318 71.0237 37.0827C68.9338 34.3064 65.9722 32.5255 63.4524 30.2408C62.8743 29.717 62.0061 29.5123 61.2705 29.1569L61.2738 29.1564ZM133.94 191.211C133.943 191.231 133.952 191.251 133.959 191.27C137.749 190.356 141.538 189.439 145.333 188.538C146.222 188.326 146.44 187.965 145.977 187.101C143.302 182.14 140.437 177.312 136.681 173.074C136.39 172.745 135.918 172.582 135.527 172.344C135.313 172.71 135.009 173.052 134.903 173.45C133.806 177.485 132.72 181.521 131.673 185.569C131.279 187.086 130.944 188.622 130.681 190.164C130.49 191.289 130.909 191.643 132.034 191.492C132.673 191.407 133.305 191.303 133.943 191.207L133.94 191.211ZM200.586 146.754C200.366 146.253 200.27 145.791 200.001 145.469C198.972 144.234 197.938 142.992 196.795 141.871C196.493 141.575 195.686 141.481 195.275 141.663C191.783 143.209 188.313 144.809 184.867 146.458C183.803 146.968 183.731 147.551 184.602 148.304C188.374 151.563 192.167 154.802 195.988 158.002C196.973 158.827 197.483 158.613 197.87 157.331C198.391 155.599 198.885 153.857 199.334 152.108C199.791 150.32 200.18 148.517 200.59 146.76L200.586 146.754ZM280.028 45.8211C279.494 44.6669 279.205 43.1038 278.275 42.212C276.313 40.3335 274.013 38.8087 271.857 37.1316C271.209 36.6286 270.613 36.6729 270.027 37.2325C268.98 38.2299 267.925 39.2216 266.878 40.2191C265.409 41.6208 265.402 41.8528 266.682 43.5022C268.407 45.723 270.103 47.9652 271.856 50.168C273.583 52.3367 275.349 54.4719 277.128 56.5949C277.355 56.8678 277.769 56.9853 278.094 57.1746C278.27 56.8312 278.538 56.505 278.605 56.1434C278.953 54.2474 279.282 52.3438 279.552 50.4352C279.757 48.9673 279.859 47.4836 280.024 45.8216L280.028 45.8211ZM155.288 234.284C154.473 236.56 153.67 238.662 153.681 240.997C153.686 241.906 153.419 242.815 153.427 243.724C153.436 244.687 153.422 245.744 153.8 246.591C154.261 247.625 154.591 248.544 154.319 249.695C154.08 250.703 154.238 251.72 155.015 252.952C155.225 252.097 155.39 251.583 155.477 251.056C155.911 248.399 156.294 245.729 156.775 243.082C156.866 242.583 157.321 242.146 157.61 241.682C157.844 242.185 158.084 242.684 158.301 243.192C158.344 243.293 158.305 243.429 158.299 243.551C158.103 248.492 157.893 253.435 157.729 258.379C157.695 259.332 157.835 260.293 157.895 261.249L158.265 261.301C158.536 260.967 158.838 260.657 159.074 260.301C160.98 257.462 162.775 254.547 164.805 251.8C165.987 250.203 166.004 248.767 164.947 247.277C162.017 243.144 159.031 239.054 156.054 234.955C155.902 234.744 155.653 234.602 155.285 234.284L155.288 234.284ZM78.083 35.9491C78.2277 35.8793 78.3729 35.8128 78.521 35.7424C78.5907 35.5631 78.7091 35.3868 78.7201 35.206C78.9444 31.5153 79.1901 27.8283 79.3214 24.1377C79.3384 23.6974 78.8147 23.007 78.3767 22.8208C74.3886 21.1139 70.3672 19.4843 66.3457 17.8548C66.0929 17.7546 65.6223 17.7422 65.4998 17.8915C65.3452 18.08 65.3423 18.5217 65.4524 18.7741C65.9181 19.8386 66.4618 20.8707 66.9535 21.9244C67.522 23.1459 68.004 24.4113 68.6427 25.5947C69.2443 26.7147 69.9987 27.7499 70.6863 28.8226C70.8449 28.73 71.0067 28.6369 71.1648 28.5409C70.3931 26.8362 69.6181 25.1319 68.8464 23.4272L69.1574 23.2705C72.1326 27.4967 75.1073 31.7195 78.0825 35.9458L78.083 35.9491ZM47.8323 0.227806C48.1493 0.180468 48.4965 0.197542 48.7773 0.0694367C49.1484 -0.0997422 49.6918 -0.339445 49.7511 -0.634404C49.8147 -0.947229 49.4959 -1.48904 49.1879 -1.70501C45.9067 -4.0104 42.591 -6.26929 39.2896 -8.54755C38.5976 -9.02672 37.7688 -9.40619 37.2672 -10.0413C36.1181 -11.5036 34.505 -11.3178 33.0301 -11.3147C31.91 -11.3128 31.4368 -10.2115 31.1475 -9.21699C30.931 -8.47458 31.2271 -7.92249 31.913 -7.50789C35.6292 -5.26746 39.3645 -3.0609 43.0134 -0.717352C44.55 0.269912 46.1028 0.53436 47.8294 0.231681L47.8323 0.227806ZM132.797 211.56C132.691 211.634 132.582 211.713 132.476 211.787C132.469 212.016 132.432 212.249 132.461 212.472C132.97 216.177 135.104 219.247 136.446 222.624C136.561 222.914 136.805 223.157 137.001 223.41C138.451 225.289 140.321 225.88 142.609 225.182C143.818 224.812 145.021 224.418 146.584 223.919C142.016 219.411 137.48 215.4 132.797 211.557L132.797 211.56ZM203.346 176.819C203.53 176.833 203.718 176.847 203.904 176.864C204.013 176.578 204.154 176.302 204.231 176.012C205.764 170.257 207.222 164.483 208.866 158.76C209.333 157.129 209.404 155.874 208.089 154.644C207.003 153.627 206.716 153.597 206.181 154.973C204.977 158.087 203.712 161.181 202.669 164.35C202.358 165.289 202.476 166.522 202.803 167.484C203.245 168.786 203.371 169.994 203.254 171.363C203.1 173.168 203.301 174.999 203.346 176.819ZM36.7421 20.787C36.3201 20.5467 36.005 20.2835 35.648 20.1783C33.7588 19.6228 31.8577 19.1036 29.959 18.5772C29.0674 18.3312 28.5851 18.772 28.3439 19.5802C27.15 23.588 25.9488 27.5935 24.7833 31.6074C24.6941 31.9103 24.846 32.2805 24.8828 32.6197C25.2258 32.4927 25.6648 32.4547 25.8986 32.2198C29.3373 28.7247 32.7547 25.2017 36.1648 21.6763C36.3736 21.459 36.5019 21.1641 36.7454 20.7865L36.7421 20.787ZM213.369 139.078C213.039 139.545 212.762 139.834 212.609 140.174C211.255 143.182 209.928 146.203 208.589 149.216C208.222 150.039 208.463 150.679 209.113 151.251C210.65 152.61 212.149 154.013 213.703 155.349C214.032 155.635 214.54 155.71 214.962 155.885C215.119 155.455 215.293 155.033 215.421 154.593C215.476 154.409 215.44 154.194 215.431 153.992C215.262 150.136 215.089 146.28 214.917 142.425C214.86 141.165 214.237 140.182 213.372 139.074L213.369 139.078ZM231.361 244.983C231.535 244.967 231.711 244.951 231.885 244.935C231.803 244.389 231.852 243.772 231.614 243.308C231.087 242.29 231.237 241.316 231.404 240.261C231.568 239.213 231.713 238.084 231.49 237.073C230.901 234.445 230.115 231.864 229.387 229.27C229.276 228.873 229.049 228.507 228.875 228.126C228.752 228.138 228.629 228.146 228.507 228.157C227.034 232.327 225.388 236.382 226.307 241.101C226.87 243.992 227.957 246.563 229.258 249.157C229.472 248.719 229.547 248.301 229.53 247.889C229.459 246.121 229.319 244.353 229.303 242.584C229.298 242.157 229.672 241.729 229.874 241.303C230.169 241.641 230.602 241.932 230.737 242.325C231.027 243.185 231.17 244.094 231.372 244.984L231.361 244.983ZM54.2831 20.2009C54.1777 20.003 54.0574 19.5901 53.7943 19.3054C52.1407 17.5117 50.4535 15.7473 48.7788 13.9741C47.9798 13.1248 47.1813 13.2027 46.3631 13.9557C44.7658 15.4248 43.1487 16.8762 41.5554 18.3481C40.7165 19.1249 40.8099 19.6348 41.9229 19.8857C43.371 20.2106 44.8469 20.4452 46.322 20.6281C48.6329 20.9138 50.9505 21.1295 53.2663 21.3558C53.9485 21.4228 54.5142 21.2867 54.2826 20.1976L54.2831 20.2009ZM99.3991 71.9259C98.9149 72.1465 98.5622 72.2543 98.2703 72.4461C97.2317 73.1321 96.197 73.8209 95.193 74.5533C94.1827 75.2902 94.0651 75.8179 94.9349 76.7255C96.807 78.6899 98.7736 80.5712 100.7 82.486C101.413 83.1931 101.894 83.0246 102.115 82.0816C102.49 80.4814 102.882 78.8821 103.171 77.2637C103.254 76.7999 103.131 76.1874 102.874 75.8019C102.115 74.6708 101.263 73.602 100.392 72.5531C100.145 72.2558 99.7132 72.1134 99.4019 71.9221L99.3991 71.9259ZM5.47813 134.492C5.58603 134.476 5.69006 134.457 5.79745 134.438C5.87348 134.185 6.00159 133.935 6.02165 133.677C6.47478 128.194 6.93853 122.713 7.32222 117.227C7.36781 116.586 7.09371 115.79 6.69416 115.284C6.2387 114.704 5.43155 114.7 5.21436 115.577C4.69581 117.668 4.19327 119.773 3.88711 121.901C3.64225 123.585 3.69711 125.314 3.6279 127.02C3.60973 127.499 3.54012 128.002 3.65243 128.454C4.06738 130.17 4.53915 131.875 5.01378 133.576C5.10309 133.897 5.32189 134.185 5.481 134.489L5.47813 134.492ZM79.8303 80.4463C81.2374 79.7812 83.02 78.9531 84.7874 78.0928C87.3157 76.857 87.3647 76.4463 85.2371 74.5719C84.5582 73.9735 83.8057 73.4586 82.8428 73.9126C81.1363 74.719 79.4356 75.5417 77.754 76.3995C76.9341 76.8184 76.4442 77.4155 76.8543 78.4538C77.4826 80.0524 78.2418 80.7042 79.8303 80.4463ZM30.7527 132.048C30.6457 132.509 30.3924 132.936 30.5032 133.216C31.5559 135.903 32.6091 138.592 33.8008 141.217C34.2947 142.308 35.037 142.27 35.6762 141.264C36.4076 140.114 37.0741 138.922 37.7904 137.763C38.3817 136.806 38.1463 136.107 37.2037 135.566C35.4654 134.567 33.7353 133.554 31.9908 132.56C31.6854 132.385 31.3328 132.286 30.7527 132.048ZM15.5906 96.9309C16.1065 96.8539 16.6264 96.8038 17.1378 96.6964C19.0095 96.3031 19.7739 95.4203 19.7208 93.5186C19.6913 92.4441 19.5157 91.3604 19.279 90.3066C19.1664 89.8064 18.7538 89.3751 18.4746 88.9135C18.0135 89.1961 17.4274 89.3801 17.1146 89.7784C15.8295 91.4215 14.6185 93.1225 13.4031 94.8172C13.1264 95.2032 12.8809 95.6363 12.7236 96.0837C12.4674 96.8148 12.7245 97.29 13.566 97.2229C14.2435 97.1666 14.9162 97.0316 15.5906 96.9309ZM144.29 229.698C144.149 229.771 143.604 229.883 143.398 230.214C143.281 230.4 143.674 230.976 143.923 231.307C144.383 231.914 144.851 232.534 145.416 233.039C146.334 233.856 147.28 234.673 148.328 235.296C148.664 235.494 149.605 235.257 149.85 234.917C150.641 233.816 151.319 232.609 151.882 231.373C152.444 230.148 151.723 229.225 150.377 229.302C148.453 229.414 146.529 229.55 144.286 229.698L144.29 229.698ZM232.832 199.484C233.277 199.418 233.554 199.428 233.795 199.333C236.659 198.199 239.177 196.496 241.51 194.51C242.229 193.9 241.975 193.469 241.219 193.23C239.65 192.741 238.083 192.241 236.483 191.869C236.097 191.779 235.31 192.051 235.205 192.339C234.362 194.654 233.636 197.017 232.832 199.484ZM74.1697 56.7394C73.9577 56.9813 73.8563 57.0413 73.8576 57.0962C73.9976 59.9259 74.0768 62.7647 74.3358 65.5835C74.4301 66.6069 75.3584 66.8681 76.2516 66.2935C76.7894 65.9478 77.278 65.5267 77.794 65.1497C78.5182 64.621 78.7204 63.967 78.2698 63.1656C77.232 61.318 76.2039 59.4654 75.1277 57.6373C74.9239 57.2885 74.5175 57.0597 74.1625 56.737L74.1697 56.7394ZM128.397 148.05L128.88 147.936C128.823 147.076 128.877 146.189 128.688 145.359C128.243 143.398 126.666 141.955 125.983 140.196C125.119 137.967 123.102 137.224 121.77 135.624C121.055 136.42 121.342 137.098 121.768 137.779C123.666 140.814 125.558 143.858 127.468 146.889C127.73 147.305 128.084 147.665 128.394 148.053L128.397 148.05ZM162.87 117.37C162.935 117.27 162.996 117.172 163.06 117.072C162.84 116.819 162.653 116.516 162.39 116.321C160.74 115.106 159.112 113.857 157.407 112.733C154.998 111.145 154.973 111.183 153.161 113.498C152.376 114.501 152.443 114.829 153.671 115.162C156.423 115.909 159.191 116.599 161.957 117.299C162.25 117.373 162.568 117.349 162.874 117.372L162.87 117.37ZM27.7059 77.0493C27.6139 76.9872 27.518 76.9223 27.426 76.8602C27.108 77.1317 26.7465 77.365 26.476 77.6777C25.7189 78.5628 24.9826 79.4725 24.2686 80.3926C21.5843 83.8613 21.8622 82.8374 23.0155 87.2357C23.104 87.5741 23.4413 87.8477 23.6626 88.1525C23.9116 87.8809 24.2804 87.65 24.3912 87.3301C25.4888 84.1777 26.5464 81.0106 27.6 77.8407C27.6838 77.5938 27.6695 77.3133 27.702 77.0465L27.7059 77.0493ZM73.5596 87.6218C73.325 86.0505 73.1105 84.8451 72.9779 83.6344C72.8817 82.7595 72.9618 81.8651 72.8454 80.9932C72.6937 79.8852 72.1669 79.6123 71.162 80.1312C70.2018 80.6262 69.2613 81.1838 68.3956 81.8267C67.4334 82.5391 67.5748 83.5555 68.5925 84.1377C69.2477 84.5086 69.8733 84.9357 70.4904 85.3743C71.4504 86.0548 72.3902 86.7623 73.5635 87.6246L73.5596 87.6218ZM105.251 251.046C105.335 250.917 105.405 250.858 105.413 250.791C106.09 245.768 106.773 240.744 107.411 235.716C107.448 235.431 107.14 235.101 106.991 234.796C106.572 235.059 105.845 235.267 105.784 235.597C105.321 238.106 104.623 240.61 105.218 243.213C105.338 243.736 105.311 244.385 105.105 244.874C104.233 246.955 104.897 248.955 105.247 251.047L105.251 251.046ZM229.563 130.676C231.42 129.578 238.46 119.406 238.746 117.402C237.243 119.129 235.825 120.761 234.403 122.39C232.847 124.177 231.274 125.95 229.73 127.749C228.966 128.635 228.902 129.592 229.56 130.676L229.563 130.676ZM278.809 36.1829C278.35 34.4936 277.969 33.0993 277.592 31.7044C277.386 30.9493 276.962 30.9505 276.45 31.3993C275.427 32.3035 274.419 33.2159 273.408 34.1355C272.728 34.7506 272.899 35.2283 273.667 35.5927C274.791 36.1246 275.9 36.6898 277.044 37.1738C277.496 37.3648 278.241 37.6223 278.46 37.4242C278.781 37.1281 278.749 36.4504 278.809 36.1829ZM69.052 84.9756C68.9661 85.047 68.8803 85.1184 68.7978 85.1894C70.0413 87.6991 71.2815 90.2094 72.5346 92.7143C72.6386 92.9262 72.7985 93.1195 72.9712 93.2833C73.7851 94.0476 74.6193 93.8403 74.7777 92.7309C74.8862 91.9805 74.8917 91.0248 74.5201 90.4289C73.1317 88.1958 71.1112 86.5535 69.0525 84.979L69.052 84.9756ZM106.963 81.0233C106.823 81.0613 106.684 81.0993 106.546 81.1407C106.554 82.8561 106.542 84.5745 106.597 86.2862C106.605 86.5229 106.956 86.9565 107.141 86.9495C108.422 86.9201 109.704 86.7977 110.986 86.7061C111.011 86.5715 111.035 86.4368 111.06 86.3021C109.694 84.5414 108.329 82.7841 106.963 81.0233ZM122.065 92.3108C122.569 90.3361 122.997 88.6556 123.528 86.5771C121.5 87.2178 119.871 87.73 117.948 88.3377C119.442 89.7794 120.643 90.9409 122.065 92.3108ZM57.4647 12.8836C57.5825 12.8419 57.7038 12.7997 57.8211 12.7546C58.8162 10.0001 56.2889 4.87282 53.5162 4.7492C54.8846 7.56433 56.1744 10.2223 57.4642 12.8803L57.4647 12.8836ZM98.5799 176.952C99.502 180.102 100.35 183.012 101.201 185.919C101.363 183.723 101.287 181.573 101.159 179.427C101.063 177.835 100.695 177.473 98.5799 176.952ZM201.606 138.974C200.461 139.479 199.556 139.814 198.735 140.292C198.529 140.412 198.413 141.136 198.572 141.347C199.045 141.979 199.65 142.52 200.249 143.047C200.749 143.483 201.266 143.412 201.467 142.752C201.755 141.798 201.982 140.82 202.124 139.837C202.161 139.577 201.79 139.26 201.61 138.977L201.606 138.974ZM225.187 226.099C225.317 226.114 225.449 226.125 225.579 226.14C227.678 223.9 227.84 220.298 225.625 219.202C225.473 221.575 225.328 223.837 225.187 226.099ZM155.858 82.3518C155.848 82.2154 155.842 82.0786 155.832 81.9455C154.689 81.6751 153.552 81.3314 152.391 81.1772C152.029 81.128 151.279 81.5777 151.259 81.8392C151.203 82.5922 151.422 83.3694 151.56 84.1312C151.566 84.1717 151.877 84.2218 151.996 84.1661C153.287 83.5735 154.571 82.9612 155.855 82.3523L155.858 82.3518ZM231.44 168.908C231.318 168.895 231.196 168.886 231.077 168.872C230.916 172.485 230.755 176.093 230.595 179.706C230.735 179.719 230.875 179.733 231.011 179.747C231.68 179.171 231.507 178.401 231.474 177.606C231.418 176.308 231.226 174.927 231.569 173.718C232.044 172.03 231.843 170.495 231.444 168.907L231.44 168.908ZM53.001 13.1401C52.7172 11.4246 51.7652 10.543 50.617 10.749C49.6167 10.9294 49.31 11.5991 49.9955 12.3343C50.5251 12.9032 51.2059 13.3531 51.8739 13.7634C52.1246 13.919 52.5948 13.9281 52.8499 13.79C53.019 13.6993 52.9828 13.2255 53.0005 13.1367L53.001 13.1401ZM76.4845 71.6842C78.2755 71.2822 79.4479 70.1076 80.5024 68.8126C80.6483 68.6357 80.5564 68.0669 80.3696 67.8776C80.1939 67.6936 79.6162 67.611 79.4484 67.7567C78.1829 68.8384 77.1655 70.1279 76.485 71.6875L76.4845 71.6842ZM83.9686 128.881C84.6801 129.699 85.2449 130.411 85.8811 131.046C86.0591 131.223 86.6113 131.32 86.7181 131.204C86.9168 130.988 87.0567 130.54 86.9716 130.27C86.7399 129.55 86.4484 128.821 86.025 128.202C85.8128 127.889 85.1743 127.56 84.8938 127.668C84.5288 127.808 84.3275 128.376 83.9657 128.885L83.9686 128.881ZM301.07 222.235C300.941 222.361 300.809 222.491 300.679 222.617C301.094 223.989 301.509 225.358 301.924 226.73C302.035 226.713 302.147 226.7 302.256 226.687C302.555 225.55 303.232 224.411 302.469 223.226C302.182 222.779 301.546 222.56 301.067 222.239L301.07 222.235ZM91.1936 72.0553C92.3744 74.4917 92.9894 73.9242 96.0329 71.9599C94.3074 71.9936 92.7782 72.0255 91.1936 72.0553ZM117.151 138.189C118.679 136.251 119.149 134.671 117.43 133.963C117.338 135.355 117.253 136.674 117.151 138.189ZM146.996 92.7856L147.479 92.4894C147.303 91.723 147.175 90.9389 146.917 90.2019C146.844 89.9888 146.326 89.7317 146.13 89.8058C145.834 89.919 145.389 90.4508 145.445 90.5492C145.903 91.3288 146.462 92.0485 146.992 92.7827L146.996 92.7856ZM22.6218 50.1403C22.1702 50.6937 21.9291 50.9951 21.6846 51.2971C22.2019 51.6679 22.7192 52.0387 23.237 52.413C23.4812 52.0628 24.0012 51.575 23.9119 51.3919C23.6945 50.9521 23.1883 50.6554 22.6224 50.1436L22.6218 50.1403ZM106.777 218.311C106.857 218.316 106.974 218.34 106.978 218.322C107.562 216.642 108.137 214.957 108.714 213.275C107.157 214.648 106.943 216.469 106.777 218.311ZM20.5835 58.3036C20.7565 58.3536 20.9294 58.4036 21.1028 58.457C21.8283 58.0522 22.159 57.4272 21.929 56.6033C21.89 56.4574 21.4173 56.4315 21.1468 56.3513C20.9581 57.0034 20.7728 57.6549 20.584 58.307L20.5835 58.3036ZM104.142 71.9035C103.553 71.8812 103.116 71.8603 102.343 71.831C102.953 72.4775 103.318 72.8677 103.888 73.4754C103.995 72.8079 104.057 72.416 104.139 71.904L104.142 71.9035ZM121.448 99.214C121.269 99.1717 121.094 99.129 120.915 99.0833C120.78 99.5895 120.645 100.096 120.511 100.602C120.712 100.654 120.915 100.703 121.116 100.756C121.225 100.24 121.338 99.7267 121.447 99.2106L121.448 99.214ZM111.139 115.658C111.007 115.767 110.875 115.873 110.746 115.982C111.389 116.775 112.031 117.565 112.67 118.359C112.766 118.286 112.862 118.213 112.954 118.141C112.348 117.315 111.746 116.488 111.139 115.658ZM203.216 151.511C203.386 151.561 203.555 151.612 203.724 151.659C203.853 151.23 203.985 150.796 204.114 150.367L203.599 150.216C203.47 150.649 203.341 151.079 203.216 151.511ZM82.8658 69.1042C83.039 68.8095 83.2089 68.6083 83.2643 68.3794C83.2793 68.3186 82.8394 68.0499 82.7904 68.0917C82.6068 68.2467 82.4694 68.4809 82.3831 68.7109C82.3632 68.7622 82.6313 68.9186 82.8658 69.1042Z" fill="black" stroke="black" stroke-width="0.333887" stroke-miterlimit="10"/>
</g>
<rect x="0.18335" y="22.5168" width="151.196" height="215.227" rx="10.1687" transform="rotate(-8.49433 0.18335 22.5168)" stroke="black" stroke-width="0.322588"/>
<defs>
<clipPath id="clip0_1320_286">
<rect y="22.3811" width="151.519" height="215.549" rx="10.33" transform="rotate(-8.49433 0 22.3811)" fill="white"/>
</clipPath>
</defs>
</svg>
