<svg width="114" height="160" viewBox="0 0 114 160" fill="none" xmlns="http://www.w3.org/2000/svg">
<g clip-path="url(#clip0_1431_3037)">
<rect width="114" height="160" rx="7.5" fill="white"/>
<path d="M-9.66797 48.375C-9.66797 46.9866 -9.66797 45.5957 -9.66797 44.2074C-8.13378 45.8949 -7.15702 48.0682 -5.18303 49.5588C-5.06285 49.2187 -4.94523 49.05 -4.95802 48.894C-5.09865 47.2167 -5.26485 45.5395 -5.41572 43.8622C-5.4464 43.5119 -5.53078 43.1386 -5.45151 42.8088C-5.30577 42.1951 -5.19326 41.6812 -6.00382 41.4536C-6.13934 41.4153 -6.21605 41.0778 -6.27742 40.8681C-6.35924 40.5843 -6.31322 40.2213 -6.4743 40.0065C-7.51499 38.6105 -8.5966 37.2451 -9.66541 35.8721C-9.66541 35.0872 -9.66541 34.3022 -9.66541 33.5173C-9.03128 33.7806 -8.39459 34.044 -7.76046 34.3073C-7.69143 34.2281 -7.62239 34.1488 -7.55335 34.0695C-8.25907 32.6786 -8.96224 31.2851 -9.66797 29.8942C-9.66797 28.626 -9.66797 27.3579 -9.66797 26.0897C-9.58359 26.1741 -9.4762 26.2482 -9.41739 26.3479C-7.6275 29.3931 -5.84273 32.4408 -4.0554 35.4886C-3.97614 35.4962 -3.89943 35.5065 -3.82016 35.5141C-3.82016 35.1178 -3.79459 34.719 -3.82528 34.3252C-3.87642 33.6707 -3.80226 33.0289 -3.04796 32.9087C-2.19137 32.7707 -1.94079 32.1852 -1.7081 31.5101C-1.5419 31.0269 -1.42683 30.5079 -1.16602 30.0783C-0.107433 28.3295 1.02531 26.6241 2.07623 24.8675C2.42142 24.2897 2.56972 23.5968 2.85099 22.978C3.1118 22.4053 3.43142 21.8556 3.72292 21.2956C3.81497 21.1218 3.95049 20.9505 3.97862 20.7664C4.13203 19.7283 4.10902 18.6365 4.4312 17.6598C4.87356 16.3175 5.42075 15.0595 5.3466 13.5766C5.26989 12.0195 5.48979 10.4496 5.50769 8.88479C5.51536 8.07939 5.3645 7.27144 5.28012 6.40979C4.25733 6.27427 4.05021 6.02115 4.32636 4.78876C4.49001 4.0575 4.35961 3.47455 3.7894 3.00154C3.30102 2.59756 2.81519 2.19102 2.30124 1.8254C0.807965 0.756643 -0.726221 -0.258417 -2.19648 -1.35785C-3.88664 -2.62093 -5.518 -3.95815 -7.1877 -5.24679C-7.99826 -5.87321 -8.83951 -6.46128 -9.66541 -7.06724C-9.66541 -7.18742 -9.66541 -7.30759 -9.66541 -7.43031C-9.38414 -7.32804 -9.07219 -7.27435 -8.82672 -7.11582C-6.84762 -5.84764 -4.88387 -4.54877 -2.90477 -3.27803C-1.20438 -2.18626 0.501128 -1.09961 2.2322 -0.056427C2.5237 0.119993 2.95327 0.0688553 3.32147 0.122549C3.27033 -0.212395 3.29846 -0.585691 3.15527 -0.874613C2.39073 -2.41382 1.60063 -3.94025 0.787509 -5.45389C-1.05351 -8.88259 -2.91499 -12.3011 -4.75346 -15.7323C-4.92989 -16.0622 -5.01427 -16.438 -5.14212 -16.7934C-5.03473 -16.8445 -4.92989 -16.8982 -4.8225 -16.9494C-4.29576 -16.2335 -3.73578 -15.5406 -3.24996 -14.7991C-0.923108 -11.2374 1.36794 -7.65276 3.71269 -4.10133C3.97862 -3.69991 4.49768 -3.46723 4.89913 -3.1553C4.97072 -3.63854 5.13437 -4.12689 5.10113 -4.60246C4.81475 -8.51441 4.49001 -12.4238 4.18573 -16.3357C4.16783 -16.5735 4.22153 -16.8139 4.24198 -17.0542L4.54115 -17.0823C4.75849 -16.1286 5.00908 -15.1801 5.19062 -14.2187C5.9168 -10.363 6.61997 -6.50474 7.34104 -2.64905C7.41263 -2.26553 7.52514 -1.882 7.67856 -1.5266C7.90613 -1.00501 8.27434 -0.856714 8.57095 -1.44223C9.50424 -3.28826 10.1588 -5.22889 10.2202 -7.3127C10.2407 -8.00049 10.146 -8.60134 10.8773 -9.03089C11.0896 -9.15617 11.133 -9.65731 11.1612 -9.99481C11.2839 -11.4036 11.3734 -12.815 11.468 -14.2264C11.5601 -15.5968 11.6674 -16.9698 11.716 -18.3428C11.739 -19.0255 11.6444 -19.7133 11.6035 -20.3985C11.5882 -20.6465 11.5754 -20.8946 11.5626 -21.1426C11.4654 -21.1886 11.3708 -21.2372 11.2737 -21.2832C10.3327 -20.1735 9.39174 -19.0613 8.45077 -17.9517L8.23854 -18.1127C8.57606 -18.6676 8.92636 -19.2173 9.2511 -19.7772C9.83921 -20.7897 10.4145 -21.8125 10.995 -22.8301C12.2632 -22.8301 13.5315 -22.8301 14.7997 -22.8301C14.7614 -20.759 14.7051 -18.6906 14.6898 -16.6195C14.6847 -15.9906 14.7307 -15.3488 14.8611 -14.7352C14.925 -14.4309 15.2268 -13.9553 15.4288 -13.9528C15.7305 -13.9477 16.068 -14.257 16.3365 -14.4923C16.4771 -14.6176 16.5334 -14.863 16.5845 -15.065C17.1522 -17.3406 17.7275 -19.6136 18.2568 -21.8968C18.3207 -22.1781 18.134 -22.5181 18.065 -22.8301C20.3612 -22.8301 22.6548 -22.8301 24.9509 -22.8301C24.7719 -22.5591 24.5904 -22.288 24.4114 -22.017C25.1376 -22.0119 25.9916 -21.7102 25.8561 -22.8301C29.9626 -22.8301 34.0717 -22.8301 38.1782 -22.8301C38.8455 -21.971 39.472 -21.0787 40.1854 -20.263C42.8702 -17.2051 45.5781 -14.165 48.2936 -11.1352C48.6925 -10.6903 48.6746 -10.294 48.4035 -9.82606C47.9024 -8.9593 47.9765 -8.1539 48.4828 -7.26923C48.7257 -6.84224 48.6592 -6.20048 48.626 -5.66355C48.5825 -4.95275 48.3498 -4.24707 48.3549 -3.54138C48.3626 -2.42661 48.5237 -1.31439 48.5723 -0.199612C48.6081 0.644142 48.9558 1.16062 49.7587 1.52369C52.4794 2.75864 55.1693 4.06773 57.8695 5.3487C59.1326 5.94956 59.2835 5.86518 59.5392 4.44103C60.0173 1.76659 60.4955 -0.90785 60.9839 -3.58229C61.0682 -4.04508 61.2038 -4.49763 61.3137 -4.95275C61.4825 -4.4644 61.5131 -3.9965 61.4773 -3.53371C61.2344 -0.524326 60.9941 2.48506 60.7154 5.49188C60.6387 6.32541 60.8662 6.847 61.6947 7.17683C63.2928 7.81348 64.85 8.55241 66.4353 9.21974C67.6346 9.72599 67.967 9.50866 67.7292 8.20468C67.159 5.08791 66.5708 1.97114 65.8191 -1.10472C65.6094 -1.96382 64.8858 -2.76155 64.2363 -3.43144C63.7505 -3.93258 63.5153 -4.36979 63.5178 -5.07036C63.5178 -5.7377 63.4897 -6.54054 63.1343 -7.04679C61.5362 -9.34026 59.8179 -11.5468 58.1482 -13.7891C57.9666 -14.0346 57.826 -14.3082 57.6649 -14.569C57.7288 -14.6329 57.7927 -14.6968 57.8567 -14.7607C58.1558 -14.5587 58.4703 -14.3747 58.7516 -14.1471C60.3293 -12.884 61.8762 -11.5852 63.4769 -10.3553C64.2133 -9.79026 64.7094 -9.90021 64.9804 -10.6749C66.397 -14.7173 67.7701 -18.7724 69.1611 -22.825C69.583 -22.825 70.0074 -22.825 70.4293 -22.825C69.8105 -19.1968 69.1611 -15.5712 68.5857 -11.9354C68.2764 -9.97947 68.5397 -9.78259 70.4038 -10.5803C73.7892 -12.03 77.144 -13.5514 80.5166 -15.0318C80.9053 -15.2031 81.3246 -15.3028 81.7286 -15.4357C81.7772 -15.3386 81.8232 -15.2389 81.8718 -15.1417C81.3476 -14.7786 80.8285 -14.4079 80.3018 -14.0499C76.607 -11.5417 72.8968 -9.05645 69.2224 -6.52008C68.0999 -5.74537 67.7189 -4.31354 68.128 -2.97121C68.9463 -0.286543 69.7594 2.40068 70.6083 5.07768C70.7336 5.47143 71.0379 5.80893 71.2603 6.17456C71.4828 5.80637 71.7922 5.46632 71.9124 5.07001C73.132 1.05579 74.321 -2.96865 75.5254 -6.98798C75.6302 -7.34082 75.7887 -7.67833 75.9243 -8.02094C76.0163 -8.00049 76.1109 -7.98003 76.203 -7.95958C76.1416 -7.38429 76.1033 -6.80389 76.0138 -6.23372C75.2339 -1.2249 74.4387 3.78393 73.6562 8.79275C73.3315 10.8714 74.0705 12.6331 75.7018 13.8169C77.7474 15.3024 79.9694 16.5502 82.1326 17.872C82.6977 18.2172 83.0506 17.959 83.1324 17.3249C83.2423 16.4862 83.3983 15.6502 83.4418 14.809C83.7231 9.53423 83.9762 4.25694 84.2472 -1.0178C84.2754 -1.57263 84.3648 -2.12234 84.4262 -2.67462C84.5285 -2.67462 84.6333 -2.67462 84.7356 -2.67206C85.4541 4.2416 85.3697 11.2371 86.5587 18.1022C86.6764 18.097 86.794 18.0894 86.9116 18.0843C86.7812 15.2257 86.6508 12.3697 86.5178 9.51122C86.6227 9.5061 86.73 9.49843 86.8349 9.49332C86.9372 10.02 87.0573 10.5442 87.1366 11.0734C87.4281 13.0141 87.6991 14.9573 87.9906 16.8979C88.2438 18.5982 88.3793 18.7107 90.0285 18.1252C93.1583 17.0155 96.2676 15.847 99.3871 14.7118C99.7195 14.5916 100.08 14.5431 100.428 14.4612C100.466 14.5533 100.504 14.6453 100.543 14.7374C100.216 14.9649 99.901 15.2155 99.5558 15.4149C96.2931 17.307 93.0279 19.1965 89.7524 21.0681C88.993 21.5027 88.7219 22.0959 88.8677 22.9499C89.5402 26.9079 90.1896 30.8684 90.8647 34.8264C90.9133 35.1153 91.082 35.3863 91.1971 35.665L91.5167 35.6599C92.9461 30.7917 94.0123 25.8212 95.1527 20.8738C95.278 20.8993 95.4059 20.9274 95.5312 20.953C95.0863 24.5326 94.6439 28.1121 94.199 31.6917C94.2655 31.7019 94.3345 31.7147 94.401 31.7249C94.9303 30.986 95.4596 30.2471 95.9889 29.5082C96.1014 29.5746 96.2113 29.6411 96.3238 29.7076C95.6411 32.6198 93.4242 35.1025 93.6518 38.4903C95.7281 36.0818 96.9656 33.4942 97.4336 30.5922C97.656 29.2167 98.2313 28.2707 99.4254 27.565C100.093 27.1712 100.819 26.6317 101.164 25.9721C102.836 22.7607 104.447 19.5161 105.943 16.2178C106.332 15.3638 106.214 14.2823 106.342 13.3055C106.411 12.784 106.414 12.224 106.623 11.7612C106.951 11.0428 107.022 10.4342 106.585 9.72599C105.225 7.51689 103.987 5.22853 102.571 3.05779C98.7427 -2.80502 94.8484 -8.62179 90.9797 -14.4565C90.5604 -15.0906 90.1462 -15.7298 89.7294 -16.3664C89.801 -16.4176 89.87 -16.4661 89.9416 -16.5173C96.3724 -8.93884 102.315 -0.94109 109.267 6.29217C109.418 6.03649 109.487 5.9649 109.505 5.88308C110.275 2.40579 111.131 -1.05615 111.786 -4.55389C112.924 -10.634 113.939 -16.7372 115.005 -22.8301C115.187 -22.8301 115.368 -22.8301 115.55 -22.8301C115.256 -19.225 114.957 -15.6198 114.665 -12.0147C114.307 -7.56838 113.931 -3.12206 113.614 1.32937C113.52 2.65125 113.599 3.98336 113.599 5.31291C113.675 5.33848 113.755 5.3666 113.831 5.39217C115.235 3.90665 116.68 2.45693 118.015 0.910053C118.355 0.516302 118.375 -0.174042 118.48 -0.741657C118.587 -1.32206 118.403 -2.1428 118.731 -2.45984C119.626 -3.3215 119.562 -4.3519 119.582 -5.37974C119.702 -11.1965 119.794 -17.0133 119.894 -22.8301C120.497 -22.8301 121.101 -22.8301 121.707 -22.8301C122.116 -18.3914 122.525 -13.9528 122.939 -9.51413C122.983 -9.05901 123.067 -8.60645 123.159 -7.98259C123.499 -8.58088 123.763 -8.98231 123.967 -9.41185C124.916 -11.3883 125.852 -13.3698 126.783 -15.3539C127.112 -16.0596 127.268 -16.9161 127.77 -17.4556C128.409 -18.1434 128.294 -18.688 127.984 -19.4014C127.493 -20.5289 127.059 -21.6846 126.601 -22.8275C129.621 -22.8275 132.641 -22.8275 135.66 -22.8275C135.343 -22.1448 135.149 -21.3599 134.681 -20.8076C134.157 -20.1914 134.134 -19.6392 134.241 -18.9156C134.476 -17.3355 133.929 -16.6119 132.431 -16.034C131.95 -15.8474 131.562 -15.3718 131.191 -14.973C130.973 -14.7377 130.863 -14.4002 130.728 -14.096C129.741 -11.8715 128.762 -9.64197 127.785 -7.41242C127.772 -7.38685 127.841 -7.32548 127.908 -7.22832C128.099 -7.36384 128.304 -7.48145 128.478 -7.6323C131.119 -9.93089 133.809 -12.1809 136.364 -14.5715C137.23 -15.382 137.762 -16.5556 138.442 -17.5656C138.491 -17.6372 138.491 -17.7394 138.511 -17.8264C138.89 -19.4934 139.268 -21.1605 139.647 -22.8275C140.976 -22.8275 142.303 -22.8275 143.633 -22.8275C143.462 -21.636 143.26 -20.4497 143.14 -19.2531C143.111 -18.9642 143.349 -18.6471 143.467 -18.3428C143.605 -18.6088 143.838 -18.8619 143.868 -19.1406C144.004 -20.3653 144.08 -21.5977 144.178 -22.8275C144.418 -22.8275 144.661 -22.8275 144.901 -22.8275C144.97 -21.4724 145.039 -20.1147 145.106 -18.7596C145.139 -18.0948 145.502 -17.7803 146.149 -17.7624C146.481 -17.7522 146.814 -17.7369 147.144 -17.7573C150.458 -17.9644 153.769 -18.1818 157.083 -18.3786C157.479 -18.4017 157.883 -18.3071 158.282 -18.2687C158.29 -18.1588 158.297 -18.0488 158.307 -17.9389C158.031 -17.7957 157.771 -17.609 157.479 -17.517C157.021 -17.3713 156.543 -17.2792 156.07 -17.1795C152.94 -16.5147 149.808 -15.8576 146.678 -15.1928C145.934 -15.0343 145.223 -14.8016 145.269 -13.8428C145.41 -10.859 145.551 -7.8752 145.748 -4.89394C145.806 -3.9965 146.223 -3.8482 146.947 -4.35701C147.341 -4.63315 147.729 -4.92718 148.08 -5.25701C151.746 -8.71384 155.403 -12.1835 159.069 -15.6403C159.282 -15.8397 159.558 -15.9727 159.806 -16.1389C159.875 -16.0801 159.941 -16.0238 160.01 -15.965C159.913 -15.74 159.86 -15.4792 159.711 -15.2951C158.573 -13.8863 157.397 -12.5082 156.27 -11.0917C153.227 -7.26923 150.184 -3.44422 147.185 0.411472C146.448 1.36005 146.111 2.47483 146.285 3.73279C146.364 4.31063 146.231 4.92938 146.129 5.52001C145.957 6.5274 145.645 7.51689 145.553 8.5294C145.367 10.5391 145.093 12.5717 145.211 14.5737C145.364 17.1766 145.689 17.3223 148.248 16.8902C151.166 16.3968 154.073 15.847 156.988 15.3408C157.382 15.2717 157.796 15.3306 158.2 15.3306C158.208 15.4149 158.215 15.4993 158.221 15.5862C158.054 15.6987 157.904 15.8521 157.719 15.9186C156.387 16.407 155.042 16.857 153.715 17.3556C151.37 18.2351 149.021 19.1044 146.701 20.0479C145.61 20.4902 145.489 20.9786 145.883 22.0576C146.037 22.4769 146.08 22.932 146.187 23.3692C146.632 25.1718 147.049 26.9846 147.545 28.7743C147.949 30.2292 148.292 31.6636 149.164 33.0084C150.02 34.3278 150.225 35.9999 149.575 37.6082C149.304 38.2781 149.067 38.9582 148.826 39.6383C147.681 42.865 147.673 46.286 147.134 49.615C147.123 49.6738 147.128 49.7352 147.134 49.7966C147.195 50.5917 147.589 50.7528 148.282 50.3744C148.668 50.1622 149.146 50.1136 149.588 50.019C149.908 49.95 150.253 49.9679 150.56 49.8656C151.593 49.5307 152.623 49.1829 153.638 48.7968C158.095 47.1017 162.542 45.3886 166.999 43.6909C167.323 43.5681 167.686 43.5375 168.029 43.4659C168.067 43.563 168.108 43.6627 168.147 43.7599C167.763 44.0207 167.405 44.3275 166.996 44.5372C164.851 45.6443 162.688 46.7181 160.54 47.8176C157.208 49.523 153.889 51.2488 150.552 52.9415C149.675 53.3863 149.225 54.0307 149.261 55.0227C149.292 55.8972 149.292 56.7741 149.289 57.6486C149.289 58.4463 149.652 59.0369 150.299 59.4639C151.079 59.9804 151.864 60.4892 152.659 60.9827C155.891 62.9821 159.113 64.9995 162.371 66.958C163.47 67.6202 163.779 67.4208 163.897 66.1193C164.245 62.2432 164.564 58.3645 164.902 54.4858C164.93 54.1662 165.012 53.8491 165.068 53.5295C165.153 53.5372 165.234 53.5449 165.319 53.5525C165.47 54.6469 165.626 55.7386 165.766 56.8329C166.045 59.019 166.306 61.2051 166.605 63.3861C166.641 63.6392 166.878 63.8642 167.024 64.1046C167.211 63.9281 167.451 63.785 167.579 63.5727C168.973 61.2409 170.374 58.9142 171.719 56.5568C172.762 54.7236 173.862 52.9031 173.585 50.6275C173.524 50.1162 173.652 49.5 173.908 49.05C174.636 47.7639 174.521 46.4267 174.304 45.0818C173.545 40.3747 172.775 35.6675 171.959 30.9707C171.839 30.2829 171.53 29.5874 171.151 28.9968C170.724 28.332 170.627 27.7107 170.765 26.9462C170.872 26.353 170.906 25.6652 170.709 25.113C170.277 23.901 170.157 22.7914 170.929 21.6664C171.136 21.3647 171.2 20.9274 171.23 20.5439C171.519 16.9056 171.844 13.2697 172.044 9.62627C172.212 6.55297 172.223 3.47199 172.317 0.39613C172.325 0.109766 172.442 -0.171486 172.509 -0.455294C172.604 -0.452736 172.698 -0.45018 172.795 -0.445066C172.88 -0.0180759 172.992 0.408913 173.043 0.841017C173.606 5.45353 174.145 10.0712 174.734 14.6811C174.8 15.2027 175.112 15.6911 175.309 16.1948C175.731 15.7959 176.257 15.4635 176.557 14.9879C177.999 12.6894 179.415 10.3703 180.763 8.01291C181.103 7.41718 181.185 6.6578 181.323 5.96234C181.51 5.02143 181.512 4.02682 181.821 3.13449C182.202 2.03761 182.343 0.97653 182.105 -0.148474C181.333 -3.80985 180.579 -7.47378 179.776 -11.13C179.663 -11.6414 179.423 -12.2065 179.06 -12.567C177.966 -13.6562 177.679 -15.0087 177.602 -16.4482C177.582 -16.8215 177.59 -17.3227 177.807 -17.563C178.646 -18.4809 178.482 -19.5829 178.508 -20.6491C178.526 -21.3727 178.459 -22.0963 178.431 -22.8199C184.834 -22.8199 191.236 -22.8199 197.639 -22.8199C197.358 -22.5974 197.097 -22.3417 196.793 -22.1551C194.537 -20.7539 192.274 -19.363 190.014 -17.9696C188.418 -16.9877 186.746 -16.0775 186.271 -14.032C186.258 -13.9758 186.217 -13.9221 186.176 -13.8786C185.424 -13.063 185.371 -12.0914 185.567 -11.0738C185.987 -8.88003 186.406 -6.68628 186.851 -4.49763C186.91 -4.20616 187.102 -3.94025 187.306 -3.50559C188.751 -5.33116 189.39 -7.46611 191.016 -8.97464C191.08 -8.45816 191.021 -7.98514 190.84 -7.56838C190.011 -5.65843 189.152 -3.76127 188.296 -1.8641C187.907 -0.999897 188.045 -0.209837 188.615 0.511189C189.124 1.15807 189.789 0.876814 190.369 0.692722C196.179 -1.15331 201.981 -3.02235 207.785 -4.88372V0.00749397C201.986 2.24983 196.166 4.43591 190.41 6.78053C189.178 7.28166 188.06 8.24559 187.112 9.21718C186.271 10.0763 185.764 11.255 185.069 12.2649C183.614 14.3743 182.116 16.453 180.666 18.5675C179.538 20.209 178.827 22.009 178.623 24.0187C178.546 24.7831 178.306 25.5758 177.948 26.2533C177.349 27.3885 177.252 28.5417 177.441 29.7664C177.92 32.8704 178.349 35.982 178.889 39.0732C179.121 40.4002 179.587 41.6863 179.942 42.9903C180.154 43.7727 180.42 44.5474 180.553 45.3426C180.668 46.0253 180.952 46.1684 181.533 45.877C184.716 44.2815 187.894 42.6758 191.083 41.0906C191.814 40.7275 191.898 40.2622 191.576 39.5463C190.873 37.9764 190.219 36.3835 189.584 34.7829C189.428 34.3891 189.428 33.934 189.359 33.5045C189.451 33.4815 189.546 33.4585 189.638 33.4354C189.815 33.6681 190.019 33.888 190.162 34.1411C190.991 35.6139 191.824 37.0866 192.617 38.5798C193.269 39.8122 193.364 39.8838 194.601 39.173C195.852 38.4545 197.046 37.6286 198.306 36.9281C199.884 36.0511 201.523 35.2815 203.108 34.4147C204.665 33.5633 204.706 33.346 204.366 31.5869C204.192 30.6792 204.154 29.7459 204.036 28.8255C203.95 28.1556 203.837 27.4883 203.725 26.8235C203.615 26.1766 203.331 25.5169 203.4 24.8931C203.939 20.099 203.742 15.3075 203.489 10.5109C203.382 8.46036 203.331 6.40723 203.285 4.35665C203.277 3.99614 203.423 3.63307 203.497 3.27256C203.609 3.27767 203.722 3.28534 203.834 3.29046C203.944 3.61517 204.098 3.92966 204.159 4.26205C204.323 5.12115 204.44 5.99047 204.589 6.85467C205.271 10.8408 205.944 14.8294 206.65 18.813C206.821 19.7871 207.051 19.8408 207.785 19.2169C207.785 31.1752 207.785 43.1335 207.785 55.0918C207.442 55.9713 207.033 56.833 206.778 57.7381C206.519 58.6432 206.785 58.9244 207.785 59.0778C207.785 60.4662 207.785 61.8571 207.785 63.2455C206.793 63.4781 206.407 63.9077 206.599 64.7898C206.949 66.398 207.386 67.9884 207.785 69.5864C207.785 79.7933 207.785 90.0001 207.785 100.207C206.683 101.181 206.473 102.46 206.565 103.83C206.729 106.233 206.862 108.642 207.102 111.038C207.189 111.912 207.55 112.758 207.785 113.615C207.785 116.514 207.785 119.414 207.785 122.313C207.307 122.883 206.668 123.382 206.379 124.037C205.75 125.461 205.248 126.949 204.791 128.439C204.09 130.712 203.344 132.993 204.044 135.43C204.131 135.729 204.057 136.095 203.985 136.414C203.382 139.142 204.548 141.553 205.335 144.034C205.346 144.067 205.44 144.074 205.604 144.133C205.711 143.839 205.854 143.55 205.918 143.249C206.322 141.333 206.691 139.413 207.105 137.501C207.289 136.657 207.555 135.831 207.785 134.998C207.785 142.305 207.785 149.615 207.785 156.922C207.391 157.406 206.885 157.835 206.629 158.382C206.051 159.625 205.589 160.921 205.093 162.2C203.632 165.963 202.134 169.714 200.735 173.501C200.053 175.35 200.485 176.393 202.093 177.502C202.341 177.674 202.587 177.848 202.835 178.019C203.438 178.436 203.857 178.377 204.144 177.62C205.136 174.999 206.154 172.389 207.182 169.783C207.332 169.402 207.58 169.06 207.782 168.702C207.782 170.816 207.782 172.931 207.782 175.043C207.401 176.357 207.02 177.671 206.639 178.985C206.719 179.011 206.801 179.036 206.88 179.062C207.182 178.326 207.483 177.589 207.782 176.853C207.782 182.772 207.782 188.691 207.782 194.61C203.615 194.61 199.447 194.61 195.279 194.61C195.297 193.104 195.445 191.585 195.307 190.095C194.967 186.433 194.64 182.759 194.013 179.144C193.732 177.523 193.468 175.851 193.052 174.288C192.246 171.279 190.912 168.405 189.735 165.501C188.797 163.179 187.761 160.901 186.802 158.587C186.7 158.342 186.836 157.999 186.861 157.702C187.086 157.858 187.388 157.966 187.526 158.18C188.574 159.801 189.582 161.448 190.617 163.079C192.136 165.475 193.653 167.873 195.202 170.251C195.731 171.064 196.092 171.069 196.396 170.307C198.224 165.744 200.04 161.174 201.814 156.59C202.011 156.084 201.953 155.47 201.976 154.905C202.004 154.217 202.006 153.527 201.996 152.837C201.983 151.878 202.121 150.876 201.891 149.968C201.042 146.634 200.135 143.312 199.104 140.032C198.662 138.621 197.749 137.562 196.023 137.386C191.101 136.882 186.191 136.251 181.272 135.719C178.331 135.402 175.383 135.166 172.435 134.929C172.069 134.898 171.642 135.003 171.317 135.177C168.285 136.798 165.257 138.429 162.258 140.111C161.816 140.359 161.445 140.832 161.184 141.285C160.105 143.154 159.496 145.286 157.888 146.866C157.085 147.654 157.211 148.027 158.157 148.643C159.397 149.449 160.67 150.203 161.882 151.047C162.555 151.517 163.135 151.505 163.8 151.098C164.677 150.564 165.559 150.034 166.477 149.579C166.832 149.403 167.295 149.444 167.71 149.388C167.484 149.728 167.321 150.142 167.019 150.39C166.413 150.883 165.73 151.282 165.083 151.727C164.904 151.85 164.746 152.003 164.577 152.144C164.61 152.21 164.646 152.277 164.679 152.341C166.007 151.886 167.344 151.451 168.663 150.973C173.204 149.324 177.735 147.657 182.277 146.007C182.647 145.872 183.056 145.839 183.448 145.757C183.486 145.872 183.522 145.987 183.56 146.102C183.276 146.284 183.01 146.501 182.709 146.641C177.787 148.94 172.849 151.205 167.942 153.537C166.817 154.072 165.753 154.703 164.6 155.217C160.747 156.938 157.024 158.955 153.291 160.937C152.176 161.53 151.795 162.765 151.447 163.903C151.314 164.335 151.483 164.856 151.521 165.472C151.984 165.115 152.268 164.892 152.554 164.672C152.657 164.736 152.761 164.803 152.864 164.867C152.641 165.378 152.37 165.874 152.212 166.406C151.987 167.163 151.585 167.988 151.71 168.707C152.347 172.358 153.124 175.986 153.861 179.622C154.076 180.686 154.347 181.739 154.536 182.808C154.743 183.976 154.96 184.176 156.093 183.754C162.314 181.437 168.525 179.093 174.736 176.751C175.723 176.377 176.69 175.945 177.687 175.605C177.94 175.518 178.275 175.674 178.572 175.72C178.436 175.958 178.354 176.26 178.155 176.423C177.856 176.666 177.48 176.815 177.135 177.001C173.547 178.929 169.955 180.849 166.377 182.8C166.096 182.954 165.784 183.291 165.733 183.585C165.613 184.27 165.191 184.554 164.616 184.743C163.756 185.025 162.869 185.25 162.041 185.602C160.872 186.098 159.747 186.692 158.448 187.321C158.832 187.653 158.962 187.827 159.136 187.906C162.151 189.294 165.163 190.683 168.19 192.043C170.144 192.92 172.118 193.751 174.081 194.602C171.182 194.602 168.282 194.602 165.383 194.602C165.163 194.505 164.948 194.383 164.72 194.319C161.519 193.444 158.318 192.565 155.106 191.723C153.851 191.394 152.93 191.964 152.547 193.212C152.406 193.672 152.286 194.14 152.155 194.605C148.23 194.605 144.303 194.605 140.378 194.605C139.642 192.227 139.071 189.78 138.113 187.5C137.509 186.063 137.353 184.508 136.722 183.148C134.704 178.801 132.564 174.508 130.367 170.246C128.557 166.733 126.598 163.294 124.719 159.814C124.558 159.515 124.502 159.157 124.399 158.825C124.494 158.774 124.589 158.722 124.683 158.671C124.921 158.907 125.207 159.111 125.392 159.385C127.141 161.954 128.838 164.56 130.615 167.111C133.098 170.678 135.635 174.207 138.159 177.745C138.317 177.965 138.555 178.129 138.88 178.433C139.033 177.973 139.153 177.704 139.212 177.421C139.7 175.117 140.033 172.77 140.698 170.52C141.449 167.978 140.938 165.498 140.089 163.279C139.286 161.185 137.767 159.216 136.146 157.618C133.574 155.084 130.651 152.903 127.882 150.571C127.304 150.086 126.701 149.62 126.189 149.073C125.995 148.866 126.021 148.452 125.944 148.132C126.271 148.163 126.665 148.091 126.918 148.247C127.739 148.753 128.506 149.347 129.301 149.891C129.467 150.006 129.674 150.06 129.864 150.139C129.905 150.07 129.948 150.001 129.989 149.932C129.754 149.733 129.503 149.551 129.291 149.331C129.048 149.081 128.818 148.81 128.624 148.521C128.194 147.882 127.902 147.102 127.355 146.593C123.735 143.22 120.093 139.866 116.391 136.58C113.545 134.057 110.599 131.648 107.705 129.178C107.457 128.966 107.26 128.698 107.04 128.455C107.091 128.401 107.145 128.345 107.196 128.291C107.424 128.414 107.667 128.514 107.879 128.662C110.837 130.7 113.778 132.763 116.746 134.785C120.29 137.197 123.85 139.585 127.417 141.962C128.401 142.617 128.805 142.441 129.066 141.316C129.181 140.817 129.286 140.306 129.301 139.797C129.388 136.78 129.723 133.735 129.426 130.753C129.219 128.675 128.544 126.391 127.355 124.712C124.842 121.163 122.103 117.729 118.726 114.898C118.61 114.804 118.49 114.694 118.424 114.564C117.695 113.152 116.266 112.457 115.051 111.728C112.783 110.37 110.316 109.319 107.861 108.312C101.466 105.686 95.03 103.152 88.6145 100.575C88.323 100.458 88.0571 100.268 87.781 100.115C88.0801 99.9692 88.2872 99.982 88.4841 100.041C92.5983 101.242 96.6972 102.503 100.829 103.643C105.424 104.914 110.045 106.098 114.665 107.277C115.818 107.571 116.192 107.225 116.284 106.019C116.391 104.605 116.496 103.191 116.596 101.774C116.887 97.6604 116.818 97.2078 115.118 93.237C114.964 92.8765 114.627 92.5339 114.289 92.3217C110.515 89.9336 106.72 87.5788 102.944 85.1933C102.292 84.7816 101.783 84.8737 101.241 85.3671C100.19 86.3208 99.0879 87.2183 98.0549 88.1899C94.5186 91.5214 90.99 94.8606 87.4869 98.2254C86.5792 99.0973 86.5843 99.2558 87.3642 100.184C89.6706 102.938 92.0128 105.661 94.3294 108.404C94.8996 109.079 95.4366 109.785 95.9889 110.475C95.9045 110.554 95.8201 110.634 95.7357 110.713C92.6929 107.816 89.6527 104.922 86.4462 101.869C86.4079 102.408 86.3593 102.674 86.3746 102.938C86.4616 104.441 86.5229 105.947 86.6687 107.445C86.9857 110.713 87.3309 113.975 87.7145 117.235C87.7835 117.816 88.1083 118.363 88.2847 118.933C88.5557 119.813 88.8063 120.697 89.0467 121.587C89.1413 121.935 89.1311 122.313 89.2589 122.646C90.4965 125.916 91.7008 129.199 93.0279 132.433C93.5725 133.758 94.3703 134.985 95.1016 136.228C95.503 136.908 95.9684 136.926 96.4824 136.245C97.7762 134.537 99.1672 132.901 100.423 131.168C104.141 126.033 107.815 120.866 111.51 115.717C111.661 115.507 111.855 115.328 112.029 115.136C112.042 115.571 111.909 115.921 111.725 116.243C110.132 119.02 108.477 121.761 106.943 124.568C104.033 129.889 101.185 135.246 98.3362 140.6C98.1393 140.968 98.1367 141.451 98.0881 141.886C98.0063 142.62 98.0984 143.402 97.8759 144.082C97.3799 145.591 96.6434 147.02 96.1755 148.534C95.7869 149.794 95.6028 151.126 95.3982 152.435C94.9073 155.567 94.447 158.705 94.0047 161.842C93.9254 162.402 93.9944 162.982 93.9944 163.552C94.1044 163.575 94.2169 163.601 94.3268 163.624C94.5237 163.381 94.7411 163.148 94.9149 162.89C96.8608 160.016 98.7939 157.132 100.747 154.266C100.965 153.946 101.305 153.709 101.586 153.432C101.676 153.504 101.763 153.576 101.852 153.647C101.737 153.972 101.665 154.317 101.504 154.616C99.4843 158.362 97.5282 162.146 95.3829 165.82C94.5544 167.239 94.5442 168.415 95.3036 169.778C96.756 172.391 98.1521 175.035 99.5789 177.661C99.7297 177.937 99.9445 178.175 100.131 178.43C100.216 178.415 100.302 178.402 100.387 178.387C102.136 169.037 103.107 159.566 104.611 150.165C104.534 160.19 103.706 170.192 104.094 180.246C104.478 180.118 104.729 179.962 104.941 179.768C106.386 178.438 107.858 177.139 109.249 175.759C112.4 172.634 115.506 169.466 118.639 166.326C118.904 166.061 119.242 165.866 119.544 165.639C119.618 165.713 119.695 165.79 119.769 165.866C119.656 166.089 119.58 166.337 119.429 166.528C117.718 168.679 116 170.821 114.279 172.964C110.914 177.152 107.5 181.304 104.66 185.886C104.276 186.502 104.25 186.958 104.629 187.615C104.918 188.113 104.982 188.814 104.949 189.415C104.851 191.151 104.657 192.884 104.501 194.618C102.931 194.618 101.361 194.618 99.7885 194.618C99.7579 192.368 99.1263 190.256 98.5586 188.129C98.4129 188.098 98.2697 188.065 98.1239 188.034C96.6844 190.23 95.2473 192.424 93.8078 194.62C90.6064 194.62 87.4051 194.62 84.2038 194.62C82.4829 192.859 80.7595 191.097 79.0387 189.335C79.1358 189.225 79.233 189.115 79.3327 189.008C81.0306 190.356 82.7284 191.703 84.5617 193.16C84.6359 192.7 84.6921 192.526 84.687 192.355C84.641 189.911 84.6487 187.461 84.5157 185.022C84.416 183.202 84.4646 181.327 83.4392 179.671C83.2577 179.377 83.2705 178.97 83.1477 178.63C82.7207 177.449 82.4062 176.203 81.8104 175.112C80.8132 173.289 79.568 171.601 78.5503 169.788C77.9238 168.674 77.0979 168.224 75.8527 168.224C69.9358 168.219 64.0164 168.178 58.0996 168.137C57.445 168.132 57.1458 168.372 57.0282 169.052C56.1026 174.493 55.1309 179.926 54.2002 185.367C54.0059 186.508 53.924 187.668 53.809 188.648C54.3306 188.903 54.6809 189.075 55.0312 189.246C54.7295 189.525 54.4636 189.87 54.1133 190.064C53.428 190.445 53.1237 192.242 53.6172 192.976C53.9598 193.488 54.2002 194.071 54.484 194.62C51.7046 194.62 48.9277 194.62 46.1483 194.62C46.2864 194.224 46.4423 193.833 46.5574 193.431C46.6648 193.056 46.7338 192.669 46.8182 192.288C46.4168 192.271 45.9897 192.161 45.6139 192.253C43.622 192.733 41.6352 193.247 39.6587 193.787C38.7893 194.022 37.9429 194.342 37.0863 194.623C31.7116 194.623 26.3343 194.623 20.9595 194.623C20.5453 193.84 20.489 193.061 20.7677 192.191C20.9569 191.603 20.9723 190.938 20.9595 190.312C20.9288 188.804 20.9211 187.287 20.7473 185.792C20.4353 183.132 20.6322 180.44 19.952 177.799C19.4688 175.927 18.5943 174.386 17.1112 173.227C13.8997 170.722 10.6344 168.29 7.39729 165.818C7.0521 165.554 6.76061 165.219 6.44354 164.918C6.50747 164.828 6.57395 164.739 6.63787 164.647C6.96261 164.751 7.30524 164.818 7.60952 164.966C10.6932 166.48 13.7642 168.019 16.853 169.52C17.28 169.727 17.7914 169.76 18.2644 169.875C18.2312 169.41 18.29 168.917 18.1519 168.484C16.3493 162.834 14.5236 157.191 12.6902 151.551C12.6186 151.328 12.4601 151.124 12.3067 150.942C10.8697 149.234 9.42753 147.531 7.9854 145.828C7.59674 145.368 7.18507 144.921 6.83732 144.43C6.72481 144.271 6.77851 143.993 6.75805 143.77C6.97539 143.801 7.24643 143.762 7.39985 143.878C8.1695 144.461 8.89824 145.097 9.66278 145.688C9.97217 145.928 10.3301 146.102 10.7904 146.383C11.0001 144.987 9.88523 143.939 10.4299 142.699C10.7853 143.098 11.0563 143.52 11.2532 143.972C11.7084 145.026 12.0612 146.128 12.588 147.143C12.9664 147.874 13.5059 148.546 14.0787 149.142C14.4009 149.477 14.9378 149.607 15.3776 149.827C15.485 149.321 15.7151 148.807 15.6793 148.314C15.5131 146.028 15.2651 143.747 15.0657 141.461C14.9353 139.963 14.8637 139.789 13.3653 140.068C8.38173 140.996 3.41608 142.014 -1.55468 143.003C-2.88687 143.269 -4.20882 143.578 -5.54357 143.829C-5.76091 143.87 -6.01661 143.701 -6.2544 143.63C-6.08309 143.42 -5.95268 143.121 -5.73278 143.016C-5.21627 142.773 -4.65629 142.622 -4.11422 142.438C1.05599 140.674 6.23387 138.93 11.3938 137.14C13.0661 136.56 13.13 136.261 11.9129 134.934C10.0565 132.911 8.18996 130.897 6.25688 128.948C3.44932 126.12 0.577837 123.356 -2.25785 120.559C-2.51611 120.306 -2.71811 119.997 -2.94823 119.713C-2.88942 119.639 -2.83061 119.565 -2.76925 119.491C-2.44707 119.662 -2.09165 119.79 -1.81038 120.012C0.585507 121.896 2.95582 123.814 5.36194 125.691C7.81152 127.601 10.2867 129.483 12.7669 131.354C12.9741 131.51 13.3116 131.497 13.5877 131.564C13.6593 131.26 13.8434 130.932 13.7846 130.656C12.9485 126.737 12.0663 122.825 11.2302 118.905C11.064 118.13 10.6421 117.678 9.93126 117.432C8.87523 117.069 7.83198 116.658 6.75805 116.358C2.33959 115.126 -2.08909 113.935 -6.51266 112.715C-6.89876 112.608 -7.2593 112.403 -7.63006 112.244L-7.53545 111.935C-7.16469 111.935 -6.78626 111.889 -6.42317 111.943C-4.24206 112.262 -2.07375 112.671 0.112467 112.919C2.80752 113.226 5.51536 113.446 8.2232 113.63C9.58351 113.722 9.97473 113.093 9.46333 111.82C9.06956 110.841 8.66811 109.864 8.23598 108.903C7.28479 106.783 6.30802 104.676 5.34916 102.559C5.23409 102.306 5.17272 102.033 5.08834 101.767C5.23921 101.644 5.39007 101.521 5.54093 101.398C5.69946 101.713 5.82987 102.048 6.01908 102.342C6.98818 103.835 7.96239 105.326 8.96216 106.798C9.14627 107.067 9.46333 107.246 9.71903 107.466C9.81108 107.146 10.0029 106.821 9.97984 106.51C9.8571 104.855 9.73693 103.193 9.50424 101.552C9.32781 100.312 9.13348 99.0589 8.16694 98.072C7.88568 97.7856 7.68623 97.0876 7.83709 96.7603C8.46355 95.4078 8.23343 94.091 8.16694 92.6771C8.06722 90.5038 7.57372 88.4507 7.12626 86.3617C6.76061 84.6589 6.50491 82.9305 6.14693 81.2251C6.08556 80.9285 5.80174 80.6038 5.53326 80.4427C4.72781 79.9646 4.21641 79.3458 4.07578 78.387C4.01953 77.9984 3.75616 77.6174 3.51836 77.2824C3.02742 76.5972 2.54671 75.8864 1.9586 75.2907C0.0766697 73.3807 -1.84873 71.5091 -3.76902 69.6375C-4.11422 69.3 -4.43895 69.3972 -4.59748 69.8574C-4.68698 70.1105 -4.74067 70.3841 -4.7688 70.65C-5.34924 75.9324 -5.97058 81.2097 -6.47175 86.4973C-6.62005 88.0697 -6.64307 89.7189 -6.32344 91.253C-6.01661 92.7385 -6.32344 94.1064 -6.94223 95.2339C-7.48687 96.2234 -7.9011 97.1899 -8.23095 98.2561C-8.61194 99.4859 -9.16936 100.662 -9.65007 101.861C-9.65007 90.266 -9.65007 78.6683 -9.65007 67.073C-8.2335 63.8898 -6.81694 60.7065 -5.45919 57.6537C-6.02939 56.9122 -6.57658 56.1989 -7.12633 55.4855C-6.99849 55.4497 -6.86808 55.4139 -6.74023 55.3807C-6.72233 54.9818 -6.56891 54.5241 -6.70955 54.1917C-7.26185 52.8878 -7.88576 51.6145 -8.52244 50.3488C-8.85741 49.6815 -9.27164 49.0551 -9.65007 48.4108L-9.66797 48.375ZM17.4769 38.0838C17.5536 38.1605 17.6303 38.2397 17.707 38.3164C17.5587 38.5798 17.4206 38.8508 17.2596 39.1065C16.9271 39.6409 16.4618 40.1267 16.2649 40.7071C14.7716 45.1074 13.3218 49.5204 11.8848 53.9412C11.7288 54.4193 11.7621 54.9537 11.6726 55.4574C11.4885 56.4852 11.2992 57.5156 11.0742 58.5358C10.9515 59.0906 10.6472 59.6199 10.591 60.1773C10.1281 64.6492 9.62442 69.1185 9.3048 73.6006C9.13604 75.9785 9.55794 78.3052 11.2634 80.187C12.8232 81.9078 14.3702 83.6438 15.9504 85.3441C16.7379 86.193 17.0294 86.1393 17.7275 85.2444C18.9881 83.6259 20.2691 82.0228 21.5246 80.3992C21.6985 80.1742 21.7803 79.8776 21.9056 79.6143C22.0334 79.7268 22.1638 79.8367 22.2917 79.9492C22.1613 80.2714 22.0692 80.614 21.8979 80.9131C20.8291 82.772 19.7603 84.6282 18.6557 86.464C18.2261 87.1774 18.1494 87.7731 18.8065 88.3995C19.3946 88.962 19.9316 89.5808 20.4634 90.197C20.6782 90.445 20.8214 90.7544 20.9979 91.0356C20.9365 91.1149 20.8751 91.1916 20.8137 91.2708C20.5146 91.1404 20.1822 91.0561 19.9265 90.8694C19.3665 90.4603 18.8551 89.9848 18.3028 89.5654C17.5613 89.0029 17.1317 89.0669 16.6996 89.8799C15.9248 91.3475 15.2037 92.8433 14.4597 94.3288C14.0684 95.1086 14.3037 95.6405 15.081 96.0112C18.0497 97.4251 20.9876 98.9106 23.9844 100.266C27.5054 101.856 31.0775 103.331 34.6214 104.871C34.9947 105.034 35.322 105.308 35.6698 105.53C35.6238 105.643 35.5752 105.753 35.5291 105.865C35.1405 105.806 34.7365 105.799 34.3657 105.681C30.9138 104.582 27.4772 103.434 24.0176 102.362C21.1052 101.462 18.1724 100.626 15.237 99.8055C14.1733 99.5089 13.9329 99.6777 13.7309 100.736C13.6261 101.291 13.5852 101.877 13.6338 102.439C13.8281 104.694 14.0122 106.954 14.3139 109.197C14.5338 110.825 14.7128 112.459 15.5694 113.973C16.2061 115.095 16.472 116.412 15.8711 117.724C15.7765 117.933 15.7484 118.199 15.7714 118.432C15.8839 119.6 15.9504 120.779 16.1626 121.932C16.7507 125.108 17.3797 128.278 18.0522 131.436C18.2005 132.126 18.5611 132.786 18.9037 133.415C19.5634 134.622 19.7833 135.905 19.7066 137.255C19.681 137.708 19.5659 138.16 19.5941 138.608C19.8574 142.88 20.1515 147.153 20.4174 151.425C20.4737 152.346 20.7959 153.11 21.4504 153.765C21.9516 154.266 22.1971 154.897 21.9132 155.588C21.2357 157.237 21.3993 158.909 21.7522 160.576C22.6292 164.7 23.2557 168.886 25.0865 172.759C25.4163 173.457 25.5058 174.332 25.4853 175.119C25.4521 176.551 25.1376 177.978 25.1504 179.405C25.1683 181.634 25.3575 183.864 25.4879 186.093C25.5007 186.331 25.6209 186.561 25.741 186.955C26.0044 186.653 26.1681 186.525 26.2601 186.354C26.9173 185.132 27.6025 183.925 28.1983 182.675C29.5765 179.788 30.9087 176.879 32.269 173.984C32.5758 173.33 32.8955 172.673 33.2765 172.061C33.4094 171.849 33.7444 171.762 33.9899 171.619C34.0512 171.885 34.2123 172.174 34.1586 172.414C34.018 173.061 33.8083 173.695 33.5833 174.319C32.1616 178.298 30.7093 182.266 29.3106 186.252C28.6918 188.016 28.1472 189.808 27.6128 191.603C27.3494 192.488 27.6153 192.779 28.5358 192.749C28.7455 192.741 28.9577 192.713 29.1648 192.682C35.0178 191.813 40.8681 190.931 46.7236 190.09C47.5342 189.972 47.7899 189.599 47.772 188.837C47.7259 186.934 47.7924 185.03 47.685 183.132C47.5572 180.88 47.4165 178.612 47.0407 176.393C46.8029 175.002 46.8463 173.808 47.5725 172.586C47.9305 171.985 48.112 171.251 48.2501 170.553C48.516 169.198 48.695 167.827 48.9226 166.393C49.1425 166.444 49.3445 166.493 49.5849 166.551C49.7101 166.191 49.8354 165.884 49.9224 165.567C50.7611 162.542 51.6892 159.538 52.3975 156.48C53.0675 153.586 53.9266 150.699 53.5712 147.646C53.5175 147.191 53.8499 146.693 54.011 146.214C54.2769 145.424 54.7832 144.637 54.7832 143.847C54.7832 137.299 54.6886 130.751 54.6272 124.205C54.6195 123.507 54.3357 123.006 53.7272 122.648C53.024 122.237 52.331 121.802 51.6739 121.326C51.3977 121.127 51.2188 120.795 50.9963 120.523C51.0526 120.467 51.1063 120.408 51.1625 120.352C51.8299 120.605 52.4947 120.869 53.1646 121.114C54.3306 121.541 54.4815 121.441 54.4329 120.209C54.3562 118.189 54.2488 116.169 54.1618 114.149C54.1465 113.784 54.1618 113.418 54.1618 113.055C54.2539 113.05 54.3459 113.045 54.438 113.037C54.5224 113.464 54.6323 113.889 54.6886 114.321C54.9903 116.594 55.3048 118.867 55.5554 121.145C55.6551 122.058 56.1179 122.531 56.9489 122.804C57.8337 123.096 57.9871 123.022 58.0868 122.063C58.1968 121.012 58.3041 119.961 58.4294 118.913C58.4499 118.739 58.5573 118.575 58.6238 118.409C58.8283 118.759 58.8692 119.079 58.8743 119.398C58.8846 120.485 58.8667 121.572 58.8846 122.658C58.8999 123.551 59.575 124.116 60.4392 123.934C60.5875 123.904 60.8202 123.512 60.7844 123.466C60.3293 122.889 60.6872 122.39 60.9762 121.973C62.5232 119.739 62.9655 117.358 62.0348 114.773C61.8967 114.387 61.7203 113.975 61.4492 113.679C60.1554 112.262 58.455 111.434 56.7035 110.833C53.7655 109.823 50.7611 109.015 47.7873 108.11C47.4984 108.023 47.2324 107.865 46.9563 107.739C46.9742 107.637 46.9921 107.535 47.01 107.433C47.4319 107.433 47.8589 107.389 48.2757 107.44C50.8506 107.752 53.4229 108.11 56.0003 108.399C57.1049 108.524 57.4527 108.077 57.1586 106.998C56.8978 106.037 56.5654 105.096 56.2867 104.139C55.8725 102.715 55.4582 101.314 54.3996 100.176C54.0621 99.8132 53.924 99.2072 53.8243 98.6882C53.1672 95.2518 51.7225 92.1555 49.8175 89.2535C49.3854 88.5964 48.8715 88.5581 48.3268 89.1282C47.9126 89.5654 47.5418 90.0461 47.1557 90.5089C45.5755 92.4112 44.003 94.3237 42.4074 96.2132C42.1901 96.4689 41.8474 96.6197 41.5636 96.8217C41.4869 96.7476 41.4102 96.6734 41.336 96.5993C41.6096 96.0751 41.8449 95.528 42.1619 95.0345C43.7319 92.6004 45.3198 90.1765 46.9103 87.7552C47.4932 86.8654 48.0456 85.9884 47.9919 84.843C47.9791 84.5643 48.2655 84.0811 48.5033 84.0146C49.6283 83.7001 49.8815 82.8384 49.994 81.8745C50.1653 80.3915 49.7408 79.0543 48.8536 77.8807C47.4881 76.0756 46.0792 74.3037 44.6985 72.5089C44.4735 72.2174 44.3073 71.8824 44.1129 71.5654C44.4965 71.4682 44.7317 71.5577 44.9746 71.614C45.4809 71.7316 45.8542 71.5552 45.8414 71.0054C45.8108 69.6554 45.8619 68.285 45.6369 66.9657C44.8672 62.4452 44.0132 57.9349 43.1464 53.4324C42.6657 50.9369 42.5608 50.9241 40.1598 51.9162C37.3983 53.0591 34.6291 54.1815 31.8599 55.3091C31.6298 55.4011 31.3817 55.4472 31.1414 55.5136C31.2283 55.2758 31.3613 55.1633 31.5121 55.0815C34.6086 53.4452 37.7128 51.8216 40.8016 50.1724C41.5943 49.748 42.3205 49.2034 43.1106 48.7764C44.0106 48.2932 44.9746 47.925 45.8644 47.4264C46.8438 46.8792 46.9358 46.3781 46.3477 45.4295C46.1738 45.1483 45.867 44.9233 45.7724 44.6241C45.5985 44.0821 45.4707 43.5042 45.4502 42.9392C45.4144 42.0571 45.5857 41.1596 45.4835 40.2903C45.3607 39.2471 45.0079 38.232 44.8314 37.194C44.7343 36.6315 44.8186 36.0587 45.642 36.1201C46.2838 36.1687 46.3068 35.7085 46.2991 35.2789C46.2736 34.1335 46.1764 32.988 46.1841 31.8425C46.1892 30.9221 45.936 30.1525 45.3633 29.4212C45.0309 28.9968 44.6678 28.378 44.7317 27.8999C45.0079 25.8314 44.3252 24.0391 43.4225 22.2647C43.039 21.513 42.6759 20.7408 42.4023 19.9456C42.0571 18.951 41.4971 18.2147 40.5306 17.7442C39.5538 17.2661 39.2368 16.5067 39.7073 15.5735C40.8732 13.2595 40.9116 10.9047 40.326 8.43223C40.0985 7.47087 39.6612 6.87768 38.7944 6.48649C36.3448 5.3845 33.8262 4.40012 31.4891 3.09102C29.4742 1.96091 27.9937 2.33932 26.4186 3.81972C23.1432 6.89814 19.814 9.92287 16.449 12.9067C15.0273 14.1672 13.9738 15.5914 13.4497 17.4297C13.1582 18.4473 13.2221 18.8513 14.0071 19.2451C15.5004 19.9968 16.2189 19.9635 16.7916 19.0252C17.4053 18.0203 17.9423 16.9695 18.5304 15.9519C18.7119 15.6374 18.9625 15.3612 19.1824 15.0698C19.2591 15.1081 19.3333 15.149 19.41 15.1874C19.3307 15.4891 19.2847 15.8061 19.1645 16.0925C18.7554 17.0666 18.3233 18.0306 17.8911 18.9945C17.3848 20.1272 17.5255 20.5132 18.6991 20.8738C20.6322 21.4695 22.5781 22.0218 24.5111 22.6124C24.9075 22.7326 25.2731 22.9499 25.6541 23.1212C25.626 23.2286 25.5979 23.3385 25.5723 23.4459C25.1478 23.4459 24.7183 23.4945 24.3015 23.4383C22.1178 23.1468 19.9342 22.8374 17.7556 22.5127C16.922 22.39 16.3416 22.6584 16.0169 23.451C15.8916 23.7579 15.7433 24.057 15.6001 24.3562C15.3137 24.9519 15.4313 25.4684 15.8916 25.9235C17.0959 27.1099 18.2849 28.3116 19.5097 29.4724C21.6985 31.5485 23.9154 33.5991 26.1118 35.6701C26.3522 35.8977 26.5388 36.184 26.751 36.4423C26.6846 36.5164 26.6181 36.5931 26.5516 36.6673C26.0479 36.3272 25.5237 36.0102 25.0404 35.6394C21.9439 33.2769 18.8602 30.9016 15.7663 28.5366C14.475 27.5496 14.1886 27.6289 13.5826 29.1707C12.524 31.8681 11.4654 34.5681 10.4452 37.2784C10.1921 37.9482 10.0156 38.6641 9.91336 39.3724C9.73948 40.592 9.63465 41.8218 9.53493 43.0491C9.51191 43.3201 9.63209 43.6014 9.68579 43.8775C9.9645 43.8085 10.3046 43.8187 10.5091 43.6551C12.5112 42.0571 14.4878 40.4258 16.4771 38.8124C16.7993 38.5517 17.1496 38.3266 17.4871 38.0838H17.4769ZM141.626 105.921C141.641 106.003 141.656 106.088 141.674 106.169C141.281 106.287 140.894 106.448 140.49 106.512C139.447 106.676 138.944 107.269 138.754 108.299C138.578 109.276 138.235 110.222 137.98 111.183C137.824 111.766 137.514 112.385 137.604 112.932C137.696 113.482 138.148 114.014 138.563 114.433C138.639 114.51 139.396 114.098 139.662 113.771C141.398 111.641 143.076 109.468 144.791 107.32C145.451 106.494 145.766 105.622 145.518 104.548C144.919 101.961 144.377 99.3606 143.774 96.7757C143.48 95.5152 143.313 94.1549 142.707 93.0504C141.838 91.4677 141.71 89.7879 141.439 88.0978C140.785 83.989 140.143 79.8776 139.394 75.7867C138.938 73.2964 138.281 70.8418 137.737 68.3642C137.65 67.9654 137.683 67.5409 137.66 67.1293C137.785 67.0961 137.913 67.0654 138.038 67.0321C138.33 67.633 138.685 68.2134 138.905 68.8398C139.795 71.3736 140.634 73.9279 141.508 76.4668C141.843 77.4359 142.209 78.3972 142.592 79.3484C142.672 79.5452 142.894 79.6859 143.05 79.8521C143.203 79.6526 143.411 79.4762 143.492 79.2512C143.597 78.9751 143.577 78.6555 143.646 78.3614C143.925 77.193 144.088 75.9734 144.538 74.8739C145.042 73.639 145.157 72.4552 144.929 71.1665C144.807 70.4711 144.871 69.7398 144.863 69.0239C144.853 67.7685 144.965 66.5003 144.819 65.2628C144.643 63.7696 144.167 62.3122 143.968 60.8216C143.569 57.8403 142.216 55.4804 139.754 53.7315C138.747 53.0156 137.811 52.2 136.862 51.4048C136.571 51.1619 136.346 50.8398 136.09 50.5534L136.31 50.2824C136.663 50.4537 137.039 50.5917 137.366 50.804C138.455 51.5096 139.521 52.2486 140.606 52.9645C141.002 53.2253 141.342 53.3148 141.631 52.7574C142.344 51.3844 142.948 49.9883 143.129 48.4287C143.515 45.1048 143.976 41.7911 144.316 38.4622C144.433 37.3167 144.106 37.0303 142.984 37.0176C140.992 36.9945 138.997 37.0048 137.008 37.0789C133.96 37.1914 130.917 37.3755 127.872 37.5161C127.504 37.534 127.133 37.4599 126.762 37.4292C126.749 37.3295 126.734 37.2272 126.721 37.1275C127.335 36.9792 127.946 36.8079 128.565 36.6852C132.917 35.8235 137.276 34.99 141.626 34.1053C143.155 33.7934 143.142 33.7397 143.127 32.2184C143.127 31.9781 143.157 31.7377 143.193 31.4974C143.395 30.0681 143.318 28.6797 142.787 27.3118C142.449 26.4451 142.158 25.5476 141.984 24.6348C141.848 23.9343 141.559 23.4562 141.015 22.9883C140.575 22.6098 140.079 21.9783 140.079 21.4593C140.071 18.4652 138.821 15.8828 137.507 13.3337C135.571 9.57769 133.533 5.87541 131.556 2.13988C131.337 1.72568 131.229 1.25011 131.071 0.802666C131.178 0.743858 131.288 0.685051 131.395 0.626245C131.73 1.02255 132.101 1.39329 132.395 1.81517C134.262 4.48705 136.105 7.17428 137.972 9.84616C138.169 10.13 138.463 10.3447 138.713 10.5928C138.793 10.5416 138.874 10.4905 138.954 10.4393C138.537 8.57542 138.12 6.71149 137.706 4.84756L138.087 4.72484C138.243 4.98563 138.445 5.22853 138.547 5.50723C139.156 7.17939 139.734 8.86434 140.345 10.5365C140.462 10.8587 140.68 11.1476 140.851 11.4493L141.127 11.3828C141.204 11.0428 141.319 10.7078 141.35 10.3652C141.46 9.19417 141.59 8.02059 141.618 6.84445C141.662 5.04955 141.907 3.24699 141.137 1.49557C140.892 0.938177 141.05 0.191584 141.068 -0.468077C141.094 -1.42944 141.342 -2.42661 141.168 -3.34451C140.718 -5.71468 140.104 -8.05418 139.519 -10.3962C139.322 -11.1812 139.041 -11.9457 138.757 -12.7025C138.563 -13.2215 138.338 -13.7406 138.051 -14.211C137.655 -14.863 137.223 -14.7352 136.775 -14.1957C133.633 -10.4116 130.447 -6.66071 127.345 -2.84337C126.381 -1.657 125.509 -0.355576 124.832 1.01233C124.33 2.02739 123.742 2.86858 122.837 3.51034C122.346 3.85807 121.812 4.16233 121.38 4.57143C119.608 6.25382 117.851 7.95155 116.125 9.67997C115.251 10.5544 114.473 11.4851 114.166 12.7661C114.021 13.372 113.512 13.8987 113.133 14.4357C112.116 15.8752 110.96 17.2303 110.078 18.7465C109.065 20.4902 108.283 22.3669 107.416 24.1951C107.191 24.6706 107.027 25.1769 106.833 25.6704C106.907 25.7598 106.981 25.8468 107.055 25.9363C114.949 21.7456 122.84 17.5575 130.733 13.3669C130.697 13.684 130.562 13.8374 130.398 13.9473C126.867 16.3226 123.3 18.6468 119.807 21.0783C115.276 24.2334 110.796 27.4627 106.311 30.6843C105.074 31.5715 104.793 32.4383 105.401 33.8036C106.483 36.2275 107.667 38.6053 108.815 40.9985C108.863 41.0982 108.968 41.1698 109.134 41.3488C109.482 40.8298 109.817 40.3798 110.101 39.8965C112.149 36.409 114.179 32.9113 116.232 29.4263C116.501 28.9712 116.864 28.5672 117.181 28.1403C117.25 28.1888 117.319 28.24 117.391 28.2886C117.161 28.8408 116.956 29.4059 116.698 29.9454C114.675 34.1641 112.66 38.388 110.599 42.5889C110.252 43.2971 110.27 43.8545 110.64 44.5321C112.348 47.6565 114.018 50.8014 115.695 53.9437C115.823 54.1815 115.913 54.4423 116.018 54.6903C115.931 54.7389 115.844 54.7875 115.757 54.8386C113.652 51.8241 111.548 48.8096 109.357 45.6699C109.081 46.1096 108.871 46.3653 108.746 46.6568C107.777 48.9324 106.795 51.2054 105.874 53.504C105.319 54.8872 105.593 55.8435 106.761 56.7946C107.674 57.5386 108.684 58.1625 109.569 58.9347C110.487 59.7324 111.392 59.9702 112.527 59.4307C113.077 59.1699 113.719 59.106 114.32 58.9526C114.343 59.0369 114.368 59.1239 114.391 59.2082C113.614 59.5713 112.837 59.9369 111.896 60.3767C112.517 60.9443 113.016 61.3994 113.517 61.8546C112.681 61.7369 111.978 61.3969 111.239 61.177C110.842 61.0594 110.339 61.0364 109.958 61.177C108.682 61.6372 107.444 62.21 106.176 62.6906C105.608 62.9054 105.332 63.2583 105.391 63.8463C105.67 66.6384 105.915 69.4355 106.268 72.2174C106.421 73.4344 107.206 73.731 108.306 73.1046C110.482 71.8645 112.673 70.6449 114.806 69.3307C118.71 66.9247 122.576 64.4523 126.465 62.0182C126.79 61.8162 127.166 61.696 127.516 61.5401C127.642 61.6986 127.77 61.8597 127.895 62.0182C127.616 62.1409 127.299 62.2151 127.066 62.3966C122.558 65.8918 118.045 69.3819 113.566 72.9128C112.026 74.1273 110.571 75.4441 109.091 76.7302C108.654 77.1086 108.37 77.5432 108.822 78.1364C110.045 79.737 111.095 81.5012 112.492 82.9305C115.197 85.697 117.511 88.8853 120.922 90.9231C121.85 91.478 121.937 92.3243 121.638 93.2933C121.316 94.339 121.137 95.4334 120.978 96.52C120.871 97.2615 120.904 98.0209 120.878 98.7751C120.799 101.217 120.659 103.661 120.669 106.103C120.674 107.627 121.354 108.187 122.858 108.026C127.473 107.532 132.081 106.98 136.691 106.461C137.44 106.377 137.87 105.988 138.128 105.285C139.161 102.48 140.219 99.6854 141.283 96.8933C141.419 96.5379 141.628 96.2106 141.802 95.868C141.92 95.9115 142.04 95.9524 142.158 95.9959C142.05 96.5584 141.984 97.1311 141.83 97.6782C141.173 100.002 140.485 102.316 139.821 104.64C139.493 105.781 139.7 106.021 140.851 105.932C141.109 105.911 141.373 105.929 141.633 105.929L141.626 105.921ZM173.931 133.919C177.817 133.919 181.709 133.983 185.596 133.898C188.853 133.827 192.108 133.622 195.358 133.397C197.053 133.28 197.112 133.134 196.805 131.503C196.583 130.316 196.371 129.122 196.038 127.964C194.565 122.83 193.041 117.711 191.564 112.577C191.461 112.224 191.584 111.807 191.602 111.419C191.865 111.695 192.126 111.971 192.387 112.25C192.407 112.27 192.41 112.306 192.423 112.331C194.657 117.478 196.892 122.625 199.137 127.77C199.245 128.018 199.449 128.222 199.684 128.554C199.866 128.222 199.994 128.053 200.05 127.867C200.398 126.744 200.766 125.624 201.063 124.487C201.559 122.577 202.374 120.697 201.733 118.644C201.653 118.389 201.82 118.056 201.868 117.76C202.08 116.463 202.495 115.159 202.461 113.871C202.385 110.887 202.093 107.911 201.889 104.929C201.807 103.73 201.822 102.513 200.973 101.506C200.822 101.327 200.817 100.989 200.82 100.726C200.825 99.8899 200.81 99.0487 200.907 98.2203C200.981 97.576 201.185 96.9444 201.38 96.3206C201.595 95.6353 201.993 94.9859 202.091 94.2879C202.39 92.1683 202.589 90.0333 202.812 87.9009C202.932 86.7453 202.72 86.574 201.628 86.8782C201.423 86.9345 201.224 87.0035 201.024 87.0725C196.818 88.4788 192.612 89.8953 188.401 91.2913C183.668 92.8586 178.988 94.5564 174.519 96.7808C174.094 96.993 173.598 97.2308 173.35 97.6015C172.399 99.0052 171.036 100.02 169.975 101.288C167.17 104.646 164.544 108.148 161.831 111.58C161.394 112.135 161.537 112.495 162.066 112.833C162.675 113.224 163.291 113.607 163.869 114.042C164.027 114.16 164.171 114.479 164.117 114.64C164.071 114.781 163.736 114.919 163.539 114.904C162.879 114.855 162.22 114.753 161.565 114.643C159.509 114.298 159.21 114.566 159.315 116.696C159.32 116.785 159.325 116.877 159.335 116.967C159.793 121.743 160.235 126.522 160.726 131.295C160.79 131.906 161.074 132.507 161.332 133.08C161.55 133.558 161.946 133.701 162.457 133.425C163.572 132.822 164.731 132.295 165.812 131.638C173.501 126.977 181.177 122.293 188.856 117.614C189.602 117.159 190.329 116.668 191.088 116.233C191.257 116.136 191.523 116.208 191.743 116.202C191.681 116.412 191.673 116.663 191.546 116.819C191.359 117.046 191.09 117.21 190.848 117.391C189.469 118.419 188.083 119.437 186.708 120.467C181.712 124.216 176.715 127.969 171.724 131.722C171.315 132.032 170.926 132.369 170.53 132.697C170.571 132.763 170.612 132.827 170.65 132.893C174.47 131.745 178.29 130.597 182.113 129.449C182.172 129.603 182.231 129.756 182.287 129.91C179.484 131.255 176.684 132.597 173.928 133.919H173.931ZM204.775 79.5555C204.89 79.5555 205.006 79.5504 205.121 79.5504C205.121 78.9648 205.231 78.3512 205.1 77.7964C204.594 75.6231 204.123 73.4293 203.428 71.3148C202.395 68.1776 202.083 64.8 200.301 61.9108C200.15 61.6679 200.15 61.333 200.081 61.0389C199.886 60.2182 199.771 59.3719 199.488 58.5844C198.669 56.3165 197.823 54.0562 196.915 51.8241C195.882 49.2826 194.762 46.777 193.696 44.2483C193.44 43.6423 193.1 43.4377 192.525 43.8698C189.339 46.2554 186.14 48.6255 182.97 51.0366C182.187 51.6324 182.092 52.2767 182.642 53.1051C184.458 55.8435 186.294 58.5742 188.165 61.2742C189.781 63.606 191.466 65.8867 193.093 68.2108C193.249 68.4358 193.2 68.804 193.246 69.1083C192.965 69.006 192.612 68.9804 192.415 68.7887C191.443 67.8426 190.528 66.8404 189.569 65.8816C186.519 62.8313 183.466 59.7835 180.397 56.7511C179.638 56.002 179.29 55.9662 178.605 56.8125C177.316 58.4003 176.045 60.0188 174.941 61.7369C173.685 63.6878 172.652 65.7793 171.466 67.7762C170.642 69.162 170.105 70.5887 170.264 72.2353C170.307 72.675 170.264 73.166 170.111 73.5751C169.446 75.3214 169.755 77.0217 170.236 78.7271C171.356 82.6952 172.284 86.7248 173.977 90.5064C174.102 90.785 174.526 91.0816 174.826 91.0995C175.48 91.1353 176.155 91.0484 176.802 90.918C182.21 89.8109 187.621 88.7115 193.016 87.5507C195.905 86.9294 198.764 86.1725 201.646 85.5308C202.612 85.316 203.096 84.8788 203.142 83.8407C203.231 81.8234 203.402 79.806 203.594 77.7938C203.63 77.4077 203.911 77.0421 204.08 76.6688C204.249 77.0523 204.486 77.4205 204.573 77.8194C204.696 78.387 204.712 78.9802 204.773 79.5606L204.775 79.5555ZM67.522 44.6676C65.658 41.4434 63.9142 38.4264 62.1703 35.4093C62.2623 35.3531 62.3544 35.2943 62.4439 35.238C62.651 35.5116 62.8683 35.7801 63.0627 36.0639C64.8577 38.6744 66.645 41.2926 68.4528 43.8954C68.665 44.1997 68.9616 44.5679 69.2864 44.6522C71.6976 45.2761 72.503 44.9002 73.3059 42.5812C74.5179 39.0732 75.6225 35.5295 76.7732 31.9985C77.4073 30.0579 78.0389 28.1147 78.673 26.1741C78.7574 26.1971 78.8443 26.2226 78.9287 26.2456C77.4712 32.4204 76.0138 38.5951 74.5256 44.8875C75.1802 44.9488 75.6814 45.023 76.1851 45.0358C77.8139 45.0818 79.4452 45.1304 81.074 45.1329C83.2475 45.1355 85.4234 45.1431 87.5943 45.0383C88.0341 45.0179 88.5966 44.5934 88.8191 44.1946C88.9521 43.9568 88.5762 43.3892 88.3614 43.0082C88.029 42.4176 87.4358 41.9011 87.3156 41.2823C87.0548 39.9144 87.0292 38.5031 86.8886 37.1122C86.8528 36.7542 86.7735 36.3962 86.6764 36.0485C86.0601 33.8087 85.2444 31.6022 84.8583 29.3241C84.3648 26.417 82.3832 24.4354 80.9078 22.1317C80.6317 21.7022 80.0973 21.4158 79.6421 21.1269C78.3432 20.301 77.0059 19.534 75.7146 18.6953C74.7583 18.074 73.7611 17.6598 72.6053 17.5882C71.5263 17.5218 70.6543 17.0487 70.0637 16.0823C69.8003 15.6527 69.4577 15.2232 69.0486 14.9419C66.645 13.2723 64.2235 11.6257 61.7791 10.0124C60.6515 9.26832 60.406 9.39616 60.3472 10.7717C60.204 14.1493 60.0915 17.5269 60.0275 20.907C60.0122 21.6715 60.319 22.4411 60.342 23.2107C60.3625 23.9036 60.2219 24.6042 60.1094 25.2971C60.0633 25.586 59.823 25.857 59.8204 26.1383C59.7872 28.7028 59.7693 31.2698 59.7897 33.8343C59.7949 34.5195 60.1528 34.8391 60.8713 34.4786C61.1168 34.3533 61.4032 34.3073 61.6691 34.2229C61.7356 34.3048 61.8046 34.3866 61.8711 34.471C61.6129 34.7906 61.4134 35.2073 61.0836 35.4119C59.8792 36.161 59.5417 37.2451 59.8511 38.5312C60.0787 39.4772 60.4699 40.3823 60.787 41.3079C60.9148 41.6761 61.1091 42.034 61.1603 42.4125C61.416 44.2968 61.4032 44.3045 63.3209 44.4579C63.9218 44.5065 64.5278 44.5218 65.1287 44.55C65.8344 44.5832 66.5427 44.6164 67.5118 44.665L67.522 44.6676ZM80.1331 81.1177C80.1919 81.1918 80.2532 81.2634 80.312 81.3376C86.5562 78.0163 92.8003 74.6924 99.0444 71.3711C98.9959 71.6779 98.8527 71.8517 98.6762 71.977C94.4981 74.8969 90.2894 77.7759 86.142 80.7418C83.5926 82.5674 81.1303 84.5132 78.6475 86.4333C78.4352 86.597 78.1872 87.0572 78.269 87.2055C78.6833 87.9546 79.1998 88.645 79.7802 89.5015C81.1098 87.5916 82.3167 85.8555 83.5262 84.1168C83.5978 84.1552 83.6693 84.1936 83.7409 84.2319C83.5952 84.5745 83.4699 84.9299 83.2986 85.2623C82.5008 86.8194 81.7107 88.3816 80.8771 89.9183C80.5907 90.4475 80.6214 90.8515 80.9973 91.3118C81.7976 92.2936 82.5571 93.3086 83.3369 94.3058C84.2549 95.4819 84.2984 95.5433 85.5181 94.7405C89.9237 91.8359 94.3089 88.8981 98.6788 85.9373C99.6684 85.2674 100.54 84.4288 101.512 83.7308C102.463 83.0481 103.486 82.4677 104.447 81.8004C104.977 81.4322 104.867 81.0538 104.314 80.7802C102.358 79.8163 101.509 78.2438 101.704 76.0782C101.732 75.7535 101.724 75.4006 101.627 75.0938C100.724 72.2787 99.7936 69.4739 98.8808 66.6639C98.6737 66.0247 98.3183 65.9046 97.7174 66.1961C94.2961 67.8503 90.8596 69.4713 87.4511 71.1512C87.1187 71.3148 86.8349 71.775 86.7224 72.156C86.3516 73.4165 85.5155 74.3447 84.4748 74.9839C83.7461 75.4313 83.181 75.9069 82.7616 76.633C82.0354 77.8859 81.2658 79.1131 80.5217 80.3558C80.376 80.5986 80.2635 80.8595 80.1331 81.1126V81.1177ZM76.6607 98.9618C76.561 98.9567 76.4612 98.9541 76.3641 98.949C76.226 99.1689 76.0598 99.376 75.9549 99.6112C75.1776 101.378 74.3338 103.122 73.6639 104.929C72.9863 106.755 72.5465 108.67 71.8791 110.501C71.5595 111.375 70.9049 112.119 70.483 112.966C69.5421 114.852 68.665 116.77 67.7419 118.665C66.939 120.311 66.4072 121.971 67.2536 123.771C67.3149 123.901 67.2842 124.072 67.3328 124.216C67.99 126.166 68.6497 128.115 69.3145 130.06C69.3528 130.173 69.4244 130.275 69.4935 130.375C70.8026 132.257 72.099 134.151 73.4338 136.015C74.1804 137.056 74.8401 137.025 75.4998 135.916C77.9213 131.845 80.3146 127.757 82.7335 123.684C83.0864 123.093 83.0148 122.6 82.7463 121.989C82.4906 121.411 82.465 120.733 82.3244 120.102C82.2349 119.7 82.2068 119.25 82.0022 118.91C79.8901 115.361 77.7448 111.828 75.6123 108.289C75.3285 107.816 75.0549 107.338 74.7762 106.862C74.8682 106.793 74.9603 106.727 75.0523 106.658C76.9164 108.714 78.7804 110.767 80.6444 112.822C80.7621 112.766 80.8797 112.707 80.9999 112.651C79.5552 108.087 78.1079 103.526 76.6632 98.9618H76.6607ZM27.7304 -10.8769C27.738 -10.7567 27.7457 -10.6391 27.7534 -10.519C27.3673 -10.4141 26.9837 -10.2914 26.5925 -10.207C24.8819 -9.83629 23.1713 -9.47066 21.4581 -9.11526C20.5581 -8.92861 19.86 -8.53486 19.4049 -7.66298C19.1517 -7.17719 18.7042 -6.69906 18.2235 -6.44338C16.8428 -5.70957 16.0961 -4.41837 15.214 -3.24479C14.6335 -2.47263 14.1886 -1.59308 13.5571 -0.872055C12.253 0.618574 12.2044 2.58222 11.4782 4.28506C12.0919 5.82939 11.3836 7.19217 11.0487 8.66235C10.7674 9.90241 11.0998 11.2959 11.2379 12.6126C11.3171 13.3567 11.803 13.5101 12.3706 12.9936C12.813 12.5922 13.2707 12.1575 13.5698 11.6487C16.0936 7.32769 18.5815 2.98364 21.0848 -1.35018C21.3712 -1.84365 21.6755 -2.23996 22.2457 -1.60587C22.4374 -1.39365 22.7264 -1.23257 23 -1.14052C24.6594 -0.585691 26.3164 -0.0104046 28.004 0.447268C28.4489 0.567438 29.1367 0.470278 29.4793 0.189028C31.1388 -1.16098 32.7165 -2.6107 34.3274 -4.02207C34.8567 -4.48741 34.8976 -4.92207 34.4092 -5.48713C33.3046 -6.76554 32.2486 -8.08486 31.1823 -9.39651C31.0161 -9.60106 30.8985 -9.84396 30.7578 -10.0664C30.8243 -10.115 30.8908 -10.1636 30.9573 -10.2147C31.1797 -10.028 31.4175 -9.85674 31.6221 -9.6522C32.6628 -8.60134 33.683 -7.53003 34.7314 -6.4894C35.1328 -6.09309 35.5752 -5.5894 36.2144 -6.01128C36.8383 -6.42292 37.1298 -7.17719 36.7718 -7.75759C35.8999 -9.17151 35.0945 -10.7005 33.1946 -11.0866C30.5712 -11.6184 27.9631 -12.2295 25.3498 -12.8124C24.6671 -12.9658 23.9921 -13.1448 23.3119 -13.311C23.4883 -13.513 23.6315 -13.5411 23.7722 -13.5309C25.9379 -13.3545 28.1037 -13.1627 30.2695 -12.9965C30.809 -12.9556 31.3536 -12.9914 32.0823 -12.9914C31.8497 -13.4056 31.7909 -13.5795 31.6758 -13.7022C29.9012 -15.5943 28.1293 -17.4889 26.3343 -19.3605C25.8689 -19.8463 25.2527 -19.8514 24.7796 -19.4065C22.8696 -17.6116 21.1334 -15.6965 20.737 -12.9479C20.5683 -11.7744 20.8956 -11.3371 22.1153 -11.2604C23.6213 -11.1684 25.1299 -11.1275 26.636 -11.0457C27.0042 -11.0252 27.3673 -10.9357 27.7329 -10.8769H27.7304ZM140.882 122.398C140.7 122.789 140.529 123.062 140.442 123.359C138.565 129.756 136.706 136.158 134.822 142.556C134.052 145.169 134.791 147.544 136.187 149.659C137.898 152.246 139.864 154.667 141.743 157.142C142.068 157.569 142.493 157.922 142.884 158.298C143.229 158.628 143.544 158.615 143.705 158.124C144.559 155.524 145.684 152.988 145.622 150.162C145.558 147.296 145.492 144.43 145.464 141.564C145.461 141.262 145.707 140.958 145.837 140.656C146.062 140.935 146.407 141.185 146.484 141.502C146.683 142.32 146.753 143.169 146.898 144C146.942 144.248 147.077 144.481 147.223 144.852C148.55 142.154 143.871 125.714 140.882 122.4V122.398ZM150.78 80.8773C150.672 80.9029 150.562 80.9259 150.455 80.9515C150.296 80.6805 150.097 80.4248 149.985 80.1359C149.724 79.4609 149.532 78.7577 149.251 78.093C149.136 77.8219 148.862 77.6199 148.66 77.3847C148.478 77.6353 148.2 77.8628 148.128 78.1441C147.737 79.6628 147.353 81.1867 147.047 82.7259C146.732 84.3086 146.256 85.8938 146.972 87.52C147.126 87.8677 147.044 88.3663 146.955 88.7677C146.64 90.1919 146.776 91.5879 147.105 92.9839C147.397 94.2189 147.66 95.4589 147.959 96.6888C148.259 97.9212 148.338 99.2942 148.962 100.335C149.66 101.501 149.389 102.718 149.734 103.868C149.785 104.042 149.79 104.277 149.908 104.372C150.141 104.564 150.45 104.817 150.708 104.799C152.442 104.671 153.884 103.186 153.973 101.452C154.26 95.9064 154.587 90.3606 154.789 84.8123C154.996 79.1106 155.081 73.4037 155.188 67.6995C155.198 67.2188 155.127 66.5668 154.822 66.283C153.344 64.9074 151.777 63.6239 150.233 62.3199C149.857 62.0029 149.445 62.0847 149.501 62.596C149.716 64.621 150.025 66.6358 150.276 68.6557C150.358 69.3154 150.447 69.9878 150.406 70.6449C150.345 71.6549 150.02 72.6674 150.087 73.662C150.22 75.6461 150.55 77.6174 150.777 79.5964C150.826 80.0157 150.785 80.4478 150.785 80.8748L150.78 80.8773ZM156.101 67.3696C156.004 67.4157 155.906 67.4591 155.812 67.5051C155.812 68.0625 155.786 68.6199 155.817 69.1773C156.111 74.8407 156.392 80.504 156.717 86.1649C156.965 90.5012 157.254 94.8351 157.556 99.1689C157.64 100.378 157.937 100.504 158.949 99.8337C161.087 98.4197 163.222 97.0007 165.334 95.551C167.372 94.1524 168.108 92.0021 167.607 89.7981C166.63 85.4924 165.751 81.1279 163.836 77.0881C163.746 76.8989 163.657 76.6969 163.634 76.4924C163.419 74.6464 162.289 73.2861 161.12 72.0052C159.944 70.7165 158.612 69.5685 157.333 68.3745C156.947 68.014 156.512 67.7046 156.101 67.3722V67.3696ZM66.9851 77.7197C67.0592 76.9654 67.1564 76.4413 67.1538 75.9171C67.1411 73.3219 67.1359 70.7267 67.0567 68.1367C66.9902 65.9608 66.7498 63.808 65.7475 61.8137C65.6171 61.5529 65.6197 61.2256 65.5378 60.9367C65.2438 59.9011 65.121 58.7659 64.5994 57.8582C63.2954 55.5852 61.8174 53.4094 60.3932 51.2054C60.0531 50.6787 59.5801 50.5176 58.9894 50.8423C57.0615 51.9008 55.1105 52.9261 53.203 54.0204C52.0319 54.6929 51.4131 55.7795 51.2443 57.1168C51.1957 57.5054 51.1932 57.9068 51.0884 58.2801C50.8096 59.2901 51.1241 60.0673 51.8145 60.8267C53.1774 62.3199 54.4533 63.8872 55.7957 65.3983C59.2425 69.2745 62.7021 73.1378 66.1643 77.0012C66.351 77.2109 66.5887 77.3745 66.9825 77.7197H66.9851ZM91.0897 140.999C91.238 140.012 90.8519 139.659 89.8828 139.82C88.9009 139.984 87.9267 140.188 86.9576 140.41C84.4876 140.973 82.0278 141.587 79.5501 142.118C78.0108 142.448 77.0391 143.021 77.1874 144.9C77.3408 146.841 77.1158 148.807 77.1286 150.763C77.1312 151.165 77.3511 151.684 77.6477 151.949C81.0331 154.995 84.439 158.019 87.873 161.011C88.791 161.809 89.1617 161.635 89.397 160.433C89.7729 158.51 90.1871 156.593 90.4735 154.657C90.9158 151.676 91.3914 148.689 91.6036 145.688C91.711 144.143 91.2789 142.561 91.0923 140.996L91.0897 140.999ZM66.5683 139.091C66.6476 139.13 66.7268 139.168 66.8061 139.206C66.6936 139.528 66.599 139.858 66.4686 140.17C64.9344 143.842 63.4002 147.516 61.8456 151.18C61.6078 151.74 61.595 152.116 62.2214 152.415C65.4355 153.941 68.6343 155.498 71.8433 157.032C72.4621 157.329 72.8354 157.05 72.9377 156.409C72.9889 156.084 72.9837 155.746 72.9812 155.417C72.9735 153.847 72.8968 152.277 72.9659 150.709C73.0349 149.15 72.6513 147.634 72.6079 146.076C72.5491 143.924 71.6158 141.791 71.0481 139.654C71.0098 139.513 70.9024 139.39 70.8154 139.268C69.1457 136.864 67.4862 134.456 65.791 132.068C65.502 131.661 65.1031 131.306 64.694 131.014C64.1468 130.623 63.6891 130.851 63.4922 131.444C63.0755 132.699 62.6484 133.957 62.3416 135.243C61.8174 137.442 61.3444 139.659 60.9276 141.881C60.7691 142.727 60.6182 143.66 60.8151 144.471C61.2523 146.289 61.2523 147.951 59.9943 149.457C59.8844 149.589 59.7923 149.784 59.7872 149.953C59.777 150.308 59.8281 150.663 59.8562 151.019C60.1017 150.804 60.4367 150.635 60.5799 150.367C62.4158 146.902 64.221 143.425 66.0415 139.953C66.1975 139.656 66.3919 139.38 66.5708 139.096L66.5683 139.091ZM51.1523 61.5324C50.9989 61.6142 50.8454 61.696 50.6946 61.7753C50.6128 62.077 50.49 62.3762 50.4593 62.683C50.2471 64.7489 50.0323 66.7867 50.3929 68.8961C50.6511 70.4071 50.6716 71.9412 51.3824 73.3526C51.7762 74.1324 52.0114 74.9992 52.4538 75.7458C53.1569 76.9322 53.8857 78.1262 54.7781 79.1694C55.4378 79.939 55.6551 80.6677 55.5324 81.6367C55.4148 82.5572 55.3202 83.5185 55.4531 84.4262C55.7932 86.7223 56.2483 89.0055 56.7009 91.2836C56.9387 92.4828 57.2839 92.6336 58.1686 91.8206C60.7 89.4939 63.1854 87.1186 65.6631 84.733C66.5478 83.8816 66.5581 83.6643 65.8395 82.639C61.1168 75.889 56.3762 69.1492 51.6483 62.4043C51.4566 62.1333 51.3159 61.8264 51.1523 61.535V61.5324ZM70.8052 89.4402C70.5827 88.985 70.3449 88.3714 69.9998 87.8268C69.4014 86.8808 68.9616 86.7632 67.9593 87.2848C66.7294 87.924 65.4995 88.5734 64.3207 89.2995C62.27 90.5652 60.2551 91.8896 58.2325 93.2038C57.6674 93.572 57.1433 94.1166 57.6163 94.7711C58.7312 96.3155 59.3065 98.0004 59.3397 99.8899C59.3397 99.9768 59.3781 100.071 59.4241 100.146C60.6003 102.068 61.6998 104.047 62.9911 105.888C63.7991 107.041 64.4128 106.937 65.2719 105.842C65.4969 105.558 65.6964 105.254 65.9342 104.983C67.6857 102.961 68.8593 100.708 69.2301 97.9953C69.6136 95.193 70.2427 92.424 70.8026 89.4376L70.8052 89.4402ZM57.5754 163.373C57.7237 163.409 57.8746 163.442 58.0229 163.478C57.8771 164.358 57.7442 165.237 57.5856 166.114C57.399 167.142 57.4527 167.232 58.4882 167.157C60.6872 166.999 62.8837 166.815 65.0801 166.646C68.2687 166.401 71.4598 166.16 74.6483 165.912C75.5382 165.843 75.7478 165.447 75.1879 164.757C74.8171 164.301 74.3262 163.913 73.8199 163.611C72.994 163.118 72.2755 162.599 71.9789 161.604C71.8689 161.233 71.539 160.873 71.2169 160.632C68.6778 158.738 66.1234 156.866 63.5613 155.002C62.7661 154.424 61.9325 153.893 60.9174 153.207C59.0099 157.948 57.1458 162.581 55.2665 167.252C56.2637 167.515 56.6012 167.152 56.7674 166.444C57.0078 165.414 57.3018 164.396 57.5754 163.373ZM7.94704 25.7087C7.86266 25.5093 7.80641 25.0848 7.57117 24.9238C7.42542 24.8241 6.92937 25.0465 6.72481 25.2562C5.92703 26.0718 5.05255 26.8542 4.4491 27.8027C3.18595 29.7868 2.17595 31.9346 0.877004 33.8931C-0.820829 36.4525 -0.797816 39.5309 -1.88965 42.2616C-1.98681 42.5019 -1.97658 42.8011 -1.96124 43.0696C-1.80782 45.721 -1.65696 48.375 -1.47286 51.0238C-1.41405 51.8753 -1.06886 52.0542 -0.352902 51.5659C1.54182 50.2747 3.42631 48.9656 5.25966 47.5875C5.64321 47.3011 5.88612 46.7181 6.00886 46.2247C6.14438 45.6826 6.03442 45.0869 6.08556 44.5167C6.15716 43.7088 5.97561 42.9571 5.3287 42.484C4.32892 41.7502 4.57183 40.5664 4.16016 39.6281C4.11925 39.536 4.29057 39.2394 4.40307 39.2139C5.25455 39.0119 5.29546 38.3982 5.31336 37.6874C5.32359 37.2835 5.44376 36.7926 5.69946 36.5011C6.45377 35.6394 6.49724 34.5783 6.67111 33.5556C7.1058 30.9962 7.50724 28.4317 7.94704 25.7113V25.7087ZM-5.71744 66.848C-5.52055 67.1063 -5.35179 67.4694 -5.06797 67.6816C-3.93778 68.533 -2.78203 69.3537 -1.61605 70.1566C0.0715551 71.3225 1.76172 72.4884 3.48001 73.6083C4.70735 74.406 5.22131 74.1657 5.40285 72.7441C5.65599 70.7677 5.84777 68.7861 6.09324 66.8097C6.34893 64.7489 6.76828 62.6932 6.02164 60.6375C5.93215 60.3895 6.01141 60.0213 6.1367 59.7682C6.39496 59.2415 6.25688 59.0139 5.70969 58.8631C4.13715 58.4335 2.56972 57.9861 1.01508 57.5028C0.322139 57.2881 -0.148345 57.4722 -0.52422 58.0602C-1.08931 58.9449 -1.56747 59.9165 -2.27064 60.6733C-3.66419 62.1716 -4.45685 63.9869 -5.31088 65.7818C-5.45151 66.0784 -5.54612 66.398 -5.71488 66.848H-5.71744ZM74.2725 81.3299C74.5154 81.018 74.6407 80.8876 74.7302 80.7393C76.2183 78.2949 77.7448 75.8711 79.1614 73.3833C79.5603 72.6853 79.729 71.8185 79.8416 71.0054C79.9822 69.9802 79.9617 68.9319 79.9924 67.8912C79.9975 67.7199 79.9413 67.5307 79.8671 67.3722C79.0029 65.5824 78.1182 63.8003 77.2641 62.0054C76.9956 61.4404 76.6044 61.2818 76.0214 61.4301C75.1751 61.6423 74.3185 61.8264 73.4696 62.031C71.9175 62.4017 71.3038 63.3324 71.5058 64.9253C71.5774 65.4904 71.58 66.0657 71.5749 66.6384C71.5493 69.4381 71.6209 72.2455 71.4393 75.035C71.268 77.6609 73.0272 79.2512 74.275 81.3299H74.2725ZM94.3754 49.3747C92.6392 50.2287 91.8721 51.5045 91.4374 53.0489C91.0616 54.3835 90.6167 55.7003 90.2254 57.0324C89.8342 58.3619 89.847 58.3645 91.2482 58.5665C91.3249 58.5767 91.3914 58.6509 91.5806 58.771C91.2815 58.8835 91.0769 59.0242 90.8724 59.0267C89.847 59.0395 89.4072 59.6045 89.1771 60.548C88.7347 62.3608 88.2029 64.1506 87.7145 65.9506C87.6889 66.0478 87.7426 66.1705 87.7682 66.3264C88.0495 66.2983 88.2924 66.3085 88.5174 66.2497C91.2943 65.5466 94.0686 64.8179 96.8506 64.1327C97.5921 63.9486 97.7557 63.6264 97.4796 62.9131C96.6383 60.7475 95.8406 58.5665 95.0326 56.3881C94.9149 56.0736 94.8408 55.7437 94.7487 55.419C94.8306 55.3832 94.9124 55.3449 94.9968 55.3091C95.1732 55.5954 95.3726 55.869 95.5235 56.1682C96.6256 58.3517 97.7225 60.5352 98.8143 62.7239C99.0393 63.1739 99.2976 63.4909 99.8678 63.248C100.384 63.0281 101.228 63.1381 101.144 62.2662C100.993 60.7219 101.011 59.1162 99.8269 57.8531C99.5558 57.5642 99.382 57.1193 99.3078 56.7205C98.7044 53.5168 96.0528 51.7653 94.3805 49.3721L94.3754 49.3747ZM81.478 58.6943C82.4804 58.6943 83.2986 58.7403 84.1066 58.6713C84.4058 58.6457 84.8788 58.4028 84.9402 58.1702C85.6229 55.6619 86.8374 53.256 86.3746 50.515C86.257 49.8196 86.0806 49.4309 85.3493 49.3005C82.3832 48.7738 79.4324 48.1525 76.4587 47.6718C73.8864 47.2576 73.8557 47.3164 73.4159 49.9295C73.3392 50.3923 73.3699 50.9932 73.6102 51.3665C74.7378 53.1128 76.0087 54.7696 77.1286 56.521C78.2128 58.2162 79.3813 59.5688 81.4755 58.6943H81.478ZM152.37 123.97C152.268 123.916 152.166 123.86 152.063 123.806C152.13 123.489 152.135 123.147 152.273 122.866C152.495 122.408 152.749 121.94 153.086 121.564C154.055 120.483 153.843 119.368 153.475 118.102C153.183 117.097 153.058 115.954 153.217 114.929C153.401 113.733 153.355 112.659 152.81 111.6C152.383 110.767 152.439 110.025 152.976 109.225C153.265 108.793 153.288 108.182 153.434 107.65L153.114 107.55C151.897 108.519 151.168 109.936 150.836 111.324C150.222 113.891 149.995 116.553 149.655 119.184C149.627 119.406 149.951 119.887 150.107 119.884C151.227 119.864 151.02 120.554 150.813 121.17C150.493 122.111 150.135 123.045 149.719 123.947C149.315 124.819 149.253 125.655 149.555 126.576C149.696 127.008 149.616 127.516 149.609 127.992C149.593 128.918 149.394 129.876 149.565 130.766C150.112 133.579 150.787 136.366 151.437 139.158C151.516 139.498 151.728 139.807 151.938 140.252C152.099 139.971 152.176 139.874 152.212 139.766C153.186 136.785 154.165 133.804 155.111 130.812C155.234 130.424 155.224 129.974 155.185 129.559C155.009 127.545 154.81 125.532 154.6 123.523C154.549 123.029 154.436 122.541 154.308 121.802C153.549 122.653 152.961 123.316 152.373 123.975L152.37 123.97ZM101.719 35.4835C101.177 36.3016 100.735 37.0354 100.228 37.7232C99.7834 38.3266 99.226 38.8482 98.7964 39.4593C97.8964 40.7429 97.0756 42.0852 96.1627 43.3585C95.6258 44.1102 95.5772 44.7008 96.2394 45.4218C98.0549 47.3983 99.8141 49.4233 101.591 51.4329C102.051 51.952 102.45 51.7807 102.765 51.3051C104.345 48.9145 105.925 46.5264 107.454 44.1025C107.626 43.8315 107.605 43.2383 107.419 42.975C105.971 40.9346 104.468 38.9326 102.964 36.9306C102.576 36.4141 102.12 35.9437 101.722 35.4783L101.719 35.4835ZM44.701 10.5646C44.6039 10.6311 44.5041 10.6976 44.407 10.7641C44.522 12.1243 44.5348 13.5024 44.788 14.8345C45.0053 15.98 45.5065 17.0718 45.8644 18.1942C46.6852 20.7587 47.529 23.3104 49.2115 25.476C49.4851 25.8289 49.8252 26.1306 50.1653 26.4885C50.8378 25.5425 50.4593 24.3383 51.5972 23.5354C51.6637 24.1337 51.766 24.5326 51.7353 24.9187C51.6662 25.8519 51.5793 26.7877 51.4182 27.7081C51.2571 28.6286 51.4489 29.4263 51.9373 30.2062C52.6251 31.3056 53.249 32.4459 53.9292 33.5505C54.3306 34.1999 54.7883 34.8161 55.2179 35.4477C55.315 35.4247 55.4122 35.4042 55.5068 35.3812C55.5733 35.059 55.7037 34.7343 55.6986 34.4147C55.6628 32.3028 55.6577 30.1857 55.5145 28.0814C55.4608 27.2709 55.0747 26.4834 54.8394 25.6857C54.6042 24.8829 54.3664 24.08 54.1388 23.2746C54.0417 22.9294 54.0417 22.5357 53.8703 22.2391C52.9498 20.6564 51.927 19.1326 51.0551 17.5243C49.8124 15.2334 47.8129 13.5842 46.1969 11.6104C45.8261 11.1578 45.2048 10.9098 44.6985 10.5646H44.701ZM80.6496 138.823C80.6496 138.838 80.6547 138.853 80.6572 138.869C83.5696 138.61 86.482 138.35 89.397 138.102C90.0797 138.043 90.2817 137.8 90.0337 137.107C88.5992 133.131 87.0088 129.232 84.6921 125.673C84.5132 125.397 84.1807 125.223 83.9174 125.003C83.7179 125.251 83.4546 125.471 83.3318 125.755C82.0712 128.626 80.8183 131.5 79.5935 134.387C79.1333 135.468 78.7139 136.57 78.3483 137.685C78.0824 138.498 78.3534 138.807 79.2049 138.82C79.6881 138.828 80.1689 138.82 80.6521 138.82L80.6496 138.823ZM135.011 113.229C134.903 112.833 134.883 112.48 134.719 112.211C134.093 111.181 133.464 110.145 132.74 109.187C132.549 108.933 131.96 108.775 131.636 108.864C128.874 109.624 126.123 110.427 123.384 111.268C122.538 111.529 122.42 111.953 122.983 112.608C125.42 115.443 127.874 118.266 130.355 121.063C130.994 121.784 131.395 121.682 131.825 120.774C132.403 119.547 132.963 118.309 133.489 117.062C134.026 115.786 134.515 114.492 135.013 113.234L135.011 113.229ZM205.121 47.1605C204.852 46.2451 204.811 45.0536 204.221 44.2892C202.973 42.6784 201.436 41.2926 200.022 39.8096C199.598 39.3647 199.15 39.3315 198.654 39.6818C197.767 40.3056 196.874 40.9244 195.987 41.5482C194.742 42.4252 194.711 42.5965 195.478 43.9619C196.511 45.8002 197.521 47.6514 198.577 49.4795C199.618 51.2795 200.692 53.0591 201.776 54.831C201.914 55.0585 202.208 55.1915 202.428 55.3679C202.597 55.1327 202.832 54.9204 202.922 54.6596C203.39 53.2917 203.845 51.9162 204.256 50.5304C204.571 49.4642 204.811 48.375 205.118 47.1605H205.121ZM91.7136 173.138C90.857 174.736 90.0286 176.206 89.778 177.94C89.6808 178.615 89.3816 179.259 89.287 179.934C89.1873 180.65 89.0595 181.432 89.2461 182.102C89.4737 182.92 89.6169 183.639 89.287 184.462C88.9981 185.183 89.0032 185.955 89.443 186.955C89.6936 186.344 89.8726 185.981 89.9953 185.6C90.6115 183.677 91.192 181.739 91.8414 179.829C91.9642 179.469 92.3503 179.195 92.6162 178.883C92.7338 179.282 92.8566 179.678 92.9614 180.08C92.9819 180.159 92.9384 180.256 92.9205 180.346C92.2275 183.989 91.5244 187.633 90.8545 191.281C90.7241 191.984 90.7215 192.713 90.6601 193.429L90.9286 193.508C91.1664 193.291 91.4247 193.094 91.6395 192.856C93.368 190.962 95.0223 188.998 96.8327 187.185C97.8861 186.132 98.0575 185.068 97.4387 183.846C95.7229 180.456 93.9612 177.091 92.2071 173.721C92.1176 173.547 91.9488 173.414 91.711 173.138H91.7136ZM56.4171 17.4655C56.5322 17.4297 56.6472 17.3965 56.7648 17.3607C56.8364 17.2354 56.9438 17.1178 56.972 16.9848C57.5473 14.272 58.1379 11.5643 58.6442 8.84133C58.7056 8.51661 58.3936 7.94644 58.0894 7.75979C55.3201 6.05183 52.5177 4.39756 49.7153 2.7433C49.5388 2.64102 49.1911 2.57966 49.0837 2.67682C48.9482 2.79955 48.897 3.12682 48.9507 3.32625C49.1783 4.16745 49.4672 4.9933 49.7153 5.82939C50.0016 6.79842 50.219 7.79047 50.5616 8.73906C50.8838 9.6365 51.3287 10.4879 51.7199 11.3598C51.8478 11.3087 51.9782 11.2575 52.106 11.2038C51.7225 9.85383 51.3364 8.50383 50.9528 7.15382L51.2009 7.072C52.9396 10.5365 54.6784 13.9984 56.4171 17.4629V17.4655ZM37.9353 -12.3829C38.1756 -12.3829 38.4313 -12.3317 38.6538 -12.3957C38.9478 -12.48 39.3774 -12.5977 39.4541 -12.8099C39.5359 -13.0349 39.3595 -13.4721 39.1549 -13.6664C36.9764 -15.74 34.7672 -17.7829 32.5707 -19.8386C32.1105 -20.2707 31.5377 -20.644 31.236 -21.1707C30.5456 -22.3826 29.3285 -22.4235 28.2341 -22.5846C27.4031 -22.7074 26.93 -21.9429 26.6053 -21.2372C26.3624 -20.7105 26.5209 -20.2681 26.9837 -19.8846C29.4921 -17.811 32.0184 -15.7605 34.4655 -13.6178C35.4959 -12.7153 36.6184 -12.3471 37.9327 -12.3803L37.9353 -12.3829ZM77.548 153.79C77.461 153.834 77.3715 153.88 77.2846 153.923C77.2539 154.092 77.2002 154.261 77.1976 154.43C77.1644 157.234 78.4071 159.748 79.0284 162.402C79.0821 162.629 79.2355 162.836 79.3532 163.046C80.2208 164.601 81.5419 165.246 83.3165 164.982C84.2549 164.841 85.1908 164.682 86.4053 164.486C83.5159 160.635 80.5959 157.158 77.548 153.788V153.79ZM133.727 135.836C133.863 135.867 134.001 135.898 134.136 135.931C134.249 135.731 134.384 135.542 134.474 135.335C136.248 131.237 137.969 127.115 139.823 123.052C140.35 121.894 140.542 120.971 139.703 119.912C139.01 119.038 138.8 118.984 138.251 119.946C137.013 122.122 135.732 124.277 134.607 126.512C134.272 127.174 134.223 128.102 134.359 128.851C134.543 129.866 134.502 130.776 134.264 131.779C133.95 133.101 133.896 134.481 133.727 135.836ZM27.4312 1.63875C27.1448 1.41375 26.9403 1.18363 26.6871 1.06602C25.3473 0.44471 23.9946 -0.15103 22.6445 -0.751884C22.0104 -1.03313 21.6039 -0.759556 21.3354 -0.186827C20.0057 2.65381 18.671 5.49188 17.3618 8.34019C17.2621 8.55496 17.3337 8.84644 17.3235 9.10212C17.592 9.04587 17.9218 9.06633 18.1213 8.91803C21.0592 6.70638 23.9844 4.47171 26.9045 2.23449C27.0835 2.09642 27.2113 1.89187 27.4338 1.63875H27.4312ZM145.344 108.951C145.047 109.261 144.809 109.445 144.658 109.68C143.321 111.761 142.002 113.855 140.675 115.942C140.311 116.512 140.419 117.013 140.838 117.509C141.828 118.688 142.784 119.895 143.789 121.058C144.001 121.306 144.369 121.418 144.663 121.595C144.827 121.293 145.004 120.999 145.147 120.687C145.208 120.557 145.206 120.393 145.221 120.242C145.523 117.363 145.822 114.484 146.121 111.605C146.218 110.664 145.865 109.867 145.346 108.949L145.344 108.951ZM146.957 189.502C147.087 189.509 147.22 189.517 147.351 189.525C147.351 189.11 147.456 188.658 147.33 188.287C147.052 187.474 147.272 186.768 147.512 186.004C147.75 185.244 147.982 184.424 147.929 183.649C147.783 181.634 147.486 179.632 147.233 177.628C147.195 177.321 147.067 177.024 146.98 176.723C146.888 176.717 146.796 176.71 146.704 176.705C145.149 179.635 143.48 182.46 143.638 186.063C143.735 188.269 144.257 190.297 144.935 192.365C145.142 192.063 145.244 191.762 145.277 191.455C145.42 190.136 145.512 188.809 145.696 187.494C145.74 187.177 146.065 186.901 146.262 186.607C146.443 186.891 146.732 187.154 146.788 187.461C146.908 188.131 146.914 188.821 146.965 189.504L146.957 189.502ZM40.5076 3.14728C40.4513 2.98875 40.4079 2.66915 40.2442 2.42881C39.2163 0.915167 38.1603 -0.580576 37.1145 -2.08143C36.6159 -2.7999 36.015 -2.83059 35.3246 -2.36269C33.9771 -1.4499 32.6168 -0.552452 31.2718 0.362892C30.5635 0.846132 30.5763 1.23477 31.3741 1.54414C32.4122 1.94557 33.481 2.28307 34.5549 2.58222C36.2374 3.05012 37.9327 3.46688 39.6254 3.89131C40.124 4.0166 40.5587 3.97824 40.5076 3.14472V3.14728ZM68.2431 46.5136C67.8596 46.6235 67.586 46.6645 67.3482 46.7744C66.5018 47.1681 65.658 47.5645 64.8321 47.9966C64.0011 48.4312 63.8553 48.8096 64.4 49.5792C65.5711 51.2437 66.8214 52.8571 68.0386 54.4909C68.4886 55.0943 68.8645 55.0227 69.1329 54.3477C69.5881 53.2023 70.056 52.0594 70.4498 50.8909C70.5623 50.5559 70.5393 50.088 70.391 49.7736C69.9537 48.8505 69.4398 47.9633 68.9105 47.0889C68.7596 46.8409 68.4553 46.6875 68.2457 46.511L68.2431 46.5136ZM-8.35624 82.5188C-8.27442 82.5188 -8.19515 82.5163 -8.11333 82.5137C-8.02895 82.3347 -7.90621 82.1634 -7.86274 81.9742C-6.91922 77.9575 -5.96802 73.9432 -5.07564 69.9162C-4.9708 69.4458 -5.08587 68.8245 -5.32622 68.4051C-5.59982 67.9245 -6.19815 67.8324 -6.45641 68.4588C-7.07264 69.952 -7.67864 71.458 -8.14145 73.0023C-8.50966 74.2245 -8.66052 75.5131 -8.90088 76.7711C-8.96736 77.1239 -9.07475 77.4896 -9.04151 77.8373C-8.92389 79.1566 -8.7628 80.4734 -8.59915 81.7876C-8.56847 82.0356 -8.43806 82.2734 -8.35368 82.5163L-8.35624 82.5188ZM52.7836 50.6659C53.901 50.3284 55.315 49.9116 56.7214 49.4693C58.7337 48.8326 58.8155 48.5335 57.445 46.9074C57.0078 46.3883 56.5066 45.923 55.7421 46.1531C54.3869 46.5622 53.0342 46.9841 51.6918 47.4341C51.0372 47.6539 50.6076 48.0426 50.7969 48.8582C51.0858 50.1136 51.5767 50.6812 52.7836 50.6659ZM10.6626 83.5058C10.5321 83.8356 10.2969 84.1245 10.348 84.3444C10.8313 86.4538 11.3146 88.5657 11.9078 90.6444C12.1533 91.5086 12.7081 91.5623 13.2937 90.8873C13.9636 90.1152 14.5901 89.3046 15.2498 88.5248C15.7944 87.8805 15.6972 87.3359 15.058 86.8296C13.8792 85.8964 12.7081 84.9529 11.5243 84.0222C11.3171 83.8586 11.0666 83.7461 10.6626 83.5058ZM3.30613 55.777C3.69735 55.777 4.08857 55.7974 4.47978 55.7744C5.91169 55.69 6.5765 55.1199 6.74782 53.7034C6.84499 52.9031 6.83476 52.0798 6.77595 51.2719C6.74782 50.8883 6.48957 50.5227 6.33359 50.1494C5.96027 50.3079 5.50513 50.3795 5.22898 50.6403C4.09368 51.7167 3.00696 52.8443 1.91769 53.9668C1.66967 54.2224 1.43954 54.5165 1.27333 54.831C1.0023 55.3449 1.14037 55.7259 1.77194 55.7693C2.28078 55.8026 2.79474 55.777 3.30613 55.777ZM84.0631 168.518C83.9506 168.556 83.5338 168.579 83.3446 168.801C83.2372 168.927 83.4648 169.397 83.6131 169.671C83.8867 170.172 84.1654 170.683 84.5285 171.121C85.1192 171.829 85.7303 172.54 86.4386 173.117C86.6661 173.301 87.3898 173.23 87.6096 173.005C88.3179 172.276 88.9546 171.455 89.5095 170.601C90.0618 169.755 89.6297 168.991 88.6222 168.899C87.1826 168.768 85.7405 168.656 84.0606 168.518H84.0631ZM153.089 155.915C153.426 155.915 153.631 155.953 153.82 155.91C156.07 155.386 158.126 154.401 160.077 153.187C160.678 152.814 160.537 152.466 160.003 152.205C158.893 151.668 157.786 151.124 156.64 150.671C156.364 150.561 155.751 150.676 155.641 150.878C154.758 152.502 153.958 154.174 153.089 155.915ZM51.2111 32.4536C51.027 32.6096 50.9452 32.6428 50.94 32.6837C50.7304 34.7982 50.4747 36.9127 50.3545 39.0323C50.311 39.8019 50.9707 40.0985 51.6969 39.7713C52.1342 39.5744 52.5433 39.3161 52.9677 39.0937C53.5635 38.7818 53.786 38.319 53.5405 37.6747C52.9754 36.1891 52.418 34.7011 51.8222 33.2258C51.7097 32.9445 51.4335 32.7298 51.206 32.4511L51.2111 32.4536ZM81.3195 106.192L81.6903 106.162C81.7439 105.517 81.882 104.865 81.8334 104.229C81.7209 102.725 80.7109 101.48 80.399 100.1C80.0052 98.3507 78.5912 97.576 77.7806 96.2413C77.1618 96.7527 77.2999 97.2871 77.5403 97.8393C78.6116 100.302 79.6779 102.769 80.7595 105.229C80.9078 105.566 81.1303 105.873 81.3169 106.195L81.3195 106.192ZM110.29 87.2541C110.349 87.1876 110.405 87.1211 110.464 87.0546C110.328 86.8424 110.224 86.597 110.05 86.4231C108.96 85.339 107.892 84.2319 106.751 83.2092C105.14 81.7646 105.117 81.7901 103.517 83.3063C102.824 83.9634 102.836 84.214 103.711 84.5975C105.67 85.4566 107.646 86.2748 109.62 87.1007C109.83 87.1876 110.068 87.2055 110.293 87.2566L110.29 87.2541ZM14.4955 42.3716C14.4341 42.3153 14.3702 42.2565 14.3088 42.2002C14.0429 42.3664 13.7488 42.4994 13.5136 42.7014C12.8539 43.2741 12.207 43.8673 11.5754 44.4707C9.19996 46.7463 9.51958 46.0176 9.88779 49.4079C9.91592 49.6687 10.1358 49.9091 10.2662 50.1596C10.481 49.9858 10.7802 49.8554 10.8978 49.6304C12.0612 47.4136 13.1965 45.1815 14.3293 42.9468C14.4188 42.773 14.4392 42.5633 14.4929 42.369L14.4955 42.3716ZM47.3373 55.2937C47.3373 54.1023 47.3117 53.1844 47.3475 52.2716C47.3731 51.6119 47.5316 50.9574 47.5418 50.2977C47.5521 49.4591 47.1915 49.1983 46.3886 49.4719C45.6215 49.7327 44.8621 50.042 44.1487 50.423C43.3561 50.8449 43.3484 51.6145 44.0388 52.1591C44.4837 52.5068 44.9005 52.8929 45.3096 53.2866C45.9463 53.8977 46.5651 54.5267 47.3398 55.2963L47.3373 55.2937ZM52.7402 180.029C52.8169 179.942 52.8757 179.906 52.8885 179.857C53.9471 176.206 55.0108 172.555 56.0412 168.896C56.1 168.689 55.9083 168.41 55.8315 168.167C55.4915 168.316 54.9289 168.39 54.8471 168.628C54.2258 170.438 53.4305 172.217 53.584 174.214C53.6146 174.616 53.5226 175.094 53.3155 175.434C52.4384 176.881 52.7095 178.438 52.7376 180.029H52.7402ZM158.287 104.513C159.785 103.904 166.134 97.1388 166.569 95.6839C165.262 96.7987 164.03 97.8521 162.795 98.903C161.442 100.056 160.079 101.196 158.735 102.36C158.07 102.933 157.916 103.636 158.285 104.513H158.287ZM205.284 39.8761C205.131 38.5721 205.003 37.4957 204.878 36.4193C204.809 35.8363 204.494 35.7903 204.065 36.0664C203.205 36.6238 202.357 37.1889 201.505 37.759C200.932 38.14 201.006 38.5133 201.536 38.8687C202.311 39.3877 203.07 39.9298 203.865 40.4156C204.18 40.6073 204.704 40.8809 204.888 40.7582C205.159 40.5741 205.21 40.0678 205.284 39.8761ZM44.2868 52.8315C44.2152 52.875 44.1436 52.9184 44.0746 52.9619C44.7189 54.9614 45.3607 56.9608 46.0128 58.9577C46.0665 59.1264 46.1636 59.2875 46.2736 59.4281C46.7926 60.0852 47.4344 60.0239 47.6748 59.2185C47.8384 58.6739 47.9484 57.9656 47.7387 57.4824C46.9563 55.6721 45.6394 54.2301 44.2868 52.8341V52.8315ZM72.8457 54.0997C72.7383 54.1125 72.6309 54.1253 72.5235 54.1406C72.3394 55.4139 72.1399 56.6872 71.9916 57.9631C71.9712 58.1395 72.1834 58.5 72.3215 58.5153C73.2752 58.6355 74.2392 58.6867 75.2006 58.7608C75.2339 58.6636 75.2671 58.5665 75.3004 58.4693C74.4821 57.0119 73.6639 55.5571 72.8457 54.0997ZM82.7974 64.1455C83.3906 62.7367 83.8944 61.5375 84.5183 60.0546C82.9432 60.3051 81.6775 60.5046 80.1842 60.7423C81.1328 61.9773 81.8948 62.9719 82.7974 64.1455ZM43.6782 -1.92802C43.7703 -1.94592 43.8649 -1.96382 43.9569 -1.98427C45.0002 -3.91723 43.6936 -8.00049 41.6506 -8.39935C42.3537 -6.15957 43.016 -4.04508 43.6782 -1.93058V-1.92802ZM56.0003 124.328C56.3353 126.767 56.6421 129.02 56.9515 131.27C57.3146 129.659 57.4961 128.056 57.6393 126.45C57.7442 125.259 57.5115 124.949 56.0003 124.328ZM136.629 107.571C135.724 107.819 135.016 107.967 134.354 108.23C134.188 108.297 134.021 108.821 134.116 108.995C134.397 109.516 134.786 109.984 135.172 110.442C135.494 110.82 135.885 110.825 136.108 110.358C136.427 109.683 136.704 108.982 136.918 108.269C136.975 108.079 136.734 107.803 136.632 107.573L136.629 107.571ZM144.469 174.81C144.564 174.836 144.661 174.859 144.756 174.884C146.561 173.455 147.08 170.801 145.558 169.742C145.183 171.486 144.825 173.148 144.469 174.81ZM108.968 60.502C108.976 60.3997 108.986 60.2974 108.994 60.1977C108.175 59.8705 107.37 59.4895 106.526 59.2466C106.263 59.1699 105.657 59.4205 105.613 59.6122C105.488 60.1645 105.565 60.7654 105.583 61.3458C105.583 61.3764 105.808 61.448 105.902 61.4199C106.925 61.1233 107.945 60.8114 108.966 60.502H108.968ZM155.444 133.08C155.354 133.057 155.265 133.037 155.178 133.014C154.659 135.675 154.14 138.334 153.621 140.996C153.723 141.022 153.825 141.047 153.925 141.073C154.485 140.72 154.441 140.129 154.505 139.536C154.608 138.567 154.618 137.521 155.006 136.662C155.546 135.463 155.566 134.302 155.446 133.08H155.444ZM40.3388 -2.23229C40.3184 -3.53627 39.7098 -4.29565 38.8353 -4.27008C38.0733 -4.24707 37.7716 -3.78428 38.1986 -3.16297C38.5285 -2.68229 38.9836 -2.2732 39.4337 -1.89479C39.6024 -1.7516 39.9502 -1.6928 40.1547 -1.76694C40.2902 -1.81553 40.3158 -2.17092 40.3388 -2.23484V-2.23229ZM51.2725 43.7957C52.6456 43.696 53.6453 42.9545 54.571 42.1107C54.6988 41.9957 54.6937 41.5636 54.5761 41.4025C54.4661 41.2465 54.0468 41.1213 53.9061 41.2107C52.8476 41.873 51.9501 42.7167 51.2725 43.7983V43.7957ZM50.4875 87.0521C50.9247 87.7373 51.2648 88.3279 51.6662 88.87C51.7787 89.0208 52.1776 89.1538 52.2697 89.0797C52.441 88.9416 52.5944 88.6245 52.5612 88.4149C52.4691 87.8549 52.3336 87.2822 52.0881 86.7759C51.9654 86.5203 51.5282 86.2058 51.3083 86.2543C51.0219 86.3183 50.8096 86.7171 50.4849 87.0546L50.4875 87.0521ZM201.185 180.351C201.075 180.43 200.963 180.512 200.853 180.591C201.009 181.655 201.165 182.716 201.321 183.779C201.405 183.779 201.49 183.782 201.572 183.784C201.919 182.974 202.548 182.204 202.114 181.24C201.95 180.877 201.503 180.645 201.183 180.353L201.185 180.351ZM62.1422 45.7005C62.7482 47.6386 63.2672 47.2858 65.7424 46.1659C64.4588 45.9997 63.3209 45.8539 62.1422 45.7005ZM74.0705 97.6322C75.418 96.364 75.9422 95.2442 74.7455 94.5282C74.523 95.551 74.3134 96.52 74.0705 97.6322ZM101.238 67.2597L101.63 67.0935C101.584 66.5054 101.576 65.9097 101.466 65.3344C101.435 65.1682 101.08 64.9202 100.926 64.9534C100.694 65.0046 100.305 65.3497 100.336 65.429C100.589 66.058 100.924 66.6537 101.236 67.2571L101.238 67.2597ZM13.7054 21.8479C13.309 22.2084 13.0968 22.4053 12.882 22.6022C13.2246 22.9346 13.5673 23.2669 13.9099 23.6019C14.1298 23.3692 14.5696 23.065 14.5236 22.9192C14.4111 22.5689 14.0684 22.2928 13.7054 21.8505V21.8479ZM57.4987 155.915C57.5575 155.928 57.6419 155.959 57.647 155.946C58.2658 154.764 58.8795 153.578 59.4931 152.394C58.1865 153.241 57.826 154.568 57.4987 155.915ZM11.289 27.6775C11.4117 27.7337 11.5345 27.79 11.6572 27.8488C12.2402 27.6289 12.5547 27.2019 12.4754 26.5652C12.4627 26.4527 12.1149 26.3812 11.9231 26.2917C11.7109 26.7545 11.5012 27.2172 11.289 27.68V27.6775ZM71.7641 47.0224C71.3294 46.9406 71.0072 46.8767 70.437 46.7693C70.818 47.3164 71.0456 47.6463 71.401 48.1602C71.5544 47.677 71.6439 47.3932 71.7615 47.0224H71.7641ZM81.5752 69.1978C81.4473 69.1466 81.322 69.0955 81.1942 69.0418C81.0382 69.4023 80.8822 69.7628 80.7263 70.1233C80.8695 70.1847 81.0152 70.2435 81.1584 70.3049C81.2965 69.9341 81.4371 69.5659 81.5752 69.1952V69.1978ZM72.1067 80.2535C71.9967 80.32 71.8868 80.3839 71.7794 80.4504C72.1681 81.11 72.5567 81.7671 72.9428 82.4268C73.0221 82.3833 73.1014 82.3399 73.1781 82.2964C72.8201 81.6163 72.4647 80.9361 72.1067 80.2535ZM136.435 117.049C136.555 117.105 136.675 117.161 136.796 117.215C136.939 116.911 137.085 116.604 137.228 116.3L136.862 116.131C136.719 116.438 136.576 116.742 136.435 117.049ZM56.2918 42.5889C56.4529 42.3894 56.6012 42.259 56.6677 42.0954C56.6856 42.0519 56.389 41.8039 56.3481 41.8295C56.1946 41.9241 56.0668 42.0826 55.9773 42.2437C55.9568 42.2795 56.1384 42.4252 56.2918 42.5889Z" fill="black" stroke="black" stroke-width="0.250415" stroke-miterlimit="10"/>
</g>
<rect x="0.120971" y="0.120971" width="113.758" height="159.758" rx="7.37903" stroke="black" stroke-width="0.241941"/>
<defs>
<clipPath id="clip0_1431_3037">
<rect width="114" height="160" rx="7.5" fill="white"/>
</clipPath>
</defs>
</svg>
