<svg width="114" height="160" viewBox="0 0 114 160" fill="none" xmlns="http://www.w3.org/2000/svg">
<rect x="0.38" y="-0.38" width="113.24" height="158.84" rx="7.22" transform="matrix(1 0 0 -1 0 158.84)" fill="white" stroke="white" stroke-width="0.76"/>
<path d="M15.6207 30.4004C15.3216 30.4004 15.0707 30.2991 14.868 30.0964C14.6661 29.8944 14.5651 29.6439 14.5651 29.3448C14.5651 29.0458 14.6661 28.7952 14.868 28.5933C15.0707 28.3906 15.3216 28.2893 15.6207 28.2893H19.8429L19.8429 23.0115L11.7679 13.9337C11.6623 13.8106 11.5744 13.6565 11.504 13.4714C11.4336 13.287 11.3984 13.1069 11.3984 12.9309C11.3984 12.5087 11.548 12.1481 11.847 11.849C12.1461 11.5499 12.5068 11.4004 12.929 11.4004L28.8679 11.4004C29.2901 11.4004 29.6508 11.5499 29.9498 11.849C30.2489 12.1481 30.3984 12.5175 30.3984 12.9573C30.3984 13.1157 30.3633 13.287 30.2929 13.4714C30.2225 13.6565 30.1345 13.8106 30.029 13.9337L21.954 23.0115L21.954 28.2893L26.1762 28.2893C26.4753 28.2893 26.7258 28.3906 26.9278 28.5933C27.1304 28.7952 27.2318 29.0458 27.2318 29.3448C27.2318 29.6439 27.1304 29.8944 26.9278 30.0964C26.7258 30.2991 26.4753 30.4004 26.1762 30.4004L15.6207 30.4004ZM16.0957 15.6226L25.7012 15.6226L27.6012 13.5115L14.1957 13.5115L16.0957 15.6226Z" fill="black"/>
<path d="M87.8238 148.199C87.5247 148.199 87.2738 148.098 87.0712 147.895C86.8692 147.693 86.7682 147.443 86.7682 147.144C86.7682 146.845 86.8692 146.594 87.0712 146.392C87.2738 146.189 87.5247 146.088 87.8238 146.088H92.046V140.81L83.971 131.733C83.8655 131.609 83.7775 131.455 83.7071 131.27C83.6367 131.086 83.6016 130.906 83.6016 130.73C83.6016 130.308 83.7511 129.947 84.0502 129.648C84.3492 129.349 84.7099 129.199 85.1321 129.199H101.071C101.493 129.199 101.854 129.349 102.153 129.648C102.452 129.947 102.602 130.316 102.602 130.756C102.602 130.914 102.566 131.086 102.496 131.27C102.426 131.455 102.338 131.609 102.232 131.733L94.1571 140.81V146.088H98.3793C98.6784 146.088 98.9289 146.189 99.1309 146.392C99.3336 146.594 99.4349 146.845 99.4349 147.144C99.4349 147.443 99.3336 147.693 99.1309 147.895C98.9289 148.098 98.6784 148.199 98.3793 148.199H87.8238ZM88.2988 133.421H97.9043L99.8043 131.31H86.3988L88.2988 133.421Z" fill="black"/>
<path d="M30.6681 79.3062C30.6924 79.3062 30.7046 79.3306 30.7046 79.3792C30.7046 79.4278 30.6924 79.4522 30.6681 79.4522C30.4492 79.4522 30.2628 79.5292 30.1087 79.6832C29.9628 79.8372 29.8209 80.0926 29.6831 80.4493L27.7375 85.4592C27.5187 86.0186 27.3565 86.5333 27.2511 87.0035C27.2187 87.1575 27.1903 87.2508 27.166 87.2832C27.1417 87.3237 27.0849 87.344 26.9958 87.344H25.3785C25.3623 87.344 25.3542 87.3197 25.3542 87.271C25.3542 87.2224 25.3623 87.1981 25.3785 87.1981C25.8649 87.1738 26.2743 87.0319 26.6067 86.7725C26.939 86.5212 27.2471 86.055 27.5308 85.3741L28.0659 84.0851L26.2054 80.3155C26.0189 79.9588 25.8771 79.7278 25.7798 79.6224C25.6825 79.5089 25.5568 79.4522 25.4028 79.4522C25.3866 79.4522 25.3785 79.4278 25.3785 79.3792C25.3785 79.3306 25.3866 79.3062 25.4028 79.3062C25.5893 79.3062 25.7311 79.3103 25.8284 79.3184L26.254 79.3306L27.0444 79.3184C27.166 79.3103 27.3281 79.3062 27.5308 79.3062C27.547 79.3062 27.5551 79.3306 27.5551 79.3792C27.5551 79.4278 27.547 79.4522 27.5308 79.4522C27.3038 79.4522 27.1295 79.4724 27.0079 79.513C26.8944 79.5535 26.8377 79.6224 26.8377 79.7197C26.8377 79.7602 26.858 79.8291 26.8985 79.9264L28.455 83.1366L29.4035 80.4736C29.4683 80.279 29.5007 80.121 29.5007 79.9994C29.5007 79.8048 29.4278 79.667 29.2819 79.5859C29.144 79.4967 28.9171 79.4522 28.6009 79.4522C28.5847 79.4522 28.5766 79.4278 28.5766 79.3792C28.5766 79.3306 28.5847 79.3062 28.6009 79.3062C28.8198 79.3062 28.986 79.3103 29.0995 79.3184L29.8291 79.3306L30.2668 79.3184C30.356 79.3103 30.4897 79.3062 30.6681 79.3062ZM35.6144 83.7082C35.6711 83.7082 35.7035 83.7163 35.7116 83.7325C35.7279 83.7487 35.736 83.7892 35.736 83.8541C35.736 83.9189 35.7279 84.0567 35.7116 84.2675C35.6711 84.7377 35.6508 85.1795 35.6508 85.593C35.6508 85.6335 35.6265 85.6538 35.5779 85.6538C35.5373 85.6538 35.5171 85.6335 35.5171 85.593C35.5171 85.0417 35.3914 84.6364 35.1401 84.377C34.8888 84.1257 34.5402 84 34.0944 84H31.711C31.2976 84 30.9733 84.1257 30.7382 84.377C30.5112 84.6364 30.3977 85.0417 30.3977 85.593C30.3977 85.6335 30.3734 85.6538 30.3248 85.6538C30.2761 85.6538 30.2518 85.6335 30.2518 85.593C30.2518 85.0741 30.2356 84.6364 30.2032 84.2797C30.1869 84.0689 30.1788 83.927 30.1788 83.8541C30.1788 83.7811 30.1829 83.7406 30.191 83.7325C30.2072 83.7163 30.2437 83.7082 30.3004 83.7082H30.9328L32.854 79.1238C32.8703 79.0914 32.8946 79.0752 32.927 79.0752C32.9594 79.0752 32.9837 79.0914 33 79.1238L35.0185 83.7082H35.6144ZM31.2611 83.7082H34.1187L32.6595 80.352L31.2611 83.7082ZM38.4127 84.1581C37.9344 84.1581 37.5128 84.0446 37.148 83.8176C36.7913 83.5825 36.5117 83.2704 36.309 82.8813C36.1144 82.4841 36.0172 82.0544 36.0172 81.5923C36.0172 81.0654 36.1469 80.6195 36.4063 80.2547C36.6657 79.8818 36.994 79.6062 37.3912 79.4278C37.7966 79.2414 38.21 79.1482 38.6316 79.1482C39.1099 79.1482 39.5273 79.2657 39.884 79.5008C40.2488 79.7359 40.5285 80.048 40.7231 80.4371C40.9176 80.8181 41.0149 81.2235 41.0149 81.6531C41.0149 82.1557 40.8974 82.5975 40.6623 82.9786C40.4272 83.3515 40.111 83.6433 39.7138 83.8541C39.3166 84.0567 38.8829 84.1581 38.4127 84.1581ZM38.7653 83.927C39.1869 83.927 39.5111 83.769 39.7381 83.4528C39.9732 83.1366 40.0908 82.6543 40.0908 82.0058C40.0908 81.495 40.0097 81.0411 39.8476 80.6438C39.6854 80.2466 39.4625 79.9386 39.1788 79.7197C38.895 79.5008 38.5789 79.3914 38.2303 79.3914C37.8168 79.3914 37.4966 79.5454 37.2696 79.8534C37.0427 80.1615 36.9292 80.6114 36.9292 81.2032C36.9292 81.7058 37.0062 82.1679 37.1602 82.5894C37.3223 83.0029 37.5412 83.3312 37.8168 83.5744C38.0925 83.8095 38.4086 83.927 38.7653 83.927ZM44.9845 81.4099C45.9006 81.4991 46.3586 81.8679 46.3586 82.5165C46.3586 82.9542 46.1843 83.315 45.8357 83.5987C45.4871 83.8825 45.0412 84.0243 44.4981 84.0243C44.3927 84.0243 44.1617 84.0162 43.805 84C43.4321 83.9838 43.1605 83.9757 42.9903 83.9757L42.3336 83.9878C42.212 83.9959 42.0458 84 41.8351 84C41.8107 84 41.7986 83.9757 41.7986 83.927C41.7986 83.8784 41.8107 83.8541 41.8351 83.8541C42.0539 83.8541 42.2161 83.8338 42.3215 83.7933C42.4268 83.7527 42.4958 83.6757 42.5282 83.5622C42.5687 83.4406 42.589 83.2582 42.589 83.015V80.2912C42.589 80.048 42.5687 79.8697 42.5282 79.7562C42.4958 79.6346 42.4268 79.5535 42.3215 79.513C42.2242 79.4724 42.0661 79.4522 41.8472 79.4522C41.8229 79.4522 41.8107 79.4278 41.8107 79.3792C41.8107 79.3306 41.8229 79.3062 41.8472 79.3062L42.9903 79.3184L43.6226 79.3062C43.9306 79.29 44.1657 79.2819 44.3279 79.2819C44.8224 79.2819 45.1993 79.3589 45.4587 79.513C45.7182 79.667 45.8479 79.898 45.8479 80.2061C45.8479 80.4169 45.7749 80.6195 45.629 80.8141C45.4912 81.0086 45.2763 81.2073 44.9845 81.4099ZM44.0239 79.4643C43.8374 79.4643 43.6955 79.4846 43.5983 79.5251C43.5091 79.5657 43.4442 79.6467 43.4037 79.7683C43.3713 79.8818 43.3551 80.0642 43.3551 80.3155V81.3978H44.5832H44.7048C44.8994 81.1627 44.9967 80.8627 44.9967 80.4979C44.9967 80.1412 44.9156 79.8818 44.7535 79.7197C44.5913 79.5494 44.3481 79.4643 44.0239 79.4643ZM44.2914 83.8176C45.0858 83.8176 45.4831 83.4731 45.4831 82.784C45.4831 82.4192 45.3736 82.1314 45.1547 81.9206C44.944 81.7099 44.6116 81.6045 44.1576 81.6045H43.3551V83.015C43.3551 83.3069 43.4199 83.5136 43.5496 83.6352C43.6793 83.7568 43.9266 83.8176 44.2914 83.8176ZM49.6346 84.1581C49.1563 84.1581 48.7347 84.0446 48.3699 83.8176C48.0132 83.5825 47.7335 83.2704 47.5309 82.8813C47.3363 82.4841 47.239 82.0544 47.239 81.5923C47.239 81.0654 47.3687 80.6195 47.6282 80.2547C47.8876 79.8818 48.2159 79.6062 48.6131 79.4278C49.0185 79.2414 49.4319 79.1482 49.8534 79.1482C50.3317 79.1482 50.7492 79.2657 51.1059 79.5008C51.4707 79.7359 51.7504 80.048 51.945 80.4371C52.1395 80.8181 52.2368 81.2235 52.2368 81.6531C52.2368 82.1557 52.1193 82.5975 51.8842 82.9786C51.6491 83.3515 51.3329 83.6433 50.9357 83.8541C50.5385 84.0567 50.1047 84.1581 49.6346 84.1581ZM49.9872 83.927C50.4087 83.927 50.733 83.769 50.96 83.4528C51.1951 83.1366 51.3126 82.6543 51.3126 82.0058C51.3126 81.495 51.2316 81.0411 51.0694 80.6438C50.9073 80.2466 50.6844 79.9386 50.4006 79.7197C50.1169 79.5008 49.8007 79.3914 49.4522 79.3914C49.0387 79.3914 48.7185 79.5454 48.4915 79.8534C48.2645 80.1615 48.151 80.6114 48.151 81.2032C48.151 81.7058 48.2281 82.1679 48.3821 82.5894C48.5442 83.0029 48.7631 83.3312 49.0387 83.5744C49.3143 83.8095 49.6305 83.927 49.9872 83.927ZM57.8896 83.8541C57.9301 83.8541 57.9504 83.8784 57.9504 83.927C57.9504 83.9757 57.9301 84 57.8896 84C57.7518 84 57.5532 83.9919 57.2937 83.9757C57.0181 83.9595 56.8155 83.9514 56.6857 83.9514C56.5723 83.9514 56.402 83.9595 56.175 83.9757C55.9318 83.9919 55.7575 84 55.6521 84C55.6197 84 55.6035 83.9757 55.6035 83.927C55.6035 83.8784 55.6197 83.8541 55.6521 83.8541C55.9845 83.8541 56.1507 83.7325 56.1507 83.4893C56.1507 83.3515 56.098 83.1812 55.9926 82.9786L54.7523 80.3398L53.8281 82.5043C53.6822 82.8448 53.6093 83.1204 53.6093 83.3312C53.6093 83.6798 53.8038 83.8541 54.1929 83.8541C54.2335 83.8541 54.2537 83.8784 54.2537 83.927C54.2537 83.9757 54.2335 84 54.1929 84C54.1038 84 53.9781 83.9919 53.816 83.9757C53.6539 83.9595 53.4998 83.9514 53.3539 83.9514C53.1837 83.9514 53.0175 83.9595 52.8553 83.9757C52.7094 83.9919 52.5797 84 52.4662 84C52.4257 84 52.4054 83.9757 52.4054 83.927C52.4054 83.8784 52.4257 83.8541 52.4662 83.8541C52.6121 83.8541 52.7662 83.7527 52.9283 83.5501C53.0985 83.3393 53.3053 82.9542 53.5485 82.3949L54.959 79.1238C54.9752 79.0914 54.9996 79.0752 55.032 79.0752C55.0644 79.0752 55.0887 79.0914 55.1049 79.1238L56.6128 82.3341C56.8317 82.8043 56.9938 83.1366 57.0992 83.3312C57.2127 83.5258 57.3262 83.6636 57.4397 83.7446C57.5532 83.8176 57.7031 83.8541 57.8896 83.8541ZM61.0295 81.2397C62.132 81.2397 62.6833 81.6612 62.6833 82.5043C62.6833 82.9502 62.5211 83.315 62.1969 83.5987C61.8807 83.8825 61.4713 84.0243 60.9687 84.0243L60.2878 84C59.8986 83.9838 59.623 83.9757 59.4609 83.9757L58.8042 83.9878C58.6826 83.9959 58.5165 84 58.3057 84C58.2814 84 58.2692 83.9757 58.2692 83.927C58.2692 83.8784 58.2814 83.8541 58.3057 83.8541C58.5246 83.8541 58.6867 83.8338 58.7921 83.7933C58.8975 83.7527 58.9664 83.6757 58.9988 83.5622C59.0393 83.4406 59.0596 83.2582 59.0596 83.015V80.2912C59.0596 80.048 59.0393 79.8697 58.9988 79.7562C58.9664 79.6346 58.8975 79.5535 58.7921 79.513C58.6948 79.4724 58.5367 79.4522 58.3178 79.4522C58.2935 79.4522 58.2814 79.4278 58.2814 79.3792C58.2814 79.3306 58.2935 79.3062 58.3178 79.3062C58.5205 79.3062 58.6786 79.3103 58.7921 79.3184L59.4609 79.3306L60.1783 79.3184C60.308 79.3103 60.4864 79.3062 60.7134 79.3062C60.7377 79.3062 60.7498 79.3306 60.7498 79.3792C60.7498 79.4278 60.7377 79.4522 60.7134 79.4522C60.4539 79.4522 60.2634 79.4765 60.1418 79.5251C60.0202 79.5738 59.9351 79.6589 59.8865 79.7805C59.8459 79.894 59.8257 80.0723 59.8257 80.3155V81.4099C60.1743 81.2964 60.5755 81.2397 61.0295 81.2397ZM60.7377 83.8419C61.4673 83.8419 61.8321 83.4893 61.8321 82.784C61.8321 82.3706 61.7307 82.0503 61.5281 81.8234C61.3335 81.5883 61.0255 81.4707 60.6039 81.4707C60.3121 81.4707 60.0527 81.5072 59.8257 81.5802V83.015C59.8257 83.315 59.8865 83.5298 60.0081 83.6595C60.1378 83.7811 60.381 83.8419 60.7377 83.8419ZM65.7724 84.1459C65.2455 84.1459 64.8036 84.0324 64.447 83.8054C64.0903 83.5703 63.8227 83.2704 63.6444 82.9056C63.4742 82.5408 63.389 82.1557 63.389 81.7504C63.389 81.2316 63.5228 80.7817 63.7903 80.4006C64.0578 80.0115 64.3983 79.7156 64.8118 79.513C65.2252 79.3022 65.6508 79.1968 66.0886 79.1968C66.4534 79.1968 66.7817 79.2698 67.0735 79.4157C67.3735 79.5616 67.5234 79.744 67.5234 79.9629C67.5234 80.0845 67.4788 80.1858 67.3897 80.2669C67.3086 80.3479 67.1992 80.3885 67.0614 80.3885C66.8019 80.3885 66.6074 80.2426 66.4777 79.9507C66.3885 79.7724 66.2831 79.6427 66.1615 79.5616C66.048 79.4805 65.8818 79.44 65.663 79.44C65.2252 79.44 64.8847 79.6183 64.6415 79.975C64.3983 80.3236 64.2767 80.7898 64.2767 81.3734C64.2767 82.0544 64.4429 82.6138 64.7753 83.0515C65.1076 83.4812 65.6143 83.696 66.2953 83.696C66.7574 83.696 67.1627 83.5663 67.5113 83.3069H67.5356C67.5599 83.3069 67.5802 83.319 67.5964 83.3434C67.6207 83.3677 67.6207 83.3879 67.5964 83.4042C67.3127 83.6636 67.0249 83.8541 66.733 83.9757C66.4493 84.0892 66.1291 84.1459 65.7724 84.1459ZM69.4458 84C69.4214 84 69.4093 83.9757 69.4093 83.927C69.4093 83.8784 69.4214 83.8541 69.4458 83.8541C69.6727 83.8541 69.8349 83.8338 69.9322 83.7933C70.0375 83.7527 70.1105 83.6757 70.151 83.5622C70.1916 83.4406 70.2118 83.2582 70.2118 83.015V80.3155C70.2118 79.9831 70.1754 79.7643 70.1024 79.6589C70.0375 79.5535 69.8916 79.5008 69.6646 79.5008C69.3242 79.5008 69.0647 79.6143 68.8864 79.8413C68.7081 80.0683 68.6027 80.4169 68.5702 80.887C68.5702 80.9033 68.5459 80.9114 68.4973 80.9114C68.4567 80.9114 68.4365 80.9033 68.4365 80.887L68.4122 80.1574C68.4041 80.0683 68.3959 79.9629 68.3878 79.8413C68.3797 79.7116 68.3757 79.5657 68.3757 79.4035C68.3757 79.3549 68.3797 79.3265 68.3878 79.3184C68.3959 79.3022 68.4243 79.2941 68.473 79.2941C68.6432 79.2941 68.7932 79.2981 68.9229 79.3062L70.5645 79.3184L72.2304 79.3062C72.3682 79.2981 72.5263 79.2941 72.7046 79.2941C72.7533 79.2941 72.7817 79.3022 72.7898 79.3184C72.7979 79.3265 72.8019 79.3549 72.8019 79.4035C72.8019 79.5413 72.7938 79.7724 72.7776 80.0966L72.7533 80.887C72.7533 80.9033 72.729 80.9114 72.6803 80.9114C72.6317 80.9114 72.6074 80.9033 72.6074 80.887C72.5668 80.4087 72.4574 80.0602 72.279 79.8413C72.1088 79.6143 71.8534 79.5008 71.513 79.5008C71.2941 79.5008 71.1482 79.5575 71.0752 79.671C71.0103 79.7764 70.9779 79.9913 70.9779 80.3155V83.015C70.9779 83.2582 70.9941 83.4406 71.0266 83.5622C71.0671 83.6757 71.136 83.7527 71.2333 83.7933C71.3387 83.8338 71.5008 83.8541 71.7197 83.8541C71.744 83.8541 71.7562 83.8784 71.7562 83.927C71.7562 83.9757 71.744 84 71.7197 84C71.5089 84 71.3427 83.9959 71.2211 83.9878L70.601 83.9757L69.9565 83.9878C69.8349 83.9959 69.6646 84 69.4458 84ZM76.7264 81.4099C77.6424 81.4991 78.1005 81.8679 78.1005 82.5165C78.1005 82.9542 77.9262 83.315 77.5776 83.5987C77.229 83.8825 76.7831 84.0243 76.24 84.0243C76.1346 84.0243 75.9035 84.0162 75.5469 84C75.1739 83.9838 74.9024 83.9757 74.7321 83.9757L74.0755 83.9878C73.9539 83.9959 73.7877 84 73.5769 84C73.5526 84 73.5405 83.9757 73.5405 83.927C73.5405 83.8784 73.5526 83.8541 73.5769 83.8541C73.7958 83.8541 73.9579 83.8338 74.0633 83.7933C74.1687 83.7527 74.2376 83.6757 74.2701 83.5622C74.3106 83.4406 74.3309 83.2582 74.3309 83.015V80.2912C74.3309 80.048 74.3106 79.8697 74.2701 79.7562C74.2376 79.6346 74.1687 79.5535 74.0633 79.513C73.9661 79.4724 73.808 79.4522 73.5891 79.4522C73.5648 79.4522 73.5526 79.4278 73.5526 79.3792C73.5526 79.3306 73.5648 79.3062 73.5891 79.3062L74.7321 79.3184L75.3645 79.3062C75.6725 79.29 75.9076 79.2819 76.0697 79.2819C76.5642 79.2819 76.9412 79.3589 77.2006 79.513C77.46 79.667 77.5897 79.898 77.5897 80.2061C77.5897 80.4169 77.5168 80.6195 77.3709 80.8141C77.233 81.0086 77.0182 81.2073 76.7264 81.4099ZM75.7657 79.4643C75.5793 79.4643 75.4374 79.4846 75.3401 79.5251C75.251 79.5657 75.1861 79.6467 75.1456 79.7683C75.1131 79.8818 75.0969 80.0642 75.0969 80.3155V81.3978H76.3251H76.4467C76.6413 81.1627 76.7385 80.8627 76.7385 80.4979C76.7385 80.1412 76.6575 79.8818 76.4953 79.7197C76.3332 79.5494 76.09 79.4643 75.7657 79.4643ZM76.0333 83.8176C76.8277 83.8176 77.2249 83.4731 77.2249 82.784C77.2249 82.4192 77.1155 82.1314 76.8966 81.9206C76.6858 81.7099 76.3535 81.6045 75.8995 81.6045H75.0969V83.015C75.0969 83.3069 75.1618 83.5136 75.2915 83.6352C75.4212 83.7568 75.6685 83.8176 76.0333 83.8176ZM84.4651 83.8541C84.4813 83.8541 84.4894 83.8784 84.4894 83.927C84.4894 83.9757 84.4813 84 84.4651 84C84.2543 84 84.0881 83.9959 83.9665 83.9878L83.3464 83.9757L82.6776 83.9878C82.556 83.9959 82.3938 84 82.1912 84C82.1668 84 82.1547 83.9757 82.1547 83.927C82.1547 83.8784 82.1668 83.8541 82.1912 83.8541C82.4181 83.8541 82.5803 83.8338 82.6776 83.7933C82.7829 83.7527 82.8559 83.6757 82.8964 83.5622C82.937 83.4406 82.9572 83.2582 82.9572 83.015V80.2547L79.8443 84.0851C79.7956 84.1094 79.7673 84.1216 79.7592 84.1216C79.7267 84.1216 79.6943 84.1135 79.6619 84.0973C79.6294 84.0892 79.6132 84.077 79.6132 84.0608V80.2912C79.6132 80.048 79.593 79.8697 79.5524 79.7562C79.52 79.6346 79.4511 79.5535 79.3457 79.513C79.2484 79.4724 79.0904 79.4522 78.8715 79.4522C78.8553 79.4522 78.8472 79.4278 78.8472 79.3792C78.8472 79.3306 78.8553 79.3062 78.8715 79.3062C79.066 79.3062 79.216 79.3103 79.3214 79.3184L79.978 79.3306L80.7441 79.3184C80.8414 79.3103 80.9752 79.3062 81.1454 79.3062C81.1697 79.3062 81.1819 79.3306 81.1819 79.3792C81.1819 79.4278 81.1697 79.4522 81.1454 79.4522C80.9184 79.4522 80.7522 79.4724 80.6468 79.513C80.5496 79.5535 80.4806 79.6346 80.4401 79.7562C80.3996 79.8697 80.3793 80.048 80.3793 80.2912V83.0394L83.4801 79.2333C83.5044 79.209 83.5369 79.1968 83.5774 79.1968C83.6666 79.1968 83.7112 79.2171 83.7112 79.2576V83.015C83.7112 83.2582 83.7274 83.4406 83.7598 83.5622C83.8003 83.6757 83.8733 83.7527 83.9787 83.7933C84.0841 83.8338 84.2462 83.8541 84.4651 83.8541ZM89.2041 83.2947C89.2284 83.2947 89.2486 83.3109 89.2649 83.3434C89.2892 83.3677 89.2932 83.392 89.277 83.4163C88.7339 83.9027 88.134 84.1459 87.4773 84.1459C86.999 84.1459 86.5897 84.0405 86.2492 83.8298C85.9087 83.6109 85.6493 83.3231 85.4709 82.9664C85.2926 82.6016 85.2034 82.2125 85.2034 81.799C85.2034 81.3207 85.3169 80.883 85.5439 80.4858C85.779 80.0885 86.0951 79.7764 86.4924 79.5494C86.8896 79.3143 87.3274 79.1968 87.8057 79.1968C88.2758 79.1968 88.6325 79.3184 88.8757 79.5616C89.127 79.7967 89.2527 80.1372 89.2527 80.583C89.2527 80.8019 89.2041 80.9114 89.1068 80.9114L86.1033 80.9235C86.087 81.1019 86.0789 81.2397 86.0789 81.337C86.0789 82.0422 86.2451 82.6097 86.5775 83.0394C86.9099 83.469 87.3801 83.6838 87.9881 83.6838C88.2313 83.6838 88.4339 83.6555 88.5961 83.5987C88.7663 83.5339 88.9649 83.4325 89.1919 83.2947H89.2041ZM87.3922 79.44C87.0517 79.44 86.7721 79.5575 86.5532 79.7926C86.3343 80.0196 86.1924 80.3398 86.1276 80.7533L88.3407 80.7046C88.3407 80.2912 88.2556 79.9791 88.0853 79.7683C87.9232 79.5494 87.6922 79.44 87.3922 79.44Z" fill="black"/>
</svg>
