<svg width="114" height="160" viewBox="0 0 114 160" fill="none" xmlns="http://www.w3.org/2000/svg">
<rect x="0.38" y="-0.38" width="113.24" height="158.84" rx="7.22" transform="matrix(1 0 0 -1 0 158.842)" fill="white" stroke="white" stroke-width="0.76"/>
<path d="M20.9744 23.2754C17.7733 23.2754 11.3984 24.8632 11.3984 28.0254L11.3984 30.4004H30.5504V28.0254C30.5504 24.8632 24.1756 23.2754 20.9744 23.2754ZM14.5996 27.6861C15.7487 26.899 18.5257 25.9897 20.9744 25.9897C23.4232 25.9897 26.2002 26.899 27.3493 27.6861H14.5996ZM20.9744 20.9004C23.6147 20.9004 25.7624 18.7697 25.7624 16.1504C25.7624 13.5311 23.6147 11.4004 20.9744 11.4004C18.3342 11.4004 16.1864 13.5311 16.1864 16.1504C16.1864 18.7697 18.3342 20.9004 20.9744 20.9004ZM20.9744 14.1147C22.1099 14.1147 23.0264 15.024 23.0264 16.1504C23.0264 17.2768 22.1099 18.1861 20.9744 18.1861C19.839 18.1861 18.9224 17.2768 18.9224 16.1504C18.9224 15.024 19.839 14.1147 20.9744 14.1147ZM30.6052 23.3568C32.192 24.4968 33.2864 26.0168 33.2864 28.0254V30.4004H38.7584V28.0254C38.7584 25.284 33.9704 23.7232 30.6052 23.3568ZM29.1824 20.9004C31.8227 20.9004 33.9704 18.7697 33.9704 16.1504C33.9704 13.5311 31.8227 11.4004 29.1824 11.4004C28.4437 11.4004 27.7597 11.5768 27.1304 11.8754C27.9923 13.0832 28.4984 14.5625 28.4984 16.1504C28.4984 17.7382 27.9923 19.2175 27.1304 20.4254C27.7597 20.724 28.4437 20.9004 29.1824 20.9004Z" fill="black"/>
<path d="M20.9744 14.1147C22.1099 14.1147 23.0264 15.024 23.0264 16.1504C23.0264 17.2768 22.1099 18.1861 20.9744 18.1861C19.839 18.1861 18.9224 17.2768 18.9224 16.1504C18.9224 15.024 19.839 14.1147 20.9744 14.1147Z" fill="black"/>
<path d="M14.5996 27.6861C15.7487 26.899 18.5257 25.9897 20.9744 25.9897C23.4232 25.9897 26.2002 26.899 27.3493 27.6861H14.5996Z" fill="black"/>
<path d="M84.8143 141.076C81.6132 141.076 75.2383 142.664 75.2383 145.826V148.201H94.3903V145.826C94.3903 142.664 88.0154 141.076 84.8143 141.076ZM78.4394 145.487C79.5885 144.7 82.3656 143.79 84.8143 143.79C87.263 143.79 90.04 144.7 91.1892 145.487H78.4394ZM84.8143 138.701C87.4545 138.701 89.6023 136.57 89.6023 133.951C89.6023 131.332 87.4545 129.201 84.8143 129.201C82.174 129.201 80.0263 131.332 80.0263 133.951C80.0263 136.57 82.174 138.701 84.8143 138.701ZM84.8143 131.915C85.9497 131.915 86.8663 132.825 86.8663 133.951C86.8663 135.078 85.9497 135.987 84.8143 135.987C83.6788 135.987 82.7623 135.078 82.7623 133.951C82.7623 132.825 83.6788 131.915 84.8143 131.915ZM94.445 141.158C96.0319 142.298 97.1263 143.818 97.1263 145.826V148.201H102.598V145.826C102.598 143.085 97.8103 141.524 94.445 141.158ZM93.0223 138.701C95.6625 138.701 97.8103 136.57 97.8103 133.951C97.8103 131.332 95.6625 129.201 93.0223 129.201C92.2836 129.201 91.5996 129.378 90.9703 129.676C91.8321 130.884 92.3383 132.363 92.3383 133.951C92.3383 135.539 91.8321 137.018 90.9703 138.226C91.5996 138.525 92.2836 138.701 93.0223 138.701Z" fill="black"/>
<path d="M84.8143 131.915C85.9497 131.915 86.8663 132.825 86.8663 133.951C86.8663 135.078 85.9497 135.987 84.8143 135.987C83.6788 135.987 82.7623 135.078 82.7623 133.951C82.7623 132.825 83.6788 131.915 84.8143 131.915Z" fill="black"/>
<path d="M78.4394 145.487C79.5885 144.7 82.3656 143.79 84.8143 143.79C87.263 143.79 90.04 144.7 91.1892 145.487H78.4394Z" fill="black"/>
<path d="M47.2355 84.1459C46.7086 84.1459 46.2668 84.0324 45.9101 83.8054C45.5534 83.5703 45.2859 83.2704 45.1075 82.9056C44.9373 82.5408 44.8522 82.1557 44.8522 81.7504C44.8522 81.2316 44.9859 80.7817 45.2534 80.4006C45.521 80.0115 45.8614 79.7156 46.2749 79.513C46.6883 79.3022 47.1139 79.1968 47.5517 79.1968C47.9165 79.1968 48.2448 79.2698 48.5366 79.4157C48.8366 79.5616 48.9866 79.744 48.9866 79.9629C48.9866 80.0845 48.942 80.1858 48.8528 80.2669C48.7717 80.3479 48.6623 80.3885 48.5245 80.3885C48.2651 80.3885 48.0705 80.2426 47.9408 79.9507C47.8516 79.7724 47.7462 79.6427 47.6246 79.5616C47.5112 79.4805 47.345 79.44 47.1261 79.44C46.6883 79.44 46.3478 79.6183 46.1046 79.975C45.8614 80.3236 45.7398 80.7898 45.7398 81.3734C45.7398 82.0544 45.906 82.6138 46.2384 83.0515C46.5708 83.4812 47.0774 83.696 47.7584 83.696C48.2205 83.696 48.6258 83.5663 48.9744 83.3069H48.9987C49.023 83.3069 49.0433 83.319 49.0595 83.3434C49.0838 83.3677 49.0838 83.3879 49.0595 83.4042C48.7758 83.6636 48.488 83.8541 48.1962 83.9757C47.9124 84.0892 47.5922 84.1459 47.2355 84.1459ZM52.9882 81.4099C53.9043 81.4991 54.3623 81.8679 54.3623 82.5165C54.3623 82.9542 54.188 83.315 53.8394 83.5987C53.4909 83.8825 53.045 84.0243 52.5018 84.0243C52.3965 84.0243 52.1654 84.0162 51.8087 84C51.4358 83.9838 51.1642 83.9757 50.994 83.9757L50.3374 83.9878C50.2158 83.9959 50.0496 84 49.8388 84C49.8145 84 49.8023 83.9757 49.8023 83.927C49.8023 83.8784 49.8145 83.8541 49.8388 83.8541C50.0577 83.8541 50.2198 83.8338 50.3252 83.7933C50.4306 83.7527 50.4995 83.6757 50.5319 83.5622C50.5725 83.4406 50.5927 83.2582 50.5927 83.015V80.2912C50.5927 80.048 50.5725 79.8697 50.5319 79.7562C50.4995 79.6346 50.4306 79.5535 50.3252 79.513C50.2279 79.4724 50.0698 79.4522 49.851 79.4522C49.8266 79.4522 49.8145 79.4278 49.8145 79.3792C49.8145 79.3306 49.8266 79.3062 49.851 79.3062L50.994 79.3184L51.6263 79.3062C51.9344 79.29 52.1695 79.2819 52.3316 79.2819C52.8261 79.2819 53.2031 79.3589 53.4625 79.513C53.7219 79.667 53.8516 79.898 53.8516 80.2061C53.8516 80.4169 53.7786 80.6195 53.6327 80.8141C53.4949 81.0086 53.2801 81.2073 52.9882 81.4099ZM52.0276 79.4643C51.8412 79.4643 51.6993 79.4846 51.602 79.5251C51.5128 79.5657 51.448 79.6467 51.4074 79.7683C51.375 79.8818 51.3588 80.0642 51.3588 80.3155V81.3978H52.587H52.7086C52.9031 81.1627 53.0004 80.8627 53.0004 80.4979C53.0004 80.1412 52.9193 79.8818 52.7572 79.7197C52.5951 79.5494 52.3519 79.4643 52.0276 79.4643ZM52.2951 83.8176C53.0896 83.8176 53.4868 83.4731 53.4868 82.784C53.4868 82.4192 53.3774 82.1314 53.1585 81.9206C52.9477 81.7099 52.6153 81.6045 52.1614 81.6045H51.3588V83.015C51.3588 83.3069 51.4237 83.5136 51.5534 83.6352C51.6831 83.7568 51.9303 83.8176 52.2951 83.8176ZM59.5717 83.8541C59.5961 83.8541 59.6082 83.8784 59.6082 83.927C59.6082 83.9757 59.5961 84 59.5717 84C59.3853 84 59.2394 83.9959 59.134 83.9878L58.526 83.9757L57.8572 83.9878C57.7518 83.9959 57.5978 84 57.3951 84C57.3789 84 57.3708 83.9757 57.3708 83.927C57.3708 83.8784 57.3789 83.8541 57.3951 83.8541C57.6059 83.8541 57.7599 83.8338 57.8572 83.7933C57.9545 83.7527 58.0193 83.6757 58.0517 83.5622C58.0842 83.4487 58.1004 83.2663 58.1004 83.015V81.8355C57.8085 81.8517 57.5491 81.945 57.3221 82.1152C57.0952 82.2854 56.8641 82.5854 56.629 83.015L56.4709 83.3069C56.325 83.5906 56.2196 83.7771 56.1548 83.8662C56.0899 83.9554 56.0129 84 55.9237 84H54.805C54.7888 84 54.7807 83.9757 54.7807 83.927C54.7807 83.8784 54.7888 83.8541 54.805 83.8541C55.0482 83.8541 55.2387 83.7771 55.3765 83.623C55.5225 83.4609 55.636 83.3028 55.717 83.1488C55.7981 82.9948 55.8508 82.8975 55.8751 82.857C56.1994 82.2652 56.6736 81.9247 57.2978 81.8355C56.2683 81.7626 55.7535 81.3532 55.7535 80.6074C55.7535 80.1939 55.9035 79.8697 56.2034 79.6346C56.5034 79.3914 56.8925 79.2698 57.3708 79.2698C57.4843 79.2698 57.6788 79.2779 57.9545 79.2941C58.149 79.3184 58.3395 79.3306 58.526 79.3306L59.1218 79.3184C59.2272 79.3103 59.3731 79.3062 59.5596 79.3062C59.5839 79.3062 59.5961 79.3306 59.5961 79.3792C59.5961 79.4278 59.5839 79.4522 59.5596 79.4522C59.365 79.4522 59.2191 79.4765 59.1218 79.5251C59.0245 79.5657 58.9556 79.6427 58.9151 79.7562C58.8746 79.8697 58.8543 80.048 58.8543 80.2912V83.015C58.8543 83.2501 58.8746 83.4285 58.9151 83.5501C58.9556 83.6636 59.0245 83.7446 59.1218 83.7933C59.2272 83.8338 59.3772 83.8541 59.5717 83.8541ZM56.5682 80.352C56.5682 80.733 56.6615 81.0492 56.8479 81.3005C57.0425 81.5518 57.314 81.6774 57.6626 81.6774C57.7599 81.6774 57.9058 81.6693 58.1004 81.6531V80.3155C58.1004 79.9588 58.0558 79.7197 57.9666 79.5981C57.8856 79.4765 57.7113 79.4157 57.4437 79.4157C57.1519 79.4157 56.933 79.4886 56.7871 79.6346C56.6412 79.7805 56.5682 80.0196 56.5682 80.352ZM62.6586 81.3734C63.1044 81.414 63.449 81.5599 63.6922 81.8112C63.9435 82.0625 64.0691 82.3665 64.0691 82.7232C64.0691 83.1691 63.8827 83.5177 63.5098 83.769C63.145 84.0203 62.6788 84.1459 62.1114 84.1459C61.8439 84.1459 61.5844 84.1175 61.3331 84.0608C61.0899 84.0122 60.8792 83.9433 60.7008 83.8541C60.6441 83.8217 60.6076 83.7973 60.5914 83.7811C60.5752 83.7568 60.563 83.7122 60.5549 83.6474L60.4576 82.6016C60.4576 82.5773 60.4779 82.5611 60.5184 82.553C60.559 82.5449 60.5833 82.557 60.5914 82.5894C60.7211 83.011 60.9238 83.3434 61.1994 83.5866C61.475 83.8298 61.7952 83.9514 62.16 83.9514C62.4924 83.9514 62.7396 83.85 62.9018 83.6474C63.072 83.4447 63.1571 83.1691 63.1571 82.8205C63.1571 81.945 62.6667 81.5072 61.6858 81.5072C61.6452 81.5072 61.6209 81.4869 61.6128 81.4464C61.6128 81.3978 61.6371 81.3734 61.6858 81.3734C62.1479 81.3734 62.4802 81.2924 62.6829 81.1302C62.8856 80.9681 62.9869 80.733 62.9869 80.425C62.9869 79.7359 62.691 79.3914 62.0992 79.3914C61.775 79.3914 61.5074 79.4967 61.2967 79.7075C61.0859 79.9102 60.8994 80.2101 60.7373 80.6074C60.7292 80.6155 60.713 80.6195 60.6887 80.6195C60.6157 80.6195 60.5833 80.6074 60.5914 80.583L60.8832 79.0509C60.8832 79.0347 60.8994 79.0266 60.9319 79.0266C60.9562 79.0266 60.9805 79.0347 61.0048 79.0509C61.0291 79.059 61.0372 79.0671 61.0291 79.0752C61.021 79.0995 61.017 79.136 61.017 79.1846C61.017 79.3225 61.0818 79.3914 61.2115 79.3914C61.2926 79.3914 61.402 79.363 61.5399 79.3062C61.5723 79.2981 61.6696 79.2698 61.8317 79.2211C62.0019 79.1725 62.2127 79.1482 62.464 79.1482C62.8937 79.1482 63.2301 79.2454 63.4733 79.44C63.7165 79.6265 63.8381 79.8737 63.8381 80.1818C63.8381 80.4412 63.7327 80.6803 63.5219 80.8992C63.3112 81.11 63.0234 81.2681 62.6586 81.3734ZM70.4169 83.8541C70.4332 83.8541 70.4413 83.8784 70.4413 83.927C70.4413 83.9757 70.4332 84 70.4169 84C70.2062 84 70.04 83.9959 69.9184 83.9878L69.2982 83.9757L68.6294 83.9878C68.5078 83.9959 68.3457 84 68.143 84C68.1187 84 68.1065 83.9757 68.1065 83.927C68.1065 83.8784 68.1187 83.8541 68.143 83.8541C68.37 83.8541 68.5321 83.8338 68.6294 83.7933C68.7348 83.7527 68.8078 83.6757 68.8483 83.5622C68.8888 83.4406 68.9091 83.2582 68.9091 83.015V80.2547L65.7961 84.0851C65.7475 84.1094 65.7191 84.1216 65.711 84.1216C65.6786 84.1216 65.6462 84.1135 65.6137 84.0973C65.5813 84.0892 65.5651 84.077 65.5651 84.0608V80.2912C65.5651 80.048 65.5448 79.8697 65.5043 79.7562C65.4719 79.6346 65.403 79.5535 65.2976 79.513C65.2003 79.4724 65.0422 79.4522 64.8233 79.4522C64.8071 79.4522 64.799 79.4278 64.799 79.3792C64.799 79.3306 64.8071 79.3062 64.8233 79.3062C65.0179 79.3062 65.1679 79.3103 65.2733 79.3184L65.9299 79.3306L66.696 79.3184C66.7933 79.3103 66.927 79.3062 67.0973 79.3062C67.1216 79.3062 67.1337 79.3306 67.1337 79.3792C67.1337 79.4278 67.1216 79.4522 67.0973 79.4522C66.8703 79.4522 66.7041 79.4724 66.5987 79.513C66.5014 79.5535 66.4325 79.6346 66.392 79.7562C66.3515 79.8697 66.3312 80.048 66.3312 80.2912V83.0394L69.432 79.2333C69.4563 79.209 69.4887 79.1968 69.5293 79.1968C69.6184 79.1968 69.663 79.2171 69.663 79.2576V83.015C69.663 83.2582 69.6792 83.4406 69.7117 83.5622C69.7522 83.6757 69.8252 83.7527 69.9305 83.7933C70.0359 83.8338 70.1981 83.8541 70.4169 83.8541Z" fill="black"/>
</svg>
