<svg width="114" height="160" viewBox="0 0 114 160" fill="none" xmlns="http://www.w3.org/2000/svg">
<rect x="0.38" y="-0.38" width="113.24" height="158.84" rx="7.22" transform="matrix(1 0 0 -1 0 158.842)" fill="white" stroke="white" stroke-width="0.76"/>
<path d="M15.5823 22.0483V26.2321L22.904 30.2277L30.2257 26.2321V22.0483L22.904 26.0438L15.5823 22.0483ZM22.904 11.4004L11.3984 17.6761L22.904 23.9519L32.3176 18.8162V26.0438H34.4095V17.6761L22.904 11.4004Z" fill="black"/>
<path d="M83.9846 139.849V144.033L91.3063 148.028L98.6281 144.033V139.849L91.3063 143.845L83.9846 139.849ZM91.3063 129.201L79.8008 135.477L91.3063 141.753L100.72 136.617V143.845H102.812V135.477L91.3063 129.201Z" fill="black"/>
<path d="M38.8876 79.1482C39.2281 79.1482 39.5402 79.2373 39.8239 79.4157C40.1077 79.594 40.3347 79.8534 40.5049 80.1939C40.6751 80.5263 40.7603 80.9235 40.7603 81.3856C40.7603 82.0017 40.6224 82.5205 40.3468 82.9421C40.0793 83.3555 39.7429 83.6636 39.3375 83.8662C38.9322 84.0608 38.5309 84.1581 38.1337 84.1581C37.8905 84.1581 37.6716 84.1378 37.4771 84.0973C37.2825 84.0567 37.0879 83.9838 36.8934 83.8784V86.359C36.8934 86.6022 36.9217 86.7806 36.9785 86.8941C37.0433 87.0076 37.1568 87.0846 37.319 87.1251C37.4811 87.1738 37.7365 87.1981 38.0851 87.1981C38.1094 87.1981 38.1215 87.2224 38.1215 87.271C38.1215 87.3197 38.1094 87.344 38.0851 87.344C37.8013 87.344 37.5784 87.3399 37.4163 87.3318L36.5164 87.3197L35.7868 87.3318C35.6652 87.3399 35.495 87.344 35.2761 87.344C35.2599 87.344 35.2518 87.3197 35.2518 87.271C35.2518 87.2224 35.2599 87.1981 35.2761 87.1981C35.5193 87.1981 35.6976 87.1738 35.8111 87.1251C35.9327 87.0846 36.0138 87.0076 36.0543 86.8941C36.103 86.7806 36.1273 86.6022 36.1273 86.359V80.2912C36.1273 79.9507 36.0584 79.7278 35.9206 79.6224C35.7909 79.5089 35.5315 79.4522 35.1423 79.4522C35.1261 79.4522 35.118 79.4278 35.118 79.3792C35.118 79.3306 35.1261 79.3062 35.1423 79.3062H36.6502C36.7475 79.3062 36.8123 79.3306 36.8447 79.3792C36.8772 79.4197 36.8934 79.5008 36.8934 79.6224V80.1453C37.2339 79.8048 37.5662 79.5535 37.8905 79.3914C38.2148 79.2292 38.5471 79.1482 38.8876 79.1482ZM38.4742 83.8906C38.9038 83.8906 39.2484 83.7041 39.5078 83.3312C39.7753 82.9583 39.9091 82.4354 39.9091 81.7626C39.9091 81.0978 39.7591 80.579 39.4591 80.2061C39.1592 79.8332 38.7822 79.6467 38.3283 79.6467C38.0526 79.6467 37.8013 79.7116 37.5743 79.8413C37.3473 79.9629 37.1204 80.1412 36.8934 80.3763V83.1488C37.1041 83.392 37.3311 83.5785 37.5743 83.7082C37.8175 83.8298 38.1175 83.8906 38.4742 83.8906ZM46.2673 83.3434C46.2997 83.3434 46.32 83.3636 46.3281 83.4042C46.3362 83.4366 46.3241 83.4609 46.2916 83.4771L45.0392 84.073C45.0067 84.0892 44.9702 84.0973 44.9297 84.0973C44.8243 84.0973 44.727 84.0284 44.6379 83.8906C44.5568 83.7446 44.5001 83.5501 44.4676 83.3069L43.8596 83.7082C43.6651 83.846 43.4867 83.9433 43.3246 84C43.1706 84.0567 43.0044 84.0851 42.826 84.0851C42.518 84.0851 42.2788 84.0081 42.1086 83.8541C41.9384 83.6919 41.8532 83.4893 41.8532 83.2461C41.8532 82.9867 41.9546 82.7718 42.1572 82.6016C42.368 82.4233 42.7004 82.249 43.1544 82.0787L44.4555 81.6045V80.8019C44.4555 80.3155 44.3906 79.9629 44.2609 79.744C44.1393 79.5251 43.9569 79.4157 43.7137 79.4157C43.4462 79.4157 43.2435 79.5089 43.1057 79.6954C42.9679 79.8818 42.8787 80.0926 42.8382 80.3277C42.7896 80.6844 42.6234 80.8627 42.3396 80.8627C42.1937 80.8627 42.0843 80.8262 42.0113 80.7533C41.9384 80.6803 41.9019 80.5911 41.9019 80.4858C41.9019 80.2831 42.0275 80.0804 42.2788 79.8778C42.5382 79.6751 42.8463 79.5089 43.203 79.3792C43.5678 79.2495 43.888 79.1846 44.1636 79.1846C44.496 79.1846 44.7514 79.2941 44.9297 79.513C45.1162 79.7237 45.2094 80.0318 45.2094 80.4371V82.6867C45.2094 82.9623 45.2459 83.165 45.3188 83.2947C45.3999 83.4244 45.5215 83.4893 45.6836 83.4893C45.8296 83.4893 46.016 83.4406 46.243 83.3434H46.2673ZM44.4555 83.1245V83.0515V81.7747L43.434 82.1882C43.2152 82.2692 43.049 82.3706 42.9355 82.4922C42.822 82.6057 42.7652 82.7516 42.7652 82.9299C42.7652 83.1245 42.826 83.2866 42.9476 83.4163C43.0773 83.5379 43.2395 83.5987 43.434 83.5987C43.5962 83.5987 43.7786 83.5379 43.9812 83.4163L44.4555 83.1245ZM49.0145 81.3734C49.4604 81.414 49.8049 81.5599 50.0481 81.8112C50.2994 82.0625 50.4251 82.3665 50.4251 82.7232C50.4251 83.1691 50.2386 83.5177 49.8657 83.769C49.5009 84.0203 49.0348 84.1459 48.4673 84.1459C48.1998 84.1459 47.9404 84.1175 47.6891 84.0608C47.4459 84.0122 47.2351 83.9433 47.0568 83.8541C47 83.8217 46.9635 83.7973 46.9473 83.7811C46.9311 83.7568 46.9189 83.7122 46.9108 83.6474L46.8136 82.6016C46.8136 82.5773 46.8338 82.5611 46.8744 82.553C46.9149 82.5449 46.9392 82.557 46.9473 82.5894C47.077 83.011 47.2797 83.3434 47.5553 83.5866C47.8309 83.8298 48.1512 83.9514 48.516 83.9514C48.8483 83.9514 49.0956 83.85 49.2577 83.6474C49.428 83.4447 49.5131 83.1691 49.5131 82.8205C49.5131 81.945 49.0226 81.5072 48.0417 81.5072C48.0012 81.5072 47.9769 81.4869 47.9688 81.4464C47.9688 81.3978 47.9931 81.3734 48.0417 81.3734C48.5038 81.3734 48.8362 81.2924 49.0388 81.1302C49.2415 80.9681 49.3428 80.733 49.3428 80.425C49.3428 79.7359 49.0469 79.3914 48.4552 79.3914C48.1309 79.3914 47.8634 79.4967 47.6526 79.7075C47.4418 79.9102 47.2554 80.2101 47.0932 80.6074C47.0851 80.6155 47.0689 80.6195 47.0446 80.6195C46.9716 80.6195 46.9392 80.6074 46.9473 80.583L47.2392 79.0509C47.2392 79.0347 47.2554 79.0266 47.2878 79.0266C47.3121 79.0266 47.3364 79.0347 47.3608 79.0509C47.3851 79.059 47.3932 79.0671 47.3851 79.0752C47.377 79.0995 47.3729 79.136 47.3729 79.1846C47.3729 79.3225 47.4378 79.3914 47.5675 79.3914C47.6485 79.3914 47.758 79.363 47.8958 79.3062C47.9282 79.2981 48.0255 79.2698 48.1876 79.2211C48.3579 79.1725 48.5687 79.1482 48.82 79.1482C49.2496 79.1482 49.586 79.2454 49.8292 79.44C50.0724 79.6265 50.194 79.8737 50.194 80.1818C50.194 80.4412 50.0887 80.6803 49.8779 80.8992C49.6671 81.11 49.3793 81.2681 49.0145 81.3734ZM54.4017 81.4099C55.3177 81.4991 55.7758 81.8679 55.7758 82.5165C55.7758 82.9542 55.6015 83.315 55.2529 83.5987C54.9043 83.8825 54.4584 84.0243 53.9153 84.0243C53.8099 84.0243 53.5789 84.0162 53.2222 84C52.8493 83.9838 52.5777 83.9757 52.4074 83.9757L51.7508 83.9878C51.6292 83.9959 51.463 84 51.2522 84C51.2279 84 51.2158 83.9757 51.2158 83.927C51.2158 83.8784 51.2279 83.8541 51.2522 83.8541C51.4711 83.8541 51.6333 83.8338 51.7386 83.7933C51.844 83.7527 51.9129 83.6757 51.9454 83.5622C51.9859 83.4406 52.0062 83.2582 52.0062 83.015V80.2912C52.0062 80.048 51.9859 79.8697 51.9454 79.7562C51.9129 79.6346 51.844 79.5535 51.7386 79.513C51.6414 79.4724 51.4833 79.4522 51.2644 79.4522C51.2401 79.4522 51.2279 79.4278 51.2279 79.3792C51.2279 79.3306 51.2401 79.3062 51.2644 79.3062L52.4074 79.3184L53.0398 79.3062C53.3478 79.29 53.5829 79.2819 53.745 79.2819C54.2396 79.2819 54.6165 79.3589 54.8759 79.513C55.1353 79.667 55.265 79.898 55.265 80.2061C55.265 80.4169 55.1921 80.6195 55.0462 80.8141C54.9084 81.0086 54.6935 81.2073 54.4017 81.4099ZM53.441 79.4643C53.2546 79.4643 53.1127 79.4846 53.0154 79.5251C52.9263 79.5657 52.8614 79.6467 52.8209 79.7683C52.7885 79.8818 52.7722 80.0642 52.7722 80.3155V81.3978H54.0004H54.122C54.3166 81.1627 54.4138 80.8627 54.4138 80.4979C54.4138 80.1412 54.3328 79.8818 54.1706 79.7197C54.0085 79.5494 53.7653 79.4643 53.441 79.4643ZM53.7086 83.8176C54.503 83.8176 54.9002 83.4731 54.9002 82.784C54.9002 82.4192 54.7908 82.1314 54.5719 81.9206C54.3612 81.7099 54.0288 81.6045 53.5748 81.6045H52.7722V83.015C52.7722 83.3069 52.8371 83.5136 52.9668 83.6352C53.0965 83.7568 53.3438 83.8176 53.7086 83.8176ZM62.1404 83.8541C62.1566 83.8541 62.1647 83.8784 62.1647 83.927C62.1647 83.9757 62.1566 84 62.1404 84C61.9296 84 61.7634 83.9959 61.6418 83.9878L61.0217 83.9757L60.3529 83.9878C60.2313 83.9959 60.0691 84 59.8665 84C59.8421 84 59.83 83.9757 59.83 83.927C59.83 83.8784 59.8421 83.8541 59.8665 83.8541C60.0935 83.8541 60.2556 83.8338 60.3529 83.7933C60.4583 83.7527 60.5312 83.6757 60.5717 83.5622C60.6123 83.4406 60.6325 83.2582 60.6325 83.015V80.2547L57.5196 84.0851C57.4709 84.1094 57.4426 84.1216 57.4345 84.1216C57.402 84.1216 57.3696 84.1135 57.3372 84.0973C57.3048 84.0892 57.2885 84.077 57.2885 84.0608V80.2912C57.2885 80.048 57.2683 79.8697 57.2277 79.7562C57.1953 79.6346 57.1264 79.5535 57.021 79.513C56.9237 79.4724 56.7657 79.4522 56.5468 79.4522C56.5306 79.4522 56.5225 79.4278 56.5225 79.3792C56.5225 79.3306 56.5306 79.3062 56.5468 79.3062C56.7413 79.3062 56.8913 79.3103 56.9967 79.3184L57.6533 79.3306L58.4194 79.3184C58.5167 79.3103 58.6505 79.3062 58.8207 79.3062C58.845 79.3062 58.8572 79.3306 58.8572 79.3792C58.8572 79.4278 58.845 79.4522 58.8207 79.4522C58.5937 79.4522 58.4275 79.4724 58.3221 79.513C58.2249 79.5535 58.156 79.6346 58.1154 79.7562C58.0749 79.8697 58.0546 80.048 58.0546 80.2912V83.0394L61.1554 79.2333C61.1797 79.209 61.2122 79.1968 61.2527 79.1968C61.3419 79.1968 61.3865 79.2171 61.3865 79.2576V83.015C61.3865 83.2582 61.4027 83.4406 61.4351 83.5622C61.4756 83.6757 61.5486 83.7527 61.654 83.7933C61.7594 83.8338 61.9215 83.8541 62.1404 83.8541ZM63.9123 84C63.888 84 63.8758 83.9757 63.8758 83.927C63.8758 83.8784 63.888 83.8541 63.9123 83.8541C64.1393 83.8541 64.3014 83.8338 64.3987 83.7933C64.5041 83.7527 64.5771 83.6757 64.6176 83.5622C64.6581 83.4406 64.6784 83.2582 64.6784 83.015V80.3155C64.6784 79.9831 64.6419 79.7643 64.569 79.6589C64.5041 79.5535 64.3582 79.5008 64.1312 79.5008C63.7907 79.5008 63.5313 79.6143 63.353 79.8413C63.1746 80.0683 63.0692 80.4169 63.0368 80.887C63.0368 80.9033 63.0125 80.9114 62.9638 80.9114C62.9233 80.9114 62.903 80.9033 62.903 80.887L62.8787 80.1574C62.8706 80.0683 62.8625 79.9629 62.8544 79.8413C62.8463 79.7116 62.8422 79.5657 62.8422 79.4035C62.8422 79.3549 62.8463 79.3265 62.8544 79.3184C62.8625 79.3022 62.8909 79.2941 62.9395 79.2941C63.1098 79.2941 63.2597 79.2981 63.3894 79.3062L65.031 79.3184L66.697 79.3062C66.8348 79.2981 66.9929 79.2941 67.1712 79.2941C67.2198 79.2941 67.2482 79.3022 67.2563 79.3184C67.2644 79.3265 67.2685 79.3549 67.2685 79.4035C67.2685 79.5413 67.2604 79.7724 67.2442 80.0966L67.2198 80.887C67.2198 80.9033 67.1955 80.9114 67.1469 80.9114C67.0982 80.9114 67.0739 80.9033 67.0739 80.887C67.0334 80.4087 66.924 80.0602 66.7456 79.8413C66.5754 79.6143 66.32 79.5008 65.9795 79.5008C65.7606 79.5008 65.6147 79.5575 65.5418 79.671C65.4769 79.7764 65.4445 79.9913 65.4445 80.3155V83.015C65.4445 83.2582 65.4607 83.4406 65.4931 83.5622C65.5337 83.6757 65.6026 83.7527 65.6998 83.7933C65.8052 83.8338 65.9674 83.8541 66.1862 83.8541C66.2106 83.8541 66.2227 83.8784 66.2227 83.927C66.2227 83.9757 66.2106 84 66.1862 84C65.9755 84 65.8093 83.9959 65.6877 83.9878L65.0675 83.9757L64.423 83.9878C64.3014 83.9959 64.1312 84 63.9123 84ZM73.5641 83.8541C73.5803 83.8541 73.5885 83.8784 73.5885 83.927C73.5885 83.9757 73.5803 84 73.5641 84C73.3534 84 73.1872 83.9959 73.0656 83.9878L72.4454 83.9757L71.7766 83.9878C71.655 83.9959 71.4929 84 71.2902 84C71.2659 84 71.2537 83.9757 71.2537 83.927C71.2537 83.8784 71.2659 83.8541 71.2902 83.8541C71.5172 83.8541 71.6793 83.8338 71.7766 83.7933C71.882 83.7527 71.955 83.6757 71.9955 83.5622C72.036 83.4406 72.0563 83.2582 72.0563 83.015V80.2547L68.9433 84.0851C68.8947 84.1094 68.8663 84.1216 68.8582 84.1216C68.8258 84.1216 68.7934 84.1135 68.7609 84.0973C68.7285 84.0892 68.7123 84.077 68.7123 84.0608V80.2912C68.7123 80.048 68.692 79.8697 68.6515 79.7562C68.6191 79.6346 68.5502 79.5535 68.4448 79.513C68.3475 79.4724 68.1894 79.4522 67.9705 79.4522C67.9543 79.4522 67.9462 79.4278 67.9462 79.3792C67.9462 79.3306 67.9543 79.3062 67.9705 79.3062C68.1651 79.3062 68.3151 79.3103 68.4205 79.3184L69.0771 79.3306L69.8432 79.3184C69.9405 79.3103 70.0742 79.3062 70.2445 79.3062C70.2688 79.3062 70.2809 79.3306 70.2809 79.3792C70.2809 79.4278 70.2688 79.4522 70.2445 79.4522C70.0175 79.4522 69.8513 79.4724 69.7459 79.513C69.6486 79.5535 69.5797 79.6346 69.5392 79.7562C69.4986 79.8697 69.4784 80.048 69.4784 80.2912V83.0394L72.5792 79.2333C72.6035 79.209 72.6359 79.1968 72.6765 79.1968C72.7656 79.1968 72.8102 79.2171 72.8102 79.2576V83.015C72.8102 83.2582 72.8264 83.4406 72.8589 83.5622C72.8994 83.6757 72.9723 83.7527 73.0777 83.7933C73.1831 83.8338 73.3453 83.8541 73.5641 83.8541ZM78.3031 83.2947C78.3274 83.2947 78.3477 83.3109 78.3639 83.3434C78.3882 83.3677 78.3923 83.392 78.3761 83.4163C77.8329 83.9027 77.233 84.1459 76.5764 84.1459C76.0981 84.1459 75.6887 84.0405 75.3482 83.8298C75.0078 83.6109 74.7483 83.3231 74.57 82.9664C74.3917 82.6016 74.3025 82.2125 74.3025 81.799C74.3025 81.3207 74.416 80.883 74.643 80.4858C74.8781 80.0885 75.1942 79.7764 75.5914 79.5494C75.9887 79.3143 76.4264 79.1968 76.9047 79.1968C77.3749 79.1968 77.7316 79.3184 77.9748 79.5616C78.2261 79.7967 78.3518 80.1372 78.3518 80.583C78.3518 80.8019 78.3031 80.9114 78.2058 80.9114L75.2023 80.9235C75.1861 81.1019 75.178 81.2397 75.178 81.337C75.178 82.0422 75.3442 82.6097 75.6766 83.0394C76.0089 83.469 76.4791 83.6838 77.0871 83.6838C77.3303 83.6838 77.533 83.6555 77.6951 83.5987C77.8654 83.5339 78.064 83.4325 78.291 83.2947H78.3031ZM76.4913 79.44C76.1508 79.44 75.8711 79.5575 75.6522 79.7926C75.4334 80.0196 75.2915 80.3398 75.2266 80.7533L77.4398 80.7046C77.4398 80.2912 77.3546 79.9791 77.1844 79.7683C77.0223 79.5494 76.7912 79.44 76.4913 79.44Z" fill="black"/>
</svg>
