<svg width="114" height="160" viewBox="0 0 114 160" fill="none" xmlns="http://www.w3.org/2000/svg">
<rect x="0.38" y="-0.38" width="113.24" height="158.84" rx="7.22" transform="matrix(1 0 0 -1 0 158.84)" fill="white" stroke="white" stroke-width="0.76"/>
<path d="M15.64 30.2741C15.4452 30.4331 15.2374 30.442 15.0164 30.3006C14.7948 30.1592 14.7282 29.9648 14.8167 29.7174L16.8084 23.223L11.6299 19.5118C11.4175 19.3705 11.3513 19.1761 11.4313 18.9287C11.5106 18.6813 11.6742 18.5576 11.922 18.5576H18.3487L20.3936 11.7715C20.429 11.6301 20.4956 11.5329 20.5933 11.4799C20.6903 11.4269 20.7919 11.4004 20.8982 11.4004C21.0044 11.4004 21.1064 11.4269 21.2041 11.4799C21.3011 11.5329 21.3673 11.6301 21.4027 11.7715L23.4476 18.5576L29.8743 18.5576C30.1221 18.5576 30.2861 18.6813 30.3661 18.9287C30.4454 19.1761 30.3788 19.3705 30.1664 19.5118L24.9879 23.223L26.9796 29.7174C27.0681 29.9648 27.0019 30.1592 26.781 30.3006C26.5593 30.442 26.3511 30.4331 26.1564 30.2741L20.8982 26.2979L15.64 30.2741Z" fill="black"/>
<path d="M87.8431 148.073C87.6483 148.232 87.4405 148.241 87.2195 148.099C86.9979 147.958 86.9313 147.764 87.0198 147.516L89.0116 141.022L83.833 137.311C83.6206 137.169 83.5544 136.975 83.6344 136.727C83.7137 136.48 83.8773 136.356 84.1252 136.356H90.5519L92.5967 129.57C92.6321 129.429 92.6987 129.332 92.7964 129.279C92.8934 129.226 92.9951 129.199 93.1013 129.199C93.2075 129.199 93.3095 129.226 93.4072 129.279C93.5042 129.332 93.5704 129.429 93.6059 129.57L95.6507 136.356H102.077C102.325 136.356 102.489 136.48 102.569 136.727C102.649 136.975 102.582 137.169 102.37 137.311L97.191 141.022L99.1827 147.516C99.2713 147.764 99.205 147.958 98.9841 148.099C98.7624 148.241 98.5542 148.232 98.3595 148.073L93.1013 144.097L87.8431 148.073Z" fill="black"/>
<path d="M37.4977 83.8541C37.5139 83.8541 37.522 83.8784 37.522 83.927C37.522 83.9757 37.5139 84 37.4977 84C37.2869 84 37.1207 83.9959 36.9991 83.9878L36.379 83.9757L35.7345 83.9878C35.621 83.9959 35.467 84 35.2724 84C35.2481 84 35.2359 83.9757 35.2359 83.927C35.2359 83.8784 35.2481 83.8541 35.2724 83.8541C35.4751 83.8541 35.625 83.8338 35.7223 83.7933C35.8196 83.7527 35.8844 83.6757 35.9169 83.5622C35.9574 83.4406 35.9777 83.2582 35.9777 83.015V80.2912C35.9777 80.0237 35.9696 79.8453 35.9534 79.7562C35.9371 79.667 35.8966 79.6102 35.8318 79.5859C35.7669 79.5616 35.6372 79.5494 35.4426 79.5494H34.0321C33.8294 79.5494 33.6916 79.5616 33.6186 79.5859C33.5538 79.6102 33.5132 79.667 33.497 79.7562C33.4808 79.8453 33.4727 80.0318 33.4727 80.3155V83.015C33.4727 83.2582 33.4889 83.4406 33.5214 83.5622C33.5538 83.6757 33.6186 83.7527 33.7159 83.7933C33.8132 83.8338 33.9672 83.8541 34.178 83.8541C34.1942 83.8541 34.2023 83.8784 34.2023 83.927C34.2023 83.9757 34.1942 84 34.178 84C33.9753 84 33.8172 83.9959 33.7038 83.9878L33.1079 83.9757L32.4513 83.9878C32.3297 83.9959 32.1635 84 31.9527 84C31.9284 84 31.9162 83.9757 31.9162 83.927C31.9162 83.8784 31.9284 83.8541 31.9527 83.8541C32.1716 83.8541 32.3337 83.8338 32.4391 83.7933C32.5445 83.7527 32.6134 83.6757 32.6458 83.5622C32.6864 83.4406 32.7066 83.2582 32.7066 83.015V80.2912C32.7066 80.048 32.6864 79.8697 32.6458 79.7562C32.6134 79.6346 32.5445 79.5535 32.4391 79.513C32.3418 79.4724 32.1838 79.4522 31.9649 79.4522C31.9406 79.4522 31.9284 79.4278 31.9284 79.3792C31.9284 79.3306 31.9406 79.3062 31.9649 79.3062H37.4977C37.5139 79.3062 37.522 79.3306 37.522 79.3792C37.522 79.4278 37.5139 79.4522 37.4977 79.4522C37.2788 79.4522 37.1167 79.4765 37.0113 79.5251C36.9059 79.5738 36.8329 79.6589 36.7924 79.7805C36.76 79.894 36.7438 80.0723 36.7438 80.3155V83.015C36.7438 83.2582 36.76 83.4406 36.7924 83.5622C36.8329 83.6757 36.9059 83.7527 37.0113 83.7933C37.1167 83.8338 37.2788 83.8541 37.4977 83.8541ZM41.6875 79.1482C42.0279 79.1482 42.34 79.2373 42.6238 79.4157C42.9075 79.594 43.1345 79.8534 43.3047 80.1939C43.475 80.5263 43.5601 80.9235 43.5601 81.3856C43.5601 82.0017 43.4223 82.5205 43.1467 82.9421C42.8791 83.3555 42.5427 83.6636 42.1374 83.8662C41.732 84.0608 41.3308 84.1581 40.9335 84.1581C40.6903 84.1581 40.4715 84.1378 40.2769 84.0973C40.0823 84.0567 39.8878 83.9838 39.6932 83.8784V86.359C39.6932 86.6022 39.7216 86.7806 39.7783 86.8941C39.8432 87.0076 39.9567 87.0846 40.1188 87.1251C40.281 87.1738 40.5363 87.1981 40.8849 87.1981C40.9092 87.1981 40.9214 87.2224 40.9214 87.271C40.9214 87.3197 40.9092 87.344 40.8849 87.344C40.6012 87.344 40.3782 87.3399 40.2161 87.3318L39.3163 87.3197L38.5867 87.3318C38.4651 87.3399 38.2948 87.344 38.0759 87.344C38.0597 87.344 38.0516 87.3197 38.0516 87.271C38.0516 87.2224 38.0597 87.1981 38.0759 87.1981C38.3191 87.1981 38.4975 87.1738 38.611 87.1251C38.7326 87.0846 38.8136 87.0076 38.8542 86.8941C38.9028 86.7806 38.9271 86.6022 38.9271 86.359V80.2912C38.9271 79.9507 38.8582 79.7278 38.7204 79.6224C38.5907 79.5089 38.3313 79.4522 37.9422 79.4522C37.926 79.4522 37.9179 79.4278 37.9179 79.3792C37.9179 79.3306 37.926 79.3062 37.9422 79.3062H39.45C39.5473 79.3062 39.6122 79.3306 39.6446 79.3792C39.677 79.4197 39.6932 79.5008 39.6932 79.6224V80.1453C40.0337 79.8048 40.3661 79.5535 40.6903 79.3914C41.0146 79.2292 41.347 79.1482 41.6875 79.1482ZM41.274 83.8906C41.7037 83.8906 42.0482 83.7041 42.3076 83.3312C42.5751 82.9583 42.7089 82.4354 42.7089 81.7626C42.7089 81.0978 42.5589 80.579 42.259 80.2061C41.959 79.8332 41.5821 79.6467 41.1281 79.6467C40.8525 79.6467 40.6012 79.7116 40.3742 79.8413C40.1472 79.9629 39.9202 80.1412 39.6932 80.3763V83.1488C39.904 83.392 40.131 83.5785 40.3742 83.7082C40.6174 83.8298 40.9173 83.8906 41.274 83.8906ZM49.9184 83.8541C49.9346 83.8541 49.9427 83.8784 49.9427 83.927C49.9427 83.9757 49.9346 84 49.9184 84C49.7076 84 49.5414 83.9959 49.4198 83.9878L48.7996 83.9757L48.1308 83.9878C48.0092 83.9959 47.8471 84 47.6444 84C47.6201 84 47.608 83.9757 47.608 83.927C47.608 83.8784 47.6201 83.8541 47.6444 83.8541C47.8714 83.8541 48.0336 83.8338 48.1308 83.7933C48.2362 83.7527 48.3092 83.6757 48.3497 83.5622C48.3902 83.4406 48.4105 83.2582 48.4105 83.015V80.2547L45.2976 84.0851C45.2489 84.1094 45.2205 84.1216 45.2124 84.1216C45.18 84.1216 45.1476 84.1135 45.1152 84.0973C45.0827 84.0892 45.0665 84.077 45.0665 84.0608V80.2912C45.0665 80.048 45.0462 79.8697 45.0057 79.7562C44.9733 79.6346 44.9044 79.5535 44.799 79.513C44.7017 79.4724 44.5436 79.4522 44.3248 79.4522C44.3085 79.4522 44.3004 79.4278 44.3004 79.3792C44.3004 79.3306 44.3085 79.3062 44.3248 79.3062C44.5193 79.3062 44.6693 79.3103 44.7747 79.3184L45.4313 79.3306L46.1974 79.3184C46.2947 79.3103 46.4284 79.3062 46.5987 79.3062C46.623 79.3062 46.6352 79.3306 46.6352 79.3792C46.6352 79.4278 46.623 79.4522 46.5987 79.4522C46.3717 79.4522 46.2055 79.4724 46.1001 79.513C46.0028 79.5535 45.9339 79.6346 45.8934 79.7562C45.8529 79.8697 45.8326 80.048 45.8326 80.2912V83.0394L48.9334 79.2333C48.9577 79.209 48.9901 79.1968 49.0307 79.1968C49.1198 79.1968 49.1644 79.2171 49.1644 79.2576V83.015C49.1644 83.2582 49.1806 83.4406 49.2131 83.5622C49.2536 83.6757 49.3266 83.7527 49.432 83.7933C49.5373 83.8338 49.6995 83.8541 49.9184 83.8541ZM52.9306 81.3734C53.3765 81.414 53.721 81.5599 53.9642 81.8112C54.2155 82.0625 54.3412 82.3665 54.3412 82.7232C54.3412 83.1691 54.1547 83.5177 53.7818 83.769C53.417 84.0203 52.9509 84.1459 52.3834 84.1459C52.1159 84.1459 51.8565 84.1175 51.6052 84.0608C51.362 84.0122 51.1512 83.9433 50.9729 83.8541C50.9161 83.8217 50.8796 83.7973 50.8634 83.7811C50.8472 83.7568 50.835 83.7122 50.8269 83.6474L50.7297 82.6016C50.7297 82.5773 50.7499 82.5611 50.7905 82.553C50.831 82.5449 50.8553 82.557 50.8634 82.5894C50.9931 83.011 51.1958 83.3434 51.4714 83.5866C51.747 83.8298 52.0673 83.9514 52.4321 83.9514C52.7644 83.9514 53.0117 83.85 53.1738 83.6474C53.3441 83.4447 53.4292 83.1691 53.4292 82.8205C53.4292 81.945 52.9387 81.5072 51.9578 81.5072C51.9173 81.5072 51.893 81.4869 51.8849 81.4464C51.8849 81.3978 51.9092 81.3734 51.9578 81.3734C52.4199 81.3734 52.7523 81.2924 52.9549 81.1302C53.1576 80.9681 53.2589 80.733 53.2589 80.425C53.2589 79.7359 52.963 79.3914 52.3713 79.3914C52.047 79.3914 51.7795 79.4967 51.5687 79.7075C51.3579 79.9102 51.1715 80.2101 51.0093 80.6074C51.0012 80.6155 50.985 80.6195 50.9607 80.6195C50.8877 80.6195 50.8553 80.6074 50.8634 80.583L51.1553 79.0509C51.1553 79.0347 51.1715 79.0266 51.2039 79.0266C51.2282 79.0266 51.2525 79.0347 51.2769 79.0509C51.3012 79.059 51.3093 79.0671 51.3012 79.0752C51.2931 79.0995 51.289 79.136 51.289 79.1846C51.289 79.3225 51.3539 79.3914 51.4836 79.3914C51.5646 79.3914 51.6741 79.363 51.8119 79.3062C51.8443 79.2981 51.9416 79.2698 52.1037 79.2211C52.274 79.1725 52.4847 79.1482 52.7361 79.1482C53.1657 79.1482 53.5021 79.2454 53.7453 79.44C53.9885 79.6265 54.1101 79.8737 54.1101 80.1818C54.1101 80.4412 54.0047 80.6803 53.794 80.8992C53.5832 81.11 53.2954 81.2681 52.9306 81.3734ZM58.3178 81.4099C59.2338 81.4991 59.6919 81.8679 59.6919 82.5165C59.6919 82.9542 59.5176 83.315 59.169 83.5987C58.8204 83.8825 58.3745 84.0243 57.8314 84.0243C57.726 84.0243 57.495 84.0162 57.1383 84C56.7654 83.9838 56.4938 83.9757 56.3235 83.9757L55.6669 83.9878C55.5453 83.9959 55.3791 84 55.1683 84C55.144 84 55.1319 83.9757 55.1319 83.927C55.1319 83.8784 55.144 83.8541 55.1683 83.8541C55.3872 83.8541 55.5494 83.8338 55.6547 83.7933C55.7601 83.7527 55.829 83.6757 55.8615 83.5622C55.902 83.4406 55.9223 83.2582 55.9223 83.015V80.2912C55.9223 80.048 55.902 79.8697 55.8615 79.7562C55.829 79.6346 55.7601 79.5535 55.6547 79.513C55.5575 79.4724 55.3994 79.4522 55.1805 79.4522C55.1562 79.4522 55.144 79.4278 55.144 79.3792C55.144 79.3306 55.1562 79.3062 55.1805 79.3062L56.3235 79.3184L56.9559 79.3062C57.2639 79.29 57.499 79.2819 57.6611 79.2819C58.1556 79.2819 58.5326 79.3589 58.792 79.513C59.0514 79.667 59.1811 79.898 59.1811 80.2061C59.1811 80.4169 59.1082 80.6195 58.9623 80.8141C58.8244 81.0086 58.6096 81.2073 58.3178 81.4099ZM57.3571 79.4643C57.1707 79.4643 57.0288 79.4846 56.9315 79.5251C56.8424 79.5657 56.7775 79.6467 56.737 79.7683C56.7046 79.8818 56.6883 80.0642 56.6883 80.3155V81.3978H57.9165H58.0381C58.2327 81.1627 58.3299 80.8627 58.3299 80.4979C58.3299 80.1412 58.2489 79.8818 58.0867 79.7197C57.9246 79.5494 57.6814 79.4643 57.3571 79.4643ZM57.6247 83.8176C58.4191 83.8176 58.8163 83.4731 58.8163 82.784C58.8163 82.4192 58.7069 82.1314 58.488 81.9206C58.2772 81.7099 57.9449 81.6045 57.4909 81.6045H56.6883V83.015C56.6883 83.3069 56.7532 83.5136 56.8829 83.6352C57.0126 83.7568 57.2599 83.8176 57.6247 83.8176ZM65.2053 83.3434C65.2377 83.3434 65.258 83.3636 65.2661 83.4042C65.2742 83.4366 65.262 83.4609 65.2296 83.4771L63.9771 84.073C63.9447 84.0892 63.9082 84.0973 63.8677 84.0973C63.7623 84.0973 63.665 84.0284 63.5758 83.8906C63.4948 83.7446 63.438 83.5501 63.4056 83.3069L62.7976 83.7082C62.603 83.846 62.4247 83.9433 62.2626 84C62.1085 84.0567 61.9423 84.0851 61.764 84.0851C61.4559 84.0851 61.2168 84.0081 61.0466 83.8541C60.8763 83.6919 60.7912 83.4893 60.7912 83.2461C60.7912 82.9867 60.8925 82.7718 61.0952 82.6016C61.306 82.4233 61.6383 82.249 62.0923 82.0787L63.3934 81.6045V80.8019C63.3934 80.3155 63.3286 79.9629 63.1989 79.744C63.0773 79.5251 62.8949 79.4157 62.6517 79.4157C62.3842 79.4157 62.1815 79.5089 62.0437 79.6954C61.9059 79.8818 61.8167 80.0926 61.7762 80.3277C61.7275 80.6844 61.5613 80.8627 61.2776 80.8627C61.1317 80.8627 61.0222 80.8262 60.9493 80.7533C60.8763 80.6803 60.8398 80.5911 60.8398 80.4858C60.8398 80.2831 60.9655 80.0804 61.2168 79.8778C61.4762 79.6751 61.7843 79.5089 62.141 79.3792C62.5058 79.2495 62.826 79.1846 63.1016 79.1846C63.434 79.1846 63.6893 79.2941 63.8677 79.513C64.0541 79.7237 64.1474 80.0318 64.1474 80.4371V82.6867C64.1474 82.9623 64.1838 83.165 64.2568 83.2947C64.3379 83.4244 64.4595 83.4893 64.6216 83.4893C64.7675 83.4893 64.954 83.4406 65.181 83.3434H65.2053ZM63.3934 83.1245V83.0515V81.7747L62.372 82.1882C62.1531 82.2692 61.9869 82.3706 61.8734 82.4922C61.7599 82.6057 61.7032 82.7516 61.7032 82.9299C61.7032 83.1245 61.764 83.2866 61.8856 83.4163C62.0153 83.5379 62.1774 83.5987 62.372 83.5987C62.5341 83.5987 62.7165 83.5379 62.9192 83.4163L63.3934 83.1245ZM71.187 83.8541C71.2033 83.8541 71.2114 83.8784 71.2114 83.927C71.2114 83.9757 71.2033 84 71.187 84C70.9763 84 70.8101 83.9959 70.6885 83.9878L70.0683 83.9757L69.3995 83.9878C69.2779 83.9959 69.1158 84 68.9131 84C68.8888 84 68.8766 83.9757 68.8766 83.927C68.8766 83.8784 68.8888 83.8541 68.9131 83.8541C69.132 83.8541 69.2941 83.8338 69.3995 83.7933C69.5049 83.7527 69.5738 83.6757 69.6062 83.5622C69.6468 83.4406 69.667 83.2582 69.667 83.015V81.7747H67.1621V83.015C67.1621 83.2582 67.1783 83.4406 67.2107 83.5622C67.2513 83.6757 67.3242 83.7527 67.4296 83.7933C67.535 83.8338 67.6971 83.8541 67.916 83.8541C67.9322 83.8541 67.9403 83.8784 67.9403 83.927C67.9403 83.9757 67.9322 84 67.916 84C67.7052 84 67.539 83.9959 67.4174 83.9878L66.7973 83.9757L66.1406 83.9878C66.019 83.9959 65.8529 84 65.6421 84C65.6178 84 65.6056 83.9757 65.6056 83.927C65.6056 83.8784 65.6178 83.8541 65.6421 83.8541C65.861 83.8541 66.0231 83.8338 66.1285 83.7933C66.2339 83.7527 66.3028 83.6757 66.3352 83.5622C66.3757 83.4406 66.396 83.2582 66.396 83.015V80.2912C66.396 80.048 66.3757 79.8697 66.3352 79.7562C66.3028 79.6346 66.2339 79.5535 66.1285 79.513C66.0312 79.4724 65.8731 79.4522 65.6542 79.4522C65.6299 79.4522 65.6178 79.4278 65.6178 79.3792C65.6178 79.3306 65.6299 79.3062 65.6542 79.3062C65.8569 79.3062 66.015 79.3103 66.1285 79.3184L66.7973 79.3306L67.4296 79.3184C67.5512 79.3103 67.7133 79.3062 67.916 79.3062C67.9322 79.3062 67.9403 79.3306 67.9403 79.3792C67.9403 79.4278 67.9322 79.4522 67.916 79.4522C67.6971 79.4522 67.535 79.4765 67.4296 79.5251C67.3242 79.5738 67.2513 79.6589 67.2107 79.7805C67.1783 79.894 67.1621 80.0723 67.1621 80.3155V81.5315H69.667V80.2912C69.667 80.048 69.6468 79.8697 69.6062 79.7562C69.5738 79.6346 69.5049 79.5535 69.3995 79.513C69.3022 79.4724 69.1442 79.4522 68.9253 79.4522C68.901 79.4522 68.8888 79.4278 68.8888 79.3792C68.8888 79.3306 68.901 79.3062 68.9253 79.3062C69.128 79.3062 69.286 79.3103 69.3995 79.3184L70.0683 79.3306L70.7006 79.3184C70.8222 79.3103 70.9844 79.3062 71.187 79.3062C71.2033 79.3062 71.2114 79.3306 71.2114 79.3792C71.2114 79.4278 71.2033 79.4522 71.187 79.4522C70.9682 79.4522 70.806 79.4765 70.7006 79.5251C70.5953 79.5738 70.5223 79.6589 70.4818 79.7805C70.4493 79.894 70.4331 80.0723 70.4331 80.3155V83.015C70.4331 83.2582 70.4493 83.4406 70.4818 83.5622C70.5223 83.6757 70.5953 83.7527 70.7006 83.7933C70.806 83.8338 70.9682 83.8541 71.187 83.8541ZM77.4684 83.8541C77.4846 83.8541 77.4927 83.8784 77.4927 83.927C77.4927 83.9757 77.4846 84 77.4684 84C77.2576 84 77.0914 83.9959 76.9698 83.9878L76.3496 83.9757L75.6808 83.9878C75.5592 83.9959 75.3971 84 75.1944 84C75.1701 84 75.158 83.9757 75.158 83.927C75.158 83.8784 75.1701 83.8541 75.1944 83.8541C75.4214 83.8541 75.5836 83.8338 75.6808 83.7933C75.7862 83.7527 75.8592 83.6757 75.8997 83.5622C75.9402 83.4406 75.9605 83.2582 75.9605 83.015V80.2547L72.8476 84.0851C72.7989 84.1094 72.7705 84.1216 72.7624 84.1216C72.73 84.1216 72.6976 84.1135 72.6652 84.0973C72.6327 84.0892 72.6165 84.077 72.6165 84.0608V80.2912C72.6165 80.048 72.5962 79.8697 72.5557 79.7562C72.5233 79.6346 72.4544 79.5535 72.349 79.513C72.2517 79.4724 72.0936 79.4522 71.8748 79.4522C71.8585 79.4522 71.8504 79.4278 71.8504 79.3792C71.8504 79.3306 71.8585 79.3062 71.8748 79.3062C72.0693 79.3062 72.2193 79.3103 72.3247 79.3184L72.9813 79.3306L73.7474 79.3184C73.8447 79.3103 73.9784 79.3062 74.1487 79.3062C74.173 79.3062 74.1852 79.3306 74.1852 79.3792C74.1852 79.4278 74.173 79.4522 74.1487 79.4522C73.9217 79.4522 73.7555 79.4724 73.6501 79.513C73.5528 79.5535 73.4839 79.6346 73.4434 79.7562C73.4029 79.8697 73.3826 80.048 73.3826 80.2912V83.0394L76.4834 79.2333C76.5077 79.209 76.5401 79.1968 76.5807 79.1968C76.6698 79.1968 76.7144 79.2171 76.7144 79.2576V83.015C76.7144 83.2582 76.7306 83.4406 76.7631 83.5622C76.8036 83.6757 76.8766 83.7527 76.982 83.7933C77.0873 83.8338 77.2495 83.8541 77.4684 83.8541ZM82.2073 83.2947C82.2317 83.2947 82.2519 83.3109 82.2681 83.3434C82.2925 83.3677 82.2965 83.392 82.2803 83.4163C81.7371 83.9027 81.1373 84.1459 80.4806 84.1459C80.0023 84.1459 79.5929 84.0405 79.2525 83.8298C78.912 83.6109 78.6526 83.3231 78.4742 82.9664C78.2959 82.6016 78.2067 82.2125 78.2067 81.799C78.2067 81.3207 78.3202 80.883 78.5472 80.4858C78.7823 80.0885 79.0984 79.7764 79.4957 79.5494C79.8929 79.3143 80.3306 79.1968 80.8089 79.1968C81.2791 79.1968 81.6358 79.3184 81.879 79.5616C82.1303 79.7967 82.256 80.1372 82.256 80.583C82.256 80.8019 82.2073 80.9114 82.1101 80.9114L79.1065 80.9235C79.0903 81.1019 79.0822 81.2397 79.0822 81.337C79.0822 82.0422 79.2484 82.6097 79.5808 83.0394C79.9131 83.469 80.3833 83.6838 80.9913 83.6838C81.2345 83.6838 81.4372 83.6555 81.5993 83.5987C81.7696 83.5339 81.9682 83.4325 82.1952 83.2947H82.2073ZM80.3955 79.44C80.055 79.44 79.7753 79.5575 79.5565 79.7926C79.3376 80.0196 79.1957 80.3398 79.1309 80.7533L81.344 80.7046C81.344 80.2912 81.2589 79.9791 81.0886 79.7683C80.9265 79.5494 80.6954 79.44 80.3955 79.44Z" fill="black"/>
</svg>
