<svg width="114" height="160" viewBox="0 0 114 160" fill="none" xmlns="http://www.w3.org/2000/svg">
<rect x="0.38" y="-0.38" width="113.24" height="158.84" rx="7.22" transform="matrix(1 0 0 -1 0 158.84)" fill="white" stroke="white" stroke-width="0.76"/>
<path d="M20.8984 11.4004C15.6544 11.4004 11.3984 15.6564 11.3984 20.9004C11.3984 26.1444 15.6544 30.4004 20.8984 30.4004C26.1424 30.4004 30.3984 26.1444 30.3984 20.9004C30.3984 15.6564 26.1424 11.4004 20.8984 11.4004ZM21.7344 26.3724V27.5504H20.0719V26.3249C19.3689 26.1539 17.8014 25.5934 17.2029 23.5129L18.7704 22.8764C18.8274 23.0854 19.3214 24.8619 21.0504 24.8619C21.9339 24.8619 22.9314 24.4059 22.9314 23.3324C22.9314 22.4204 22.2664 21.9454 20.7654 21.4039C19.7204 21.0334 17.5829 20.4254 17.5829 18.2594C17.5829 18.1644 17.5924 15.9794 20.0719 15.4474V14.2504H21.7344V15.4284C23.4824 15.7324 24.1189 17.1289 24.2614 17.5469L22.7604 18.1834C22.6559 17.8509 22.1999 16.9104 20.9554 16.9104C20.2904 16.9104 19.2359 17.2619 19.2359 18.2309C19.2359 19.1334 20.0529 19.4754 21.7439 20.0359C24.0239 20.8244 24.6034 21.9834 24.6034 23.3134C24.6034 25.8119 22.2284 26.2869 21.7344 26.3724Z" fill="black"/>
<path d="M93.1016 129.199C87.8576 129.199 83.6016 133.455 83.6016 138.699C83.6016 143.943 87.8576 148.199 93.1016 148.199C98.3456 148.199 102.602 143.943 102.602 138.699C102.602 133.455 98.3456 129.199 93.1016 129.199ZM93.9376 144.171V145.349H92.2751V144.124C91.5721 143.953 90.0046 143.392 89.4061 141.312L90.9736 140.675C91.0306 140.884 91.5246 142.661 93.2536 142.661C94.1371 142.661 95.1346 142.205 95.1346 141.131C95.1346 140.219 94.4696 139.744 92.9686 139.203C91.9236 138.832 89.7861 138.224 89.7861 136.058C89.7861 135.963 89.7956 133.778 92.2751 133.246V132.049H93.9376V133.227C95.6856 133.531 96.3221 134.928 96.4646 135.346L94.9636 135.982C94.8591 135.65 94.4031 134.709 93.1586 134.709C92.4936 134.709 91.4391 135.061 91.4391 136.03C91.4391 136.932 92.2561 137.274 93.9471 137.835C96.2271 138.623 96.8066 139.782 96.8066 141.112C96.8066 143.611 94.4316 144.086 93.9376 144.171Z" fill="black"/>
<path d="M36.0054 79.2941C36.4755 79.2941 36.8647 79.4116 37.1727 79.6467C37.4808 79.8818 37.7078 80.1777 37.8537 80.5344C37.9996 80.8911 38.0726 81.2599 38.0726 81.641C38.0726 82.1436 37.955 82.5854 37.7199 82.9664C37.4848 83.3474 37.1687 83.6433 36.7714 83.8541C36.3742 84.0567 35.9405 84.1581 35.4703 84.1581C34.7894 84.1581 34.23 83.8987 33.7922 83.3798C33.3626 82.8529 33.1478 82.0098 33.1478 80.8506C33.1478 80.0156 33.2734 79.2576 33.5247 78.5766C33.7841 77.8876 34.157 77.3242 34.6434 76.8864C35.1379 76.4486 35.7338 76.169 36.431 76.0474C36.8039 75.9825 37.0633 75.9258 37.2092 75.8771C37.3551 75.8285 37.4605 75.7596 37.5254 75.6704C37.5902 75.5731 37.6551 75.4069 37.7199 75.1718C37.728 75.1394 37.7523 75.1273 37.7929 75.1354C37.8334 75.1435 37.8496 75.1637 37.8415 75.1962L37.7199 75.7069C37.6145 76.1771 37.5173 76.4567 37.4281 76.5459C37.3389 76.627 37.1484 76.6918 36.8566 76.7405C36.5728 76.781 36.3296 76.8175 36.127 76.8499C35.3974 76.9634 34.8988 77.0972 34.6313 77.2512C34.3719 77.3971 34.2016 77.6809 34.1206 78.1024C34.0395 78.5239 33.9949 79.29 33.9868 80.4006C34.2219 80.0196 34.5178 79.7399 34.8745 79.5616C35.2393 79.3833 35.6162 79.2941 36.0054 79.2941ZM35.8351 83.927C36.2567 83.927 36.5809 83.769 36.8079 83.4528C37.043 83.1366 37.1606 82.6543 37.1606 82.0058C37.1606 81.5113 37.0917 81.0816 36.9538 80.7168C36.816 80.3439 36.6296 80.0602 36.3945 79.8656C36.1594 79.671 35.8959 79.5738 35.6041 79.5738C35.3285 79.5738 35.0731 79.6629 34.838 79.8413C34.6029 80.0196 34.4165 80.2547 34.2786 80.5466C34.1408 80.8384 34.0719 81.1465 34.0719 81.4707C34.0719 82.1679 34.23 82.7516 34.5462 83.2218C34.8623 83.6919 35.292 83.927 35.8351 83.927ZM41.3261 84.1581C40.8478 84.1581 40.4263 84.0446 40.0615 83.8176C39.7048 83.5825 39.4251 83.2704 39.2224 82.8813C39.0279 82.4841 38.9306 82.0544 38.9306 81.5923C38.9306 81.0654 39.0603 80.6195 39.3197 80.2547C39.5791 79.8818 39.9075 79.6062 40.3047 79.4278C40.71 79.2414 41.1235 79.1482 41.545 79.1482C42.0233 79.1482 42.4408 79.2657 42.7975 79.5008C43.1623 79.7359 43.442 80.048 43.6365 80.4371C43.8311 80.8181 43.9284 81.2235 43.9284 81.6531C43.9284 82.1557 43.8108 82.5975 43.5757 82.9786C43.3406 83.3515 43.0245 83.6433 42.6272 83.8541C42.23 84.0567 41.7963 84.1581 41.3261 84.1581ZM41.6788 83.927C42.1003 83.927 42.4246 83.769 42.6516 83.4528C42.8867 83.1366 43.0042 82.6543 43.0042 82.0058C43.0042 81.495 42.9231 81.0411 42.761 80.6438C42.5989 80.2466 42.3759 79.9386 42.0922 79.7197C41.8085 79.5008 41.4923 79.3914 41.1437 79.3914C40.7303 79.3914 40.4101 79.5454 40.1831 79.8534C39.9561 80.1615 39.8426 80.6114 39.8426 81.2032C39.8426 81.7058 39.9196 82.1679 40.0736 82.5894C40.2358 83.0029 40.4547 83.3312 40.7303 83.5744C41.0059 83.8095 41.3221 83.927 41.6788 83.927ZM48.4087 79.3062C48.4573 79.3062 48.4857 79.3143 48.4938 79.3306C48.5019 79.3387 48.5059 79.367 48.5059 79.4157C48.5059 79.5778 48.5019 79.7237 48.4938 79.8534C48.4857 79.975 48.4776 80.0804 48.4695 80.1696L48.4451 80.887C48.4451 80.9033 48.4208 80.9114 48.3722 80.9114C48.3235 80.9114 48.2992 80.9033 48.2992 80.887C48.2425 80.3763 48.1168 80.0156 47.9223 79.8048C47.7277 79.594 47.4359 79.4886 47.0467 79.4886C46.7306 79.4886 46.5198 79.5454 46.4144 79.6589C46.3171 79.7724 46.2685 79.9913 46.2685 80.3155V83.015C46.2685 83.2582 46.2847 83.4406 46.3171 83.5622C46.3577 83.6757 46.4306 83.7527 46.536 83.7933C46.6414 83.8338 46.8035 83.8541 47.0224 83.8541C47.0386 83.8541 47.0467 83.8784 47.0467 83.927C47.0467 83.9757 47.0386 84 47.0224 84C46.8116 84 46.6455 83.9959 46.5239 83.9878L45.9037 83.9757L45.2471 83.9878C45.1255 83.9959 44.9593 84 44.7485 84C44.7242 84 44.712 83.9757 44.712 83.927C44.712 83.8784 44.7242 83.8541 44.7485 83.8541C44.9674 83.8541 45.1295 83.8338 45.2349 83.7933C45.3403 83.7527 45.4092 83.6757 45.4416 83.5622C45.4821 83.4406 45.5024 83.2582 45.5024 83.015V80.2912C45.5024 80.048 45.4821 79.8697 45.4416 79.7562C45.4092 79.6346 45.3403 79.5535 45.2349 79.513C45.1376 79.4724 44.9795 79.4522 44.7607 79.4522C44.7363 79.4522 44.7242 79.4278 44.7242 79.3792C44.7242 79.3306 44.7363 79.3062 44.7607 79.3062H48.4087ZM53.9542 83.3434C53.9866 83.3434 54.0069 83.3636 54.015 83.4042C54.0231 83.4366 54.0109 83.4609 53.9785 83.4771L52.726 84.073C52.6936 84.0892 52.6571 84.0973 52.6166 84.0973C52.5112 84.0973 52.4139 84.0284 52.3247 83.8906C52.2437 83.7446 52.1869 83.5501 52.1545 83.3069L51.5465 83.7082C51.3519 83.846 51.1736 83.9433 51.0115 84C50.8574 84.0567 50.6913 84.0851 50.5129 84.0851C50.2049 84.0851 49.9657 84.0081 49.7955 83.8541C49.6252 83.6919 49.5401 83.4893 49.5401 83.2461C49.5401 82.9867 49.6414 82.7718 49.8441 82.6016C50.0549 82.4233 50.3873 82.249 50.8412 82.0787L52.1423 81.6045V80.8019C52.1423 80.3155 52.0775 79.9629 51.9478 79.744C51.8262 79.5251 51.6438 79.4157 51.4006 79.4157C51.1331 79.4157 50.9304 79.5089 50.7926 79.6954C50.6548 79.8818 50.5656 80.0926 50.5251 80.3277C50.4764 80.6844 50.3102 80.8627 50.0265 80.8627C49.8806 80.8627 49.7711 80.8262 49.6982 80.7533C49.6252 80.6803 49.5887 80.5911 49.5887 80.4858C49.5887 80.2831 49.7144 80.0804 49.9657 79.8778C50.2251 79.6751 50.5332 79.5089 50.8899 79.3792C51.2547 79.2495 51.5749 79.1846 51.8505 79.1846C52.1829 79.1846 52.4382 79.2941 52.6166 79.513C52.803 79.7237 52.8963 80.0318 52.8963 80.4371V82.6867C52.8963 82.9623 52.9327 83.165 53.0057 83.2947C53.0868 83.4244 53.2084 83.4893 53.3705 83.4893C53.5164 83.4893 53.7029 83.4406 53.9299 83.3434H53.9542ZM52.1423 83.1245V83.0515V81.7747L51.1209 82.1882C50.902 82.2692 50.7358 82.3706 50.6223 82.4922C50.5089 82.6057 50.4521 82.7516 50.4521 82.9299C50.4521 83.1245 50.5129 83.2866 50.6345 83.4163C50.7642 83.5379 50.9263 83.5987 51.1209 83.5987C51.283 83.5987 51.4654 83.5379 51.6681 83.4163L52.1423 83.1245ZM55.4611 84C55.4368 84 55.4246 83.9757 55.4246 83.927C55.4246 83.8784 55.4368 83.8541 55.4611 83.8541C55.6881 83.8541 55.8502 83.8338 55.9475 83.7933C56.0529 83.7527 56.1258 83.6757 56.1664 83.5622C56.2069 83.4406 56.2272 83.2582 56.2272 83.015V80.3155C56.2272 79.9831 56.1907 79.7643 56.1177 79.6589C56.0529 79.5535 55.9069 79.5008 55.68 79.5008C55.3395 79.5008 55.0801 79.6143 54.9017 79.8413C54.7234 80.0683 54.618 80.4169 54.5856 80.887C54.5856 80.9033 54.5612 80.9114 54.5126 80.9114C54.4721 80.9114 54.4518 80.9033 54.4518 80.887L54.4275 80.1574C54.4194 80.0683 54.4113 79.9629 54.4032 79.8413C54.395 79.7116 54.391 79.5657 54.391 79.4035C54.391 79.3549 54.395 79.3265 54.4032 79.3184C54.4113 79.3022 54.4396 79.2941 54.4883 79.2941C54.6585 79.2941 54.8085 79.2981 54.9382 79.3062L56.5798 79.3184L58.2457 79.3062C58.3835 79.2981 58.5416 79.2941 58.72 79.2941C58.7686 79.2941 58.797 79.3022 58.8051 79.3184C58.8132 79.3265 58.8172 79.3549 58.8172 79.4035C58.8172 79.5413 58.8091 79.7724 58.7929 80.0966L58.7686 80.887C58.7686 80.9033 58.7443 80.9114 58.6956 80.9114C58.647 80.9114 58.6227 80.9033 58.6227 80.887C58.5821 80.4087 58.4727 80.0602 58.2944 79.8413C58.1241 79.6143 57.8688 79.5008 57.5283 79.5008C57.3094 79.5008 57.1635 79.5575 57.0905 79.671C57.0257 79.7764 56.9932 79.9913 56.9932 80.3155V83.015C56.9932 83.2582 57.0094 83.4406 57.0419 83.5622C57.0824 83.6757 57.1513 83.7527 57.2486 83.7933C57.354 83.8338 57.5161 83.8541 57.735 83.8541C57.7593 83.8541 57.7715 83.8784 57.7715 83.927C57.7715 83.9757 57.7593 84 57.735 84C57.5242 84 57.358 83.9959 57.2364 83.9878L56.6163 83.9757L55.9718 83.9878C55.8502 83.9959 55.68 84 55.4611 84ZM62.0121 84.1459C61.4852 84.1459 61.0433 84.0324 60.6866 83.8054C60.33 83.5703 60.0624 83.2704 59.8841 82.9056C59.7138 82.5408 59.6287 82.1557 59.6287 81.7504C59.6287 81.2316 59.7625 80.7817 60.03 80.4006C60.2975 80.0115 60.638 79.7156 61.0514 79.513C61.4649 79.3022 61.8905 79.1968 62.3282 79.1968C62.693 79.1968 63.0214 79.2698 63.3132 79.4157C63.6132 79.5616 63.7631 79.744 63.7631 79.9629C63.7631 80.0845 63.7185 80.1858 63.6294 80.2669C63.5483 80.3479 63.4389 80.3885 63.301 80.3885C63.0416 80.3885 62.8471 80.2426 62.7174 79.9507C62.6282 79.7724 62.5228 79.6427 62.4012 79.5616C62.2877 79.4805 62.1215 79.44 61.9026 79.44C61.4649 79.44 61.1244 79.6183 60.8812 79.975C60.638 80.3236 60.5164 80.7898 60.5164 81.3734C60.5164 82.0544 60.6826 82.6138 61.015 83.0515C61.3473 83.4812 61.854 83.696 62.535 83.696C62.997 83.696 63.4024 83.5663 63.751 83.3069H63.7753C63.7996 83.3069 63.8199 83.319 63.8361 83.3434C63.8604 83.3677 63.8604 83.3879 63.8361 83.4042C63.5524 83.6636 63.2646 83.8541 62.9727 83.9757C62.689 84.0892 62.3688 84.1459 62.0121 84.1459ZM65.6854 84C65.6611 84 65.649 83.9757 65.649 83.927C65.649 83.8784 65.6611 83.8541 65.6854 83.8541C65.9124 83.8541 66.0746 83.8338 66.1718 83.7933C66.2772 83.7527 66.3502 83.6757 66.3907 83.5622C66.4313 83.4406 66.4515 83.2582 66.4515 83.015V80.3155C66.4515 79.9831 66.415 79.7643 66.3421 79.6589C66.2772 79.5535 66.1313 79.5008 65.9043 79.5008C65.5638 79.5008 65.3044 79.6143 65.1261 79.8413C64.9477 80.0683 64.8424 80.4169 64.8099 80.887C64.8099 80.9033 64.7856 80.9114 64.737 80.9114C64.6964 80.9114 64.6762 80.9033 64.6762 80.887L64.6518 80.1574C64.6437 80.0683 64.6356 79.9629 64.6275 79.8413C64.6194 79.7116 64.6154 79.5657 64.6154 79.4035C64.6154 79.3549 64.6194 79.3265 64.6275 79.3184C64.6356 79.3022 64.664 79.2941 64.7126 79.2941C64.8829 79.2941 65.0329 79.2981 65.1626 79.3062L66.8042 79.3184L68.4701 79.3062C68.6079 79.2981 68.766 79.2941 68.9443 79.2941C68.993 79.2941 69.0213 79.3022 69.0294 79.3184C69.0376 79.3265 69.0416 79.3549 69.0416 79.4035C69.0416 79.5413 69.0335 79.7724 69.0173 80.0966L68.993 80.887C68.993 80.9033 68.9686 80.9114 68.92 80.9114C68.8714 80.9114 68.847 80.9033 68.847 80.887C68.8065 80.4087 68.6971 80.0602 68.5187 79.8413C68.3485 79.6143 68.0931 79.5008 67.7526 79.5008C67.5338 79.5008 67.3878 79.5575 67.3149 79.671C67.25 79.7764 67.2176 79.9913 67.2176 80.3155V83.015C67.2176 83.2582 67.2338 83.4406 67.2662 83.5622C67.3068 83.6757 67.3757 83.7527 67.473 83.7933C67.5784 83.8338 67.7405 83.8541 67.9594 83.8541C67.9837 83.8541 67.9958 83.8784 67.9958 83.927C67.9958 83.9757 67.9837 84 67.9594 84C67.7486 84 67.5824 83.9959 67.4608 83.9878L66.8406 83.9757L66.1962 83.9878C66.0746 83.9959 65.9043 84 65.6854 84ZM72.9661 81.4099C73.8821 81.4991 74.3401 81.8679 74.3401 82.5165C74.3401 82.9542 74.1658 83.315 73.8173 83.5987C73.4687 83.8825 73.0228 84.0243 72.4797 84.0243C72.3743 84.0243 72.1432 84.0162 71.7865 84C71.4136 83.9838 71.1421 83.9757 70.9718 83.9757L70.3152 83.9878C70.1936 83.9959 70.0274 84 69.8166 84C69.7923 84 69.7801 83.9757 69.7801 83.927C69.7801 83.8784 69.7923 83.8541 69.8166 83.8541C70.0355 83.8541 70.1976 83.8338 70.303 83.7933C70.4084 83.7527 70.4773 83.6757 70.5097 83.5622C70.5503 83.4406 70.5705 83.2582 70.5705 83.015V80.2912C70.5705 80.048 70.5503 79.8697 70.5097 79.7562C70.4773 79.6346 70.4084 79.5535 70.303 79.513C70.2057 79.4724 70.0477 79.4522 69.8288 79.4522C69.8045 79.4522 69.7923 79.4278 69.7923 79.3792C69.7923 79.3306 69.8045 79.3062 69.8288 79.3062L70.9718 79.3184L71.6041 79.3062C71.9122 79.29 72.1473 79.2819 72.3094 79.2819C72.8039 79.2819 73.1809 79.3589 73.4403 79.513C73.6997 79.667 73.8294 79.898 73.8294 80.2061C73.8294 80.4169 73.7565 80.6195 73.6105 80.8141C73.4727 81.0086 73.2579 81.2073 72.9661 81.4099ZM72.0054 79.4643C71.819 79.4643 71.6771 79.4846 71.5798 79.5251C71.4906 79.5657 71.4258 79.6467 71.3853 79.7683C71.3528 79.8818 71.3366 80.0642 71.3366 80.3155V81.3978H72.5648H72.6864C72.8809 81.1627 72.9782 80.8627 72.9782 80.4979C72.9782 80.1412 72.8972 79.8818 72.735 79.7197C72.5729 79.5494 72.3297 79.4643 72.0054 79.4643ZM72.2729 83.8176C73.0674 83.8176 73.4646 83.4731 73.4646 82.784C73.4646 82.4192 73.3552 82.1314 73.1363 81.9206C72.9255 81.7099 72.5932 81.6045 72.1392 81.6045H71.3366V83.015C71.3366 83.3069 71.4015 83.5136 71.5312 83.6352C71.6609 83.7568 71.9081 83.8176 72.2729 83.8176ZM77.6161 84.1581C77.1378 84.1581 76.7163 84.0446 76.3515 83.8176C75.9948 83.5825 75.7151 83.2704 75.5124 82.8813C75.3179 82.4841 75.2206 82.0544 75.2206 81.5923C75.2206 81.0654 75.3503 80.6195 75.6097 80.2547C75.8691 79.8818 76.1975 79.6062 76.5947 79.4278C77 79.2414 77.4135 79.1482 77.835 79.1482C78.3133 79.1482 78.7308 79.2657 79.0875 79.5008C79.4523 79.7359 79.732 80.048 79.9265 80.4371C80.1211 80.8181 80.2184 81.2235 80.2184 81.6531C80.2184 82.1557 80.1008 82.5975 79.8657 82.9786C79.6306 83.3515 79.3145 83.6433 78.9172 83.8541C78.52 84.0567 78.0863 84.1581 77.6161 84.1581ZM77.9688 83.927C78.3903 83.927 78.7146 83.769 78.9416 83.4528C79.1767 83.1366 79.2942 82.6543 79.2942 82.0058C79.2942 81.495 79.2131 81.0411 79.051 80.6438C78.8889 80.2466 78.6659 79.9386 78.3822 79.7197C78.0985 79.5008 77.7823 79.3914 77.4337 79.3914C77.0203 79.3914 76.7001 79.5454 76.4731 79.8534C76.2461 80.1615 76.1326 80.6114 76.1326 81.2032C76.1326 81.7058 76.2096 82.1679 76.3636 82.5894C76.5258 83.0029 76.7447 83.3312 77.0203 83.5744C77.2959 83.8095 77.6121 83.927 77.9688 83.927Z" fill="black"/>
</svg>
