<svg width="114" height="160" viewBox="0 0 114 160" fill="none" xmlns="http://www.w3.org/2000/svg">
<rect x="0.38" y="-0.38" width="113.24" height="158.84" rx="7.22" transform="matrix(1 0 0 -1 0 158.84)" fill="white" stroke="white" stroke-width="0.76"/>
<path d="M21.7055 30.3139L20.211 28.9534C14.9029 24.14 11.3984 20.9654 11.3984 17.0693C11.3984 13.8947 13.8928 11.4004 17.0673 11.4004C18.8608 11.4004 20.5821 12.2353 21.7055 13.5546C22.829 12.2353 24.5503 11.4004 26.3437 11.4004C29.5183 11.4004 32.0127 13.8947 32.0127 17.0693C32.0127 20.9654 28.5082 24.14 23.2001 28.9637L21.7055 30.3139Z" fill="black"/>
<path d="M92.3852 148.115L90.8907 146.754C85.5825 141.941 82.0781 138.766 82.0781 134.87C82.0781 131.695 84.5724 129.201 87.747 129.201C89.5405 129.201 91.2618 130.036 92.3852 131.355C93.5087 130.036 95.23 129.201 97.0234 129.201C100.198 129.201 102.692 131.695 102.692 134.87C102.692 138.766 99.1879 141.941 93.8798 146.764L92.3852 148.115Z" fill="black"/>
<path d="M44.2482 83.8541C44.2887 83.8541 44.309 83.8784 44.309 83.927C44.309 83.9757 44.2887 84 44.2482 84C44.1104 84 43.9117 83.9919 43.6523 83.9757C43.3767 83.9595 43.174 83.9514 43.0443 83.9514C42.9308 83.9514 42.7606 83.9595 42.5336 83.9757C42.2904 83.9919 42.1161 84 42.0107 84C41.9783 84 41.9621 83.9757 41.9621 83.927C41.9621 83.8784 41.9783 83.8541 42.0107 83.8541C42.3431 83.8541 42.5093 83.7325 42.5093 83.4893C42.5093 83.3515 42.4566 83.1812 42.3512 82.9786L41.1109 80.3398L40.1867 82.5043C40.0408 82.8448 39.9679 83.1204 39.9679 83.3312C39.9679 83.6798 40.1624 83.8541 40.5515 83.8541C40.5921 83.8541 40.6123 83.8784 40.6123 83.927C40.6123 83.9757 40.5921 84 40.5515 84C40.4624 84 40.3367 83.9919 40.1746 83.9757C40.0124 83.9595 39.8584 83.9514 39.7125 83.9514C39.5423 83.9514 39.3761 83.9595 39.2139 83.9757C39.068 83.9919 38.9383 84 38.8248 84C38.7843 84 38.764 83.9757 38.764 83.927C38.764 83.8784 38.7843 83.8541 38.8248 83.8541C38.9707 83.8541 39.1248 83.7527 39.2869 83.5501C39.4571 83.3393 39.6639 82.9542 39.9071 82.3949L41.3176 79.1238C41.3338 79.0914 41.3581 79.0752 41.3906 79.0752C41.423 79.0752 41.4473 79.0914 41.4635 79.1238L42.9714 82.3341C43.1903 82.8043 43.3524 83.1366 43.4578 83.3312C43.5713 83.5258 43.6848 83.6636 43.7983 83.7446C43.9117 83.8176 44.0617 83.8541 44.2482 83.8541ZM50.0147 79.1482C50.4605 79.1482 50.8497 79.2617 51.182 79.4886C51.5225 79.7156 51.7819 80.0196 51.9603 80.4006C52.1467 80.7735 52.24 81.1748 52.24 81.6045C52.24 82.099 52.1265 82.5408 51.8995 82.9299C51.6725 83.319 51.3685 83.623 50.9875 83.8419C50.6146 84.0527 50.2092 84.1581 49.7715 84.1581C49.3337 84.1581 48.9487 84.0527 48.6163 83.8419C48.2839 83.623 48.0245 83.3353 47.838 82.9786C47.6516 82.6138 47.5502 82.2125 47.534 81.7747H46.1843V83.015C46.1843 83.2582 46.2005 83.4406 46.2329 83.5622C46.2734 83.6757 46.3464 83.7527 46.4518 83.7933C46.5572 83.8338 46.7193 83.8541 46.9382 83.8541C46.9544 83.8541 46.9625 83.8784 46.9625 83.927C46.9625 83.9757 46.9544 84 46.9382 84C46.7274 84 46.5612 83.9959 46.4396 83.9878L45.8195 83.9757L45.1628 83.9878C45.0412 83.9959 44.875 84 44.6643 84C44.64 84 44.6278 83.9757 44.6278 83.927C44.6278 83.8784 44.64 83.8541 44.6643 83.8541C44.8832 83.8541 45.0453 83.8338 45.1507 83.7933C45.2561 83.7527 45.325 83.6757 45.3574 83.5622C45.3979 83.4406 45.4182 83.2582 45.4182 83.015V80.2912C45.4182 80.048 45.3979 79.8697 45.3574 79.7562C45.325 79.6346 45.2561 79.5535 45.1507 79.513C45.0534 79.4724 44.8953 79.4522 44.6764 79.4522C44.6521 79.4522 44.64 79.4278 44.64 79.3792C44.64 79.3306 44.6521 79.3062 44.6764 79.3062C44.8791 79.3062 45.0372 79.3103 45.1507 79.3184L45.8195 79.3306L46.4518 79.3184C46.5734 79.3103 46.7355 79.3062 46.9382 79.3062C46.9544 79.3062 46.9625 79.3306 46.9625 79.3792C46.9625 79.4278 46.9544 79.4522 46.9382 79.4522C46.7193 79.4522 46.5572 79.4765 46.4518 79.5251C46.3464 79.5738 46.2734 79.6589 46.2329 79.7805C46.2005 79.894 46.1843 80.0723 46.1843 80.3155V81.5315H47.534C47.5584 81.0208 47.6921 80.5871 47.9353 80.2304C48.1866 79.8656 48.4987 79.594 48.8716 79.4157C49.2445 79.2373 49.6256 79.1482 50.0147 79.1482ZM50.1241 83.927C50.5051 83.927 50.801 83.7649 51.0118 83.4406C51.2307 83.1083 51.3401 82.634 51.3401 82.0179C51.3401 81.4505 51.2591 80.9722 51.0969 80.583C50.9429 80.1858 50.7321 79.8899 50.4646 79.6954C50.2052 79.4927 49.9174 79.3914 49.6012 79.3914C49.2121 79.3914 48.9162 79.5494 48.7136 79.8656C48.5109 80.1737 48.4096 80.6236 48.4096 81.2154C48.4096 81.7504 48.4825 82.2246 48.6284 82.6381C48.7825 83.0434 48.9892 83.3596 49.2486 83.5866C49.508 83.8135 49.7999 83.927 50.1241 83.927ZM55.9424 79.2941C56.4126 79.2941 56.8017 79.4116 57.1098 79.6467C57.4178 79.8818 57.6448 80.1777 57.7907 80.5344C57.9366 80.8911 58.0096 81.2599 58.0096 81.641C58.0096 82.1436 57.892 82.5854 57.657 82.9664C57.4219 83.3474 57.1057 83.6433 56.7085 83.8541C56.3112 84.0567 55.8775 84.1581 55.4074 84.1581C54.7264 84.1581 54.167 83.8987 53.7293 83.3798C53.2996 82.8529 53.0848 82.0098 53.0848 80.8506C53.0848 80.0156 53.2104 79.2576 53.4618 78.5766C53.7212 77.8876 54.0941 77.3242 54.5805 76.8864C55.075 76.4486 55.6708 76.169 56.368 76.0474C56.7409 75.9825 57.0003 75.9258 57.1462 75.8771C57.2922 75.8285 57.3975 75.7596 57.4624 75.6704C57.5272 75.5731 57.5921 75.4069 57.657 75.1718C57.6651 75.1394 57.6894 75.1273 57.7299 75.1354C57.7704 75.1435 57.7867 75.1637 57.7786 75.1962L57.657 75.7069C57.5516 76.1771 57.4543 76.4567 57.3651 76.5459C57.2759 76.627 57.0854 76.6918 56.7936 76.7405C56.5099 76.781 56.2667 76.8175 56.064 76.8499C55.3344 76.9634 54.8358 77.0972 54.5683 77.2512C54.3089 77.3971 54.1387 77.6809 54.0576 78.1024C53.9765 78.5239 53.9319 79.29 53.9238 80.4006C54.1589 80.0196 54.4548 79.7399 54.8115 79.5616C55.1763 79.3833 55.5533 79.2941 55.9424 79.2941ZM55.7722 83.927C56.1937 83.927 56.518 83.769 56.745 83.4528C56.98 83.1366 57.0976 82.6543 57.0976 82.0058C57.0976 81.5113 57.0287 81.0816 56.8909 80.7168C56.7531 80.3439 56.5666 80.0602 56.3315 79.8656C56.0964 79.671 55.833 79.5738 55.5411 79.5738C55.2655 79.5738 55.0101 79.6629 54.775 79.8413C54.5399 80.0196 54.3535 80.2547 54.2157 80.5466C54.0779 80.8384 54.009 81.1465 54.009 81.4707C54.009 82.1679 54.167 82.7516 54.4832 83.2218C54.7994 83.6919 55.229 83.927 55.7722 83.927ZM61.2632 84.1581C60.7849 84.1581 60.3633 84.0446 59.9985 83.8176C59.6418 83.5825 59.3621 83.2704 59.1595 82.8813C58.9649 82.4841 58.8676 82.0544 58.8676 81.5923C58.8676 81.0654 58.9973 80.6195 59.2568 80.2547C59.5162 79.8818 59.8445 79.6062 60.2417 79.4278C60.647 79.2414 61.0605 79.1482 61.482 79.1482C61.9603 79.1482 62.3778 79.2657 62.7345 79.5008C63.0993 79.7359 63.379 80.048 63.5736 80.4371C63.7681 80.8181 63.8654 81.2235 63.8654 81.6531C63.8654 82.1557 63.7478 82.5975 63.5128 82.9786C63.2777 83.3515 62.9615 83.6433 62.5643 83.8541C62.167 84.0567 61.7333 84.1581 61.2632 84.1581ZM61.6158 83.927C62.0373 83.927 62.3616 83.769 62.5886 83.4528C62.8237 83.1366 62.9412 82.6543 62.9412 82.0058C62.9412 81.495 62.8602 81.0411 62.698 80.6438C62.5359 80.2466 62.313 79.9386 62.0292 79.7197C61.7455 79.5008 61.4293 79.3914 61.0808 79.3914C60.6673 79.3914 60.3471 79.5454 60.1201 79.8534C59.8931 80.1615 59.7796 80.6114 59.7796 81.2032C59.7796 81.7058 59.8566 82.1679 60.0107 82.5894C60.1728 83.0029 60.3917 83.3312 60.6673 83.5744C60.9429 83.8095 61.2591 83.927 61.6158 83.927ZM67.835 81.4099C68.751 81.4991 69.209 81.8679 69.209 82.5165C69.209 82.9542 69.0348 83.315 68.6862 83.5987C68.3376 83.8825 67.8917 84.0243 67.3486 84.0243C67.2432 84.0243 67.0121 84.0162 66.6554 84C66.2825 83.9838 66.011 83.9757 65.8407 83.9757L65.1841 83.9878C65.0625 83.9959 64.8963 84 64.6855 84C64.6612 84 64.649 83.9757 64.649 83.927C64.649 83.8784 64.6612 83.8541 64.6855 83.8541C64.9044 83.8541 65.0665 83.8338 65.1719 83.7933C65.2773 83.7527 65.3462 83.6757 65.3786 83.5622C65.4192 83.4406 65.4394 83.2582 65.4394 83.015V80.2912C65.4394 80.048 65.4192 79.8697 65.3786 79.7562C65.3462 79.6346 65.2773 79.5535 65.1719 79.513C65.0746 79.4724 64.9166 79.4522 64.6977 79.4522C64.6734 79.4522 64.6612 79.4278 64.6612 79.3792C64.6612 79.3306 64.6734 79.3062 64.6977 79.3062L65.8407 79.3184L66.473 79.3062C66.7811 79.29 67.0162 79.2819 67.1783 79.2819C67.6728 79.2819 68.0498 79.3589 68.3092 79.513C68.5686 79.667 68.6983 79.898 68.6983 80.2061C68.6983 80.4169 68.6254 80.6195 68.4794 80.8141C68.3416 81.0086 68.1268 81.2073 67.835 81.4099ZM66.8743 79.4643C66.6879 79.4643 66.546 79.4846 66.4487 79.5251C66.3596 79.5657 66.2947 79.6467 66.2542 79.7683C66.2217 79.8818 66.2055 80.0642 66.2055 80.3155V81.3978H67.4337H67.5553C67.7498 81.1627 67.8471 80.8627 67.8471 80.4979C67.8471 80.1412 67.7661 79.8818 67.6039 79.7197C67.4418 79.5494 67.1986 79.4643 66.8743 79.4643ZM67.1418 83.8176C67.9363 83.8176 68.3335 83.4731 68.3335 82.784C68.3335 82.4192 68.2241 82.1314 68.0052 81.9206C67.7944 81.7099 67.4621 81.6045 67.0081 81.6045H66.2055V83.015C66.2055 83.3069 66.2704 83.5136 66.4001 83.6352C66.5298 83.7568 66.777 83.8176 67.1418 83.8176ZM72.7769 81.2397C73.8794 81.2397 74.4306 81.6612 74.4306 82.5043C74.4306 82.9502 74.2685 83.315 73.9442 83.5987C73.6281 83.8825 73.2187 84.0243 72.7161 84.0243L72.0351 84C71.646 83.9838 71.3704 83.9757 71.2082 83.9757L70.5516 83.9878C70.43 83.9959 70.2638 84 70.053 84C70.0287 84 70.0165 83.9757 70.0165 83.927C70.0165 83.8784 70.0287 83.8541 70.053 83.8541C70.2719 83.8541 70.434 83.8338 70.5394 83.7933C70.6448 83.7527 70.7137 83.6757 70.7461 83.5622C70.7867 83.4406 70.8069 83.2582 70.8069 83.015V80.2912C70.8069 80.048 70.7867 79.8697 70.7461 79.7562C70.7137 79.6346 70.6448 79.5535 70.5394 79.513C70.4421 79.4724 70.2841 79.4522 70.0652 79.4522C70.0409 79.4522 70.0287 79.4278 70.0287 79.3792C70.0287 79.3306 70.0409 79.3062 70.0652 79.3062C70.2679 79.3062 70.4259 79.3103 70.5394 79.3184L71.2082 79.3306L71.9257 79.3184C72.0554 79.3103 72.2337 79.3062 72.4607 79.3062C72.485 79.3062 72.4972 79.3306 72.4972 79.3792C72.4972 79.4278 72.485 79.4522 72.4607 79.4522C72.2013 79.4522 72.0108 79.4765 71.8892 79.5251C71.7676 79.5738 71.6825 79.6589 71.6338 79.7805C71.5933 79.894 71.573 80.0723 71.573 80.3155V81.4099C71.9216 81.2964 72.3229 81.2397 72.7769 81.2397ZM72.485 83.8419C73.2146 83.8419 73.5794 83.4893 73.5794 82.784C73.5794 82.3706 73.4781 82.0503 73.2754 81.8234C73.0809 81.5883 72.7728 81.4707 72.3513 81.4707C72.0594 81.4707 71.8 81.5072 71.573 81.5802V83.015C71.573 83.315 71.6338 83.5298 71.7554 83.6595C71.8851 83.7811 72.1283 83.8419 72.485 83.8419Z" fill="black"/>
</svg>
