<svg width="114" height="160" viewBox="0 0 114 160" fill="none" xmlns="http://www.w3.org/2000/svg">
<rect x="0.38" y="-0.38" width="113.24" height="158.84" rx="7.22" transform="matrix(1 0 0 -1 0 158.84)" fill="white" stroke="white" stroke-width="0.76"/>
<path d="M17.5734 21.8484H15.1984V18.9984H17.5734V16.6234H20.4234V18.9984L22.7984 18.9984V21.8484H20.4234L20.4234 24.2234H17.5734V21.8484ZM18.9984 11.3984L11.3984 14.2484L11.3984 20.0339C11.3984 24.8314 14.6379 29.3059 18.9984 30.3984C23.3589 29.3059 26.5984 24.8314 26.5984 20.0339V14.2484L18.9984 11.3984Z" fill="black"/>
<path d="M93.5734 139.649H91.1984V136.799H93.5734V134.424H96.4234V136.799H98.7984V139.649H96.4234V142.024H93.5734V139.649ZM94.9984 129.199L87.3984 132.049V137.835C87.3984 142.632 90.6379 147.107 94.9984 148.199C99.3589 147.107 102.598 142.632 102.598 137.835V132.049L94.9984 129.199Z" fill="black"/>
<path d="M38.7701 81.3734C39.216 81.414 39.5605 81.5599 39.8037 81.8112C40.0551 82.0625 40.1807 82.3665 40.1807 82.7232C40.1807 83.1691 39.9943 83.5177 39.6213 83.769C39.2565 84.0203 38.7904 84.1459 38.2229 84.1459C37.9554 84.1459 37.696 84.1175 37.4447 84.0608C37.2015 84.0122 36.9907 83.9433 36.8124 83.8541C36.7556 83.8217 36.7192 83.7973 36.7029 83.7811C36.6867 83.7568 36.6746 83.7122 36.6665 83.6474L36.5692 82.6016C36.5692 82.5773 36.5895 82.5611 36.63 82.553C36.6705 82.5449 36.6948 82.557 36.7029 82.5894C36.8327 83.011 37.0353 83.3434 37.3109 83.5866C37.5866 83.8298 37.9068 83.9514 38.2716 83.9514C38.604 83.9514 38.8512 83.85 39.0133 83.6474C39.1836 83.4447 39.2687 83.1691 39.2687 82.8205C39.2687 81.945 38.7783 81.5072 37.7973 81.5072C37.7568 81.5072 37.7325 81.4869 37.7244 81.4464C37.7244 81.3978 37.7487 81.3734 37.7973 81.3734C38.2594 81.3734 38.5918 81.2924 38.7945 81.1302C38.9971 80.9681 39.0985 80.733 39.0985 80.425C39.0985 79.7359 38.8026 79.3914 38.2108 79.3914C37.8865 79.3914 37.619 79.4967 37.4082 79.7075C37.1975 79.9102 37.011 80.2101 36.8489 80.6074C36.8408 80.6155 36.8245 80.6195 36.8002 80.6195C36.7273 80.6195 36.6948 80.6074 36.7029 80.583L36.9948 79.0509C36.9948 79.0347 37.011 79.0266 37.0434 79.0266C37.0677 79.0266 37.0921 79.0347 37.1164 79.0509C37.1407 79.059 37.1488 79.0671 37.1407 79.0752C37.1326 79.0995 37.1285 79.136 37.1285 79.1846C37.1285 79.3225 37.1934 79.3914 37.3231 79.3914C37.4042 79.3914 37.5136 79.363 37.6514 79.3062C37.6839 79.2981 37.7811 79.2698 37.9433 79.2211C38.1135 79.1725 38.3243 79.1482 38.5756 79.1482C39.0052 79.1482 39.3417 79.2454 39.5849 79.44C39.8281 79.6265 39.9497 79.8737 39.9497 80.1818C39.9497 80.4412 39.8443 80.6803 39.6335 80.8992C39.4227 81.11 39.1349 81.2681 38.7701 81.3734ZM46.1516 83.7082C46.2083 83.7082 46.2407 83.7163 46.2488 83.7325C46.265 83.7487 46.2732 83.7892 46.2732 83.8541C46.2732 83.9189 46.265 84.0567 46.2488 84.2675C46.2083 84.7377 46.188 85.1795 46.188 85.593C46.188 85.6335 46.1637 85.6538 46.1151 85.6538C46.0745 85.6538 46.0543 85.6335 46.0543 85.593C46.0543 85.0417 45.9286 84.6364 45.6773 84.377C45.426 84.1257 45.0774 84 44.6316 84H42.2482C41.8348 84 41.5105 84.1257 41.2754 84.377C41.0484 84.6364 40.9349 85.0417 40.9349 85.593C40.9349 85.6335 40.9106 85.6538 40.862 85.6538C40.8133 85.6538 40.789 85.6335 40.789 85.593C40.789 85.0741 40.7728 84.6364 40.7404 84.2797C40.7241 84.0689 40.716 83.927 40.716 83.8541C40.716 83.7811 40.7201 83.7406 40.7282 83.7325C40.7444 83.7163 40.7809 83.7082 40.8376 83.7082H41.47L43.3912 79.1238C43.4074 79.0914 43.4318 79.0752 43.4642 79.0752C43.4966 79.0752 43.5209 79.0914 43.5372 79.1238L45.5557 83.7082H46.1516ZM41.7983 83.7082H44.6559L43.1967 80.352L41.7983 83.7082ZM48.9499 84.1581C48.4716 84.1581 48.05 84.0446 47.6852 83.8176C47.3285 83.5825 47.0489 83.2704 46.8462 82.8813C46.6516 82.4841 46.5543 82.0544 46.5543 81.5923C46.5543 81.0654 46.6841 80.6195 46.9435 80.2547C47.2029 79.8818 47.5312 79.6062 47.9284 79.4278C48.3338 79.2414 48.7472 79.1482 49.1687 79.1482C49.647 79.1482 50.0645 79.2657 50.4212 79.5008C50.786 79.7359 51.0657 80.048 51.2603 80.4371C51.4548 80.8181 51.5521 81.2235 51.5521 81.6531C51.5521 82.1557 51.4346 82.5975 51.1995 82.9786C50.9644 83.3515 50.6482 83.6433 50.251 83.8541C49.8538 84.0567 49.4201 84.1581 48.9499 84.1581ZM49.3025 83.927C49.7241 83.927 50.0483 83.769 50.2753 83.4528C50.5104 83.1366 50.6279 82.6543 50.6279 82.0058C50.6279 81.495 50.5469 81.0411 50.3848 80.6438C50.2226 80.2466 49.9997 79.9386 49.716 79.7197C49.4322 79.5008 49.1161 79.3914 48.7675 79.3914C48.354 79.3914 48.0338 79.5454 47.8068 79.8534C47.5798 80.1615 47.4663 80.6114 47.4663 81.2032C47.4663 81.7058 47.5434 82.1679 47.6974 82.5894C47.8595 83.0029 48.0784 83.3312 48.354 83.5744C48.6297 83.8095 48.9458 83.927 49.3025 83.927ZM55.8014 79.1482C56.1418 79.1482 56.454 79.2373 56.7377 79.4157C57.0214 79.594 57.2484 79.8534 57.4186 80.1939C57.5889 80.5263 57.674 80.9235 57.674 81.3856C57.674 82.0017 57.5362 82.5205 57.2606 82.9421C56.993 83.3555 56.6566 83.6636 56.2513 83.8662C55.846 84.0608 55.4447 84.1581 55.0474 84.1581C54.8042 84.1581 54.5854 84.1378 54.3908 84.0973C54.1962 84.0567 54.0017 83.9838 53.8071 83.8784V86.359C53.8071 86.6022 53.8355 86.7806 53.8922 86.8941C53.9571 87.0076 54.0706 87.0846 54.2327 87.1251C54.3949 87.1738 54.6502 87.1981 54.9988 87.1981C55.0231 87.1981 55.0353 87.2224 55.0353 87.271C55.0353 87.3197 55.0231 87.344 54.9988 87.344C54.7151 87.344 54.4921 87.3399 54.33 87.3318L53.4302 87.3197L52.7006 87.3318C52.579 87.3399 52.4087 87.344 52.1898 87.344C52.1736 87.344 52.1655 87.3197 52.1655 87.271C52.1655 87.2224 52.1736 87.1981 52.1898 87.1981C52.433 87.1981 52.6114 87.1738 52.7249 87.1251C52.8465 87.0846 52.9276 87.0076 52.9681 86.8941C53.0167 86.7806 53.041 86.6022 53.041 86.359V80.2912C53.041 79.9507 52.9721 79.7278 52.8343 79.6224C52.7046 79.5089 52.4452 79.4522 52.0561 79.4522C52.0399 79.4522 52.0318 79.4278 52.0318 79.3792C52.0318 79.3306 52.0399 79.3062 52.0561 79.3062H53.5639C53.6612 79.3062 53.7261 79.3306 53.7585 79.3792C53.7909 79.4197 53.8071 79.5008 53.8071 79.6224V80.1453C54.1476 79.8048 54.48 79.5535 54.8042 79.3914C55.1285 79.2292 55.4609 79.1482 55.8014 79.1482ZM55.3879 83.8906C55.8176 83.8906 56.1621 83.7041 56.4215 83.3312C56.689 82.9583 56.8228 82.4354 56.8228 81.7626C56.8228 81.0978 56.6728 80.579 56.3729 80.2061C56.0729 79.8332 55.696 79.6467 55.242 79.6467C54.9664 79.6467 54.7151 79.7116 54.4881 79.8413C54.2611 79.9629 54.0341 80.1412 53.8071 80.3763V83.1488C54.0179 83.392 54.2449 83.5785 54.4881 83.7082C54.7313 83.8298 55.0312 83.8906 55.3879 83.8906ZM60.9436 84.1581C60.4653 84.1581 60.0438 84.0446 59.679 83.8176C59.3223 83.5825 59.0426 83.2704 58.8399 82.8813C58.6454 82.4841 58.5481 82.0544 58.5481 81.5923C58.5481 81.0654 58.6778 80.6195 58.9372 80.2547C59.1966 79.8818 59.525 79.6062 59.9222 79.4278C60.3275 79.2414 60.741 79.1482 61.1625 79.1482C61.6408 79.1482 62.0583 79.2657 62.415 79.5008C62.7798 79.7359 63.0595 80.048 63.254 80.4371C63.4486 80.8181 63.5459 81.2235 63.5459 81.6531C63.5459 82.1557 63.4283 82.5975 63.1932 82.9786C62.9581 83.3515 62.642 83.6433 62.2447 83.8541C61.8475 84.0567 61.4138 84.1581 60.9436 84.1581ZM61.2963 83.927C61.7178 83.927 62.0421 83.769 62.2691 83.4528C62.5042 83.1366 62.6217 82.6543 62.6217 82.0058C62.6217 81.495 62.5406 81.0411 62.3785 80.6438C62.2164 80.2466 61.9934 79.9386 61.7097 79.7197C61.426 79.5008 61.1098 79.3914 60.7612 79.3914C60.3478 79.3914 60.0276 79.5454 59.8006 79.8534C59.5736 80.1615 59.4601 80.6114 59.4601 81.2032C59.4601 81.7058 59.5371 82.1679 59.6911 82.5894C59.8533 83.0029 60.0722 83.3312 60.3478 83.5744C60.6234 83.8095 60.9396 83.927 61.2963 83.927ZM67.5154 81.4099C68.4315 81.4991 68.8895 81.8679 68.8895 82.5165C68.8895 82.9542 68.7152 83.315 68.3666 83.5987C68.018 83.8825 67.5722 84.0243 67.029 84.0243C66.9236 84.0243 66.6926 84.0162 66.3359 84C65.963 83.9838 65.6914 83.9757 65.5212 83.9757L64.8646 83.9878C64.743 83.9959 64.5768 84 64.366 84C64.3417 84 64.3295 83.9757 64.3295 83.927C64.3295 83.8784 64.3417 83.8541 64.366 83.8541C64.5849 83.8541 64.747 83.8338 64.8524 83.7933C64.9578 83.7527 65.0267 83.6757 65.0591 83.5622C65.0996 83.4406 65.1199 83.2582 65.1199 83.015V80.2912C65.1199 80.048 65.0996 79.8697 65.0591 79.7562C65.0267 79.6346 64.9578 79.5535 64.8524 79.513C64.7551 79.4724 64.597 79.4522 64.3782 79.4522C64.3538 79.4522 64.3417 79.4278 64.3417 79.3792C64.3417 79.3306 64.3538 79.3062 64.3782 79.3062L65.5212 79.3184L66.1535 79.3062C66.4616 79.29 66.6967 79.2819 66.8588 79.2819C67.3533 79.2819 67.7303 79.3589 67.9897 79.513C68.2491 79.667 68.3788 79.898 68.3788 80.2061C68.3788 80.4169 68.3058 80.6195 68.1599 80.8141C68.0221 81.0086 67.8073 81.2073 67.5154 81.4099ZM66.5548 79.4643C66.3683 79.4643 66.2265 79.4846 66.1292 79.5251C66.04 79.5657 65.9752 79.6467 65.9346 79.7683C65.9022 79.8818 65.886 80.0642 65.886 80.3155V81.3978H67.1142H67.2358C67.4303 81.1627 67.5276 80.8627 67.5276 80.4979C67.5276 80.1412 67.4465 79.8818 67.2844 79.7197C67.1223 79.5494 66.8791 79.4643 66.5548 79.4643ZM66.8223 83.8176C67.6168 83.8176 68.014 83.4731 68.014 82.784C68.014 82.4192 67.9046 82.1314 67.6857 81.9206C67.4749 81.7099 67.1425 81.6045 66.6886 81.6045H65.886V83.015C65.886 83.3069 65.9508 83.5136 66.0806 83.6352C66.2103 83.7568 66.4575 83.8176 66.8223 83.8176ZM72.4573 81.2397C73.5598 81.2397 74.1111 81.6612 74.1111 82.5043C74.1111 82.9502 73.949 83.315 73.6247 83.5987C73.3085 83.8825 72.8991 84.0243 72.3965 84.0243L71.7156 84C71.3265 83.9838 71.0508 83.9757 70.8887 83.9757L70.2321 83.9878C70.1105 83.9959 69.9443 84 69.7335 84C69.7092 84 69.697 83.9757 69.697 83.927C69.697 83.8784 69.7092 83.8541 69.7335 83.8541C69.9524 83.8541 70.1145 83.8338 70.2199 83.7933C70.3253 83.7527 70.3942 83.6757 70.4266 83.5622C70.4671 83.4406 70.4874 83.2582 70.4874 83.015V80.2912C70.4874 80.048 70.4671 79.8697 70.4266 79.7562C70.3942 79.6346 70.3253 79.5535 70.2199 79.513C70.1226 79.4724 69.9645 79.4522 69.7457 79.4522C69.7213 79.4522 69.7092 79.4278 69.7092 79.3792C69.7092 79.3306 69.7213 79.3062 69.7457 79.3062C69.9483 79.3062 70.1064 79.3103 70.2199 79.3184L70.8887 79.3306L71.6061 79.3184C71.7358 79.3103 71.9142 79.3062 72.1412 79.3062C72.1655 79.3062 72.1777 79.3306 72.1777 79.3792C72.1777 79.4278 72.1655 79.4522 72.1412 79.4522C71.8818 79.4522 71.6913 79.4765 71.5697 79.5251C71.4481 79.5738 71.3629 79.6589 71.3143 79.7805C71.2738 79.894 71.2535 80.0723 71.2535 80.3155V81.4099C71.6021 81.2964 72.0034 81.2397 72.4573 81.2397ZM72.1655 83.8419C72.8951 83.8419 73.2599 83.4893 73.2599 82.784C73.2599 82.3706 73.1586 82.0503 72.9559 81.8234C72.7613 81.5883 72.4533 81.4707 72.0317 81.4707C71.7399 81.4707 71.4805 81.5072 71.2535 81.5802V83.015C71.2535 83.315 71.3143 83.5298 71.4359 83.6595C71.5656 83.7811 71.8088 83.8419 72.1655 83.8419ZM78.8175 83.2947C78.8418 83.2947 78.8621 83.3109 78.8783 83.3434C78.9026 83.3677 78.9067 83.392 78.8905 83.4163C78.3473 83.9027 77.7474 84.1459 77.0908 84.1459C76.6125 84.1459 76.2031 84.0405 75.8626 83.8298C75.5221 83.6109 75.2627 83.3231 75.0844 82.9664C74.906 82.6016 74.8169 82.2125 74.8169 81.799C74.8169 81.3207 74.9303 80.883 75.1573 80.4858C75.3924 80.0885 75.7086 79.7764 76.1058 79.5494C76.503 79.3143 76.9408 79.1968 77.4191 79.1968C77.8893 79.1968 78.246 79.3184 78.4892 79.5616C78.7405 79.7967 78.8661 80.1372 78.8661 80.583C78.8661 80.8019 78.8175 80.9114 78.7202 80.9114L75.7167 80.9235C75.7005 81.1019 75.6924 81.2397 75.6924 81.337C75.6924 82.0422 75.8586 82.6097 76.1909 83.0394C76.5233 83.469 76.9935 83.6838 77.6015 83.6838C77.8447 83.6838 78.0474 83.6555 78.2095 83.5987C78.3797 83.5339 78.5783 83.4325 78.8053 83.2947H78.8175ZM77.0057 79.44C76.6652 79.44 76.3855 79.5575 76.1666 79.7926C75.9477 80.0196 75.8059 80.3398 75.741 80.7533L77.9541 80.7046C77.9541 80.2912 77.869 79.9791 77.6988 79.7683C77.5366 79.5494 77.3056 79.44 77.0057 79.44Z" fill="black"/>
</svg>
