<svg width="960" height="316" viewBox="0 0 960 316" fill="none" xmlns="http://www.w3.org/2000/svg">
<path d="M0.375002 48.8359C0.375003 61.1918 4.97191 72.4668 12.5391 81.0264L12.5537 81.043L12.5654 81.0605C111.188 222.859 283.473 315.12 481.001 315.12C678.353 315.12 851.241 219.332 949.91 77.7353L949.916 77.7275C955.881 69.6603 959.41 59.663 959.41 48.8359C959.41 22.0696 937.838 0.375092 911.231 0.37496C895.601 0.374961 881.708 7.86138 872.904 19.4668C786.287 140.809 647.541 213.168 481.001 213.168C318.628 213.168 176.279 138.455 88.9375 22.2256L86.8848 19.4727C78.0817 7.86407 64.1869 0.374997 48.5537 0.374998C21.9475 0.375113 0.375233 22.0697 0.375002 48.8359Z" stroke="white" stroke-width="0.75"/>
</svg>
