<svg width="28" height="19" viewBox="0 0 28 19" fill="none" xmlns="http://www.w3.org/2000/svg">
<path d="M9.576 11.875C6.37488 11.875 0 13.4629 0 16.625L0 19H19.152V16.625C19.152 13.4629 12.7771 11.875 9.576 11.875ZM3.20112 16.2857C4.35024 15.4986 7.12728 14.5893 9.576 14.5893C12.0247 14.5893 14.8018 15.4986 15.9509 16.2857H3.20112ZM9.576 9.5C12.2162 9.5 14.364 7.36929 14.364 4.75C14.364 2.13071 12.2162 0 9.576 0C6.93576 0 4.788 2.13071 4.788 4.75C4.788 7.36929 6.93576 9.5 9.576 9.5ZM9.576 2.71429C10.7114 2.71429 11.628 3.62357 11.628 4.75C11.628 5.87643 10.7114 6.78571 9.576 6.78571C8.44056 6.78571 7.524 5.87643 7.524 4.75C7.524 3.62357 8.44056 2.71429 9.576 2.71429ZM19.2067 11.9564C20.7936 13.0964 21.888 14.6164 21.888 16.625V19H27.36V16.625C27.36 13.8836 22.572 12.3229 19.2067 11.9564ZM17.784 9.5C20.4242 9.5 22.572 7.36929 22.572 4.75C22.572 2.13071 20.4242 0 17.784 0C17.0453 0 16.3613 0.176428 15.732 0.475C16.5938 1.68286 17.1 3.16214 17.1 4.75C17.1 6.33786 16.5938 7.81714 15.732 9.025C16.3613 9.32357 17.0453 9.5 17.784 9.5Z" fill="black"/>
<path d="M9.576 2.71429C10.7114 2.71429 11.628 3.62357 11.628 4.75C11.628 5.87643 10.7114 6.78571 9.576 6.78571C8.44056 6.78571 7.524 5.87643 7.524 4.75C7.524 3.62357 8.44056 2.71429 9.576 2.71429Z" fill="black"/>
<path d="M3.20112 16.2857C4.35024 15.4986 7.12728 14.5893 9.576 14.5893C12.0247 14.5893 14.8018 15.4986 15.9509 16.2857H3.20112Z" fill="black"/>
</svg>
