<svg width="19" height="19" viewBox="0 0 19 19" fill="none" xmlns="http://www.w3.org/2000/svg">
<path d="M4.22222 19C3.92315 19 3.67228 18.8987 3.46961 18.696C3.26765 18.494 3.16667 18.2435 3.16667 17.9444C3.16667 17.6454 3.26765 17.3949 3.46961 17.1929C3.67228 16.9902 3.92315 16.8889 4.22222 16.8889H8.44444L8.44444 11.6111L0.369444 2.53333C0.263889 2.41019 0.175926 2.25607 0.105555 2.071C0.0351851 1.88663 0 1.70648 0 1.53056C0 1.10833 0.149537 0.747685 0.448611 0.448611C0.747685 0.149537 1.10833 0 1.53056 0L17.4694 0C17.8917 0 18.2523 0.149537 18.5514 0.448611C18.8505 0.747685 19 1.11713 19 1.55694C19 1.71528 18.9648 1.88663 18.8944 2.071C18.8241 2.25607 18.7361 2.41019 18.6306 2.53333L10.5556 11.6111L10.5556 16.8889L14.7778 16.8889C15.0769 16.8889 15.3274 16.9902 15.5293 17.1929C15.732 17.3949 15.8333 17.6454 15.8333 17.9444C15.8333 18.2435 15.732 18.494 15.5293 18.696C15.3274 18.8987 15.0769 19 14.7778 19L4.22222 19ZM4.69722 4.22222L14.3028 4.22222L16.2028 2.11111L2.79722 2.11111L4.69722 4.22222Z" fill="black"/>
</svg>
