<svg width="1280" height="421" viewBox="0 0 1280 421" fill="none" xmlns="http://www.w3.org/2000/svg">
<path d="M0.500003 65.1152C0.500022 81.5898 6.62914 96.6233 16.7188 108.036L16.7383 108.058L16.7549 108.081C148.252 297.146 377.963 420.16 641.334 420.16C904.47 420.16 1134.99 292.443 1266.55 103.647L1266.55 103.637C1274.51 92.8804 1279.21 79.5513 1279.21 65.1152C1279.21 29.4265 1250.45 0.499945 1214.97 0.499947C1194.13 0.500026 1175.6 10.4874 1163.86 25.9677L1163.86 25.9667C1048.37 187.75 863.382 284.224 641.334 284.224C423.131 284.224 232.051 183.031 115.846 25.9629C104.108 10.4852 85.5821 0.499996 64.7383 0.499997C29.2632 0.500152 0.500001 29.4266 0.500003 65.1152Z" stroke="white"/>
</svg>
