<svg width="40" height="40" viewBox="0 0 40 40" fill="none" xmlns="http://www.w3.org/2000/svg">
<path d="M24.1606 0.441437C13.3619 -1.85391 2.73477 5.04741 0.439422 15.8462C-1.85592 26.6449 5.04539 37.272 15.8441 39.5673C26.6429 41.8627 37.27 34.9614 39.5653 24.1626C41.8607 13.3639 34.9594 2.73678 24.1606 0.441437ZM19.3288 31.6386L18.8132 34.0644L15.3896 33.3367L15.926 30.8131C14.5532 30.1532 11.5707 28.3129 11.2489 23.7666L14.7554 23.142C14.7813 23.5974 15.0209 27.4719 18.5814 28.2287C20.4008 28.6154 22.6545 28.113 23.1243 25.9024C23.5235 24.0243 22.362 22.7551 19.5081 20.983C17.5184 19.7626 13.3828 17.575 14.3309 13.1147C14.3725 12.919 15.3484 8.42372 20.6872 8.41349L21.2112 5.94856L24.6347 6.67625L24.1191 9.10205C27.5856 10.4932 28.285 13.6475 28.3955 14.5707L25.026 15.2244C24.9563 14.494 24.429 12.3576 21.8662 11.8129C20.4968 11.5218 18.1715 11.7841 17.7473 13.7795C17.3523 15.638 18.885 16.6999 22.1219 18.5942C26.4719 21.2159 27.1579 23.8563 26.5757 26.5951C25.4821 31.7401 20.3835 31.6787 19.3288 31.6386Z" fill="black"/>
</svg>