<svg width="36" height="25" viewBox="0 0 36 25" fill="none" xmlns="http://www.w3.org/2000/svg">
<path d="M12.6 15.625C8.388 15.625 0 17.7143 0 21.875L0 25L25.2 25V21.875C25.2 17.7143 16.812 15.625 12.6 15.625ZM4.212 21.4286C5.724 20.3929 9.378 19.1964 12.6 19.1964C15.822 19.1964 19.476 20.3929 20.988 21.4286L4.212 21.4286ZM12.6 12.5C16.074 12.5 18.9 9.69643 18.9 6.25C18.9 2.80357 16.074 0 12.6 0C9.126 0 6.3 2.80357 6.3 6.25C6.3 9.69643 9.126 12.5 12.6 12.5ZM12.6 3.57143C14.094 3.57143 15.3 4.76786 15.3 6.25C15.3 7.73214 14.094 8.92857 12.6 8.92857C11.106 8.92857 9.9 7.73214 9.9 6.25C9.9 4.76786 11.106 3.57143 12.6 3.57143ZM25.272 15.7321C27.36 17.2321 28.8 19.2321 28.8 21.875V25H36V21.875C36 18.2679 29.7 16.2143 25.272 15.7321ZM23.4 12.5C26.874 12.5 29.7 9.69643 29.7 6.25C29.7 2.80357 26.874 0 23.4 0C22.428 0 21.528 0.232143 20.7 0.625C21.834 2.21429 22.5 4.16071 22.5 6.25C22.5 8.33929 21.834 10.2857 20.7 11.875C21.528 12.2679 22.428 12.5 23.4 12.5Z" fill="black"/>
<path d="M12.6 3.57143C14.094 3.57143 15.3 4.76786 15.3 6.25C15.3 7.73214 14.094 8.92857 12.6 8.92857C11.106 8.92857 9.9 7.73214 9.9 6.25C9.9 4.76786 11.106 3.57143 12.6 3.57143Z" fill="black"/>
<path d="M4.212 21.4286C5.724 20.3929 9.378 19.1964 12.6 19.1964C15.822 19.1964 19.476 20.3929 20.988 21.4286L4.212 21.4286Z" fill="black"/>
</svg>
