<svg width="25" height="25" viewBox="0 0 25 25" fill="none" xmlns="http://www.w3.org/2000/svg">
<path d="M5.55556 25C5.16204 25 4.83194 24.8667 4.56528 24.6C4.29954 24.3343 4.16667 24.0046 4.16667 23.6111C4.16667 23.2176 4.29954 22.888 4.56528 22.6222C4.83194 22.3556 5.16204 22.2222 5.55556 22.2222H11.1111V15.2778L0.486111 3.33333C0.347222 3.1713 0.231481 2.96852 0.138889 2.725C0.0462962 2.48241 0 2.24537 0 2.01389C0 1.45833 0.196759 0.983796 0.590278 0.590278C0.983796 0.196759 1.45833 0 2.01389 0H22.9861C23.5417 0 24.0162 0.196759 24.4097 0.590278C24.8032 0.983796 25 1.46991 25 2.04861C25 2.25694 24.9537 2.48241 24.8611 2.725C24.7685 2.96852 24.6528 3.1713 24.5139 3.33333L13.8889 15.2778V22.2222H19.4444C19.838 22.2222 20.1676 22.3556 20.4333 22.6222C20.7 22.888 20.8333 23.2176 20.8333 23.6111C20.8333 24.0046 20.7 24.3343 20.4333 24.6C20.1676 24.8667 19.838 25 19.4444 25H5.55556ZM6.18055 5.55556H18.8194L21.3194 2.77778H3.68056L6.18055 5.55556Z" fill="black"/>
</svg>
