<svg width="25" height="25" viewBox="0 0 25 25" fill="none" xmlns="http://www.w3.org/2000/svg">
<path d="M5.58095 24.8338C5.32471 25.0431 5.05122 25.0547 4.76049 24.8687C4.46884 24.6827 4.38125 24.4269 4.49773 24.1014L7.11844 15.556L0.304586 10.673C0.0250438 10.4869 -0.0620803 10.2312 0.043214 9.90562C0.147577 9.58009 0.362824 9.41732 0.688957 9.41732H9.14512L11.8357 0.488305C11.8823 0.302284 11.9699 0.174395 12.0985 0.104637C12.2261 0.034879 12.3599 0 12.4996 0C12.6394 0 12.7736 0.034879 12.9022 0.104637C13.0298 0.174395 13.117 0.302284 13.1635 0.488305L15.8541 9.41732H24.3103C24.6364 9.41732 24.8521 9.58009 24.9574 9.90562C25.0618 10.2312 24.9742 10.4869 24.6947 10.673L17.8808 15.556L20.5015 24.1014C20.618 24.4269 20.5309 24.6827 20.2402 24.8687C19.9485 25.0547 19.6746 25.0431 19.4183 24.8338L12.4996 19.602L5.58095 24.8338Z" fill="black"/>
</svg>
