<svg width="239" height="113" viewBox="0 0 239 113" fill="none" xmlns="http://www.w3.org/2000/svg">
<path d="M0.000520971 87.6402C2.68051 87.6802 5.36054 87.7802 8.04053 87.7402C16.5905 87.6102 25.1505 87.3602 33.7005 87.2902C41.3805 87.2202 49.0705 87.5402 56.7505 87.3002C63.6805 87.0902 70.0305 84.7302 75.7805 80.8202C78.6605 78.8702 81.8605 77.6702 85.3005 78.1402C89.4705 78.7102 93.3505 77.9502 97.2305 76.6602C99.5105 75.9002 102.061 75.7902 103.761 73.7302C103.891 73.5702 104.181 73.5402 104.391 73.4602C106.421 72.6402 108.591 72.0402 110.451 70.9402C113.641 69.0502 117.441 68.0902 119.731 64.7002C120.501 63.5602 122.251 63.1102 123.451 62.2102C124.961 61.0902 126.341 59.8002 127.831 58.6402C129.051 57.6902 130.381 56.8702 131.601 55.9202C133.131 54.7202 134.811 53.6202 136.061 52.1602C139.261 48.4002 142.611 44.6902 145.261 40.5602C149.141 34.5002 152.511 28.1002 153.851 20.8702C154.531 17.1902 157.371 15.9702 160.491 15.0302C168.831 12.5302 177.181 10.0102 184.641 5.33023C187.101 3.78023 189.691 3.46023 192.491 4.10023C193.261 4.27023 194.121 4.29024 194.891 4.13024C199.931 3.07024 204.951 1.86023 210.001 0.870237C216.121 -0.32976 222.221 -0.629762 228.061 2.22024C228.491 2.43024 228.871 2.74024 229.201 3.45024C228.631 3.53024 228.041 3.74024 227.491 3.66024C221.941 2.85024 216.631 4.37024 211.241 5.22024C210.801 5.29023 210.201 5.46023 210.011 5.78023C208.021 9.18023 204.591 8.97023 201.401 9.18023C198.341 9.38023 195.241 9.08023 192.211 9.43023C188.311 9.87023 184.751 11.4902 181.291 13.3402C176.941 15.6602 172.601 18.0302 168.071 19.9402C162.121 22.4502 158.501 26.9902 155.961 32.6102C153.761 37.4702 151.701 42.4102 149.631 47.3302C148.861 49.1702 148.451 51.0702 149.371 53.2602C153.941 50.5102 158.261 47.7202 161.871 43.9602C165.071 40.6202 167.761 36.9302 169.371 32.5202C170.391 29.7402 172.831 29.0302 175.431 28.9602C177.811 28.8902 180.201 29.3002 182.581 29.2502C188.461 29.1102 194.311 28.7702 199.691 25.9802C201.901 24.8302 204.171 24.9402 206.491 25.5802C208.561 26.1502 210.631 26.7502 212.731 27.2302C216.051 27.9902 219.381 28.7802 222.731 29.3402C227.961 30.2202 232.681 32.0602 236.491 35.9002C237.241 36.6502 238.111 37.2802 238.781 38.2002C234.071 36.6502 229.351 35.0902 224.651 33.5402C223.201 36.2802 220.151 37.1702 216.951 35.6502C215.391 34.9102 213.981 33.8402 212.521 32.9002C207.831 29.8702 202.801 30.1702 197.731 31.4702C190.761 33.2602 183.761 35.0002 176.911 37.1802C174.641 37.9002 172.771 39.9202 170.741 41.3602C165.381 45.1702 161.701 50.5802 157.231 55.2302C157.391 55.4002 157.551 55.5702 157.711 55.7302C159.331 54.1402 161.081 52.6702 162.521 50.9402C164.701 48.3102 166.221 47.7202 169.071 49.5002C172.381 51.5702 175.951 52.8302 179.701 53.7202C182.451 54.3702 184.331 55.9102 185.801 58.4402C187.051 60.5902 188.901 62.5302 190.861 64.0902C195.271 67.5802 197.931 72.1602 199.601 77.4402C198.921 76.1902 198.301 74.9002 197.541 73.7102C196.731 72.4402 195.861 71.1902 194.881 70.0502C193.901 68.9202 192.751 67.9402 191.671 66.8902C189.981 68.7802 188.471 68.8702 186.461 67.0102C185.381 66.0102 184.521 64.7002 183.821 63.3902C182.601 61.1102 181.171 59.2702 178.531 58.4302C175.551 57.4902 172.681 56.2102 169.761 55.0802C167.251 54.1102 164.841 54.8002 162.951 57.0202C164.311 59.1402 166.121 60.7502 168.581 61.3902C172.781 62.4902 175.751 65.3602 178.731 68.2202C179.761 69.2102 180.771 70.2202 181.801 71.2302L181.531 71.6802C181.011 71.4002 180.471 71.1602 179.981 70.8502C177.581 69.3402 175.241 67.7102 172.761 66.3402C171.461 65.6202 170.081 65.1302 168.331 65.5202C166.191 65.9902 164.691 64.4102 163.551 62.6602C162.731 61.4002 161.971 60.0102 160.231 59.8602C159.801 59.8202 159.221 59.8202 158.931 60.0602C157.251 61.4602 155.561 62.6302 154.401 64.8102C152.971 67.5002 151.781 70.6502 148.931 72.4402C148.651 72.6202 148.371 72.9002 148.251 73.2002C147.441 75.1202 145.771 75.8802 143.961 76.4802C141.921 77.1502 139.841 77.7202 138.261 79.9002C139.581 80.0702 140.711 80.3602 141.851 80.3502C145.221 80.3402 148.581 80.1402 151.951 80.1802C152.941 80.1902 153.931 80.7402 154.921 81.0502C158.171 82.0802 161.211 83.4302 163.631 85.9702C164.151 86.5202 165.011 86.8502 165.781 87.0402C169.051 87.8502 172.361 88.4302 175.741 88.6602C177.601 88.7902 179.441 89.5402 181.241 90.1502C181.871 90.3602 182.361 91.0002 183.071 91.5602C180.221 91.5602 177.721 91.5402 175.211 91.5602C174.021 91.5802 172.901 91.4802 172.421 93.1802C172.031 94.5402 168.541 95.4602 166.561 94.8502C164.261 94.1402 162.101 93.3302 160.371 91.2502C159.301 89.9702 157.031 89.5702 155.221 89.0302C150.761 87.7002 146.221 87.9102 141.751 88.9602C138.621 89.7002 135.561 89.7602 132.451 89.0802C131.881 88.9602 131.311 88.8502 130.741 88.7502C128.561 88.3802 126.631 88.6302 124.611 89.8602C120.891 92.1102 117.061 94.2702 113.061 95.9302C110.661 96.9202 107.841 96.8802 105.201 97.3002C104.511 97.4102 103.751 97.3502 103.141 97.6202C100.171 98.9102 97.3205 98.3002 94.3305 97.5502C86.9805 95.6902 79.5805 95.2602 72.1205 97.1802C67.3405 98.4102 62.5105 99.4402 57.6705 100.41C52.9605 101.36 48.1705 101.94 43.5005 103.04C40.9305 103.64 38.5305 104.95 36.0505 105.95C28.3505 109.04 20.2805 110.36 12.0605 111.03C8.02052 111.36 4.00052 112 -0.0194855 112.49C-0.0194847 104.21 -0.019484 95.9402 -0.0194833 87.6602L0.000520971 87.6402Z" fill="black"/>
</svg>
