<svg width="148" height="218" viewBox="0 0 148 218" fill="none" xmlns="http://www.w3.org/2000/svg">
<path d="M120.186 138.344C126.289 162.142 132.039 186.03 138.684 209.676C139.485 212.526 140.293 215.375 141.106 218.222L147.761 218.222C144.716 207.17 141.68 196.115 138.722 185.04C133.833 166.761 129.336 148.382 124.682 130.043C124.545 129.476 124.605 128.86 124.577 128.345C126.187 127.49 127.611 126.724 129.053 125.962C124.37 126.606 122.808 124.539 121.622 120.22C119.142 111.225 115.431 102.872 107.486 96.8519C104.462 94.5699 102.676 90.5007 100.718 87.0144C98.7663 83.5388 97.3411 79.7697 95.6009 76.1732C90.4073 65.4728 83.2186 56.2107 76.1303 46.6557C67.2795 34.7209 61.8275 20.2906 54.5747 7.12776C53.0385 4.34343 50.3988 1.78342 47.6228 0.239714C46.1451 -0.588516 43.3216 0.957759 41.1109 1.42408C55.8297 15.9685 65.3993 29.8447 70.0245 46.8172C70.5821 48.8626 70.1669 51.1698 70.218 53.8461C62.6122 45.5823 55.8339 38.223 49.0853 30.8989C50.5549 33.8844 51.8609 36.9871 53.6573 39.7737C57.6769 46.056 62.0013 52.1265 66.568 58.8324C64.6895 58.917 63.9581 59.1754 63.4544 58.937C62.5207 58.504 61.6183 57.8833 60.8771 57.1587C52.3777 48.909 43.9543 40.5648 35.3828 32.3921C33.7951 30.8738 31.4982 28.869 29.7105 29.0474C24.536 29.5674 22.7349 26.4668 20.5197 22.8417C17.0859 17.2319 9.15407 15.2221 7.83139 7.55131C7.76252 7.18476 2.7232 7.67855 4.60694e-05 7.77505C0.925161 9.91835 1.78958 12.0856 2.78614 14.198C5.2363 19.3916 9.60637 20.8818 15.0401 21.047C16.4552 21.0936 17.8071 23.4032 19.1892 24.6735C29.1586 33.7867 39.164 42.8614 49.0935 52.0308C52.5957 55.2677 55.9353 58.7007 59.3577 62.0499C58.743 62.7963 58.1106 63.5388 57.4851 64.2921C53.8026 61.9325 50.0365 59.7029 46.4952 57.161C43.8456 55.2466 41.7084 52.5453 38.9491 50.8386C31.5889 46.2685 24.2232 41.5955 16.4314 37.8668C11.4506 35.4766 6.3071 31.4409 0.586534 33.5459C7.23882 37.5373 14.016 41.2504 20.412 45.5289C28.2549 50.777 35.6691 56.6822 43.4975 61.955C52.2075 67.8162 61.4071 72.9965 69.9322 79.1139C73.3227 81.54 76.5573 85.3298 73.5775 90.8125C59.1004 90.9978 45.3012 85.6474 30.951 84.0463C30.5543 83.9976 30.1573 83.736 29.8349 83.472C29.1586 82.9187 28.5437 82.2954 27.9142 81.6966C27.9561 82.6589 27.6013 84.0444 28.0945 84.5027C29.2596 85.5781 30.7535 86.5023 32.2722 86.9693C43.3518 90.344 54.4835 93.5633 65.5853 96.878C69.1846 97.9518 73.0744 100.68 76.2572 99.9981C82.6002 98.6448 87.3498 101.199 92.2907 103.856L92.4766 103.956C95.8271 105.753 99.3989 107.469 102.156 109.999C107.758 115.124 116.178 117.702 117.643 126.727C118.279 130.64 119.202 134.504 120.186 138.344Z" fill="black"/>
</svg>
