<svg width="418" height="418" viewBox="0 0 418 418" fill="none" xmlns="http://www.w3.org/2000/svg">
<circle cx="208.915" cy="208.915" r="208.915" fill="white"/>
<path d="M198.785 187.24C198.747 187.24 198.709 187.206 198.671 187.137C198.632 187.061 198.629 187.007 198.659 186.976C198.873 186.716 198.973 186.594 198.957 186.609C199.623 185.776 200.12 185.134 200.448 184.682C200.777 184.224 201.037 183.776 201.228 183.34C201.427 182.905 201.527 182.469 201.527 182.033C201.527 181.536 201.416 181.173 201.194 180.943C200.972 180.706 200.67 180.588 200.288 180.588C199.921 180.588 199.615 180.687 199.37 180.886C199.126 181.077 198.957 181.345 198.866 181.689C198.866 181.696 198.85 181.7 198.82 181.7C198.759 181.7 198.732 181.685 198.739 181.654C198.831 181.127 199.061 180.71 199.428 180.404C199.802 180.098 200.265 179.945 200.815 179.945C201.381 179.945 201.821 180.106 202.135 180.427C202.448 180.748 202.605 181.173 202.605 181.7C202.605 182.121 202.505 182.534 202.307 182.939C202.108 183.344 201.871 183.715 201.595 184.052C201.32 184.388 200.968 184.786 200.54 185.244C200.127 185.673 199.837 186.001 199.669 186.231C199.638 186.284 199.657 186.311 199.726 186.311C200.598 186.311 201.228 186.296 201.618 186.265C202.016 186.227 202.287 186.154 202.433 186.047C202.586 185.933 202.666 185.753 202.674 185.508C202.674 185.485 202.693 185.474 202.731 185.474C202.777 185.474 202.8 185.485 202.8 185.508V187.114C202.8 187.145 202.788 187.175 202.765 187.206C202.75 187.229 202.727 187.24 202.697 187.24H198.785Z" fill="black"/>
<path d="M199.767 170.583C199.04 170.583 198.413 170.296 197.886 169.723L197.874 169.7C197.874 169.669 197.889 169.646 197.92 169.631C197.958 169.608 197.985 169.608 198 169.631C198.176 169.807 198.39 169.941 198.643 170.032C198.895 170.124 199.14 170.17 199.377 170.17C199.897 170.17 200.275 170.021 200.512 169.723C200.749 169.417 200.868 169.019 200.868 168.53C200.868 167.375 200.241 166.798 198.987 166.798C198.956 166.798 198.937 166.775 198.929 166.729C198.929 166.676 198.948 166.649 198.987 166.649C199.598 166.649 200.027 166.515 200.271 166.247C200.524 165.98 200.65 165.601 200.65 165.112C200.65 164.63 200.547 164.275 200.34 164.045C200.134 163.816 199.851 163.701 199.491 163.701C199.186 163.701 198.895 163.777 198.62 163.93C198.344 164.076 198.142 164.294 198.012 164.584C198.012 164.592 198 164.596 197.977 164.596C197.954 164.596 197.928 164.588 197.897 164.573C197.874 164.557 197.866 164.546 197.874 164.538C198.042 164.11 198.31 163.774 198.677 163.529C199.044 163.277 199.465 163.15 199.939 163.15C200.466 163.15 200.895 163.3 201.223 163.598C201.56 163.896 201.728 164.278 201.728 164.745C201.728 165.211 201.564 165.636 201.235 166.018C200.906 166.4 200.466 166.645 199.916 166.752L199.939 166.66C200.367 166.63 200.734 166.695 201.04 166.855C201.353 167.016 201.59 167.238 201.751 167.52C201.912 167.803 201.992 168.109 201.992 168.438C201.992 168.859 201.896 169.233 201.705 169.562C201.522 169.883 201.262 170.136 200.925 170.319C200.589 170.495 200.203 170.583 199.767 170.583Z" fill="black"/>
<path d="M202.05 152.721C202.05 152.951 202.065 153.123 202.096 153.237C202.134 153.345 202.203 153.417 202.302 153.455C202.409 153.494 202.574 153.513 202.796 153.513C202.811 153.513 202.819 153.536 202.819 153.582C202.819 153.627 202.811 153.65 202.796 153.65C202.574 153.65 202.402 153.647 202.279 153.639L201.522 153.627L200.628 153.639C200.475 153.647 200.261 153.65 199.985 153.65C199.97 153.65 199.963 153.627 199.963 153.582C199.963 153.536 199.97 153.513 199.985 153.513C200.314 153.513 200.544 153.497 200.674 153.467C200.811 153.429 200.903 153.36 200.949 153.26C200.995 153.153 201.018 152.974 201.018 152.721V147.824L201.465 147.48L198.861 151.127C198.816 151.181 198.835 151.207 198.919 151.207C200.242 151.207 201.545 151.184 202.83 151.138C202.861 151.138 202.876 151.219 202.876 151.379C202.876 151.54 202.861 151.62 202.83 151.62C201.706 151.567 200.192 151.54 198.288 151.54C198.25 151.54 198.219 151.528 198.196 151.506C198.181 151.475 198.185 151.444 198.208 151.414L201.878 146.424C201.893 146.409 201.916 146.401 201.947 146.401C201.97 146.401 201.993 146.409 202.016 146.424C202.039 146.432 202.05 146.447 202.05 146.47V152.721Z" fill="black"/>
<path d="M199.222 133.036C199.184 133.036 199.153 133.025 199.13 133.002C199.107 132.971 199.1 132.937 199.107 132.898L199.474 129.824C199.482 129.771 199.493 129.737 199.509 129.721C199.524 129.698 199.562 129.687 199.623 129.687C200.663 129.687 201.352 129.683 201.688 129.675C202.032 129.66 202.258 129.633 202.365 129.595C202.472 129.557 202.556 129.477 202.617 129.354C202.625 129.339 202.648 129.335 202.686 129.343C202.724 129.343 202.739 129.358 202.732 129.389L202.56 130.49C202.537 130.581 202.506 130.643 202.468 130.673C202.437 130.696 202.372 130.708 202.273 130.708L199.876 130.65C199.776 130.65 199.715 130.704 199.692 130.811L199.428 132.887L199.222 133.036ZM198.97 136.041C199.13 136.217 199.325 136.351 199.555 136.443C199.792 136.534 200.036 136.58 200.289 136.58C200.801 136.58 201.183 136.42 201.436 136.098C201.696 135.777 201.826 135.353 201.826 134.825C201.826 134.237 201.684 133.766 201.401 133.415C201.126 133.063 200.717 132.887 200.174 132.887C199.929 132.887 199.715 132.91 199.532 132.956C199.348 133.002 199.245 133.028 199.222 133.036C199.214 133.036 199.211 133.025 199.211 133.002C199.211 132.963 199.214 132.925 199.222 132.887C199.237 132.841 199.249 132.807 199.256 132.784C199.417 132.722 199.623 132.665 199.876 132.612C200.136 132.55 200.407 132.52 200.69 132.52C201.386 132.52 201.933 132.707 202.33 133.082C202.736 133.457 202.938 133.996 202.938 134.699C202.938 135.426 202.72 135.991 202.284 136.397C201.849 136.794 201.294 136.993 200.621 136.993C200.262 136.993 199.941 136.924 199.658 136.787C199.375 136.641 199.111 136.423 198.866 136.133L198.855 136.11C198.855 136.079 198.87 136.056 198.901 136.041C198.931 136.018 198.954 136.018 198.97 136.041Z" fill="black"/>
<path d="M201.219 116.161C201.754 116.161 202.178 116.337 202.492 116.688C202.813 117.04 202.974 117.487 202.974 118.03C202.974 118.451 202.874 118.826 202.675 119.154C202.484 119.483 202.217 119.743 201.872 119.934C201.528 120.118 201.138 120.21 200.702 120.21C199.984 120.21 199.426 119.961 199.028 119.464C198.638 118.967 198.443 118.294 198.443 117.445C198.443 116.696 198.592 115.97 198.89 115.266C199.188 114.563 199.621 113.982 200.186 113.523C200.752 113.056 201.41 112.804 202.159 112.766C202.182 112.766 202.197 112.785 202.205 112.823C202.22 112.854 202.213 112.873 202.182 112.88C201.616 113.041 201.135 113.343 200.737 113.787C200.347 114.23 200.053 114.761 199.854 115.381C199.655 116 199.556 116.65 199.556 117.331C199.556 118.095 199.674 118.726 199.911 119.223C200.156 119.72 200.5 119.969 200.943 119.969C201.555 119.969 201.861 119.43 201.861 118.352C201.861 117.763 201.769 117.315 201.586 117.01C201.41 116.696 201.15 116.539 200.806 116.539C200.546 116.539 200.305 116.62 200.083 116.78L200.06 116.792C200.037 116.792 200.014 116.78 199.991 116.757C199.976 116.727 199.972 116.704 199.98 116.688C200.293 116.337 200.706 116.161 201.219 116.161Z" fill="black"/>
<path d="M199.891 103.002C199.853 103.109 199.819 103.182 199.788 103.22C199.757 103.25 199.704 103.266 199.627 103.266H198.813C198.767 103.266 198.729 103.25 198.698 103.22C198.668 103.189 198.664 103.151 198.687 103.105L201.371 97.1407C201.401 97.0872 201.386 97.0604 201.325 97.0604C200.193 97.0604 199.417 97.0757 198.997 97.1063C198.584 97.1369 198.32 97.1981 198.205 97.2898C198.09 97.3816 197.991 97.5651 197.907 97.8404C197.907 97.8557 197.892 97.8633 197.861 97.8633C197.838 97.8633 197.815 97.8595 197.792 97.8518C197.777 97.8366 197.773 97.8213 197.781 97.806L198.24 95.7987C198.247 95.7758 198.274 95.7682 198.32 95.7758C198.366 95.7758 198.385 95.7873 198.377 95.8102C198.37 95.8408 198.366 95.879 198.366 95.9249C198.366 95.9937 198.4 96.0396 198.469 96.0625C198.545 96.0855 198.695 96.097 198.916 96.097H201.956C201.986 96.097 202.013 96.1161 202.036 96.1543C202.067 96.1925 202.074 96.2231 202.059 96.2461L199.891 103.002Z" fill="black"/>
<path d="M200.92 82.5814C201.112 82.352 201.257 82.0806 201.356 81.7671C201.456 81.4536 201.505 81.1209 201.505 80.7692C201.505 80.3181 201.421 79.9778 201.253 79.7484C201.085 79.519 200.848 79.4043 200.542 79.4043C200.282 79.4043 200.083 79.4884 199.945 79.6566C199.815 79.8248 199.75 80.0428 199.75 80.3104C199.75 80.6086 199.819 80.8724 199.957 81.1018C200.095 81.3236 200.267 81.5147 200.473 81.6753C200.687 81.8359 200.978 82.0271 201.345 82.2488C201.704 82.4706 201.999 82.677 202.228 82.8682C202.457 83.0594 202.649 83.2964 202.801 83.5793C202.962 83.8622 203.042 84.1987 203.042 84.5887C203.042 84.9863 202.935 85.3419 202.721 85.6554C202.507 85.9612 202.213 86.1983 201.838 86.3665C201.471 86.5347 201.062 86.6188 200.611 86.6188C200.129 86.6188 199.708 86.5309 199.349 86.355C198.99 86.1715 198.714 85.9268 198.523 85.621C198.34 85.3074 198.248 84.9672 198.248 84.6001C198.248 84.019 198.454 83.522 198.867 83.1091C199.28 82.6885 199.77 82.3865 200.335 82.2029L200.393 82.2947C200.056 82.5012 199.804 82.7688 199.636 83.0976C199.468 83.4187 199.383 83.8317 199.383 84.3363C199.383 84.9557 199.517 85.4527 199.785 85.8274C200.06 86.1944 200.427 86.378 200.886 86.378C201.261 86.378 201.547 86.2556 201.746 86.0109C201.945 85.7586 202.044 85.4221 202.044 85.0016C202.044 84.6422 201.968 84.3363 201.815 84.084C201.67 83.824 201.486 83.6099 201.265 83.4417C201.043 83.2658 200.752 83.0708 200.393 82.8567C200.056 82.6426 199.785 82.4553 199.578 82.2947C199.372 82.1265 199.2 81.9238 199.062 81.6868C198.932 81.4497 198.867 81.1668 198.867 80.838C198.867 80.471 198.955 80.1651 199.131 79.9204C199.307 79.6681 199.536 79.4808 199.819 79.3584C200.11 79.2361 200.416 79.1749 200.737 79.1749C201.242 79.1749 201.654 79.3125 201.976 79.5878C202.304 79.8554 202.469 80.2034 202.469 80.6316C202.469 81.0368 202.331 81.4153 202.056 81.7671C201.781 82.1112 201.421 82.4056 200.978 82.6503L200.92 82.5814Z" fill="black"/>
<path d="M200.082 66.4059C199.539 66.4059 199.103 66.2224 198.774 65.8553C198.453 65.4807 198.293 65.0066 198.293 64.4331C198.293 64.0355 198.392 63.6799 198.591 63.3664C198.79 63.0529 199.061 62.812 199.405 62.6438C199.749 62.4679 200.139 62.38 200.575 62.38C201.302 62.38 201.86 62.6285 202.25 63.1255C202.647 63.6149 202.846 64.2878 202.846 65.1442C202.846 65.8859 202.69 66.6085 202.376 67.312C202.07 68.0155 201.627 68.6005 201.046 69.0669C200.472 69.5257 199.799 69.778 199.027 69.8239C198.996 69.8239 198.977 69.8048 198.969 69.7666C198.962 69.7283 198.969 69.7054 198.992 69.6977C199.581 69.5448 200.078 69.2466 200.483 68.8031C200.896 68.3596 201.206 67.8282 201.413 67.2088C201.619 66.5894 201.722 65.9395 201.722 65.2589C201.722 64.4866 201.6 63.8558 201.355 63.3664C201.111 62.8693 200.77 62.6208 200.334 62.6208C200.013 62.6208 199.78 62.7585 199.635 63.0338C199.489 63.3014 199.417 63.6914 199.417 64.2037C199.417 64.8001 199.509 65.2551 199.692 65.5686C199.883 65.8821 200.159 66.0389 200.518 66.0389C200.763 66.0389 200.988 65.9662 201.195 65.8209L201.218 65.8095C201.248 65.8095 201.271 65.8248 201.286 65.8553C201.309 65.8859 201.313 65.9089 201.298 65.9242C200.992 66.2453 200.587 66.4059 200.082 66.4059Z" fill="black"/>
<path d="M193.911 52.8799C193.896 52.8799 193.888 52.8569 193.888 52.8111C193.888 52.7652 193.896 52.7422 193.911 52.7422C194.24 52.7422 194.489 52.7231 194.657 52.6849C194.833 52.639 194.959 52.5625 195.035 52.4555C195.112 52.3408 195.15 52.1726 195.15 51.9508V47.6726C195.15 47.1602 195.028 46.9041 194.783 46.9041C194.607 46.9041 194.313 47.0455 193.9 47.3285L193.877 47.3399C193.854 47.3399 193.835 47.3246 193.819 47.2941C193.804 47.2558 193.804 47.2329 193.819 47.2252L196.022 45.6309C196.052 45.6156 196.079 45.608 196.102 45.608C196.117 45.608 196.133 45.6156 196.148 45.6309C196.163 45.6462 196.171 45.6615 196.171 45.6768V51.9508C196.171 52.1802 196.205 52.3484 196.274 52.4555C196.343 52.5625 196.461 52.639 196.63 52.6849C196.805 52.7231 197.065 52.7422 197.41 52.7422C197.433 52.7422 197.444 52.7652 197.444 52.8111C197.444 52.8569 197.433 52.8799 197.41 52.8799C197.104 52.8799 196.863 52.8761 196.687 52.8684L195.655 52.8569L194.657 52.8684C194.473 52.8761 194.225 52.8799 193.911 52.8799ZM200.663 53.029C200.166 53.029 199.734 52.8799 199.367 52.5817C199.007 52.2758 198.728 51.8438 198.529 51.2856C198.338 50.7197 198.243 50.0545 198.243 49.2898C198.243 48.5328 198.338 47.8752 198.529 47.317C198.728 46.7588 199.011 46.3306 199.378 46.0324C199.753 45.7265 200.189 45.5736 200.686 45.5736C201.175 45.5736 201.596 45.7265 201.947 46.0324C202.307 46.3306 202.582 46.7626 202.773 47.3285C202.964 47.8943 203.06 48.5596 203.06 49.3242C203.06 50.0812 202.961 50.7388 202.762 51.297C202.571 51.8552 202.295 52.2834 201.936 52.5817C201.576 52.8799 201.152 53.029 200.663 53.029ZM200.8 52.8111C201.183 52.8111 201.458 52.5434 201.626 52.0082C201.802 51.4653 201.89 50.6165 201.89 49.4619C201.89 48.1849 201.779 47.252 201.557 46.6632C201.336 46.0744 201.003 45.78 200.559 45.78C200.162 45.78 199.867 46.063 199.676 46.6288C199.493 47.187 199.401 48.0472 199.401 49.2095C199.401 50.4253 199.516 51.3315 199.745 51.9279C199.975 52.5167 200.326 52.8111 200.8 52.8111Z" fill="black"/>
<circle cx="209.325" cy="209.325" r="169.181" stroke="black" stroke-width="1.63855"/>
<circle cx="209.325" cy="209.324" r="152.795" stroke="black" stroke-width="1.63855"/>
<circle cx="209.735" cy="209.734" r="134.361" stroke="black" stroke-width="1.63855"/>
<circle cx="209.735" cy="209.735" r="117.976" stroke="black" stroke-width="1.63855"/>
<circle cx="209.735" cy="209.735" r="101.59" stroke="black" stroke-width="1.63855"/>
<circle cx="209.735" cy="209.735" r="85.2047" stroke="black" stroke-width="1.63855"/>
<circle cx="209.735" cy="209.735" r="68.8192" stroke="black" stroke-width="1.63855"/>
<circle cx="209.325" cy="209.325" r="50.3855" stroke="black" stroke-width="1.63855"/>
<circle cx="209.325" cy="209.325" r="34" stroke="black" stroke-width="1.63855"/>
<circle cx="209.325" cy="209.325" r="18.4337" stroke="black" stroke-width="1.63855"/>
<line x1="209.325" y1="40.9639" x2="209.325" y2="379.325" stroke="black" stroke-width="2.45783"/>
<line x1="39.3253" y1="209.326" x2="378.506" y2="209.326" stroke="black" stroke-width="2.45783"/>
<line x1="87.6128" y1="330.938" x2="327.661" y2="90.8897" stroke="black" stroke-width="2.45783"/>
<line y1="-1.22891" x2="339.479" y2="-1.22891" transform="matrix(-0.707107 -0.707107 -0.707107 0.707107 328.53 330.168)" stroke="black" stroke-width="2.45783"/>
<path d="M133.882 25.833L136.588 32.254L132.307 34.058L129.601 27.637L124.251 29.892L127.859 38.4534L124.648 39.8064L139.409 44.928L146.052 30.7864L142.841 32.1394L139.233 23.578L133.882 25.833Z" fill="black"/>
<path d="M385.061 138.131L386.091 140.393L383.377 141.629L382.347 139.367L380.085 140.397L378.849 137.683L381.111 136.653L380.081 134.392L382.795 133.156L383.825 135.417L386.087 134.387L387.323 137.101L385.061 138.131ZM374.491 141.306L380.501 147.308L386.011 144.799C390.58 142.718 393.436 137.693 392.585 133.066C389.654 129.388 383.988 128.243 379.419 130.324L373.909 132.833L374.491 141.306Z" fill="black"/>
<path d="M24.429 285.115L25.1816 283.139C27.8363 276.126 29.5858 271.498 33.3799 270.006C36.4714 268.79 39.8556 270.264 41.0712 273.355C41.758 275.102 41.6041 277.098 40.7496 278.697C42.4646 279.286 43.9367 280.643 44.6235 282.389C45.8392 285.48 44.3653 288.865 41.2738 290.08C37.4798 291.572 33.0463 289.375 26.3162 286.053L24.429 285.115Z" fill="black"/>
<path d="M287.354 35.4848C290.432 36.8044 297.218 37.9051 298.522 34.8638L299.501 32.5796L281.081 24.6846L280.102 26.9689C278.798 30.0102 284.275 34.1652 287.354 35.4848ZM295.303 33.8705C293.873 34.1539 290.828 33.8837 288.472 32.8743C286.117 31.8648 283.821 29.8455 283.04 28.6148L295.303 33.8705ZM286.375 37.7691C283.835 36.6807 280.891 37.8446 279.811 40.3638C278.732 42.883 279.919 45.8177 282.458 46.906C284.998 47.9944 287.942 46.8305 289.021 44.3113C290.101 41.7921 288.914 38.8574 286.375 37.7691ZM283.577 44.2955C282.485 43.8274 281.979 42.5751 282.443 41.4917C282.907 40.4083 284.164 39.9116 285.256 40.3796C286.348 40.8477 286.854 42.1001 286.39 43.1834C285.926 44.2668 284.669 44.7635 283.577 44.2955ZM278.124 31.4365C277.068 29.6859 276.642 27.7728 277.47 25.841L278.449 23.5568L273.186 21.3011L272.207 23.5853C271.077 26.222 275.039 29.6968 278.124 31.4365ZM278.48 34.3855C275.941 33.2971 272.997 34.4611 271.917 36.9803C270.837 39.4995 272.025 42.4341 274.564 43.5225C275.275 43.827 276.005 43.9393 276.733 43.9115C276.402 42.3946 276.525 40.7632 277.18 39.236C277.835 37.7088 278.931 36.4947 280.258 35.6883C279.776 35.1417 279.191 34.69 278.48 34.3855Z" fill="black"/>
<path d="M283.577 44.2955C282.485 43.8274 281.979 42.5751 282.443 41.4917C282.907 40.4083 284.164 39.9116 285.256 40.3796C286.348 40.8477 286.854 42.1001 286.39 43.1834C285.926 44.2668 284.669 44.7635 283.577 44.2955Z" fill="black"/>
<path d="M295.303 33.8705C293.873 34.1539 290.828 33.8837 288.472 32.8743C286.117 31.8648 283.821 29.8455 283.04 28.6148L295.303 33.8705Z" fill="black"/>
<path d="M374.352 277.751C372.233 282.813 374.622 288.64 379.684 290.759C384.746 292.877 390.574 290.488 392.692 285.426C394.811 280.364 392.422 274.536 387.36 272.418C382.298 270.3 376.47 272.689 374.352 277.751ZM389.142 282.992L390.279 283.468L389.607 285.072L388.424 284.577C387.975 285.187 386.801 286.474 384.551 286.211L384.57 284.441C384.794 284.47 386.709 284.711 387.407 283.042C387.764 282.189 387.727 281.042 386.691 280.608C385.81 280.24 385.083 280.69 383.954 281.92C383.174 282.779 381.724 284.597 379.633 283.722C379.542 283.683 377.436 282.792 377.924 280.183L376.769 279.7L377.44 278.095L378.578 278.571C379.577 277.006 381.182 276.956 381.643 276.987L381.651 278.693C381.288 278.66 380.196 278.72 379.693 279.921C379.425 280.563 379.338 281.723 380.273 282.115C381.145 282.479 381.805 281.829 383.029 280.423C384.711 278.541 386.064 278.449 387.348 278.987C389.76 279.996 389.259 282.48 389.142 282.992Z" fill="black"/>
<path d="M127.186 380.314L125.076 384.233L129.918 391.667L138.79 391.618L140.9 387.7L132.028 387.749L127.186 380.314ZM139.414 374.035L125.473 374.11L133.083 385.79L144.489 385.728L140.844 392.497L142.803 393.552L147.024 385.715L139.414 374.035Z" fill="black"/>
<path d="M28.0038 126.978C28.1229 126.689 28.3209 126.486 28.5977 126.371C28.8736 126.256 29.1562 126.258 29.4457 126.377C29.7351 126.496 29.9374 126.693 30.0525 126.969C30.1679 127.246 30.1661 127.529 30.047 127.819L28.3661 131.905L33.4741 134.006L45.4747 129.805C45.6359 129.752 45.8201 129.728 46.0272 129.734C46.2337 129.739 46.422 129.777 46.5923 129.847C47.0009 130.015 47.2904 130.303 47.4608 130.712C47.6312 131.12 47.6324 131.529 47.4643 131.937L41.1186 147.364C40.9506 147.772 40.6622 148.062 40.2537 148.232C39.8452 148.402 39.4281 148.4 39.0024 148.225C38.8492 148.162 38.6974 148.06 38.5469 147.918C38.3958 147.776 38.2817 147.63 38.2045 147.479L32.6336 136.049L27.5256 133.948L25.8447 138.035C25.7256 138.324 25.5278 138.526 25.2512 138.641C24.9751 138.757 24.6923 138.755 24.4028 138.636C24.1134 138.517 23.9112 138.319 23.7965 138.043C23.6807 137.766 23.6824 137.484 23.8015 137.194L28.0038 126.978ZM42.1171 133.321L38.293 142.618L39.5797 145.297L44.9168 132.323L42.1171 133.321Z" fill="black"/>
<path d="M281.621 393.693C281.504 393.927 281.311 394.024 281.041 393.985C280.77 393.945 280.624 393.789 280.602 393.517L279.719 386.507L273.224 385.198C272.962 385.154 272.816 384.998 272.786 384.73C272.756 384.461 272.858 384.274 273.094 384.168L279.189 381.425L278.232 374.116C278.205 373.967 278.227 373.846 278.297 373.754C278.366 373.663 278.451 373.594 278.552 373.549C278.653 373.503 278.761 373.485 278.876 373.494C278.991 373.502 279.095 373.566 279.189 373.685L284.025 379.249L290.12 376.505C290.355 376.4 290.563 376.447 290.745 376.647C290.926 376.848 290.945 377.061 290.804 377.286L287.477 383.016L292.138 388.325C292.328 388.522 292.348 388.735 292.199 388.963C292.049 389.192 291.847 389.272 291.595 389.205L284.911 387.678L281.621 393.693Z" fill="black"/>
</svg>
