<svg width="101" height="21" viewBox="0 0 101 21" fill="none" xmlns="http://www.w3.org/2000/svg">
<path d="M54.3796 18.7734H53.3796V20.0982L54.6536 19.7352L54.3796 18.7734ZM54.3796 5.7735H55.3796V4.7735L54.3796 4.7735V5.7735ZM-7.62939e-06 5.77344L9.99998 11.547L10 -5.34058e-05L-7.62939e-06 5.77344ZM100 5.77364L99.726 4.81192L54.1055 17.8117L54.3796 18.7734L54.6536 19.7352L100.274 6.73535L100 5.77364ZM54.3796 18.7734H55.3796V5.7735H54.3796H53.3796V18.7734H54.3796ZM54.3796 5.7735V4.7735L8.99999 4.77345V5.77345V6.77345L54.3796 6.7735V5.7735Z" fill="white"/>
</svg>
