<svg width="120" height="50" viewBox="0 0 120 50" fill="none" xmlns="http://www.w3.org/2000/svg">
<path d="M11.5484 16.4799H9.67338V24.4747H6.9248V6.2832H9.67338V13.5726H11.5484V6.2832H14.297V24.4961H11.5484V16.4799Z" fill="white"/>
<path d="M19.0271 24.6886H18.4944C16.2998 24.6886 15.1279 23.4915 15.1279 21.247V17.5916H17.8552V20.7767C17.8552 21.6104 18.1322 22.0593 18.7501 22.0593C19.4106 22.0593 19.645 21.6104 19.645 20.4988V20.0926C19.645 18.7887 19.5171 18.3398 18.5157 17.0358L16.7899 14.7485C15.618 13.2307 15.2771 12.055 15.2771 10.238V9.66083C15.2771 7.24527 16.4916 6.1123 18.6649 6.1123H19.1762C21.4347 6.1123 22.3296 7.11701 22.3296 9.27605V12.2688H19.6663V9.63945C19.6663 9.01953 19.5384 8.57062 18.8779 8.57062C18.2174 8.57062 18.0683 8.97678 18.0683 9.85322V10.1952C18.0683 11.2213 18.26 11.7771 19.1975 12.9956L20.9447 15.2615C22.1805 16.8861 22.5853 17.8053 22.5853 19.8575V20.4347C22.5853 23.1067 21.4347 24.6886 19.0271 24.6886Z" fill="white"/>
<path d="M29.6382 6.2832V8.93391H26.1226V13.7009H28.8712V16.4585H26.1226V21.7171H29.7874V24.4747H23.374V6.2832H29.6382Z" fill="white"/>
<path d="M37.2234 21.0544H35.2205L34.8583 24.4746H32.3867L34.6026 6.26172H37.8626L40.2276 24.4746H37.5643L37.2234 21.0544ZM36.9251 18.3395L36.2006 11.6059L35.4975 18.3395H36.9251Z" fill="white"/>
<path d="M43.4439 24.4961H40.6953V6.2832H45.1697C47.0021 6.2832 47.9183 7.07414 47.9183 9.10492V12.3328C47.9183 13.8505 47.2152 14.4277 46.7251 14.6629C47.343 14.9407 47.9183 15.4324 47.9183 16.6509V23.0425C47.9183 23.7693 48.0675 24.1113 48.1953 24.3892V24.5175H45.468C45.3402 24.3251 45.1911 24.0045 45.1911 23.0211V17.5059C45.1911 16.6936 45.0419 16.3516 44.1683 16.3516H43.4652V24.4961H43.4439ZM43.4439 13.765H44.1683C44.9354 13.765 45.1697 13.2734 45.1697 12.4611V9.91724C45.1697 9.1263 44.9993 8.74152 44.1683 8.74152H43.4439V13.765Z" fill="white"/>
<path d="M53.4794 8.91253V24.4747H50.7521V8.91253H48.4297V6.2832H55.8018V8.93391H53.4794V8.91253Z" fill="white"/>
<path d="M63.1745 21.0544H61.1717L60.8095 24.4746H58.3379L60.5538 6.26172H63.8137L66.1788 24.4746H63.5155L63.1745 21.0544ZM62.8762 18.3395L62.1518 11.6059L61.4487 18.3395H62.8762Z" fill="white"/>
<path d="M69.1189 6.2832L71.4839 16.0523V6.2832H73.9981V24.4961H71.7609L69.1189 14.0216V24.4961H66.626V6.2832H69.1189Z" fill="white"/>
<path d="M75.0215 6.2832H79.2615C81.6266 6.2832 82.351 7.62993 82.351 9.78897V20.8835C82.351 23.1066 81.5201 24.4961 79.2615 24.4961H75.0428V6.2832H75.0215ZM77.7914 21.8454H78.4519C79.2828 21.8454 79.5172 21.3965 79.5172 20.4345V10.1738C79.5172 9.1263 79.2402 8.76289 78.5584 8.76289H77.7701V21.8454H77.7914Z" fill="white"/>
<path d="M6.9248 25.4365H11.1436C13.5086 25.4365 14.233 26.7833 14.233 28.9423V40.0368C14.233 42.26 13.4021 43.6494 11.1436 43.6494H6.9248V25.4365ZM9.67338 41.0201H10.3339C11.1649 41.0201 11.3992 40.5712 11.3992 39.6092V29.3485C11.3992 28.301 11.1222 27.9376 10.4404 27.9376H9.65208V41.0201H9.67338Z" fill="white"/>
<path d="M21.4984 25.4365V28.0872H17.9828V32.8542H20.7314V35.6118H17.9828V40.8705H21.6475V43.6281H15.2129V25.4365H21.4984Z" fill="white"/>
<path d="M26.0368 43.8412H25.5042C23.3096 43.8412 22.1377 42.6441 22.1377 40.3995V36.7441H24.865V39.9292C24.865 40.7629 25.142 41.2118 25.7599 41.2118C26.4204 41.2118 26.6547 40.7629 26.6547 39.6514V39.2452C26.6547 37.9412 26.5269 37.4923 25.5255 36.1883L23.7783 33.9438C22.6064 32.426 22.2655 31.2503 22.2655 29.4333V28.8561C22.2655 26.4406 23.48 25.3076 25.6533 25.3076H26.1647C28.4445 25.3076 29.3181 26.3123 29.3181 28.4714V31.4641H26.6547V28.8348C26.6547 28.2148 26.5269 27.7659 25.8664 27.7659C25.2059 27.7659 25.0567 28.1721 25.0567 29.0485V29.3906C25.0567 30.4166 25.2485 30.9724 26.186 32.1909L27.9332 34.4568C29.1689 36.0815 29.5738 37.0006 29.5738 39.0528V39.63C29.5951 42.2593 28.4445 43.8412 26.0368 43.8412Z" fill="white"/>
<path d="M33.1314 43.6494H30.3828V25.4365H33.1314V43.6494Z" fill="white"/>
<path d="M36.7124 43.9051C35.093 43.9051 34.0703 42.4515 34.0703 40.5703V29.1766C34.0703 27.1458 34.8587 25.2646 37.4581 25.2646H37.9908C40.9524 25.2646 41.2933 27.1885 41.2933 29.3476V31.2074H38.6087V29.1552C38.6087 28.3429 38.4169 27.9154 37.7351 27.9154C37.1598 27.9154 36.8828 28.3643 36.8828 29.1552V39.8008C36.8828 40.6558 37.2237 41.1048 37.7777 41.1048C38.4808 41.1048 38.8004 40.6131 38.8004 39.929V35.3758H37.5646V32.5755H41.4212V43.6486H39.8658C39.8445 43.5417 39.6314 42.6439 39.397 41.8529C39.2053 42.4729 38.2678 43.8837 36.8828 43.8837H36.7124V43.9051Z" fill="white"/>
<path d="M44.8728 25.4365L47.2378 35.2057V25.4365H49.752V43.6494H47.5148L44.8728 33.1749V43.6494H42.3799V25.4365H44.8728Z" fill="white"/>
<path d="M56.9538 43.8412H56.4212C54.2266 43.8412 53.0547 42.6441 53.0547 40.3995V36.7441H55.782V39.9292C55.782 40.7629 56.0589 41.2118 56.6768 41.2118C57.3374 41.2118 57.5717 40.7629 57.5717 39.6514V39.2452C57.5717 37.9412 57.4439 37.4923 56.4425 36.1883L54.6953 33.9438C53.5234 32.426 53.1825 31.2503 53.1825 29.4333V28.8561C53.1825 26.4406 54.397 25.3076 56.5703 25.3076H57.0817C59.3402 25.3076 60.2351 26.3123 60.2351 28.4714V31.4641H57.5717V28.8348C57.5717 28.2148 57.4439 27.7659 56.7834 27.7659C56.1229 27.7659 55.9737 28.1721 55.9737 29.0485V29.3906C55.9737 30.4166 56.1655 30.9724 57.103 32.1909L58.8501 34.4568C60.0859 36.0815 60.4908 37.0006 60.4908 39.0528V39.63C60.5121 42.2593 59.3615 43.8412 56.9538 43.8412Z" fill="white"/>
<path d="M65.7956 39.9513V35.7187H68.5016V39.9299C68.5016 41.8966 67.8624 43.8632 65.199 43.8632H64.5811C61.7899 43.8632 61.1934 41.8538 61.1934 40.0154V28.8995C61.1934 27.0398 62.003 25.2441 64.4959 25.2441H65.1351C68.1607 25.2441 68.5016 27.2535 68.5016 29.0278V32.2771H65.7956V29.0706C65.7956 28.2796 65.5613 27.8735 64.8581 27.8735C64.1763 27.8735 64.0059 28.2582 64.0059 29.0706V39.8872C64.0059 40.6995 64.2828 41.127 64.8794 41.127C65.5613 41.1911 65.7956 40.6995 65.7956 39.9513Z" fill="white"/>
<path d="M74.0201 35.6546H72.1451V43.6494H69.3965V25.4365H72.1451V32.726H74.0201V25.4365H76.7686V43.6494H74.0201V35.6546Z" fill="white"/>
<path d="M85.2692 39.587C85.2692 42.1308 84.4169 43.8623 81.7536 43.8623H81.2848C78.6428 43.8623 77.7266 42.1308 77.7266 39.587V29.4545C77.7266 26.932 78.6854 25.2646 81.2635 25.2646H81.7322C84.4169 25.2646 85.2692 26.932 85.2692 29.4331V39.587ZM82.4567 29.3048C82.4567 28.3429 82.1371 27.9154 81.4979 27.9154C80.7947 27.9154 80.5178 28.3856 80.5178 29.3048V39.7794C80.5178 40.5703 80.7308 41.1689 81.5192 41.1689C82.2436 41.1689 82.4567 40.549 82.4567 39.7794V29.3048Z" fill="white"/>
<path d="M93.6862 39.587C93.6862 42.1308 92.8339 43.8623 90.1705 43.8623H89.7018C87.0598 43.8623 86.1436 42.1308 86.1436 39.587V29.4545C86.1436 26.932 87.1024 25.2646 89.6805 25.2646H90.1492C92.8339 25.2646 93.6862 26.932 93.6862 29.4331V39.587ZM90.8737 29.3048C90.8737 28.3429 90.5541 27.9154 89.9149 27.9154C89.2117 27.9154 88.9347 28.3856 88.9347 29.3048V39.7794C88.9347 40.5703 89.1478 41.1689 89.9362 41.1689C90.6606 41.1689 90.8737 40.549 90.8737 39.7794V29.3048Z" fill="white"/>
<path d="M97.3931 25.4365V40.8277H100.76V43.6494H94.6445V25.4365H97.3931Z" fill="white"/>
<path fill-rule="evenodd" clip-rule="evenodd" d="M104.616 25.2451C102.571 25.2451 100.888 26.9125 100.888 28.986C100.888 31.0382 102.55 32.7269 104.616 32.7269C106.683 32.7269 108.345 31.0596 108.345 28.986C108.324 26.9125 106.662 25.2451 104.616 25.2451Z" fill="white"/>
<path fill-rule="evenodd" clip-rule="evenodd" d="M105.235 28.644C105.469 28.5371 105.618 28.3874 105.725 28.2806C105.916 28.0668 105.98 27.8103 105.98 27.5538C105.98 27.3614 105.916 26.9552 105.576 26.6773C105.341 26.4849 105.128 26.3994 104.617 26.3994H104.361H104.34H103.274V31.4016H106.279V30.4396C106.3 29.5204 106.002 28.9005 105.235 28.644ZM105.618 31.1237H105.064V29.4563H104.446V31.1237H103.978V26.6346H104.468C104.659 26.6346 104.936 26.6773 105.128 26.9125C105.235 27.0407 105.299 27.2117 105.32 27.3614H104.446V27.6179H105.32C105.32 27.7675 105.277 27.9599 105.128 28.1523C105 28.3233 104.766 28.4729 104.446 28.4729V28.7295C105.299 28.7295 105.618 29.2853 105.618 30.3327V31.1237Z" fill="black"/>
</svg>
