<svg width="51" height="269" viewBox="0 0 51 269" fill="none" xmlns="http://www.w3.org/2000/svg">
<path d="M50.3597 243.353C50.3597 257.26 39.0863 268.533 25.1799 268.533C11.2734 268.533 0 257.26 0 243.353C0 229.447 11.2734 218.174 25.1799 218.174C39.0863 218.174 50.3597 229.447 50.3597 243.353Z" fill="black"/>
<path fill-rule="evenodd" clip-rule="evenodd" d="M24.9646 199.235C24.1446 199.235 23.3507 199.347 22.5973 199.556C18.8737 200.591 16.1409 204.005 16.1409 208.059C16.1409 211.898 18.5933 215.165 22.0172 216.378C22.9389 216.705 23.931 216.882 24.9646 216.882C25.8904 216.882 26.7829 216.74 27.6212 216.475C31.1962 215.348 33.7883 212.006 33.7883 208.059C33.7883 204.005 31.0555 200.591 27.332 199.556C26.5786 199.347 25.7847 199.235 24.9646 199.235ZM18.5083 208.274C18.5083 210.664 19.8066 212.75 21.7365 213.866C22.7695 214.381 22.3104 212.648 21.9517 211.717C20.9556 210.928 20.6604 210.896 20.6604 209.565C20.6604 207.188 22.6838 205.261 25.1799 205.261C27.6759 205.261 29.6993 207.188 29.6993 209.565C29.6993 210.996 29.1051 210.935 27.9776 211.717C27.5519 212.818 27.0218 214.775 28.3074 213.799C30.1739 212.667 31.421 210.616 31.421 208.274C31.421 204.708 28.5304 201.817 24.9646 201.817C21.3989 201.817 18.5083 204.708 18.5083 208.274Z" fill="black"/>
<path d="M24.9646 216.882C23.931 216.882 22.9389 216.705 22.0172 216.378C22.4975 216.761 23.2429 217.743 22.8125 218.389H27.332C26.9016 217.528 27.1661 216.754 27.6212 216.475C26.7829 216.74 25.8904 216.882 24.9646 216.882Z" fill="black"/>
<path fill-rule="evenodd" clip-rule="evenodd" d="M24.9646 199.235C25.7847 199.235 26.5786 199.347 27.332 199.556V197.513L28.1928 196.437L27.332 185.892L26.9016 185.246V181.372L26.4711 166.307L26.2559 165.447L26.2559 0L22.0172 0L22.2377 165.431L22.1327 166.585L23.0277 181.372V185.246L22.8125 185.892L21.7365 196.437L22.5973 197.513L22.5973 199.556C23.3507 199.347 24.1446 199.235 24.9646 199.235ZM22.7896 126.163C22.7323 126.714 22.8914 127.284 23.5606 127.362C23.594 127.366 23.6276 127.37 23.6614 127.374C24.3638 127.458 25.1214 127.549 25.4055 126.584L25.4042 126.587C25.3867 126.526 25.3688 126.467 25.3509 126.407C25.3331 126.347 25.3151 126.287 25.2976 126.227C24.8514 125.924 24.377 125.701 23.8276 125.671C23.7793 125.669 23.7298 125.665 23.68 125.662C23.2755 125.632 22.8475 125.601 22.7896 126.163ZM26.0172 178.187C25.999 177.583 25.7428 177.132 25.1674 176.893C24.9705 176.974 24.7143 176.982 24.4606 176.99C23.9434 177.007 23.4369 177.024 23.4659 177.651C23.4904 178.19 24.0867 178.245 24.6622 178.297C24.8811 178.317 25.097 178.337 25.2772 178.383C25.4259 178.422 25.6027 178.349 25.7794 178.276C25.8596 178.242 25.9397 178.209 26.0172 178.187ZM24.4698 103.795C24.8524 103.767 25.135 103.615 25.2977 103.26L25.2989 103.264C25.1975 102.699 24.8053 102.408 24.3138 102.212C24.1627 102.33 23.936 102.277 23.7138 102.225C23.356 102.142 23.0096 102.061 23.0076 102.697C23.0046 103.538 23.6528 103.853 24.4698 103.795ZM25.7732 173.85C26.0906 172.931 25.7389 172.39 24.8243 172.165C24.804 172.168 24.7838 172.171 24.7635 172.174L24.6805 172.186C24.5569 172.204 24.433 172.222 24.3091 172.235L24.2601 172.239C23.8755 172.276 23.4562 172.317 23.4327 172.812C23.412 173.273 23.787 173.364 24.1317 173.448C24.1751 173.459 24.218 173.47 24.2596 173.481C24.6458 173.583 25.0334 173.675 25.4202 173.767L25.4236 173.768C25.5418 173.796 25.66 173.824 25.778 173.853L25.7732 173.85ZM24.9678 107.947C25.4771 107.095 24.9474 106.707 24.2704 106.39C24.1292 106.459 23.9429 106.445 23.7565 106.43C23.3741 106.401 22.9914 106.371 22.9964 107.066C23.0019 107.939 23.5816 107.933 24.166 107.927C24.2125 107.927 24.259 107.926 24.3053 107.926C24.4505 107.926 24.5977 107.932 24.7449 107.937C24.8185 107.94 24.8921 107.943 24.9654 107.945L24.9678 107.947ZM23.7574 181.887C23.3833 182.059 23.3669 182.458 23.705 182.594C23.8515 182.652 23.9986 182.725 24.1469 182.798C24.7631 183.101 25.3983 183.414 26.0801 182.753L26.0825 182.755C25.8815 182.154 25.5036 181.735 24.882 181.557C24.7654 181.59 24.6469 181.619 24.5285 181.648C24.2637 181.712 23.9993 181.777 23.7574 181.887ZM26.1769 187.325C26.0619 186.497 25.5404 186.129 24.7459 186.077C24.6532 186.153 24.5248 186.195 24.3971 186.237C24.1398 186.322 23.885 186.405 23.9288 186.763C23.9739 187.137 24.3198 187.235 24.6426 187.327C24.7084 187.345 24.7732 187.364 24.8343 187.384C24.8565 187.392 24.8788 187.399 24.9011 187.407C25.3278 187.554 25.7682 187.705 26.1769 187.325ZM24.7336 131.912C25.0917 131.943 25.2753 131.684 25.4194 131.401L25.4218 131.402C25.3094 130.859 24.9693 130.525 24.4584 130.349C24.3272 130.418 24.1485 130.423 23.9707 130.428C23.6036 130.438 23.2406 130.448 23.3083 131.013C23.3941 131.727 24.1075 131.855 24.7336 131.912ZM24.4491 136.326C25.0222 136.545 25.4072 136.364 25.5204 135.727L25.524 135.726C25.3266 135.142 24.8363 134.944 24.3046 134.803C24.1981 134.905 24.0238 134.892 23.8544 134.881C23.5942 134.862 23.3456 134.845 23.3716 135.242C23.4069 135.807 23.9335 136.129 24.4491 136.326ZM23.7633 168.349C24.0699 168.979 25.2506 169.007 25.8082 168.44L25.8106 168.441C25.6063 167.811 25.1163 167.565 24.5109 167.48C24.4173 167.53 24.2968 167.559 24.176 167.588C23.8263 167.673 23.4738 167.759 23.7633 168.349ZM23.4946 144.867C23.4716 145.037 23.6364 145.341 23.7933 145.412C23.865 145.444 23.9372 145.48 24.0099 145.515C24.5298 145.769 25.0729 146.034 25.5688 145.356C25.4117 144.836 25.0705 144.487 24.5754 144.28C24.4498 144.374 24.2809 144.393 24.1135 144.413C23.8313 144.445 23.5535 144.477 23.4946 144.867ZM23.4801 112.092C24.5643 112.771 24.8225 112.673 25.276 111.422L25.2722 111.407C25.1322 110.872 24.9914 110.334 24.2308 110.512C23.3644 110.699 23.4158 111.323 23.467 111.945C23.4711 111.995 23.4753 112.045 23.4789 112.094L23.4801 112.092ZM25.7675 159.66L25.7663 159.662L25.7665 159.66C25.4126 159.751 25.078 159.674 24.7413 159.554L24.6941 159.537C24.328 159.407 23.9243 159.263 23.8653 158.857C23.811 158.487 24.0578 158.429 24.3089 158.37C24.4542 158.336 24.601 158.301 24.6917 158.206C25.5197 158.344 25.8526 158.845 25.7665 159.66L25.7675 159.66ZM24.1545 153.859C24.0194 153.911 23.8289 154.119 23.8511 154.212C23.9729 154.74 24.3916 154.874 24.8083 155.008C24.9287 155.047 25.049 155.085 25.1619 155.133C25.2449 155.169 25.3363 155.186 25.4273 155.202C25.4664 155.21 25.5054 155.217 25.5436 155.225L25.5472 155.224C25.7258 154.992 25.8083 154.741 25.7216 154.449C25.3303 153.903 24.8372 153.597 24.1545 153.859ZM23.8177 149.693C24.0468 150.239 24.5627 150.387 25.0705 150.51C25.1776 150.536 25.2961 150.513 25.4148 150.489C25.4717 150.478 25.5286 150.467 25.5843 150.461L25.5867 150.462C25.5608 150.317 25.5352 150.172 25.5096 150.027L25.5092 150.025C25.4837 149.881 25.4582 149.736 25.4324 149.592C25.023 149.2 24.565 149.015 24.0099 149.263C23.8241 149.343 23.7481 149.528 23.8177 149.693ZM23.7693 163.754C24.0735 164.377 25.1336 164.446 25.6576 163.873C25.6364 163.82 25.6157 163.768 25.5951 163.715C25.5745 163.662 25.5538 163.609 25.5326 163.556C25.127 163.138 24.6446 163.001 24.0888 163.186C23.8235 163.274 23.6 163.405 23.7693 163.754ZM25.2895 192.058C25.6372 192.193 25.9717 192.176 26.2553 191.898L26.2565 191.895C26.1247 191.366 25.8113 190.998 25.2908 190.817C25.1807 190.882 25.0355 190.902 24.8918 190.923C24.621 190.961 24.3555 190.999 24.3404 191.326C24.3187 191.758 24.689 191.87 25.0393 191.976C25.126 192.002 25.2115 192.027 25.2895 192.058ZM23.765 140.28C24.0553 140.829 24.5623 141.054 25.1522 141.117C25.2382 141.127 25.3272 141.112 25.4172 141.097C25.4579 141.09 25.4988 141.083 25.5398 141.079L25.5422 141.08C25.4976 140.782 25.4542 140.488 25.4108 140.195C24.9695 139.882 24.5033 139.672 23.9498 139.87C23.7484 139.939 23.6761 140.111 23.765 140.28ZM25.2409 196.447C25.61 196.617 25.9867 196.73 26.3699 196.476C26.2711 195.888 25.9457 195.508 25.36 195.366C25.2713 195.425 25.1544 195.448 25.0379 195.47C24.8019 195.516 24.5675 195.562 24.5729 195.904C24.5763 196.2 24.8217 196.289 25.0569 196.374C25.1207 196.397 25.1837 196.42 25.2409 196.447ZM25.2001 116.594C24.8002 117.852 23.8354 117.566 23.403 117.266C23.3993 117.217 23.3952 117.167 23.3911 117.117C23.3399 116.495 23.2885 115.871 24.1549 115.684C24.9155 115.506 25.0563 116.044 25.1963 116.58L25.2001 116.594ZM24.4042 120.883C25.1741 120.889 25.2339 121.467 25.1676 121.755C25.2182 122.264 23.9084 122.805 23.4308 122.32C22.9532 121.835 23.4418 120.876 24.4042 120.883Z" fill="black"/>
<path d="M26.3699 196.476C25.9867 196.73 25.61 196.617 25.2409 196.447C25.1837 196.42 25.1207 196.397 25.0569 196.374C24.8217 196.289 24.5763 196.2 24.5729 195.904C24.5675 195.562 24.8019 195.516 25.0379 195.47C25.1544 195.448 25.2713 195.425 25.36 195.366C25.9457 195.508 26.2711 195.888 26.3699 196.476Z" fill="white"/>
<path d="M26.2553 191.898C25.9717 192.176 25.6372 192.193 25.2895 192.058C25.2115 192.027 25.126 192.002 25.0393 191.976C24.689 191.87 24.3187 191.758 24.3404 191.326C24.3555 190.999 24.621 190.961 24.8918 190.923C25.0355 190.902 25.1807 190.882 25.2908 190.817C25.8113 190.998 26.1247 191.366 26.2565 191.895L26.2553 191.898Z" fill="white"/>
<path d="M24.7459 186.077C25.5404 186.129 26.0619 186.497 26.1769 187.325C25.7682 187.705 25.3278 187.554 24.9011 187.407C24.8788 187.399 24.8565 187.392 24.8343 187.384C24.7732 187.364 24.7084 187.345 24.6426 187.327C24.3198 187.235 23.9739 187.137 23.9288 186.763C23.885 186.405 24.1398 186.322 24.3971 186.237C24.5248 186.195 24.6532 186.153 24.7459 186.077Z" fill="white"/>
<path d="M23.705 182.594C23.3669 182.458 23.3833 182.059 23.7574 181.887C23.9993 181.777 24.2637 181.712 24.5285 181.648C24.6469 181.619 24.7654 181.59 24.882 181.557C25.5036 181.735 25.8815 182.154 26.0825 182.755L26.0801 182.753C25.3983 183.414 24.7631 183.101 24.1469 182.798C23.9986 182.725 23.8515 182.652 23.705 182.594Z" fill="white"/>
<path d="M25.1674 176.893C25.7428 177.132 25.999 177.583 26.0172 178.187C25.9397 178.209 25.8596 178.242 25.7794 178.276C25.6027 178.349 25.4259 178.422 25.2772 178.383C25.097 178.337 24.8811 178.317 24.6622 178.297C24.0867 178.245 23.4904 178.19 23.4659 177.651C23.4369 177.024 23.9434 177.007 24.4606 176.99C24.7143 176.982 24.9705 176.974 25.1674 176.893Z" fill="white"/>
<path d="M24.8243 172.165C25.7389 172.39 26.0906 172.931 25.7732 173.85L25.778 173.853C25.66 173.824 25.5418 173.796 25.4236 173.768L25.4202 173.767C25.0334 173.675 24.6458 173.583 24.2596 173.481C24.218 173.47 24.1751 173.459 24.1317 173.448C23.787 173.364 23.412 173.273 23.4327 172.812C23.4562 172.317 23.8755 172.276 24.2601 172.239L24.3091 172.235C24.433 172.222 24.5569 172.204 24.6805 172.186L24.7635 172.174C24.7838 172.171 24.804 172.168 24.8243 172.165Z" fill="white"/>
<path d="M25.8082 168.44C25.2506 169.007 24.0699 168.979 23.7633 168.349C23.4738 167.759 23.8263 167.673 24.176 167.588C24.2968 167.559 24.4173 167.53 24.5109 167.48C25.1163 167.565 25.6063 167.811 25.8106 168.441L25.8082 168.44Z" fill="white"/>
<path d="M25.6576 163.873C25.1336 164.446 24.0735 164.377 23.7693 163.754C23.6 163.405 23.8235 163.274 24.0888 163.186C24.6446 163.001 25.127 163.138 25.5326 163.556C25.5538 163.609 25.5745 163.662 25.5951 163.715C25.6157 163.768 25.6364 163.82 25.6576 163.873Z" fill="white"/>
<path d="M24.7413 159.554C25.078 159.674 25.4126 159.751 25.7665 159.66C25.8526 158.845 25.5197 158.344 24.6917 158.206C24.601 158.301 24.4542 158.336 24.3089 158.37C24.0578 158.429 23.811 158.487 23.8653 158.857C23.9243 159.263 24.328 159.407 24.6941 159.537L24.7413 159.554Z" fill="white"/>
<path d="M23.8511 154.212C23.8289 154.119 24.0194 153.911 24.1545 153.859C24.8372 153.597 25.3303 153.903 25.7216 154.449C25.8083 154.741 25.7258 154.992 25.5472 155.224L25.5436 155.225C25.5054 155.217 25.4664 155.21 25.4273 155.202C25.3363 155.186 25.2449 155.169 25.1619 155.133C25.049 155.085 24.9287 155.047 24.8083 155.008C24.3916 154.874 23.9729 154.74 23.8511 154.212Z" fill="white"/>
<path d="M25.0705 150.51C24.5627 150.387 24.0468 150.239 23.8177 149.693C23.7481 149.528 23.8241 149.343 24.0099 149.263C24.565 149.015 25.023 149.2 25.4324 149.592C25.4582 149.736 25.4837 149.881 25.5092 150.025L25.5096 150.027C25.5352 150.172 25.5608 150.317 25.5867 150.462L25.5843 150.461C25.5286 150.467 25.4717 150.478 25.4148 150.489C25.2961 150.513 25.1776 150.536 25.0705 150.51Z" fill="white"/>
<path d="M23.7933 145.412C23.6364 145.341 23.4716 145.037 23.4946 144.867C23.5535 144.477 23.8313 144.445 24.1135 144.413C24.2809 144.393 24.4498 144.374 24.5754 144.28C25.0705 144.487 25.4117 144.836 25.5688 145.356C25.0729 146.034 24.5298 145.769 24.0099 145.515C23.9372 145.48 23.865 145.444 23.7933 145.412Z" fill="white"/>
<path d="M25.1522 141.117C24.5623 141.054 24.0553 140.829 23.765 140.28C23.6761 140.111 23.7484 139.939 23.9498 139.87C24.5033 139.672 24.9695 139.882 25.4108 140.195C25.4542 140.488 25.4976 140.782 25.5422 141.08L25.5398 141.079C25.4988 141.083 25.4579 141.09 25.4172 141.097C25.3272 141.112 25.2382 141.127 25.1522 141.117Z" fill="white"/>
<path d="M25.5204 135.727C25.4072 136.364 25.0222 136.545 24.4491 136.326C23.9335 136.129 23.4069 135.807 23.3716 135.242C23.3456 134.845 23.5942 134.862 23.8544 134.881C24.0238 134.892 24.1981 134.905 24.3046 134.803C24.8363 134.944 25.3266 135.142 25.524 135.726L25.5204 135.727Z" fill="white"/>
<path d="M25.4194 131.401C25.2753 131.684 25.0917 131.943 24.7336 131.912C24.1075 131.855 23.3941 131.727 23.3083 131.013C23.2406 130.448 23.6036 130.438 23.9707 130.428C24.1485 130.423 24.3272 130.418 24.4584 130.349C24.9693 130.525 25.3094 130.859 25.4218 131.402L25.4194 131.401Z" fill="white"/>
<path d="M23.5606 127.362C22.8914 127.284 22.7323 126.714 22.7896 126.163C22.8475 125.601 23.2755 125.632 23.68 125.662C23.7298 125.665 23.7793 125.669 23.8276 125.671C24.377 125.701 24.8514 125.924 25.2976 126.227C25.3151 126.287 25.3331 126.347 25.3509 126.407C25.3688 126.467 25.3867 126.526 25.4042 126.587L25.4055 126.584C25.1214 127.549 24.3638 127.458 23.6614 127.374C23.6276 127.37 23.594 127.366 23.5606 127.362Z" fill="white"/>
<path d="M25.1676 121.755C25.2339 121.467 25.1741 120.889 24.4042 120.883C23.4418 120.876 22.9532 121.835 23.4308 122.32C23.9084 122.805 25.2182 122.264 25.1676 121.755Z" fill="white"/>
<path d="M23.403 117.266C23.8354 117.566 24.8002 117.852 25.2001 116.594L25.1963 116.58C25.0563 116.044 24.9155 115.506 24.1549 115.684C23.2885 115.871 23.3399 116.495 23.3911 117.117C23.3952 117.167 23.3993 117.217 23.403 117.266Z" fill="white"/>
<path d="M25.276 111.422C24.8225 112.673 24.5643 112.771 23.4801 112.092L23.4789 112.094C23.4753 112.045 23.4711 111.995 23.467 111.945C23.4158 111.323 23.3644 110.699 24.2308 110.512C24.9914 110.334 25.1322 110.872 25.2722 111.407L25.276 111.422Z" fill="white"/>
<path d="M24.2704 106.39C24.9474 106.707 25.4771 107.095 24.9678 107.947L24.9654 107.945C24.8921 107.943 24.8185 107.94 24.7449 107.937C24.5977 107.932 24.4505 107.926 24.3053 107.926C24.259 107.926 24.2125 107.927 24.166 107.927C23.5816 107.933 23.0019 107.939 22.9964 107.066C22.9914 106.371 23.3741 106.401 23.7565 106.43C23.9429 106.445 24.1292 106.459 24.2704 106.39Z" fill="white"/>
<path d="M25.2977 103.26C25.135 103.615 24.8524 103.767 24.4698 103.795C23.6528 103.853 23.0046 103.538 23.0076 102.697C23.0096 102.061 23.356 102.142 23.7138 102.225C23.936 102.277 24.1627 102.33 24.3138 102.212C24.8053 102.408 25.1975 102.699 25.2989 103.264L25.2977 103.26Z" fill="white"/>
<circle cx="25.1796" cy="243.353" r="20.23" fill="white" stroke="black" stroke-width="0.430425"/>
<circle cx="25.1798" cy="243.353" r="18.9387" fill="white" stroke="black" stroke-width="0.430425"/>
<path d="M25.3945 245.721C26.3454 245.721 27.1162 244.95 27.1162 243.999C27.1162 243.85 27.0974 243.706 27.062 243.569C26.9868 243.276 26.8367 243.014 26.6334 242.804L26.3733 242.582C26.0954 242.39 25.7581 242.277 25.3945 242.277C25.0919 242.277 24.8075 242.356 24.5604 242.493C24.3264 242.622 24.1259 242.805 23.9749 243.025C23.7844 243.302 23.6728 243.637 23.6728 243.999C23.6728 244.95 24.4437 245.721 25.3945 245.721Z" fill="black"/>
<path fill-rule="evenodd" clip-rule="evenodd" d="M20.0142 239.48L23.9749 243.025C24.1259 242.805 24.3264 242.622 24.5604 242.493L20.4448 238.834C20.6169 237.112 19.3687 236.467 18.5078 236.682H17.8622L16.3557 235.391H15.9253V235.821L17.4318 237.112L17.647 237.543C17.4748 239.437 19.2251 239.695 20.0142 239.48ZM18.9383 238.834C19.4137 238.834 19.7991 238.449 19.7991 237.973C19.7991 237.498 19.4137 237.112 18.9383 237.112C18.4628 237.112 18.0774 237.498 18.0774 237.973C18.0774 238.449 18.4628 238.834 18.9383 238.834Z" fill="black"/>
<path fill-rule="evenodd" clip-rule="evenodd" d="M26.3733 242.582C26.4672 242.647 26.5544 242.722 26.6334 242.804C26.8367 243.014 26.9868 243.276 27.062 243.569L34.864 239.695C36.0692 240.384 37.0161 239.695 37.2313 238.834L37.877 238.188L40.0291 237.112V236.682H39.5987L37.6617 237.543L36.5857 237.758C34.864 237.414 34.577 238.619 34.6488 239.264L26.3733 242.582ZM35.9401 239.48C36.2966 239.48 36.5857 239.191 36.5857 238.834C36.5857 238.477 36.2966 238.188 35.9401 238.188C35.5835 238.188 35.2944 238.477 35.2944 238.834C35.2944 239.191 35.5835 239.48 35.9401 239.48Z" fill="black"/>
<path d="M32.3685 231.248C32.3106 231.348 32.2784 231.426 32.2716 231.482C32.2681 231.541 32.2908 231.595 32.3396 231.644C32.3884 231.694 32.4775 231.756 32.6067 231.831C32.6131 231.835 32.6108 231.846 32.5996 231.866C32.5884 231.885 32.5796 231.893 32.5731 231.889C32.4762 231.833 32.4012 231.788 32.3482 231.753L32.0117 231.552L31.6843 231.369C31.6243 231.339 31.5442 231.295 31.444 231.237C31.4343 231.232 31.4351 231.219 31.4463 231.2C31.4575 231.18 31.4679 231.174 31.4776 231.179C31.6036 231.252 31.7003 231.297 31.7678 231.314C31.8385 231.334 31.8982 231.327 31.947 231.295C31.9975 231.26 32.0508 231.193 32.1068 231.097L33.4021 228.853C33.4581 228.756 33.4878 228.678 33.4913 228.62C33.4948 228.562 33.4705 228.507 33.4185 228.455C33.3715 228.402 33.285 228.339 33.1591 228.267C33.1494 228.261 33.1501 228.249 33.1613 228.229C33.1725 228.21 33.1829 228.203 33.1926 228.209L33.4273 228.351C33.5592 228.435 33.6656 228.501 33.7464 228.548C33.8368 228.6 33.9517 228.662 34.0912 228.734L34.3217 228.86C34.3282 228.864 34.3258 228.876 34.3146 228.895C34.3034 228.915 34.2946 228.922 34.2881 228.919C34.1621 228.846 34.0629 228.801 33.9903 228.785C33.921 228.771 33.861 228.782 33.8104 228.817C33.7649 228.851 33.7142 228.917 33.6582 229.014L32.3685 231.248Z" fill="black"/>
<path d="M36.9229 236.303C36.8228 236.361 36.7557 236.413 36.7216 236.458C36.6895 236.507 36.6821 236.565 36.6995 236.633C36.7169 236.7 36.7629 236.799 36.8376 236.928C36.8413 236.934 36.8335 236.943 36.8141 236.954C36.7947 236.965 36.7831 236.968 36.7794 236.961C36.7234 236.864 36.6812 236.788 36.6528 236.731L36.4618 236.389L36.2695 236.067C36.2327 236.011 36.1853 235.932 36.1275 235.832C36.1219 235.823 36.1288 235.812 36.1482 235.801C36.1676 235.79 36.1801 235.789 36.1857 235.799C36.2584 235.925 36.3197 236.012 36.3694 236.061C36.421 236.113 36.4759 236.137 36.5342 236.134C36.5957 236.128 36.6749 236.098 36.7718 236.042L39.0155 234.746C39.1124 234.69 39.1769 234.638 39.2091 234.589C39.2413 234.541 39.2477 234.481 39.2284 234.41C39.2142 234.341 39.1708 234.243 39.098 234.117C39.0924 234.107 39.0993 234.097 39.1187 234.086C39.1381 234.075 39.1506 234.074 39.1562 234.084L39.2884 234.324C39.3603 234.463 39.4196 234.573 39.4662 234.654C39.5184 234.745 39.5869 234.856 39.6717 234.988L39.8081 235.213C39.8118 235.219 39.804 235.228 39.7846 235.239C39.7652 235.25 39.7536 235.253 39.7499 235.246C39.6772 235.12 39.6134 235.032 39.5586 234.982C39.5056 234.935 39.4484 234.914 39.3869 234.92C39.3304 234.926 39.2538 234.958 39.1569 235.014L36.9229 236.303ZM37.2868 236.934C37.1867 236.992 37.1196 237.043 37.0856 237.089C37.0534 237.137 37.046 237.196 37.0634 237.263C37.0809 237.33 37.1269 237.429 37.2015 237.558C37.2052 237.565 37.1974 237.573 37.178 237.585C37.1586 237.596 37.1471 237.598 37.1433 237.592C37.0874 237.495 37.0452 237.418 37.0167 237.361L36.8257 237.019L36.6334 236.697C36.5966 236.641 36.5493 236.563 36.4915 236.463C36.4859 236.453 36.4928 236.442 36.5121 236.431C36.5315 236.42 36.544 236.419 36.5496 236.429C36.6223 236.555 36.6836 236.642 36.7333 236.691C36.7849 236.743 36.8398 236.768 36.8981 236.764C36.9596 236.759 37.0388 236.728 37.1358 236.672L39.3794 235.377C39.4763 235.321 39.5409 235.268 39.573 235.22C39.6052 235.171 39.6116 235.111 39.5924 235.041C39.5782 234.971 39.5347 234.874 39.462 234.748C39.4564 234.738 39.4633 234.727 39.4826 234.716C39.502 234.705 39.5145 234.704 39.5201 234.714L39.6524 234.954C39.7242 235.094 39.7835 235.204 39.8301 235.284C39.8823 235.375 39.9509 235.486 40.0357 235.618L40.172 235.843C40.1757 235.849 40.1679 235.858 40.1485 235.87C40.1291 235.881 40.1176 235.883 40.1138 235.877C40.0411 235.751 39.9773 235.663 39.9225 235.612C39.8695 235.565 39.8123 235.545 39.7508 235.55C39.6944 235.557 39.6177 235.588 39.5208 235.644L37.2868 236.934Z" fill="black"/>
<path d="M34.4856 257.26C34.4953 257.255 34.4945 257.242 34.4833 257.223C34.4721 257.203 34.4617 257.196 34.452 257.202C34.3422 257.265 34.2361 257.294 34.1338 257.289C34.0366 257.285 33.9233 257.234 33.7937 257.136L31.2085 255.12C31.1978 255.109 31.1763 255.113 31.144 255.132C31.1181 255.147 31.1041 255.163 31.1019 255.182L31.4185 258.495C31.4363 258.652 31.4279 258.776 31.3931 258.865C31.3616 258.952 31.2957 259.024 31.1956 259.082C31.1859 259.088 31.1866 259.1 31.1978 259.12C31.209 259.139 31.2195 259.146 31.2291 259.14L31.4347 259.015C31.5214 258.956 31.5874 258.914 31.6326 258.888C31.7263 258.834 31.8397 258.773 31.9726 258.705L32.1838 258.589C32.1935 258.584 32.1927 258.571 32.1815 258.552C32.1703 258.532 32.1599 258.525 32.1502 258.531C32.0501 258.589 31.9676 258.621 31.9029 258.629C31.8414 258.634 31.7947 258.609 31.763 258.554C31.7406 258.515 31.7272 258.459 31.7227 258.384L31.4334 255.443L33.7088 257.224C33.7631 257.266 33.8014 257.306 33.8238 257.345C33.8574 257.403 33.851 257.463 33.8045 257.524C33.7613 257.584 33.6718 257.652 33.5361 257.731C33.5264 257.736 33.5272 257.749 33.5384 257.768C33.5496 257.788 33.56 257.795 33.5697 257.789L33.7607 257.672C33.8668 257.602 33.9619 257.543 34.0459 257.495C34.1137 257.455 34.1915 257.415 34.2792 257.373L34.4856 257.26Z" fill="black"/>
<path d="M36.0621 251.696C35.9619 251.638 35.8948 251.586 35.8608 251.541C35.8286 251.492 35.8213 251.434 35.8387 251.366C35.8561 251.299 35.9021 251.201 35.9767 251.071C35.9804 251.065 35.9726 251.056 35.9532 251.045C35.9339 251.034 35.9223 251.031 35.9186 251.038C35.8626 251.135 35.8204 251.211 35.7919 251.268L35.6009 251.61L35.4086 251.932C35.3718 251.988 35.3245 252.067 35.2667 252.167C35.2611 252.177 35.268 252.187 35.2874 252.198C35.3068 252.209 35.3192 252.21 35.3248 252.2C35.3976 252.074 35.4588 251.987 35.5085 251.938C35.5601 251.886 35.6151 251.862 35.6734 251.865C35.7349 251.871 35.8141 251.901 35.911 251.957L38.1546 253.253C38.2516 253.309 38.3161 253.361 38.3483 253.41C38.3804 253.458 38.3869 253.518 38.3676 253.589C38.3534 253.658 38.3099 253.756 38.2372 253.882C38.2316 253.892 38.2385 253.902 38.2579 253.913C38.2773 253.924 38.2898 253.925 38.2954 253.915L38.4276 253.675C38.4995 253.536 38.5587 253.426 38.6054 253.345C38.6576 253.254 38.7261 253.143 38.8109 253.011L38.9472 252.786C38.951 252.78 38.9431 252.771 38.9237 252.76C38.9044 252.749 38.8928 252.746 38.8891 252.753C38.8163 252.879 38.7526 252.967 38.6977 253.017C38.6448 253.064 38.5875 253.085 38.526 253.079C38.4696 253.073 38.3929 253.041 38.296 252.985L36.0621 251.696ZM40.3995 250.271C40.4051 250.261 40.3982 250.251 40.3788 250.24C40.3594 250.228 40.3469 250.228 40.3413 250.237C40.2779 250.347 40.2005 250.425 40.1092 250.472C40.0229 250.517 39.8993 250.529 39.7384 250.51L36.4916 250.056C36.4768 250.052 36.4601 250.066 36.4414 250.099C36.4265 250.124 36.4227 250.146 36.43 250.163L38.3606 252.874C38.4549 253.001 38.5092 253.112 38.5236 253.207C38.5398 253.298 38.5191 253.394 38.4612 253.494C38.4556 253.503 38.4625 253.514 38.4819 253.525C38.5013 253.536 38.5138 253.537 38.5194 253.527L38.6348 253.316C38.6806 253.222 38.7165 253.152 38.7427 253.107C38.7968 253.013 38.8643 252.904 38.9454 252.778L39.0705 252.573C39.0761 252.563 39.0693 252.553 39.0499 252.541C39.0305 252.53 39.018 252.529 39.0124 252.539C38.9546 252.639 38.8994 252.709 38.847 252.747C38.7964 252.783 38.7436 252.785 38.6887 252.753C38.6499 252.73 38.6099 252.688 38.5685 252.625L36.8476 250.223L39.7087 250.628C39.7767 250.637 39.8301 250.653 39.8688 250.675C39.927 250.709 39.9513 250.764 39.9417 250.84C39.9339 250.913 39.8909 251.018 39.8126 251.153C39.807 251.163 39.8139 251.173 39.8332 251.185C39.8526 251.196 39.8651 251.197 39.8707 251.187L39.9778 250.99C40.0347 250.877 40.0875 250.778 40.1359 250.694C40.1751 250.626 40.2222 250.552 40.2771 250.472L40.3995 250.271Z" fill="black"/>
<path d="M38.7735 242.921C38.6579 242.921 38.574 242.932 38.5218 242.955C38.4695 242.981 38.4341 243.027 38.4154 243.094C38.3968 243.162 38.3875 243.27 38.3875 243.419C38.3875 243.426 38.3763 243.43 38.3539 243.43C38.3315 243.43 38.3203 243.426 38.3203 243.419C38.3203 243.307 38.3222 243.219 38.3259 243.156L38.3315 242.764L38.3259 242.389C38.3222 242.322 38.3203 242.231 38.3203 242.115C38.3203 242.104 38.3315 242.098 38.3539 242.098C38.3763 242.098 38.3875 242.104 38.3875 242.115C38.3875 242.261 38.3968 242.367 38.4154 242.434C38.4341 242.505 38.4695 242.554 38.5218 242.58C38.5777 242.606 38.6616 242.619 38.7735 242.619L41.3643 242.619C41.4762 242.619 41.5583 242.606 41.6105 242.58C41.6627 242.554 41.6981 242.505 41.7168 242.434C41.7392 242.367 41.7504 242.261 41.7504 242.115C41.7504 242.104 41.7616 242.098 41.7839 242.098C41.8063 242.098 41.8175 242.104 41.8175 242.115L41.8119 242.389C41.8045 242.546 41.8007 242.671 41.8007 242.764C41.8007 242.869 41.8045 242.999 41.8119 243.156L41.8175 243.419C41.8175 243.426 41.8063 243.43 41.7839 243.43C41.7616 243.43 41.7504 243.426 41.7504 243.419C41.7504 243.274 41.7392 243.165 41.7168 243.094C41.6944 243.027 41.6552 242.981 41.5993 242.955C41.5471 242.932 41.465 242.921 41.3531 242.921L38.7735 242.921ZM38.7735 243.649C38.6579 243.649 38.574 243.66 38.5218 243.682C38.4695 243.709 38.4341 243.755 38.4154 243.822C38.3968 243.889 38.3875 243.998 38.3875 244.147C38.3875 244.154 38.3763 244.158 38.3539 244.158C38.3315 244.158 38.3203 244.154 38.3203 244.147C38.3203 244.035 38.3222 243.947 38.3259 243.884L38.3315 243.492L38.3259 243.117C38.3222 243.05 38.3203 242.959 38.3203 242.843C38.3203 242.832 38.3315 242.826 38.3539 242.826C38.3763 242.826 38.3875 242.832 38.3875 242.843C38.3875 242.989 38.3968 243.095 38.4154 243.162C38.4341 243.233 38.4695 243.281 38.5218 243.308C38.5777 243.334 38.6616 243.347 38.7735 243.347L41.3643 243.347C41.4762 243.347 41.5583 243.334 41.6105 243.308C41.6627 243.281 41.6981 243.233 41.7168 243.162C41.7392 243.095 41.7504 242.989 41.7504 242.843C41.7504 242.832 41.7616 242.826 41.7839 242.826C41.8063 242.826 41.8175 242.832 41.8175 242.843L41.8119 243.117C41.8045 243.274 41.8007 243.399 41.8007 243.492C41.8007 243.597 41.8045 243.727 41.8119 243.884L41.8175 244.147C41.8175 244.154 41.8063 244.158 41.7839 244.158C41.7616 244.158 41.7504 244.154 41.7504 244.147C41.7504 244.001 41.7392 243.893 41.7168 243.822C41.6944 243.755 41.6552 243.709 41.5993 243.682C41.5471 243.66 41.465 243.649 41.3531 243.649L38.7735 243.649ZM38.7735 244.377C38.6579 244.377 38.574 244.388 38.5218 244.41C38.4695 244.436 38.4341 244.483 38.4154 244.55C38.3968 244.617 38.3875 244.726 38.3875 244.875C38.3875 244.882 38.3763 244.886 38.3539 244.886C38.3315 244.886 38.3203 244.882 38.3203 244.875C38.3203 244.763 38.3222 244.675 38.3259 244.612L38.3315 244.22L38.3259 243.845C38.3222 243.778 38.3203 243.687 38.3203 243.571C38.3203 243.56 38.3315 243.554 38.3539 243.554C38.3763 243.554 38.3875 243.56 38.3875 243.571C38.3875 243.716 38.3968 243.823 38.4154 243.89C38.4341 243.961 38.4695 244.009 38.5218 244.035C38.5777 244.062 38.6616 244.075 38.7735 244.075L41.3643 244.075C41.4762 244.075 41.5583 244.062 41.6105 244.035C41.6627 244.009 41.6981 243.961 41.7168 243.89C41.7392 243.823 41.7504 243.716 41.7504 243.571C41.7504 243.56 41.7616 243.554 41.7839 243.554C41.8063 243.554 41.8175 243.56 41.8175 243.571L41.8119 243.845C41.8045 244.002 41.8007 244.127 41.8007 244.22C41.8007 244.325 41.8045 244.455 41.8119 244.612L41.8175 244.875C41.8175 244.882 41.8063 244.886 41.7839 244.886C41.7616 244.886 41.7504 244.882 41.7504 244.875C41.7504 244.729 41.7392 244.621 41.7168 244.55C41.6944 244.483 41.6552 244.436 41.5993 244.41C41.5471 244.388 41.465 244.377 41.3531 244.377L38.7735 244.377Z" fill="black"/>
<path d="M19.6465 231.164C19.6526 231.159 19.662 231.167 19.6748 231.185C19.6875 231.203 19.6908 231.215 19.6847 231.219C19.6049 231.274 19.541 231.316 19.4928 231.345L19.2458 231.509L18.9039 231.752C18.8508 231.794 18.7767 231.847 18.6816 231.913C18.6755 231.917 18.666 231.91 18.6533 231.892C18.6406 231.873 18.6373 231.862 18.6434 231.858C18.7354 231.794 18.7971 231.742 18.8285 231.703C18.8599 231.663 18.865 231.627 18.8437 231.597C18.8268 231.572 18.7907 231.55 18.7355 231.529L17.274 230.941L17.2522 232.276C17.2524 232.408 17.2716 232.501 17.3098 232.556C17.3798 232.657 17.5084 232.643 17.6955 232.514C17.7047 232.507 17.7157 232.513 17.7284 232.532C17.7412 232.55 17.7429 232.563 17.7337 232.569C17.6417 232.633 17.5716 232.679 17.5235 232.708L17.212 232.916L17.0266 233.052C16.995 233.078 16.9408 233.118 16.8641 233.171C16.8549 233.177 16.8439 233.171 16.8312 233.153C16.8185 233.134 16.8167 233.122 16.8259 233.116C16.9302 233.043 17.0102 232.943 17.0659 232.813C17.1195 232.681 17.1494 232.524 17.1555 232.343L17.1912 230.91L15.6767 230.304C15.5141 230.24 15.376 230.211 15.2623 230.217C15.1485 230.223 15.0365 230.264 14.926 230.341C14.9199 230.345 14.9105 230.338 14.8977 230.319C14.885 230.301 14.8817 230.29 14.8878 230.285C14.9246 230.26 14.9851 230.223 15.0691 230.174L15.2379 230.064C15.336 229.996 15.4566 229.908 15.5996 229.8L15.8357 229.63C15.8449 229.623 15.8559 229.629 15.8686 229.648C15.8813 229.666 15.8831 229.678 15.8739 229.685C15.7819 229.748 15.7212 229.802 15.692 229.845C15.6606 229.885 15.6555 229.92 15.6767 229.951C15.6916 229.972 15.7277 229.995 15.785 230.018L17.2104 230.584L17.2248 229.356C17.2241 229.197 17.2025 229.087 17.1601 229.026C17.0879 228.922 16.9628 228.931 16.7849 229.054C16.7757 229.061 16.7648 229.055 16.752 229.036C16.7393 229.018 16.7375 229.005 16.7467 228.999L16.957 228.86C17.0778 228.786 17.1827 228.718 17.2716 228.656C17.3238 228.62 17.3845 228.574 17.4539 228.517L17.6164 228.397C17.6256 228.391 17.6365 228.397 17.6493 228.415C17.662 228.434 17.6638 228.446 17.6546 228.453C17.446 228.597 17.336 228.877 17.3246 229.293L17.2886 230.618L18.8452 231.235C19.0099 231.303 19.1506 231.332 19.2674 231.324C19.3851 231.311 19.5115 231.257 19.6465 231.164ZM19.4834 230.807C19.5492 230.902 19.6062 230.965 19.6543 230.995C19.7055 231.023 19.764 231.026 19.8299 231.003C19.8957 230.98 19.9899 230.926 20.1126 230.841C20.1188 230.837 20.1282 230.844 20.141 230.862C20.1537 230.881 20.157 230.892 20.1509 230.896C20.0588 230.96 19.9857 231.008 19.9314 231.041L19.6061 231.26L19.301 231.478C19.248 231.519 19.1739 231.572 19.0788 231.638C19.0696 231.645 19.0586 231.639 19.0459 231.62C19.0331 231.602 19.0314 231.589 19.0406 231.583C19.1602 231.5 19.2423 231.432 19.2869 231.378C19.3346 231.323 19.3543 231.266 19.346 231.208C19.3357 231.147 19.2987 231.071 19.235 230.979L17.7607 228.849C17.697 228.757 17.6396 228.697 17.5884 228.668C17.5372 228.64 17.4772 228.639 17.4083 228.664C17.3403 228.684 17.2465 228.735 17.1269 228.818C17.1177 228.824 17.1067 228.818 17.094 228.8C17.0813 228.781 17.0795 228.769 17.0887 228.762L17.3173 228.611C17.4504 228.528 17.5553 228.46 17.632 228.407C17.7179 228.347 17.8231 228.27 17.9477 228.175L18.1608 228.021C18.1669 228.016 18.1763 228.023 18.1891 228.042C18.2018 228.06 18.2051 228.072 18.199 228.076C18.0793 228.159 17.9968 228.229 17.9512 228.288C17.9087 228.345 17.8927 228.403 17.9031 228.464C17.9144 228.52 17.9519 228.594 18.0155 228.686L19.4834 230.807Z" fill="black"/>
<path d="M14.1585 235.349C14.162 235.342 14.1736 235.344 14.1933 235.355C14.2131 235.366 14.2211 235.374 14.2176 235.381C14.1717 235.466 14.1339 235.533 14.1042 235.58L13.9589 235.839L13.7653 236.211C13.7368 236.272 13.6953 236.354 13.6405 236.455C13.637 236.462 13.6254 236.46 13.6057 236.449C13.586 236.439 13.5779 236.43 13.5814 236.424C13.6343 236.325 13.6657 236.251 13.6755 236.201C13.6853 236.151 13.6738 236.118 13.6409 236.1C13.6146 236.086 13.5721 236.082 13.5135 236.089L11.9447 236.231L12.5332 237.43C12.5932 237.546 12.6528 237.621 12.7119 237.653C12.8204 237.711 12.9284 237.64 13.0361 237.439C13.0414 237.429 13.0539 237.43 13.0736 237.44C13.0933 237.451 13.1005 237.461 13.0952 237.471C13.0423 237.57 13.0009 237.643 12.9712 237.69L12.7889 238.018L12.6853 238.223C12.6692 238.26 12.639 238.321 12.5949 238.403C12.5896 238.413 12.5771 238.412 12.5574 238.402C12.5377 238.391 12.5305 238.381 12.5358 238.371C12.5958 238.259 12.6211 238.133 12.6119 237.993C12.5993 237.85 12.5546 237.697 12.4776 237.533L11.8568 236.241L10.2327 236.391C10.0587 236.408 9.92239 236.445 9.82392 236.502C9.72545 236.559 9.64445 236.647 9.58092 236.765C9.57739 236.772 9.56577 236.77 9.54605 236.759C9.52633 236.749 9.51824 236.74 9.52177 236.733C9.54294 236.694 9.57976 236.633 9.63222 236.551L9.73244 236.377C9.78891 236.271 9.85622 236.138 9.93435 235.977L10.0671 235.718C10.0724 235.708 10.0849 235.708 10.1046 235.719C10.1243 235.73 10.1315 235.74 10.1262 235.75C10.0733 235.848 10.0436 235.923 10.0371 235.975C10.0273 236.025 10.0388 236.058 10.0717 236.076C10.0947 236.088 10.1371 236.092 10.199 236.087L11.7254 235.941L11.1791 234.842C11.1064 234.701 11.0372 234.613 10.9715 234.578C10.8598 234.518 10.7527 234.583 10.6504 234.774C10.6451 234.783 10.6326 234.783 10.6128 234.772C10.5931 234.762 10.5859 234.752 10.5912 234.742L10.7153 234.523C10.7889 234.401 10.8513 234.293 10.9025 234.198C10.9325 234.142 10.9654 234.073 11.0011 233.99L11.0915 233.81C11.0968 233.8 11.1093 233.801 11.129 233.811C11.1488 233.822 11.156 233.832 11.1507 233.842C11.0307 234.065 11.0603 234.365 11.2396 234.741L11.8106 235.936L13.4776 235.777C13.6549 235.762 13.7937 235.725 13.8939 235.664C13.9926 235.599 14.0808 235.494 14.1585 235.349Z" fill="black"/>
<path d="M16.1153 253.663C16.1818 253.568 16.2393 253.506 16.2877 253.476C16.3391 253.448 16.3976 253.446 16.4632 253.47C16.5289 253.493 16.6227 253.548 16.7447 253.633C16.7508 253.638 16.7603 253.631 16.7732 253.612C16.7861 253.594 16.7895 253.583 16.7834 253.578C16.6919 253.514 16.6191 253.465 16.5651 253.432L16.2416 253.211L15.9382 252.991C15.8854 252.949 15.8118 252.895 15.7172 252.828C15.708 252.822 15.697 252.828 15.6841 252.846C15.6713 252.864 15.6694 252.877 15.6785 252.883C15.7975 252.967 15.8791 253.036 15.9233 253.09C15.9705 253.146 15.9898 253.202 15.9811 253.26C15.9702 253.321 15.9326 253.397 15.8682 253.489L14.3772 255.607C14.3128 255.699 14.2549 255.758 14.2035 255.786C14.152 255.814 14.092 255.815 14.0233 255.789C13.9555 255.769 13.8621 255.717 13.7431 255.633C13.734 255.627 13.723 255.633 13.7101 255.651C13.6972 255.669 13.6953 255.682 13.7045 255.688L13.9319 255.841C14.0644 255.925 14.1687 255.994 14.245 256.048C14.3304 256.108 14.435 256.186 14.5588 256.283L14.7707 256.438C14.7768 256.443 14.7863 256.436 14.7992 256.417C14.812 256.399 14.8154 256.388 14.8093 256.384C14.6904 256.3 14.6083 256.228 14.5633 256.169C14.5212 256.112 14.5056 256.054 14.5165 255.993C14.5282 255.937 14.5663 255.864 14.6307 255.772L16.1153 253.663ZM16.7105 254.081C16.7771 253.987 16.8345 253.925 16.8829 253.895C16.9343 253.867 16.9928 253.865 17.0585 253.888C17.1241 253.912 17.218 253.966 17.34 254.052C17.3461 254.057 17.3556 254.05 17.3685 254.031C17.3813 254.013 17.3847 254.002 17.3786 253.997C17.2871 253.933 17.2143 253.884 17.1603 253.851L16.8368 253.63L16.5334 253.409C16.4807 253.368 16.407 253.314 16.3124 253.247C16.3033 253.241 16.2923 253.247 16.2794 253.265C16.2665 253.283 16.2646 253.296 16.2738 253.302C16.3928 253.386 16.4743 253.455 16.5185 253.508C16.5657 253.564 16.585 253.621 16.5763 253.679C16.5654 253.74 16.5278 253.816 16.4634 253.908L14.9724 256.026C14.908 256.118 14.8501 256.177 14.7987 256.205C14.7473 256.233 14.6872 256.234 14.6185 256.208C14.5507 256.188 14.4573 256.136 14.3384 256.052C14.3292 256.046 14.3182 256.052 14.3053 256.07C14.2924 256.088 14.2906 256.101 14.2997 256.107L14.5272 256.26C14.6596 256.344 14.7639 256.413 14.8402 256.467C14.9256 256.527 15.0302 256.605 15.1541 256.701L15.3659 256.857C15.372 256.862 15.3815 256.855 15.3944 256.836C15.4073 256.818 15.4107 256.807 15.4046 256.802C15.2856 256.719 15.2036 256.647 15.1585 256.588C15.1165 256.531 15.1009 256.472 15.1117 256.412C15.1235 256.356 15.1615 256.282 15.226 256.191L16.7105 254.081ZM17.7412 258.529C17.7504 258.535 17.7614 258.529 17.7743 258.511C17.7871 258.493 17.789 258.48 17.7799 258.474C17.6761 258.401 17.6053 258.317 17.5673 258.222C17.5303 258.132 17.5287 258.008 17.5628 257.849L18.3047 254.656C18.3102 254.642 18.2977 254.624 18.2672 254.602C18.2428 254.585 18.2217 254.579 18.204 254.585L15.3316 256.265C15.196 256.348 15.0805 256.392 14.9851 256.398C14.8928 256.406 14.7994 256.377 14.7048 256.31C14.6957 256.304 14.6846 256.309 14.6718 256.328C14.6589 256.346 14.657 256.358 14.6662 256.365L14.8661 256.499C14.9559 256.553 15.0221 256.595 15.0648 256.625C15.1532 256.687 15.2563 256.764 15.3741 256.856L15.5676 256.999C15.5768 257.006 15.5878 257 15.6007 256.982C15.6136 256.963 15.6154 256.951 15.6063 256.944C15.5117 256.878 15.4475 256.817 15.4137 256.761C15.383 256.707 15.3859 256.655 15.4224 256.603C15.4482 256.566 15.4941 256.53 15.5602 256.495L18.1067 254.996L17.4473 257.809C17.4322 257.876 17.4118 257.928 17.386 257.964C17.3473 258.019 17.2905 258.038 17.2153 258.022C17.1432 258.008 17.0431 257.956 16.915 257.865C16.9058 257.859 16.8948 257.865 16.8819 257.883C16.8691 257.902 16.8672 257.914 16.8764 257.92L17.0626 258.045C17.1706 258.111 17.2643 258.173 17.3436 258.229C17.4077 258.274 17.4772 258.327 17.5522 258.389L17.7412 258.529Z" fill="black"/>
<path d="M12.2332 247.486C12.3402 247.442 12.4221 247.421 12.4789 247.422C12.5371 247.426 12.5876 247.456 12.6304 247.511C12.6732 247.566 12.7229 247.662 12.7796 247.8C12.7825 247.807 12.7943 247.806 12.815 247.798C12.8357 247.789 12.8446 247.782 12.8417 247.775C12.7992 247.671 12.7642 247.591 12.7366 247.534L12.5825 247.173L12.4451 246.825C12.4231 246.761 12.39 246.676 12.3461 246.569C12.3418 246.558 12.3294 246.558 12.3086 246.566C12.2879 246.575 12.2797 246.584 12.284 246.594C12.3393 246.729 12.3711 246.831 12.3794 246.9C12.3891 246.973 12.3747 247.031 12.3363 247.075C12.2945 247.12 12.2218 247.164 12.1183 247.207L9.72215 248.192C9.61864 248.234 9.53777 248.254 9.47954 248.249C9.42131 248.245 9.37009 248.214 9.3259 248.155C9.27967 248.101 9.2289 248.007 9.17359 247.873C9.16933 247.863 9.15685 247.862 9.13615 247.87C9.11545 247.879 9.10723 247.888 9.11148 247.898L9.2209 248.15C9.28736 248.292 9.33832 248.406 9.37378 248.492C9.41349 248.589 9.45968 248.711 9.51234 248.859L9.60715 249.104C9.60999 249.111 9.62175 249.11 9.64246 249.102C9.66316 249.093 9.67209 249.086 9.66925 249.079C9.61394 248.944 9.58317 248.84 9.57692 248.766C9.57209 248.695 9.59059 248.637 9.63242 248.592C9.67221 248.551 9.74387 248.51 9.84737 248.467L12.2332 247.486ZM12.5099 248.16C12.6169 248.116 12.6988 248.094 12.7556 248.095C12.8138 248.099 12.8643 248.129 12.9071 248.184C12.9499 248.239 12.9996 248.335 13.0564 248.473C13.0592 248.48 13.071 248.479 13.0917 248.471C13.1124 248.462 13.1213 248.455 13.1185 248.448C13.0759 248.344 13.0409 248.264 13.0133 248.207L12.8592 247.847L12.7219 247.498C12.6998 247.434 12.6668 247.349 12.6228 247.242C12.6185 247.232 12.6061 247.231 12.5854 247.239C12.5647 247.248 12.5564 247.257 12.5607 247.268C12.616 247.402 12.6478 247.504 12.6561 247.573C12.6658 247.646 12.6514 247.704 12.6131 247.748C12.5712 247.794 12.4986 247.838 12.3951 247.88L9.99886 248.865C9.89536 248.908 9.81449 248.927 9.75626 248.922C9.69803 248.918 9.64681 248.887 9.60262 248.828C9.55639 248.775 9.50562 248.681 9.45031 248.546C9.44605 248.536 9.43357 248.535 9.41287 248.543C9.39217 248.552 9.38395 248.561 9.3882 248.572L9.49762 248.823C9.56408 248.965 9.61504 249.079 9.6505 249.166C9.69021 249.262 9.73639 249.384 9.78906 249.532L9.88387 249.777C9.8867 249.784 9.89847 249.784 9.91917 249.775C9.93988 249.767 9.94881 249.759 9.94597 249.752C9.89066 249.617 9.85988 249.513 9.85364 249.439C9.84881 249.368 9.86731 249.31 9.90914 249.265C9.94893 249.224 10.0206 249.183 10.1241 249.14L12.5099 248.16ZM12.7867 248.833C12.8936 248.789 12.9755 248.767 13.0323 248.768C13.0905 248.772 13.141 248.802 13.1838 248.857C13.2266 248.912 13.2764 249.009 13.3331 249.147C13.3359 249.153 13.3477 249.153 13.3684 249.144C13.3891 249.136 13.398 249.128 13.3952 249.121C13.3526 249.018 13.3176 248.937 13.29 248.88L13.1359 248.52L12.9986 248.171C12.9765 248.107 12.9435 248.022 12.8995 247.915C12.8953 247.905 12.8828 247.904 12.8621 247.912C12.8414 247.921 12.8332 247.93 12.8374 247.941C12.8927 248.075 12.9245 248.177 12.9328 248.246C12.9425 248.319 12.9282 248.377 12.8898 248.421C12.8479 248.467 12.7753 248.511 12.6718 248.553L10.2756 249.538C10.1721 249.581 10.0912 249.6 10.033 249.596C9.97474 249.591 9.92353 249.56 9.87933 249.501C9.8331 249.448 9.78233 249.354 9.72702 249.219C9.72277 249.209 9.71029 249.208 9.68959 249.216C9.66889 249.225 9.66067 249.234 9.66492 249.245L9.77433 249.496C9.8408 249.638 9.89176 249.752 9.92722 249.839C9.96693 249.935 10.0131 250.058 10.0658 250.205L10.1606 250.451C10.1634 250.458 10.1752 250.457 10.1959 250.448C10.2166 250.44 10.2255 250.432 10.2227 250.425C10.1674 250.291 10.1366 250.186 10.1304 250.112C10.1255 250.042 10.144 249.984 10.1859 249.938C10.2257 249.898 10.2973 249.856 10.4008 249.813L12.7867 248.833ZM11.2648 253.137C11.2691 253.147 11.2816 253.148 11.3023 253.14C11.323 253.131 11.3312 253.122 11.3269 253.112C11.2787 252.994 11.2642 252.885 11.2833 252.785C11.3004 252.689 11.3659 252.583 11.4798 252.468L13.822 250.174C13.8344 250.165 13.8335 250.143 13.8193 250.109C13.808 250.081 13.7933 250.065 13.7752 250.06L10.4499 249.933C10.2912 249.93 10.1701 249.905 10.0865 249.858C10.0044 249.816 9.94134 249.741 9.89738 249.634C9.89312 249.623 9.88064 249.622 9.85994 249.631C9.83924 249.639 9.83102 249.649 9.83527 249.659L9.93192 249.88C9.97853 249.973 10.0118 250.044 10.0316 250.093C10.0727 250.193 10.1182 250.313 10.1681 250.454L10.2544 250.679C10.2586 250.689 10.2711 250.69 10.2918 250.682C10.3125 250.673 10.3207 250.664 10.3165 250.653C10.2725 250.546 10.2512 250.46 10.2527 250.395C10.2556 250.333 10.2863 250.291 10.345 250.266C10.3864 250.249 10.4445 250.244 10.5194 250.249L13.4725 250.354L11.4041 252.372C11.3554 252.42 11.3103 252.453 11.2689 252.47C11.2068 252.495 11.1485 252.481 11.0939 252.427C11.0408 252.376 10.9844 252.278 10.9249 252.133C10.9206 252.123 10.9081 252.122 10.8874 252.131C10.8667 252.139 10.8585 252.149 10.8628 252.159L10.953 252.364C11.0082 252.478 11.0542 252.58 11.091 252.67C11.1208 252.743 11.1507 252.825 11.1807 252.918L11.2648 253.137Z" fill="black"/>
<path d="M9.93517 242.063C9.81953 242.063 9.7356 242.074 9.68337 242.096C9.63115 242.122 9.59571 242.169 9.57706 242.236C9.55841 242.303 9.54908 242.411 9.54908 242.561C9.54908 242.568 9.53789 242.572 9.51551 242.572C9.49312 242.572 9.48193 242.568 9.48193 242.561C9.48193 242.449 9.4838 242.361 9.48753 242.298L9.49312 241.906L9.48753 241.531C9.4838 241.464 9.48193 241.373 9.48193 241.257C9.48193 241.246 9.49312 241.24 9.51551 241.24C9.53789 241.24 9.54908 241.246 9.54908 241.257C9.54908 241.402 9.55841 241.509 9.57706 241.576C9.59571 241.647 9.63115 241.695 9.68337 241.721C9.73933 241.747 9.82326 241.76 9.93517 241.76L12.5259 241.76C12.6378 241.76 12.7199 241.747 12.7721 241.721C12.8243 241.695 12.8598 241.647 12.8784 241.576C12.9008 241.509 12.912 241.402 12.912 241.257C12.912 241.246 12.9232 241.24 12.9456 241.24C12.9679 241.24 12.9791 241.246 12.9791 241.257L12.9735 241.531C12.9661 241.688 12.9623 241.813 12.9623 241.906C12.9623 242.01 12.9661 242.141 12.9735 242.298L12.9791 242.561C12.9791 242.568 12.9679 242.572 12.9456 242.572C12.9232 242.572 12.912 242.568 12.912 242.561C12.912 242.415 12.9008 242.307 12.8784 242.236C12.856 242.169 12.8169 242.122 12.7609 242.096C12.7087 242.074 12.6266 242.063 12.5147 242.063L9.93517 242.063ZM9.54908 245.258C9.54908 245.266 9.53789 245.269 9.51551 245.269C9.49312 245.269 9.48193 245.266 9.48193 245.258C9.48193 245.161 9.4838 245.085 9.48753 245.029L9.49312 244.732L9.48753 244.312C9.4838 244.245 9.48193 244.154 9.48193 244.038C9.48193 244.031 9.49312 244.027 9.51551 244.027C9.53789 244.027 9.54908 244.031 9.54908 244.038C9.54908 244.15 9.55654 244.23 9.57146 244.279C9.58638 244.327 9.6125 244.352 9.6498 244.352C9.67964 244.352 9.71881 244.335 9.76731 244.301L11.0823 243.434L9.99672 242.656C9.88854 242.582 9.80088 242.544 9.73373 242.544C9.61063 242.544 9.54908 242.658 9.54908 242.886C9.54908 242.897 9.53789 242.902 9.51551 242.902C9.49312 242.902 9.48193 242.897 9.48193 242.886C9.48193 242.774 9.4838 242.69 9.48753 242.634L9.49312 242.259L9.48753 242.029C9.4838 241.988 9.48193 241.921 9.48193 241.828C9.48193 241.817 9.49312 241.811 9.51551 241.811C9.53789 241.811 9.54908 241.817 9.54908 241.828C9.54908 241.955 9.58638 242.078 9.66099 242.197C9.73933 242.317 9.85124 242.43 9.99672 242.539L11.155 243.384L12.5147 242.483C12.6602 242.386 12.7628 242.289 12.8225 242.192C12.8821 242.095 12.912 241.979 12.912 241.845C12.912 241.837 12.9232 241.834 12.9456 241.834C12.9679 241.834 12.9791 241.837 12.9791 241.845C12.9791 241.89 12.9754 241.96 12.9679 242.057L12.9623 242.259C12.9623 242.378 12.9661 242.527 12.9735 242.707L12.9791 242.998C12.9791 243.009 12.9679 243.014 12.9456 243.014C12.9232 243.014 12.912 243.009 12.912 242.998C12.912 242.886 12.9027 242.805 12.884 242.757C12.8691 242.708 12.843 242.684 12.8057 242.684C12.7796 242.684 12.7404 242.701 12.6882 242.735L11.4124 243.585L12.414 244.296C12.5445 244.385 12.6471 244.43 12.7217 244.43C12.8486 244.43 12.912 244.322 12.912 244.105C12.912 244.094 12.9232 244.089 12.9456 244.089C12.9679 244.089 12.9791 244.094 12.9791 244.105L12.9735 244.357C12.9661 244.499 12.9623 244.624 12.9623 244.732C12.9623 244.796 12.9661 244.872 12.9735 244.962L12.9791 245.163C12.9791 245.174 12.9679 245.18 12.9456 245.18C12.9232 245.18 12.912 245.174 12.912 245.163C12.912 244.909 12.7441 244.659 12.4084 244.413L11.3396 243.63L9.94636 244.559C9.79715 244.656 9.6927 244.755 9.63301 244.855C9.57706 244.96 9.54908 245.094 9.54908 245.258Z" fill="black"/>
<path d="M25.9238 230.147C25.9313 230.147 25.935 230.158 25.935 230.18C25.935 230.203 25.9313 230.214 25.9238 230.214C25.8268 230.214 25.7503 230.212 25.6944 230.208L25.3978 230.203L24.9782 230.208C24.911 230.212 24.8196 230.214 24.704 230.214C24.6965 230.214 24.6928 230.203 24.6928 230.18C24.6928 230.158 24.6965 230.147 24.704 230.147C24.8159 230.147 24.8961 230.139 24.9446 230.124C24.9931 230.109 25.0173 230.083 25.0173 230.046C25.0173 230.016 25.0005 229.977 24.967 229.928L24.0997 228.614L23.3219 229.699C23.2473 229.807 23.21 229.895 23.21 229.962C23.21 230.085 23.3237 230.147 23.5513 230.147C23.5625 230.147 23.5681 230.158 23.5681 230.18C23.5681 230.203 23.5625 230.214 23.5513 230.214C23.4394 230.214 23.3555 230.212 23.2995 230.208L22.9246 230.203L22.6952 230.208C22.6542 230.212 22.587 230.214 22.4937 230.214C22.4826 230.214 22.477 230.203 22.477 230.18C22.477 230.158 22.4826 230.147 22.4937 230.147C22.6206 230.147 22.7437 230.109 22.8631 230.035C22.9824 229.956 23.0962 229.845 23.2044 229.699L24.0493 228.541L23.1484 227.181C23.0514 227.036 22.9544 226.933 22.8575 226.873C22.7605 226.814 22.6448 226.784 22.5105 226.784C22.5031 226.784 22.4993 226.773 22.4993 226.75C22.4993 226.728 22.5031 226.717 22.5105 226.717C22.5553 226.717 22.6262 226.72 22.7232 226.728L22.9246 226.733C23.044 226.733 23.1932 226.73 23.3722 226.722L23.6632 226.717C23.6744 226.717 23.68 226.728 23.68 226.75C23.68 226.773 23.6744 226.784 23.6632 226.784C23.5513 226.784 23.4711 226.793 23.4226 226.812C23.3741 226.827 23.3499 226.853 23.3499 226.89C23.3499 226.916 23.3666 226.955 23.4002 227.008L24.2507 228.283L24.9614 227.282C25.0509 227.151 25.0957 227.049 25.0957 226.974C25.0957 226.847 24.9875 226.784 24.7711 226.784C24.7599 226.784 24.7543 226.773 24.7543 226.75C24.7543 226.728 24.7599 226.717 24.7711 226.717L25.0229 226.722C25.1647 226.73 25.2896 226.733 25.3978 226.733C25.4612 226.733 25.5377 226.73 25.6272 226.722L25.8287 226.717C25.8399 226.717 25.8455 226.728 25.8455 226.75C25.8455 226.773 25.8399 226.784 25.8287 226.784C25.575 226.784 25.3251 226.952 25.0789 227.287L24.2955 228.356L25.2244 229.749C25.3214 229.899 25.4202 230.003 25.5209 230.063C25.6254 230.119 25.7597 230.147 25.9238 230.147ZM25.9927 229.761C25.9927 229.876 26.0039 229.96 26.0263 230.012C26.0524 230.065 26.0991 230.1 26.1662 230.119C26.2333 230.137 26.3415 230.147 26.4907 230.147C26.4982 230.147 26.5019 230.158 26.5019 230.18C26.5019 230.203 26.4982 230.214 26.4907 230.214C26.3788 230.214 26.2912 230.212 26.2278 230.208L25.8361 230.203L25.4612 230.208C25.394 230.212 25.3026 230.214 25.187 230.214C25.1758 230.214 25.1702 230.203 25.1702 230.18C25.1702 230.158 25.1758 230.147 25.187 230.147C25.3325 230.147 25.4388 230.137 25.5059 230.119C25.5768 230.1 25.6253 230.065 25.6514 230.012C25.6775 229.956 25.6906 229.873 25.6906 229.761V227.17C25.6906 227.058 25.6775 226.976 25.6514 226.924C25.6253 226.871 25.5768 226.836 25.5059 226.817C25.4388 226.795 25.3325 226.784 25.187 226.784C25.1758 226.784 25.1702 226.773 25.1702 226.75C25.1702 226.728 25.1758 226.717 25.187 226.717L25.4612 226.722C25.6178 226.73 25.7428 226.733 25.8361 226.733C25.9405 226.733 26.0711 226.73 26.2278 226.722L26.4907 226.717C26.4982 226.717 26.5019 226.728 26.5019 226.75C26.5019 226.773 26.4982 226.784 26.4907 226.784C26.3453 226.784 26.2371 226.795 26.1662 226.817C26.0991 226.84 26.0524 226.879 26.0263 226.935C26.0039 226.987 25.9927 227.069 25.9927 227.181V229.761ZM26.7206 229.761C26.7206 229.876 26.7318 229.96 26.7542 230.012C26.7803 230.065 26.8269 230.1 26.8941 230.119C26.9612 230.137 27.0694 230.147 27.2186 230.147C27.2261 230.147 27.2298 230.158 27.2298 230.18C27.2298 230.203 27.2261 230.214 27.2186 230.214C27.1067 230.214 27.019 230.212 26.9556 230.208L26.5639 230.203L26.189 230.208C26.1219 230.212 26.0305 230.214 25.9148 230.214C25.9036 230.214 25.8981 230.203 25.8981 230.18C25.8981 230.158 25.9036 230.147 25.9148 230.147C26.0603 230.147 26.1666 230.137 26.2338 230.119C26.3047 230.1 26.3532 230.065 26.3793 230.012C26.4054 229.956 26.4184 229.873 26.4184 229.761V227.17C26.4184 227.058 26.4054 226.976 26.3793 226.924C26.3532 226.871 26.3047 226.836 26.2338 226.817C26.1666 226.795 26.0603 226.784 25.9148 226.784C25.9036 226.784 25.8981 226.773 25.8981 226.75C25.8981 226.728 25.9036 226.717 25.9148 226.717L26.189 226.722C26.3457 226.73 26.4707 226.733 26.5639 226.733C26.6684 226.733 26.7989 226.73 26.9556 226.722L27.2186 226.717C27.2261 226.717 27.2298 226.728 27.2298 226.75C27.2298 226.773 27.2261 226.784 27.2186 226.784C27.0731 226.784 26.9649 226.795 26.8941 226.817C26.8269 226.84 26.7803 226.879 26.7542 226.935C26.7318 226.987 26.7206 227.069 26.7206 227.181V229.761Z" fill="black"/>
<path d="M23.7984 259.992C23.7872 259.992 23.7816 259.981 23.7816 259.959C23.7816 259.936 23.7872 259.925 23.7984 259.925C23.9252 259.925 24.0315 259.897 24.1173 259.841C24.1994 259.789 24.2721 259.688 24.3355 259.539L25.5665 256.501C25.5703 256.486 25.5908 256.478 25.6281 256.478C25.6579 256.478 25.6785 256.486 25.6897 256.501L27.0717 259.528C27.1352 259.673 27.2042 259.776 27.2788 259.836C27.3497 259.895 27.4429 259.925 27.5586 259.925C27.5697 259.925 27.5753 259.936 27.5753 259.959C27.5753 259.981 27.5697 259.992 27.5586 259.992L27.3179 259.987C27.2135 259.979 27.1352 259.976 27.0829 259.976C26.9748 259.976 26.8461 259.979 26.6968 259.987L26.4562 259.992C26.445 259.992 26.4394 259.981 26.4394 259.959C26.4394 259.936 26.445 259.925 26.4562 259.925C26.5719 259.925 26.6595 259.912 26.7192 259.886C26.7752 259.86 26.8032 259.815 26.8032 259.752C26.8032 259.707 26.7864 259.651 26.7528 259.584L25.533 256.892L24.453 259.573C24.4269 259.636 24.4139 259.69 24.4139 259.735C24.4139 259.802 24.4493 259.851 24.5202 259.88C24.5873 259.91 24.6992 259.925 24.8559 259.925C24.8671 259.925 24.8727 259.936 24.8727 259.959C24.8727 259.981 24.8671 259.992 24.8559 259.992L24.6321 259.987C24.5053 259.979 24.3934 259.976 24.2964 259.976C24.218 259.976 24.1304 259.979 24.0334 259.987L23.7984 259.992ZM23.86 256.948C23.86 256.833 23.8488 256.749 23.8264 256.697C23.8003 256.644 23.7536 256.609 23.6865 256.59C23.6194 256.572 23.5112 256.562 23.362 256.562C23.3545 256.562 23.3508 256.551 23.3508 256.529C23.3508 256.506 23.3545 256.495 23.362 256.495C23.4739 256.495 23.5615 256.497 23.6249 256.501L24.0166 256.506L24.3915 256.501C24.4587 256.497 24.5501 256.495 24.6657 256.495C24.6769 256.495 24.6825 256.506 24.6825 256.529C24.6825 256.551 24.6769 256.562 24.6657 256.562C24.5202 256.562 24.4139 256.572 24.3468 256.59C24.2759 256.609 24.2274 256.644 24.2013 256.697C24.1752 256.753 24.1621 256.836 24.1621 256.948L24.1621 259.539C24.1621 259.651 24.1752 259.733 24.2013 259.785C24.2274 259.838 24.2759 259.873 24.3468 259.892C24.4139 259.914 24.5202 259.925 24.6657 259.925C24.6769 259.925 24.6825 259.936 24.6825 259.959C24.6825 259.981 24.6769 259.992 24.6657 259.992L24.3915 259.987C24.2349 259.979 24.1099 259.976 24.0166 259.976C23.9122 259.976 23.7816 259.979 23.6249 259.987L23.362 259.992C23.3545 259.992 23.3508 259.981 23.3508 259.959C23.3508 259.936 23.3545 259.925 23.362 259.925C23.5074 259.925 23.6156 259.914 23.6865 259.892C23.7536 259.869 23.8003 259.83 23.8264 259.774C23.8488 259.722 23.86 259.64 23.86 259.528L23.86 256.948Z" fill="black"/>
<path d="M24.9646 262.507L24.9646 260.57M6.02588 243.568L7.96279 243.568M42.3968 243.568L44.1185 243.568M24.9646 226.351L24.9646 224.199M34.4339 259.972L33.5365 258.418M16.3896 228.718L15.3956 226.997M41.5359 253.139L39.869 252.177M10.1149 234.998L8.55691 234.099M8.63217 253.002L10.3301 252.021M40.0294 234.875L41.7511 233.881M15.536 259.905L16.5191 258.203M33.6652 228.503L34.6491 226.799" stroke="black" stroke-width="0.430425"/>
</svg>
